<?xml version="1.0" encoding="utf-8"?>
<!-- Generator: Adobe Illustrator 19.0.0, SVG Export Plug-In . SVG Version: 6.00 Build 0)  -->
<svg version="1.1" id="Camada_1" xmlns="http://www.w3.org/2000/svg" xmlns:xlink="http://www.w3.org/1999/xlink" x="0px" y="0px"
	 viewBox="0 0 500 500" style="enable-background:new 0 0 500 500;" xml:space="preserve">
<style type="text/css">
	.st0{fill:#1A171B;stroke:#1A171B;stroke-width:4;stroke-linejoin:round;stroke-miterlimit:10;}
	.st1{fill:#1A171B;stroke:#1A171B;stroke-width:4;stroke-miterlimit:10;}
	.st2{fill:#B0B2B3;stroke:#1A171B;stroke-linejoin:round;stroke-miterlimit:10;}
	.st3{fill:#3D3D3F;stroke:#1A171B;stroke-linejoin:round;stroke-miterlimit:10;}
	.st4{fill:#58585A;stroke:#1A171B;stroke-linejoin:round;stroke-miterlimit:10;}
	.st5{fill:url(#XMLID_196_);stroke:#1A171B;stroke-linejoin:round;stroke-miterlimit:10;}
	.st6{fill:#6F7072;}
	.st7{fill:url(#XMLID_197_);stroke:#1A171B;stroke-linejoin:round;stroke-miterlimit:10;}
	.st8{fill:#FFFFFF;stroke:#1A171B;stroke-linejoin:round;stroke-miterlimit:10;}
	.st9{fill:#9B9C9E;stroke:#1A171B;stroke-miterlimit:10;}
	.st10{fill:#6F7072;stroke:#1A171B;stroke-linejoin:round;stroke-miterlimit:10;}
	.st11{fill:none;stroke:#1A171B;stroke-linejoin:round;stroke-miterlimit:10;}
	.st12{fill:#868789;stroke:#1A171B;stroke-linejoin:round;stroke-miterlimit:10;}
	.st13{fill:#B0B2B3;}
	.st14{fill:url(#XMLID_198_);stroke:#1A171B;stroke-linejoin:round;stroke-miterlimit:10;}
	.st15{fill:#1A171B;stroke:#1A171B;stroke-linejoin:round;stroke-miterlimit:10;}
	.st16{fill:#1A171B;stroke:#1A171B;stroke-miterlimit:10;}
</style>
<ellipse id="XMLID_195_" class="st0" cx="189.1" cy="299" rx="143.6" ry="96"/>
<path id="XMLID_194_" class="st0" d="M137.3,209.4c-2.2,0.6-9.4,3-15.5,4.7c-1,0.3-15.5,6.5-20.9,7.4c-16.8,2.9-32.5,6.6-32.5,6.6
	s1.9-7.6,3.4-11.4c0.7-1.8,18-4.2,31.9-5.2C121.6,210.2,138,209.2,137.3,209.4z"/>
<path id="XMLID_193_" class="st0" d="M170.9,199.3c0,0,2.8-9.4,15.7-6.1c10.1,2.5,22.6,10.8,22.6,10.8l-16.8-1L170.9,199.3z"/>
<path id="XMLID_192_" class="st0" d="M206.4,203.9c0,0,1.2-11.1,14.1-7.9c10.1,2.5,16.4,12.4,16.4,12.4l-15.9-2.6L206.4,203.9z"/>
<polygon id="XMLID_191_" class="st0" points="242.3,209.8 251,199.9 257,202 258.6,215 "/>
<polygon id="XMLID_190_" class="st0" points="167,204.2 185.8,202.9 181.3,218.3 174.2,218.7 "/>
<polygon id="XMLID_189_" class="st0" points="188.5,203 206.4,203.9 200.9,218.7 192.4,218.3 "/>
<polygon id="XMLID_188_" class="st0" points="212.3,204.7 233.6,208.1 223.7,222.6 216.2,220.9 "/>
<polygon id="XMLID_187_" class="st0" points="242.3,209.8 258.6,215 245.7,229.7 239.8,227.1 "/>
<polygon id="XMLID_186_" class="st0" points="260.9,238.9 268.7,245.5 284.7,227.4 270.1,219.8 "/>
<ellipse id="XMLID_185_" class="st0" cx="186.4" cy="271.1" rx="94" ry="52.8"/>
<path id="XMLID_184_" class="st1" d="M84.6,250.3c1.6-0.9,14.9,0.6,14.6,1.2c0,0-5.6,7.1-5.6,11.3c0,0-58.9,44.2-60,46
	c-1.4,2.4-8.5-16.8-5.4-19.7c3.1-2.9,13.7-12.9,24.5-20.2C63.5,261.6,83,251.1,84.6,250.3z"/>
<path id="XMLID_183_" class="st1" d="M35.5,316.8c-2,7.3,13.3,24.5,17.2,22.1c2.1-1.3,37.4-59.1,39.7-61.9c0,0-1.3-6.9,0.5-11.8
	c0,0-4.3,1.9-5.5,2.7c-2.2,1.5-18.9,12.1-29.9,22.3c-10.9,10.2-21.5,25.6-21.5,25.6"/>
<path id="XMLID_182_" class="st0" d="M83.8,262.7c1.7,0.1,4.3,6.3,2.5,7.4s-17.5,9.4-29.3,21.1c-12,11.9-21.5,25.6-21.5,25.6
	s-1.4-3.4-1.9-7.5c-0.3-1.9,8.7-15.9,20.3-26C67.2,271.7,82,262.6,83.8,262.7z"/>
<path id="XMLID_181_" class="st1" d="M62.7,343.5c2.5,4.7,15.2,16.3,15.4,15.6c0.2-0.7,2.4-18.1,6.8-35.2
	c4.6-17.8,12.9-34.4,12.9-34.4s-0.2-0.1-2.1-3.8c-1.8-3.5-2.1-4.9-2.1-4.9s-16.3,22-21.4,32.3C67,323.4,61.9,342,62.7,343.5z"/>
<path id="XMLID_180_" class="st0" d="M93,277.1c0.8,3.2,0.6,4.5,0,5.8c-0.6,1.2-15,20.5-19,28.9c-4,8.4-10,29.9-11.7,32.3
	c-1.7,2.4-10.3-3.3-9.6-5.2c0.7-2,7.4-20,14.2-31.6C73.8,295.7,92.6,275.5,93,277.1z"/>
<path id="XMLID_179_" class="st1" d="M108.9,301.5l5.6,3.6c0,0-3.8,16.8-4,39c-0.2,22.2-2.5,31.3-2.5,31.3l-7.5-10.9
	c0,0-2-18.1,0-33.4C102.6,315.8,108.9,301.5,108.9,301.5z"/>
<path id="XMLID_178_" class="st0" d="M102.1,294.4l7.4,7c0,0-6.7,16.5-8.2,28c-1.5,11.5-0.2,35-0.2,35h-11c0,0-3-20.5,0-38.3
	C93.2,308.4,102.1,294.4,102.1,294.4z"/>
<path id="XMLID_177_" class="st0" d="M101.2,364.5l8.9,14.2c0,0-0.6-0.5-9.2-4.7c-8.6-4.1-11.6-6.5-11.6-6.5l0.8-3H101.2z"/>
<path id="XMLID_176_" class="st1" d="M126.5,312.3c0,0-3.4,1.4-3.7,5.6c-2.1,26.7,6.6,68.4,10.9,69.7l6.2-10.6l11.4-0.5
	c0,0,10.1,14.6,11.7,14.9c1.6,0.3-3-9.6-3-9.6s-7.8-13.9-14.5-29.9c-6.7-15.9-10.3-35.3-10.3-35.3l-7.5-3.7"/>
<path id="XMLID_175_" class="st0" d="M139.8,376.5l-6.2,11.1c0,0,3.4,1.3,14.6,3.5c11.2,2.2,16.5,2.6,16.5,2.6l-13.5-17.1H139.8z"/>
<path id="XMLID_174_" class="st0" d="M139.8,376.5c-3.3,0-17.8-63.6-13.4-64.7c3.8,0,7.7,1.6,7.7,3.2c0,1.7,1.1,15.8,4.3,26.8
	c4.9,16.9,12.8,34.6,12.8,34.6S145,376.5,139.8,376.5z"/>
<path id="XMLID_173_" class="st1" d="M152,327.5c0.5-3.3,4.9-8.3,4.9-8.3l36.3,62l-4.6,9.9c0,0-1.1,3.5-2.9,2.6
	c-2.4-1.2-11.7-13.7-23.9-37.9C151.2,334.6,151.5,330.8,152,327.5z"/>
<path id="XMLID_172_" class="st0" d="M194.5,381.7c-7.9,0-43.7-60.9-37.3-62.3c3.8-1.1,8.7,0.3,8.7,0.3s3.5,10.9,13.4,26
	c9.9,15.1,27,35.9,27,35.9S199.6,381.7,194.5,381.7z"/>
<path id="XMLID_171_" class="st0" d="M193.1,381.7l-6.5,13.3c0,0,4.8,0.2,13.2-0.4c8.4-0.6,20.1-1.9,20.1-1.9l-13.6-11H193.1z"/>
<path id="XMLID_170_" class="st1" d="M189.1,321.4c0,0-6.2,3.7-6.4,10.7c0.2,0.8,5.9,14.6,18.5,28.8c7.3,8.2,32.2,29.1,32.2,29.1
	l7.3-1.5l6.1-13L189.1,321.4z"/>
<path id="XMLID_169_" class="st0" d="M246.8,375.4c-10.4,2.6-64.1-52.7-57.7-54c3.8-1.1,10.6,0.7,10.6,0.7s5.6,9.2,21.5,24.1
	c13.1,12.4,35.7,26.9,35.7,26.9S251.7,374.1,246.8,375.4z"/>
<path id="XMLID_168_" class="st0" d="M256.9,373.1l-10.1,2.2l-6.8,13.4c0,0,7.5-2.6,12.5-4.1c7.2-2.3,12.5-4.1,12.5-4.1L256.9,373.1
	z"/>
<path id="XMLID_167_" class="st1" d="M222.9,319c-1.8-0.5-8.8,7.5-8.7,9c0.1,0.9,7.7,10.7,24.3,23.8c18.7,14.7,37.4,23.6,37.4,23.6
	l10.2-5.7l2.2-9.7C288.3,360,224.7,319.5,222.9,319z"/>
<path id="XMLID_166_" class="st1" d="M249.1,310.4c0,0-7.9,8.5-7.6,10.6c0.3,2.1,11.6,9.3,25.6,18.5c15.9,10.4,33.9,18.8,35.1,18.6
	c2.3-0.4,17.5-19.3,17.5-19.3L249.1,310.4z"/>
<path id="XMLID_165_" class="st0" d="M288.3,360c-10.4,2.6-65.1-38-65.6-40.2c-0.5-2.2,9.5-6.3,11.2-4.2
	c1.8,2.1,14.7,11.8,25.2,18.9c15.7,10.7,37.9,19.8,37.9,19.8S293.2,358.8,288.3,360z"/>
<polygon id="XMLID_164_" class="st0" points="302.3,358 297.1,354.2 288.3,360 286.1,369.8 "/>
<path id="XMLID_163_" class="st1" d="M340.8,309.4c1,1.1-10.7,20.7-13.1,21.4c-2.4,0.7-17.5-0.6-35.1-6.9
	c-17.6-6.3-35.7-17.4-35.7-17.4s2.1-1.2,7.1-5.1c2.3-1.8,5.2-4.6,5.2-4.6S339.8,308.3,340.8,309.4z"/>
<path id="XMLID_162_" class="st0" d="M256.9,306c0.4,0.3,14.3,9.3,30.9,15c17.8,6.1,38.4,9,38.6,9.7c0.6,1.3-4.6,8.9-6.6,8
	c-1.2-0.5-24.7-6.1-44-13.8c-14.8-5.9-26.7-14.5-26.7-14.5L256.9,306z"/>
<path id="XMLID_161_" class="st1" d="M278.3,282c0,0,62.6,0.9,64.7,3.5c1,2.5-1.2,19.5-5.6,20.5c-4.3,1-23-1.4-36.7-4.2
	c-13.7-2.8-28-10-28-10s1.8-1.5,3.3-4.6C278.2,283.3,278.3,282,278.3,282z"/>
<path id="XMLID_160_" class="st0" d="M273.1,291.4l-4.4,5.1c0,0,11.6,6.6,29.7,11.3c18.1,4.7,36.3,6,38.3,6.4
	c2.1,0.4,5.4-6.2,4.5-8.2c-0.9-2-27.4-2.4-38.2-4.5C293.1,299.5,273.1,291.4,273.1,291.4z"/>
<path id="XMLID_159_" class="st1" d="M280.4,266.7c-0.9-1.1,50.4-9.1,52.7-7.2c2.3,1.9,2,23.7-0.5,24.4c-2.5,0.6-54.3-3.6-53.4-3.5
	S281.3,267.9,280.4,266.7z"/>
<path id="XMLID_158_" class="st0" d="M279.8,276.9l-1.4,5.1c0,0,21.2,3.7,31.5,4.8c10.3,1.1,28.9,2.2,31.5,1.7
	c2.6-0.6,2.1-8.9-0.9-8.8c-3,0.1-12.3,0.8-30.6,0.2C294.6,279.4,279.8,276.9,279.8,276.9z"/>
<path id="XMLID_157_" class="st1" d="M317.7,239c3.4,2.8-0.7,19.2-0.7,19.2l-38.1,2.8l-2.1-7L317.7,239z"/>
<path id="XMLID_156_" class="st0" d="M278.6,261l1.7,5.7c0.9,0,21.7-1.7,29.4-2.6c2.2-0.3,18.5-1.2,21.1-1.7c2.6-0.6,3.1-6.2,0.1-6
	c-3,0.1-16.5,2-23.3,2.1L278.6,261z"/>
<ellipse id="XMLID_155_" class="st0" cx="188.5" cy="268.9" rx="57.2" ry="32.6"/>
<path id="XMLID_154_" class="st0" d="M136.2,282c13.2,14.1,32.9,19.6,55.6,19.6c17.8,0,32.7-6.2,45.1-15.4
	c-10.8-15.1-30-23.7-53.2-23.7C163.8,262.4,147.7,271.3,136.2,282z"/>
<polygon id="XMLID_153_" class="st0" points="156.3,205.6 137.3,209.7 151.3,222.1 159.5,220.4 "/>
<polygon id="XMLID_152_" class="st0" points="129.9,211.7 113.2,217.5 131.3,228.3 138.9,225.5 "/>
<polygon id="XMLID_151_" class="st0" points="104.8,221.1 92.4,228 115.6,236.3 119.8,233.2 "/>
<polygon id="XMLID_150_" class="st0" points="83.8,262.7 86.9,269.6 92.9,265.7 93.6,262.7 "/>
<path id="XMLID_149_" class="st0" d="M111,218.4c0,0-5.4,2.2-11,5.3c-0.9,0.5-10,6.2-23.8,11.5c-16,6-30.1,13.8-30.1,13.8
	s0.1-7.8,0.7-11.9c0.3-1.9,16.6-8.2,29.9-12.4C93.8,219.3,111,217.6,111,218.4z"/>
<path id="XMLID_148_" class="st0" d="M192.4,203c-2.2,0-12.2-0.1-14,0c-1,0.1-18.8,2-18.8,2c-17.5-1.7-22.3-3.4-23.3-3.3
	c0,0-0.4-2.6,2.1-6c1.2-1.5,10.2-1,23.2,1C177.6,199.3,193.2,203,192.4,203z"/>
<path id="XMLID_147_" class="st0" d="M163.1,204.6c-2.2,0-16.6,2.8-18.4,3.1c-1,0.2-13.4,3.4-13.4,3.4c-17-1.6-30.2,0.6-30.2,0.6
	s-0.7-4.4,1.8-7.7c1.2-1.5,13.4-3.6,26.4-3C145.5,201.7,163.9,204.6,163.1,204.6z"/>
<polygon id="XMLID_146_" class="st0" points="88.1,230.9 83.8,242.4 103.5,246.1 109.1,241 "/>
<path id="XMLID_145_" class="st0" d="M88.1,230.9c1.2,0.8-3.2,10.9-4.9,12.1c-0.8,0.6-8.5,4.9-22.2,13.4
	c-12.5,7.7-27.4,19.9-27.4,19.9s-4-12.4-2.2-17.8c0.6-1.8,15.2-10.2,27.7-16C75.2,235.1,87.5,230.4,88.1,230.9z"/>
<path id="XMLID_144_" class="st0" d="M83.2,243c1.3,0.6,1.9,6.4,0.5,7.9c-0.7,0.7-18.1,8.4-31.1,18c-13.5,10-25.2,22.5-25.2,22.5
	S25,287,25,283.9c0-1.9,13.6-15.2,25-22.9C64.7,251.1,82.5,242.7,83.2,243z"/>
<polygon id="XMLID_143_" class="st0" points="83.2,243 84.6,250.3 99.1,251.4 101,248.5 "/>
<path id="XMLID_142_" class="st1" d="M472.4,148.7l-139.8,3.2l4.8,56.8l138.5-24.9c3.3-2.6,7.7-8.9,7.7-19.1
	C483.6,154.6,475.6,148.7,472.4,148.7z"/>
<path id="XMLID_141_" class="st0" d="M424.1,149.8c3.4,0.1,13,0,13,0c5.8-0.4,6.5,39.9,1.6,40.8c-4.9,0.9-14.6,2.6-14.6,2.6
	C431.1,190.7,435.4,160.1,424.1,149.8z"/>
<path id="XMLID_140_" class="st0" d="M393.8,150.7c3.9,0.2,17.4-0.6,17.4-0.6c6.7-0.5,9.5,43.7,1.5,45.1c-5.6,1-16.7,2.9-16.7,2.9
	C403.7,194.2,406.7,162.1,393.8,150.7z"/>
<path id="XMLID_139_" class="st0" d="M339.2,151.7c4.8,0.2,14.5,0.1,14.5,0.1c13.7,0,20.5,51.5,4.1,53.5c-6.9,0.8-15.9,2.6-15.9,2.6
	C351.3,203.4,355,165.2,339.2,151.7z"/>
<ellipse id="XMLID_138_" class="st0" cx="302.9" cy="183.3" rx="48.1" ry="48.8"/>
<path id="XMLID_137_" class="st0" d="M248.1,170.9c-2.7-3.4,44.4-51.1,50-51.1c7-0.1,20.5,10.2,20.5,10.2l-57.8,41.7
	C260.7,171.6,250.8,174.3,248.1,170.9z"/>
<path id="XMLID_136_" class="st0" d="M264.3,146.5c0,0,55.3-36.9,77-14.1c3.2,3.2,4.7,32.4,4.7,32.4l-74.9-3.2L264.3,146.5z"/>
<path id="XMLID_135_" class="st0" d="M290.4,207.4c9,1.5,22.6,19.9,21.4,24.3c-1.3,4.4-13.3,12.8-15.8,12c-2.5-0.8-14.2-27-14.2-27
	S286.7,206.8,290.4,207.4z"/>
<ellipse id="XMLID_134_" class="st0" cx="275.7" cy="188.4" rx="4.6" ry="7.4"/>
<path id="XMLID_133_" class="st0" d="M272.8,249.6c0,0,27.9-12.6,35.6-15.5c6.8-2.6,11.4,5.6,7.8,7.5c-4.2,2.2-39.4,13.7-39.4,13.7
	L272.8,249.6z"/>
<path id="XMLID_132_" class="st1" d="M273,162.6c11.8-20.8,65.3-23.1,67.3-24.6c3.6-2,2.1-3.5,1.4-5.2c-1.7-3.8-14.1-7.5-16.3-7.6
	c-27.6-1-51.5,15.9-60,21.3C262.2,153.2,269.3,163.8,273,162.6z"/>
<path id="XMLID_131_" class="st0" d="M286.2,149.8c5.3-8,73.9-5.1,78.4,19.9c0,5.6-14.1,23.5-14.1,23.5l-65.1-20.5
	C285.4,172.6,283,155.7,286.2,149.8z"/>
<path id="XMLID_130_" class="st0" d="M290.8,172.7c0,0,8.2-2.6,14.4,0c6.3,2.6,50.6,15.7,54.2,40.5c-0.8,4.7-7.9,13.6-12,13.9
	c-4.1,0.4-52.7-39.3-52.7-39.3L290.8,172.7z"/>
<path id="XMLID_129_" class="st0" d="M292.8,186.6c0,0,39.3,29.7,44.8,35c5.5,5.3-7.3,27.1-12.5,28.2c-5.2,1.1-13.1-32.9-37.6-43.8
	C285.4,205.4,292.8,186.6,292.8,186.6z"/>
<path id="XMLID_128_" class="st1" d="M298.9,196.7c0,0,29.7,35.8,30.1,41.7c0.6,8.4-4.1,15.1-8.3,7c-3.5-6.7-27.2-42.5-27.2-42.5
	L298.9,196.7z"/>
<path id="XMLID_127_" class="st1" d="M294,181.9l13-7.4c0,0,44.2,40.5,44.2,49.8c0,2.3-3.8,2.8-3.8,2.8s-9.8-5.5-19.2-13.8
	c-8.1-7.2-34.6-24.9-34.6-24.9L294,181.9z"/>
<path id="XMLID_126_" class="st1" d="M285.2,167.6c14.7-8.2,73.2,9,75.2,7.5c8-4.5-2-18.9-16.5-23.4c-17.3-5-48.5-7.8-57-2.4
	C283.7,156.1,281.5,168.8,285.2,167.6z"/>
<path id="XMLID_125_" class="st0" d="M306.9,174.5c-0.3-2.7-9.6-2.4-16.2-1.8c-1.2-2.2-2.6-4.1-4.2-5.7c1.8-6.3,4.6-17.4,1.7-18.3
	c-2-0.4-7.3,7.6-10.8,13.4c-0.6-0.1-1.3-0.1-2-0.1c-1,0-1.9,0.1-2.9,0.3c-1.9-6.4-5.4-16.5-8.2-15.7c-2.5,0.9-2,17.2-1.8,22.4
	c-0.7,0.8-1.3,1.8-1.9,2.7c-5.3-1.8-11.2-3-12.7-0.7c-1.1,2,4.2,7.5,8.7,11.7c-0.3,2-0.5,4-0.5,6.1c-2.3,2.8-8.4,10.7-5.9,14.3
	c1.4,1.7,5.7,1.4,9,0.8c1.5,3.2,3.4,5.9,5.7,8c0,6.6,0.5,14,3,15.5c2.5,1.6,5.3-5.3,7.1-11.3c0.1,0,0.1,0,0.2,0c2.1,0,4.1-0.5,6-1.3
	c1.6,5.9,4.5,15,7,14.5c3.8-1.1,2-15.2,1-21.7c0.8-1.2,1.6-2.6,2.2-4c5.3,1.9,10.6,3.4,11.7,2c1.8-2.5-4-8.5-8.9-13
	c0.1-1.1,0.2-2.3,0.2-3.5c0-2.4-0.2-4.8-0.7-7C300,179.5,307,176.3,306.9,174.5z"/>
<ellipse id="XMLID_124_" class="st0" cx="148.4" cy="232.2" rx="8.8" ry="6.1"/>
<ellipse id="XMLID_123_" class="st0" cx="113.2" cy="267.2" rx="8.8" ry="6.1"/>
<ellipse id="XMLID_122_" class="st0" cx="264.3" cy="265.2" rx="8.8" ry="6.1"/>
<ellipse id="XMLID_121_" class="st0" cx="228.1" cy="304.4" rx="8.8" ry="6.1"/>
<ellipse id="XMLID_120_" class="st0" cx="151.8" cy="306.2" rx="8.8" ry="6.1"/>
<ellipse id="XMLID_119_" class="st0" cx="222.7" cy="232.2" rx="8.8" ry="6.1"/>
<ellipse id="XMLID_118_" class="st2" cx="189.1" cy="299" rx="143.6" ry="96"/>
<path id="XMLID_117_" class="st3" d="M137.3,209.4c-2.2,0.6-9.4,3-15.5,4.7c-1,0.3-15.5,6.5-20.9,7.4c-16.8,2.9-32.5,6.6-32.5,6.6
	s1.9-7.6,3.4-11.4c0.7-1.8,18-4.2,31.9-5.2C121.6,210.2,138,209.2,137.3,209.4z"/>
<path id="XMLID_116_" class="st3" d="M170.9,199.3c0,0,2.8-9.4,15.7-6.1c10.1,2.5,22.6,10.8,22.6,10.8l-16.8-1L170.9,199.3z"/>
<path id="XMLID_115_" class="st3" d="M206.4,203.9c0,0,1.2-11.1,14.1-7.9c10.1,2.5,16.4,12.4,16.4,12.4l-15.9-2.6L206.4,203.9z"/>
<polygon id="XMLID_114_" class="st3" points="242.3,209.8 251,199.9 257,202 258.6,215 "/>
<polygon id="XMLID_113_" class="st4" points="167,204.2 185.8,202.9 181.3,218.3 174.2,218.7 "/>
<polygon id="XMLID_112_" class="st4" points="188.5,203 206.4,203.9 200.9,218.7 192.4,218.3 "/>
<polygon id="XMLID_111_" class="st4" points="212.3,204.7 233.6,208.1 223.7,222.6 216.2,220.9 "/>
<polygon id="XMLID_110_" class="st4" points="242.3,209.8 258.6,215 245.7,229.7 239.8,227.1 "/>
<polygon id="XMLID_109_" class="st4" points="260.9,238.9 268.7,245.5 284.7,227.4 270.1,219.8 "/>
<linearGradient id="XMLID_196_" gradientUnits="userSpaceOnUse" x1="127.6668" y1="249.5455" x2="322.6665" y2="321.0454">
	<stop  offset="3.030300e-002" style="stop-color:#B0B2B3"/>
	<stop  offset="0.2667" style="stop-color:#D8D9DA"/>
	<stop  offset="0.4606" style="stop-color:#868789"/>
	<stop  offset="0.7152" style="stop-color:#D8D9DA"/>
	<stop  offset="1" style="stop-color:#B0B2B3"/>
</linearGradient>
<ellipse id="XMLID_108_" class="st5" cx="186.4" cy="271.1" rx="94" ry="52.8"/>
<path id="XMLID_107_" class="st6" d="M84.6,250.3c1.6-0.9,14.9,0.6,14.6,1.2c0,0-5.6,7.1-5.6,11.3c0,0-58.9,44.2-60,46
	c-1.4,2.4-8.5-16.8-5.4-19.7c3.1-2.9,13.7-12.9,24.5-20.2C63.5,261.6,83,251.1,84.6,250.3z"/>
<path id="XMLID_106_" class="st6" d="M35.5,316.8c-2,7.3,13.3,24.5,17.2,22.1c2.1-1.3,37.4-59.1,39.7-61.9c0,0-1.3-6.9,0.5-11.8
	c0,0-4.3,1.9-5.5,2.7c-2.2,1.5-18.9,12.1-29.9,22.3c-10.9,10.2-21.5,25.6-21.5,25.6"/>
<path id="XMLID_105_" class="st2" d="M83.8,262.7c1.7,0.1,4.3,6.3,2.5,7.4s-17.5,9.4-29.3,21.1c-12,11.9-21.5,25.6-21.5,25.6
	s-1.4-3.4-1.9-7.5c-0.3-1.9,8.7-15.9,20.3-26C67.2,271.7,82,262.6,83.8,262.7z"/>
<path id="XMLID_104_" class="st6" d="M62.7,343.5c2.5,4.7,15.2,16.3,15.4,15.6c0.2-0.7,2.4-18.1,6.8-35.2
	c4.6-17.8,12.9-34.4,12.9-34.4s-0.2-0.1-2.1-3.8c-1.8-3.5-2.1-4.9-2.1-4.9s-16.3,22-21.4,32.3C67,323.4,61.9,342,62.7,343.5z"/>
<path id="XMLID_103_" class="st2" d="M93,277.1c0.8,3.2,0.6,4.5,0,5.8c-0.6,1.2-15,20.5-19,28.9c-4,8.4-10,29.9-11.7,32.3
	c-1.7,2.4-10.3-3.3-9.6-5.2c0.7-2,7.4-20,14.2-31.6C73.8,295.7,92.6,275.5,93,277.1z"/>
<path id="XMLID_102_" class="st6" d="M108.9,301.5l5.6,3.6c0,0-3.8,16.8-4,39c-0.2,22.2-2.5,31.3-2.5,31.3l-7.5-10.9
	c0,0-2-18.1,0-33.4C102.6,315.8,108.9,301.5,108.9,301.5z"/>
<path id="XMLID_101_" class="st2" d="M102.1,294.4l7.4,7c0,0-6.7,16.5-8.2,28c-1.5,11.5-0.2,35-0.2,35h-11c0,0-3-20.5,0-38.3
	C93.2,308.4,102.1,294.4,102.1,294.4z"/>
<path id="XMLID_100_" class="st2" d="M101.2,364.5l8.9,14.2c0,0-0.6-0.5-9.2-4.7c-8.6-4.1-11.6-6.5-11.6-6.5l0.8-3H101.2z"/>
<path id="XMLID_99_" class="st6" d="M126.5,312.3c0,0-3.4,1.4-3.7,5.6c-2.1,26.7,6.6,68.4,10.9,69.7l6.2-10.6l11.4-0.5
	c0,0,10.1,14.6,11.7,14.9c1.6,0.3-3-9.6-3-9.6s-7.8-13.9-14.5-29.9c-6.7-15.9-10.3-35.3-10.3-35.3l-7.5-3.7"/>
<path id="XMLID_98_" class="st2" d="M139.8,376.5l-6.2,11.1c0,0,3.4,1.3,14.6,3.5c11.2,2.2,16.5,2.6,16.5,2.6l-13.5-17.1H139.8z"/>
<path id="XMLID_97_" class="st2" d="M139.8,376.5c-3.3,0-17.8-63.6-13.4-64.7c3.8,0,7.7,1.6,7.7,3.2c0,1.7,1.1,15.8,4.3,26.8
	c4.9,16.9,12.8,34.6,12.8,34.6S145,376.5,139.8,376.5z"/>
<path id="XMLID_96_" class="st6" d="M152,327.5c0.5-3.3,4.9-8.3,4.9-8.3l36.3,62l-4.6,9.9c0,0-1.1,3.5-2.9,2.6
	c-2.4-1.2-11.7-13.7-23.9-37.9C151.2,334.6,151.5,330.8,152,327.5z"/>
<path id="XMLID_95_" class="st2" d="M194.5,381.7c-7.9,0-43.7-60.9-37.3-62.3c3.8-1.1,8.7,0.3,8.7,0.3s3.5,10.9,13.4,26
	c9.9,15.1,27,35.9,27,35.9S199.6,381.7,194.5,381.7z"/>
<path id="XMLID_94_" class="st2" d="M193.1,381.7l-6.5,13.3c0,0,4.8,0.2,13.2-0.4c8.4-0.6,20.1-1.9,20.1-1.9l-13.6-11H193.1z"/>
<path id="XMLID_93_" class="st6" d="M189.1,321.4c0,0-6.2,3.7-6.4,10.7c0.2,0.8,5.9,14.6,18.5,28.8c7.3,8.2,32.2,29.1,32.2,29.1
	l7.3-1.5l6.1-13L189.1,321.4z"/>
<path id="XMLID_92_" class="st2" d="M246.8,375.4c-10.4,2.6-64.1-52.7-57.7-54c3.8-1.1,10.6,0.7,10.6,0.7s5.6,9.2,21.5,24.1
	c13.1,12.4,35.7,26.9,35.7,26.9S251.7,374.1,246.8,375.4z"/>
<path id="XMLID_91_" class="st2" d="M256.9,373.1l-10.1,2.2l-6.8,13.4c0,0,7.5-2.6,12.5-4.1c7.2-2.3,12.5-4.1,12.5-4.1L256.9,373.1z
	"/>
<path id="XMLID_90_" class="st6" d="M222.9,319c-1.8-0.5-8.8,7.5-8.7,9c0.1,0.9,7.7,10.7,24.3,23.8c18.7,14.7,37.4,23.6,37.4,23.6
	l10.2-5.7l2.2-9.7C288.3,360,224.7,319.5,222.9,319z"/>
<path id="XMLID_89_" class="st6" d="M249.1,310.4c0,0-7.9,8.5-7.6,10.6c0.3,2.1,11.6,9.3,25.6,18.5c15.9,10.4,33.9,18.8,35.1,18.6
	c2.3-0.4,17.5-19.3,17.5-19.3L249.1,310.4z"/>
<path id="XMLID_88_" class="st2" d="M288.3,360c-10.4,2.6-65.1-38-65.6-40.2c-0.5-2.2,9.5-6.3,11.2-4.2c1.8,2.1,14.7,11.8,25.2,18.9
	c15.7,10.7,37.9,19.8,37.9,19.8S293.2,358.8,288.3,360z"/>
<polygon id="XMLID_87_" class="st2" points="302.3,358 297.1,354.2 288.3,360 286.1,369.8 "/>
<path id="XMLID_86_" class="st6" d="M340.8,309.4c1,1.1-10.7,20.7-13.1,21.4c-2.4,0.7-17.5-0.6-35.1-6.9
	c-17.6-6.3-35.7-17.4-35.7-17.4s2.1-1.2,7.1-5.1c2.3-1.8,5.2-4.6,5.2-4.6S339.8,308.3,340.8,309.4z"/>
<path id="XMLID_85_" class="st2" d="M256.9,306c0.4,0.3,14.3,9.3,30.9,15c17.8,6.1,38.4,9,38.6,9.7c0.6,1.3-4.6,8.9-6.6,8
	c-1.2-0.5-24.7-6.1-44-13.8c-14.8-5.9-26.7-14.5-26.7-14.5L256.9,306z"/>
<path id="XMLID_84_" class="st6" d="M278.3,282c0,0,62.6,0.9,64.7,3.5c1,2.5-1.2,19.5-5.6,20.5c-4.3,1-23-1.4-36.7-4.2
	c-13.7-2.8-28-10-28-10s1.8-1.5,3.3-4.6C278.2,283.3,278.3,282,278.3,282z"/>
<path id="XMLID_83_" class="st2" d="M273.1,291.4l-4.4,5.1c0,0,11.6,6.6,29.7,11.3c18.1,4.7,36.3,6,38.3,6.4
	c2.1,0.4,5.4-6.2,4.5-8.2c-0.9-2-27.4-2.4-38.2-4.5C293.1,299.5,273.1,291.4,273.1,291.4z"/>
<path id="XMLID_82_" class="st6" d="M280.4,266.7c-0.9-1.1,50.4-9.1,52.7-7.2c2.3,1.9,2,23.7-0.5,24.4c-2.5,0.6-54.3-3.6-53.4-3.5
	S281.3,267.9,280.4,266.7z"/>
<path id="XMLID_81_" class="st2" d="M279.8,276.9l-1.4,5.1c0,0,21.2,3.7,31.5,4.8c10.3,1.1,28.9,2.2,31.5,1.7
	c2.6-0.6,2.1-8.9-0.9-8.8c-3,0.1-12.3,0.8-30.6,0.2C294.6,279.4,279.8,276.9,279.8,276.9z"/>
<path id="XMLID_80_" class="st6" d="M317.7,239c3.4,2.8-0.7,19.2-0.7,19.2l-38.1,2.8l-2.1-7L317.7,239z"/>
<path id="XMLID_79_" class="st2" d="M278.6,261l1.7,5.7c0.9,0,21.7-1.7,29.4-2.6c2.2-0.3,18.5-1.2,21.1-1.7c2.6-0.6,3.1-6.2,0.1-6
	c-3,0.1-16.5,2-23.3,2.1L278.6,261z"/>
<linearGradient id="XMLID_197_" gradientUnits="userSpaceOnUse" x1="187.5291" y1="201.1787" x2="189.5292" y2="340.6783">
	<stop  offset="0.1333" style="stop-color:#B0B2B3"/>
	<stop  offset="0.2667" style="stop-color:#D8D9DA"/>
	<stop  offset="0.4606" style="stop-color:#3D3D3F"/>
	<stop  offset="0.7152" style="stop-color:#D8D9DA"/>
	<stop  offset="1" style="stop-color:#B0B2B3"/>
</linearGradient>
<ellipse id="XMLID_78_" class="st7" cx="188.5" cy="268.9" rx="57.2" ry="32.6"/>
<path id="XMLID_77_" class="st8" d="M136.2,282c13.2,14.1,32.9,19.6,55.6,19.6c17.8,0,32.7-6.2,45.1-15.4
	c-10.8-15.1-30-23.7-53.2-23.7C163.8,262.4,147.7,271.3,136.2,282z"/>
<polygon id="XMLID_76_" class="st4" points="156.3,205.6 137.3,209.7 151.3,222.1 159.5,220.4 "/>
<polygon id="XMLID_75_" class="st4" points="129.9,211.7 113.2,217.5 131.3,228.3 138.9,225.5 "/>
<polygon id="XMLID_74_" class="st4" points="104.8,221.1 92.4,228 115.6,236.3 119.8,233.2 "/>
<polygon id="XMLID_73_" class="st4" points="83.8,262.7 86.9,269.6 92.9,265.7 93.6,262.7 "/>
<path id="XMLID_72_" class="st3" d="M111,218.4c0,0-5.4,2.2-11,5.3c-0.9,0.5-10,6.2-23.8,11.5c-16,6-30.1,13.8-30.1,13.8
	s0.1-7.8,0.7-11.9c0.3-1.9,16.6-8.2,29.9-12.4C93.8,219.3,111,217.6,111,218.4z"/>
<path id="XMLID_71_" class="st3" d="M192.4,203c-2.2,0-12.2-0.1-14,0c-1,0.1-18.8,2-18.8,2c-17.5-1.7-22.3-3.4-23.3-3.3
	c0,0-0.4-2.6,2.1-6c1.2-1.5,10.2-1,23.2,1C177.6,199.3,193.2,203,192.4,203z"/>
<path id="XMLID_70_" class="st3" d="M163.1,204.6c-2.2,0-16.6,2.8-18.4,3.1c-1,0.2-13.4,3.4-13.4,3.4c-17-1.6-30.2,0.6-30.2,0.6
	s-0.7-4.4,1.8-7.7c1.2-1.5,13.4-3.6,26.4-3C145.5,201.7,163.9,204.6,163.1,204.6z"/>
<polygon id="XMLID_69_" class="st4" points="88.1,230.9 83.8,242.4 103.5,246.1 109.1,241 "/>
<path id="XMLID_68_" class="st3" d="M88.1,230.9c1.2,0.8-3.2,10.9-4.9,12.1c-0.8,0.6-8.5,4.9-22.2,13.4
	c-12.5,7.7-27.4,19.9-27.4,19.9s-4-12.4-2.2-17.8c0.6-1.8,15.2-10.2,27.7-16C75.2,235.1,87.5,230.4,88.1,230.9z"/>
<path id="XMLID_67_" class="st2" d="M83.2,243c1.3,0.6,1.9,6.4,0.5,7.9c-0.7,0.7-18.1,8.4-31.1,18c-13.5,10-25.2,22.5-25.2,22.5
	S25,287,25,283.9c0-1.9,13.6-15.2,25-22.9C64.7,251.1,82.5,242.7,83.2,243z"/>
<polygon id="XMLID_66_" class="st4" points="83.2,243 84.6,250.3 99.1,251.4 101,248.5 "/>
<path id="XMLID_65_" class="st9" d="M472.4,148.7l-139.8,3.2l4.8,56.8l138.5-24.9c3.3-2.6,7.7-8.9,7.7-19.1
	C483.6,154.6,475.6,148.7,472.4,148.7z"/>
<path id="XMLID_64_" class="st2" d="M424.1,149.8c3.4,0.1,13,0,13,0c5.8-0.4,6.5,39.9,1.6,40.8c-4.9,0.9-14.6,2.6-14.6,2.6
	C431.1,190.7,435.4,160.1,424.1,149.8z"/>
<path id="XMLID_63_" class="st2" d="M393.8,150.7c3.9,0.2,17.4-0.6,17.4-0.6c6.7-0.5,9.5,43.7,1.5,45.1c-5.6,1-16.7,2.9-16.7,2.9
	C403.7,194.2,406.7,162.1,393.8,150.7z"/>
<path id="XMLID_62_" class="st2" d="M339.2,151.7c4.8,0.2,14.5,0.1,14.5,0.1c13.7,0,20.5,51.5,4.1,53.5c-6.9,0.8-15.9,2.6-15.9,2.6
	C351.3,203.4,355,165.2,339.2,151.7z"/>
<ellipse id="XMLID_61_" class="st3" cx="302.9" cy="183.3" rx="48.1" ry="48.8"/>
<path id="XMLID_60_" class="st10" d="M248.1,170.9c-2.7-3.4,44.4-51.1,50-51.1c7-0.1,20.5,10.2,20.5,10.2l-57.8,41.7
	C260.7,171.6,250.8,174.3,248.1,170.9z"/>
<path id="XMLID_59_" class="st10" d="M264.3,146.5c0,0,55.3-36.9,77-14.1c3.2,3.2,4.7,32.4,4.7,32.4l-74.9-3.2L264.3,146.5z"/>
<path id="XMLID_58_" class="st3" d="M290.4,207.4c9,1.5,22.6,19.9,21.4,24.3c-1.3,4.4-13.3,12.8-15.8,12c-2.5-0.8-14.2-27-14.2-27
	S286.7,206.8,290.4,207.4z"/>
<ellipse id="XMLID_57_" class="st11" cx="275.7" cy="188.4" rx="4.6" ry="7.4"/>
<path id="XMLID_56_" class="st12" d="M272.8,249.6c0,0,27.9-12.6,35.6-15.5c6.8-2.6,11.4,5.6,7.8,7.5c-4.2,2.2-39.4,13.7-39.4,13.7
	L272.8,249.6z"/>
<path id="XMLID_37_" class="st13" d="M273,162.6c11.8-20.8,65.3-23.1,67.3-24.6c3.6-2,2.1-3.5,1.4-5.2c-1.7-3.8-14.1-7.5-16.3-7.6
	c-27.6-1-51.5,15.9-60,21.3C262.2,153.2,269.3,163.8,273,162.6z"/>
<path id="XMLID_36_" class="st10" d="M286.2,149.8c5.3-8,73.9-5.1,78.4,19.9c0,5.6-14.1,23.5-14.1,23.5l-65.1-20.5
	C285.4,172.6,283,155.7,286.2,149.8z"/>
<path id="XMLID_35_" class="st10" d="M290.8,172.7c0,0,8.2-2.6,14.4,0c6.3,2.6,50.6,15.7,54.2,40.5c-0.8,4.7-7.9,13.6-12,13.9
	c-4.1,0.4-52.7-39.3-52.7-39.3L290.8,172.7z"/>
<path id="XMLID_34_" class="st10" d="M292.8,186.6c0,0,39.3,29.7,44.8,35c5.5,5.3-7.3,27.1-12.5,28.2c-5.2,1.1-13.1-32.9-37.6-43.8
	C285.4,205.4,292.8,186.6,292.8,186.6z"/>
<path id="XMLID_33_" class="st13" d="M298.9,196.7c0,0,29.7,35.8,30.1,41.7c0.6,8.4-4.1,15.1-8.3,7c-3.5-6.7-27.2-42.5-27.2-42.5
	L298.9,196.7z"/>
<path id="XMLID_32_" class="st13" d="M294,181.9l13-7.4c0,0,44.2,40.5,44.2,49.8c0,2.3-3.8,2.8-3.8,2.8s-9.8-5.5-19.2-13.8
	c-8.1-7.2-34.6-24.9-34.6-24.9L294,181.9z"/>
<path id="XMLID_31_" class="st13" d="M285.2,167.6c14.7-8.2,73.2,9,75.2,7.5c8-4.5-2-18.9-16.5-23.4c-17.3-5-48.5-7.8-57-2.4
	C283.7,156.1,281.5,168.8,285.2,167.6z"/>
<linearGradient id="XMLID_198_" gradientUnits="userSpaceOnUse" x1="251.476" y1="152.7571" x2="306.9765" y2="225.7578">
	<stop  offset="3.030300e-002" style="stop-color:#D8D9DA"/>
	<stop  offset="0.2667" style="stop-color:#9B9C9E"/>
	<stop  offset="0.4606" style="stop-color:#868789"/>
	<stop  offset="0.7152" style="stop-color:#9B9C9E"/>
	<stop  offset="1" style="stop-color:#D8D9DA"/>
</linearGradient>
<path id="XMLID_30_" class="st14" d="M306.9,174.5c-0.3-2.7-9.6-2.4-16.2-1.8c-1.2-2.2-2.6-4.1-4.2-5.7c1.8-6.3,4.6-17.4,1.7-18.3
	c-2-0.4-7.3,7.6-10.8,13.4c-0.6-0.1-1.3-0.1-2-0.1c-1,0-1.9,0.1-2.9,0.3c-1.9-6.4-5.4-16.5-8.2-15.7c-2.5,0.9-2,17.2-1.8,22.4
	c-0.7,0.8-1.3,1.8-1.9,2.7c-5.3-1.8-11.2-3-12.7-0.7c-1.1,2,4.2,7.5,8.7,11.7c-0.3,2-0.5,4-0.5,6.1c-2.3,2.8-8.4,10.7-5.9,14.3
	c1.4,1.7,5.7,1.4,9,0.8c1.5,3.2,3.4,5.9,5.7,8c0,6.6,0.5,14,3,15.5c2.5,1.6,5.3-5.3,7.1-11.3c0.1,0,0.1,0,0.2,0c2.1,0,4.1-0.5,6-1.3
	c1.6,5.9,4.5,15,7,14.5c3.8-1.1,2-15.2,1-21.7c0.8-1.2,1.6-2.6,2.2-4c5.3,1.9,10.6,3.4,11.7,2c1.8-2.5-4-8.5-8.9-13
	c0.1-1.1,0.2-2.3,0.2-3.5c0-2.4-0.2-4.8-0.7-7C300,179.5,307,176.3,306.9,174.5z"/>
<ellipse id="XMLID_29_" class="st15" cx="148.4" cy="232.2" rx="8.8" ry="6.1"/>
<ellipse id="XMLID_28_" class="st15" cx="113.2" cy="267.2" rx="8.8" ry="6.1"/>
<ellipse id="XMLID_27_" class="st15" cx="264.3" cy="265.2" rx="8.8" ry="6.1"/>
<ellipse id="XMLID_26_" class="st15" cx="228.1" cy="304.4" rx="8.8" ry="6.1"/>
<ellipse id="XMLID_25_" class="st15" cx="151.8" cy="306.2" rx="8.8" ry="6.1"/>
<ellipse id="XMLID_24_" class="st15" cx="222.7" cy="232.2" rx="8.8" ry="6.1"/>
<ellipse id="XMLID_23_" class="st16" cx="271.1" cy="190" rx="5.3" ry="6.7"/>
</svg>
