<?xml version="1.0" encoding="utf-8"?>
<!-- Generator: Adobe Illustrator 19.0.0, SVG Export Plug-In . SVG Version: 6.00 Build 0)  -->
<svg version="1.1" id="Camada_1" xmlns="http://www.w3.org/2000/svg" xmlns:xlink="http://www.w3.org/1999/xlink" x="0px" y="0px"
	 viewBox="0 0 500 500" style="enable-background:new 0 0 500 500;" xml:space="preserve">
<style type="text/css">
	.st0{fill:#1A171B;stroke:#1A171B;stroke-width:7.8298;stroke-miterlimit:10;}
	.st1{fill:#1A171B;stroke:#1A171B;stroke-width:7.8298;stroke-linejoin:round;stroke-miterlimit:10;}
	.st2{opacity:0.62;fill:#1A171B;stroke:#1A171B;stroke-width:7.8298;stroke-miterlimit:10;}
	.st3{fill:url(#XMLID_129_);stroke:#1A171B;stroke-width:1.9574;stroke-miterlimit:10;}
	.st4{fill:url(#XMLID_130_);stroke:#1A171B;stroke-width:1.9574;stroke-miterlimit:10;}
	.st5{fill:#D8D9DA;stroke:#1A171B;stroke-width:1.9574;stroke-miterlimit:10;}
	.st6{fill:#1A171B;stroke:#1A171B;stroke-width:1.9574;stroke-miterlimit:10;}
	.st7{fill:#3D3D3F;stroke:#1A171B;stroke-width:1.9574;stroke-miterlimit:10;}
	.st8{fill:url(#XMLID_131_);stroke:#1A171B;stroke-width:1.9574;stroke-miterlimit:10;}
	.st9{fill:url(#XMLID_132_);stroke:#1A171B;stroke-width:1.9574;stroke-miterlimit:10;}
	.st10{fill:url(#XMLID_133_);stroke:#1A171B;stroke-width:1.9574;stroke-miterlimit:10;}
	.st11{fill:url(#XMLID_134_);stroke:#1A171B;stroke-width:1.9574;stroke-miterlimit:10;}
	.st12{fill:#58585A;stroke:#1A171B;stroke-width:1.9574;stroke-linejoin:round;stroke-miterlimit:10;}
	.st13{fill:#B0B2B3;stroke:#1A171B;stroke-width:0.9787;stroke-linejoin:round;stroke-miterlimit:10;}
	.st14{fill:#9B9C9E;stroke:#1A171B;stroke-width:1.9574;stroke-linejoin:round;stroke-miterlimit:10;}
	.st15{fill:none;stroke:#1A171B;stroke-width:1.9574;stroke-linejoin:round;stroke-miterlimit:10;}
	.st16{opacity:0.62;fill:#C5C6C8;}
	.st17{fill:url(#XMLID_135_);stroke:#1A171B;stroke-width:1.9574;stroke-miterlimit:10;}
	.st18{fill:url(#XMLID_136_);stroke:#1A171B;stroke-width:1.9574;stroke-miterlimit:10;}
	.st19{fill:url(#XMLID_137_);stroke:#1A171B;stroke-width:1.9574;stroke-miterlimit:10;}
	.st20{fill:url(#XMLID_138_);stroke:#1A171B;stroke-width:1.9574;stroke-linejoin:round;stroke-miterlimit:10;}
	.st21{fill:url(#XMLID_139_);stroke:#1A171B;stroke-width:1.9574;stroke-miterlimit:10;}
	.st22{fill:#FFFFFF;stroke:#1A171B;stroke-width:1.9574;stroke-miterlimit:10;}
</style>
<path id="XMLID_127_" class="st0" d="M465.8,248.1c0,124.3-73.8,228.3-215,228.3c-112.3,0-195.2-100.7-195.2-225
	c0-124.3,91-225,203.4-225c38.5,0,73.3,17.6,104,38.2c20.8,13.9,43.7,34.9,46.5,38.2C441.1,141,465.8,181.8,465.8,248.1z"/>
<path id="XMLID_126_" class="st0" d="M433.3,248c-8.9,112.3-114.4,228.4-194.2,228.3c-7.9,0-22.7-0.2-29.8-2
	c-71.8-19.2-94.3-131.6-94.3-234.2c0-112.6,71.3-204,159.2-204c33,0,70.1,11.1,95.5,33.1C412.2,106,438.6,180.9,433.3,248z"/>
<path id="XMLID_125_" class="st0" d="M399,314.2C354.8,433.7,243,499.4,147.1,463.9C51.2,428.5,7.5,305.3,51.7,185.8
	C95.9,66.3,209.4-1.8,305.3,33.7C401.2,69.1,443.1,194.7,399,314.2z"/>
<path id="XMLID_124_" class="st0" d="M367,321.7c-47.5,109-153,168.2-235.5,132.3C49,418,20.6,300.4,68.1,191.4
	c47.5-109,153-168.2,235.5-132.2C386.2,95.1,414.5,212.7,367,321.7z"/>
<path id="XMLID_123_" class="st0" d="M371.8,310.7c-42,96.3-140.2,146.3-219.5,111.7C73.1,387.9,42.8,281.8,84.8,185.6
	C126.7,89.3,225,39.3,304.3,73.8C383.5,108.4,413.8,214.4,371.8,310.7z"/>
<path id="XMLID_122_" class="st0" d="M300,399.5c11.2-7.1,24.4-20.7,34.9-28.5c0.6-5.4,0.2-6-2.8-9.7c-8.9-11.5-31.9-8.6-51.3,6.4
	c-19.4,15-34.1,31.4-20.8,46.2c3.2,3.6,3.1,3.3,6.5,5.9C275.5,415.9,289,406.5,300,399.5z"/>
<path id="XMLID_121_" class="st0" d="M382.2,282c3.5-13.8,6.3-33.3,9.9-37.8c-2.6-5-7.7-8-12.3-9.3c-14-4-31.1,13.4-38.3,38.7
	c-7.2,25.3-8.8,50.5,12.4,53c4.8,0.6,9.9,1.1,14.2,1C372.9,306.6,380.5,288.5,382.2,282z"/>
<path id="XMLID_120_" class="st0" d="M371.2,138.3c-7.1-10.1-6.4-14.5-15.6-24.6c-5.3-0.7-14.9,5.5-19,8.3
	c-12.6,8.3-12.7,27.8-0.1,46.9c12.6,19.1,28.9,34,45.7,19.5c3.8-3.3,7.7-6.8,10.7-10.1C386.8,170,378.9,149.2,371.2,138.3z"/>
<path id="XMLID_119_" class="st0" d="M221.7,393.1c-8.4,1.3-16,1-32.5-2.9c-18-4.3-23.3-10.5-29-12.1c0,0-18.4,31.3-11.5,36.2
	c6.9,4.9,14.7,10.4,31.9,14c18.5,3.9,37,5,38.8,0.4C219.3,428.6,230.1,391.8,221.7,393.1z"/>
<path id="XMLID_118_" class="st0" d="M338.2,283.3c-24.5,77.4-92.4,124.8-151.6,106.1c-59.2-18.8-87.3-96.7-62.8-174
	c24.5-77.3,92.4-124.8,151.6-106.1C334.6,128,362.7,206,338.2,283.3z"/>
<path id="XMLID_115_" class="st0" d="M303.8,33C208.2-3.2,95.6,64.3,52.4,183.8c-43.2,119.5-0.6,245.7,95.1,281.9
	c95.7,36.2,208.2-31.3,251.4-150.8C442.1,195.4,399.5,69.2,303.8,33z M372.2,311.8c-43.5,102.1-145.4,155.1-227.6,118.4
	C62.4,393.5,32.7,282.1,76.2,180C119.7,78,222.7,26.4,302,60.6C384.7,96.2,415.7,209.7,372.2,311.8z"/>
<polygon id="XMLID_114_" class="st1" points="316.4,102.2 305.4,114.9 305.4,120.3 324.2,134.6 338,118.2 338,113.6 "/>
<ellipse id="XMLID_113_" class="st1" cx="319.6" cy="112.2" rx="4.5" ry="4"/>
<polygon id="XMLID_112_" class="st1" points="318.2,98.1 305.4,114.9 324.2,129.3 335.2,116.1 338,112.8 "/>
<path id="XMLID_111_" class="st1" d="M326.4,113.3c0,2.8-2.6,5.1-5.7,5.1c-3.2,0-5.7-2.3-5.7-5.1c0-2.8,2.6-5.1,5.7-5.1
	C323.9,108.2,326.4,110.5,326.4,113.3z"/>
<line id="XMLID_110_" class="st1" x1="324.2" y1="129.3" x2="324.2" y2="134.6"/>
<line id="XMLID_109_" class="st1" x1="338" y1="112.8" x2="338" y2="118.2"/>
<line id="XMLID_108_" class="st1" x1="305.4" y1="114.9" x2="305.4" y2="120.3"/>
<polygon id="XMLID_107_" class="st1" points="198.4,85.2 200.4,106.2 224,104 223,82.6 "/>
<ellipse id="XMLID_106_" transform="matrix(0.7349 -0.6781 0.6781 0.7349 -8.3776 167.8955)" class="st1" cx="210.6" cy="94.7" rx="5.7" ry="5.1"/>
<polygon id="XMLID_105_" class="st1" points="352.1,206.8 351.9,228.4 356.4,233.7 386.8,231.9 386.5,204.3 382,199.1 "/>
<polygon id="XMLID_104_" class="st1" points="350.4,201.3 351.9,228.4 382.3,226.7 382,199.1 "/>
<path id="XMLID_103_" class="st1" d="M371.2,209.2c2.4,2.7,1.8,7.1-1.3,9.8c-3.1,2.7-7.5,2.6-9.9-0.2c-2.4-2.7-1.8-7.1,1.3-9.8
	C364.4,206.4,368.8,206.5,371.2,209.2z"/>
<polygon id="XMLID_102_" class="st1" points="329.1,319.7 314.1,342.3 339.5,359.2 355.8,336.9 "/>
<path id="XMLID_101_" class="st1" d="M341,338.5c0.2,3.6-2.9,6.7-6.9,7c-4.1,0.3-7.6-2.4-7.8-6c-0.2-3.6,2.9-6.7,6.9-7
	C337.3,332.2,340.8,334.9,341,338.5z"/>
<polygon id="XMLID_100_" class="st1" points="227.3,400.7 228.9,423 253.8,421.2 253.3,398.5 "/>
<path id="XMLID_99_" class="st1" d="M244.5,407c2,2.2,1.5,5.8-1,8c-2.5,2.2-6.1,2.2-8.1,0c-2-2.2-1.5-5.8,1-8
	C238.9,404.8,242.5,404.8,244.5,407z"/>
<polygon id="XMLID_98_" class="st1" points="129.1,368.3 115.3,390 139.6,405.4 154.6,384.1 "/>
<path id="XMLID_97_" class="st1" d="M140.7,385.9c0.3,3.4-2.6,6.4-6.4,6.8c-3.8,0.3-7.2-2.2-7.5-5.6c-0.3-3.4,2.6-6.4,6.4-6.8
	C137.1,379.9,140.4,382.4,140.7,385.9z"/>
<line id="XMLID_96_" class="st1" x1="382.3" y1="226.7" x2="386.8" y2="231.9"/>
<line id="XMLID_95_" class="st1" x1="382" y1="199.1" x2="386.5" y2="204.3"/>
<line id="XMLID_94_" class="st1" x1="351.9" y1="228.4" x2="356.4" y2="233.7"/>
<path id="XMLID_93_" class="st2" d="M77.5,237.8c0,0,10.5,8.3,7.7,13.7c-18.8,37,9,52.4,9,52.4s-15.1,25.5-18,23.7
	C56.3,280.8,77.5,237.8,77.5,237.8z"/>
<path id="XMLID_92_" class="st0" d="M101.1,222.7c3.6-12.8,11.9-22.5,21.2-26.4c-2.9-4-6.7-6.9-11.3-8.2c-14-4-29.7,8.3-35.2,27.4
	c-5.4,19.1,1.5,37.8,15.5,41.8c4.6,1.3,9.4,0.8,14-1C99.3,248.1,97.4,235.5,101.1,222.7z"/>
<path id="XMLID_91_" class="st0" d="M113.3,332.9c-5.6-9.2-12.6-19.4-13.4-30.9c-4.9-0.1-11.6,2.5-15.4,5.5
	c-11.5,8.9-11.1,28.8,1,44.6c12.1,15.8,27.6,27.3,42.8,12.5c3.4-3.3,3.8-2.9,6.5-6.2C130.2,355.6,118.8,342,113.3,332.9z"/>
<path id="XMLID_90_" class="st2" d="M129.1,132.2c-1.4-5-39.6,43-37,47.3c2.6,4.3,15.7,2.6,15.9-9
	C108.2,159,130.5,137.2,129.1,132.2z"/>
<path id="XMLID_89_" class="st2" d="M173.1,90.1c11.2-15,73.3-27.9,79.3-23.2c6,4.7-5.4,6.3-7.7,12.7c-20.6-12.7-46-3.8-67.4,14.3
	C172.7,98,162,105.1,173.1,90.1z"/>
<path id="XMLID_88_" class="st0" d="M164.9,125.7c10.7-7.9,23.4-10.3,33.5-7.2c0-5.2-1.5-10.1-4.6-14.3
	c-9.4-12.6-29.9-13.2-45.8-1.4c-16,11.8-21.3,31.7-11.9,44.3c3.1,4.2,7.4,7,12.3,8.5C148.3,145.2,154.3,133.7,164.9,125.7z"/>
<path id="XMLID_87_" class="st1" d="M266.6,107c14.2,2.9,24.3,8.1,33.6,14.8c4.2-3.8,3.8-5.5,4.9-11.1c3.4-16.9-11.1-34.1-32.3-38.3
	c-21.3-4.3-41.3,5.9-44.7,22.8c-1.1,5.6-1.4,8.4,1,13.6C239.1,104.1,252.3,104.1,266.6,107z"/>
<path id="XMLID_86_" class="st0" d="M316.5,278.7c-23.1,72.9-89.8,116.7-149,97.9c-59.2-18.8-88.4-93-65.3-165.9
	c23.1-72.9,89.8-116.7,149-97.9C310.3,131.6,339.6,205.8,316.5,278.7z"/>
<path id="XMLID_85_" class="st0" d="M295,268.5c-18.5,58.2-72,93.2-119.7,78.1c-47.6-15.1-71.3-74.6-52.8-132.8
	c18.5-58.2,72-93.2,119.7-78.1C289.8,150.8,313.5,210.3,295,268.5z"/>
<path id="XMLID_84_" class="st0" d="M289.2,176.7c-3.2-3.6-16.8-6.1-18.4-6.1c-52.5,0-92.6,43.7-92.6,99.8
	c0,30.7,13.9,59.9,34.1,78.5c5.7-0.8,10-2.3,15.4-3.2c29.1-11.6,54.2-39,66-75.5C305.3,234.3,302.1,202.1,289.2,176.7z"/>
<linearGradient id="XMLID_129_" gradientUnits="userSpaceOnUse" x1="260.7238" y1="2.9001" x2="260.7238" y2="547.0736">
	<stop  offset="0" style="stop-color:#D8D9DA"/>
	<stop  offset="0.1758" style="stop-color:#D8D9DA"/>
	<stop  offset="0.3394" style="stop-color:#B0B2B3"/>
	<stop  offset="0.503" style="stop-color:#58585A"/>
	<stop  offset="0.6606" style="stop-color:#B0B2B3"/>
	<stop  offset="0.8121" style="stop-color:#D8D9DA"/>
	<stop  offset="0.9939" style="stop-color:#F5F5F6"/>
</linearGradient>
<path id="XMLID_83_" class="st3" d="M465.8,248.1c0,124.3-73.8,228.3-215,228.3c-112.3,0-195.2-100.7-195.2-225
	c0-124.3,91-225,203.4-225c38.5,0,73.3,17.6,104,38.2c20.8,13.9,43.7,34.9,46.5,38.2C441.1,141,465.8,181.8,465.8,248.1z"/>
<linearGradient id="XMLID_130_" gradientUnits="userSpaceOnUse" x1="274.5143" y1="17.5812" x2="274.5143" y2="527.4959">
	<stop  offset="0" style="stop-color:#D8D9DA"/>
	<stop  offset="0.2061" style="stop-color:#5E5E60"/>
	<stop  offset="0.4606" style="stop-color:#C5C6C8"/>
	<stop  offset="0.8909" style="stop-color:#58585A"/>
</linearGradient>
<path id="XMLID_82_" class="st4" d="M433.3,248c-8.9,112.3-114.4,228.4-194.2,228.3c-7.9,0-22.7-0.2-29.8-2
	c-71.8-19.2-94.3-131.6-94.3-234.2c0-112.6,71.3-204,159.2-204c33,0,70.1,11.1,95.5,33.1C412.2,106,438.6,180.9,433.3,248z"/>
<path id="XMLID_81_" class="st5" d="M399,314.2C354.8,433.7,243,499.4,147.1,463.9C51.2,428.5,7.5,305.3,51.7,185.8
	C95.9,66.3,209.4-1.8,305.3,33.7C401.2,69.1,443.1,194.7,399,314.2z"/>
<path id="XMLID_80_" class="st6" d="M367,321.7c-47.5,109-153,168.2-235.5,132.3C49,418,20.6,300.4,68.1,191.4
	c47.5-109,153-168.2,235.5-132.2C386.2,95.1,414.5,212.7,367,321.7z"/>
<path id="XMLID_79_" class="st7" d="M371.8,310.7c-42,96.3-140.2,146.3-219.5,111.7C73.1,387.9,42.8,281.8,84.8,185.6
	C126.7,89.3,225,39.3,304.3,73.8C383.5,108.4,413.8,214.4,371.8,310.7z"/>
<linearGradient id="XMLID_131_" gradientUnits="userSpaceOnUse" x1="311.4029" y1="399.4567" x2="240.8649" y2="345.1967">
	<stop  offset="0.2242" style="stop-color:#3D3D3F"/>
	<stop  offset="0.5394" style="stop-color:#9B9C9E"/>
	<stop  offset="0.8909" style="stop-color:#58585A"/>
</linearGradient>
<path id="XMLID_78_" class="st8" d="M300,399.5c11.2-7.1,24.4-20.7,34.9-28.5c0.6-5.4,0.2-6-2.8-9.7c-8.9-11.5-31.9-8.6-51.3,6.4
	c-19.4,15-34.1,31.4-20.8,46.2c3.2,3.6,3.1,3.3,6.5,5.9C275.5,415.9,289,406.5,300,399.5z"/>
<linearGradient id="XMLID_132_" gradientUnits="userSpaceOnUse" x1="333.5135" y1="250.0112" x2="418.6624" y2="331.2453">
	<stop  offset="0.2242" style="stop-color:#3D3D3F"/>
	<stop  offset="0.5394" style="stop-color:#9B9C9E"/>
	<stop  offset="0.8909" style="stop-color:#58585A"/>
</linearGradient>
<path id="XMLID_77_" class="st9" d="M382.2,282c3.5-13.8,6.3-33.3,9.9-37.8c-2.6-5-7.7-8-12.3-9.3c-14-4-31.1,13.4-38.3,38.7
	c-7.2,25.3-8.8,50.5,12.4,53c4.8,0.6,9.9,1.1,14.2,1C372.9,306.6,380.5,288.5,382.2,282z"/>
<linearGradient id="XMLID_133_" gradientUnits="userSpaceOnUse" x1="327.1073" y1="153.9082" x2="392.8871" y2="153.9082">
	<stop  offset="0.2242" style="stop-color:#3D3D3F"/>
	<stop  offset="0.5394" style="stop-color:#9B9C9E"/>
	<stop  offset="0.8909" style="stop-color:#58585A"/>
</linearGradient>
<path id="XMLID_76_" class="st10" d="M371.2,138.3c-7.1-10.1-6.4-14.5-15.6-24.6c-5.3-0.7-14.9,5.5-19,8.3
	c-12.6,8.3-12.7,27.8-0.1,46.9c12.6,19.1,28.9,34,45.7,19.5c3.8-3.3,7.7-6.8,10.7-10.1C386.8,170,378.9,149.2,371.2,138.3z"/>
<linearGradient id="XMLID_134_" gradientUnits="userSpaceOnUse" x1="147.1388" y1="404.8835" x2="224.9256" y2="404.8835">
	<stop  offset="0.2242" style="stop-color:#3D3D3F"/>
	<stop  offset="0.5394" style="stop-color:#9B9C9E"/>
	<stop  offset="0.8909" style="stop-color:#58585A"/>
</linearGradient>
<path id="XMLID_75_" class="st11" d="M221.7,393.1c-8.4,1.3-16,1-32.5-2.9c-18-4.3-23.3-10.5-29-12.1c0,0-18.4,31.3-11.5,36.2
	c6.9,4.9,14.7,10.4,31.9,14c18.5,3.9,37,5,38.8,0.4C219.3,428.6,230.1,391.8,221.7,393.1z"/>
<path id="XMLID_74_" class="st7" d="M338.2,283.3c-24.5,77.4-92.4,124.8-151.6,106.1c-59.2-18.8-87.3-96.7-62.8-174
	c24.5-77.3,92.4-124.8,151.6-106.1C334.6,128,362.7,206,338.2,283.3z"/>
<path id="XMLID_71_" class="st5" d="M303.8,33C208.2-3.2,95.6,64.3,52.4,183.8c-43.2,119.5-0.6,245.7,95.1,281.9
	c95.7,36.2,208.2-31.3,251.4-150.8C442.1,195.4,399.5,69.2,303.8,33z M372.2,311.8c-43.5,102.1-145.4,155.1-227.6,118.4
	C62.4,393.5,32.7,282.1,76.2,180C119.7,78,222.7,26.4,302,60.6C384.7,96.2,415.7,209.7,372.2,311.8z"/>
<polygon id="XMLID_70_" class="st12" points="316.4,102.2 305.4,114.9 305.4,120.3 324.2,134.6 338,118.2 338,113.6 "/>
<ellipse id="XMLID_69_" class="st13" cx="319.6" cy="112.2" rx="4.5" ry="4"/>
<polygon id="XMLID_68_" class="st14" points="318.2,98.1 305.4,114.9 324.2,129.3 335.2,116.1 338,112.8 "/>
<path id="XMLID_67_" class="st13" d="M326.4,113.3c0,2.8-2.6,5.1-5.7,5.1c-3.2,0-5.7-2.3-5.7-5.1c0-2.8,2.6-5.1,5.7-5.1
	C323.9,108.2,326.4,110.5,326.4,113.3z"/>
<line id="XMLID_66_" class="st15" x1="324.2" y1="129.3" x2="324.2" y2="134.6"/>
<line id="XMLID_65_" class="st15" x1="338" y1="112.8" x2="338" y2="118.2"/>
<line id="XMLID_64_" class="st15" x1="305.4" y1="114.9" x2="305.4" y2="120.3"/>
<polygon id="XMLID_63_" class="st14" points="198.4,85.2 200.4,106.2 224,104 223,82.6 "/>
<ellipse id="XMLID_62_" transform="matrix(0.7349 -0.6781 0.6781 0.7349 -8.3776 167.8955)" class="st13" cx="210.6" cy="94.7" rx="5.7" ry="5.1"/>
<polygon id="XMLID_61_" class="st12" points="352.1,206.8 351.9,228.4 356.4,233.7 386.8,231.9 386.5,204.3 382,199.1 "/>
<polygon id="XMLID_60_" class="st14" points="350.4,201.3 351.9,228.4 382.3,226.7 382,199.1 "/>
<path id="XMLID_59_" class="st13" d="M371.2,209.2c2.4,2.7,1.8,7.1-1.3,9.8c-3.1,2.7-7.5,2.6-9.9-0.2c-2.4-2.7-1.8-7.1,1.3-9.8
	C364.4,206.4,368.8,206.5,371.2,209.2z"/>
<polygon id="XMLID_58_" class="st14" points="329.1,319.7 314.1,342.3 339.5,359.2 355.8,336.9 "/>
<path id="XMLID_57_" class="st13" d="M341,338.5c0.2,3.6-2.9,6.7-6.9,7c-4.1,0.3-7.6-2.4-7.8-6c-0.2-3.6,2.9-6.7,6.9-7
	C337.3,332.2,340.8,334.9,341,338.5z"/>
<polygon id="XMLID_56_" class="st14" points="227.3,400.7 228.9,423 253.8,421.2 253.3,398.5 "/>
<path id="XMLID_37_" class="st13" d="M244.5,407c2,2.2,1.5,5.8-1,8c-2.5,2.2-6.1,2.2-8.1,0c-2-2.2-1.5-5.8,1-8
	C238.9,404.8,242.5,404.8,244.5,407z"/>
<polygon id="XMLID_36_" class="st14" points="129.1,368.3 115.3,390 139.6,405.4 154.6,384.1 "/>
<path id="XMLID_35_" class="st13" d="M140.7,385.9c0.3,3.4-2.6,6.4-6.4,6.8c-3.8,0.3-7.2-2.2-7.5-5.6c-0.3-3.4,2.6-6.4,6.4-6.8
	C137.1,379.9,140.4,382.4,140.7,385.9z"/>
<line id="XMLID_34_" class="st15" x1="382.3" y1="226.7" x2="386.8" y2="231.9"/>
<line id="XMLID_33_" class="st15" x1="382" y1="199.1" x2="386.5" y2="204.3"/>
<line id="XMLID_32_" class="st15" x1="351.9" y1="228.4" x2="356.4" y2="233.7"/>
<path id="XMLID_31_" class="st16" d="M77.5,237.8c0,0,10.5,8.3,7.7,13.7c-18.8,37,9,52.4,9,52.4s-15.1,25.5-18,23.7
	C56.3,280.8,77.5,237.8,77.5,237.8z"/>
<linearGradient id="XMLID_135_" gradientUnits="userSpaceOnUse" x1="98.0864" y1="164.3886" x2="98.0864" y2="283.7957">
	<stop  offset="0.2242" style="stop-color:#3D3D3F"/>
	<stop  offset="0.5394" style="stop-color:#9B9C9E"/>
	<stop  offset="0.8909" style="stop-color:#58585A"/>
</linearGradient>
<path id="XMLID_30_" class="st17" d="M101.1,222.7c3.6-12.8,11.9-22.5,21.2-26.4c-2.9-4-6.7-6.9-11.3-8.2c-14-4-29.7,8.3-35.2,27.4
	c-5.4,19.1,1.5,37.8,15.5,41.8c4.6,1.3,9.4,0.8,14-1C99.3,248.1,97.4,235.5,101.1,222.7z"/>
<linearGradient id="XMLID_136_" gradientUnits="userSpaceOnUse" x1="91.2907" y1="293.9088" x2="116.7375" y2="384.9299">
	<stop  offset="0.2242" style="stop-color:#3D3D3F"/>
	<stop  offset="0.5394" style="stop-color:#9B9C9E"/>
	<stop  offset="0.8909" style="stop-color:#58585A"/>
</linearGradient>
<path id="XMLID_29_" class="st18" d="M113.3,332.9c-5.6-9.2-12.6-19.4-13.4-30.9c-4.9-0.1-11.6,2.5-15.4,5.5
	c-11.5,8.9-11.1,28.8,1,44.6c12.1,15.8,27.6,27.3,42.8,12.5c3.4-3.3,3.8-2.9,6.5-6.2C130.2,355.6,118.8,342,113.3,332.9z"/>
<path id="XMLID_28_" class="st16" d="M129.1,132.2c-1.4-5-39.6,43-37,47.3c2.6,4.3,15.7,2.6,15.9-9
	C108.2,159,130.5,137.2,129.1,132.2z"/>
<path id="XMLID_27_" class="st16" d="M173.1,90.1c11.2-15,73.3-27.9,79.3-23.2c6,4.7-5.4,6.3-7.7,12.7c-20.6-12.7-46-3.8-67.4,14.3
	C172.7,98,162,105.1,173.1,90.1z"/>
<linearGradient id="XMLID_137_" gradientUnits="userSpaceOnUse" x1="164.9405" y1="76.3047" x2="164.9405" y2="215.2834">
	<stop  offset="0.2242" style="stop-color:#3D3D3F"/>
	<stop  offset="0.5394" style="stop-color:#9B9C9E"/>
	<stop  offset="0.8909" style="stop-color:#58585A"/>
</linearGradient>
<path id="XMLID_26_" class="st19" d="M164.9,125.7c10.7-7.9,23.4-10.3,33.5-7.2c0-5.2-1.5-10.1-4.6-14.3
	c-9.4-12.6-29.9-13.2-45.8-1.4c-16,11.8-21.3,31.7-11.9,44.3c3.1,4.2,7.4,7,12.3,8.5C148.3,145.2,154.3,133.7,164.9,125.7z"/>
<linearGradient id="XMLID_138_" gradientUnits="userSpaceOnUse" x1="306.6539" y1="96.5123" x2="200.4924" y2="96.5123">
	<stop  offset="0.2242" style="stop-color:#3D3D3F"/>
	<stop  offset="0.5394" style="stop-color:#9B9C9E"/>
	<stop  offset="0.8909" style="stop-color:#58585A"/>
</linearGradient>
<path id="XMLID_25_" class="st20" d="M266.6,107c14.2,2.9,24.3,8.1,33.6,14.8c4.2-3.8,3.8-5.5,4.9-11.1
	c3.4-16.9-11.1-34.1-32.3-38.3c-21.3-4.3-41.3,5.9-44.7,22.8c-1.1,5.6-1.4,8.4,1,13.6C239.1,104.1,252.3,104.1,266.6,107z"/>
<path id="XMLID_24_" class="st5" d="M316.5,278.7c-23.1,72.9-89.8,116.7-149,97.9c-59.2-18.8-88.4-93-65.3-165.9
	c23.1-72.9,89.8-116.7,149-97.9C310.3,131.6,339.6,205.8,316.5,278.7z"/>
<linearGradient id="XMLID_139_" gradientUnits="userSpaceOnUse" x1="208.765" y1="90.0067" x2="208.765" y2="353.2829">
	<stop  offset="0" style="stop-color:#D8D9DA"/>
	<stop  offset="0.2061" style="stop-color:#5E5E60"/>
	<stop  offset="0.4606" style="stop-color:#C5C6C8"/>
	<stop  offset="0.8909" style="stop-color:#58585A"/>
</linearGradient>
<path id="XMLID_23_" class="st21" d="M295,268.5c-18.5,58.2-72,93.2-119.7,78.1c-47.6-15.1-71.3-74.6-52.8-132.8
	c18.5-58.2,72-93.2,119.7-78.1C289.8,150.8,313.5,210.3,295,268.5z"/>
<path id="XMLID_20_" class="st22" d="M289.2,176.7c-3.2-3.6-16.8-6.1-18.4-6.1c-52.5,0-92.6,43.7-92.6,99.8
	c0,30.7,13.9,59.9,34.1,78.5c5.7-0.8,10-2.3,15.4-3.2c29.1-11.6,54.2-39,66-75.5C305.3,234.3,302.1,202.1,289.2,176.7z"/>
</svg>
