<?xml version="1.0" encoding="utf-8"?>
<!-- Generator: Adobe Illustrator 19.0.0, SVG Export Plug-In . SVG Version: 6.00 Build 0)  -->
<svg version="1.1" id="Camada_1" xmlns="http://www.w3.org/2000/svg" xmlns:xlink="http://www.w3.org/1999/xlink" x="0px" y="0px"
	 viewBox="0 0 500 500" style="enable-background:new 0 0 500 500;" xml:space="preserve">
<style type="text/css">
	.st0{stroke:#000000;stroke-width:7.5187;stroke-linejoin:round;stroke-miterlimit:10;}
	.st1{stroke:#000000;stroke-width:2.5062;stroke-linejoin:round;stroke-miterlimit:10;}
	.st2{fill:#666666;stroke:#000000;stroke-width:2.5062;stroke-linejoin:round;stroke-miterlimit:10;}
	.st3{fill:#9D9D9C;stroke:#000000;stroke-width:2.5062;stroke-linejoin:round;stroke-miterlimit:10;}
	.st4{fill:#3C3C3B;stroke:#000000;stroke-width:2.5062;stroke-linejoin:round;stroke-miterlimit:10;}
	.st5{fill:#C6C6C6;stroke:#000000;stroke-width:2.5062;stroke-linejoin:round;stroke-miterlimit:10;}
	.st6{fill:#F6F6F6;}
	.st7{fill:#DADADA;}
</style>
<g>
	<g>
		<path id="XMLID_26_" class="st0" d="M439.4,195.5l1.4-20.5c6.7-28.1-63.2-69-156.2-91.2c-93-22.2-173.8-17.4-180.5,10.7
			l-37.7,88.8l0.1,0c-0.3,0.7-0.5,1.4-0.7,2.1c-0.4,1.6-0.5,3.2-0.5,4.8c-19.4,16.4-30.5,35.5-30.5,56v77.8
			c0,60.2,96.1,108.9,214.6,108.9s214.6-48.8,214.6-108.9v-77.8C464.1,227.9,455.1,210.7,439.4,195.5z M248.6,345.5
			c-71-0.1-133.4-18.2-169.4-45.4c-0.2-0.9-0.3-1.8-0.3-2.7c0-16.3,28.8-30.7,72.8-39.4c24.8,10.3,53.6,19.7,84.8,27.2
			c79.3,19,150.6,19.9,181.5,4.8c1.3,2.4,2,4.9,2,7.5c0,0.9-0.1,1.8-0.3,2.7c-35.9,27.2-98.4,45.3-169.5,45.5
			C249.7,345.5,249.1,345.5,248.6,345.5z"/>
		<path id="XMLID_25_" class="st1" d="M249.4,147c-111.9,0-202.6,44.4-202.6,99.2c0,19.8,11.9,38.3,32.4,53.8
			c-0.2-0.9-0.3-1.8-0.3-2.7c0-26.6,76.4-48.1,170.6-48.1c94.2,0,170.6,21.5,170.6,48.1c0,0.9-0.1,1.8-0.3,2.7
			c20.4-15.5,32.3-34,32.3-53.8C452.1,191.5,361.4,147,249.4,147z"/>
		<path id="XMLID_24_" class="st2" d="M249.4,355.2c-118.5,0-214.6-48.8-214.6-108.9v77.8c0,60.2,96.1,108.9,214.6,108.9
			s214.6-48.8,214.6-108.9v-77.8C464.1,306.4,368,355.2,249.4,355.2z"/>
		<path id="XMLID_21_" class="st2" d="M249.4,137.3c-118.5,0-214.6,48.8-214.6,108.9c0,60.2,96.1,108.9,214.6,108.9
			s214.6-48.8,214.6-108.9C464.1,186.1,368,137.3,249.4,137.3z M419.8,300c-36.1,27.4-98.9,45.5-170.3,45.5c0,0,0,0,0,0
			c35.9,0-36.2,0-0.3,0c-71.3,0-134-18.1-170-45.4c-20.5-15.5-32.4-34-32.4-53.8c0-54.8,90.7-99.2,202.6-99.2
			c111.9,0,202.6,44.4,202.6,99.2C452.1,266.1,440.2,284.5,419.8,300z"/>
		<g>
			<path id="XMLID_20_" class="st3" d="M434.3,269.8l6.5-94.8L104.1,94.5l-37.7,88.8l0.1,0c-0.3,0.7-0.5,1.4-0.7,2.1
				c-7.3,30.7,69.1,75.4,170.7,99.7c101.6,24.3,190,19.1,197.3-11.7C434.1,272.2,434.2,271,434.3,269.8z"/>
			<path id="XMLID_19_" class="st3" d="M440.8,175c-6.7,28.1-87.6,32.9-180.5,10.7c-93-22.2-162.9-63.1-156.2-91.2
				c6.7-28.1,87.6-32.9,180.5-10.7C377.6,106,447.5,146.9,440.8,175z"/>
			<path id="XMLID_18_" class="st4" d="M423.6,164.9c-5.6,23.4-77.2,26.4-159.9,6.6c-82.7-19.8-145.2-54.8-139.6-78.2
				c5.6-23.4,77.2-26.4,159.9-6.6C366.7,106.5,429.2,141.5,423.6,164.9z"/>
			<path id="XMLID_17_" class="st3" d="M406.9,166.6c-4.9,20.4-69.8,22.4-145,4.4c-75.2-18-132.2-49.1-127.3-69.5
				c4.9-20.4,69.8-22.4,145-4.4C354.8,115.1,411.8,146.2,406.9,166.6z"/>
			<path id="XMLID_16_" class="st1" d="M373.4,162.2c-3.8,15.7-53.8,17.3-111.7,3.4c-57.9-13.9-101.8-37.8-98.1-53.6
				c3.8-15.7,53.8-17.3,111.7-3.4C333.3,122.5,377.2,146.5,373.4,162.2z"/>
			<path id="XMLID_15_" class="st5" d="M127.1,137.3c-11.4-6.6-12.9-2.8-12.9-2.8l-28.3,61c-0.3,0.5-0.5,0.9-0.6,1.4l0,0.1
				c0,0,0,0,0,0c0,0.1,0,0.1-0.1,0.2c-1.2,5,4.6,11,14.3,15.8c4.6,2.3,10.1,4.3,16.2,5.8l10.6-26l16.3-39.2
				C142.6,153.6,145,147.6,127.1,137.3z"/>
			<path id="XMLID_14_" class="st5" d="M104.6,116.3c-4-3.2-5.6-0.5-5.6-0.5l-26.6,61.6c0,0-0.5,2.2,2,6.5c0.9,1.6,4.5,5.6,4.5,5.6
				l2-4.6l4.9-11.1l21.3-48.6C107.1,125.2,109.3,120,104.6,116.3z"/>
			<path id="XMLID_13_" class="st5" d="M170.9,161.1c-17.1-7.8-18.9-3.4-18.9-3.4l-25.9,65.4c-1.7,4.1,6.5,11.4,18.3,16.3
				c11.8,4.9,22.8,5.6,24.5,1.5l20.3-65.9C189.2,175.1,190.6,170.1,170.9,161.1z"/>
			<path id="XMLID_12_" class="st5" d="M235.9,265.6C235.9,265.5,236,265.5,235.9,265.6c0-0.1,0-0.2,0-0.2l14.7-72.8
				c0,0,1.2-5.1-21-10.4c-23.1-5.5-24.2-2.1-24.2-2.1l-21.3,72.5c0,0,0,0,0.1,0.1c-0.1,0.1-0.1,0.3-0.2,0.4
				c-0.9,3.7,10,9.5,24.3,12.9c16.5,3.9,25.7,3.2,27.3,0c0,0,0.1,0,0.1,0L235.9,265.6z"/>
			<path id="XMLID_11_" class="st5" d="M401,202.8c13.1-0.7,12.8,3.3,12.8,3.3l-2.4,67.2c0,0.5,0,1-0.1,1.6l0,0.1l0,0
				c0,0.1,0,0.1,0,0.2c-1.2,5-9.1,7.7-19.9,7.6c-5.2,0-11-0.7-17-2.2l2.3-28l3.2-42.4C379.9,210.3,380.4,203.9,401,202.8z"/>
			<path id="XMLID_10_" class="st5" d="M430.6,194.2c5-1.1,5.2,2.1,5.2,2.1l-4.2,67c0,0-0.5,2.2-4.7,4.9c-1.5,1-6.5,3-6.5,3l0.3-5
				l0.7-12.2l3-53C424.3,201,424.7,195.5,430.6,194.2z"/>
			<path id="XMLID_9_" class="st5" d="M351.2,204.2c18.8,0.8,18.4,5.5,18.4,5.5l-6.5,70.1c-0.3,4.4-10.9,7.2-23.7,6.3
				c-12.8-1-22.9-5.3-22.5-9.7l11.7-68C328.5,208.4,329.5,203.3,351.2,204.2z"/>
			<path id="XMLID_8_" class="st5" d="M245.9,267.9C245.9,267.9,245.9,267.9,245.9,267.9c0-0.1,0-0.2,0.1-0.2l19.8-71.6
				c0,0,1.2-5.1,23.4,0.2c23.1,5.5,22.5,9.1,22.5,9.1l-13.9,74.3c0,0,0,0-0.1,0c0,0.1,0,0.3,0,0.4c-0.9,3.7-13.2,4-27.5,0.6
				c-16.5-3.9-24.4-8.7-24.3-12.4c0,0-0.1-0.1-0.1-0.1L245.9,267.9z"/>
		</g>
	</g>
	<polygon id="XMLID_7_" class="st6" points="125.8,144.1 98.8,204.1 103.6,205.9 130.3,147 	"/>
	<polygon id="XMLID_6_" class="st6" points="152.4,234.6 160,237.1 180,171.7 174.2,170 	"/>
	<polygon id="XMLID_5_" class="st6" points="224.3,261.3 232.2,261.3 245.8,193.9 242.3,193.9 	"/>
	<polygon id="XMLID_4_" class="st6" points="299,205.9 305.9,207.7 293.4,276.8 286.5,276.8 	"/>
	<polygon id="XMLID_3_" class="st6" points="359.8,211.1 365,211.1 359.8,276.8 354.6,278.7 	"/>
	<polygon id="XMLID_2_" class="st6" points="405.6,209.2 410.8,209.2 408.2,274.4 403.7,276.8 	"/>
	<polygon id="XMLID_1_" class="st7" points="454.5,288.8 460.7,277.6 460.7,326.1 455.7,345.2 	"/>
</g>
</svg>
