<?xml version="1.0" encoding="utf-8"?>
<!-- Generator: Adobe Illustrator 19.0.0, SVG Export Plug-In . SVG Version: 6.00 Build 0)  -->
<svg version="1.1" id="Camada_1" xmlns="http://www.w3.org/2000/svg" xmlns:xlink="http://www.w3.org/1999/xlink" x="0px" y="0px"
	 viewBox="0 0 500 500" style="enable-background:new 0 0 500 500;" xml:space="preserve">
<style type="text/css">
	.st0{fill:#1D1D1B;stroke:#1D1D1B;stroke-width:5.1662;stroke-linejoin:round;stroke-miterlimit:10;}
	.st1{fill:#575756;stroke:#1D1D1B;stroke-width:1.7221;stroke-linejoin:round;stroke-miterlimit:10;}
	.st2{fill:#DCCFB7;stroke:#1D1D1B;stroke-width:1.7221;stroke-linejoin:round;stroke-miterlimit:10;}
	.st3{fill:#1D1D1B;stroke:#1D1D1B;stroke-width:1.7221;stroke-linejoin:round;stroke-miterlimit:10;}
</style>
<g id="XMLID_30_">
	<path id="XMLID_28_" class="st0" d="M451.5,262.7c0-62.1-50.4-112.5-112.5-112.5c-24.1,0-46.5,7.6-64.8,20.6
		c-0.4,0.2-0.7,0.5-1.1,0.7c-16.5-41.7-57.1-71.2-104.6-71.2c-24.1,0-46.5,7.6-64.8,20.6c-31.8,19.9-52.9,55.2-52.9,95.4
		c0,62.1,50.4,112.5,112.5,112.5c24.1,0,46.5-7.6,64.8-20.6c0.4-0.2,0.7-0.5,1.1-0.7c16.5,41.7,57.1,71.2,104.6,71.2
		c24.1,0,46.5-7.6,64.8-20.6C430.4,338.2,451.5,302.9,451.5,262.7z"/>
	<g id="XMLID_35_">
		<circle id="XMLID_27_" class="st1" cx="163.3" cy="216.2" r="112.5"/>
		<circle id="XMLID_26_" class="st2" cx="168.5" cy="212.7" r="112.5"/>
		<circle id="XMLID_25_" class="st3" cx="168.5" cy="212.7" r="19.1"/>
	</g>
	<g id="XMLID_31_">
		<circle id="XMLID_24_" class="st1" cx="333.8" cy="266.1" r="112.5"/>
		<circle id="XMLID_23_" class="st2" cx="339" cy="262.7" r="112.5"/>
		<circle id="XMLID_20_" class="st3" cx="339" cy="262.7" r="19.1"/>
	</g>
</g>
</svg>
