<?xml version="1.0" encoding="utf-8"?>
<!-- Generator: Adobe Illustrator 19.0.0, SVG Export Plug-In . SVG Version: 6.00 Build 0)  -->
<svg version="1.1" id="Camada_1" xmlns="http://www.w3.org/2000/svg" xmlns:xlink="http://www.w3.org/1999/xlink" x="0px" y="0px"
	 viewBox="0 0 500 500" style="enable-background:new 0 0 500 500;" xml:space="preserve">
<style type="text/css">
	.st0{fill:#1A171B;stroke:#1A171B;stroke-width:4.8358;stroke-miterlimit:10;}
	.st1{fill:#312412;stroke:#1A171B;stroke-width:1.209;stroke-miterlimit:10;}
	.st2{fill:#594124;}
	.st3{fill:#58585A;stroke:#1A171B;stroke-width:1.209;stroke-miterlimit:10;}
	.st4{fill:#1A171B;stroke:#1A171B;stroke-width:1.209;stroke-miterlimit:10;}
	.st5{fill:url(#XMLID_96_);stroke:#1A171B;stroke-width:1.209;stroke-miterlimit:10;}
	.st6{fill:url(#XMLID_97_);stroke:#1A171B;stroke-width:1.209;stroke-miterlimit:10;}
	.st7{fill:url(#XMLID_98_);stroke:#1A171B;stroke-width:0.6045;stroke-miterlimit:10;}
	.st8{fill:url(#XMLID_99_);stroke:#1A171B;stroke-width:0.6045;stroke-miterlimit:10;}
	.st9{fill:url(#XMLID_100_);stroke:#1A171B;stroke-width:0.6045;stroke-miterlimit:10;}
	.st10{fill:url(#XMLID_101_);stroke:#1A171B;stroke-width:0.6045;stroke-miterlimit:10;}
	.st11{fill:url(#XMLID_102_);stroke:#1A171B;stroke-width:0.6045;stroke-miterlimit:10;}
	.st12{fill:url(#XMLID_103_);stroke:#1A171B;stroke-width:0.6045;stroke-miterlimit:10;}
	.st13{fill:url(#XMLID_104_);stroke:#1A171B;stroke-width:0.6045;stroke-miterlimit:10;}
	.st14{fill:url(#XMLID_105_);stroke:#1A171B;stroke-width:0.6045;stroke-miterlimit:10;}
	.st15{opacity:0.72;fill:#D8D9DA;}
</style>
<path id="XMLID_94_" class="st0" d="M402,155.9c-2.9-0.6-8.5-1.5-13.7-2.2c-0.4-1.4-0.8-2.9-1.2-4.3c3.4-4.6,8.9-22.2,4.6-21.4
	c-2.9,0.6-8.5,2-13.6,3.4c-1.2-1.6-2.4-3.2-3.7-4.8c2-5.2,4.6-11.9,5.5-14.2c1.5-3.9-2.9-8.7-6.9-6.8c-2.9,1.4-8.7,4.6-13.5,7.5
	c-1.9-1.4-3.9-2.6-6-3.8c1-5.6,2.2-13,2.6-15.4c0.7-4.1-4.6-8-8.1-5.4c-3.2,2.4-10,8.4-14.5,12.4c-0.9-0.2-1.7-0.5-2.6-0.7
	c-1.5-5.5-4.2-14.9-4.9-17.7c-1.1-4-7.6-5.3-9.6-1.4c-1.7,3.3-5,10.9-7.4,16.4c-0.1,0-0.2,0-0.3,0c-1.6,0-3.2,0-4.7,0.1
	c-2.8-5-7.2-13.2-8.6-15.6c-2-3.6-8.6-3.4-9.7,0.8c-1,3.8-2.6,12.6-3.6,18.5c-1.3,0.4-2.6,0.8-3.8,1.3c-3.6-3.5-12.2-11.8-14.6-14.1
	c-3-2.9-9.2-0.7-9,3.6c0.2,4.6,1.6,15.8,2.3,21.5c-0.1,0.1-0.3,0.2-0.4,0.3c-4.9-2.6-16.3,8.9-13,11.9c-0.5,0.6-1,1.2-1.5,1.8
	c-6.5-0.7-19.8-2-23-2.5c-5.6-0.8-9.2,10.2-1.9,12.3c3.3,0.9,10.1,2.8,15.8,4.5c-1.1,2.4-2.1,4.9-2.9,7.4c-6,0.9-15.1,2.3-17.9,2.5
	c-5.6,0.5-6.7,12,1,12.4c2.9,0.1,8.5,0.4,13.8,0.6c-0.1,1.5-0.2,2.9-0.2,4.4c0,0.6,0,1.2,0.1,1.7c-4.9,2.9-11,6.5-13.1,7.5
	c-5,2.6-1.7,13.6,5.5,11.1c2.2-0.8,5.9-2.1,9.8-3.5c1.1,3.8,2.5,7.6,4.2,11.1c-3.6,3.5-7.5,7.2-9,8.5c-4.3,3.7,1.6,13.7,8,9.5
	c1.9-1.3,5.3-3.4,8.7-5.7c2.8,3.6,6,7,9.5,10.1c-2.2,3.5-4.3,6.8-5.3,8.1c-3.3,4.6,4.8,12.9,10,7.3c1.5-1.6,4-4.3,6.7-7.1
	c3.5,2.2,7.3,4.1,11.2,5.8c-0.7,4.9-1.5,10-1.9,12c-1.2,5.5,9.6,9.8,12.1,2.6c0.8-2.2,2.1-6.1,3.5-10.1c4.9,1.2,10,2,15.2,2.3
	c0.4,4.8,0.9,9.7,0.9,11.7c0.2,5.7,11.6,7.3,12.4-0.3c0.2-2.5,0.7-6.9,1.2-11.5c3.4-0.3,6.8-0.8,10.1-1.5c3.6,4.4,8.4,10.2,10.2,12
	c3.1,2.9,9.2,0.4,8.8-4.2c-0.2-2.8-1-8-1.8-13c3.1-1.3,6.1-2.8,9-4.5c4.3,3.6,9.7,8,11.8,9.3c3.6,2.3,9.1-1.4,7.8-5.9
	c-0.9-3.1-3-8.9-4.9-14.2c1-0.9,2-1.9,2.9-2.8c5.7,0.8,12.9,1.8,15.3,2.1c4.2,0.6,7.7-5,4.7-8.6c-1.7-2-5.1-5.6-8.5-9.1
	c0.6-1.2,1.2-2.3,1.8-3.5c4.6,0.5,9.4,1,11.2,1.2c4.1,0.4,7.7-5.1,4.9-8.4c-2.1-2.4-6.6-7.1-10.6-11c0.2-1.6,0.4-3.3,0.5-4.9
	c4.8-2.9,11-6.6,13.1-7.8C406.8,163.4,406.3,156.9,402,155.9z"/>
<path id="XMLID_93_" class="st0" d="M210.1,152.5c2.3-1.1,7.9-3.3,7.9-3.3l3.4,9.2c0,0-9.2,5.2-11.1,4.7
	C207.3,162.7,207.5,153.8,210.1,152.5z"/>
<path id="XMLID_92_" class="st0" d="M215.7,124.9c2.3-1.1,6.8-3.9,6.8-3.9l3.7,10.2c0,0-9.2,5.2-11.1,4.7
	C212.2,135.5,213.1,126.2,215.7,124.9z"/>
<path id="XMLID_91_" class="st0" d="M213.9,178.3c2.3-1.3,13.7-3.7,13.7-3.7l5.8,9.3c0,0-14.5,6.2-16.3,5.7
	C212.3,189.1,209.9,180.6,213.9,178.3z"/>
<path id="XMLID_90_" class="st0" d="M224.8,205.3c2.5-1.7,22.8-8.4,22.8-8.4l5.7,11.6c0,0-18.2,9.2-24.4,7.6
	C222.7,214.5,223,206.5,224.8,205.3z"/>
<path id="XMLID_89_" class="st0" d="M269.9,218.7c0,0-24.9,8.7-25,11.3c-0.1,2.5,3.2,7.4,8.4,6.4c2.1-0.4,26.1-10.4,26.1-10.4
	L269.9,218.7z"/>
<path id="XMLID_88_" class="st0" d="M300.5,230c0,0-29.3,13.5-29.2,15.6c-0.3,3.4,5.3,7.6,10.1,5.4s30.7-18.5,30.7-18.5L300.5,230z"
	/>
<path id="XMLID_87_" class="st0" d="M335.4,232.8c0,0-0.2,16.6,1.2,17.6c5.1,3.5,9.1-1.3,9.2-2.9c0.5-1.6-2-18.6-2-18.6L335.4,232.8
	z"/>
<path id="XMLID_86_" class="st0" d="M370.7,216.7l-7.6,5.6c0,0-1.9,13.6-0.3,14.7c5.1,3.7,9.2,0.1,10-2.7S370.7,216.7,370.7,216.7z"
	/>
<path id="XMLID_85_" class="st0" d="M391.4,197.8l-8.4,5.4c0,0-1.5,12.2,0.1,13.4c6.6,1.9,7.9-2.1,8.7-4.9
	C392.7,208.9,391.4,197.8,391.4,197.8z"/>
<path id="XMLID_84_" class="st0" d="M401.3,181.8c-3.9-0.8-5.3,3-5.3,3s-2.1,11.9-1.2,12.4c1.6,1,6.2-2.7,6.7-5.4
	C402,189.5,405.2,182.6,401.3,181.8z"/>
<path id="XMLID_83_" class="st0" d="M411.6,148.3c-3.7,0-9.7,4.8-9.7,4.8s-3,13.3-2,13.8c1-0.1,3.3-1.4,5.7-3
	C406.7,161.7,414.1,148.3,411.6,148.3z"/>
<path id="XMLID_82_" class="st0" d="M409.1,144.4c-2.8-0.9-8.3-2.4-13.3-3.7c-0.2-1.5-0.5-2.9-0.8-4.4c3.8-4.2,9.1-10,10.8-11.9
	c2.8-3.1,0.4-9.2-4-8.9c-3,0.2-8.7,1.1-13.9,1.9c-1-1.7-2-3.5-3.2-5.1c2.6-5,5.8-11.4,6.9-13.5c1.9-3.7-2-9-6.1-7.5
	c-3,1.1-9.1,3.7-14.2,6c-1.8-1.5-3.6-3-5.6-4.4c1.5-5.5,3.6-12.7,4.2-15c1.1-4-3.7-8.4-7.5-6.2c-3.4,2-10.8,7.2-15.7,10.8
	c-0.8-0.3-1.7-0.6-2.5-1c-0.9-5.6-2.6-15.3-3-18.1c-0.7-4.1-7-6.1-9.4-2.4c-2.1,3.1-6.2,10.3-9.1,15.5c-0.1,0-0.2,0-0.3,0
	c-1.6-0.2-3.1-0.3-4.7-0.4c-2.2-5.3-5.8-13.8-6.9-16.4c-1.6-3.8-8.2-4.3-9.7-0.2c-1.4,3.7-3.9,12.2-5.6,18.1
	c-1.3,0.3-2.6,0.5-3.9,0.8c-3.2-3.9-10.9-13.1-13-15.6c-2.7-3.2-9.1-1.7-9.3,2.7c-0.3,4.6-0.1,15.8,0.1,21.6
	c-0.1,0.1-0.3,0.2-0.4,0.2c-4.6-3.1-13.4-9-18.3-12.2c-4-2.6-11,6.2-6.7,10.9c2.6,2.8,7.7,8.4,10.8,11.7c-0.6,0.5-1.1,1.1-1.7,1.6
	c-6.4-1.3-19.5-4.1-22.6-4.9c-5.5-1.4-10.3,9.2-3.1,12c3.2,1.3,9.7,3.9,15.3,6.1c-1.4,2.3-2.6,4.6-3.7,7c-6,0.3-15.2,0.7-18,0.6
	c-5.7-0.1-7.9,11.2-0.3,12.4c2.9,0.4,8.4,1.3,13.7,2.1c-0.3,1.4-0.5,2.9-0.6,4.4c-0.1,0.6-0.1,1.2-0.1,1.7
	c-5.2,2.4-11.6,5.3-13.8,6.1c-0.4,0.1-0.7,0.3-1,0.6c-3.9,3-1.6,12.7,5.4,11c2.3-0.5,6.1-1.4,10.1-2.4c0.6,3.9,1.6,7.8,3,11.5
	c-4,3.1-8.2,6.4-9.9,7.5c-4.7,3.2,0.1,13.8,6.9,10.3c2.1-1.1,5.6-2.8,9.3-4.7c2.4,3.9,5.2,7.6,8.4,11.1c-2.6,3.3-5,6.3-6.1,7.5
	c-3.8,4.2,3.4,13.3,9.2,8.3c1.7-1.4,4.4-3.8,7.4-6.3c3.3,2.5,6.8,4.8,10.5,6.9c-1.2,4.8-2.5,9.8-3.1,11.7
	c-1.7,5.4,8.5,10.8,11.8,3.9c1-2.1,2.7-5.8,4.6-9.6c4.8,1.7,9.7,3,14.9,3.9c-0.1,4.9-0.2,9.8-0.3,11.7c-0.4,5.6,10.8,8.5,12.4,1
	c0.5-2.5,1.4-6.8,2.4-11.3c3.4,0.1,6.9-0.1,10.2-0.4c3.1,4.8,7.2,11.1,8.9,13c2.8,3.2,9.1,1.4,9.2-3.3c0.1-2.8-0.1-8-0.4-13.1
	c3.3-1,6.4-2.2,9.5-3.5c3.9,4,8.8,9,10.7,10.5c3.4,2.7,9.2-0.4,8.4-5c-0.5-3.1-2-9.2-3.4-14.7c1.1-0.8,2.2-1.7,3.2-2.5
	c5.6,1.4,12.6,3.1,15,3.7c4.2,1,8.2-4.2,5.6-8c-1.5-2.2-4.5-6.1-7.5-9.9c0.8-1.1,1.5-2.2,2.1-3.3c4.6,1,9.2,2,11,2.4
	c4.1,0.9,8.2-4.2,5.7-7.8c-1.8-2.6-5.8-7.7-9.3-12.1c0.4-1.6,0.8-3.2,1.1-4.8c5.1-2.4,11.6-5.4,13.8-6.4
	C413,152.4,413.2,145.8,409.1,144.4z"/>
<ellipse id="XMLID_81_" class="st0" cx="313.9" cy="145.8" rx="30.6" ry="26.8"/>
<rect id="XMLID_80_" x="196.5" y="246.6" transform="matrix(0.9956 9.391694e-002 -9.391694e-002 0.9956 32.0996 -26.273)" class="st0" width="197.3" height="162.7"/>
<rect id="XMLID_79_" x="179.6" y="247.2" transform="matrix(0.9959 9.003922e-002 -9.003922e-002 0.9959 29.3349 -15.654)" class="st0" width="17.1" height="140.2"/>
<path id="XMLID_78_" class="st0" d="M188.3,245.8l-99.2-11.7c-5.6-0.7-13.8,30.3-18.4,69.1c-4.6,38.8-3.7,70.8,1.8,71.5l99.2,11.7
	c5.6,0.7,13.8-30.3,18.4-69.1C194.7,278.5,193.9,246.5,188.3,245.8z"/>
<path id="XMLID_77_" class="st0" d="M339.8,408.9c2.2,21,10.1,29.1,14.8,19.9c2.5-4.8,13.4-55.4,22.9-104.3
	c8.7-45.1,16.3-88.9,14-93.2c-4.8-9-18.7,15.1-17.9,19.3C377.3,273.5,360.5,381.2,339.8,408.9z"/>
<path id="XMLID_76_" class="st0" d="M184.7,393c2.2,21,10.1,29.1,14.8,19.9c2.5-4.8,13.4-55.4,22.9-104.3
	c8.7-45.1,16.3-88.9,14-93.2c-4.8-9-18.7,15.1-17.9,19.3C222.2,257.6,205.4,365.3,184.7,393z"/>
<path id="XMLID_75_" class="st0" d="M204.9,229.3c1.7-14.6,7-14,5.9,8.1c0,0-3.3,50.3-7.8,77.6c-4.5,27.3-13.7,70.4-13.7,70.4
	s-13.7,23.2-13.7-0.3c9.1-10.8,19.1-48.2,21.8-74.8C203,254.7,203,238.7,204.9,229.3z"/>
<path id="XMLID_74_" class="st0" d="M404.2,253.3c0,0-4.3-7.7-7,0c-2.7,7.7-4.4,58.7-10.6,94.3c-6.2,35.6-17.6,66.8-17.6,66.8
	l3.6,10.6l0.8,5.6c0,0,10.1-7,12.3-12.6C395.3,394.9,404.2,253.3,404.2,253.3z"/>
<path id="XMLID_73_" class="st0" d="M310,405.5c2.2,21,10.1,29.1,14.8,19.9c2.5-4.8,13.4-55.4,22.9-104.3
	c8.7-45.1,16.3-88.9,14-93.2c-4.8-9-18.7,15.1-17.9,19.3C347.4,270.1,330.7,377.8,310,405.5z"/>
<path id="XMLID_72_" class="st0" d="M277.3,405.5c2.2,21,10.1,29.1,14.8,19.9c2.5-4.8,13.4-55.4,22.9-104.3
	c8.7-45.1,16.3-88.9,14-93.2c-4.8-9-18.7,15.1-17.9,19.3C314.8,270.1,298,377.8,277.3,405.5z"/>
<path id="XMLID_71_" class="st0" d="M245.9,403.9c2.2,21,10.1,29.1,14.8,19.9c2.5-4.8,13.4-55.4,22.9-104.3
	c8.7-45.1,16.3-88.9,14-93.2c-4.8-9-18.7,15.1-17.9,19.3C283.4,268.5,266.6,376.2,245.9,403.9z"/>
<path id="XMLID_70_" class="st0" d="M215.7,397.7c2.2,21,10.1,29.1,14.8,19.9c2.5-4.8,13.4-55.4,22.9-104.3
	c8.7-45.1,16.3-88.9,14-93.2c-4.8-9-18.7,15.1-17.9,19.3C253.2,262.3,236.4,370.1,215.7,397.7z"/>
<ellipse id="XMLID_69_" transform="matrix(0.9949 0.1011 -0.1011 0.9949 37.3155 -10.0959)" class="st0" cx="118.2" cy="363" rx="29" ry="14.5"/>
<ellipse id="XMLID_68_" transform="matrix(0.9874 0.1582 -0.1582 0.9874 59.2874 -14.1074)" class="st0" cx="118.3" cy="365.4" rx="12.1" ry="6.6"/>
<path id="XMLID_67_" class="st1" d="M402,155.9c-2.9-0.6-8.5-1.5-13.7-2.2c-0.4-1.4-0.8-2.9-1.2-4.3c3.4-4.6,8.9-22.2,4.6-21.4
	c-2.9,0.6-8.5,2-13.6,3.4c-1.2-1.6-2.4-3.2-3.7-4.8c2-5.2,4.6-11.9,5.5-14.2c1.5-3.9-2.9-8.7-6.9-6.8c-2.9,1.4-8.7,4.6-13.5,7.5
	c-1.9-1.4-3.9-2.6-6-3.8c1-5.6,2.2-13,2.6-15.4c0.7-4.1-4.6-8-8.1-5.4c-3.2,2.4-10,8.4-14.5,12.4c-0.9-0.2-1.7-0.5-2.6-0.7
	c-1.5-5.5-4.2-14.9-4.9-17.7c-1.1-4-7.6-5.3-9.6-1.4c-1.7,3.3-5,10.9-7.4,16.4c-0.1,0-0.2,0-0.3,0c-1.6,0-3.2,0-4.7,0.1
	c-2.8-5-7.2-13.2-8.6-15.6c-2-3.6-8.6-3.4-9.7,0.8c-1,3.8-2.6,12.6-3.6,18.5c-1.3,0.4-2.6,0.8-3.8,1.3c-3.6-3.5-12.2-11.8-14.6-14.1
	c-3-2.9-9.2-0.7-9,3.6c0.2,4.6,1.6,15.8,2.3,21.5c-0.1,0.1-0.3,0.2-0.4,0.3c-4.9-2.6-16.3,8.9-13,11.9c-0.5,0.6-1,1.2-1.5,1.8
	c-6.5-0.7-19.8-2-23-2.5c-5.6-0.8-9.2,10.2-1.9,12.3c3.3,0.9,10.1,2.8,15.8,4.5c-1.1,2.4-2.1,4.9-2.9,7.4c-6,0.9-15.1,2.3-17.9,2.5
	c-5.6,0.5-6.7,12,1,12.4c2.9,0.1,8.5,0.4,13.8,0.6c-0.1,1.5-0.2,2.9-0.2,4.4c0,0.6,0,1.2,0.1,1.7c-4.9,2.9-11,6.5-13.1,7.5
	c-5,2.6-1.7,13.6,5.5,11.1c2.2-0.8,5.9-2.1,9.8-3.5c1.1,3.8,2.5,7.6,4.2,11.1c-3.6,3.5-7.5,7.2-9,8.5c-4.3,3.7,1.6,13.7,8,9.5
	c1.9-1.3,5.3-3.4,8.7-5.7c2.8,3.6,6,7,9.5,10.1c-2.2,3.5-4.3,6.8-5.3,8.1c-3.3,4.6,4.8,12.9,10,7.3c1.5-1.6,4-4.3,6.7-7.1
	c3.5,2.2,7.3,4.1,11.2,5.8c-0.7,4.9-1.5,10-1.9,12c-1.2,5.5,9.6,9.8,12.1,2.6c0.8-2.2,2.1-6.1,3.5-10.1c4.9,1.2,10,2,15.2,2.3
	c0.4,4.8,0.9,9.7,0.9,11.7c0.2,5.7,11.6,7.3,12.4-0.3c0.2-2.5,0.7-6.9,1.2-11.5c3.4-0.3,6.8-0.8,10.1-1.5c3.6,4.4,8.4,10.2,10.2,12
	c3.1,2.9,9.2,0.4,8.8-4.2c-0.2-2.8-1-8-1.8-13c3.1-1.3,6.1-2.8,9-4.5c4.3,3.6,9.7,8,11.8,9.3c3.6,2.3,9.1-1.4,7.8-5.9
	c-0.9-3.1-3-8.9-4.9-14.2c1-0.9,2-1.9,2.9-2.8c5.7,0.8,12.9,1.8,15.3,2.1c4.2,0.6,7.7-5,4.7-8.6c-1.7-2-5.1-5.6-8.5-9.1
	c0.6-1.2,1.2-2.3,1.8-3.5c4.6,0.5,9.4,1,11.2,1.2c4.1,0.4,7.7-5.1,4.9-8.4c-2.1-2.4-6.6-7.1-10.6-11c0.2-1.6,0.4-3.3,0.5-4.9
	c4.8-2.9,11-6.6,13.1-7.8C406.8,163.4,406.3,156.9,402,155.9z"/>
<path id="XMLID_66_" class="st2" d="M210.1,152.5c2.3-1.1,7.9-3.3,7.9-3.3l3.4,9.2c0,0-9.2,5.2-11.1,4.7
	C207.3,162.7,207.5,153.8,210.1,152.5z"/>
<path id="XMLID_65_" class="st2" d="M215.7,124.9c2.3-1.1,6.8-3.9,6.8-3.9l3.7,10.2c0,0-9.2,5.2-11.1,4.7
	C212.2,135.5,213.1,126.2,215.7,124.9z"/>
<path id="XMLID_64_" class="st2" d="M213.9,178.3c2.3-1.3,13.7-3.7,13.7-3.7l5.8,9.3c0,0-14.5,6.2-16.3,5.7
	C212.3,189.1,209.9,180.6,213.9,178.3z"/>
<path id="XMLID_63_" class="st2" d="M224.8,205.3c2.5-1.7,22.8-8.4,22.8-8.4l5.7,11.6c0,0-18.2,9.2-24.4,7.6
	C222.7,214.5,223,206.5,224.8,205.3z"/>
<path id="XMLID_62_" class="st2" d="M269.9,218.7c0,0-24.9,8.7-25,11.3c-0.1,2.5,3.2,7.4,8.4,6.4c2.1-0.4,26.1-10.4,26.1-10.4
	L269.9,218.7z"/>
<path id="XMLID_61_" class="st2" d="M300.5,230c0,0-29.3,13.5-29.2,15.6c-0.3,3.4,5.3,7.6,10.1,5.4s30.7-18.5,30.7-18.5L300.5,230z"
	/>
<path id="XMLID_60_" class="st2" d="M335.4,232.8c0,0-0.2,16.6,1.2,17.6c5.1,3.5,9.1-1.3,9.2-2.9c0.5-1.6-2-18.6-2-18.6L335.4,232.8
	z"/>
<path id="XMLID_59_" class="st2" d="M370.7,216.7l-7.6,5.6c0,0-1.9,13.6-0.3,14.7c5.1,3.7,9.2,0.1,10-2.7S370.7,216.7,370.7,216.7z"
	/>
<path id="XMLID_58_" class="st2" d="M391.4,197.8l-8.4,5.4c0,0-1.5,12.2,0.1,13.4c6.6,1.9,7.9-2.1,8.7-4.9
	C392.7,208.9,391.4,197.8,391.4,197.8z"/>
<path id="XMLID_57_" class="st2" d="M401.3,181.8c-3.9-0.8-5.3,3-5.3,3s-2.1,11.9-1.2,12.4c1.6,1,6.2-2.7,6.7-5.4
	C402,189.5,405.2,182.6,401.3,181.8z"/>
<path id="XMLID_56_" class="st2" d="M411.6,148.3c-3.7,0-9.7,4.8-9.7,4.8s-3,13.3-2,13.8c1-0.1,3.3-1.4,5.7-3
	C406.7,161.7,414.1,148.3,411.6,148.3z"/>
<path id="XMLID_37_" class="st3" d="M409.1,144.4c-2.8-0.9-8.3-2.4-13.3-3.7c-0.2-1.5-0.5-2.9-0.8-4.4c3.8-4.2,9.1-10,10.8-11.9
	c2.8-3.1,0.4-9.2-4-8.9c-3,0.2-8.7,1.1-13.9,1.9c-1-1.7-2-3.5-3.2-5.1c2.6-5,5.8-11.4,6.9-13.5c1.9-3.7-2-9-6.1-7.5
	c-3,1.1-9.1,3.7-14.2,6c-1.8-1.5-3.6-3-5.6-4.4c1.5-5.5,3.6-12.7,4.2-15c1.1-4-3.7-8.4-7.5-6.2c-3.4,2-10.8,7.2-15.7,10.8
	c-0.8-0.3-1.7-0.6-2.5-1c-0.9-5.6-2.6-15.3-3-18.1c-0.7-4.1-7-6.1-9.4-2.4c-2.1,3.1-6.2,10.3-9.1,15.5c-0.1,0-0.2,0-0.3,0
	c-1.6-0.2-3.1-0.3-4.7-0.4c-2.2-5.3-5.8-13.8-6.9-16.4c-1.6-3.8-8.2-4.3-9.7-0.2c-1.4,3.7-3.9,12.2-5.6,18.1
	c-1.3,0.3-2.6,0.5-3.9,0.8c-3.2-3.9-10.9-13.1-13-15.6c-2.7-3.2-9.1-1.7-9.3,2.7c-0.3,4.6-0.1,15.8,0.1,21.6
	c-0.1,0.1-0.3,0.2-0.4,0.2c-4.6-3.1-13.4-9-18.3-12.2c-4-2.6-11,6.2-6.7,10.9c2.6,2.8,7.7,8.4,10.8,11.7c-0.6,0.5-1.1,1.1-1.7,1.6
	c-6.4-1.3-19.5-4.1-22.6-4.9c-5.5-1.4-10.3,9.2-3.1,12c3.2,1.3,9.7,3.9,15.3,6.1c-1.4,2.3-2.6,4.6-3.7,7c-6,0.3-15.2,0.7-18,0.6
	c-5.7-0.1-7.9,11.2-0.3,12.4c2.9,0.4,8.4,1.3,13.7,2.1c-0.3,1.4-0.5,2.9-0.6,4.4c-0.1,0.6-0.1,1.2-0.1,1.7
	c-5.2,2.4-11.6,5.3-13.8,6.1c-0.4,0.1-0.7,0.3-1,0.6c-3.9,3-1.6,12.7,5.4,11c2.3-0.5,6.1-1.4,10.1-2.4c0.6,3.9,1.6,7.8,3,11.5
	c-4,3.1-8.2,6.4-9.9,7.5c-4.7,3.2,0.1,13.8,6.9,10.3c2.1-1.1,5.6-2.8,9.3-4.7c2.4,3.9,5.2,7.6,8.4,11.1c-2.6,3.3-5,6.3-6.1,7.5
	c-3.8,4.2,3.4,13.3,9.2,8.3c1.7-1.4,4.4-3.8,7.4-6.3c3.3,2.5,6.8,4.8,10.5,6.9c-1.2,4.8-2.5,9.8-3.1,11.7
	c-1.7,5.4,8.5,10.8,11.8,3.9c1-2.1,2.7-5.8,4.6-9.6c4.8,1.7,9.7,3,14.9,3.9c-0.1,4.9-0.2,9.8-0.3,11.7c-0.4,5.6,10.8,8.5,12.4,1
	c0.5-2.5,1.4-6.8,2.4-11.3c3.4,0.1,6.9-0.1,10.2-0.4c3.1,4.8,7.2,11.1,8.9,13c2.8,3.2,9.1,1.4,9.2-3.3c0.1-2.8-0.1-8-0.4-13.1
	c3.3-1,6.4-2.2,9.5-3.5c3.9,4,8.8,9,10.7,10.5c3.4,2.7,9.2-0.4,8.4-5c-0.5-3.1-2-9.2-3.4-14.7c1.1-0.8,2.2-1.7,3.2-2.5
	c5.6,1.4,12.6,3.1,15,3.7c4.2,1,8.2-4.2,5.6-8c-1.5-2.2-4.5-6.1-7.5-9.9c0.8-1.1,1.5-2.2,2.1-3.3c4.6,1,9.2,2,11,2.4
	c4.1,0.9,8.2-4.2,5.7-7.8c-1.8-2.6-5.8-7.7-9.3-12.1c0.4-1.6,0.8-3.2,1.1-4.8c5.1-2.4,11.6-5.4,13.8-6.4
	C413,152.4,413.2,145.8,409.1,144.4z"/>
<ellipse id="XMLID_36_" class="st4" cx="313.9" cy="145.8" rx="30.6" ry="26.8"/>
<linearGradient id="XMLID_96_" gradientUnits="userSpaceOnUse" x1="303.537" y1="235.5655" x2="290.6416" y2="408.8481" gradientTransform="matrix(0.9999 1.290000e-002 -1.290000e-002 0.9999 2.4846 -0.5052)">
	<stop  offset="0" style="stop-color:#50503D"/>
	<stop  offset="0.1879" style="stop-color:#CDB78F"/>
	<stop  offset="0.4727" style="stop-color:#BE8A32"/>
	<stop  offset="0.6667" style="stop-color:#CDB78F"/>
	<stop  offset="0.8667" style="stop-color:#4C4536"/>
</linearGradient>
<polygon id="XMLID_35_" class="st5" points="385.7,418.1 189.3,399.6 204.6,237.7 401,256.2 "/>
<rect id="XMLID_34_" x="179.6" y="247.2" transform="matrix(0.9959 9.003922e-002 -9.003922e-002 0.9959 29.3349 -15.654)" class="st1" width="17.1" height="140.2"/>
<linearGradient id="XMLID_97_" gradientUnits="userSpaceOnUse" x1="139.6311" y1="231.1182" x2="119.8852" y2="400.3719">
	<stop  offset="0" style="stop-color:#6A604C"/>
	<stop  offset="0.1879" style="stop-color:#CDB78F"/>
	<stop  offset="0.3576" style="stop-color:#D48900"/>
	<stop  offset="0.6667" style="stop-color:#CDB78F"/>
	<stop  offset="0.8667" style="stop-color:#706550"/>
</linearGradient>
<path id="XMLID_33_" class="st6" d="M188.3,245.8l-99.2-11.7c-5.6-0.7-13.8,30.3-18.4,69.1c-4.6,38.8-3.7,70.8,1.8,71.5l99.2,11.7
	c5.6,0.7,13.8-30.3,18.4-69.1C194.7,278.5,193.9,246.5,188.3,245.8z"/>
<linearGradient id="XMLID_98_" gradientUnits="userSpaceOnUse" x1="377.9198" y1="228.7515" x2="349.7107" y2="452.0057">
	<stop  offset="0.1576" style="stop-color:#CDB78F"/>
	<stop  offset="0.4242" style="stop-color:#BE8A32"/>
	<stop  offset="0.6667" style="stop-color:#CDB78F"/>
	<stop  offset="0.8667" style="stop-color:#4C4536"/>
</linearGradient>
<path id="XMLID_32_" class="st7" d="M339.8,408.9c2.2,21,10.1,29.1,14.8,19.9c2.5-4.8,13.4-55.4,22.9-104.3
	c8.7-45.1,16.3-88.9,14-93.2c-4.8-9-18.7,15.1-17.9,19.3C377.3,273.5,360.5,381.2,339.8,408.9z"/>
<linearGradient id="XMLID_99_" gradientUnits="userSpaceOnUse" x1="223.2631" y1="209.2099" x2="195.054" y2="432.4643">
	<stop  offset="0.1576" style="stop-color:#CDB78F"/>
	<stop  offset="0.4242" style="stop-color:#BE8A32"/>
	<stop  offset="0.6667" style="stop-color:#CDB78F"/>
	<stop  offset="0.8667" style="stop-color:#4C4536"/>
</linearGradient>
<path id="XMLID_31_" class="st8" d="M184.7,393c2.2,21,10.1,29.1,14.8,19.9c2.5-4.8,13.4-55.4,22.9-104.3
	c8.7-45.1,16.3-88.9,14-93.2c-4.8-9-18.7,15.1-17.9,19.3C222.2,257.6,205.4,365.3,184.7,393z"/>
<linearGradient id="XMLID_100_" gradientUnits="userSpaceOnUse" x1="191.0441" y1="307.0358" x2="206.3133" y2="309.6681">
	<stop  offset="0.1576" style="stop-color:#CDB78F"/>
	<stop  offset="0.4242" style="stop-color:#BE8A32"/>
	<stop  offset="0.6667" style="stop-color:#CDB78F"/>
	<stop  offset="0.8667" style="stop-color:#4C4536"/>
</linearGradient>
<path id="XMLID_30_" class="st9" d="M204.9,229.3c1.7-14.6,7-14,5.9,8.1c0,0-3.3,50.3-7.8,77.6c-4.5,27.3-13.7,70.4-13.7,70.4
	s-13.7,23.2-13.7-0.3c9.1-10.8,19.1-48.2,21.8-74.8C203,254.7,203,238.7,204.9,229.3z"/>
<linearGradient id="XMLID_101_" gradientUnits="userSpaceOnUse" x1="402.2605" y1="228.5556" x2="373.5956" y2="455.4173">
	<stop  offset="0.1576" style="stop-color:#CDB78F"/>
	<stop  offset="0.4242" style="stop-color:#BE8A32"/>
	<stop  offset="0.6667" style="stop-color:#CDB78F"/>
	<stop  offset="0.8667" style="stop-color:#4C4536"/>
</linearGradient>
<path id="XMLID_29_" class="st10" d="M404.2,253.3c0,0-4.3-7.7-7,0c-2.7,7.7-4.4,58.7-10.6,94.3c-6.2,35.6-17.6,66.8-17.6,66.8
	l3.6,10.6l0.8,5.6c0,0,10.1-7,12.3-12.6C395.3,394.9,404.2,253.3,404.2,253.3z"/>
<linearGradient id="XMLID_102_" gradientUnits="userSpaceOnUse" x1="348.1051" y1="224.9838" x2="319.896" y2="448.2382">
	<stop  offset="0.1576" style="stop-color:#CDB78F"/>
	<stop  offset="0.4242" style="stop-color:#BE8A32"/>
	<stop  offset="0.6667" style="stop-color:#CDB78F"/>
	<stop  offset="0.8667" style="stop-color:#4C4536"/>
</linearGradient>
<path id="XMLID_28_" class="st11" d="M310,405.5c2.2,21,10.1,29.1,14.8,19.9c2.5-4.8,13.4-55.4,22.9-104.3
	c8.7-45.1,16.3-88.9,14-93.2c-4.8-9-18.7,15.1-17.9,19.3C347.4,270.1,330.7,377.8,310,405.5z"/>
<linearGradient id="XMLID_103_" gradientUnits="userSpaceOnUse" x1="315.9668" y1="220.9235" x2="287.7577" y2="444.1778">
	<stop  offset="0.1576" style="stop-color:#CDB78F"/>
	<stop  offset="0.4242" style="stop-color:#BE8A32"/>
	<stop  offset="0.6667" style="stop-color:#CDB78F"/>
	<stop  offset="0.8667" style="stop-color:#4C4536"/>
</linearGradient>
<path id="XMLID_27_" class="st12" d="M277.3,405.5c2.2,21,10.1,29.1,14.8,19.9c2.5-4.8,13.4-55.4,22.9-104.3
	c8.7-45.1,16.3-88.9,14-93.2c-4.8-9-18.7,15.1-17.9,19.3C314.8,270.1,298,377.8,277.3,405.5z"/>
<linearGradient id="XMLID_104_" gradientUnits="userSpaceOnUse" x1="284.8687" y1="216.9938" x2="256.6596" y2="440.2483">
	<stop  offset="0.1576" style="stop-color:#CDB78F"/>
	<stop  offset="0.4242" style="stop-color:#BE8A32"/>
	<stop  offset="0.6667" style="stop-color:#CDB78F"/>
	<stop  offset="0.8667" style="stop-color:#4C4536"/>
</linearGradient>
<path id="XMLID_26_" class="st13" d="M245.9,403.9c2.2,21,10.1,29.1,14.8,19.9c2.5-4.8,13.4-55.4,22.9-104.3
	c8.7-45.1,16.3-88.9,14-93.2c-4.8-9-18.7,15.1-17.9,19.3C283.4,268.5,266.6,376.2,245.9,403.9z"/>
<linearGradient id="XMLID_105_" gradientUnits="userSpaceOnUse" x1="254.3653" y1="213.1396" x2="226.1562" y2="436.394">
	<stop  offset="0.1576" style="stop-color:#CDB78F"/>
	<stop  offset="0.4242" style="stop-color:#BE8A32"/>
	<stop  offset="0.6667" style="stop-color:#CDB78F"/>
	<stop  offset="0.8667" style="stop-color:#4C4536"/>
</linearGradient>
<path id="XMLID_25_" class="st14" d="M215.7,397.7c2.2,21,10.1,29.1,14.8,19.9c2.5-4.8,13.4-55.4,22.9-104.3
	c8.7-45.1,16.3-88.9,14-93.2c-4.8-9-18.7,15.1-17.9,19.3C253.2,262.3,236.4,370.1,215.7,397.7z"/>
<ellipse id="XMLID_24_" transform="matrix(0.9949 0.1011 -0.1011 0.9949 37.3155 -10.0959)" class="st1" cx="118.2" cy="363" rx="29" ry="14.5"/>
<ellipse id="XMLID_23_" transform="matrix(0.9874 0.1582 -0.1582 0.9874 59.2874 -14.1074)" class="st4" cx="118.3" cy="365.4" rx="12.1" ry="6.6"/>
<path id="XMLID_20_" class="st15" d="M336.8,100.6c0,0-30.8,12-55.6,0.1c-7.4-3.6-18.3,9.6-5,9.6
	C295.2,110.3,336.8,100.6,336.8,100.6z"/>
</svg>
