<?xml version="1.0" encoding="utf-8"?>
<!-- Generator: Adobe Illustrator 19.0.0, SVG Export Plug-In . SVG Version: 6.00 Build 0)  -->
<svg version="1.1" id="Camada_1" xmlns="http://www.w3.org/2000/svg" xmlns:xlink="http://www.w3.org/1999/xlink" x="0px" y="0px"
	 viewBox="0 0 500 500" style="enable-background:new 0 0 500 500;" xml:space="preserve">
<style type="text/css">
	.st0{fill:#1D1D1B;stroke:#1D1D1B;stroke-width:5.542;stroke-linejoin:round;stroke-miterlimit:10;}
	.st1{fill:#D9D9D9;stroke:#1D1D1B;stroke-width:5.542;stroke-linejoin:round;stroke-miterlimit:10;}
	.st2{fill:#D9D9D9;stroke:#1D1D1B;stroke-width:1.8473;stroke-linejoin:round;stroke-miterlimit:10;}
	.st3{fill:#C6C6C5;stroke:#1D1D1B;stroke-width:1.8473;stroke-linejoin:round;stroke-miterlimit:10;}
	.st4{fill:#9C9B9B;stroke:#1D1D1B;stroke-width:1.8473;stroke-linejoin:round;stroke-miterlimit:10;}
	.st5{fill:#BD1622;stroke:#1D1D1B;stroke-width:1.8473;stroke-linejoin:round;stroke-miterlimit:10;}
	.st6{fill:none;}
	.st7{fill:#601816;stroke:#1D1D1B;stroke-width:1.8473;stroke-linejoin:round;stroke-miterlimit:10;}
	.st8{fill:#9C9B9B;stroke:#1D1D1B;stroke-width:5.542;stroke-linejoin:round;stroke-miterlimit:10;}
	.st9{fill:#F8B133;stroke:#1D1D1B;stroke-width:1.8473;stroke-linejoin:round;stroke-miterlimit:10;}
	.st10{fill:#8D5518;stroke:#1D1D1B;stroke-width:1.8473;stroke-linejoin:round;stroke-miterlimit:10;}
	.st11{fill:#575756;stroke:#1D1D1B;stroke-width:1.8473;stroke-linejoin:round;stroke-miterlimit:10;}
	.st12{fill:#1D1D1B;stroke:#1D1D1B;stroke-width:1.8473;stroke-linejoin:round;stroke-miterlimit:10;}
	.st13{fill:#6F6F6E;stroke:#1D1D1B;stroke-width:1.8473;stroke-linejoin:round;stroke-miterlimit:10;}
</style>
<g id="XMLID_402_">
	<g id="XMLID_748_">
		<g id="XMLID_400_">
			<ellipse id="XMLID_227_" class="st0" cx="118" cy="244.4" rx="55.6" ry="20.8"/>
			<path id="XMLID_243_" class="st0" d="M173.6,239.2c0,11.5-24.9,20.7-55.6,20.7c-30.7,0-55.6-9.3-55.6-20.7
				c0-11.5,24.9-20.8,55.6-20.8C148.7,218.5,173.6,227.8,173.6,239.2z"/>
			<path id="XMLID_242_" class="st0" d="M173.6,234.1c0,11.5-24.9,20.7-55.6,20.7c-30.7,0-55.6-9.3-55.6-20.7
				c0-11.5,24.9-20.8,55.6-20.8C148.7,213.3,173.6,222.6,173.6,234.1z"/>
			<path id="XMLID_241_" class="st0" d="M173.6,228.9c0,11.5-24.9,20.7-55.6,20.7c-30.7,0-55.6-9.3-55.6-20.7
				c0-11.5,24.9-20.8,55.6-20.8C148.7,208.1,173.6,217.4,173.6,228.9z"/>
			<path id="XMLID_240_" class="st0" d="M173.6,223.7c0,11.5-24.9,20.7-55.6,20.7c-30.7,0-55.6-9.3-55.6-20.7
				c0-11.5,24.9-20.8,55.6-20.8C148.7,203,173.6,212.2,173.6,223.7z"/>
			<path id="XMLID_239_" class="st0" d="M173.6,218.5c0,11.5-24.9,20.7-55.6,20.7c-30.7,0-55.6-9.3-55.6-20.7
				c0-11.5,24.9-20.8,55.6-20.8C148.7,197.8,173.6,207.1,173.6,218.5z"/>
			<path id="XMLID_238_" class="st0" d="M173.6,213.4c0,11.5-24.9,20.7-55.6,20.7c-30.7,0-55.6-9.3-55.6-20.7
				c0-11.5,24.9-20.8,55.6-20.8C148.7,192.6,173.6,201.9,173.6,213.4z"/>
			<path id="XMLID_237_" class="st0" d="M173.6,208.2c0,11.5-24.9,20.7-55.6,20.7c-30.7,0-55.6-9.3-55.6-20.7
				c0-11.5,24.9-20.8,55.6-20.8C148.7,187.4,173.6,196.7,173.6,208.2z"/>
			<path id="XMLID_236_" class="st0" d="M173.6,203c0,11.5-24.9,20.7-55.6,20.7c-30.7,0-55.6-9.3-55.6-20.7
				c0-11.5,24.9-20.8,55.6-20.8C148.7,182.3,173.6,191.5,173.6,203z"/>
			<path id="XMLID_235_" class="st0" d="M173.6,197.8c0,11.5-24.9,20.7-55.6,20.7c-30.7,0-55.6-9.3-55.6-20.7
				c0-11.5,24.9-20.8,55.6-20.8C148.7,177.1,173.6,186.4,173.6,197.8z"/>
			<path id="XMLID_234_" class="st0" d="M173.6,192.7c0,11.5-24.9,20.7-55.6,20.7c-30.7,0-55.6-9.3-55.6-20.7
				c0-11.5,24.9-20.8,55.6-20.8C148.7,171.9,173.6,181.2,173.6,192.7z"/>
			<path id="XMLID_233_" class="st0" d="M173.6,187.5c0,11.5-24.9,20.7-55.6,20.7c-30.7,0-55.6-9.3-55.6-20.7
				c0-11.5,24.9-20.8,55.6-20.8C148.7,166.7,173.6,176,173.6,187.5z"/>
			<path id="XMLID_232_" class="st0" d="M173.6,182.3c0,11.5-24.9,20.7-55.6,20.7c-30.7,0-55.6-9.3-55.6-20.7
				c0-11.5,24.9-20.8,55.6-20.8C148.7,161.5,173.6,170.8,173.6,182.3z"/>
			<path id="XMLID_231_" class="st0" d="M173.6,177.1c0,11.5-24.9,20.7-55.6,20.7c-30.7,0-55.6-9.3-55.6-20.7
				c0-11.5,24.9-20.8,55.6-20.8C148.7,156.4,173.6,165.7,173.6,177.1z"/>
			<path id="XMLID_230_" class="st0" d="M173.6,172c0,11.5-24.9,20.7-55.6,20.7c-30.7,0-55.6-9.3-55.6-20.7
				c0-11.5,24.9-20.8,55.6-20.8C148.7,151.2,173.6,160.5,173.6,172z"/>
			<path id="XMLID_229_" class="st0" d="M173.6,166.8c0,11.5-24.9,20.7-55.6,20.7c-30.7,0-55.6-9.3-55.6-20.7
				c0-11.5,24.9-20.8,55.6-20.8C148.7,146,173.6,155.3,173.6,166.8z"/>
			<path id="XMLID_228_" class="st0" d="M173.6,161.6c0,11.5-24.9,20.7-55.6,20.7c-30.7,0-55.6-9.3-55.6-20.7
				c0-11.5,24.9-20.8,55.6-20.8C148.7,140.8,173.6,150.1,173.6,161.6z"/>
			<path id="XMLID_226_" class="st0" d="M173.6,156.4c0,11.5-24.9,20.7-55.6,20.7c-30.7,0-55.6-9.3-55.6-20.7
				c0-11.5,24.9-20.8,55.6-20.8C148.7,135.7,173.6,145,173.6,156.4z"/>
		</g>
		<g id="XMLID_776_">
			<path id="XMLID_377_" class="st1" d="M118,263.1c-26.4,0-47.7-7.5-47.7-16.9v25.4c0,9.3,21.4,16.9,47.7,16.9
				c26.4,0,47.7-7.5,47.7-16.9v-25.4C165.7,255.6,144.4,263.1,118,263.1z"/>
			<path id="XMLID_374_" class="st1" d="M165.7,129.6c-0.2-9.2-21.5-16.7-47.7-16.7c-26.2,0-47.5,7.5-47.7,16.7c0,0,0-0.1,0-0.1v0.3
				v25.2v0.3c0,0,0-0.1,0-0.1c0.2,9.2,21.5,16.7,47.7,16.7c26.2,0,47.5-7.5,47.7-16.7c0,0,0,0.1,0,0.1v-0.3v-25.2v-0.3
				C165.7,129.5,165.7,129.6,165.7,129.6z M87.2,142.3c8.3-2.5,19.1-4,30.8-4c11.8,0,22.5,1.5,30.8,4c-8.3,2.5-19.1,4-30.8,4
				C106.2,146.3,95.5,144.8,87.2,142.3z"/>
		</g>
		<path id="XMLID_373_" class="st2" d="M118,263.1c-26.4,0-47.7-7.5-47.7-16.9v25.4c0,9.3,21.4,16.9,47.7,16.9
			c26.4,0,47.7-7.5,47.7-16.9v-25.4C165.7,255.6,144.4,263.1,118,263.1z"/>
		<g id="XMLID_399_">
			<ellipse id="XMLID_209_" class="st3" cx="118" cy="244.4" rx="55.6" ry="20.8"/>
			<path id="XMLID_225_" class="st3" d="M173.6,239.2c0,11.5-24.9,20.7-55.6,20.7c-30.7,0-55.6-9.3-55.6-20.7
				c0-11.5,24.9-20.8,55.6-20.8C148.7,218.5,173.6,227.8,173.6,239.2z"/>
			<path id="XMLID_224_" class="st3" d="M173.6,234.1c0,11.5-24.9,20.7-55.6,20.7c-30.7,0-55.6-9.3-55.6-20.7
				c0-11.5,24.9-20.8,55.6-20.8C148.7,213.3,173.6,222.6,173.6,234.1z"/>
			<path id="XMLID_223_" class="st3" d="M173.6,228.9c0,11.5-24.9,20.7-55.6,20.7c-30.7,0-55.6-9.3-55.6-20.7
				c0-11.5,24.9-20.8,55.6-20.8C148.7,208.1,173.6,217.4,173.6,228.9z"/>
			<path id="XMLID_222_" class="st3" d="M173.6,223.7c0,11.5-24.9,20.7-55.6,20.7c-30.7,0-55.6-9.3-55.6-20.7
				c0-11.5,24.9-20.8,55.6-20.8C148.7,203,173.6,212.2,173.6,223.7z"/>
			<path id="XMLID_221_" class="st3" d="M173.6,218.5c0,11.5-24.9,20.7-55.6,20.7c-30.7,0-55.6-9.3-55.6-20.7
				c0-11.5,24.9-20.8,55.6-20.8C148.7,197.8,173.6,207.1,173.6,218.5z"/>
			<path id="XMLID_220_" class="st3" d="M173.6,213.4c0,11.5-24.9,20.7-55.6,20.7c-30.7,0-55.6-9.3-55.6-20.7
				c0-11.5,24.9-20.8,55.6-20.8C148.7,192.6,173.6,201.9,173.6,213.4z"/>
			<path id="XMLID_219_" class="st3" d="M173.6,208.2c0,11.5-24.9,20.7-55.6,20.7c-30.7,0-55.6-9.3-55.6-20.7
				c0-11.5,24.9-20.8,55.6-20.8C148.7,187.4,173.6,196.7,173.6,208.2z"/>
			<path id="XMLID_218_" class="st3" d="M173.6,203c0,11.5-24.9,20.7-55.6,20.7c-30.7,0-55.6-9.3-55.6-20.7
				c0-11.5,24.9-20.8,55.6-20.8C148.7,182.3,173.6,191.5,173.6,203z"/>
			<path id="XMLID_217_" class="st3" d="M173.6,197.8c0,11.5-24.9,20.7-55.6,20.7c-30.7,0-55.6-9.3-55.6-20.7
				c0-11.5,24.9-20.8,55.6-20.8C148.7,177.1,173.6,186.4,173.6,197.8z"/>
			<path id="XMLID_216_" class="st3" d="M173.6,192.7c0,11.5-24.9,20.7-55.6,20.7c-30.7,0-55.6-9.3-55.6-20.7
				c0-11.5,24.9-20.8,55.6-20.8C148.7,171.9,173.6,181.2,173.6,192.7z"/>
			<path id="XMLID_215_" class="st3" d="M173.6,187.5c0,11.5-24.9,20.7-55.6,20.7c-30.7,0-55.6-9.3-55.6-20.7
				c0-11.5,24.9-20.8,55.6-20.8C148.7,166.7,173.6,176,173.6,187.5z"/>
			<path id="XMLID_214_" class="st3" d="M173.6,182.3c0,11.5-24.9,20.7-55.6,20.7c-30.7,0-55.6-9.3-55.6-20.7
				c0-11.5,24.9-20.8,55.6-20.8C148.7,161.5,173.6,170.8,173.6,182.3z"/>
			<path id="XMLID_213_" class="st3" d="M173.6,177.1c0,11.5-24.9,20.7-55.6,20.7c-30.7,0-55.6-9.3-55.6-20.7
				c0-11.5,24.9-20.8,55.6-20.8C148.7,156.4,173.6,165.7,173.6,177.1z"/>
			<path id="XMLID_212_" class="st3" d="M173.6,172c0,11.5-24.9,20.7-55.6,20.7c-30.7,0-55.6-9.3-55.6-20.7
				c0-11.5,24.9-20.8,55.6-20.8C148.7,151.2,173.6,160.5,173.6,172z"/>
			<path id="XMLID_211_" class="st3" d="M173.6,166.8c0,11.5-24.9,20.7-55.6,20.7c-30.7,0-55.6-9.3-55.6-20.7
				c0-11.5,24.9-20.8,55.6-20.8C148.7,146,173.6,155.3,173.6,166.8z"/>
			<path id="XMLID_210_" class="st3" d="M173.6,161.6c0,11.5-24.9,20.7-55.6,20.7c-30.7,0-55.6-9.3-55.6-20.7
				c0-11.5,24.9-20.8,55.6-20.8C148.7,140.8,173.6,150.1,173.6,161.6z"/>
			<path id="XMLID_208_" class="st3" d="M173.6,156.4c0,11.5-24.9,20.7-55.6,20.7c-30.7,0-55.6-9.3-55.6-20.7
				c0-11.5,24.9-20.8,55.6-20.8C148.7,135.7,173.6,145,173.6,156.4z"/>
		</g>
		<path id="XMLID_369_" class="st4" d="M118,138.3c-26.4,0-47.7,7.5-47.7,16.9v-25.4c0-9.3,21.4-16.9,47.7-16.9
			c26.4,0,47.7,7.5,47.7,16.9v25.4C165.7,145.9,144.4,138.3,118,138.3z"/>
		<path id="XMLID_368_" class="st2" d="M118,146.3c-26.4,0-47.7-7.5-47.7-16.9v25.4c0,9.3,21.4,16.9,47.7,16.9
			c26.4,0,47.7-7.5,47.7-16.9v-25.4C165.7,138.8,144.4,146.3,118,146.3z"/>
	</g>
	<g id="XMLID_695_">
		<g id="XMLID_398_">
			<ellipse id="XMLID_195_" class="st0" cx="162.2" cy="324.8" rx="25.5" ry="11.2"/>
			<ellipse id="XMLID_207_" class="st0" cx="162.2" cy="321.2" rx="25.5" ry="11.2"/>
			<ellipse id="XMLID_206_" class="st0" cx="162.2" cy="317.5" rx="25.5" ry="11.2"/>
			<ellipse id="XMLID_205_" class="st0" cx="162.2" cy="313.9" rx="25.5" ry="11.2"/>
			<ellipse id="XMLID_204_" class="st0" cx="162.2" cy="310.2" rx="25.5" ry="11.2"/>
			<ellipse id="XMLID_203_" class="st0" cx="162.2" cy="306.6" rx="25.5" ry="11.2"/>
			<ellipse id="XMLID_202_" class="st0" cx="162.2" cy="302.9" rx="25.5" ry="11.2"/>
			<ellipse id="XMLID_201_" class="st0" cx="162.2" cy="299.3" rx="25.5" ry="11.2"/>
			<ellipse id="XMLID_200_" class="st0" cx="162.2" cy="295.6" rx="25.5" ry="11.2"/>
			<ellipse id="XMLID_199_" class="st0" cx="162.2" cy="292" rx="25.5" ry="11.2"/>
			<ellipse id="XMLID_198_" class="st0" cx="162.2" cy="288.3" rx="25.5" ry="11.2"/>
			<ellipse id="XMLID_197_" class="st0" cx="162.2" cy="284.7" rx="25.5" ry="11.2"/>
			<ellipse id="XMLID_196_" class="st0" cx="162.2" cy="281" rx="25.5" ry="11.2"/>
			<ellipse id="XMLID_194_" class="st0" cx="162.2" cy="277.4" rx="25.5" ry="11.2"/>
		</g>
		<g id="XMLID_723_">
			<path id="XMLID_364_" class="st0" d="M162.2,334.9c-12.1,0-21.9-4.1-21.9-9.1v13.7c0,5,9.8,9.1,21.9,9.1
				c12.1,0,21.9-4.1,21.9-9.1v-13.7C184,330.8,174.2,334.9,162.2,334.9z"/>
			<path id="XMLID_361_" class="st0" d="M184,262.9c-0.1-5-9.8-9-21.9-9c-12,0-21.8,4-21.9,9c0,0,0-0.1,0-0.1v0.1v13.6v0.2
				c0,0,0-0.1,0-0.1c0.1,5,9.8,9,21.9,9c12,0,21.8-4,21.9-9c0,0,0,0.1,0,0.1v-0.2L184,262.9L184,262.9
				C184,262.9,184,262.9,184,262.9z M148,269.8c3.8-1.3,8.7-2.2,14.1-2.2c5.4,0,10.3,0.8,14.1,2.2c-3.8,1.3-8.7,2.2-14.1,2.2
				C156.8,271.9,151.8,271.1,148,269.8z"/>
		</g>
		<path id="XMLID_360_" class="st5" d="M162.2,334.9c-12.1,0-21.9-4.1-21.9-9.1v13.7c0,5,9.8,9.1,21.9,9.1c12.1,0,21.9-4.1,21.9-9.1
			v-13.7C184,330.8,174.2,334.9,162.2,334.9z"/>
		<g id="XMLID_701_">
			<g id="XMLID_397_">
				<ellipse id="XMLID_181_" class="st4" cx="162.2" cy="324.8" rx="25.5" ry="11.2"/>
				<ellipse id="XMLID_193_" class="st4" cx="162.2" cy="321.2" rx="25.5" ry="11.2"/>
				<ellipse id="XMLID_192_" class="st4" cx="162.2" cy="317.5" rx="25.5" ry="11.2"/>
				<ellipse id="XMLID_191_" class="st4" cx="162.2" cy="313.9" rx="25.5" ry="11.2"/>
				<ellipse id="XMLID_190_" class="st4" cx="162.2" cy="310.2" rx="25.5" ry="11.2"/>
				<ellipse id="XMLID_189_" class="st4" cx="162.2" cy="306.6" rx="25.5" ry="11.2"/>
				<ellipse id="XMLID_188_" class="st4" cx="162.2" cy="302.9" rx="25.5" ry="11.2"/>
				<ellipse id="XMLID_187_" class="st4" cx="162.2" cy="299.3" rx="25.5" ry="11.2"/>
				<ellipse id="XMLID_186_" class="st4" cx="162.2" cy="295.6" rx="25.5" ry="11.2"/>
				<ellipse id="XMLID_185_" class="st4" cx="162.2" cy="292" rx="25.5" ry="11.2"/>
				<ellipse id="XMLID_184_" class="st4" cx="162.2" cy="288.3" rx="25.5" ry="11.2"/>
				<ellipse id="XMLID_183_" class="st4" cx="162.2" cy="284.7" rx="25.5" ry="11.2"/>
				<ellipse id="XMLID_182_" class="st4" cx="162.2" cy="281" rx="25.5" ry="11.2"/>
				<ellipse id="XMLID_180_" class="st4" cx="162.2" cy="277.4" rx="25.5" ry="11.2"/>
			</g>
		</g>
		<g id="XMLID_698_">
			<ellipse id="XMLID_356_" class="st5" cx="162.2" cy="277.4" rx="25.5" ry="11.2"/>
			<line id="XMLID_355_" class="st6" x1="162.2" y1="277.4" x2="162.2" y2="324.8"/>
		</g>
		<path id="XMLID_354_" class="st7" d="M162.2,267.6c-12.1,0-21.9,4.1-21.9,9.1V263c0-5,9.8-9.1,21.9-9.1c12.1,0,21.9,4.1,21.9,9.1
			v13.7C184,271.7,174.2,267.6,162.2,267.6z"/>
		<path id="XMLID_353_" class="st5" d="M162.2,271.9c-12.1,0-21.9-4.1-21.9-9.1v13.7c0,5,9.8,9.1,21.9,9.1c12.1,0,21.9-4.1,21.9-9.1
			v-13.7C184,267.9,174.2,271.9,162.2,271.9z"/>
	</g>
	<g id="XMLID_622_">
		<g id="XMLID_396_">
			<ellipse id="XMLID_155_" class="st8" cx="100" cy="352.9" rx="18" ry="6.7"/>
			<ellipse id="XMLID_179_" class="st8" cx="100" cy="350.8" rx="18" ry="6.7"/>
			<ellipse id="XMLID_178_" class="st8" cx="100" cy="348.7" rx="18" ry="6.7"/>
			<ellipse id="XMLID_177_" class="st8" cx="100" cy="346.6" rx="18" ry="6.7"/>
			<ellipse id="XMLID_176_" class="st8" cx="100" cy="344.5" rx="18" ry="6.7"/>
			<ellipse id="XMLID_175_" class="st8" cx="100" cy="342.4" rx="18" ry="6.7"/>
			<ellipse id="XMLID_174_" class="st8" cx="100" cy="340.3" rx="18" ry="6.7"/>
			<ellipse id="XMLID_173_" class="st8" cx="100" cy="338.2" rx="18" ry="6.7"/>
			<ellipse id="XMLID_172_" class="st8" cx="100" cy="336.1" rx="18" ry="6.7"/>
			<ellipse id="XMLID_171_" class="st8" cx="100" cy="334" rx="18" ry="6.7"/>
			<ellipse id="XMLID_170_" class="st8" cx="100" cy="331.9" rx="18" ry="6.7"/>
			<ellipse id="XMLID_169_" class="st8" cx="100" cy="329.8" rx="18" ry="6.7"/>
			<ellipse id="XMLID_168_" class="st8" cx="100" cy="327.6" rx="18" ry="6.7"/>
			<ellipse id="XMLID_167_" class="st8" cx="100" cy="325.5" rx="18" ry="6.7"/>
			<ellipse id="XMLID_166_" class="st8" cx="100" cy="323.4" rx="18" ry="6.7"/>
			<ellipse id="XMLID_165_" class="st8" cx="100" cy="321.3" rx="18" ry="6.7"/>
			<ellipse id="XMLID_164_" class="st8" cx="100" cy="319.2" rx="18" ry="6.7"/>
			<ellipse id="XMLID_163_" class="st8" cx="100" cy="317.1" rx="18" ry="6.7"/>
			<ellipse id="XMLID_162_" class="st8" cx="100" cy="315" rx="18" ry="6.7"/>
			<ellipse id="XMLID_161_" class="st8" cx="100" cy="312.9" rx="18" ry="6.7"/>
			<ellipse id="XMLID_160_" class="st8" cx="100" cy="310.8" rx="18" ry="6.7"/>
			<ellipse id="XMLID_159_" class="st8" cx="100" cy="308.7" rx="18" ry="6.7"/>
			<ellipse id="XMLID_158_" class="st8" cx="100" cy="306.6" rx="18" ry="6.7"/>
			<ellipse id="XMLID_157_" class="st8" cx="100" cy="304.5" rx="18" ry="6.7"/>
			<ellipse id="XMLID_156_" class="st8" cx="100" cy="302.4" rx="18" ry="6.7"/>
			<ellipse id="XMLID_154_" class="st8" cx="100" cy="300.2" rx="18" ry="6.7"/>
		</g>
		<g id="XMLID_660_">
			<path id="XMLID_349_" class="st0" d="M100,357.7c-8.5,0-15.5-2.4-15.5-5.5v16.7c0,3,6.9,5.5,15.5,5.5c8.5,0,15.5-2.4,15.5-5.5
				v-16.7C115.5,355.2,108.5,357.7,100,357.7z"/>
			<path id="XMLID_348_" class="st0" d="M115.5,296.8v-16.1v-0.1c0,0,0,0,0,0c-0.1-3-7-5.4-15.5-5.4c-8.5,0-15.4,2.4-15.5,5.4
				c0,0,0,0,0,0v0.1v16.1c-1.6,1-2.5,2.2-2.5,3.4c0,3.7,8.1,6.7,18,6.7c9.9,0,18-3,18-6.7C118,299,117.1,297.8,115.5,296.8z"/>
		</g>
		<path id="XMLID_347_" class="st9" d="M100,357.7c-8.5,0-15.5-2.4-15.5-5.5v16.7c0,3,6.9,5.5,15.5,5.5c8.5,0,15.5-2.4,15.5-5.5
			v-16.7C115.5,355.2,108.5,357.7,100,357.7z"/>
		<g id="XMLID_395_">
			<ellipse id="XMLID_129_" class="st4" cx="100" cy="352.9" rx="18" ry="6.7"/>
			<ellipse id="XMLID_153_" class="st4" cx="100" cy="350.8" rx="18" ry="6.7"/>
			<ellipse id="XMLID_152_" class="st4" cx="100" cy="348.7" rx="18" ry="6.7"/>
			<ellipse id="XMLID_151_" class="st4" cx="100" cy="346.6" rx="18" ry="6.7"/>
			<ellipse id="XMLID_150_" class="st4" cx="100" cy="344.5" rx="18" ry="6.7"/>
			<ellipse id="XMLID_149_" class="st4" cx="100" cy="342.4" rx="18" ry="6.7"/>
			<ellipse id="XMLID_148_" class="st4" cx="100" cy="340.3" rx="18" ry="6.7"/>
			<ellipse id="XMLID_147_" class="st4" cx="100" cy="338.2" rx="18" ry="6.7"/>
			<ellipse id="XMLID_146_" class="st4" cx="100" cy="336.1" rx="18" ry="6.7"/>
			<ellipse id="XMLID_145_" class="st4" cx="100" cy="334" rx="18" ry="6.7"/>
			<ellipse id="XMLID_144_" class="st4" cx="100" cy="331.9" rx="18" ry="6.7"/>
			<ellipse id="XMLID_143_" class="st4" cx="100" cy="329.8" rx="18" ry="6.7"/>
			<ellipse id="XMLID_142_" class="st4" cx="100" cy="327.6" rx="18" ry="6.7"/>
			<ellipse id="XMLID_141_" class="st4" cx="100" cy="325.5" rx="18" ry="6.7"/>
			<ellipse id="XMLID_140_" class="st4" cx="100" cy="323.4" rx="18" ry="6.7"/>
			<ellipse id="XMLID_139_" class="st4" cx="100" cy="321.3" rx="18" ry="6.7"/>
			<ellipse id="XMLID_138_" class="st4" cx="100" cy="319.2" rx="18" ry="6.7"/>
			<ellipse id="XMLID_137_" class="st4" cx="100" cy="317.1" rx="18" ry="6.7"/>
			<ellipse id="XMLID_136_" class="st4" cx="100" cy="315" rx="18" ry="6.7"/>
			<ellipse id="XMLID_135_" class="st4" cx="100" cy="312.9" rx="18" ry="6.7"/>
			<ellipse id="XMLID_134_" class="st4" cx="100" cy="310.8" rx="18" ry="6.7"/>
			<ellipse id="XMLID_133_" class="st4" cx="100" cy="308.7" rx="18" ry="6.7"/>
			<ellipse id="XMLID_132_" class="st4" cx="100" cy="306.6" rx="18" ry="6.7"/>
			<ellipse id="XMLID_131_" class="st4" cx="100" cy="304.5" rx="18" ry="6.7"/>
			<ellipse id="XMLID_130_" class="st4" cx="100" cy="302.4" rx="18" ry="6.7"/>
			<ellipse id="XMLID_128_" class="st4" cx="100" cy="300.2" rx="18" ry="6.7"/>
		</g>
		<ellipse id="XMLID_343_" class="st9" cx="100" cy="300.2" rx="18" ry="6.7"/>
		<line id="XMLID_342_" class="st6" x1="100" y1="300.2" x2="100" y2="352.9"/>
		<path id="XMLID_341_" class="st10" d="M100,292c-8.5,0-15.5,2.4-15.5,5.5v-16.7c0-3,6.9-5.5,15.5-5.5c8.5,0,15.5,2.4,15.5,5.5
			v16.7C115.5,294.4,108.5,292,100,292z"/>
		<path id="XMLID_340_" class="st9" d="M100,286.1c-8.5,0-15.5-2.4-15.5-5.5v16.7c0,3,6.9,5.5,15.5,5.5c8.5,0,15.5-2.4,15.5-5.5
			v-16.7C115.5,283.7,108.5,286.1,100,286.1z"/>
	</g>
	<g id="XMLID_499_">
		<g id="XMLID_394_">
			<path id="XMLID_107_" class="st0" d="M396.2,243.7c0,16.9-37,40.3-82.6,40.3c-45.6,0-82.6-23.4-82.6-40.3
				c0-16.9,37-30.6,82.6-30.6C359.3,213.2,396.2,226.9,396.2,243.7z"/>
			<path id="XMLID_127_" class="st0" d="M396.2,237.8c0,16.9-37,39.8-82.6,39.8c-45.6,0-82.6-22.9-82.6-39.8
				c0-16.9,37-30.6,82.6-30.6C359.3,207.3,396.2,221,396.2,237.8z"/>
			<path id="XMLID_126_" class="st0" d="M396.2,231.9c0,16.9-37,39.4-82.6,39.4c-45.6,0-82.6-22.5-82.6-39.4
				c0-16.9,37-30.6,82.6-30.6C359.3,201.4,396.2,215.1,396.2,231.9z"/>
			<path id="XMLID_125_" class="st0" d="M396.2,226c0,16.9-37,38.9-82.6,38.9c-45.6,0-82.6-22-82.6-38.9c0-16.9,37-30.6,82.6-30.6
				C359.3,195.5,396.2,209.2,396.2,226z"/>
			<path id="XMLID_124_" class="st0" d="M396.2,220.1c0,16.9-37,38.4-82.6,38.4c-45.6,0-82.6-21.6-82.6-38.4
				c0-16.9,37-30.6,82.6-30.6C359.3,189.6,396.2,203.3,396.2,220.1z"/>
			<path id="XMLID_123_" class="st0" d="M396.2,214.2c0,16.9-37,38-82.6,38c-45.6,0-82.6-21.1-82.6-38c0-16.9,37-30.6,82.6-30.6
				C359.3,183.7,396.2,197.3,396.2,214.2z"/>
			<path id="XMLID_122_" class="st0" d="M396.2,208.3c0,16.9-37,37.5-82.6,37.5c-45.6,0-82.6-20.6-82.6-37.5
				c0-16.9,37-30.6,82.6-30.6C359.3,177.8,396.2,191.4,396.2,208.3z"/>
			<path id="XMLID_121_" class="st0" d="M396.2,202.4c0,16.9-37,37.1-82.6,37.1c-45.6,0-82.6-20.2-82.6-37c0-16.9,37-30.6,82.6-30.6
				C359.3,171.9,396.2,185.5,396.2,202.4z"/>
			<path id="XMLID_120_" class="st0" d="M396.2,196.5c0,16.9-37,36.6-82.6,36.6c-45.6,0-82.6-19.7-82.6-36.6
				c0-16.9,37-30.6,82.6-30.6C359.3,166,396.2,179.6,396.2,196.5z"/>
			<path id="XMLID_119_" class="st0" d="M396.2,190.6c0,16.9-37,36.1-82.6,36.1c-45.6,0-82.6-19.2-82.6-36.1
				c0-16.9,37-30.6,82.6-30.6C359.3,160.1,396.2,173.7,396.2,190.6z"/>
			<path id="XMLID_118_" class="st0" d="M396.2,184.7c0,16.9-37,35.7-82.6,35.7c-45.6,0-82.6-18.8-82.6-35.7
				c0-16.9,37-30.6,82.6-30.6C359.3,154.2,396.2,167.8,396.2,184.7z"/>
			<path id="XMLID_117_" class="st0" d="M396.2,178.8c0,16.9-37,35.2-82.6,35.2c-45.6,0-82.6-18.3-82.6-35.2
				c0-16.9,37-30.6,82.6-30.6C359.3,148.3,396.2,161.9,396.2,178.8z"/>
			<path id="XMLID_116_" class="st0" d="M396.2,172.9c0,16.9-37,34.7-82.6,34.7c-45.6,0-82.6-17.9-82.6-34.7
				c0-16.9,37-30.6,82.6-30.6C359.3,142.4,396.2,156,396.2,172.9z"/>
			<path id="XMLID_115_" class="st0" d="M396.2,167c0,16.9-37,34.3-82.6,34.3c-45.6,0-82.6-17.4-82.6-34.3c0-16.9,37-30.6,82.6-30.6
				C359.3,136.5,396.2,150.1,396.2,167z"/>
			<path id="XMLID_114_" class="st0" d="M396.2,161.1c0,16.9-37,33.8-82.6,33.8c-45.6,0-82.6-16.9-82.6-33.8
				c0-16.9,37-30.6,82.6-30.6C359.3,130.6,396.2,144.2,396.2,161.1z"/>
			<path id="XMLID_113_" class="st0" d="M396.2,155.2c0,16.9-37,33.3-82.6,33.3c-45.6,0-82.6-16.5-82.6-33.3
				c0-16.9,37-30.6,82.6-30.6C359.3,124.7,396.2,138.3,396.2,155.2z"/>
			<path id="XMLID_112_" class="st0" d="M396.2,149.3c0,16.9-37,32.9-82.6,32.9c-45.6,0-82.6-16-82.6-32.9c0-16.9,37-30.6,82.6-30.6
				C359.3,118.8,396.2,132.4,396.2,149.3z"/>
			<path id="XMLID_111_" class="st0" d="M396.2,143.4c0,16.9-37,32.4-82.6,32.4c-45.6,0-82.6-15.5-82.6-32.4
				c0-16.9,37-30.6,82.6-30.6C359.3,112.9,396.2,126.5,396.2,143.4z"/>
			<path id="XMLID_110_" class="st0" d="M396.2,137.5c0,16.9-37,32-82.6,32c-45.6,0-82.6-15.1-82.6-32c0-16.9,37-30.6,82.6-30.6
				C359.3,107,396.2,120.6,396.2,137.5z"/>
			<path id="XMLID_109_" class="st0" d="M396.2,131.6c0,16.9-37,31.5-82.6,31.5c-45.6,0-82.6-14.6-82.6-31.5
				c0-16.9,37-30.6,82.6-30.6C359.3,101.1,396.2,114.7,396.2,131.6z"/>
			<path id="XMLID_108_" class="st0" d="M396.2,125.7c0,16.9-37,31-82.6,31c-45.6,0-82.6-14.1-82.6-31c0-16.9,37-30.6,82.6-30.6
				C359.3,95.2,396.2,108.8,396.2,125.7z"/>
			<path id="XMLID_106_" class="st0" d="M396.2,119.8c0,16.9-37,30.6-82.6,30.6c-45.6,0-82.6-13.7-82.6-30.6
				c0-16.9,37-30.6,82.6-30.6C359.3,89.3,396.2,102.9,396.2,119.8z"/>
		</g>
		<g id="XMLID_591_">
			<path id="XMLID_336_" class="st0" d="M315.4,204.2c-67.4,0-122,19.8-122,50.1c0,1.2,0.1,2.3,0.2,3.4c-0.2,1.2-0.2,2.4-0.2,3.6
				c0,31.6,54.6,57.2,122,57.2c67.4,0,122-25.6,122-57.2c0-1.2-0.1-2.4-0.2-3.6c0.2-1.1,0.2-2.3,0.2-3.4
				C437.4,224.1,382.8,204.2,315.4,204.2z"/>
			<path id="XMLID_335_" class="st0" d="M437.4,116.9c0-30.3-54.6-54.8-122-54.8c-67.4,0-122,24.5-122,54.8c0,1.2,0.1,2.3,0.2,3.5
				c-0.2,1.2-0.2,2.4-0.2,3.6c0,31.6,54.6,57.2,122,57.2c67.4,0,122-25.6,122-57.2c0-1.2-0.1-2.4-0.2-3.6
				C437.3,119.2,437.4,118.1,437.4,116.9z"/>
		</g>
		<path id="XMLID_334_" class="st2" d="M437.4,261.4c0,31.6-54.6,57.2-122,57.2c-67.4,0-122-25.6-122-57.2
			c0-31.6,54.6-57.2,122-57.2C382.8,204.2,437.4,229.8,437.4,261.4z"/>
		<path id="XMLID_333_" class="st2" d="M437.4,254.4c0,30.3-54.6,54.8-122,54.8c-67.4,0-122-24.5-122-54.8
			c0-30.3,54.6-50.1,122-50.1C382.8,204.2,437.4,224.1,437.4,254.4z"/>
		<g id="XMLID_393_">
			<path id="XMLID_85_" class="st2" d="M396.2,243.7c0,16.9-37,40.3-82.6,40.3c-45.6,0-82.6-23.4-82.6-40.3
				c0-16.9,37-30.6,82.6-30.6C359.3,213.2,396.2,226.9,396.2,243.7z"/>
			<path id="XMLID_105_" class="st2" d="M396.2,237.8c0,16.9-37,39.8-82.6,39.8c-45.6,0-82.6-22.9-82.6-39.8
				c0-16.9,37-30.6,82.6-30.6C359.3,207.3,396.2,221,396.2,237.8z"/>
			<path id="XMLID_104_" class="st2" d="M396.2,231.9c0,16.9-37,39.4-82.6,39.4c-45.6,0-82.6-22.5-82.6-39.4
				c0-16.9,37-30.6,82.6-30.6C359.3,201.4,396.2,215.1,396.2,231.9z"/>
			<path id="XMLID_103_" class="st2" d="M396.2,226c0,16.9-37,38.9-82.6,38.9c-45.6,0-82.6-22-82.6-38.9c0-16.9,37-30.6,82.6-30.6
				C359.3,195.5,396.2,209.2,396.2,226z"/>
			<path id="XMLID_102_" class="st2" d="M396.2,220.1c0,16.9-37,38.4-82.6,38.4c-45.6,0-82.6-21.6-82.6-38.4
				c0-16.9,37-30.6,82.6-30.6C359.3,189.6,396.2,203.3,396.2,220.1z"/>
			<path id="XMLID_101_" class="st2" d="M396.2,214.2c0,16.9-37,38-82.6,38c-45.6,0-82.6-21.1-82.6-38c0-16.9,37-30.6,82.6-30.6
				C359.3,183.7,396.2,197.3,396.2,214.2z"/>
			<path id="XMLID_100_" class="st2" d="M396.2,208.3c0,16.9-37,37.5-82.6,37.5c-45.6,0-82.6-20.6-82.6-37.5
				c0-16.9,37-30.6,82.6-30.6C359.3,177.8,396.2,191.4,396.2,208.3z"/>
			<path id="XMLID_99_" class="st2" d="M396.2,202.4c0,16.9-37,37.1-82.6,37.1c-45.6,0-82.6-20.2-82.6-37c0-16.9,37-30.6,82.6-30.6
				C359.3,171.9,396.2,185.5,396.2,202.4z"/>
			<path id="XMLID_98_" class="st2" d="M396.2,196.5c0,16.9-37,36.6-82.6,36.6c-45.6,0-82.6-19.7-82.6-36.6
				c0-16.9,37-30.6,82.6-30.6C359.3,166,396.2,179.6,396.2,196.5z"/>
			<path id="XMLID_97_" class="st2" d="M396.2,190.6c0,16.9-37,36.1-82.6,36.1c-45.6,0-82.6-19.2-82.6-36.1
				c0-16.9,37-30.6,82.6-30.6C359.3,160.1,396.2,173.7,396.2,190.6z"/>
			<path id="XMLID_96_" class="st2" d="M396.2,184.7c0,16.9-37,35.7-82.6,35.7c-45.6,0-82.6-18.8-82.6-35.7
				c0-16.9,37-30.6,82.6-30.6C359.3,154.2,396.2,167.8,396.2,184.7z"/>
			<path id="XMLID_95_" class="st2" d="M396.2,178.8c0,16.9-37,35.2-82.6,35.2c-45.6,0-82.6-18.3-82.6-35.2
				c0-16.9,37-30.6,82.6-30.6C359.3,148.3,396.2,161.9,396.2,178.8z"/>
			<path id="XMLID_94_" class="st2" d="M396.2,172.9c0,16.9-37,34.7-82.6,34.7c-45.6,0-82.6-17.9-82.6-34.7
				c0-16.9,37-30.6,82.6-30.6C359.3,142.4,396.2,156,396.2,172.9z"/>
			<path id="XMLID_93_" class="st2" d="M396.2,167c0,16.9-37,34.3-82.6,34.3c-45.6,0-82.6-17.4-82.6-34.3c0-16.9,37-30.6,82.6-30.6
				C359.3,136.5,396.2,150.1,396.2,167z"/>
			<path id="XMLID_92_" class="st2" d="M396.2,161.1c0,16.9-37,33.8-82.6,33.8c-45.6,0-82.6-16.9-82.6-33.8
				c0-16.9,37-30.6,82.6-30.6C359.3,130.6,396.2,144.2,396.2,161.1z"/>
			<path id="XMLID_91_" class="st2" d="M396.2,155.2c0,16.9-37,33.3-82.6,33.3c-45.6,0-82.6-16.5-82.6-33.3
				c0-16.9,37-30.6,82.6-30.6C359.3,124.7,396.2,138.3,396.2,155.2z"/>
			<path id="XMLID_90_" class="st2" d="M396.2,149.3c0,16.9-37,32.9-82.6,32.9c-45.6,0-82.6-16-82.6-32.9c0-16.9,37-30.6,82.6-30.6
				C359.3,118.8,396.2,132.4,396.2,149.3z"/>
			<path id="XMLID_89_" class="st2" d="M396.2,143.4c0,16.9-37,32.4-82.6,32.4c-45.6,0-82.6-15.5-82.6-32.4
				c0-16.9,37-30.6,82.6-30.6C359.3,112.9,396.2,126.5,396.2,143.4z"/>
			<path id="XMLID_88_" class="st2" d="M396.2,137.5c0,16.9-37,32-82.6,32c-45.6,0-82.6-15.1-82.6-32c0-16.9,37-30.6,82.6-30.6
				C359.3,107,396.2,120.6,396.2,137.5z"/>
			<path id="XMLID_87_" class="st2" d="M396.2,131.6c0,16.9-37,31.5-82.6,31.5c-45.6,0-82.6-14.6-82.6-31.5
				c0-16.9,37-30.6,82.6-30.6C359.3,101.1,396.2,114.7,396.2,131.6z"/>
			<path id="XMLID_86_" class="st2" d="M396.2,125.7c0,16.9-37,31-82.6,31c-45.6,0-82.6-14.1-82.6-31c0-16.9,37-30.6,82.6-30.6
				C359.3,95.2,396.2,108.8,396.2,125.7z"/>
			<path id="XMLID_84_" class="st2" d="M396.2,119.8c0,16.9-37,30.6-82.6,30.6c-45.6,0-82.6-13.7-82.6-30.6
				c0-16.9,37-30.6,82.6-30.6C359.3,89.3,396.2,102.9,396.2,119.8z"/>
		</g>
		<ellipse id="XMLID_329_" class="st2" cx="315.4" cy="124" rx="122" ry="57.2"/>
		<ellipse id="XMLID_328_" class="st2" cx="315.4" cy="116.9" rx="122" ry="54.8"/>
		<ellipse id="XMLID_327_" class="st11" cx="315.4" cy="116.9" rx="72.2" ry="32.5"/>
		<ellipse id="XMLID_326_" class="st12" cx="315.4" cy="116.9" rx="56.2" ry="25.3"/>
		<g id="XMLID_554_">
			<ellipse id="XMLID_325_" class="st13" cx="273.4" cy="76.6" rx="6.6" ry="4.9"/>
			<path id="XMLID_324_" class="st12" d="M273.4,76.2c2.6,0,4.8,1.1,5.9,2.7c0.5-0.7,0.7-1.4,0.7-2.2c0-2.7-3-4.9-6.6-4.9
				c-3.7,0-6.6,2.2-6.6,4.9c0,0.8,0.3,1.6,0.7,2.2C268.6,77.3,270.9,76.2,273.4,76.2z"/>
		</g>
		<g id="XMLID_551_">
			<path id="XMLID_323_" class="st13" d="M322,71.7c0,2.7-3,4.9-6.6,4.9c-3.7,0-6.6-2.2-6.6-4.9c0-2.7,3-4.9,6.6-4.9
				C319,66.8,322,69,322,71.7z"/>
			<path id="XMLID_322_" class="st12" d="M315.4,71.3c2.6,0,4.8,1.1,5.9,2.7c0.5-0.7,0.7-1.4,0.7-2.2c0-2.7-3-4.9-6.6-4.9
				c-3.7,0-6.6,2.2-6.6,4.9c0,0.8,0.3,1.6,0.7,2.2C310.6,72.4,312.8,71.3,315.4,71.3z"/>
		</g>
		<g id="XMLID_548_">
			<ellipse id="XMLID_321_" class="st13" cx="239.1" cy="91.7" rx="6.6" ry="4.9"/>
			<path id="XMLID_320_" class="st12" d="M239.1,91.2c2.6,0,4.8,1.1,5.9,2.7c0.5-0.7,0.7-1.4,0.7-2.2c0-2.7-3-4.9-6.6-4.9
				c-3.7,0-6.6,2.2-6.6,4.9c0,0.8,0.3,1.6,0.7,2.2C234.3,92.3,236.5,91.2,239.1,91.2z"/>
		</g>
		<g id="XMLID_545_">
			<ellipse id="XMLID_319_" class="st13" cx="273.4" cy="155.9" rx="6.6" ry="4.9"/>
			<path id="XMLID_318_" class="st12" d="M273.4,155.5c2.6,0,4.8,1.1,5.9,2.7c0.5-0.7,0.7-1.4,0.7-2.2c0-2.7-3-4.9-6.6-4.9
				c-3.7,0-6.6,2.2-6.6,4.9c0,0.8,0.3,1.6,0.7,2.2C268.6,156.6,270.9,155.5,273.4,155.5z"/>
		</g>
		<g id="XMLID_542_">
			<ellipse id="XMLID_317_" class="st13" cx="353" cy="76.6" rx="6.6" ry="4.9"/>
			<path id="XMLID_316_" class="st12" d="M353,76.2c2.6,0,4.8,1.1,5.9,2.7c0.5-0.7,0.7-1.4,0.7-2.2c0-2.7-3-4.9-6.6-4.9
				c-3.7,0-6.6,2.2-6.6,4.9c0,0.8,0.3,1.6,0.7,2.2C348.2,77.3,350.4,76.2,353,76.2z"/>
		</g>
		<g id="XMLID_539_">
			<ellipse id="XMLID_315_" class="st13" cx="353" cy="155.9" rx="6.6" ry="4.9"/>
			<path id="XMLID_314_" class="st12" d="M353,155.5c2.6,0,4.8,1.1,5.9,2.7c0.5-0.7,0.7-1.4,0.7-2.2c0-2.7-3-4.9-6.6-4.9
				c-3.7,0-6.6,2.2-6.6,4.9c0,0.8,0.3,1.6,0.7,2.2C348.2,156.6,350.4,155.5,353,155.5z"/>
		</g>
		<g id="XMLID_536_">
			<path id="XMLID_313_" class="st13" d="M416.6,115.6c0,2.7-3,4.9-6.6,4.9c-3.7,0-6.6-2.2-6.6-4.9c0-2.7,3-4.9,6.6-4.9
				C413.7,110.7,416.6,112.9,416.6,115.6z"/>
			<path id="XMLID_312_" class="st12" d="M410,115.2c2.6,0,4.8,1.1,5.9,2.7c0.5-0.7,0.7-1.4,0.7-2.2c0-2.7-3-4.9-6.6-4.9
				c-3.7,0-6.6,2.2-6.6,4.9c0,0.8,0.3,1.6,0.7,2.2C405.2,116.2,407.4,115.2,410,115.2z"/>
		</g>
		<g id="XMLID_533_">
			<ellipse id="XMLID_311_" class="st13" cx="222" cy="116.9" rx="6.6" ry="4.9"/>
			<path id="XMLID_310_" class="st12" d="M222,116.5c2.6,0,4.8,1.1,5.9,2.7c0.5-0.7,0.7-1.4,0.7-2.2c0-2.7-3-4.9-6.6-4.9
				c-3.7,0-6.6,2.2-6.6,4.9c0,0.8,0.3,1.6,0.7,2.2C217.3,117.6,219.5,116.5,222,116.5z"/>
		</g>
		<g id="XMLID_530_">
			<ellipse id="XMLID_309_" class="st13" cx="239.1" cy="144.4" rx="6.6" ry="4.9"/>
			<path id="XMLID_308_" class="st12" d="M239.1,144c2.6,0,4.8,1.1,5.9,2.7c0.5-0.7,0.7-1.4,0.7-2.2c0-2.7-3-4.9-6.6-4.9
				c-3.7,0-6.6,2.2-6.6,4.9c0,0.8,0.3,1.6,0.7,2.2C234.3,145.1,236.5,144,239.1,144z"/>
		</g>
		<g id="XMLID_527_">
			<path id="XMLID_307_" class="st13" d="M392.3,91.7c0,2.7-3,4.9-6.6,4.9c-3.7,0-6.6-2.2-6.6-4.9c0-2.7,3-4.9,6.6-4.9
				C389.3,86.8,392.3,89,392.3,91.7z"/>
			<path id="XMLID_306_" class="st12" d="M385.6,91.2c2.6,0,4.8,1.1,5.9,2.7c0.5-0.7,0.7-1.4,0.7-2.2c0-2.7-3-4.9-6.6-4.9
				c-3.7,0-6.6,2.2-6.6,4.9c0,0.8,0.3,1.6,0.7,2.2C380.8,92.3,383.1,91.2,385.6,91.2z"/>
		</g>
		<g id="XMLID_524_">
			<path id="XMLID_305_" class="st13" d="M392.3,144.4c0,2.7-3,4.9-6.6,4.9c-3.7,0-6.6-2.2-6.6-4.9c0-2.7,3-4.9,6.6-4.9
				C389.3,139.5,392.3,141.7,392.3,144.4z"/>
			<path id="XMLID_304_" class="st12" d="M385.6,144c2.6,0,4.8,1.1,5.9,2.7c0.5-0.7,0.7-1.4,0.7-2.2c0-2.7-3-4.9-6.6-4.9
				c-3.7,0-6.6,2.2-6.6,4.9c0,0.8,0.3,1.6,0.7,2.2C380.8,145.1,383.1,144,385.6,144z"/>
		</g>
		<g id="XMLID_521_">
			<path id="XMLID_303_" class="st13" d="M322,160.8c0,2.7-3,4.9-6.6,4.9c-3.7,0-6.6-2.2-6.6-4.9c0-2.7,3-4.9,6.6-4.9
				C319,155.9,322,158.1,322,160.8z"/>
			<path id="XMLID_302_" class="st12" d="M315.4,160.4c2.6,0,4.8,1.1,5.9,2.7c0.5-0.7,0.7-1.4,0.7-2.2c0-2.7-3-4.9-6.6-4.9
				c-3.7,0-6.6,2.2-6.6,4.9c0,0.8,0.3,1.6,0.7,2.2C310.6,161.5,312.8,160.4,315.4,160.4z"/>
		</g>
		<g id="XMLID_518_">
			<path id="XMLID_301_" class="st13" d="M278.6,290.7c0,2.7-3,4.9-6.6,4.9c-3.7,0-6.6-2.2-6.6-4.9c0-2.7,3-4.9,6.6-4.9
				C275.7,285.8,278.6,288,278.6,290.7z"/>
			<path id="XMLID_300_" class="st12" d="M272,290.3c2.6,0,4.8,1.1,5.9,2.7c0.5-0.7,0.7-1.4,0.7-2.2c0-2.7-3-4.9-6.6-4.9
				c-3.7,0-6.6,2.2-6.6,4.9c0,0.8,0.3,1.6,0.7,2.2C267.2,291.4,269.4,290.3,272,290.3z"/>
		</g>
		<g id="XMLID_515_">
			<path id="XMLID_299_" class="st13" d="M358.2,290.7c0,2.7-3,4.9-6.6,4.9c-3.7,0-6.6-2.2-6.6-4.9c0-2.7,3-4.9,6.6-4.9
				C355.3,285.8,358.2,288,358.2,290.7z"/>
			<path id="XMLID_298_" class="st12" d="M351.6,290.3c2.6,0,4.8,1.1,5.9,2.7c0.5-0.7,0.7-1.4,0.7-2.2c0-2.7-3-4.9-6.6-4.9
				c-3.7,0-6.6,2.2-6.6,4.9c0,0.8,0.3,1.6,0.7,2.2C346.8,291.4,349,290.3,351.6,290.3z"/>
		</g>
		<g id="XMLID_512_">
			<ellipse id="XMLID_297_" class="st13" cx="408.6" cy="250.4" rx="6.6" ry="4.9"/>
			<path id="XMLID_296_" class="st12" d="M408.6,250c2.6,0,4.8,1.1,5.9,2.7c0.5-0.7,0.7-1.4,0.7-2.2c0-2.7-3-4.9-6.6-4.9
				c-3.7,0-6.6,2.2-6.6,4.9c0,0.8,0.3,1.6,0.7,2.2C403.8,251.1,406,250,408.6,250z"/>
		</g>
		<g id="XMLID_509_">
			<ellipse id="XMLID_295_" class="st13" cx="220.6" cy="251.8" rx="6.6" ry="4.9"/>
			<path id="XMLID_294_" class="st12" d="M220.6,251.3c2.6,0,4.8,1.1,5.9,2.7c0.5-0.7,0.7-1.4,0.7-2.2c0-2.7-3-4.9-6.6-4.9
				c-3.7,0-6.6,2.2-6.6,4.9c0,0.8,0.3,1.6,0.7,2.2C215.8,252.4,218.1,251.3,220.6,251.3z"/>
		</g>
		<g id="XMLID_506_">
			<ellipse id="XMLID_293_" class="st13" cx="237.7" cy="279.2" rx="6.6" ry="4.9"/>
			<path id="XMLID_292_" class="st12" d="M237.7,278.8c2.6,0,4.8,1.1,5.9,2.7c0.5-0.7,0.7-1.4,0.7-2.2c0-2.7-3-4.9-6.6-4.9
				c-3.7,0-6.6,2.2-6.6,4.9c0,0.8,0.3,1.6,0.7,2.2C232.9,279.9,235.1,278.8,237.7,278.8z"/>
		</g>
		<g id="XMLID_503_">
			<ellipse id="XMLID_291_" class="st13" cx="384.2" cy="279.2" rx="6.6" ry="4.9"/>
			<path id="XMLID_290_" class="st12" d="M384.2,278.8c2.6,0,4.8,1.1,5.9,2.7c0.5-0.7,0.7-1.4,0.7-2.2c0-2.7-3-4.9-6.6-4.9
				c-3.7,0-6.6,2.2-6.6,4.9c0,0.8,0.3,1.6,0.7,2.2C379.4,279.9,381.6,278.8,384.2,278.8z"/>
		</g>
		<g id="XMLID_500_">
			<ellipse id="XMLID_289_" class="st13" cx="314" cy="295.6" rx="6.6" ry="4.9"/>
			<path id="XMLID_288_" class="st12" d="M314,295.2c2.6,0,4.8,1.1,5.9,2.7c0.5-0.7,0.7-1.4,0.7-2.2c0-2.7-3-4.9-6.6-4.9
				c-3.7,0-6.6,2.2-6.6,4.9c0,0.8,0.3,1.6,0.7,2.2C309.2,296.3,311.4,295.2,314,295.2z"/>
		</g>
	</g>
	<g id="XMLID_403_">
		<g id="XMLID_392_">
			<ellipse id="XMLID_63_" class="st1" cx="269.4" cy="396.4" rx="38.8" ry="24.3"/>
			<ellipse id="XMLID_83_" class="st1" cx="269.4" cy="391.8" rx="38.8" ry="24.3"/>
			<ellipse id="XMLID_82_" class="st1" cx="269.4" cy="387.1" rx="38.8" ry="24.3"/>
			<ellipse id="XMLID_81_" class="st1" cx="269.4" cy="382.4" rx="38.8" ry="24.3"/>
			<ellipse id="XMLID_80_" class="st1" cx="269.4" cy="377.7" rx="38.8" ry="24.3"/>
			<ellipse id="XMLID_79_" class="st1" cx="269.4" cy="373" rx="38.8" ry="24.3"/>
			<ellipse id="XMLID_78_" class="st1" cx="269.4" cy="368.3" rx="38.8" ry="24.3"/>
			<ellipse id="XMLID_77_" class="st1" cx="269.4" cy="363.6" rx="38.8" ry="24.3"/>
			<ellipse id="XMLID_76_" class="st1" cx="269.4" cy="358.9" rx="38.8" ry="24.3"/>
			<ellipse id="XMLID_75_" class="st1" cx="269.4" cy="354.3" rx="38.8" ry="24.3"/>
			<ellipse id="XMLID_74_" class="st1" cx="269.4" cy="349.6" rx="38.8" ry="24.3"/>
			<ellipse id="XMLID_73_" class="st1" cx="269.4" cy="344.9" rx="38.8" ry="24.3"/>
			<ellipse id="XMLID_72_" class="st1" cx="269.4" cy="340.2" rx="38.8" ry="24.3"/>
			<ellipse id="XMLID_71_" class="st1" cx="269.4" cy="335.5" rx="38.8" ry="24.3"/>
			<path id="XMLID_70_" class="st1" d="M308.2,330.8c0,13.4-17.4,24.3-38.8,24.3c-21.4,0-38.8-10.9-38.8-24.3
				c0-13.4,17.4-24.3,38.8-24.3C290.9,306.5,308.2,317.4,308.2,330.8z"/>
			<path id="XMLID_69_" class="st1" d="M308.2,326.1c0,13.4-17.4,24.3-38.8,24.3c-21.4,0-38.8-10.9-38.8-24.3
				c0-13.4,17.4-24.3,38.8-24.3C290.9,301.9,308.2,312.7,308.2,326.1z"/>
			<path id="XMLID_68_" class="st1" d="M308.2,321.4c0,13.4-17.4,24.3-38.8,24.3c-21.4,0-38.8-10.9-38.8-24.3
				c0-13.4,17.4-24.3,38.8-24.3C290.9,297.2,308.2,308,308.2,321.4z"/>
			<path id="XMLID_67_" class="st1" d="M308.2,316.8c0,13.4-17.4,24.3-38.8,24.3c-21.4,0-38.8-10.9-38.8-24.3
				c0-13.4,17.4-24.3,38.8-24.3C290.9,292.5,308.2,303.4,308.2,316.8z"/>
			<path id="XMLID_66_" class="st1" d="M308.2,312.1c0,13.4-17.4,24.3-38.8,24.3c-21.4,0-38.8-10.9-38.8-24.3
				c0-13.4,17.4-24.3,38.8-24.3C290.9,287.8,308.2,298.7,308.2,312.1z"/>
			<path id="XMLID_65_" class="st1" d="M308.2,307.4c0,13.4-17.4,24.3-38.8,24.3c-21.4,0-38.8-10.9-38.8-24.3
				c0-13.4,17.4-24.3,38.8-24.3C290.9,283.1,308.2,294,308.2,307.4z"/>
			<path id="XMLID_64_" class="st1" d="M308.2,302.7c0,13.4-17.4,24.3-38.8,24.3c-21.4,0-38.8-10.9-38.8-24.3
				c0-13.4,17.4-24.3,38.8-24.3C290.9,278.4,308.2,289.3,308.2,302.7z"/>
			<path id="XMLID_62_" class="st1" d="M308.2,298c0,13.4-17.4,24.3-38.8,24.3c-21.4,0-38.8-10.9-38.8-24.3
				c0-13.4,17.4-24.3,38.8-24.3C290.9,273.7,308.2,284.6,308.2,298z"/>
		</g>
		<g id="XMLID_468_">
			<path id="XMLID_284_" class="st0" d="M269.4,359.8c-36.2,0-65.5,18.4-65.5,41c0,0.9,0.1,1.7,0.1,2.6c-0.1,0.9-0.1,1.8-0.1,2.7
				c0,23.6,29.3,42.8,65.5,42.8c36.2,0,65.5-19.1,65.5-42.8c0-0.9-0.1-1.8-0.1-2.7c0.1-0.9,0.1-1.7,0.1-2.6
				C335,378.2,305.6,359.8,269.4,359.8z"/>
			<path id="XMLID_283_" class="st0" d="M335,298c0-22.6-29.3-41-65.5-41c-36.2,0-65.5,18.4-65.5,41c0,0.9,0.1,1.7,0.1,2.6
				c-0.1,0.9-0.1,1.8-0.1,2.7c0,23.6,29.3,42.8,65.5,42.8c36.2,0,65.5-19.1,65.5-42.8c0-0.9-0.1-1.8-0.1-2.7
				C334.9,299.7,335,298.9,335,298z"/>
		</g>
		<ellipse id="XMLID_282_" class="st2" cx="269.4" cy="406.1" rx="65.5" ry="42.8"/>
		<ellipse id="XMLID_281_" class="st2" cx="269.4" cy="400.8" rx="65.5" ry="41"/>
		<ellipse id="XMLID_280_" class="st13" cx="232.1" cy="381.1" rx="7.1" ry="4.8"/>
		<path id="XMLID_279_" class="st12" d="M232.1,380.7c2.8,0,5.2,1.1,6.4,2.6c0.5-0.7,0.8-1.4,0.8-2.2c0-2.7-3.2-4.8-7.1-4.8
			c-3.9,0-7.1,2.2-7.1,4.8c0,0.8,0.3,1.5,0.8,2.2C226.9,381.8,229.3,380.7,232.1,380.7z"/>
		<ellipse id="XMLID_278_" class="st13" cx="308.2" cy="379.8" rx="7.1" ry="4.8"/>
		<path id="XMLID_277_" class="st12" d="M308.2,379.4c2.8,0,5.2,1.1,6.4,2.6c0.5-0.7,0.8-1.4,0.8-2.2c0-2.7-3.2-4.8-7.1-4.8
			c-3.9,0-7.1,2.2-7.1,4.8c0,0.8,0.3,1.5,0.8,2.2C303.1,380.5,305.5,379.4,308.2,379.4z"/>
		<ellipse id="XMLID_276_" class="st13" cx="218.9" cy="401.3" rx="7.1" ry="4.8"/>
		<path id="XMLID_275_" class="st12" d="M218.9,400.8c2.8,0,5.2,1.1,6.4,2.6c0.5-0.7,0.8-1.4,0.8-2.2c0-2.7-3.2-4.8-7.1-4.8
			c-3.9,0-7.1,2.2-7.1,4.8c0,0.8,0.3,1.5,0.8,2.2C213.7,401.9,216.1,400.8,218.9,400.8z"/>
		<ellipse id="XMLID_274_" class="st13" cx="320.4" cy="401.3" rx="7.1" ry="4.8"/>
		<path id="XMLID_273_" class="st12" d="M320.4,400.8c2.8,0,5.2,1.1,6.4,2.6c0.5-0.7,0.8-1.4,0.8-2.2c0-2.7-3.2-4.8-7.1-4.8
			c-3.9,0-7.1,2.2-7.1,4.8c0,0.8,0.3,1.5,0.8,2.2C315.2,401.9,317.6,400.8,320.4,400.8z"/>
		<ellipse id="XMLID_272_" class="st13" cx="303.7" cy="422.5" rx="7.1" ry="4.8"/>
		<path id="XMLID_271_" class="st12" d="M303.7,422.1c2.8,0,5.2,1.1,6.4,2.6c0.5-0.7,0.8-1.4,0.8-2.2c0-2.7-3.2-4.8-7.1-4.8
			c-3.9,0-7.1,2.2-7.1,4.8c0,0.8,0.3,1.5,0.8,2.2C298.6,423.2,301,422.1,303.7,422.1z"/>
		<ellipse id="XMLID_270_" class="st13" cx="239.3" cy="424.7" rx="7.1" ry="4.8"/>
		<path id="XMLID_269_" class="st12" d="M239.3,424.3c2.8,0,5.2,1.1,6.4,2.6c0.5-0.7,0.8-1.4,0.8-2.2c0-2.7-3.2-4.8-7.1-4.8
			c-3.9,0-7.1,2.2-7.1,4.8c0,0.8,0.3,1.5,0.8,2.2C234.1,425.3,236.5,424.3,239.3,424.3z"/>
		<ellipse id="XMLID_268_" class="st13" cx="271.6" cy="432.2" rx="7.1" ry="4.8"/>
		<path id="XMLID_267_" class="st12" d="M271.6,431.7c2.8,0,5.2,1.1,6.4,2.6c0.5-0.7,0.8-1.4,0.8-2.2c0-2.7-3.2-4.8-7.1-4.8
			c-3.9,0-7.1,2.2-7.1,4.8c0,0.8,0.3,1.5,0.8,2.2C266.4,432.8,268.8,431.7,271.6,431.7z"/>
		<g id="XMLID_391_">
			<ellipse id="XMLID_23_" class="st2" cx="269.4" cy="396.4" rx="38.8" ry="24.3"/>
			<ellipse id="XMLID_61_" class="st2" cx="269.4" cy="391.8" rx="38.8" ry="24.3"/>
			<ellipse id="XMLID_60_" class="st2" cx="269.4" cy="387.1" rx="38.8" ry="24.3"/>
			<ellipse id="XMLID_59_" class="st2" cx="269.4" cy="382.4" rx="38.8" ry="24.3"/>
			<ellipse id="XMLID_58_" class="st2" cx="269.4" cy="377.7" rx="38.8" ry="24.3"/>
			<ellipse id="XMLID_57_" class="st2" cx="269.4" cy="373" rx="38.8" ry="24.3"/>
			<ellipse id="XMLID_56_" class="st2" cx="269.4" cy="368.3" rx="38.8" ry="24.3"/>
			<ellipse id="XMLID_37_" class="st2" cx="269.4" cy="363.6" rx="38.8" ry="24.3"/>
			<ellipse id="XMLID_36_" class="st2" cx="269.4" cy="358.9" rx="38.8" ry="24.3"/>
			<ellipse id="XMLID_35_" class="st2" cx="269.4" cy="354.3" rx="38.8" ry="24.3"/>
			<ellipse id="XMLID_34_" class="st2" cx="269.4" cy="349.6" rx="38.8" ry="24.3"/>
			<ellipse id="XMLID_33_" class="st2" cx="269.4" cy="344.9" rx="38.8" ry="24.3"/>
			<ellipse id="XMLID_32_" class="st2" cx="269.4" cy="340.2" rx="38.8" ry="24.3"/>
			<ellipse id="XMLID_31_" class="st2" cx="269.4" cy="335.5" rx="38.8" ry="24.3"/>
			<path id="XMLID_30_" class="st2" d="M308.2,330.8c0,13.4-17.4,24.3-38.8,24.3c-21.4,0-38.8-10.9-38.8-24.3
				c0-13.4,17.4-24.3,38.8-24.3C290.9,306.5,308.2,317.4,308.2,330.8z"/>
			<path id="XMLID_29_" class="st2" d="M308.2,326.1c0,13.4-17.4,24.3-38.8,24.3c-21.4,0-38.8-10.9-38.8-24.3
				c0-13.4,17.4-24.3,38.8-24.3C290.9,301.9,308.2,312.7,308.2,326.1z"/>
			<path id="XMLID_28_" class="st2" d="M308.2,321.4c0,13.4-17.4,24.3-38.8,24.3c-21.4,0-38.8-10.9-38.8-24.3
				c0-13.4,17.4-24.3,38.8-24.3C290.9,297.2,308.2,308,308.2,321.4z"/>
			<path id="XMLID_27_" class="st2" d="M308.2,316.8c0,13.4-17.4,24.3-38.8,24.3c-21.4,0-38.8-10.9-38.8-24.3
				c0-13.4,17.4-24.3,38.8-24.3C290.9,292.5,308.2,303.4,308.2,316.8z"/>
			<path id="XMLID_26_" class="st2" d="M308.2,312.1c0,13.4-17.4,24.3-38.8,24.3c-21.4,0-38.8-10.9-38.8-24.3
				c0-13.4,17.4-24.3,38.8-24.3C290.9,287.8,308.2,298.7,308.2,312.1z"/>
			<path id="XMLID_25_" class="st2" d="M308.2,307.4c0,13.4-17.4,24.3-38.8,24.3c-21.4,0-38.8-10.9-38.8-24.3
				c0-13.4,17.4-24.3,38.8-24.3C290.9,283.1,308.2,294,308.2,307.4z"/>
			<path id="XMLID_24_" class="st2" d="M308.2,302.7c0,13.4-17.4,24.3-38.8,24.3c-21.4,0-38.8-10.9-38.8-24.3
				c0-13.4,17.4-24.3,38.8-24.3C290.9,278.4,308.2,289.3,308.2,302.7z"/>
			<path id="XMLID_20_" class="st2" d="M308.2,298c0,13.4-17.4,24.3-38.8,24.3c-21.4,0-38.8-10.9-38.8-24.3
				c0-13.4,17.4-24.3,38.8-24.3C290.9,273.7,308.2,284.6,308.2,298z"/>
		</g>
		<ellipse id="XMLID_263_" class="st2" cx="269.4" cy="303.3" rx="65.5" ry="42.8"/>
		<ellipse id="XMLID_262_" class="st2" cx="269.4" cy="298" rx="65.5" ry="41"/>
		<path id="XMLID_261_" class="st11" d="M308.2,298c0,13.4-17.4,24.3-38.8,24.3c-21.4,0-38.8-10.9-38.8-24.3
			c0-13.4,17.4-24.3,38.8-24.3C290.9,273.7,308.2,284.6,308.2,298z"/>
		<ellipse id="XMLID_260_" class="st12" cx="269.4" cy="298" rx="30.2" ry="18.9"/>
		<ellipse id="XMLID_259_" class="st13" cx="231.9" cy="275.8" rx="7.1" ry="4.8"/>
		<path id="XMLID_258_" class="st12" d="M231.9,275.4c2.8,0,5.2,1.1,6.4,2.6c0.5-0.7,0.8-1.4,0.8-2.2c0-2.7-3.2-4.8-7.1-4.8
			c-3.9,0-7.1,2.2-7.1,4.8c0,0.8,0.3,1.5,0.8,2.2C226.7,276.4,229.1,275.4,231.9,275.4z"/>
		<ellipse id="XMLID_257_" class="st13" cx="271.4" cy="265.4" rx="7.1" ry="4.8"/>
		<path id="XMLID_256_" class="st12" d="M271.4,264.9c2.8,0,5.2,1.1,6.4,2.6c0.5-0.7,0.8-1.4,0.8-2.2c0-2.7-3.2-4.8-7.1-4.8
			c-3.9,0-7.1,2.2-7.1,4.8c0,0.8,0.3,1.5,0.8,2.2C266.2,266,268.6,264.9,271.4,264.9z"/>
		<ellipse id="XMLID_255_" class="st13" cx="308" cy="276.2" rx="7.1" ry="4.8"/>
		<path id="XMLID_254_" class="st12" d="M308,275.8c2.8,0,5.2,1.1,6.4,2.6c0.5-0.7,0.8-1.4,0.8-2.2c0-2.7-3.2-4.8-7.1-4.8
			c-3.9,0-7.1,2.2-7.1,4.8c0,0.8,0.3,1.5,0.8,2.2C302.9,276.9,305.3,275.8,308,275.8z"/>
		<ellipse id="XMLID_253_" class="st13" cx="218.7" cy="300.3" rx="7.1" ry="4.8"/>
		<path id="XMLID_252_" class="st12" d="M218.7,299.9c2.8,0,5.2,1.1,6.4,2.6c0.5-0.7,0.8-1.4,0.8-2.2c0-2.7-3.2-4.8-7.1-4.8
			c-3.9,0-7.1,2.2-7.1,4.8c0,0.8,0.3,1.5,0.8,2.2C213.5,300.9,215.9,299.9,218.7,299.9z"/>
		<path id="XMLID_251_" class="st13" d="M327.3,300.3c0,2.7-3.2,4.8-7.1,4.8c-3.9,0-7.1-2.2-7.1-4.8c0-2.7,3.2-4.8,7.1-4.8
			C324.1,295.5,327.3,297.6,327.3,300.3z"/>
		<path id="XMLID_250_" class="st12" d="M320.2,299.9c2.8,0,5.2,1.1,6.4,2.6c0.5-0.7,0.8-1.4,0.8-2.2c0-2.7-3.2-4.8-7.1-4.8
			c-3.9,0-7.1,2.2-7.1,4.8c0,0.8,0.3,1.5,0.8,2.2C315,300.9,317.4,299.9,320.2,299.9z"/>
		<ellipse id="XMLID_249_" class="st13" cx="303.5" cy="321.6" rx="7.1" ry="4.8"/>
		<path id="XMLID_248_" class="st12" d="M303.5,321.1c2.8,0,5.2,1.1,6.4,2.6c0.5-0.7,0.8-1.4,0.8-2.2c0-2.7-3.2-4.8-7.1-4.8
			c-3.9,0-7.1,2.2-7.1,4.8c0,0.8,0.3,1.5,0.8,2.2C298.4,322.2,300.8,321.1,303.5,321.1z"/>
		<ellipse id="XMLID_247_" class="st13" cx="239.1" cy="323.8" rx="7.1" ry="4.8"/>
		<path id="XMLID_246_" class="st12" d="M239.1,323.3c2.8,0,5.2,1.1,6.4,2.6c0.5-0.7,0.8-1.4,0.8-2.2c0-2.7-3.2-4.8-7.1-4.8
			c-3.9,0-7.1,2.2-7.1,4.8c0,0.8,0.3,1.5,0.8,2.2C233.9,324.4,236.3,323.3,239.1,323.3z"/>
		<ellipse id="XMLID_245_" class="st13" cx="271.4" cy="331.2" rx="7.1" ry="4.8"/>
		<path id="XMLID_244_" class="st12" d="M271.4,330.8c2.8,0,5.2,1.1,6.4,2.6c0.5-0.7,0.8-1.4,0.8-2.2c0-2.7-3.2-4.8-7.1-4.8
			c-3.9,0-7.1,2.2-7.1,4.8c0,0.8,0.3,1.5,0.8,2.2C266.2,331.9,268.6,330.8,271.4,330.8z"/>
	</g>
</g>
</svg>
