<?xml version="1.0" encoding="utf-8"?>
<!-- Generator: Adobe Illustrator 19.0.0, SVG Export Plug-In . SVG Version: 6.00 Build 0)  -->
<svg version="1.1" id="Camada_1" xmlns="http://www.w3.org/2000/svg" xmlns:xlink="http://www.w3.org/1999/xlink" x="0px" y="0px"
	 viewBox="0 0 500 500" style="enable-background:new 0 0 500 500;" xml:space="preserve">
<style type="text/css">
	.st0{fill:#1A171B;stroke:#1A171B;stroke-width:7.244;stroke-linejoin:round;stroke-miterlimit:10;}
	.st1{fill:#1A171B;stroke:#1A171B;stroke-width:7.244;stroke-miterlimit:10;}
	.st2{fill:#1A171B;stroke:#1A171B;stroke-width:7.244;stroke-linecap:round;stroke-linejoin:round;stroke-miterlimit:10;}
	.st3{fill:url(#XMLID_97_);stroke:#1A171B;stroke-width:2.4147;stroke-miterlimit:10;}
	.st4{fill:url(#XMLID_99_);stroke:#1A171B;stroke-width:2.4147;stroke-miterlimit:10;}
	.st5{fill:url(#XMLID_100_);stroke:#1A171B;stroke-width:2.4147;stroke-miterlimit:10;}
	.st6{fill:url(#XMLID_101_);stroke:#1A171B;stroke-width:1.2073;stroke-linecap:round;stroke-linejoin:round;stroke-miterlimit:10;}
	.st7{fill:url(#XMLID_102_);stroke:#1A171B;stroke-width:1.2073;stroke-linecap:round;stroke-linejoin:round;stroke-miterlimit:10;}
	.st8{fill:url(#XMLID_103_);stroke:#1A171B;stroke-width:1.2073;stroke-linecap:round;stroke-linejoin:round;stroke-miterlimit:10;}
	.st9{fill:url(#XMLID_104_);stroke:#1A171B;stroke-width:1.2073;stroke-linecap:round;stroke-linejoin:round;stroke-miterlimit:10;}
	
		.st10{fill:url(#XMLID_105_);stroke:#1A171B;stroke-width:1.2073;stroke-linecap:round;stroke-linejoin:round;stroke-miterlimit:10;}
	
		.st11{fill:url(#XMLID_106_);stroke:#1A171B;stroke-width:1.2073;stroke-linecap:round;stroke-linejoin:round;stroke-miterlimit:10;}
	
		.st12{fill:url(#XMLID_107_);stroke:#1A171B;stroke-width:1.2073;stroke-linecap:round;stroke-linejoin:round;stroke-miterlimit:10;}
	
		.st13{fill:url(#XMLID_108_);stroke:#1A171B;stroke-width:1.2073;stroke-linecap:round;stroke-linejoin:round;stroke-miterlimit:10;}
	
		.st14{fill:url(#XMLID_109_);stroke:#1A171B;stroke-width:1.2073;stroke-linecap:round;stroke-linejoin:round;stroke-miterlimit:10;}
	
		.st15{fill:url(#XMLID_110_);stroke:#1A171B;stroke-width:1.2073;stroke-linecap:round;stroke-linejoin:round;stroke-miterlimit:10;}
	
		.st16{fill:url(#XMLID_111_);stroke:#1A171B;stroke-width:1.2073;stroke-linecap:round;stroke-linejoin:round;stroke-miterlimit:10;}
	
		.st17{fill:url(#XMLID_112_);stroke:#1A171B;stroke-width:1.2073;stroke-linecap:round;stroke-linejoin:round;stroke-miterlimit:10;}
	
		.st18{fill:url(#XMLID_113_);stroke:#1A171B;stroke-width:1.2073;stroke-linecap:round;stroke-linejoin:round;stroke-miterlimit:10;}
	
		.st19{fill:url(#XMLID_114_);stroke:#1A171B;stroke-width:1.2073;stroke-linecap:round;stroke-linejoin:round;stroke-miterlimit:10;}
	
		.st20{fill:url(#XMLID_115_);stroke:#1A171B;stroke-width:1.2073;stroke-linecap:round;stroke-linejoin:round;stroke-miterlimit:10;}
	
		.st21{fill:url(#XMLID_116_);stroke:#1A171B;stroke-width:1.2073;stroke-linecap:round;stroke-linejoin:round;stroke-miterlimit:10;}
	
		.st22{fill:url(#XMLID_117_);stroke:#1A171B;stroke-width:1.2073;stroke-linecap:round;stroke-linejoin:round;stroke-miterlimit:10;}
	
		.st23{fill:url(#XMLID_118_);stroke:#1A171B;stroke-width:1.2073;stroke-linecap:round;stroke-linejoin:round;stroke-miterlimit:10;}
	
		.st24{fill:url(#XMLID_119_);stroke:#1A171B;stroke-width:1.2073;stroke-linecap:round;stroke-linejoin:round;stroke-miterlimit:10;}
	
		.st25{fill:url(#XMLID_120_);stroke:#1A171B;stroke-width:1.2073;stroke-linecap:round;stroke-linejoin:round;stroke-miterlimit:10;}
	.st26{fill:#3D3D3F;stroke:#1A171B;stroke-width:2.4147;stroke-miterlimit:10;}
	.st27{fill:url(#XMLID_121_);stroke:#1A171B;stroke-width:2.4147;stroke-miterlimit:10;}
	.st28{fill:url(#XMLID_122_);stroke:#1A171B;stroke-width:2.4147;stroke-linejoin:round;stroke-miterlimit:10;}
</style>
<path id="XMLID_95_" class="st0" d="M146.3,216.1v0.4c6.6,2.6,11.7,20.1,11.7,41.3c0,21.2-5.1,38.6-11.7,41.3v0.4h27.1v-83.3H146.3z
	"/>
<polygon id="XMLID_94_" class="st1" points="460.8,268.5 459.2,268.5 459.2,240.9 460.8,240.9 479.7,253.2 "/>
<path id="XMLID_93_" class="st1" d="M93.7,257.2c0,22.7-18,41.1-40.2,41.1c-22.2,0-40.2-18.4-40.2-41.1c0-22.7,18-41.1,40.2-41.1
	C75.7,216.1,93.7,234.5,93.7,257.2z"/>
<rect id="XMLID_92_" x="165.2" y="241.1" class="st1" width="288.9" height="27.5"/>
<path id="XMLID_91_" class="st2" d="M193.1,253.4c-1.2-9.9-5.2-17.1-9-17.2c-1.2,0-3,1.6-2.5,3.6c2.9,2.3,5.4,7,6.4,14.6
	c1,7.4-0.8,12.1-2.9,15.2c-0.3,1.5,2.1,4.1,3.3,3.6C192.2,271.8,194.3,263.4,193.1,253.4z"/>
<path id="XMLID_90_" class="st2" d="M209.5,252.9c-1.2-9.9-5.2-17.1-9-17.2c-1.2,0-3,1.6-2.5,3.6c2.9,2.3,5.4,7,6.4,14.6
	c1,7.4-0.8,12.1-2.9,15.2c-0.3,1.5,2.1,4.1,3.3,3.6C208.5,271.2,210.6,262.8,209.5,252.9z"/>
<path id="XMLID_89_" class="st2" d="M223.4,252.9c-1.2-9.9-5.2-17.1-9-17.2c-1.2,0-3,1.6-2.5,3.6c2.9,2.3,5.4,7,6.4,14.6
	c1,7.4-0.8,12.1-2.9,15.2c-0.3,1.5,2.1,4.1,3.3,3.6C222.5,271.2,224.6,262.8,223.4,252.9z"/>
<path id="XMLID_88_" class="st2" d="M237.6,252.9c-1.2-9.9-5.2-17.1-9-17.2c-1.2,0-3,1.6-2.5,3.6c2.9,2.3,5.4,7,6.4,14.6
	c1,7.4-0.8,12.1-2.9,15.2c-0.3,1.5,2.1,4.1,3.3,3.6C236.6,271.2,238.7,262.8,237.6,252.9z"/>
<path id="XMLID_87_" class="st2" d="M250.4,252.9c-1.2-9.9-5.2-17.1-9-17.2c-1.2,0-3,1.6-2.5,3.6c2.9,2.3,5.4,7,6.4,14.6
	c1,7.4-0.8,12.1-2.9,15.2c-0.3,1.5,2.1,4.1,3.3,3.6C249.5,271.2,251.6,262.8,250.4,252.9z"/>
<path id="XMLID_86_" class="st2" d="M264.4,252.9c-1.2-9.9-5.2-17.1-9-17.2c-1.2,0-3,1.6-2.5,3.6c2.9,2.3,5.4,7,6.4,14.6
	c1,7.4-0.8,12.1-2.9,15.2c-0.3,1.5,2.1,4.1,3.3,3.6C263.5,271.2,265.6,262.8,264.4,252.9z"/>
<path id="XMLID_85_" class="st2" d="M277.2,252.9c-1.2-9.9-5.2-17.1-9-17.2c-1.2,0-3,1.6-2.5,3.6c2.9,2.3,5.4,7,6.4,14.6
	c1,7.4-0.8,12.1-2.9,15.2c-0.3,1.5,2.1,4.1,3.3,3.6C276.3,271.2,278.3,262.8,277.2,252.9z"/>
<path id="XMLID_84_" class="st2" d="M291.3,252.9c-1.2-9.9-5.2-17.1-9-17.2c-1.2,0-3,1.6-2.5,3.6c2.9,2.3,5.4,7,6.4,14.6
	c1,7.4-0.8,12.1-2.9,15.2c-0.3,1.5,2.1,4.1,3.3,3.6C290.4,271.2,292.5,262.8,291.3,252.9z"/>
<path id="XMLID_83_" class="st2" d="M304.7,252.9c-1.2-9.9-5.2-17.1-9-17.2c-1.2,0-3,1.6-2.5,3.6c2.9,2.3,5.4,7,6.4,14.6
	c1,7.4-0.8,12.1-2.9,15.2c-0.3,1.5,2.1,4.1,3.3,3.6C303.8,271.2,305.9,262.8,304.7,252.9z"/>
<path id="XMLID_82_" class="st2" d="M318.9,252.9c-1.2-9.9-5.2-17.1-9-17.2c-1.2,0-3,1.6-2.5,3.6c2.9,2.3,5.4,7,6.4,14.6
	c1,7.4-0.8,12.1-2.9,15.2c-0.3,1.5,2.1,4.1,3.3,3.6C318,271.2,320.1,262.8,318.9,252.9z"/>
<path id="XMLID_81_" class="st2" d="M333.4,252.9c-1.2-9.9-5.2-17.1-9-17.2c-1.2,0-3,1.6-2.5,3.6c2.9,2.3,5.4,7,6.4,14.6
	c1,7.4-0.8,12.1-2.9,15.2c-0.3,1.5,2.1,4.1,3.3,3.6C332.5,271.2,334.6,262.8,333.4,252.9z"/>
<path id="XMLID_80_" class="st2" d="M347.8,252.9c-1.2-9.9-5.2-17.1-9-17.2c-1.2,0-3,1.6-2.5,3.6c2.9,2.3,5.4,7,6.4,14.6
	c1,7.4-0.8,12.1-2.9,15.2c-0.3,1.5,2.1,4.1,3.3,3.6C346.9,271.2,349,262.8,347.8,252.9z"/>
<path id="XMLID_79_" class="st2" d="M362.3,252.9c-1.2-9.9-5.2-17.1-9-17.2c-1.2,0-3,1.6-2.5,3.6c2.9,2.3,5.4,7,6.4,14.6
	c1,7.4-0.8,12.1-2.9,15.2c-0.3,1.5,2.1,4.1,3.3,3.6C361.4,271.2,363.5,262.8,362.3,252.9z"/>
<path id="XMLID_78_" class="st2" d="M378.8,252.9c-1.2-9.9-5.2-17.1-9-17.2c-1.2,0-3,1.6-2.5,3.6c2.9,2.3,5.4,7,6.4,14.6
	c1,7.4-0.8,12.1-2.9,15.2c-0.3,1.5,2.1,4.1,3.3,3.6C377.9,271.2,380,262.8,378.8,252.9z"/>
<path id="XMLID_77_" class="st2" d="M391.9,252.9c-1.2-9.9-5.2-17.1-9-17.2c-1.2,0-3,1.6-2.5,3.6c2.9,2.3,5.4,7,6.4,14.6
	c1,7.4-0.8,12.1-2.9,15.2c-0.3,1.5,2.1,4.1,3.3,3.6C391,271.2,393.1,262.8,391.9,252.9z"/>
<path id="XMLID_76_" class="st2" d="M405.9,252.9c-1.2-9.9-5.2-17.1-9-17.2c-1.2,0-3,1.6-2.5,3.6c2.9,2.3,5.4,7,6.4,14.6
	c1,7.4-0.8,12.1-2.9,15.2c-0.3,1.5,2.1,4.1,3.3,3.6C405,271.2,407.1,262.8,405.9,252.9z"/>
<path id="XMLID_75_" class="st2" d="M420.8,252.9c-1.2-9.9-5.2-17.1-9-17.2c-1.2,0-3,1.6-2.5,3.6c2.9,2.3,5.4,7,6.4,14.6
	c1,7.4-0.8,12.1-2.9,15.2c-0.3,1.5,2.1,4.1,3.3,3.6C419.9,271.2,422,262.8,420.8,252.9z"/>
<path id="XMLID_74_" class="st2" d="M435.2,252.9c-1.2-9.9-5.2-17.1-9-17.2c-1.2,0-3,1.6-2.5,3.6c2.9,2.3,5.4,7,6.4,14.6
	c1,7.4-0.8,12.1-2.9,15.2c-0.3,1.5,2.1,4.1,3.3,3.6C434.3,271.2,436.3,262.8,435.2,252.9z"/>
<path id="XMLID_73_" class="st2" d="M449.1,253.4c-1.2-9.9-5.2-17.1-9-17.2c-1.2,0-3,1.6-2.5,3.6c2.9,2.3,5.4,7,6.4,14.6
	c1,7.4-0.8,12.1-2.9,15.2c-0.3,1.5,2.1,4.1,3.3,3.6C448.2,271.7,450.3,263.3,449.1,253.4z"/>
<path id="XMLID_72_" class="st2" d="M458.8,249.9c-1-7.4-3.6-13.2-6.5-13.3c-1,0-2.3,1.2-2,2.7c2.2,1.7,4.4,4.1,5.2,9.8
	c0.8,5.5,0.4,9-1.2,11.4C454,263.8,459.7,256.5,458.8,249.9z"/>
<polygon id="XMLID_71_" class="st1" points="72.8,251.4 59.5,251.4 59.5,236 50.4,236 50.4,251.4 34.2,251.4 34.2,260.3 50.4,260.3 
	50.4,273.7 59.5,273.7 59.5,260.3 72.8,260.3 "/>
<ellipse id="XMLID_70_" class="st1" cx="145.1" cy="257.7" rx="10.6" ry="41.6"/>
<g id="XMLID_126_">
	
		<rect id="XMLID_69_" x="138.3" y="251.1" transform="matrix(-2.406973e-003 1 -1 -2.406973e-003 396.0326 117.2609)" class="st1" width="2.4" height="10.1"/>
	
		<rect id="XMLID_68_" x="138.2" y="251.3" transform="matrix(0.9996 2.985417e-002 -2.985417e-002 0.9996 7.7416 -4.0471)" class="st1" width="2.4" height="11.9"/>
</g>
<radialGradient id="XMLID_97_" cx="53.4841" cy="257.2318" r="40.6504" gradientUnits="userSpaceOnUse">
	<stop  offset="0.2485" style="stop-color:#C5C6C8"/>
	<stop  offset="0.8424" style="stop-color:#6F7072"/>
</radialGradient>
<path id="XMLID_67_" class="st3" d="M93.7,257.2c0,22.7-18,41.1-40.2,41.1c-22.2,0-40.2-18.4-40.2-41.1c0-22.7,18-41.1,40.2-41.1
	C75.7,216.1,93.7,234.5,93.7,257.2z"/>
<linearGradient id="XMLID_99_" gradientUnits="userSpaceOnUse" x1="310.5431" y1="225.1681" x2="310.5431" y2="278.8943">
	<stop  offset="8.484850e-002" style="stop-color:#3D3D3F"/>
	<stop  offset="0.3515" style="stop-color:#6F7072"/>
	<stop  offset="0.497" style="stop-color:#ECECED"/>
	<stop  offset="0.6485" style="stop-color:#3D3D3F"/>
	<stop  offset="0.9333" style="stop-color:#6F7072"/>
</linearGradient>
<rect id="XMLID_66_" x="165.2" y="241.1" class="st4" width="290.6" height="27.5"/>
<linearGradient id="XMLID_100_" gradientUnits="userSpaceOnUse" x1="468.959" y1="233.2144" x2="470.131" y2="272.1833">
	<stop  offset="8.484850e-002" style="stop-color:#3D3D3F"/>
	<stop  offset="0.3515" style="stop-color:#6F7072"/>
	<stop  offset="0.497" style="stop-color:#ECECED"/>
	<stop  offset="0.6485" style="stop-color:#3D3D3F"/>
	<stop  offset="0.9333" style="stop-color:#6F7072"/>
</linearGradient>
<polygon id="XMLID_65_" class="st5" points="460.3,268 458.6,268 458.6,240.6 460.3,240.7 481,252.8 "/>
<linearGradient id="XMLID_101_" gradientUnits="userSpaceOnUse" x1="181.5758" y1="254.842" x2="193.4661" y2="254.842">
	<stop  offset="0.1394" style="stop-color:#9B9C9E"/>
	<stop  offset="0.503" style="stop-color:#D8D9DA"/>
	<stop  offset="0.9333" style="stop-color:#9B9C9E"/>
</linearGradient>
<path id="XMLID_64_" class="st6" d="M193.1,253.4c-1.2-9.9-5.2-17.1-9-17.2c-1.2,0-3,1.6-2.5,3.6c2.9,2.3,5.4,7,6.4,14.6
	c1,7.4-0.8,12.1-2.9,15.2c-0.3,1.5,2.1,4.1,3.3,3.6C192.2,271.8,194.3,263.4,193.1,253.4z"/>
<linearGradient id="XMLID_102_" gradientUnits="userSpaceOnUse" x1="197.8985" y1="254.2832" x2="209.7885" y2="254.2832">
	<stop  offset="0.1394" style="stop-color:#9B9C9E"/>
	<stop  offset="0.503" style="stop-color:#D8D9DA"/>
	<stop  offset="0.9333" style="stop-color:#9B9C9E"/>
</linearGradient>
<path id="XMLID_63_" class="st7" d="M209.5,252.9c-1.2-9.9-5.2-17.1-9-17.2c-1.2,0-3,1.6-2.5,3.6c2.9,2.3,5.4,7,6.4,14.6
	c1,7.4-0.8,12.1-2.9,15.2c-0.3,1.5,2.1,4.1,3.3,3.6C208.5,271.2,210.6,262.8,209.5,252.9z"/>
<linearGradient id="XMLID_103_" gradientUnits="userSpaceOnUse" x1="211.8842" y1="254.2832" x2="223.7743" y2="254.2832">
	<stop  offset="0.1394" style="stop-color:#9B9C9E"/>
	<stop  offset="0.503" style="stop-color:#D8D9DA"/>
	<stop  offset="0.9333" style="stop-color:#9B9C9E"/>
</linearGradient>
<path id="XMLID_62_" class="st8" d="M223.4,252.9c-1.2-9.9-5.2-17.1-9-17.2c-1.2,0-3,1.6-2.5,3.6c2.9,2.3,5.4,7,6.4,14.6
	c1,7.4-0.8,12.1-2.9,15.2c-0.3,1.5,2.1,4.1,3.3,3.6C222.5,271.2,224.6,262.8,223.4,252.9z"/>
<linearGradient id="XMLID_104_" gradientUnits="userSpaceOnUse" x1="225.9926" y1="254.2832" x2="237.8827" y2="254.2832">
	<stop  offset="0.1394" style="stop-color:#9B9C9E"/>
	<stop  offset="0.503" style="stop-color:#D8D9DA"/>
	<stop  offset="0.9333" style="stop-color:#9B9C9E"/>
</linearGradient>
<path id="XMLID_61_" class="st9" d="M237.6,252.9c-1.2-9.9-5.2-17.1-9-17.2c-1.2,0-3,1.6-2.5,3.6c2.9,2.3,5.4,7,6.4,14.6
	c1,7.4-0.8,12.1-2.9,15.2c-0.3,1.5,2.1,4.1,3.3,3.6C236.6,271.2,238.7,262.8,237.6,252.9z"/>
<linearGradient id="XMLID_105_" gradientUnits="userSpaceOnUse" x1="238.8406" y1="254.2832" x2="250.7318" y2="254.2832">
	<stop  offset="0.1394" style="stop-color:#9B9C9E"/>
	<stop  offset="0.503" style="stop-color:#D8D9DA"/>
	<stop  offset="0.9333" style="stop-color:#9B9C9E"/>
</linearGradient>
<path id="XMLID_60_" class="st10" d="M250.4,252.9c-1.2-9.9-5.2-17.1-9-17.2c-1.2,0-3,1.6-2.5,3.6c2.9,2.3,5.4,7,6.4,14.6
	c1,7.4-0.8,12.1-2.9,15.2c-0.3,1.5,2.1,4.1,3.3,3.6C249.5,271.2,251.6,262.8,250.4,252.9z"/>
<linearGradient id="XMLID_106_" gradientUnits="userSpaceOnUse" x1="252.8258" y1="254.2832" x2="264.7151" y2="254.2832">
	<stop  offset="0.1394" style="stop-color:#9B9C9E"/>
	<stop  offset="0.503" style="stop-color:#D8D9DA"/>
	<stop  offset="0.9333" style="stop-color:#9B9C9E"/>
</linearGradient>
<path id="XMLID_59_" class="st11" d="M264.4,252.9c-1.2-9.9-5.2-17.1-9-17.2c-1.2,0-3,1.6-2.5,3.6c2.9,2.3,5.4,7,6.4,14.6
	c1,7.4-0.8,12.1-2.9,15.2c-0.3,1.5,2.1,4.1,3.3,3.6C263.5,271.2,265.6,262.8,264.4,252.9z"/>
<linearGradient id="XMLID_107_" gradientUnits="userSpaceOnUse" x1="265.6027" y1="254.2832" x2="277.4936" y2="254.2832">
	<stop  offset="0.1394" style="stop-color:#9B9C9E"/>
	<stop  offset="0.503" style="stop-color:#D8D9DA"/>
	<stop  offset="0.9333" style="stop-color:#9B9C9E"/>
</linearGradient>
<path id="XMLID_58_" class="st12" d="M277.2,252.9c-1.2-9.9-5.2-17.1-9-17.2c-1.2,0-3,1.6-2.5,3.6c2.9,2.3,5.4,7,6.4,14.6
	c1,7.4-0.8,12.1-2.9,15.2c-0.3,1.5,2.1,4.1,3.3,3.6C276.3,271.2,278.3,262.8,277.2,252.9z"/>
<linearGradient id="XMLID_108_" gradientUnits="userSpaceOnUse" x1="279.7889" y1="254.2832" x2="291.6797" y2="254.2832">
	<stop  offset="0.1394" style="stop-color:#9B9C9E"/>
	<stop  offset="0.503" style="stop-color:#D8D9DA"/>
	<stop  offset="0.9333" style="stop-color:#9B9C9E"/>
</linearGradient>
<path id="XMLID_57_" class="st13" d="M291.3,252.9c-1.2-9.9-5.2-17.1-9-17.2c-1.2,0-3,1.6-2.5,3.6c2.9,2.3,5.4,7,6.4,14.6
	c1,7.4-0.8,12.1-2.9,15.2c-0.3,1.5,2.1,4.1,3.3,3.6C290.4,271.2,292.5,262.8,291.3,252.9z"/>
<linearGradient id="XMLID_109_" gradientUnits="userSpaceOnUse" x1="293.171" y1="254.2832" x2="305.0618" y2="254.2832">
	<stop  offset="0.1394" style="stop-color:#9B9C9E"/>
	<stop  offset="0.503" style="stop-color:#D8D9DA"/>
	<stop  offset="0.9333" style="stop-color:#9B9C9E"/>
</linearGradient>
<path id="XMLID_56_" class="st14" d="M304.7,252.9c-1.2-9.9-5.2-17.1-9-17.2c-1.2,0-3,1.6-2.5,3.6c2.9,2.3,5.4,7,6.4,14.6
	c1,7.4-0.8,12.1-2.9,15.2c-0.3,1.5,2.1,4.1,3.3,3.6C303.8,271.2,305.9,262.8,304.7,252.9z"/>
<linearGradient id="XMLID_110_" gradientUnits="userSpaceOnUse" x1="307.3571" y1="254.2832" x2="319.248" y2="254.2832">
	<stop  offset="0.1394" style="stop-color:#9B9C9E"/>
	<stop  offset="0.503" style="stop-color:#D8D9DA"/>
	<stop  offset="0.9333" style="stop-color:#9B9C9E"/>
</linearGradient>
<path id="XMLID_37_" class="st15" d="M318.9,252.9c-1.2-9.9-5.2-17.1-9-17.2c-1.2,0-3,1.6-2.5,3.6c2.9,2.3,5.4,7,6.4,14.6
	c1,7.4-0.8,12.1-2.9,15.2c-0.3,1.5,2.1,4.1,3.3,3.6C318,271.2,320.1,262.8,318.9,252.9z"/>
<linearGradient id="XMLID_111_" gradientUnits="userSpaceOnUse" x1="321.8452" y1="254.2832" x2="333.736" y2="254.2832">
	<stop  offset="0.1394" style="stop-color:#9B9C9E"/>
	<stop  offset="0.503" style="stop-color:#D8D9DA"/>
	<stop  offset="0.9333" style="stop-color:#9B9C9E"/>
</linearGradient>
<path id="XMLID_36_" class="st16" d="M333.4,252.9c-1.2-9.9-5.2-17.1-9-17.2c-1.2,0-3,1.6-2.5,3.6c2.9,2.3,5.4,7,6.4,14.6
	c1,7.4-0.8,12.1-2.9,15.2c-0.3,1.5,2.1,4.1,3.3,3.6C332.5,271.2,334.6,262.8,333.4,252.9z"/>
<linearGradient id="XMLID_112_" gradientUnits="userSpaceOnUse" x1="336.2318" y1="254.2832" x2="348.1226" y2="254.2832">
	<stop  offset="0.1394" style="stop-color:#9B9C9E"/>
	<stop  offset="0.503" style="stop-color:#D8D9DA"/>
	<stop  offset="0.9333" style="stop-color:#9B9C9E"/>
</linearGradient>
<path id="XMLID_35_" class="st17" d="M347.8,252.9c-1.2-9.9-5.2-17.1-9-17.2c-1.2,0-3,1.6-2.5,3.6c2.9,2.3,5.4,7,6.4,14.6
	c1,7.4-0.8,12.1-2.9,15.2c-0.3,1.5,2.1,4.1,3.3,3.6C346.9,271.2,349,262.8,347.8,252.9z"/>
<linearGradient id="XMLID_113_" gradientUnits="userSpaceOnUse" x1="350.7575" y1="254.2832" x2="362.6483" y2="254.2832">
	<stop  offset="0.1394" style="stop-color:#9B9C9E"/>
	<stop  offset="0.503" style="stop-color:#D8D9DA"/>
	<stop  offset="0.9333" style="stop-color:#9B9C9E"/>
</linearGradient>
<path id="XMLID_34_" class="st18" d="M362.3,252.9c-1.2-9.9-5.2-17.1-9-17.2c-1.2,0-3,1.6-2.5,3.6c2.9,2.3,5.4,7,6.4,14.6
	c1,7.4-0.8,12.1-2.9,15.2c-0.3,1.5,2.1,4.1,3.3,3.6C361.4,271.2,363.5,262.8,362.3,252.9z"/>
<linearGradient id="XMLID_114_" gradientUnits="userSpaceOnUse" x1="367.2593" y1="254.2832" x2="379.1501" y2="254.2832">
	<stop  offset="0.1394" style="stop-color:#9B9C9E"/>
	<stop  offset="0.503" style="stop-color:#D8D9DA"/>
	<stop  offset="0.9333" style="stop-color:#9B9C9E"/>
</linearGradient>
<path id="XMLID_33_" class="st19" d="M378.8,252.9c-1.2-9.9-5.2-17.1-9-17.2c-1.2,0-3,1.6-2.5,3.6c2.9,2.3,5.4,7,6.4,14.6
	c1,7.4-0.8,12.1-2.9,15.2c-0.3,1.5,2.1,4.1,3.3,3.6C377.9,271.2,380,262.8,378.8,252.9z"/>
<linearGradient id="XMLID_115_" gradientUnits="userSpaceOnUse" x1="380.3372" y1="254.2832" x2="392.2279" y2="254.2832">
	<stop  offset="0.1394" style="stop-color:#9B9C9E"/>
	<stop  offset="0.503" style="stop-color:#D8D9DA"/>
	<stop  offset="0.9333" style="stop-color:#9B9C9E"/>
</linearGradient>
<path id="XMLID_32_" class="st20" d="M391.9,252.9c-1.2-9.9-5.2-17.1-9-17.2c-1.2,0-3,1.6-2.5,3.6c2.9,2.3,5.4,7,6.4,14.6
	c1,7.4-0.8,12.1-2.9,15.2c-0.3,1.5,2.1,4.1,3.3,3.6C391,271.2,393.1,262.8,391.9,252.9z"/>
<linearGradient id="XMLID_116_" gradientUnits="userSpaceOnUse" x1="394.3229" y1="254.2832" x2="406.2137" y2="254.2832">
	<stop  offset="0.1394" style="stop-color:#9B9C9E"/>
	<stop  offset="0.503" style="stop-color:#D8D9DA"/>
	<stop  offset="0.9333" style="stop-color:#9B9C9E"/>
</linearGradient>
<path id="XMLID_31_" class="st21" d="M405.9,252.9c-1.2-9.9-5.2-17.1-9-17.2c-1.2,0-3,1.6-2.5,3.6c2.9,2.3,5.4,7,6.4,14.6
	c1,7.4-0.8,12.1-2.9,15.2c-0.3,1.5,2.1,4.1,3.3,3.6C405,271.2,407.1,262.8,405.9,252.9z"/>
<linearGradient id="XMLID_117_" gradientUnits="userSpaceOnUse" x1="409.2142" y1="254.2832" x2="421.1049" y2="254.2832">
	<stop  offset="0.1394" style="stop-color:#9B9C9E"/>
	<stop  offset="0.503" style="stop-color:#D8D9DA"/>
	<stop  offset="0.9333" style="stop-color:#9B9C9E"/>
</linearGradient>
<path id="XMLID_30_" class="st22" d="M420.8,252.9c-1.2-9.9-5.2-17.1-9-17.2c-1.2,0-3,1.6-2.5,3.6c2.9,2.3,5.4,7,6.4,14.6
	c1,7.4-0.8,12.1-2.9,15.2c-0.3,1.5,2.1,4.1,3.3,3.6C419.9,271.2,422,262.8,420.8,252.9z"/>
<linearGradient id="XMLID_118_" gradientUnits="userSpaceOnUse" x1="423.6007" y1="254.2832" x2="435.4915" y2="254.2832">
	<stop  offset="0.1394" style="stop-color:#9B9C9E"/>
	<stop  offset="0.503" style="stop-color:#D8D9DA"/>
	<stop  offset="0.9333" style="stop-color:#9B9C9E"/>
</linearGradient>
<path id="XMLID_29_" class="st23" d="M435.2,252.9c-1.2-9.9-5.2-17.1-9-17.2c-1.2,0-3,1.6-2.5,3.6c2.9,2.3,5.4,7,6.4,14.6
	c1,7.4-0.8,12.1-2.9,15.2c-0.3,1.5,2.1,4.1,3.3,3.6C434.3,271.2,436.3,262.8,435.2,252.9z"/>
<linearGradient id="XMLID_119_" gradientUnits="userSpaceOnUse" x1="437.5865" y1="254.8067" x2="449.4773" y2="254.8067">
	<stop  offset="0.1394" style="stop-color:#9B9C9E"/>
	<stop  offset="0.503" style="stop-color:#D8D9DA"/>
	<stop  offset="0.9333" style="stop-color:#9B9C9E"/>
</linearGradient>
<path id="XMLID_28_" class="st24" d="M449.1,253.4c-1.2-9.9-5.2-17.1-9-17.2c-1.2,0-3,1.6-2.5,3.6c2.9,2.3,5.4,7,6.4,14.6
	c1,7.4-0.8,12.1-2.9,15.2c-0.3,1.5,2.1,4.1,3.3,3.6C448.2,271.7,450.3,263.3,449.1,253.4z"/>
<linearGradient id="XMLID_120_" gradientUnits="userSpaceOnUse" x1="450.2632" y1="248.9842" x2="458.8981" y2="248.9842">
	<stop  offset="0.1394" style="stop-color:#9B9C9E"/>
	<stop  offset="0.503" style="stop-color:#D8D9DA"/>
	<stop  offset="0.9333" style="stop-color:#9B9C9E"/>
</linearGradient>
<path id="XMLID_27_" class="st25" d="M458.8,249.9c-1-7.4-3.6-13.2-6.5-13.3c-1,0-2.3,1.2-2,2.7c2.2,1.7,4.4,4.1,5.2,9.8
	c0.8,5.5,0.4,9-1.2,11.4C454,263.8,459.7,256.5,458.8,249.9z"/>
<polygon id="XMLID_26_" class="st26" points="72.8,251.4 59.5,251.4 59.5,236 50.4,236 50.4,251.4 34.2,251.4 34.2,260.3 
	50.4,260.3 50.4,273.7 59.5,273.7 59.5,260.3 72.8,260.3 "/>
<radialGradient id="XMLID_121_" cx="133.356" cy="259.0243" r="44.3249" gradientTransform="matrix(0.9262 0 0 1.0123 14.0362 -5.0827)" gradientUnits="userSpaceOnUse">
	<stop  offset="0.2485" style="stop-color:#C5C6C8"/>
	<stop  offset="0.8424" style="stop-color:#6F7072"/>
</radialGradient>
<ellipse id="XMLID_25_" class="st27" cx="148.7" cy="257.7" rx="14.3" ry="41.6"/>
<g id="XMLID_98_">
	
		<rect id="XMLID_24_" x="138.3" y="251.1" transform="matrix(-2.406973e-003 1 -1 -2.406973e-003 396.0326 117.2609)" class="st26" width="2.4" height="10.1"/>
	
		<rect id="XMLID_23_" x="138.2" y="251.3" transform="matrix(0.9996 2.985417e-002 -2.985417e-002 0.9996 7.7416 -4.0471)" class="st26" width="2.4" height="11.9"/>
</g>
<linearGradient id="XMLID_122_" gradientUnits="userSpaceOnUse" x1="159.8521" y1="217.1257" x2="159.8521" y2="310.6999">
	<stop  offset="0.2" style="stop-color:#3D3D3F"/>
	<stop  offset="0.503" style="stop-color:#BFC0C1"/>
	<stop  offset="0.8424" style="stop-color:#6F7072"/>
</linearGradient>
<path id="XMLID_20_" class="st28" d="M146.3,216.1v0.4c6.6,2.6,11.7,20.1,11.7,41.3c0,21.2-5.1,38.6-11.7,41.3v0.4h27.1v-83.3H146.3
	z"/>
</svg>
