<?xml version="1.0" encoding="utf-8"?>
<!-- Generator: Adobe Illustrator 19.0.0, SVG Export Plug-In . SVG Version: 6.00 Build 0)  -->
<svg version="1.1" id="Camada_1" xmlns="http://www.w3.org/2000/svg" xmlns:xlink="http://www.w3.org/1999/xlink" x="0px" y="0px"
	 viewBox="0 0 500 500" style="enable-background:new 0 0 500 500;" xml:space="preserve">
<style type="text/css">
	.st0{fill:#1A171B;stroke:#1A171B;stroke-width:7.3436;stroke-linecap:round;stroke-linejoin:round;stroke-miterlimit:10;}
	.st1{fill:#1A171B;stroke:#1A171B;stroke-width:7.3436;stroke-miterlimit:10;}
	.st2{fill:#1A171B;stroke:#1A171B;stroke-width:7.3436;stroke-linejoin:round;stroke-miterlimit:10;}
	.st3{opacity:0.44;fill:#1A171B;stroke:#1A171B;stroke-width:7.3436;stroke-miterlimit:10;}
	.st4{fill:#58585A;stroke:#1A171B;stroke-width:1.8359;stroke-linecap:round;stroke-linejoin:round;stroke-miterlimit:10;}
	.st5{fill:url(#XMLID_107_);stroke:#1A171B;stroke-width:1.8359;stroke-miterlimit:10;}
	.st6{fill:url(#XMLID_108_);stroke:#1A171B;stroke-width:1.8359;stroke-linecap:round;stroke-linejoin:round;stroke-miterlimit:10;}
	.st7{fill:url(#XMLID_109_);stroke:#1A171B;stroke-width:1.8359;stroke-linecap:round;stroke-linejoin:round;stroke-miterlimit:10;}
	.st8{fill:url(#XMLID_111_);stroke:#1A171B;stroke-width:1.8359;stroke-linecap:round;stroke-linejoin:round;stroke-miterlimit:10;}
	.st9{fill:url(#XMLID_112_);stroke:#1A171B;stroke-width:1.8359;stroke-linecap:round;stroke-linejoin:round;stroke-miterlimit:10;}
	
		.st10{fill:url(#XMLID_113_);stroke:#1A171B;stroke-width:1.8359;stroke-linecap:round;stroke-linejoin:round;stroke-miterlimit:10;}
	
		.st11{fill:url(#XMLID_114_);stroke:#1A171B;stroke-width:1.8359;stroke-linecap:round;stroke-linejoin:round;stroke-miterlimit:10;}
	
		.st12{fill:url(#XMLID_115_);stroke:#1A171B;stroke-width:1.8359;stroke-linecap:round;stroke-linejoin:round;stroke-miterlimit:10;}
	
		.st13{fill:url(#XMLID_116_);stroke:#1A171B;stroke-width:1.8359;stroke-linecap:round;stroke-linejoin:round;stroke-miterlimit:10;}
	
		.st14{fill:url(#XMLID_117_);stroke:#1A171B;stroke-width:1.8359;stroke-linecap:round;stroke-linejoin:round;stroke-miterlimit:10;}
	
		.st15{fill:url(#XMLID_118_);stroke:#1A171B;stroke-width:1.8359;stroke-linecap:round;stroke-linejoin:round;stroke-miterlimit:10;}
	
		.st16{fill:url(#XMLID_119_);stroke:#1A171B;stroke-width:1.8359;stroke-linecap:round;stroke-linejoin:round;stroke-miterlimit:10;}
	
		.st17{fill:url(#XMLID_120_);stroke:#1A171B;stroke-width:1.8359;stroke-linecap:round;stroke-linejoin:round;stroke-miterlimit:10;}
	
		.st18{fill:url(#XMLID_121_);stroke:#1A171B;stroke-width:1.8359;stroke-linecap:round;stroke-linejoin:round;stroke-miterlimit:10;}
	
		.st19{fill:url(#XMLID_122_);stroke:#1A171B;stroke-width:1.8359;stroke-linecap:round;stroke-linejoin:round;stroke-miterlimit:10;}
	.st20{fill:url(#XMLID_123_);stroke:#1A171B;stroke-width:1.8359;stroke-miterlimit:10;}
	.st21{fill:url(#XMLID_124_);stroke:#1A171B;stroke-width:1.8359;stroke-miterlimit:10;}
	.st22{fill:url(#XMLID_125_);stroke:#1A171B;stroke-width:1.8359;stroke-linejoin:round;stroke-miterlimit:10;}
	.st23{fill:none;stroke:#1A171B;stroke-width:1.8359;stroke-miterlimit:10;}
	.st24{opacity:0.44;fill:#FFFFFF;}
</style>
<path id="XMLID_105_" class="st0" d="M161.6,240.5c-2.9-21.4-12.6-38-21.7-37c-2.5,0.3-5.3,1.1-7.1,3.7c7,4.9,14,19.2,16.4,35.6
	c2.4,15.9-3.2,28.7-8.1,35.3c1.9,1.2,7.2,5.6,9.1,5.4C159.3,282.5,164.4,262,161.6,240.5z"/>
<path id="XMLID_104_" class="st0" d="M189.9,240.9c-2.9-21.6-12.6-38.3-21.7-37.3c-2.5,0.3-5.3,1.1-7.1,3.7c7,4.9,14,19.3,16.4,35.8
	c2.4,16-3.2,28.9-8.1,35.6c1.9,1.2,7.2,5.6,9.1,5.4C187.6,283.2,192.8,262.5,189.9,240.9z"/>
<path id="XMLID_103_" class="st0" d="M215.5,240.9c-2.9-21.6-12.6-38.3-21.7-37.3c-2.5,0.3-5.3,1.1-7.1,3.7c7,4.9,14,19.3,16.4,35.8
	c2.4,16-3.2,28.9-8.1,35.6c1.9,1.2,7.2,5.6,9.1,5.4C213.2,283.2,218.4,262.5,215.5,240.9z"/>
<path id="XMLID_102_" class="st0" d="M241.9,239.7c-2.9-21.6-12.6-38.3-21.7-37.3c-2.5,0.3-5.3,1.1-7.1,3.7c7,4.9,14,19.3,16.4,35.8
	c2.4,16-3.2,28.9-8.1,35.6c1.9,1.2,7.2,5.6,9.1,5.4C239.6,282,244.7,261.3,241.9,239.7z"/>
<path id="XMLID_101_" class="st0" d="M268.3,240.2c-2.9-21.6-12.6-38.3-21.7-37.3c-2.5,0.3-5.3,1.1-7.1,3.7c7,4.9,14,19.3,16.4,35.8
	c2.4,16-3.2,28.9-8.1,35.6c1.9,1.2,7.2,5.6,9.1,5.4C266,282.5,271.2,261.8,268.3,240.2z"/>
<path id="XMLID_100_" class="st0" d="M292.4,239.7c-2.6-21.3-11.5-37.8-19.9-36.8c-2.3,0.3-4.8,1.1-6.5,3.7
	c6.4,4.9,12.8,19,15.1,35.3c2.2,15.8-3,28.5-7.5,35.1c1.7,1.2,6.6,5.5,8.3,5.3C290.3,281.3,295,260.9,292.4,239.7z"/>
<path id="XMLID_99_" class="st0" d="M317.2,240.6c-2-21.3-10.6-38-19.2-37.3c-2.4,0.2-5,0.9-6.8,3.5c6.4,5.1,12.5,19.4,14.3,35.7
	c1.7,15.8-4,28.3-8.8,34.7c1.7,1.3,6.6,5.7,8.4,5.6C313.6,282.1,319.2,261.9,317.2,240.6z"/>
<path id="XMLID_98_" class="st0" d="M342.1,239.5c-2.8-21.6-12.1-38.3-20.9-37.3c-2.4,0.3-5.1,1.1-6.8,3.7
	c6.7,4.9,13.4,19.3,15.8,35.8c2.3,16-3.1,28.9-7.8,35.6c1.8,1.2,6.9,5.6,8.8,5.4C339.8,281.8,344.8,261.1,342.1,239.5z"/>
<path id="XMLID_97_" class="st0" d="M365.4,239.5c-2.5-21.6-11-38.3-18.9-37.3c-2.2,0.3-4.6,1.1-6.2,3.7
	c6.1,4.9,12.2,19.3,14.3,35.8c2.1,16-2.8,28.9-7.1,35.6c1.6,1.2,6.3,5.6,7.9,5.4C363.4,281.8,367.9,261.1,365.4,239.5z"/>
<path id="XMLID_96_" class="st0" d="M396.4,239.1c-2.9-21.6-12.6-38.3-21.7-37.3c-2.5,0.3-5.3,1.1-7.1,3.7c7,4.9,14,19.3,16.4,35.8
	c2.4,16-3.2,28.9-8.1,35.6c1.9,1.2,7.2,5.6,9.1,5.4C394.1,281.3,399.3,260.6,396.4,239.1z"/>
<path id="XMLID_95_" class="st0" d="M427,239.1c-2.9-21.6-12.6-38.3-21.7-37.3c-2.5,0.3-5.3,1.1-7.1,3.7c7,4.9,14,19.3,16.4,35.8
	c2.4,16-3.2,28.9-8.1,35.6c1.9,1.2,7.2,5.6,9.1,5.4C424.7,281.3,429.9,260.6,427,239.1z"/>
<path id="XMLID_94_" class="st0" d="M448,239.2c-2.3-20.1-10.2-35.7-17.6-34.8c-2,0.3-4.3,1-5.8,3.5c5.7,4.6,11.4,18,13.3,33.4
	c1.9,14.9-2.6,26.9-6.6,33.2c1.5,1.1,5.9,5.2,7.4,5C446.1,278.6,450.3,259.4,448,239.2z"/>
<rect id="XMLID_93_" x="121.8" y="207.9" class="st1" width="318" height="69.5"/>
<polygon id="XMLID_92_" class="st0" points="440.1,277.1 436.6,277.1 436.6,207.8 440.1,208 482.9,238.8 "/>
<path id="XMLID_91_" class="st0" d="M156.8,240.9c-2.5-21.2-11.1-37.7-19.2-36.7c-2.2,0.3-4.7,1.1-6.3,3.7
	c6.2,4.9,12.3,19,14.5,35.3c2.1,15.8-0.4,28.3-4.8,34.9c1.7,1.2,3.9,5.6,5.6,5.4C154.7,282.5,159.3,262.2,156.8,240.9z"/>
<path id="XMLID_90_" class="st0" d="M184.8,240.9c-2.5-21.2-11.1-37.7-19.2-36.7c-2.2,0.3-4.7,1.1-6.3,3.7
	c6.2,4.9,12.3,19,14.5,35.3c2.1,15.8-0.4,28.3-4.8,34.9c1.7,1.2,3.9,5.6,5.6,5.4C182.7,282.5,187.3,262.2,184.8,240.9z"/>
<path id="XMLID_89_" class="st0" d="M210.9,240.9c-2.5-21.2-11.1-37.7-19.2-36.7c-2.2,0.3-4.7,1.1-6.3,3.7
	c6.2,4.9,12.3,19,14.5,35.3c2.1,15.8-0.4,28.3-4.8,34.9c1.7,1.2,3.9,5.6,5.6,5.4C208.8,282.5,213.4,262.2,210.9,240.9z"/>
<path id="XMLID_88_" class="st0" d="M237,239.8c-2.5-21.2-11.1-37.7-19.2-36.7c-2.2,0.3-4.7,1.1-6.3,3.7c6.2,4.9,12.3,19,14.5,35.3
	c2.1,15.8-0.4,28.3-4.8,34.9c1.7,1.2,3.9,5.6,5.6,5.4C235,281.3,239.6,261,237,239.8z"/>
<path id="XMLID_87_" class="st0" d="M263.1,239.8c-2.5-21.2-11.1-37.7-19.2-36.7c-2.2,0.3-4.7,1.1-6.3,3.7
	c6.2,4.9,12.3,19,14.5,35.3c2.1,15.8-0.4,28.3-4.8,34.9c1.7,1.2,3.9,5.6,5.6,5.4C261.1,281.3,265.7,261,263.1,239.8z"/>
<path id="XMLID_86_" class="st0" d="M289.3,239.8c-2.5-21.2-11.1-37.7-19.2-36.7c-2.2,0.3-4.7,1.1-6.3,3.7
	c6.2,4.9,12.3,19,14.5,35.3c2.1,15.8-0.4,28.3-4.8,34.9c1.7,1.2,3.9,5.6,5.6,5.4C287.2,281.3,291.8,261,289.3,239.8z"/>
<path id="XMLID_85_" class="st0" d="M312.4,239.8c-2.5-21.2-11.1-37.7-19.2-36.7c-2.2,0.3-4.7,1.1-6.3,3.7
	c6.2,4.9,12.3,19,14.5,35.3c2.1,15.8-0.4,28.3-4.8,34.9c1.7,1.2,3.9,5.6,5.6,5.4C310.4,281.3,314.9,261,312.4,239.8z"/>
<path id="XMLID_84_" class="st0" d="M337.5,239.8c-2.5-21.2-11.1-37.7-19.2-36.7c-2.2,0.3-4.7,1.1-6.3,3.7
	c6.2,4.9,12.3,19,14.5,35.3c2.1,15.8-0.4,28.3-4.8,34.9c1.7,1.2,3.9,5.6,5.6,5.4C335.4,281.3,340,261,337.5,239.8z"/>
<path id="XMLID_83_" class="st0" d="M362.5,239.8c-2.5-21.2-11.1-37.7-19.2-36.7c-2.2,0.3-4.7,1.1-6.3,3.7
	c6.2,4.9,12.3,19,14.5,35.3c2.1,15.8-0.4,28.3-4.8,34.9c1.7,1.2,3.9,5.6,5.6,5.4C360.5,281.3,365.1,261,362.5,239.8z"/>
<path id="XMLID_82_" class="st0" d="M391,239.6c-2.5-21.2-11.1-37.7-19.2-36.7c-2.2,0.3-4.7,1.1-6.3,3.7c6.2,4.9,12.3,19,14.5,35.3
	c2.1,15.8-0.4,28.3-4.8,34.9c1.7,1.2,3.9,5.6,5.6,5.4C389,281.1,393.5,260.8,391,239.6z"/>
<path id="XMLID_81_" class="st0" d="M421.3,239.6c-2.5-21.2-11.1-37.7-19.2-36.7c-2.2,0.3-4.7,1.1-6.3,3.7
	c6.2,4.9,12.3,19,14.5,35.3c2.1,15.8-0.4,28.3-4.8,34.9c1.7,1.2,3.9,5.6,5.6,5.4C419.2,281.1,423.8,260.8,421.3,239.6z"/>
<path id="XMLID_80_" class="st0" d="M445.9,239.7c-2.2-20-9.5-35.5-16.3-34.6c-1.9,0.3-4,1-5.3,3.5c5.2,4.6,10.5,17.9,12.3,33.2
	c1.8,14.8-0.6,29.4-4.4,35.6c1.4,1.1,3.6,2.5,5.1,2.3C444.2,278.9,448.1,259.7,445.9,239.7z"/>
<path id="XMLID_79_" class="st0" d="M452.4,221.6c-2.5-10-6.8-17.3-9.6-16.4c-0.8,0.3-1.6,0.8-1.9,2.1c2.5,2,5.8,8.4,7.8,16
	c1.9,7.4,2.1,14.9,1,18.3c0.7,0.5,1.7,1,2.3,0.9C454.8,241.6,454.9,231.6,452.4,221.6z"/>
<path id="XMLID_78_" class="st1" d="M136,255.7c0,48-21.2,86.9-47.5,86.9c-3,0-34.9-9-37.7-10.4c-13.2-6.6-9.8-34.1-9.8-76.5
	c0-41.1-8.1-73.8,12.8-82.8c3.5-1.5,30.9-4.1,34.6-4.1C114.8,168.8,136,207.7,136,255.7z"/>
<g id="XMLID_144_">
	<path id="XMLID_77_" class="st1" d="M94.8,235.7c-3.7-35.9-18.5-62.8-36.1-62.8c-19.6,0-35.7,33.2-37,75.2L94.8,235.7z"/>
	<path id="XMLID_76_" class="st2" d="M22.6,271.7c3.8,35.7,18.5,62.3,36.1,62.3c19.6,0,35.6-33,36.9-74.7L22.6,271.7z"/>
</g>
<polygon id="XMLID_75_" class="st1" points="113,259.3 96,259.3 41.4,268.5 41.1,245.2 95.2,235.9 113,235.4 "/>
<path id="XMLID_74_" class="st3" d="M38.5,187.9c-3.6,5.2,37.3-28.9,49.3,36.3c4.3,8.9,4.8,11.4,4.1,0.9
	c-0.7-10.5-12.3-51.6-33.6-51C48.7,174.1,41.8,183,38.5,187.9z"/>
<path id="XMLID_73_" class="st3" d="M47.2,318.1c4.5,2.6-18.5-10.2-4.9,4.9c36.6,34.3,50.2-43.8,50.2-43.8S82.6,344,47.2,318.1z"/>
<path id="XMLID_72_" class="st4" d="M161.6,240.5c-2.9-21.4-12.6-38-21.7-37c-2.5,0.3-5.3,1.1-7.1,3.7c7,4.9,14,19.2,16.4,35.6
	c2.4,15.9-3.2,28.7-8.1,35.3c1.9,1.2,7.2,5.6,9.1,5.4C159.3,282.5,164.4,262,161.6,240.5z"/>
<path id="XMLID_71_" class="st4" d="M189.9,240.9c-2.9-21.6-12.6-38.3-21.7-37.3c-2.5,0.3-5.3,1.1-7.1,3.7c7,4.9,14,19.3,16.4,35.8
	c2.4,16-3.2,28.9-8.1,35.6c1.9,1.2,7.2,5.6,9.1,5.4C187.6,283.2,192.8,262.5,189.9,240.9z"/>
<path id="XMLID_70_" class="st4" d="M215.5,240.9c-2.9-21.6-12.6-38.3-21.7-37.3c-2.5,0.3-5.3,1.1-7.1,3.7c7,4.9,14,19.3,16.4,35.8
	c2.4,16-3.2,28.9-8.1,35.6c1.9,1.2,7.2,5.6,9.1,5.4C213.2,283.2,218.4,262.5,215.5,240.9z"/>
<path id="XMLID_69_" class="st4" d="M241.9,239.7c-2.9-21.6-12.6-38.3-21.7-37.3c-2.5,0.3-5.3,1.1-7.1,3.7c7,4.9,14,19.3,16.4,35.8
	c2.4,16-3.2,28.9-8.1,35.6c1.9,1.2,7.2,5.6,9.1,5.4C239.6,282,244.7,261.3,241.9,239.7z"/>
<path id="XMLID_68_" class="st4" d="M268.3,240.2c-2.9-21.6-12.6-38.3-21.7-37.3c-2.5,0.3-5.3,1.1-7.1,3.7c7,4.9,14,19.3,16.4,35.8
	c2.4,16-3.2,28.9-8.1,35.6c1.9,1.2,7.2,5.6,9.1,5.4C266,282.5,271.2,261.8,268.3,240.2z"/>
<path id="XMLID_67_" class="st4" d="M292.4,239.7c-2.6-21.3-11.5-37.8-19.9-36.8c-2.3,0.3-4.8,1.1-6.5,3.7
	c6.4,4.9,12.8,19,15.1,35.3c2.2,15.8-3,28.5-7.5,35.1c1.7,1.2,6.6,5.5,8.3,5.3C290.3,281.3,295,260.9,292.4,239.7z"/>
<path id="XMLID_66_" class="st4" d="M317.2,240.6c-2-21.3-10.6-38-19.2-37.3c-2.4,0.2-5,0.9-6.8,3.5c6.4,5.1,12.5,19.4,14.3,35.7
	c1.7,15.8-4,28.3-8.8,34.7c1.7,1.3,6.6,5.7,8.4,5.6C313.6,282.1,319.2,261.9,317.2,240.6z"/>
<path id="XMLID_65_" class="st4" d="M342.1,239.5c-2.8-21.6-12.1-38.3-20.9-37.3c-2.4,0.3-5.1,1.1-6.8,3.7
	c6.7,4.9,13.4,19.3,15.8,35.8c2.3,16-3.1,28.9-7.8,35.6c1.8,1.2,6.9,5.6,8.8,5.4C339.8,281.8,344.8,261.1,342.1,239.5z"/>
<path id="XMLID_64_" class="st4" d="M365.4,239.5c-2.5-21.6-11-38.3-18.9-37.3c-2.2,0.3-4.6,1.1-6.2,3.7
	c6.1,4.9,12.2,19.3,14.3,35.8c2.1,16-2.8,28.9-7.1,35.6c1.6,1.2,6.3,5.6,7.9,5.4C363.4,281.8,367.9,261.1,365.4,239.5z"/>
<path id="XMLID_63_" class="st4" d="M396.4,239.1c-2.9-21.6-12.6-38.3-21.7-37.3c-2.5,0.3-5.3,1.1-7.1,3.7c7,4.9,14,19.3,16.4,35.8
	c2.4,16-3.2,28.9-8.1,35.6c1.9,1.2,7.2,5.6,9.1,5.4C394.1,281.3,399.3,260.6,396.4,239.1z"/>
<path id="XMLID_62_" class="st4" d="M427,239.1c-2.9-21.6-12.6-38.3-21.7-37.3c-2.5,0.3-5.3,1.1-7.1,3.7c7,4.9,14,19.3,16.4,35.8
	c2.4,16-3.2,28.9-8.1,35.6c1.9,1.2,7.2,5.6,9.1,5.4C424.7,281.3,429.9,260.6,427,239.1z"/>
<path id="XMLID_61_" class="st4" d="M448,239.2c-2.3-20.1-10.2-35.7-17.6-34.8c-2,0.3-4.3,1-5.8,3.5c5.7,4.6,11.4,18,13.3,33.4
	c1.9,14.9-2.6,26.9-6.6,33.2c1.5,1.1,5.9,5.2,7.4,5C446.1,278.6,450.3,259.4,448,239.2z"/>
<linearGradient id="XMLID_107_" gradientUnits="userSpaceOnUse" x1="280.7664" y1="289.1304" x2="280.7664" y2="197.7952">
	<stop  offset="0.1394" style="stop-color:#868789"/>
	<stop  offset="0.4" style="stop-color:#3D3D3F"/>
	<stop  offset="0.6303" style="stop-color:#B0B2B3"/>
	<stop  offset="1" style="stop-color:#9B9C9E"/>
</linearGradient>
<rect id="XMLID_60_" x="121.8" y="207.9" class="st5" width="318" height="69.5"/>
<linearGradient id="XMLID_108_" gradientUnits="userSpaceOnUse" x1="460.5346" y1="289.6903" x2="458.2424" y2="192.9629">
	<stop  offset="0.1394" style="stop-color:#868789"/>
	<stop  offset="0.4" style="stop-color:#3D3D3F"/>
	<stop  offset="0.6303" style="stop-color:#B0B2B3"/>
	<stop  offset="1" style="stop-color:#9B9C9E"/>
</linearGradient>
<polygon id="XMLID_59_" class="st6" points="440.1,277.1 436.6,277.1 436.6,207.8 440.1,208 482.9,238.8 "/>
<linearGradient id="XMLID_109_" gradientUnits="userSpaceOnUse" x1="131.3332" y1="243.8457" x2="157.4603" y2="243.8457">
	<stop  offset="0.1394" style="stop-color:#9B9C9E"/>
	<stop  offset="0.503" style="stop-color:#D8D9DA"/>
	<stop  offset="0.9333" style="stop-color:#9B9C9E"/>
</linearGradient>
<path id="XMLID_58_" class="st7" d="M156.8,240.9c-2.5-21.2-11.1-37.7-19.2-36.7c-2.2,0.3-4.7,1.1-6.3,3.7
	c6.2,4.9,12.3,19,14.5,35.3c2.1,15.8-0.4,28.3-4.8,34.9c1.7,1.2,3.9,5.6,5.6,5.4C154.7,282.5,159.3,262.2,156.8,240.9z"/>
<linearGradient id="XMLID_111_" gradientUnits="userSpaceOnUse" x1="159.3305" y1="243.8457" x2="185.4576" y2="243.8457">
	<stop  offset="0.1394" style="stop-color:#9B9C9E"/>
	<stop  offset="0.503" style="stop-color:#D8D9DA"/>
	<stop  offset="0.9333" style="stop-color:#9B9C9E"/>
</linearGradient>
<path id="XMLID_57_" class="st8" d="M184.8,240.9c-2.5-21.2-11.1-37.7-19.2-36.7c-2.2,0.3-4.7,1.1-6.3,3.7
	c6.2,4.9,12.3,19,14.5,35.3c2.1,15.8-0.4,28.3-4.8,34.9c1.7,1.2,3.9,5.6,5.6,5.4C182.7,282.5,187.3,262.2,184.8,240.9z"/>
<linearGradient id="XMLID_112_" gradientUnits="userSpaceOnUse" x1="185.4578" y1="243.8457" x2="211.585" y2="243.8457">
	<stop  offset="0.1394" style="stop-color:#9B9C9E"/>
	<stop  offset="0.503" style="stop-color:#D8D9DA"/>
	<stop  offset="0.9333" style="stop-color:#9B9C9E"/>
</linearGradient>
<path id="XMLID_56_" class="st9" d="M210.9,240.9c-2.5-21.2-11.1-37.7-19.2-36.7c-2.2,0.3-4.7,1.1-6.3,3.7
	c6.2,4.9,12.3,19,14.5,35.3c2.1,15.8-0.4,28.3-4.8,34.9c1.7,1.2,3.9,5.6,5.6,5.4C208.8,282.5,213.4,262.2,210.9,240.9z"/>
<linearGradient id="XMLID_113_" gradientUnits="userSpaceOnUse" x1="211.5853" y1="242.6821" x2="237.7123" y2="242.6821">
	<stop  offset="0.1394" style="stop-color:#9B9C9E"/>
	<stop  offset="0.503" style="stop-color:#D8D9DA"/>
	<stop  offset="0.9333" style="stop-color:#9B9C9E"/>
</linearGradient>
<path id="XMLID_37_" class="st10" d="M237,239.8c-2.5-21.2-11.1-37.7-19.2-36.7c-2.2,0.3-4.7,1.1-6.3,3.7c6.2,4.9,12.3,19,14.5,35.3
	c2.1,15.8-0.4,28.3-4.8,34.9c1.7,1.2,3.9,5.6,5.6,5.4C235,281.3,239.6,261,237,239.8z"/>
<linearGradient id="XMLID_114_" gradientUnits="userSpaceOnUse" x1="237.7125" y1="242.6821" x2="263.8397" y2="242.6821">
	<stop  offset="0.1394" style="stop-color:#9B9C9E"/>
	<stop  offset="0.503" style="stop-color:#D8D9DA"/>
	<stop  offset="0.9333" style="stop-color:#9B9C9E"/>
</linearGradient>
<path id="XMLID_36_" class="st11" d="M263.1,239.8c-2.5-21.2-11.1-37.7-19.2-36.7c-2.2,0.3-4.7,1.1-6.3,3.7
	c6.2,4.9,12.3,19,14.5,35.3c2.1,15.8-0.4,28.3-4.8,34.9c1.7,1.2,3.9,5.6,5.6,5.4C261.1,281.3,265.7,261,263.1,239.8z"/>
<linearGradient id="XMLID_115_" gradientUnits="userSpaceOnUse" x1="263.84" y1="242.6821" x2="289.9669" y2="242.6821">
	<stop  offset="0.1394" style="stop-color:#9B9C9E"/>
	<stop  offset="0.503" style="stop-color:#D8D9DA"/>
	<stop  offset="0.9333" style="stop-color:#9B9C9E"/>
</linearGradient>
<path id="XMLID_35_" class="st12" d="M289.3,239.8c-2.5-21.2-11.1-37.7-19.2-36.7c-2.2,0.3-4.7,1.1-6.3,3.7
	c6.2,4.9,12.3,19,14.5,35.3c2.1,15.8-0.4,28.3-4.8,34.9c1.7,1.2,3.9,5.6,5.6,5.4C287.2,281.3,291.8,261,289.3,239.8z"/>
<linearGradient id="XMLID_116_" gradientUnits="userSpaceOnUse" x1="286.9715" y1="242.6821" x2="313.0984" y2="242.6821">
	<stop  offset="0.1394" style="stop-color:#9B9C9E"/>
	<stop  offset="0.503" style="stop-color:#D8D9DA"/>
	<stop  offset="0.9333" style="stop-color:#9B9C9E"/>
</linearGradient>
<path id="XMLID_34_" class="st13" d="M312.4,239.8c-2.5-21.2-11.1-37.7-19.2-36.7c-2.2,0.3-4.7,1.1-6.3,3.7
	c6.2,4.9,12.3,19,14.5,35.3c2.1,15.8-0.4,28.3-4.8,34.9c1.7,1.2,3.9,5.6,5.6,5.4C310.4,281.3,314.9,261,312.4,239.8z"/>
<linearGradient id="XMLID_117_" gradientUnits="userSpaceOnUse" x1="312.0392" y1="242.6821" x2="338.1662" y2="242.6821">
	<stop  offset="0.1394" style="stop-color:#9B9C9E"/>
	<stop  offset="0.503" style="stop-color:#D8D9DA"/>
	<stop  offset="0.9333" style="stop-color:#9B9C9E"/>
</linearGradient>
<path id="XMLID_33_" class="st14" d="M337.5,239.8c-2.5-21.2-11.1-37.7-19.2-36.7c-2.2,0.3-4.7,1.1-6.3,3.7
	c6.2,4.9,12.3,19,14.5,35.3c2.1,15.8-0.4,28.3-4.8,34.9c1.7,1.2,3.9,5.6,5.6,5.4C335.4,281.3,340,261,337.5,239.8z"/>
<linearGradient id="XMLID_118_" gradientUnits="userSpaceOnUse" x1="337.1089" y1="242.6821" x2="363.2358" y2="242.6821">
	<stop  offset="0.1394" style="stop-color:#9B9C9E"/>
	<stop  offset="0.503" style="stop-color:#D8D9DA"/>
	<stop  offset="0.9333" style="stop-color:#9B9C9E"/>
</linearGradient>
<path id="XMLID_32_" class="st15" d="M362.5,239.8c-2.5-21.2-11.1-37.7-19.2-36.7c-2.2,0.3-4.7,1.1-6.3,3.7
	c6.2,4.9,12.3,19,14.5,35.3c2.1,15.8-0.4,28.3-4.8,34.9c1.7,1.2,3.9,5.6,5.6,5.4C360.5,281.3,365.1,261,362.5,239.8z"/>
<linearGradient id="XMLID_119_" gradientUnits="userSpaceOnUse" x1="365.5651" y1="242.4643" x2="391.6921" y2="242.4643">
	<stop  offset="0.1394" style="stop-color:#9B9C9E"/>
	<stop  offset="0.503" style="stop-color:#D8D9DA"/>
	<stop  offset="0.9333" style="stop-color:#9B9C9E"/>
</linearGradient>
<path id="XMLID_31_" class="st16" d="M391,239.6c-2.5-21.2-11.1-37.7-19.2-36.7c-2.2,0.3-4.7,1.1-6.3,3.7c6.2,4.9,12.3,19,14.5,35.3
	c2.1,15.8-0.4,28.3-4.8,34.9c1.7,1.2,3.9,5.6,5.6,5.4C389,281.1,393.5,260.8,391,239.6z"/>
<linearGradient id="XMLID_120_" gradientUnits="userSpaceOnUse" x1="395.8573" y1="242.4643" x2="421.9843" y2="242.4643">
	<stop  offset="0.1394" style="stop-color:#9B9C9E"/>
	<stop  offset="0.503" style="stop-color:#D8D9DA"/>
	<stop  offset="0.9333" style="stop-color:#9B9C9E"/>
</linearGradient>
<path id="XMLID_30_" class="st17" d="M421.3,239.6c-2.5-21.2-11.1-37.7-19.2-36.7c-2.2,0.3-4.7,1.1-6.3,3.7
	c6.2,4.9,12.3,19,14.5,35.3c2.1,15.8-0.4,28.3-4.8,34.9c1.7,1.2,3.9,5.6,5.6,5.4C419.2,281.1,423.8,260.8,421.3,239.6z"/>
<linearGradient id="XMLID_121_" gradientUnits="userSpaceOnUse" x1="424.2794" y1="242.4693" x2="446.4945" y2="242.4693">
	<stop  offset="0.1394" style="stop-color:#9B9C9E"/>
	<stop  offset="0.503" style="stop-color:#D8D9DA"/>
	<stop  offset="0.9333" style="stop-color:#9B9C9E"/>
</linearGradient>
<path id="XMLID_29_" class="st18" d="M445.9,239.7c-2.2-20-9.5-35.5-16.3-34.6c-1.9,0.3-4,1-5.3,3.5c5.2,4.6,10.5,17.9,12.3,33.2
	c1.8,14.8-0.6,29.4-4.4,35.6c1.4,1.1,3.6,2.5,5.1,2.3C444.2,278.9,448.1,259.7,445.9,239.7z"/>
<linearGradient id="XMLID_122_" gradientUnits="userSpaceOnUse" x1="429.2989" y1="237.8109" x2="437.2877" y2="237.8109" gradientTransform="matrix(1.1602 -0.1834 0.1561 0.9877 -91.6318 68.2852)">
	<stop  offset="0.1394" style="stop-color:#9B9C9E"/>
	<stop  offset="0.503" style="stop-color:#D8D9DA"/>
	<stop  offset="0.9333" style="stop-color:#9B9C9E"/>
</linearGradient>
<path id="XMLID_28_" class="st19" d="M452.4,221.6c-2.5-10-6.8-17.3-9.6-16.4c-0.8,0.3-1.6,0.8-1.9,2.1c2.5,2,5.8,8.4,7.8,16
	c1.9,7.4,2.1,14.9,1,18.3c0.7,0.5,1.7,1,2.3,0.9C454.8,241.6,454.9,231.6,452.4,221.6z"/>
<linearGradient id="XMLID_123_" gradientUnits="userSpaceOnUse" x1="90.8758" y1="155.2212" x2="83.5331" y2="338.7911">
	<stop  offset="3.030300e-002" style="stop-color:#1A171B"/>
	<stop  offset="0.3455" style="stop-color:#C5C6C8"/>
	<stop  offset="0.6485" style="stop-color:#1A171B"/>
	<stop  offset="0.9091" style="stop-color:#AFB1B2"/>
</linearGradient>
<path id="XMLID_27_" class="st20" d="M136,255.7c0,48-21.2,86.9-47.5,86.9c-3,0-34.9-9-37.7-10.4c-13.2-6.6-9.8-34.1-9.8-76.5
	c0-41.1-8.1-73.8,12.8-82.8c3.5-1.5,30.9-4.1,34.6-4.1C114.8,168.8,136,207.7,136,255.7z"/>
<g id="XMLID_110_">
	<linearGradient id="XMLID_124_" gradientUnits="userSpaceOnUse" x1="-8.7482" y1="261.5959" x2="155.2588" y2="147.7706">
		<stop  offset="3.030300e-002" style="stop-color:#1A171B"/>
		<stop  offset="0.3455" style="stop-color:#C5C6C8"/>
		<stop  offset="0.6485" style="stop-color:#1A171B"/>
		<stop  offset="0.9091" style="stop-color:#AFB1B2"/>
	</linearGradient>
	<path id="XMLID_26_" class="st21" d="M94.8,235.7c-3.7-35.9-18.5-62.8-36.1-62.8c-19.6,0-35.7,33.2-37,75.2L94.8,235.7z"/>
	<linearGradient id="XMLID_125_" gradientUnits="userSpaceOnUse" x1="27.571" y1="313.9265" x2="191.5768" y2="200.1019">
		<stop  offset="3.030300e-002" style="stop-color:#1A171B"/>
		<stop  offset="0.3455" style="stop-color:#C5C6C8"/>
		<stop  offset="0.6485" style="stop-color:#1A171B"/>
		<stop  offset="0.9091" style="stop-color:#AFB1B2"/>
	</linearGradient>
	<path id="XMLID_25_" class="st22" d="M22.6,271.7c3.8,35.7,18.5,62.3,36.1,62.3c19.6,0,35.6-33,36.9-74.7L22.6,271.7z"/>
</g>
<polygon id="XMLID_24_" class="st23" points="113,259.3 96,259.3 41.4,268.5 41.1,245.2 95.2,235.9 113,235.4 "/>
<path id="XMLID_23_" class="st24" d="M38.5,187.9c-3.6,5.2,37.3-28.9,49.3,36.3c4.3,8.9,4.8,11.4,4.1,0.9
	c-0.7-10.5-12.3-51.6-33.6-51C48.7,174.1,41.8,183,38.5,187.9z"/>
<path id="XMLID_20_" class="st24" d="M47.2,318.1c4.5,2.6-18.5-10.2-4.9,4.9c36.6,34.3,50.2-43.8,50.2-43.8S82.6,344,47.2,318.1z"/>
</svg>
