<?xml version="1.0" encoding="utf-8"?>
<!-- Generator: Adobe Illustrator 19.0.0, SVG Export Plug-In . SVG Version: 6.00 Build 0)  -->
<svg version="1.1" id="Camada_1" xmlns="http://www.w3.org/2000/svg" xmlns:xlink="http://www.w3.org/1999/xlink" x="0px" y="0px"
	 viewBox="0 0 500 500" style="enable-background:new 0 0 500 500;" xml:space="preserve">
<style type="text/css">
	.st0{fill:#1A171B;stroke:#1A171B;stroke-width:3.3037;stroke-miterlimit:10;}
	.st1{opacity:0.62;fill:#1A171B;stroke:#1A171B;stroke-width:3.3037;stroke-miterlimit:10;}
	.st2{fill:#9B9C9E;stroke:#1A171B;stroke-width:0.8259;stroke-miterlimit:10;}
	.st3{fill:#868789;stroke:#1A171B;stroke-width:0.8259;stroke-miterlimit:10;}
	.st4{fill:#D8D9DA;stroke:#1A171B;stroke-width:0.8259;stroke-miterlimit:10;}
	.st5{fill:#1A171B;stroke:#1A171B;stroke-width:0.8259;stroke-miterlimit:10;}
	.st6{opacity:0.62;fill:#F5F5F6;}
</style>
<path id="XMLID_71_" class="st0" d="M427.4,162.4c-19.3,0-36.2,10.2-45.4,25.3c0,0-39.4,5-48.4,3.8c-1.7-0.6,9.7,75.4,9.7,75.4
	l51.9-7.9c8.9,6.6,20.3,7.9,32.2,7.9c29.3,0,53-23.4,53-52.3C480.4,185.8,456.7,162.4,427.4,162.4z"/>
<path id="XMLID_70_" class="st0" d="M425.5,167.2c-18.5,0-34.7,9.7-43.6,24.3l-44.5,3.9l9.6,71l48.2-7.3c8.5,6.3,18.9,8.3,30.3,8.3
	c28.1,0,50.9-22.4,50.9-50C476.4,189.6,453.6,167.2,425.5,167.2z"/>
<path id="XMLID_69_" class="st0" d="M223.2,289.6c0,0-63.9,4.2-83.4,24.7c-4.9,0.8-23.2-92.9-17.3-89.6c21.5,12,55.9-3.5,81.7-15.8
	C211,205.5,223.2,289.6,223.2,289.6z"/>
<path id="XMLID_68_" class="st0" d="M223.2,289.9c0,0-63.8,4.7-83.5,24.3c-4.9,0.9-22.1-88-16.3-84.9c21.3,11.2,55.8-3.9,81.7-15.9
	C212,210.2,223.2,289.9,223.2,289.9z"/>
<path id="XMLID_67_" class="st0" d="M109,220.2c-16.4,0-30.8,9-39.5,22.8L20,250.9l9,72.1l49.2-8.9c8.4,7.7,19.1,12.3,30.8,12.3
	c26.6,0,48.1-23.8,48.1-53.1C157.2,244,135.6,220.2,109,220.2z"/>
<path id="XMLID_66_" class="st0" d="M114.7,228.2c-14.4,0-27.2,7.7-34.9,19.4l-55.5,8.9l8.2,59.4l55.1-7.8
	c7.4,6.5,16.8,10.5,27.2,10.5c23.4,0,42.4-20.2,42.4-45.1C157.2,248.4,138.2,228.2,114.7,228.2z"/>
<ellipse id="XMLID_65_" class="st0" cx="429.4" cy="219.1" rx="19.6" ry="20.5"/>
<path id="XMLID_64_" class="st0" d="M438.1,219.9c0,10.8-4.1,19.5-11.4,19.5c-7.6,0-17-9.5-17-20.3c0-10.8,7.8-18.7,15.1-18.7
	C432.2,200.4,438.1,209.1,438.1,219.9z"/>
<path id="XMLID_63_" class="st0" d="M322.2,181.9c-12.7,0-31.4,9.5-39.8,23.7l-38.2,4.7c-7.2-3.3-29.2-7.7-29.2-7.7
	c-26.1,0-42.1,25.2-42.1,53.5c0,28.3,21.5,47.2,42.1,45.6c16.5-1.3,34.1-3.5,43.6-15.6l37.1-6.9c6.5,3.7,16.6,5.2,26.5,5.2
	c26.1,0,47.2-23,47.2-51.3C369.4,204.9,348.3,181.9,322.2,181.9z"/>
<path id="XMLID_62_" class="st0" d="M322.2,188.9c-12.7,0-31.4,8.4-39.8,21l-38.2,4.2c-7.2-2.9-29.2-5.4-29.2-5.4
	c-26.1,0-42.1,21-42.1,46.1c0,25.1,23.4,45.2,44,43.8c16.5-1.1,32.1-6.5,41.6-17.2l37.1-6.1c6.5,3.3,16.6,4.6,26.5,4.6
	c26.1,0,47.2-20.4,47.2-45.5C369.4,209.3,348.3,188.9,322.2,188.9z"/>
<ellipse id="XMLID_61_" class="st0" cx="325.1" cy="233.3" rx="16.9" ry="16.1"/>
<ellipse id="XMLID_60_" class="st0" cx="219.2" cy="253.6" rx="16.9" ry="16.1"/>
<ellipse id="XMLID_59_" class="st0" cx="110.1" cy="272.4" rx="16.3" ry="16.2"/>
<path id="XMLID_58_" class="st1" d="M96.7,264.8c2.6-8.4,17.1-9.9,21.9-4.7c4.8,5.1-6.1-5.6-15.2,0.5
	C94.3,266.5,94.1,273.3,96.7,264.8z"/>
<path id="XMLID_57_" class="st1" d="M206.2,246.6c2.6-8.4,17.1-9.9,21.9-4.7c4.8,5.1-6.1-5.6-15.2,0.5
	C203.7,248.3,203.5,255,206.2,246.6z"/>
<path id="XMLID_56_" class="st1" d="M312.2,225.7c2.6-8.4,17.1-9.9,21.9-4.7c4.8,5.1-6.1-5.6-15.2,0.5
	C309.8,227.4,309.6,234.1,312.2,225.7z"/>
<path id="XMLID_37_" class="st2" d="M427.4,162.4c-19.3,0-36.2,10.2-45.4,25.3c0,0-39.4,5-48.4,3.8c-1.7-0.6,9.7,75.4,9.7,75.4
	l51.9-7.9c8.9,6.6,20.3,7.9,32.2,7.9c29.3,0,53-23.4,53-52.3C480.4,185.8,456.7,162.4,427.4,162.4z"/>
<path id="XMLID_36_" class="st3" d="M425.5,167.2c-18.5,0-34.7,9.7-43.6,24.3l-44.5,3.9l9.6,71l48.2-7.3c8.5,6.3,18.9,8.3,30.3,8.3
	c28.1,0,50.9-22.4,50.9-50C476.4,189.6,453.6,167.2,425.5,167.2z"/>
<path id="XMLID_35_" class="st2" d="M223.2,289.6c0,0-63.9,4.2-83.4,24.7c-4.9,0.8-23.2-92.9-17.3-89.6c21.5,12,55.9-3.5,81.7-15.8
	C211,205.5,223.2,289.6,223.2,289.6z"/>
<path id="XMLID_34_" class="st3" d="M223.2,289.9c0,0-63.8,4.7-83.5,24.3c-4.9,0.9-22.1-88-16.3-84.9c21.3,11.2,55.8-3.9,81.7-15.9
	C212,210.2,223.2,289.9,223.2,289.9z"/>
<path id="XMLID_33_" class="st2" d="M109,220.2c-16.4,0-30.8,9-39.5,22.8L20,250.9l9,72.1l49.2-8.9c8.4,7.7,19.1,12.3,30.8,12.3
	c26.6,0,48.1-23.8,48.1-53.1C157.2,244,135.6,220.2,109,220.2z"/>
<path id="XMLID_32_" class="st3" d="M114.7,228.2c-14.4,0-27.2,7.7-34.9,19.4l-55.5,8.9l8.2,59.4l55.1-7.8
	c7.4,6.5,16.8,10.5,27.2,10.5c23.4,0,42.4-20.2,42.4-45.1C157.2,248.4,138.2,228.2,114.7,228.2z"/>
<ellipse id="XMLID_31_" class="st4" cx="429.4" cy="219.1" rx="19.6" ry="20.5"/>
<path id="XMLID_30_" class="st5" d="M438.1,219.9c0,10.8-4.1,19.5-11.4,19.5c-7.6,0-17-9.5-17-20.3c0-10.8,7.8-18.7,15.1-18.7
	C432.2,200.4,438.1,209.1,438.1,219.9z"/>
<path id="XMLID_29_" class="st2" d="M322.2,181.9c-12.7,0-31.4,9.5-39.8,23.7l-38.2,4.7c-7.2-3.3-29.2-7.7-29.2-7.7
	c-26.1,0-42.1,25.2-42.1,53.5c0,28.3,21.5,47.2,42.1,45.6c16.5-1.3,34.1-3.5,43.6-15.6l37.1-6.9c6.5,3.7,16.6,5.2,26.5,5.2
	c26.1,0,47.2-23,47.2-51.3C369.4,204.9,348.3,181.9,322.2,181.9z"/>
<path id="XMLID_28_" class="st3" d="M322.2,188.9c-12.7,0-31.4,8.4-39.8,21l-38.2,4.2c-7.2-2.9-29.2-5.4-29.2-5.4
	c-26.1,0-42.1,21-42.1,46.1c0,25.1,23.4,45.2,44,43.8c16.5-1.1,32.1-6.5,41.6-17.2l37.1-6.1c6.5,3.3,16.6,4.6,26.5,4.6
	c26.1,0,47.2-20.4,47.2-45.5C369.4,209.3,348.3,188.9,322.2,188.9z"/>
<ellipse id="XMLID_27_" class="st2" cx="325.1" cy="233.3" rx="16.9" ry="16.1"/>
<ellipse id="XMLID_26_" class="st2" cx="219.2" cy="253.6" rx="16.9" ry="16.1"/>
<ellipse id="XMLID_25_" class="st2" cx="110.1" cy="272.4" rx="16.3" ry="16.2"/>
<path id="XMLID_24_" class="st6" d="M96.7,264.8c2.6-8.4,17.1-9.9,21.9-4.7c4.8,5.1-6.1-5.6-15.2,0.5
	C94.3,266.5,94.1,273.3,96.7,264.8z"/>
<path id="XMLID_23_" class="st6" d="M206.2,246.6c2.6-8.4,17.1-9.9,21.9-4.7c4.8,5.1-6.1-5.6-15.2,0.5
	C203.7,248.3,203.5,255,206.2,246.6z"/>
<path id="XMLID_20_" class="st6" d="M312.2,225.7c2.6-8.4,17.1-9.9,21.9-4.7c4.8,5.1-6.1-5.6-15.2,0.5
	C309.8,227.4,309.6,234.1,312.2,225.7z"/>
</svg>
