<?xml version="1.0" encoding="utf-8"?>
<!-- Generator: Adobe Illustrator 19.0.0, SVG Export Plug-In . SVG Version: 6.00 Build 0)  -->
<svg version="1.1" id="Camada_1" xmlns="http://www.w3.org/2000/svg" xmlns:xlink="http://www.w3.org/1999/xlink" x="0px" y="0px"
	 viewBox="0 0 500 500" style="enable-background:new 0 0 500 500;" xml:space="preserve">
<style type="text/css">
	.st0{fill:#1A171B;stroke:#1A171B;stroke-width:4;stroke-miterlimit:10;}
	.st1{fill:#1A171B;stroke:#1A171B;stroke-width:4;stroke-linejoin:round;stroke-miterlimit:10;}
	.st2{fill:url(#XMLID_255_);stroke:#1A171B;stroke-miterlimit:10;}
	.st3{fill:url(#XMLID_256_);stroke:#1A171B;stroke-linejoin:round;stroke-miterlimit:10;}
	.st4{fill:#3D3D3F;stroke:#1A171B;stroke-width:0.5;stroke-linejoin:round;stroke-miterlimit:10;}
	.st5{fill:#58585A;stroke:#1A171B;stroke-width:0.5;stroke-linejoin:round;stroke-miterlimit:10;}
	.st6{fill:#6F7072;stroke:#1A171B;stroke-width:0.5;stroke-linejoin:round;stroke-miterlimit:10;}
	.st7{fill:url(#XMLID_257_);stroke:#1A171B;stroke-miterlimit:10;}
	.st8{fill:url(#XMLID_258_);stroke:#1A171B;stroke-miterlimit:10;}
	.st9{fill:#B0B2B3;}
	.st10{fill:url(#XMLID_259_);stroke:#1A171B;stroke-miterlimit:10;}
</style>
<path id="XMLID_254_" class="st0" d="M126.2,305c0,0-105-72.6-84.7-115.3c12.1-25.5,26.3-54.5,135.5-85
	c156.8-37.5,249.4,46,257.4,73.9c25.3,61.2-63,116.6-63,116.6s-44.9-49.8-134.1-46.5C140.5,252.2,126.2,305,126.2,305z"/>
<path id="XMLID_253_" class="st1" d="M243.7,342.9c-123.1,0-222.9-56.2-222.9-125.5L75.5,425h339.4l51.7-207.6
	C466.6,286.7,366.8,342.9,243.7,342.9z"/>
<path id="XMLID_252_" class="st1" d="M374.5,264.7c-3.6,1.1-11,3.2-12.1,3.8c-1.4,0.7-2.8-3.3-2.1-4.7c0.5-0.9,3.8-5,6-7.6
	c-0.9-0.9-1.9-1.7-2.9-2.6c-3.4,1.5-10.1,4.6-11.1,5.2c-1.3,0.9-3.2-2.9-2.7-4.4c0.3-0.9,2.6-4.7,4.4-7.7c-1.1-0.7-2.2-1.4-3.4-2.1
	c-2.9,2.4-7.2,5.9-7.9,6.6c-1.2,1.1-4,0.5-4.9-2.2c-0.3-0.8,2.1-5.5,4-9.1c-1.7-0.8-3.4-1.6-5.2-2.4c-2.8,2.5-6.6,6-7.3,6.7
	c-1.2,1.1-3.7-2.3-3.4-3.8c0.1-0.7,1.2-3.6,2.2-6.3c-1.4-0.5-2.8-1-4.2-1.5c-2.6,2.8-5.7,6.2-6.3,6.9c-1,1.3-4-1.8-3.9-3.3
	c0-0.7,0.7-3.4,1.5-6.3c-1.8-0.5-3.6-1-5.4-1.5c-2.5,2.6-4.9,5.5-5.8,6.2c-1.3,1-4-1.6-4-3.2c0-0.6,0.2-2.7,0.4-5.2
	c-2-0.4-3.9-0.8-5.9-1.2c-2.3,3.1-4.6,6.3-5,7c-0.9,1.4-4.1-1.4-4.2-2.9c0-0.6,0.3-2.9,0.6-5.5c-1.8-0.3-3.5-0.5-5.3-0.7
	c-1.6,2.9-3.1,5.6-3.3,6.3c-0.5,1.5-4.3-0.3-4.8-1.8c-0.2-0.6-0.5-2.8-0.7-5.5c-2.1-0.2-4.2-0.4-6.4-0.5c-1.5,2.5-2.8,4.9-3,5.6
	c-0.3,1.6-4.3,0.2-5-1.3c-0.2-0.5-0.9-2.4-1.7-4.8c-1.7-0.1-3.5-0.1-5.3-0.1c-1,3.2-1.2,6.1-1.3,6.9c-0.2,1.6-5.1,0.7-5.8-0.7
	c-0.3-0.6-1.5-3.2-2.8-6.2c-1.7,0-3.4,0.1-5.1,0.1c-0.2,3-0.4,6-0.4,6.7c-0.1,1.6-4.2,1-5.1-0.3c-0.4-0.5-2.1-3.1-4.1-5.8
	c-1.9,0.1-3.7,0.3-5.5,0.5c-0.3,3-0.5,5.9-0.5,6.6c0.1,1.6-4.1,1.4-5.1,0.2c-0.4-0.5-2.2-3-4.1-5.7c-1.6,0.2-3.2,0.4-4.8,0.7
	c-0.4,3.3-0.7,6.7-0.7,7.5c0.1,1.6-4.1,1.4-5.1,0.2c-0.5-0.5-2.7-3.2-5-5.9c-1.4,0.3-2.8,0.6-4.2,0.9c0.5,3.4,1,7.3,1.2,8.2
	c0.3,1.6-4,1.8-5.1,0.7c-0.5-0.5-3.4-3.5-6.2-6.4c-1.4,0.4-2.8,0.8-4.2,1.2c0.9,3,1.8,6.2,1.9,7c0.3,1.6-3.6,4.1-4.7,3
	c-0.6-0.6-4.8-3.5-8.8-6.2c-0.4,0.1-0.8,0.3-1.2,0.5c0.7,3.7,1.9,9.6,2.1,10.7c0.3,1.6-3.6,4.1-4.7,3c-0.7-0.6-6.5-4.7-11.1-7.9
	c-0.5,0.3-1.1,0.5-1.6,0.8c1.7,3.1,4.4,7.9,4.7,8.9c0.5,1.5-3,4.6-4.3,3.6c-0.8-0.6-7.2-4-11.5-6.3c-0.5,0.3-1,0.6-1.5,1
	c2.1,3,5.6,8.3,6,9.3c0.6,1.5-2.6,4.8-4,4c-0.9-0.6-8-3.4-12.5-5.1c-0.6,0.5-1.1,1.1-1.7,1.6c2.4,2.4,6.8,6.7,7.4,7.7
	c0.9,1.3-1.7,5.2-3.1,4.7c-1-0.4-6.6-3.2-10.4-5.2c-4.7,6.6-7.2,13.7-7.2,21c0,7,2.3,13.7,6.5,19.9c2.6-2.5,6.2-4.7,9.1-8.4
	c18-23,65.5-49,120.1-49c31.9,0,60.1,8.5,81.8,20.2c14.7,7.9,26.6,17.1,34.8,26.1c4,4.4,8.9,7.6,12.5,11.1c4.2-6.3,6.5-13,6.5-20
	C381.3,278.6,379.8,271.3,374.5,264.7z"/>
<polygon id="XMLID_251_" class="st1" points="248.5,139.8 247,141.3 242.1,140.6 242.1,104.7 248.5,103.8 "/>
<polygon id="XMLID_250_" class="st1" points="229.6,141.7 224.6,142.7 223.1,141.7 223.1,105.7 229.6,105.7 "/>
<polygon id="XMLID_249_" class="st1" points="212.1,143.1 207.2,144.2 205.7,143.1 205.7,107.2 212.1,107.2 "/>
<polygon id="XMLID_248_" class="st1" points="196.9,143.3 192.8,145.8 191.2,144 189.6,110 196.5,110 "/>
<polygon id="XMLID_247_" class="st1" points="182.6,147 178.4,149.9 176.7,148.6 173.3,113.5 179,112.5 "/>
<polygon id="XMLID_246_" class="st1" points="103.9,180.5 101.8,185 99.9,183 92.8,150.6 95.5,146.9 "/>
<polygon id="XMLID_245_" class="st1" points="139.3,161.7 136.3,166.4 134.4,164.5 129.4,126.9 132.6,125.3 "/>
<polygon id="XMLID_244_" class="st1" points="125.4,168.5 122.4,173.6 120.5,171.4 115.4,133.7 118.7,132.2 "/>
<polygon id="XMLID_243_" class="st1" points="154.1,155.7 151,160.2 149.2,158.6 144.1,120.9 147.4,119.4 "/>
<polygon id="XMLID_242_" class="st1" points="167.5,151.4 162.9,154.6 161.2,153.1 158.1,115.8 162.8,114.3 "/>
<polygon id="XMLID_241_" class="st1" points="264.8,140.8 263.4,142.7 258.3,141.7 258.3,105.7 264.8,105.7 "/>
<polygon id="XMLID_240_" class="st1" points="281.9,142.6 280.3,144 275.4,142.6 275.4,106.6 281.9,106.6 "/>
<polygon id="XMLID_239_" class="st1" points="298.4,144.6 296.3,146.1 291.2,143.7 291.2,107.7 297.7,107.7 "/>
<polygon id="XMLID_238_" class="st1" points="312.6,147.2 309.8,148.8 305.6,145.4 307.9,111.9 314.4,111.9 "/>
<polygon id="XMLID_237_" class="st1" points="327.7,152.1 325.1,153.7 323.1,151.3 323.6,113.7 328.9,116.9 "/>
<polygon id="XMLID_236_" class="st1" points="355.5,163.6 353.7,164.9 350.5,161.8 354.3,123.7 358.1,127.8 "/>
<polygon id="XMLID_235_" class="st1" points="368.2,171.3 365.7,171.8 363.2,169.5 367.1,131.4 370.9,135.4 "/>
<polygon id="XMLID_234_" class="st1" points="379.1,177.4 376.5,178.2 374.3,175.4 380.4,137.6 384,141.9 "/>
<polygon id="XMLID_233_" class="st1" points="388.6,183.9 386,184.8 385.3,180.7 391.5,145.6 395,148.3 "/>
<polygon id="XMLID_232_" class="st1" points="397.3,188.2 394.9,188.9 394.1,184.3 400.7,155.9 403.9,158.5 "/>
<polygon id="XMLID_231_" class="st1" points="405.5,194.1 403.3,194.1 402.6,191.4 409.1,165.4 412,166.5 "/>
<polygon id="XMLID_230_" class="st1" points="341.5,156.7 338.7,158.3 336.5,154.9 340.3,116.8 344.1,120.9 "/>
<polygon id="XMLID_229_" class="st1" points="114.4,174.5 112,179.1 110.2,176.6 101.5,140.1 105.3,137.6 "/>
<rect id="XMLID_228_" x="240.6" y="104" class="st1" width="6.5" height="37.4"/>
<polygon id="XMLID_227_" class="st1" points="231.1,142.2 224.6,142.7 224.6,105.3 231.1,105.3 "/>
<polygon id="XMLID_226_" class="st1" points="213,143.3 207.2,144.2 207.2,106.8 213.2,106.8 "/>
<polygon id="XMLID_225_" class="st1" points="197.4,144.2 192.8,145.8 191.4,109.8 196.4,110.2 "/>
<polygon id="XMLID_224_" class="st1" points="184.3,148.2 178.4,149.9 175,113.4 180.7,112.3 "/>
<polygon id="XMLID_223_" class="st1" points="105.8,182.3 101.8,185 94.8,151.2 96.7,148.1 "/>
<polygon id="XMLID_222_" class="st1" points="92.2,189.3 90.1,193.8 88.2,191.9 81.1,159.5 83.8,155.8 "/>
<polygon id="XMLID_221_" class="st1" points="93.1,189.8 90.4,193.8 82.7,160 84.7,156.9 "/>
<polygon id="XMLID_220_" class="st1" points="83.4,197.1 81.4,201.6 79.5,199.7 72.4,167.3 74.5,164.3 "/>
<polygon id="XMLID_219_" class="st1" points="84.5,197.5 81.4,201.6 74.3,167.9 75.7,165.9 "/>
<polygon id="XMLID_218_" class="st1" points="78.9,208.7 76.9,213.1 74.9,211.2 67.2,180.2 69.9,176.5 "/>
<polygon id="XMLID_217_" class="st1" points="79.7,208.8 76.9,213.1 69,180.6 71,177.5 "/>
<polygon id="XMLID_216_" class="st1" points="72.4,219.7 70.4,224.2 68.4,222.2 61.3,189.8 63.4,187.3 "/>
<polygon id="XMLID_215_" class="st1" points="74.3,221.5 70.4,224.2 63.3,190.5 65,187.7 "/>
<polygon id="XMLID_214_" class="st1" points="141.1,163.5 136.3,166.4 131.2,127.3 134.4,125.7 "/>
<polygon id="XMLID_213_" class="st1" points="127.3,170.6 122.4,173.6 117.3,134.5 120.6,132.9 "/>
<polygon id="XMLID_212_" class="st1" points="155.9,157.3 151,160.2 145.9,121.1 149.2,119.5 "/>
<polygon id="XMLID_211_" class="st1" points="169.2,152.8 162.9,154.6 159.8,115.8 164.5,114.2 "/>
<rect id="XMLID_210_" x="256.9" y="105.3" class="st1" width="6.5" height="37.4"/>
<rect id="XMLID_209_" x="273.8" y="106.6" class="st1" width="6.5" height="37.4"/>
<polygon id="XMLID_208_" class="st1" points="296.3,146.1 290.4,145 289.8,108.7 295.3,108.7 "/>
<polygon id="XMLID_207_" class="st1" points="309.8,148.8 303.9,147.1 306.2,111.3 311.7,111.3 "/>
<polygon id="XMLID_206_" class="st1" points="325.1,153.7 320.2,151.9 322.6,112.9 326.6,116.8 "/>
<polygon id="XMLID_205_" class="st1" points="353.7,164.9 348.7,163.1 352.5,123.4 356.2,127.7 "/>
<polygon id="XMLID_204_" class="st1" points="365.7,171.8 361.3,170.1 365.7,130.6 368.8,134.1 "/>
<polygon id="XMLID_203_" class="st1" points="376.5,178.2 371.7,176.1 377.8,136.8 381.3,141.2 "/>
<polygon id="XMLID_202_" class="st1" points="386,184.8 382.7,181.5 388.9,145 392.4,147.8 "/>
<polygon id="XMLID_201_" class="st1" points="394.9,188.9 391.7,184.8 398.3,155.2 401.5,158 "/>
<polygon id="XMLID_200_" class="st1" points="403.3,194.1 400.6,190.5 407.1,163.6 410,164.7 "/>
<polygon id="XMLID_199_" class="st1" points="412.2,204.1 410,204.1 409.3,201.4 415.8,175.5 418.7,176.5 "/>
<polygon id="XMLID_198_" class="st1" points="410,204.1 407.3,200.5 413.8,173.6 416.7,174.7 "/>
<polygon id="XMLID_197_" class="st1" points="415.8,216.8 413.7,216.9 413,214.1 419.5,188.2 422.4,189.3 "/>
<polygon id="XMLID_196_" class="st1" points="413.7,216.9 411,213.3 417.5,186.4 420.4,187.5 "/>
<polygon id="XMLID_195_" class="st1" points="415.8,239.4 413.7,239.4 413,236.7 419.5,210.8 422.4,211.8 "/>
<polygon id="XMLID_194_" class="st1" points="413.7,239.4 411,235.8 417.5,208.9 420.4,210 "/>
<polygon id="XMLID_193_" class="st1" points="338.7,158.3 333.7,156.5 338.1,116.9 341.9,120 "/>
<polygon id="XMLID_192_" class="st1" points="116.1,176.9 112,179.1 103.3,141.1 107,138.5 "/>
<path id="XMLID_191_" class="st1" d="M248,253.7l-4.1-3.1l0.2-22.7c0,0,0.2,0.3,1.6,0.5c3.1,0.4,3.1-0.8,3.1-0.8l0,20.9L248,253.7z"
	/>
<path id="XMLID_190_" class="st1" d="M261.8,253.3l-3.6-3.7l0-22.7c0,0,0.2,0.3,1.6,0.5c3.1,0.4,2.6-0.8,2.6-0.8l0.5,22.9
	L261.8,253.3z"/>
<path id="XMLID_189_" class="st1" d="M276.2,254.2l-3.6-2.7l0.2-22.7c0,0,0.2,0.3,1.6,0.5c3.1,0.4,2.7-0.4,2.7-0.4l0.1,22.4
	L276.2,254.2z"/>
<path id="XMLID_188_" class="st1" d="M248,253.7h-4.1l0.2-25.7c0,0,1,0.6,2,0.6c1.5,0,1.9,0,1.9,0V253.7z"/>
<path id="XMLID_187_" class="st1" d="M234.6,248.8l-0.7,5.7h-3.5l-0.6-5.3l0.1-21.5c0,0,0.2,0.5,2.4,0.8c2.2,0.3,2.3-0.4,2.3-0.4
	L234.6,248.8z"/>
<path id="XMLID_186_" class="st1" d="M233.9,254.6h-3.5l0-0.8l0-3.8l0.2-21.9c0,0,0.1,0.2,1.7,0.4c1.2,0.1,1.4,0,1.4,0l0.1,25.1
	L233.9,254.6z"/>
<path id="XMLID_185_" class="st1" d="M205.6,254.3l-3.2,3.2l-1.2-2.9l-1.5-23.2c0,0,1.1,1,2.7,0.8c2.3-0.3,2-0.6,2-0.6L205.6,254.3z
	"/>
<path id="XMLID_184_" class="st1" d="M219.9,250.6l-0.5,4.9h-3.5l-1.2-4.3v-22.1c0,0,1.1,0.7,2.6,0.6c2.3-0.2,2-0.5,2-0.5
	L219.9,250.6z"/>
<path id="XMLID_183_" class="st1" d="M206.1,256.9l-3.6,0.6l-1.7-25.5c0,0,1.2,0.3,2.4,0.1c1.8-0.3,1.8-1.1,1.8-1.1L206.1,256.9z"/>
<path id="XMLID_182_" class="st1" d="M132.6,286.3l-3.7,1.6l-1.8-17.9c0,0,0.8,0.6,2.8-0.7c0.9-0.6,1.1-2.3,1.1-2.3L132.6,286.3z"/>
<path id="XMLID_181_" class="st1" d="M134.1,285.8l-3.7,1.7l-2.2-17.3c0,0,0.7-0.2,2.2-2c0.5-0.6,0.6-2.2,0.6-2.2L134.1,285.8z"/>
<path id="XMLID_180_" class="st1" d="M261.8,253.3l-3.9-0.5v-26.2c0,0,0.9,0.7,1.8,0.8c1.3,0.1,1.7,0.1,1.7,0.1L261.8,253.3z"/>
<path id="XMLID_179_" class="st1" d="M276.2,254.2l-3.6-0.8l0.4-24.9c0,0,0.6,0.7,2.2,0.8l0.9,0L276.2,254.2z"/>
<path id="XMLID_178_" class="st1" d="M289.4,257.8l-2.6-3.8l-1-23.2c0,0,0.6,0.8,2,1.5c1.6,0.7,2.5-1.7,2.5-1.7l0.2,23.8
	L289.4,257.8z"/>
<path id="XMLID_177_" class="st1" d="M302.6,260.8l0.1-2.2l-1.5-0.8l-0.5-24.4c0,0,0.5,0.9,2,1.5c1.2,0.5,2.5-1.4,2.5-1.4l-0.7,25.1
	L302.6,260.8z"/>
<path id="XMLID_176_" class="st1" d="M289.4,257.8l-3.5-1.2l-0.6-26.5c0,0,0.7,1.2,2.2,1.9c1.3,0.5,1.7,0.1,1.7,0.1L289.4,257.8z"/>
<path id="XMLID_175_" class="st1" d="M302.6,260.8l-3.3-1.4l0.8-27c0,0,0.1,0.5,1.2,1.6c1.2,1.1,2.4,1,2.4,1L302.6,260.8z"/>
<path id="XMLID_174_" class="st1" d="M316.9,263.5l-2,0.7l-2.1-1.3l1.4-24.8c0,0,0.2,0.6,1.6,1.4c1.3,0.7,2-0.3,2-0.3L316.9,263.5z"
	/>
<path id="XMLID_173_" class="st1" d="M314.9,264.2l-2.7-1.1l1.7-25.7c0,0,0,0.5,0.7,1.2c1,1,1.7,1,1.7,1L314.9,264.2z"/>
<path id="XMLID_172_" class="st1" d="M339.1,276.3l-1.6,0.3l-2.3-1.9l2.6-25.6c0,0,0.4,1.4,1.9,2.3c0.8,0.5,2.3,0.4,2.3,0.4
	L339.1,276.3z"/>
<path id="XMLID_171_" class="st1" d="M337.5,276.6l-2.9-1.9l3.2-25.6c0,0,0.2,0.9,1.2,1.8c0.4,0.4,1.5,0.9,1.5,0.9L337.5,276.6z"/>
<path id="XMLID_170_" class="st1" d="M349.8,281.8l-4.2-1.8l4-25c0,0,0,1.2,0.9,2.7c1.3,2.1,3.4,0.3,3.4,0.3L349.8,281.8z"/>
<path id="XMLID_169_" class="st1" d="M347.9,285l-3-2.7l4.6-27.5c0,0-0.1,1.5,0.9,2.8c1,1.2,1.6,1,1.6,1L347.9,285z"/>
<path id="XMLID_168_" class="st1" d="M360.7,287.7l-3.8-1l3.1-21.9c0,0,0.1,1.3,0.9,3c0.8,1.7,3,0.1,3,0.1L360.7,287.7z"/>
<path id="XMLID_167_" class="st1" d="M359.7,287.8l-2.7-1l3.1-21.9c0,0-0.1,1.3,0.9,3c0.7,1.3,1.7,0.6,1.7,0.6L359.7,287.8z"/>
<path id="XMLID_166_" class="st1" d="M328.7,269.5l-1.9,0.8l-1-3.9l1.2-22.8c0,0,1.5,1.8,3,0C330,243.8,328.7,269.5,328.7,269.5z"/>
<path id="XMLID_165_" class="st1" d="M326.8,270.3l-3-1.8l2-27.2c0,0,0.5,2,2.3,3C328,245.8,326.8,270.3,326.8,270.3z"/>
<path id="XMLID_164_" class="st0" d="M243.2,94.7c112.6,0.1,203.8,52,203.8,116c0,64.1-91.4,115.1-204.2,115.1
	c-112.8,0-204.2-51-204.2-115.1c0-64.1,91.4-116.1,204.2-116.1c0,0,0,0,0,0c-123.2,0-223,55.4-223,123.7
	c0,68.3,99.8,124.5,223,124.5s223.7-55.8,223.7-124.1C466.5,150.6,366.2,94.8,243.2,94.7z"/>
<path id="XMLID_163_" class="st0" d="M243.8,96.2c-0.2,0-0.4,0-0.6,0c112.5,0.2,203.6,51.7,203.6,115.2
	c0,63.6-91.4,115.2-204.1,115.2c-112.4,0-203.4-51.4-204-114.7c0,0.2,0,0.5,0,0.7c0,64.2,91.6,117.6,205,117.6
	s205.4-53.4,205.4-117.6C449.1,148.2,357.2,96.2,243.8,96.2z"/>
<path id="XMLID_162_" class="st0" d="M246.1,221.4c76,0,137.7,30.8,138.2,68.9c0-0.1,0,0.1,0,0c1.4-39.4-61.9-70.6-138.2-70.6
	S109,248.7,107.9,289.8c0,0.1,0,0.3,0,0.4C108.3,252.2,170,221.4,246.1,221.4z"/>
<path id="XMLID_161_" class="st1" d="M143.1,281.2l-1.8,2.3l-1.1-0.4l-2.6-21.8c0,0,0.8,0.4,2.3-0.8c1.4-1.1,1.7-2.8,1.7-2.8
	L143.1,281.2z"/>
<path id="XMLID_160_" class="st1" d="M154.3,274.5l-2.1,2.7l-1.5-1.3l-2.1-22.5c0,0,1.2,0.4,2.5-0.3c1.4-0.8,1.8-2.7,1.8-2.7
	L154.3,274.5z"/>
<path id="XMLID_159_" class="st1" d="M166.5,269.4l-3.1,2.1l-1.5-2.2l-1.6-21.8c0,0,1.4,1.4,3,0.5c1.3-0.8,2.1-1.5,2.1-1.5
	L166.5,269.4z"/>
<path id="XMLID_158_" class="st1" d="M178.7,261.6l-2.9,4l-1-2.5l-1.4-23.2c0,0,1.2,0.6,2.5-0.1c1.4-0.8,2-1.4,2-1.4L178.7,261.6z"
	/>
<path id="XMLID_157_" class="st1" d="M145,280.3l-3.7,3.2l-2.3-22.3c0,0,0.7-0.1,1.8-1.3c1.2-1.4,0.8-2.5,0.8-2.5L145,280.3z"/>
<path id="XMLID_156_" class="st1" d="M155.6,275.1l-3.4,2l-2.5-23.7c0,0,0.5,0,1.7-1c1.3-1.2,1.5-2.3,1.5-2.3L155.6,275.1z"/>
<path id="XMLID_155_" class="st1" d="M167.1,269.4l-3.7,2l-1.5-23.4c0,0,0.7-0.2,2.4-1.2c1.7-1,1-3,1-3L167.1,269.4z"/>
<path id="XMLID_154_" class="st1" d="M179.6,264.4l-3.7,1.3l-1.4-25.4c0,0,1.1,0,2.5-1.2c1.4-1.3,1.2-2,1.2-2L179.6,264.4z"/>
<path id="XMLID_153_" class="st1" d="M192.6,258.3l-3.9,3.2l-1-3.2l-1.1-23.1c0,0,0.5,0.7,2.7,0.6c2.3-0.1,2.4-0.6,2.4-0.6
	L192.6,258.3z"/>
<path id="XMLID_152_" class="st1" d="M192.8,260.1l-4.1,1.4l-1-25.7c0,0,0.5,0.3,2.3,0.1c1.9-0.2,1.7-1.4,1.7-1.4L192.8,260.1z"/>
<path id="XMLID_151_" class="st1" d="M219.4,255.5h-3.5l-0.2-26.1c0,0,0.4,0.2,1.6,0.3c0.9,0.1,1.6-0.3,1.6-0.3L219.4,255.5z"/>
<path id="XMLID_148_" class="st0" d="M242.8,94.7c-112.8,0-204.2,51.7-204.2,115.6c0,31.3,22.1,60.9,57.8,81.7
	c37.1,21.6,88.9,33.8,146.3,33.8c70.3,0,132.8-19.4,169.5-50.1c22.2-18.5,34.7-41.5,34.7-65.5C447,146.5,355.6,94.7,242.8,94.7z
	 M436.2,208.6c-0.7-0.2-14.1-0.4-16.4,0c-1.9,0.4-3.1,3.5-2.6,4.5c0.8,1.7,15.9,5,16.7,6.3c0.7,1.3,0.1,1.5-0.2,2
	c-0.2,0.3-14.4-0.4-16.8-0.3c-1.9,0.1-3.5,3-3.2,4.1c0.6,1.8,15,6.6,15.4,7.4c0.4,0.8-0.2,2.2-0.8,2.1c-9.9-1.6-16-1.8-18.3-1.9
	c-2,0-4.1,2.9-4,4.1c0.3,1.9,14.1,8.6,13.8,9.5c-0.3,0.9-1.4,2.1-1.7,2.4c-0.3,0.4-15.6-3.4-17.9-3.8c-2-0.4-4.6,2.2-4.6,3.4
	c0,2,3.4,5.5,11.3,11.1c-0.2,1.3-1.3,1.9-1.8,1.5c-9.4-3.7-14-3.8-16.2-4.5c-1.9-0.6-5.6-0.1-6.8,2.3c-0.9,1.7,9.4,11,9.3,12.4
	c-0.1,1.1-1.2,2.4-1.9,2.2c-9.9-4.7-14.4-4.9-16.5-5.8c-1.8-0.8-5.5-0.8-7.1,1.4c-1.1,1.6-0.2,4.8,6.7,12.5c0.5,1-1.8,2.5-2.6,1.9
	c-0.7-0.5-13.7-5.6-15.7-6.4c-1.9-0.7-5.5-0.8-7.1,1.4c-1.2,1.7-1,5.1,3.7,12.7c-1.1,1-2.3,1.4-3.2,1.3c-7.5-6.5-12-7.7-14.5-8.2
	c-2-0.4-5.5-0.8-7.1,1.4c-1.2,1.7-0.6,10.4,0.3,13.8c-0.8,1.2-2.5,1.6-4.2,1.1c-6.1-5.1-9.2-7.3-12.7-9.4c-1.7-1-6.2-0.3-7.1,1.4
	c-1.4,2.9-1.9,5.5-1.5,12.3c-0.6,1.8-4.5,1.8-5.3,1c-0.8-0.8-9.3-9-11-10.2c-1.6-1.2-6.6-0.5-8.1,1.7c-1.1,1.7-2.2,4.7-3.6,12.2
	c-1.9,1.1-4.1,1.2-5.9,0.4c-2.1-8.6-7.6-10.7-8-11c-1.9-1.4-7.1-1.6-9,0.3c-1.4,1.4-4.9,6.5-6.5,11.3c-1.4,1-3.6,1.3-4.7,0
	c-1.1-1.3-5.2-9.6-5.9-10.9c-0.7-1.2-6.1-2.5-8.2-0.9c-1.5,1.2-6.2,5.9-8.5,11.1c-3.2,1.2-6,0.6-7.7-0.7c-0.2-8-1.4-9.4-2-11.3
	c-0.7-2.3-5.9-3-8.1-1.5c-1.6,1-6.8,6.2-10.5,10.1c-2.4,1.4-5.3,0.3-5.9-1c-0.6-1.3-0.7-9.9-0.9-11.5c-0.3-2.3-4.1-3.4-6.5-2.2
	c-1.7,0.8-7.1,4.7-12.3,9.5c-2,0.7-5.9-0.8-6-1.2c-0.2-1.7,1.5-9.6,1.5-11.4c0-2.4-4.3-3-6.9-2.2c-2,0.7-9.4,3.3-15.7,9.1
	c-0.8,0.7-2.8,1-2.5-1c0.3-2,3.4-10.8,3.7-12.6c0.4-2.3-3-4.4-5.6-3.9c-2.1,0.4-16.4,6.2-18,7.2c-1.6,0.9-3.3-0.3-3.4-1.3
	c0-1,7-8.8,7.4-10.6c0.5-2.3-2.7-4.6-5.4-4.3c-2.1,0.2-15.7,6.1-16.8,6c-1.1-0.1-3.3-1.4-3.1-2.3c0.2-0.9,11.2-9.1,9.8-11.5
	c-2.6-4.5-21.8,1-23.1,1.3c-1.3,0.3-2.6-1.1-1.8-1.9c0.8-0.8,13.7-8.8,12.3-11.5c-1.6-3-14.7-1.9-22.6,0.2c-0.6,0.1-1.3-0.8-1.1-1.8
	c7.3-3.1,14.7-7.9,13.2-10.4c-2.2-3.7-14.2-2.1-21.1-0.3c-1.1,0.2-1.3-1.6-0.8-2.3c7.4-3,15.3-7.1,14-9.9
	c-1.1-2.2-10.8-2.1-17.2-1.2c-1.3,0.6-2.5-1.6-1.5-2.3c7-1.9,16.1-5.4,15.2-8.3c-0.7-2.3-16-2.1-16.9-2.1c-0.9,0-0.6-2.3,0.1-2.8
	c0.6-0.5,16.6-3.1,16.5-6C66.2,199,58,198,51,197.4c-0.9-0.5-0.5-2.2,0.8-2.6c6.5,0.2,16.3-2.2,16.4-4.4c0.1-2.3-7-3.7-13.5-4.8
	c-0.8-1-0.8-2.5,1.1-3c7.6-0.4,16.7-0.2,16.8-3c0.1-2.1-4.8-4.5-12-6.7c-0.5-0.8-0.2-1.4,0.9-1.7c4.8,0.7,16.6,0.5,17.5-2
	c0.6-1.7-3.1-4.5-9.5-6.6c-1.2-0.4-0.1-1.9,0.6-2.2c6.8,1.1,16.3,1.4,16.9-0.4c0.7-2-5.5-6.1-7.1-7.3c-1.9-1.3,1.4-2.1,1.4-2.1
	c0.4-0.4,13.2,2.8,15.8-0.3c1.5-1.8-3.3-5.1-6.6-7.9c-0.6-0.5,0.4-1.2,1.8-0.9c4.6,1.4,13,3.6,15,0.4c1.5-2.5-1-4-5-7.8
	c-0.3-1.5,2.6-1.3,2.7-1.4c5.4,2.2,12.8,3.7,15,1c1.7-2.1,0.7-3-2.9-7c0.3-0.9,1.1-1.5,2.7-1.3c6,3.1,11.3,4.8,13.8,2.6
	c2.1-1.7,0.9-2.1-1.5-6.9c0-2,2.9-3,4.7-1.8c4.6,4.7,9.7,4.8,11.7,3.6c2.5-1.4,0.7-3.3-0.9-8.5c0.5-1.7,2.2-1.9,4-1.2
	c2.9,4.5,7.5,5.4,10.6,4.3c2.6-0.9,3-1.7,2.4-7c0.5-1.5,2.5-2.4,4.1-1.4c2.8,4.3,5.4,6.1,8.8,5.5c3.1-0.5,3.2-1.1,3.2-6.2
	c0.1-1.3,2.8-3.1,4-1.9c3.7,3.4,5.5,5.1,8.9,5c3.3-0.1,3.3-1.5,3.7-6.1c1-2.3,4.1-1.7,5.6-1c2.6,4.4,3.7,5.2,7.3,5.1
	c3.3-0.1,3.7-0.7,4.1-5.4c1-2.2,4.1-2.3,6-1c2.4,3.9,3.5,4.4,6.8,4.7c3.2,0.2,3.9-0.6,4.8-5.3c1.3-1.7,4.4-2.6,6.3-0.6
	c0.8,4.9,1.6,5.5,5,6.1c4.1,0.7,5.6-4.4,6.1-6.1c1.4-1.8,4.4-2.4,5.4-0.3c0.8,4.9,2.4,5.8,5.8,6.4c3.3,0.6,4.5-0.4,5.9-4.9
	c1.7-2.2,6.2-1.6,6.7-0.2c0.8,4.9,1,5.5,4.3,6c3.1,0.5,4.1-1,7.1-4.5c2.6-1.7,3.8-1.7,4.9,0.1c0.3,4.8-1.1,7,2.5,6.9
	c3.1-0.1,6.3-1,9.8-5c1.3-0.6,4.1-1.2,5.1,0c0,5.3-1.1,7,2.1,7.8c2.9,0.8,4.8-0.1,9.1-4.4c1.8-1.4,3.9-1,5,0.4
	c-1.4,5.1,0.1,7,1.5,7.1c2.8,0.2,4.2-0.7,8.5-3.4c3.9-1.5,6.9-1.3,6.5,0.1c-2.1,3.2-2.1,7.7-0.7,8c2.6,0.6,7.7-1.6,11.9-3.5
	c2.1-0.2,3-0.2,4.6,1c-3.8,4.8-4.5,5.9-2.2,7.5c1.8,1.3,6-0.1,13.1-3.2c1.1-0.2,1.8,0.1,3.4,1.7c-3.2,3.2-5,6.8-2.8,8.5
	c1.8,1.3,7.2,0.5,14.4-3.2c1.1,0.1,1.8,0.4,2.2,1.2c-5.6,3.6-6.6,6.7-4.7,8.6c1.8,1.8,8.6,0.5,16.1-1.7c1-0.2,1.6-0.3,2.3,0.9
	c-6.1,4.1-8.5,7.1-7.6,8.4c0.8,1.3,8.6,2.4,16.9,0.2c0.8,0.1,1.5,0.9,1.8,2c-6.5,3.9-10,5.6-8.8,7.6c0.9,1.4,9,1.4,17.3,0.5
	c0.8,0.2,0.9,0.6,0.4,1.7c-6.8,3.7-10.4,5.3-9.6,6.8c0.7,1.4,12.2,2.6,17.1,2.7c0.7,1,1.2,1.2,1,2.1c-8.6,3.8-12.4,3.2-11.9,5
	c0.7,2.6,16.6,4.2,17.4,4.3c0.9,0.1,0.7,2,0.4,2.4c-6.8,2.5-14.8,2.8-14.3,4.7c0.5,1.8,8.6,3.7,16.4,4.5c1.3,0.4,2.3,1.8,1.9,3
	c-5.6,0.4-11.5,0.8-13.9,1.6c-1.9,0.6-2.7,3.8-2.1,4.7c1.1,1.8,10,3.1,16.8,4.2C437.3,206.3,436.9,208.7,436.2,208.6z"/>
<linearGradient id="XMLID_255_" gradientUnits="userSpaceOnUse" x1="38.9699" y1="200.0472" x2="439.0883" y2="200.0472">
	<stop  offset="0.1333" style="stop-color:#3D3D3F"/>
	<stop  offset="0.2848" style="stop-color:#3D3D3F"/>
	<stop  offset="0.4545" style="stop-color:#6F7072"/>
	<stop  offset="0.5333" style="stop-color:#9B9C9E"/>
	<stop  offset="0.6303" style="stop-color:#58585A"/>
	<stop  offset="0.8" style="stop-color:#272629"/>
	<stop  offset="0.8606" style="stop-color:#1A171B"/>
</linearGradient>
<path id="XMLID_147_" class="st2" d="M126.2,305c0,0-105-72.6-84.7-115.3c12.1-25.5,26.3-54.5,135.5-85
	c156.8-37.5,249.4,46,257.4,73.9c25.3,61.2-63,116.6-63,116.6s-44.9-49.8-134.1-46.5C140.5,252.2,126.2,305,126.2,305z"/>
<linearGradient id="XMLID_256_" gradientUnits="userSpaceOnUse" x1="20.8008" y1="321.1972" x2="466.5518" y2="321.1972">
	<stop  offset="3.030300e-002" style="stop-color:#3D3D3F"/>
	<stop  offset="0.303" style="stop-color:#9B9C9E"/>
	<stop  offset="0.5273" style="stop-color:#ECECED"/>
	<stop  offset="0.7515" style="stop-color:#A6A7A9"/>
	<stop  offset="1" style="stop-color:#6F7072"/>
</linearGradient>
<path id="XMLID_146_" class="st3" d="M243.7,342.9c-123.1,0-222.9-56.2-222.9-125.5L75.5,425h339.4l51.7-207.6
	C466.6,286.7,366.8,342.9,243.7,342.9z"/>
<path id="XMLID_145_" class="st4" d="M374.5,264.7c-3.6,1.1-11,3.2-12.1,3.8c-1.4,0.7-2.8-3.3-2.1-4.7c0.5-0.9,3.8-5,6-7.6
	c-0.9-0.9-1.9-1.7-2.9-2.6c-3.4,1.5-10.1,4.6-11.1,5.2c-1.3,0.9-3.2-2.9-2.7-4.4c0.3-0.9,2.6-4.7,4.4-7.7c-1.1-0.7-2.2-1.4-3.4-2.1
	c-2.9,2.4-7.2,5.9-7.9,6.6c-1.2,1.1-4,0.5-4.9-2.2c-0.3-0.8,2.1-5.5,4-9.1c-1.7-0.8-3.4-1.6-5.2-2.4c-2.8,2.5-6.6,6-7.3,6.7
	c-1.2,1.1-3.7-2.3-3.4-3.8c0.1-0.7,1.2-3.6,2.2-6.3c-1.4-0.5-2.8-1-4.2-1.5c-2.6,2.8-5.7,6.2-6.3,6.9c-1,1.3-4-1.8-3.9-3.3
	c0-0.7,0.7-3.4,1.5-6.3c-1.8-0.5-3.6-1-5.4-1.5c-2.5,2.6-4.9,5.5-5.8,6.2c-1.3,1-4-1.6-4-3.2c0-0.6,0.2-2.7,0.4-5.2
	c-2-0.4-3.9-0.8-5.9-1.2c-2.3,3.1-4.6,6.3-5,7c-0.9,1.4-4.1-1.4-4.2-2.9c0-0.6,0.3-2.9,0.6-5.5c-1.8-0.3-3.5-0.5-5.3-0.7
	c-1.6,2.9-3.1,5.6-3.3,6.3c-0.5,1.5-4.3-0.3-4.8-1.8c-0.2-0.6-0.5-2.8-0.7-5.5c-2.1-0.2-4.2-0.4-6.4-0.5c-1.5,2.5-2.8,4.9-3,5.6
	c-0.3,1.6-4.3,0.2-5-1.3c-0.2-0.5-0.9-2.4-1.7-4.8c-1.7-0.1-3.5-0.1-5.3-0.1c-1,3.2-1.2,6.1-1.3,6.9c-0.2,1.6-5.1,0.7-5.8-0.7
	c-0.3-0.6-1.5-3.2-2.8-6.2c-1.7,0-3.4,0.1-5.1,0.1c-0.2,3-0.4,6-0.4,6.7c-0.1,1.6-4.2,1-5.1-0.3c-0.4-0.5-2.1-3.1-4.1-5.8
	c-1.9,0.1-3.7,0.3-5.5,0.5c-0.3,3-0.5,5.9-0.5,6.6c0.1,1.6-4.1,1.4-5.1,0.2c-0.4-0.5-2.2-3-4.1-5.7c-1.6,0.2-3.2,0.4-4.8,0.7
	c-0.4,3.3-0.7,6.7-0.7,7.5c0.1,1.6-4.1,1.4-5.1,0.2c-0.5-0.5-2.7-3.2-5-5.9c-1.4,0.3-2.8,0.6-4.2,0.9c0.5,3.4,1,7.3,1.2,8.2
	c0.3,1.6-4,1.8-5.1,0.7c-0.5-0.5-3.4-3.5-6.2-6.4c-1.4,0.4-2.8,0.8-4.2,1.2c0.9,3,1.8,6.2,1.9,7c0.3,1.6-3.6,4.1-4.7,3
	c-0.6-0.6-4.8-3.5-8.8-6.2c-0.4,0.1-0.8,0.3-1.2,0.5c0.7,3.7,1.9,9.6,2.1,10.7c0.3,1.6-3.6,4.1-4.7,3c-0.7-0.6-6.5-4.7-11.1-7.9
	c-0.5,0.3-1.1,0.5-1.6,0.8c1.7,3.1,4.4,7.9,4.7,8.9c0.5,1.5-3,4.6-4.3,3.6c-0.8-0.6-7.2-4-11.5-6.3c-0.5,0.3-1,0.6-1.5,1
	c2.1,3,5.6,8.3,6,9.3c0.6,1.5-2.6,4.8-4,4c-0.9-0.6-8-3.4-12.5-5.1c-0.6,0.5-1.1,1.1-1.7,1.6c2.4,2.4,6.8,6.7,7.4,7.7
	c0.9,1.3-1.7,5.2-3.1,4.7c-1-0.4-6.6-3.2-10.4-5.2c-4.7,6.6-7.2,13.7-7.2,21c0,7,2.3,13.7,6.5,19.9c2.6-2.5,6.2-4.7,9.1-8.4
	c18-23,65.5-49,120.1-49c31.9,0,60.1,8.5,81.8,20.2c14.7,7.9,26.6,17.1,34.8,26.1c4,4.4,8.9,7.6,12.5,11.1c4.2-6.3,6.5-13,6.5-20
	C381.3,278.6,379.8,271.3,374.5,264.7z"/>
<polygon id="XMLID_144_" class="st5" points="248.5,139.8 247,141.3 242.1,140.6 242.1,104.7 248.5,103.8 "/>
<polygon id="XMLID_143_" class="st5" points="229.6,141.7 224.6,142.7 223.1,141.7 223.1,105.7 229.6,105.7 "/>
<polygon id="XMLID_142_" class="st5" points="212.1,143.1 207.2,144.2 205.7,143.1 205.7,107.2 212.1,107.2 "/>
<polygon id="XMLID_141_" class="st5" points="196.9,143.3 192.8,145.8 191.2,144 189.6,110 196.5,110 "/>
<polygon id="XMLID_140_" class="st5" points="182.6,147 178.4,149.9 176.7,148.6 173.3,113.5 179,112.5 "/>
<polygon id="XMLID_139_" class="st5" points="103.9,180.5 101.8,185 99.9,183 92.8,150.6 95.5,146.9 "/>
<polygon id="XMLID_138_" class="st5" points="139.3,161.7 136.3,166.4 134.4,164.5 129.4,126.9 132.6,125.3 "/>
<polygon id="XMLID_137_" class="st5" points="125.4,168.5 122.4,173.6 120.5,171.4 115.4,133.7 118.7,132.2 "/>
<polygon id="XMLID_136_" class="st5" points="154.1,155.7 151,160.2 149.2,158.6 144.1,120.9 147.4,119.4 "/>
<polygon id="XMLID_135_" class="st5" points="167.5,151.4 162.9,154.6 161.2,153.1 158.1,115.8 162.8,114.3 "/>
<polygon id="XMLID_134_" class="st5" points="264.8,140.8 263.4,142.7 258.3,141.7 258.3,105.7 264.8,105.7 "/>
<polygon id="XMLID_133_" class="st5" points="281.9,142.6 280.3,144 275.4,142.6 275.4,106.6 281.9,106.6 "/>
<polygon id="XMLID_132_" class="st5" points="298.4,144.6 296.3,146.1 291.2,143.7 291.2,107.7 297.7,107.7 "/>
<polygon id="XMLID_131_" class="st5" points="312.6,147.2 309.8,148.8 305.6,145.4 307.9,111.9 314.4,111.9 "/>
<polygon id="XMLID_130_" class="st5" points="327.7,152.1 325.1,153.7 323.1,151.3 323.6,113.7 328.9,116.9 "/>
<polygon id="XMLID_129_" class="st5" points="355.5,163.6 353.7,164.9 350.5,161.8 354.3,123.7 358.1,127.8 "/>
<polygon id="XMLID_128_" class="st5" points="368.2,171.3 365.7,171.8 363.2,169.5 367.1,131.4 370.9,135.4 "/>
<polygon id="XMLID_127_" class="st5" points="379.1,177.4 376.5,178.2 374.3,175.4 380.4,137.6 384,141.9 "/>
<polygon id="XMLID_126_" class="st5" points="388.6,183.9 386,184.8 385.3,180.7 391.5,145.6 395,148.3 "/>
<polygon id="XMLID_125_" class="st5" points="397.3,188.2 394.9,188.9 394.1,184.3 400.7,155.9 403.9,158.5 "/>
<polygon id="XMLID_124_" class="st5" points="405.5,194.1 403.3,194.1 402.6,191.4 409.1,165.4 412,166.5 "/>
<polygon id="XMLID_123_" class="st5" points="341.5,156.7 338.7,158.3 336.5,154.9 340.3,116.8 344.1,120.9 "/>
<polygon id="XMLID_122_" class="st5" points="114.4,174.5 112,179.1 110.2,176.6 101.5,140.1 105.3,137.6 "/>
<rect id="XMLID_121_" x="240.6" y="104" class="st6" width="6.5" height="37.4"/>
<polygon id="XMLID_120_" class="st6" points="231.1,142.2 224.6,142.7 224.6,105.3 231.1,105.3 "/>
<polygon id="XMLID_119_" class="st6" points="213,143.3 207.2,144.2 207.2,106.8 213.2,106.8 "/>
<polygon id="XMLID_118_" class="st6" points="197.4,144.2 192.8,145.8 191.4,109.8 196.4,110.2 "/>
<polygon id="XMLID_117_" class="st6" points="184.3,148.2 178.4,149.9 175,113.4 180.7,112.3 "/>
<polygon id="XMLID_116_" class="st6" points="105.8,182.3 101.8,185 94.8,151.2 96.7,148.1 "/>
<polygon id="XMLID_115_" class="st5" points="92.2,189.3 90.1,193.8 88.2,191.9 81.1,159.5 83.8,155.8 "/>
<polygon id="XMLID_114_" class="st6" points="93.1,189.8 90.4,193.8 82.7,160 84.7,156.9 "/>
<polygon id="XMLID_113_" class="st5" points="83.4,197.1 81.4,201.6 79.5,199.7 72.4,167.3 74.5,164.3 "/>
<polygon id="XMLID_112_" class="st6" points="84.5,197.5 81.4,201.6 74.3,167.9 75.7,165.9 "/>
<polygon id="XMLID_111_" class="st5" points="78.9,208.7 76.9,213.1 74.9,211.2 67.2,180.2 69.9,176.5 "/>
<polygon id="XMLID_110_" class="st6" points="79.7,208.8 76.9,213.1 69,180.6 71,177.5 "/>
<polygon id="XMLID_109_" class="st5" points="72.4,219.7 70.4,224.2 68.4,222.2 61.3,189.8 63.4,187.3 "/>
<polygon id="XMLID_108_" class="st6" points="74.3,221.5 70.4,224.2 63.3,190.5 65,187.7 "/>
<polygon id="XMLID_107_" class="st6" points="141.1,163.5 136.3,166.4 131.2,127.3 134.4,125.7 "/>
<polygon id="XMLID_106_" class="st6" points="127.3,170.6 122.4,173.6 117.3,134.5 120.6,132.9 "/>
<polygon id="XMLID_105_" class="st6" points="155.9,157.3 151,160.2 145.9,121.1 149.2,119.5 "/>
<polygon id="XMLID_104_" class="st6" points="169.2,152.8 162.9,154.6 159.8,115.8 164.5,114.2 "/>
<rect id="XMLID_103_" x="256.9" y="105.3" class="st6" width="6.5" height="37.4"/>
<rect id="XMLID_102_" x="273.8" y="106.6" class="st6" width="6.5" height="37.4"/>
<polygon id="XMLID_101_" class="st6" points="296.3,146.1 290.4,145 289.8,108.7 295.3,108.7 "/>
<polygon id="XMLID_100_" class="st6" points="309.8,148.8 303.9,147.1 306.2,111.3 311.7,111.3 "/>
<polygon id="XMLID_99_" class="st6" points="325.1,153.7 320.2,151.9 322.6,112.9 326.6,116.8 "/>
<polygon id="XMLID_98_" class="st6" points="353.7,164.9 348.7,163.1 352.5,123.4 356.2,127.7 "/>
<polygon id="XMLID_97_" class="st6" points="365.7,171.8 361.3,170.1 365.7,130.6 368.8,134.1 "/>
<polygon id="XMLID_96_" class="st6" points="376.5,178.2 371.7,176.1 377.8,136.8 381.3,141.2 "/>
<polygon id="XMLID_95_" class="st6" points="386,184.8 382.7,181.5 388.9,145 392.4,147.8 "/>
<polygon id="XMLID_94_" class="st6" points="394.9,188.9 391.7,184.8 398.3,155.2 401.5,158 "/>
<polygon id="XMLID_93_" class="st6" points="403.3,194.1 400.6,190.5 407.1,163.6 410,164.7 "/>
<polygon id="XMLID_92_" class="st5" points="412.2,204.1 410,204.1 409.3,201.4 415.8,175.5 418.7,176.5 "/>
<polygon id="XMLID_91_" class="st6" points="410,204.1 407.3,200.5 413.8,173.6 416.7,174.7 "/>
<polygon id="XMLID_90_" class="st5" points="415.8,216.8 413.7,216.9 413,214.1 419.5,188.2 422.4,189.3 "/>
<polygon id="XMLID_89_" class="st6" points="413.7,216.9 411,213.3 417.5,186.4 420.4,187.5 "/>
<polygon id="XMLID_88_" class="st5" points="415.8,239.4 413.7,239.4 413,236.7 419.5,210.8 422.4,211.8 "/>
<polygon id="XMLID_87_" class="st6" points="413.7,239.4 411,235.8 417.5,208.9 420.4,210 "/>
<polygon id="XMLID_86_" class="st6" points="338.7,158.3 333.7,156.5 338.1,116.9 341.9,120 "/>
<polygon id="XMLID_85_" class="st6" points="116.1,176.9 112,179.1 103.3,141.1 107,138.5 "/>
<path id="XMLID_84_" class="st5" d="M248,253.7l-4.1-3.1l0.2-22.7c0,0,0.2,0.3,1.6,0.5c3.1,0.4,3.1-0.8,3.1-0.8l0,20.9L248,253.7z"
	/>
<path id="XMLID_83_" class="st5" d="M261.8,253.3l-3.6-3.7l0-22.7c0,0,0.2,0.3,1.6,0.5c3.1,0.4,2.6-0.8,2.6-0.8l0.5,22.9
	L261.8,253.3z"/>
<path id="XMLID_82_" class="st5" d="M276.2,254.2l-3.6-2.7l0.2-22.7c0,0,0.2,0.3,1.6,0.5c3.1,0.4,2.7-0.4,2.7-0.4l0.1,22.4
	L276.2,254.2z"/>
<path id="XMLID_81_" class="st6" d="M248,253.7h-4.1l0.2-25.7c0,0,1,0.6,2,0.6c1.5,0,1.9,0,1.9,0V253.7z"/>
<path id="XMLID_80_" class="st5" d="M234.6,248.8l-0.7,5.7h-3.5l-0.6-5.3l0.1-21.5c0,0,0.2,0.5,2.4,0.8c2.2,0.3,2.3-0.4,2.3-0.4
	L234.6,248.8z"/>
<path id="XMLID_79_" class="st6" d="M233.9,254.6h-3.5l0-0.8l0-3.8l0.2-21.9c0,0,0.1,0.2,1.7,0.4c1.2,0.1,1.4,0,1.4,0l0.1,25.1
	L233.9,254.6z"/>
<path id="XMLID_78_" class="st5" d="M205.6,254.3l-3.2,3.2l-1.2-2.9l-1.5-23.2c0,0,1.1,1,2.7,0.8c2.3-0.3,2-0.6,2-0.6L205.6,254.3z"
	/>
<path id="XMLID_77_" class="st5" d="M219.9,250.6l-0.5,4.9h-3.5l-1.2-4.3v-22.1c0,0,1.1,0.7,2.6,0.6c2.3-0.2,2-0.5,2-0.5
	L219.9,250.6z"/>
<path id="XMLID_76_" class="st6" d="M206.1,256.9l-3.6,0.6l-1.7-25.5c0,0,1.2,0.3,2.4,0.1c1.8-0.3,1.8-1.1,1.8-1.1L206.1,256.9z"/>
<path id="XMLID_75_" class="st5" d="M132.6,286.3l-3.7,1.6l-1.8-17.9c0,0,0.8,0.6,2.8-0.7c0.9-0.6,1.1-2.3,1.1-2.3L132.6,286.3z"/>
<path id="XMLID_74_" class="st6" d="M134.1,285.8l-3.7,1.7l-2.2-17.3c0,0,0.7-0.2,2.2-2c0.5-0.6,0.6-2.2,0.6-2.2L134.1,285.8z"/>
<path id="XMLID_73_" class="st6" d="M261.8,253.3l-3.9-0.5v-26.2c0,0,0.9,0.7,1.8,0.8c1.3,0.1,1.7,0.1,1.7,0.1L261.8,253.3z"/>
<path id="XMLID_72_" class="st6" d="M276.2,254.2l-3.6-0.8l0.4-24.9c0,0,0.6,0.7,2.2,0.8l0.9,0L276.2,254.2z"/>
<path id="XMLID_71_" class="st5" d="M289.4,257.8l-2.6-3.8l-1-23.2c0,0,0.6,0.8,2,1.5c1.6,0.7,2.5-1.7,2.5-1.7l0.2,23.8L289.4,257.8
	z"/>
<path id="XMLID_70_" class="st5" d="M302.6,260.8l0.1-2.2l-1.5-0.8l-0.5-24.4c0,0,0.5,0.9,2,1.5c1.2,0.5,2.5-1.4,2.5-1.4l-0.7,25.1
	L302.6,260.8z"/>
<path id="XMLID_69_" class="st6" d="M289.4,257.8l-3.5-1.2l-0.6-26.5c0,0,0.7,1.2,2.2,1.9c1.3,0.5,1.7,0.1,1.7,0.1L289.4,257.8z"/>
<path id="XMLID_68_" class="st6" d="M302.6,260.8l-3.3-1.4l0.8-27c0,0,0.1,0.5,1.2,1.6c1.2,1.1,2.4,1,2.4,1L302.6,260.8z"/>
<path id="XMLID_67_" class="st5" d="M316.9,263.5l-2,0.7l-2.1-1.3l1.4-24.8c0,0,0.2,0.6,1.6,1.4c1.3,0.7,2-0.3,2-0.3L316.9,263.5z"
	/>
<path id="XMLID_66_" class="st6" d="M314.9,264.2l-2.7-1.1l1.7-25.7c0,0,0,0.5,0.7,1.2c1,1,1.7,1,1.7,1L314.9,264.2z"/>
<path id="XMLID_65_" class="st5" d="M339.1,276.3l-1.6,0.3l-2.3-1.9l2.6-25.6c0,0,0.4,1.4,1.9,2.3c0.8,0.5,2.3,0.4,2.3,0.4
	L339.1,276.3z"/>
<path id="XMLID_64_" class="st6" d="M337.5,276.6l-2.9-1.9l3.2-25.6c0,0,0.2,0.9,1.2,1.8c0.4,0.4,1.5,0.9,1.5,0.9L337.5,276.6z"/>
<path id="XMLID_63_" class="st5" d="M349.8,281.8l-4.2-1.8l4-25c0,0,0,1.2,0.9,2.7c1.3,2.1,3.4,0.3,3.4,0.3L349.8,281.8z"/>
<path id="XMLID_62_" class="st6" d="M347.9,285l-3-2.7l4.6-27.5c0,0-0.1,1.5,0.9,2.8c1,1.2,1.6,1,1.6,1L347.9,285z"/>
<path id="XMLID_61_" class="st5" d="M360.7,287.7l-3.8-1l3.1-21.9c0,0,0.1,1.3,0.9,3c0.8,1.7,3,0.1,3,0.1L360.7,287.7z"/>
<path id="XMLID_60_" class="st6" d="M359.7,287.8l-2.7-1l3.1-21.9c0,0-0.1,1.3,0.9,3c0.7,1.3,1.7,0.6,1.7,0.6L359.7,287.8z"/>
<path id="XMLID_59_" class="st5" d="M328.7,269.5l-1.9,0.8l-1-3.9l1.2-22.8c0,0,1.5,1.8,3,0C330,243.8,328.7,269.5,328.7,269.5z"/>
<path id="XMLID_58_" class="st6" d="M326.8,270.3l-3-1.8l2-27.2c0,0,0.5,2,2.3,3C328,245.8,326.8,270.3,326.8,270.3z"/>
<linearGradient id="XMLID_257_" gradientUnits="userSpaceOnUse" x1="245.1398" y1="38.3689" x2="240.1398" y2="499.3701">
	<stop  offset="6.060610e-002" style="stop-color:#B0B2B3"/>
	<stop  offset="0.1515" style="stop-color:#FFFFFF"/>
	<stop  offset="0.2727" style="stop-color:#B0B2B3"/>
	<stop  offset="0.4" style="stop-color:#F0F1F1"/>
	<stop  offset="0.5152" style="stop-color:#B0B2B3"/>
	<stop  offset="0.6303" style="stop-color:#FFFFFF"/>
	<stop  offset="0.7212" style="stop-color:#C5C6C8"/>
	<stop  offset="0.8182" style="stop-color:#F5F5F6"/>
	<stop  offset="0.9515" style="stop-color:#B0B2B3"/>
</linearGradient>
<path id="XMLID_57_" class="st7" d="M243.2,94.7c112.6,0.1,203.8,52,203.8,116c0,64.1-91.4,115.1-204.2,115.1
	c-112.8,0-204.2-51-204.2-115.1c0-64.1,91.4-116.1,204.2-116.1c0,0,0,0,0,0c-123.2,0-223,55.4-223,123.7
	c0,68.3,99.8,124.5,223,124.5s223.7-55.8,223.7-124.1C466.5,150.6,366.2,94.8,243.2,94.7z"/>
<linearGradient id="XMLID_258_" gradientUnits="userSpaceOnUse" x1="38.667" y1="213.1218" x2="449.0908" y2="213.1218">
	<stop  offset="6.060610e-002" style="stop-color:#B0B2B3"/>
	<stop  offset="0.2727" style="stop-color:#3D3D3F"/>
	<stop  offset="0.4" style="stop-color:#F0F1F1"/>
	<stop  offset="0.5152" style="stop-color:#B0B2B3"/>
	<stop  offset="0.6303" style="stop-color:#FFFFFF"/>
	<stop  offset="0.7212" style="stop-color:#3D3D3F"/>
	<stop  offset="0.9515" style="stop-color:#B0B2B3"/>
</linearGradient>
<path id="XMLID_56_" class="st8" d="M243.8,96.2c-0.2,0-0.4,0-0.6,0c112.5,0.2,203.6,51.7,203.6,115.2
	c0,63.6-91.4,115.2-204.1,115.2c-112.4,0-203.4-51.4-204-114.7c0,0.2,0,0.5,0,0.7c0,64.2,91.6,117.6,205,117.6
	s205.4-53.4,205.4-117.6C449.1,148.2,357.2,96.2,243.8,96.2z"/>
<path id="XMLID_37_" class="st9" d="M246.1,221.4c76,0,137.7,30.8,138.2,68.9c0-0.1,0,0.1,0,0c1.4-39.4-61.9-70.6-138.2-70.6
	S109,248.7,107.9,289.8c0,0.1,0,0.3,0,0.4C108.3,252.2,170,221.4,246.1,221.4z"/>
<path id="XMLID_36_" class="st5" d="M143.1,281.2l-1.8,2.3l-1.1-0.4l-2.6-21.8c0,0,0.8,0.4,2.3-0.8c1.4-1.1,1.7-2.8,1.7-2.8
	L143.1,281.2z"/>
<path id="XMLID_35_" class="st5" d="M154.3,274.5l-2.1,2.7l-1.5-1.3l-2.1-22.5c0,0,1.2,0.4,2.5-0.3c1.4-0.8,1.8-2.7,1.8-2.7
	L154.3,274.5z"/>
<path id="XMLID_34_" class="st5" d="M166.5,269.4l-3.1,2.1l-1.5-2.2l-1.6-21.8c0,0,1.4,1.4,3,0.5c1.3-0.8,2.1-1.5,2.1-1.5
	L166.5,269.4z"/>
<path id="XMLID_33_" class="st5" d="M178.7,261.6l-2.9,4l-1-2.5l-1.4-23.2c0,0,1.2,0.6,2.5-0.1c1.4-0.8,2-1.4,2-1.4L178.7,261.6z"/>
<path id="XMLID_32_" class="st6" d="M145,280.3l-3.7,3.2l-2.3-22.3c0,0,0.7-0.1,1.8-1.3c1.2-1.4,0.8-2.5,0.8-2.5L145,280.3z"/>
<path id="XMLID_31_" class="st6" d="M155.6,275.1l-3.4,2l-2.5-23.7c0,0,0.5,0,1.7-1c1.3-1.2,1.5-2.3,1.5-2.3L155.6,275.1z"/>
<path id="XMLID_30_" class="st6" d="M167.1,269.4l-3.7,2l-1.5-23.4c0,0,0.7-0.2,2.4-1.2c1.7-1,1-3,1-3L167.1,269.4z"/>
<path id="XMLID_29_" class="st6" d="M179.6,264.4l-3.7,1.3l-1.4-25.4c0,0,1.1,0,2.5-1.2c1.4-1.3,1.2-2,1.2-2L179.6,264.4z"/>
<path id="XMLID_28_" class="st5" d="M192.6,258.3l-3.9,3.2l-1-3.2l-1.1-23.1c0,0,0.5,0.7,2.7,0.6c2.3-0.1,2.4-0.6,2.4-0.6
	L192.6,258.3z"/>
<path id="XMLID_27_" class="st6" d="M192.8,260.1l-4.1,1.4l-1-25.7c0,0,0.5,0.3,2.3,0.1c1.9-0.2,1.7-1.4,1.7-1.4L192.8,260.1z"/>
<path id="XMLID_26_" class="st6" d="M219.4,255.5h-3.5l-0.2-26.1c0,0,0.4,0.2,1.6,0.3c0.9,0.1,1.6-0.3,1.6-0.3L219.4,255.5z"/>
<linearGradient id="XMLID_259_" gradientUnits="userSpaceOnUse" x1="38.667" y1="210.2756" x2="447" y2="210.2756">
	<stop  offset="6.060610e-002" style="stop-color:#B0B2B3"/>
	<stop  offset="0.1515" style="stop-color:#FFFFFF"/>
	<stop  offset="0.2727" style="stop-color:#B0B2B3"/>
	<stop  offset="0.4" style="stop-color:#F0F1F1"/>
	<stop  offset="0.5152" style="stop-color:#B0B2B3"/>
	<stop  offset="0.6303" style="stop-color:#FFFFFF"/>
	<stop  offset="0.7212" style="stop-color:#C5C6C8"/>
	<stop  offset="0.8182" style="stop-color:#F5F5F6"/>
	<stop  offset="0.9515" style="stop-color:#B0B2B3"/>
</linearGradient>
<path id="XMLID_23_" class="st10" d="M242.8,94.7c-112.8,0-204.2,51.7-204.2,115.6c0,31.3,22.1,60.9,57.8,81.7
	c37.1,21.6,88.9,33.8,146.3,33.8c70.3,0,132.8-19.4,169.5-50.1c22.2-18.5,34.7-41.5,34.7-65.5C447,146.5,355.6,94.7,242.8,94.7z
	 M436.2,208.6c-0.7-0.2-14.1-0.4-16.4,0c-1.9,0.4-3.1,3.5-2.6,4.5c0.8,1.7,15.9,5,16.7,6.3c0.7,1.3,0.1,1.5-0.2,2
	c-0.2,0.3-14.4-0.4-16.8-0.3c-1.9,0.1-3.5,3-3.2,4.1c0.6,1.8,15,6.6,15.4,7.4c0.4,0.8-0.2,2.2-0.8,2.1c-9.9-1.6-16-1.8-18.3-1.9
	c-2,0-4.1,2.9-4,4.1c0.3,1.9,14.1,8.6,13.8,9.5c-0.3,0.9-1.4,2.1-1.7,2.4c-0.3,0.4-15.6-3.4-17.9-3.8c-2-0.4-4.6,2.2-4.6,3.4
	c0,2,3.4,5.5,11.3,11.1c-0.2,1.3-1.3,1.9-1.8,1.5c-9.4-3.7-14-3.8-16.2-4.5c-1.9-0.6-5.6-0.1-6.8,2.3c-0.9,1.7,9.4,11,9.3,12.4
	c-0.1,1.1-1.2,2.4-1.9,2.2c-9.9-4.7-14.4-4.9-16.5-5.8c-1.8-0.8-5.5-0.8-7.1,1.4c-1.1,1.6-0.2,4.8,6.7,12.5c0.5,1-1.8,2.5-2.6,1.9
	c-0.7-0.5-13.7-5.6-15.7-6.4c-1.9-0.7-5.5-0.8-7.1,1.4c-1.2,1.7-1,5.1,3.7,12.7c-1.1,1-2.3,1.4-3.2,1.3c-7.5-6.5-12-7.7-14.5-8.2
	c-2-0.4-5.5-0.8-7.1,1.4c-1.2,1.7-0.6,10.4,0.3,13.8c-0.8,1.2-2.5,1.6-4.2,1.1c-6.1-5.1-9.2-7.3-12.7-9.4c-1.7-1-6.2-0.3-7.1,1.4
	c-1.4,2.9-1.9,5.5-1.5,12.3c-0.6,1.8-4.5,1.8-5.3,1c-0.8-0.8-9.3-9-11-10.2c-1.6-1.2-6.6-0.5-8.1,1.7c-1.1,1.7-2.2,4.7-3.6,12.2
	c-1.9,1.1-4.1,1.2-5.9,0.4c-2.1-8.6-7.6-10.7-8-11c-1.9-1.4-7.1-1.6-9,0.3c-1.4,1.4-4.9,6.5-6.5,11.3c-1.4,1-3.6,1.3-4.7,0
	c-1.1-1.3-5.2-9.6-5.9-10.9c-0.7-1.2-6.1-2.5-8.2-0.9c-1.5,1.2-6.2,5.9-8.5,11.1c-3.2,1.2-6,0.6-7.7-0.7c-0.2-8-1.4-9.4-2-11.3
	c-0.7-2.3-5.9-3-8.1-1.5c-1.6,1-6.8,6.2-10.5,10.1c-2.4,1.4-5.3,0.3-5.9-1c-0.6-1.3-0.7-9.9-0.9-11.5c-0.3-2.3-4.1-3.4-6.5-2.2
	c-1.7,0.8-7.1,4.7-12.3,9.5c-2,0.7-5.9-0.8-6-1.2c-0.2-1.7,1.5-9.6,1.5-11.4c0-2.4-4.3-3-6.9-2.2c-2,0.7-9.4,3.3-15.7,9.1
	c-0.8,0.7-2.8,1-2.5-1c0.3-2,3.4-10.8,3.7-12.6c0.4-2.3-3-4.4-5.6-3.9c-2.1,0.4-16.4,6.2-18,7.2c-1.6,0.9-3.3-0.3-3.4-1.3
	c0-1,7-8.8,7.4-10.6c0.5-2.3-2.7-4.6-5.4-4.3c-2.1,0.2-15.7,6.1-16.8,6c-1.1-0.1-3.3-1.4-3.1-2.3c0.2-0.9,11.2-9.1,9.8-11.5
	c-2.6-4.5-21.8,1-23.1,1.3c-1.3,0.3-2.6-1.1-1.8-1.9c0.8-0.8,13.7-8.8,12.3-11.5c-1.6-3-14.7-1.9-22.6,0.2c-0.6,0.1-1.3-0.8-1.1-1.8
	c7.3-3.1,14.7-7.9,13.2-10.4c-2.2-3.7-14.2-2.1-21.1-0.3c-1.1,0.2-1.3-1.6-0.8-2.3c7.4-3,15.3-7.1,14-9.9
	c-1.1-2.2-10.8-2.1-17.2-1.2c-1.3,0.6-2.5-1.6-1.5-2.3c7-1.9,16.1-5.4,15.2-8.3c-0.7-2.3-16-2.1-16.9-2.1c-0.9,0-0.6-2.3,0.1-2.8
	c0.6-0.5,16.6-3.1,16.5-6C66.2,199,58,198,51,197.4c-0.9-0.5-0.5-2.2,0.8-2.6c6.5,0.2,16.3-2.2,16.4-4.4c0.1-2.3-7-3.7-13.5-4.8
	c-0.8-1-0.8-2.5,1.1-3c7.6-0.4,16.7-0.2,16.8-3c0.1-2.1-4.8-4.5-12-6.7c-0.5-0.8-0.2-1.4,0.9-1.7c4.8,0.7,16.6,0.5,17.5-2
	c0.6-1.7-3.1-4.5-9.5-6.6c-1.2-0.4-0.1-1.9,0.6-2.2c6.8,1.1,16.3,1.4,16.9-0.4c0.7-2-5.5-6.1-7.1-7.3c-1.9-1.3,1.4-2.1,1.4-2.1
	c0.4-0.4,13.2,2.8,15.8-0.3c1.5-1.8-3.3-5.1-6.6-7.9c-0.6-0.5,0.4-1.2,1.8-0.9c4.6,1.4,13,3.6,15,0.4c1.5-2.5-1-4-5-7.8
	c-0.3-1.5,2.6-1.3,2.7-1.4c5.4,2.2,12.8,3.7,15,1c1.7-2.1,0.7-3-2.9-7c0.3-0.9,1.1-1.5,2.7-1.3c6,3.1,11.3,4.8,13.8,2.6
	c2.1-1.7,0.9-2.1-1.5-6.9c0-2,2.9-3,4.7-1.8c4.6,4.7,9.7,4.8,11.7,3.6c2.5-1.4,0.7-3.3-0.9-8.5c0.5-1.7,2.2-1.9,4-1.2
	c2.9,4.5,7.5,5.4,10.6,4.3c2.6-0.9,3-1.7,2.4-7c0.5-1.5,2.5-2.4,4.1-1.4c2.8,4.3,5.4,6.1,8.8,5.5c3.1-0.5,3.2-1.1,3.2-6.2
	c0.1-1.3,2.8-3.1,4-1.9c3.7,3.4,5.5,5.1,8.9,5c3.3-0.1,3.3-1.5,3.7-6.1c1-2.3,4.1-1.7,5.6-1c2.6,4.4,3.7,5.2,7.3,5.1
	c3.3-0.1,3.7-0.7,4.1-5.4c1-2.2,4.1-2.3,6-1c2.4,3.9,3.5,4.4,6.8,4.7c3.2,0.2,3.9-0.6,4.8-5.3c1.3-1.7,4.4-2.6,6.3-0.6
	c0.8,4.9,1.6,5.5,5,6.1c4.1,0.7,5.6-4.4,6.1-6.1c1.4-1.8,4.4-2.4,5.4-0.3c0.8,4.9,2.4,5.8,5.8,6.4c3.3,0.6,4.5-0.4,5.9-4.9
	c1.7-2.2,6.2-1.6,6.7-0.2c0.8,4.9,1,5.5,4.3,6c3.1,0.5,4.1-1,7.1-4.5c2.6-1.7,3.8-1.7,4.9,0.1c0.3,4.8-1.1,7,2.5,6.9
	c3.1-0.1,6.3-1,9.8-5c1.3-0.6,4.1-1.2,5.1,0c0,5.3-1.1,7,2.1,7.8c2.9,0.8,4.8-0.1,9.1-4.4c1.8-1.4,3.9-1,5,0.4
	c-1.4,5.1,0.1,7,1.5,7.1c2.8,0.2,4.2-0.7,8.5-3.4c3.9-1.5,6.9-1.3,6.5,0.1c-2.1,3.2-2.1,7.7-0.7,8c2.6,0.6,7.7-1.6,11.9-3.5
	c2.1-0.2,3-0.2,4.6,1c-3.8,4.8-4.5,5.9-2.2,7.5c1.8,1.3,6-0.1,13.1-3.2c1.1-0.2,1.8,0.1,3.4,1.7c-3.2,3.2-5,6.8-2.8,8.5
	c1.8,1.3,7.2,0.5,14.4-3.2c1.1,0.1,1.8,0.4,2.2,1.2c-5.6,3.6-6.6,6.7-4.7,8.6c1.8,1.8,8.6,0.5,16.1-1.7c1-0.2,1.6-0.3,2.3,0.9
	c-6.1,4.1-8.5,7.1-7.6,8.4c0.8,1.3,8.6,2.4,16.9,0.2c0.8,0.1,1.5,0.9,1.8,2c-6.5,3.9-10,5.6-8.8,7.6c0.9,1.4,9,1.4,17.3,0.5
	c0.8,0.2,0.9,0.6,0.4,1.7c-6.8,3.7-10.4,5.3-9.6,6.8c0.7,1.4,12.2,2.6,17.1,2.7c0.7,1,1.2,1.2,1,2.1c-8.6,3.8-12.4,3.2-11.9,5
	c0.7,2.6,16.6,4.2,17.4,4.3c0.9,0.1,0.7,2,0.4,2.4c-6.8,2.5-14.8,2.8-14.3,4.7c0.5,1.8,8.6,3.7,16.4,4.5c1.3,0.4,2.3,1.8,1.9,3
	c-5.6,0.4-11.5,0.8-13.9,1.6c-1.9,0.6-2.7,3.8-2.1,4.7c1.1,1.8,10,3.1,16.8,4.2C437.3,206.3,436.9,208.7,436.2,208.6z"/>
</svg>
