<?xml version="1.0" encoding="utf-8"?>
<!-- Generator: Adobe Illustrator 19.0.0, SVG Export Plug-In . SVG Version: 6.00 Build 0)  -->
<svg version="1.1" id="Camada_1" xmlns="http://www.w3.org/2000/svg" xmlns:xlink="http://www.w3.org/1999/xlink" x="0px" y="0px"
	 viewBox="0 0 500 500" style="enable-background:new 0 0 500 500;" xml:space="preserve">
<style type="text/css">
	.st0{stroke:#000000;stroke-width:8.4993;stroke-miterlimit:10;}
	.st1{fill:#E6E6E6;stroke:#000000;stroke-width:2.8331;stroke-miterlimit:10;}
	.st2{fill:#3C3C3B;stroke:#000000;stroke-width:2.8331;stroke-miterlimit:10;}
	.st3{fill:#C6C6C6;stroke:#000000;stroke-width:2.8331;stroke-miterlimit:10;}
	.st4{fill:#EDEDED;stroke:#000000;stroke-width:2.8331;stroke-miterlimit:10;}
	.st5{stroke:#000000;stroke-width:2.8331;stroke-miterlimit:10;}
	.st6{fill:#575756;stroke:#000000;stroke-width:2.8331;stroke-miterlimit:10;}
	.st7{fill:#FFFFFF;stroke:#000000;stroke-width:2.8331;stroke-miterlimit:10;}
	.st8{fill:#CCCCCC;stroke:#000000;stroke-width:2.8331;stroke-miterlimit:10;}
	.st9{fill:#F6F6F6;}
	.st10{fill:#DADADA;}
</style>
<g>
	<path id="XMLID_93_" class="st0" d="M389.4,150.6c0.1-5.2-1.2-11.5-4.1-17.9c-6-13.3-16.3-21.7-23-18.7l-18.6,8.3
		c-0.9-1.1-1.8-2.1-2.6-3.2l3.8-1.7l-0.2-0.4c0.8-0.1,1.5-0.2,2.2-0.5c6.7-3,7.3-16.3,1.4-29.6c-6-13.3-16.3-21.7-23-18.7
		c-0.7,0.3-1.3,0.8-1.9,1.3l-0.2-0.4L296.8,81c-1.3-0.7-2.6-1.4-3.9-2.1l1.8-0.8c6.7-3,7.3-16.3,1.4-29.6s-16.3-21.7-23-18.7
		l-18.3,8.2c-6.1-12.3-15.7-19.8-22.1-16.9l-44.6,20c-2.5,1.1-4.1,3.7-4.9,7.1l-12.3,5.5c-2.9-1.5-5.7-1.9-8.1-0.8l-44.6,20
		c-2.5,1.1-4.1,3.7-4.9,7.1l-19.6,8.8c-6.7,3-7.3,16.3-1.4,29.6c1.3,2.9,2.8,5.6,4.5,8l-15,6.7c-6.7,3-7.3,16.3-1.4,29.6
		c0.5,1.1,1,2.2,1.6,3.2c-9.7,6.2-18,13-24.6,20.2c-0.3,0.4-0.7,0.7-1,1.1c-0.6,0.7-1.2,1.4-1.8,2.1c-0.7,0.8-1.4,1.6-2,2.5
		c-0.4,0.5-0.8,1-1.2,1.5c-0.8,1.1-1.6,2.3-2.4,3.5c-0.2,0.3-0.3,0.5-0.5,0.8c-6.1,9.6-9.5,19.8-9.5,30.3c0,0.9,0.1,1.8,0.1,2.6
		v54.5v22.6v52.6v0.2c0,51.6,78.5,94.2,180.7,101.3c5.8,8.5,13.3,13.1,18.5,10.7l10.5-4.7c6,9.9,14.3,15.5,20,13l23.7-10.6
		c3.1,1.7,6.1,2.2,8.6,1l42.5-19C413.1,435.1,461,400.3,461,360v-0.2v-52.6v-22.6v-57.3C461,196.8,433.3,169.4,389.4,150.6z"/>
	<path id="XMLID_92_" class="st1" d="M250.1,329.9c-116.5,0-211-45.8-211-102.4v132.4c0,56.6,94.4,102.4,211,102.4
		c116.5,0,211-45.8,211-102.4V227.5C461,284,366.6,329.9,250.1,329.9z"/>
	<path id="XMLID_89_" class="st1" d="M250.1,125.1c-116.5,0-211,45.8-211,102.4c0,56.6,94.4,102.4,211,102.4
		c116.5,0,211-45.8,211-102.4C461,170.9,366.6,125.1,250.1,125.1z M250.1,310.7c-97,0-176.3-36.8-181.8-83.3
		c-0.2-1.7-0.3-3.4-0.3-5.1c0-48.8,81.5-88.4,182.1-88.4c100.6,0,182.1,39.6,182.1,88.4c0,1.7-0.1,3.4-0.3,5.1
		C426.4,273.9,347.1,310.7,250.1,310.7z"/>
	<path id="XMLID_88_" class="st2" d="M250.1,133.9C149.5,133.9,68,173.5,68,222.3c0,1.7,0.1,3.4,0.3,5.1
		c5.5,46.4,84.7,83.3,181.8,83.3s176.3-36.8,181.8-83.3c0.2-1.7,0.3-3.4,0.3-5.1C432.2,173.5,350.6,133.9,250.1,133.9z"/>
	<g>
		<g>
			<path id="XMLID_87_" class="st3" d="M296.7,390.4c-6.7,3-7.3,16.3-1.4,29.6c6,13.3,16.3,21.7,23,18.7l44.6-20l-21.6-48.3
				L296.7,390.4z"/>
			<path id="XMLID_86_" class="st3" d="M272.6,216.5c-6.7,3-7.3,16.3-1.4,29.6c6,13.3,16.3,21.7,23,18.7l44.6-20l-21.6-48.3
				L272.6,216.5z"/>
			<path id="XMLID_85_" class="st3" d="M247.8,165.7c-6.7,3-7.3,16.3-1.4,29.6c6,13.3,16.3,21.7,23,18.7l44.6-20l-21.6-48.3
				L247.8,165.7z"/>
			<path id="XMLID_84_" class="st3" d="M293.6,268.2c-6.7,3-7.3,16.3-1.4,29.6c6,13.3,16.3,21.7,23,18.7l44.6-20l-21.6-48.3
				L293.6,268.2z"/>
			<path id="XMLID_83_" class="st3" d="M300.9,326.8c-6.7,3-7.3,16.3-1.4,29.6c6,13.3,16.3,21.7,23,18.7l44.6-20l-21.6-48.3
				L300.9,326.8z"/>
			<path id="XMLID_82_" class="st3" d="M208.7,120.8c-6.7,3-7.3,16.3-1.4,29.6c6,13.3,16.3,21.7,23,18.7l44.6-20l-21.6-48.3
				L208.7,120.8z"/>
			<path id="XMLID_81_" class="st3" d="M364.3,389.2c6,13.3,5.4,26.6-1.4,29.6c-6.7,3-17-5.4-23-18.7c-6-13.3-5.4-26.6,1.4-29.6
				C348.1,367.5,358.4,375.9,364.3,389.2z"/>
			<path id="XMLID_80_" class="st3" d="M342.3,214.3c6,13.3,5.4,26.6-1.4,29.6c-6.7,3-17-5.4-23-18.7c-6-13.3-5.4-26.6,1.4-29.6
				C326,192.6,336.3,201,342.3,214.3z"/>
			<path id="XMLID_79_" class="st3" d="M315.4,164.5c6,13.3,5.4,26.6-1.4,29.6c-6.7,3-17-5.4-23-18.7c-6-13.3-5.4-26.6,1.4-29.6
				C299.1,142.8,309.4,151.1,315.4,164.5z"/>
			<path id="XMLID_78_" class="st3" d="M361.2,267c6,13.3,5.4,26.6-1.4,29.6c-6.7,3-17-5.4-23-18.7c-6-13.3-5.4-26.6,1.4-29.6
				C345,245.3,355.3,253.7,361.2,267z"/>
			<path id="XMLID_77_" class="st3" d="M370.5,324.7c6,13.3,5.4,26.6-1.4,29.6c-6.7,3-17-5.4-23-18.7c-6-13.3-5.4-26.6,1.4-29.6
				C354.3,303,364.6,311.3,370.5,324.7z"/>
			<path id="XMLID_76_" class="st3" d="M278.4,118.7c6,13.3,5.4,26.6-1.4,29.6c-6.7,3-17-5.4-23-18.7c-6-13.3-5.4-26.6,1.4-29.6
				C262.1,97,272.4,105.3,278.4,118.7z"/>
			<path id="XMLID_75_" class="st3" d="M158.5,81.4c-6.7,3-7.3,16.3-1.4,29.6c6,13.3,16.3,21.7,23,18.7l44.6-20l-21.6-48.3
				L158.5,81.4z"/>
			<g>
				<path id="XMLID_74_" class="st3" d="M279.4,422.5c-6.7,3-7.3,16.3-1.4,29.6c6,13.3,16.3,21.7,23,18.7l44.6-20L324,402.6
					L279.4,422.5z"/>
				<path id="XMLID_73_" class="st4" d="M347,421.3c6,13.3,5.4,26.6-1.4,29.6c-6.7,3-17-5.4-23-18.7c-6-13.3-5.4-26.6,1.4-29.6
					C330.8,399.6,341.1,407.9,347,421.3z"/>
			</g>
			<g>
				<path id="XMLID_72_" class="st3" d="M118.1,72.7c-6.7,3-7.3,16.3-1.4,29.6c6,13.3,16.3,21.7,23,18.7l44.6-20l-21.6-48.3
					L118.1,72.7z"/>
				<path id="XMLID_71_" class="st4" d="M185.7,71.5c6,13.3,5.4,26.6-1.4,29.6c-6.7,3-17-5.4-23-18.7c-6-13.3-5.4-26.6,1.4-29.6
					C169.5,49.8,179.7,58.2,185.7,71.5z"/>
			</g>
			<path id="XMLID_70_" class="st3" d="M226.1,80.2c6,13.3,5.4,26.6-1.4,29.6c-6.7,3-17-5.4-23-18.7c-6-13.3-5.4-26.6,1.4-29.6
				C209.9,58.5,220.2,66.9,226.1,80.2z"/>
			<path id="XMLID_69_" class="st3" d="M316.7,224.3c37.3,83.4,34.7,165.8-5.8,183.9c-40.5,18.1-103.6-34.8-140.9-118.3
				c-37.3-83.4-34.7-165.8,5.8-183.9C216.3,88,279.3,140.9,316.7,224.3z"/>
			<path id="XMLID_68_" class="st3" d="M102.2,292.7c-6.7,3-7.3,16.3-1.4,29.6c6,13.3,16.3,21.7,23,18.7l44.6-20l-21.6-48.3
				L102.2,292.7z"/>
			<path id="XMLID_67_" class="st3" d="M83.4,239.2c-6.7,3-7.3,16.3-1.4,29.6c6,13.3,16.3,21.7,23,18.7l44.6-20l-21.6-48.3
				L83.4,239.2z"/>
			<path id="XMLID_66_" class="st3" d="M165,387.6c-6.7,3-7.3,16.3-1.4,29.6c6,13.3,16.3,21.7,23,18.7l44.6-20l-21.6-48.3L165,387.6
				z"/>
			<g>
				<path id="XMLID_65_" class="st3" d="M247.2,432.1c-6.7,3-7.3,16.3-1.4,29.6c6,13.3,16.3,21.7,23,18.7l44.6-20l-21.6-48.3
					L247.2,432.1z"/>
				<path id="XMLID_64_" class="st4" d="M314.8,430.8c6,13.3,5.4,26.6-1.4,29.6c-6.7,3-17-5.4-23-18.7c-6-13.3-5.4-26.6,1.4-29.6
					C298.5,409.1,308.8,417.5,314.8,430.8z"/>
			</g>
			<path id="XMLID_63_" class="st3" d="M216.7,423.8c-6.7,3-7.3,16.3-1.4,29.6c6,13.3,16.3,21.7,23,18.7l44.6-20l-21.6-48.3
				L216.7,423.8z"/>
			<path id="XMLID_62_" class="st3" d="M129.3,341.7c-6.7,3-7.3,16.3-1.4,29.6c6,13.3,16.3,21.7,23,18.7l44.6-20l-21.6-48.3
				L129.3,341.7z"/>
			<g>
				<path id="XMLID_61_" class="st3" d="M93.5,88.6c-6.7,3-7.3,16.3-1.4,29.6c6,13.3,16.3,21.7,23,18.7l44.6-20l-21.6-48.3
					L93.5,88.6z"/>
				<path id="XMLID_60_" class="st4" d="M161.1,87.4c6,13.3,5.4,26.6-1.4,29.6c-6.7,3-17-5.4-23-18.7c-6-13.3-5.4-26.6,1.4-29.6
					C144.9,65.6,155.2,74,161.1,87.4z"/>
			</g>
			<path id="XMLID_59_" class="st3" d="M81.7,132.9c-6.7,3-7.3,16.3-1.4,29.6c6,13.3,16.3,21.7,23,18.7l44.6-20l-21.6-48.3
				L81.7,132.9z"/>
			<path id="XMLID_58_" class="st4" d="M169.8,291.4c6,13.3,5.4,26.6-1.4,29.6c-6.7,3-17-5.4-23-18.7c-6-13.3-5.4-26.6,1.4-29.6
				C153.6,269.7,163.8,278.1,169.8,291.4z"/>
			<path id="XMLID_57_" class="st4" d="M151.1,238c6,13.3,5.4,26.6-1.4,29.6c-6.7,3-17-5.4-23-18.7c-6-13.3-5.4-26.6,1.4-29.6
				C134.8,216.3,145.1,224.6,151.1,238z"/>
			<path id="XMLID_56_" class="st4" d="M232.6,386.4c6,13.3,5.4,26.6-1.4,29.6c-6.7,3-17-5.4-23-18.7c-6-13.3-5.4-26.6,1.4-29.6
				C216.3,364.7,226.6,373.1,232.6,386.4z"/>
			<path id="XMLID_55_" class="st4" d="M284.3,422.6c6,13.3,5.4,26.6-1.4,29.6c-6.7,3-17-5.4-23-18.7c-6-13.3-5.4-26.6,1.4-29.6
				C268,400.8,278.3,409.2,284.3,422.6z"/>
			<path id="XMLID_54_" class="st4" d="M196.9,340.5c6,13.3,5.4,26.6-1.4,29.6c-6.7,3-17-5.4-23-18.7c-6-13.3-5.4-26.6,1.4-29.6
				C180.7,318.8,190.9,327.2,196.9,340.5z"/>
			<path id="XMLID_53_" class="st4" d="M149.3,131.6c6,13.3,5.4,26.6-1.4,29.6c-6.7,3-17-5.4-23-18.7c-6-13.3-5.4-26.6,1.4-29.6
				C133,109.9,143.3,118.3,149.3,131.6z"/>
			<path id="XMLID_52_" class="st3" d="M72.8,181.6c-6.7,3-7.3,16.3-1.4,29.6c6,13.3,16.3,21.7,23,18.7l44.6-20l-21.6-48.3
				L72.8,181.6z"/>
			<path id="XMLID_51_" class="st4" d="M140.4,180.4c6,13.3,5.4,26.6-1.4,29.6c-6.7,3-17-5.4-23-18.7c-6-13.3-5.4-26.6,1.4-29.6
				C124.2,158.7,134.5,167,140.4,180.4z"/>
		</g>
		<path id="XMLID_50_" class="st3" d="M366.7,358.7c-6.7,3-7.3,16.3-1.4,29.6c6,13.3,16.3,21.7,23,18.7l44.6-20l-21.6-48.3
			L366.7,358.7z"/>
		<path id="XMLID_49_" class="st3" d="M342.6,184.7c-6.7,3-7.3,16.3-1.4,29.6c6,13.3,16.3,21.7,23,18.7l44.6-20l-21.6-48.3
			L342.6,184.7z"/>
		<path id="XMLID_48_" class="st3" d="M317.7,134c-6.7,3-7.3,16.3-1.4,29.6c6,13.3,16.3,21.7,23,18.7l44.6-20L362.4,114L317.7,134z"
			/>
		<path id="XMLID_47_" class="st3" d="M363.6,236.5c-6.7,3-7.3,16.3-1.4,29.6c6,13.3,16.3,21.7,23,18.7l44.6-20l-21.6-48.3
			L363.6,236.5z"/>
		<path id="XMLID_46_" class="st3" d="M370.8,295.1c-6.7,3-7.3,16.3-1.4,29.6c6,13.3,16.3,21.7,23,18.7l44.6-20l-21.6-48.3
			L370.8,295.1z"/>
		<path id="XMLID_45_" class="st3" d="M278.7,89.1c-6.7,3-7.3,16.3-1.4,29.6c6,13.3,16.3,21.7,23,18.7l44.6-20l-21.6-48.3
			L278.7,89.1z"/>
		<path id="XMLID_44_" class="st4" d="M434.3,357.5c6,13.3,5.4,26.6-1.4,29.6c-6.7,3-17-5.4-23-18.7c-6-13.3-5.4-26.6,1.4-29.6
			C418,335.7,428.3,344.1,434.3,357.5z"/>
		<path id="XMLID_43_" class="st4" d="M385.3,132.7c6,13.3,5.4,26.6-1.4,29.6c-6.7,3-17-5.4-23-18.7c-6-13.3-5.4-26.6,1.4-29.6
			C369.1,111,379.4,119.4,385.3,132.7z"/>
		<path id="XMLID_42_" class="st4" d="M431.2,235.3c6,13.3,5.4,26.6-1.4,29.6c-6.7,3-17-5.4-23-18.7c-6-13.3-5.4-26.6,1.4-29.6
			C414.9,213.5,425.2,221.9,431.2,235.3z"/>
		<path id="XMLID_41_" class="st4" d="M440.5,293c6,13.3,5.4,26.6-1.4,29.6c-6.7,3-17-5.4-23-18.7c-6-13.3-5.4-26.6,1.4-29.6
			C424.2,271.2,434.5,279.6,440.5,293z"/>
		<path id="XMLID_40_" class="st4" d="M348.3,87c6,13.3,5.4,26.6-1.4,29.6c-6.7,3-17-5.4-23-18.7c-6-13.3-5.4-26.6,1.4-29.6
			C332.1,65.2,342.4,73.6,348.3,87z"/>
		<path id="XMLID_39_" class="st3" d="M228.5,49.7c-6.7,3-7.3,16.3-1.4,29.6c6,13.3,16.3,21.7,23,18.7l44.6-20l-21.6-48.3
			L228.5,49.7z"/>
		<g>
			<path id="XMLID_38_" class="st3" d="M349.4,390.8c-6.7,3-7.3,16.3-1.4,29.6c6,13.3,16.3,21.7,23,18.7l44.6-20L394,370.8
				L349.4,390.8z"/>
			<path id="XMLID_37_" class="st4" d="M417,389.5c6,13.3,5.4,26.6-1.4,29.6c-6.7,3-17-5.4-23-18.7c-6-13.3-5.4-26.6,1.4-29.6
				C400.7,367.8,411,376.2,417,389.5z"/>
		</g>
		<path id="XMLID_36_" class="st3" d="M251.8,71.6L157,114c-40.5,18.1-43.1,100.4-5.8,183.9c37.3,83.4,100.4,136.4,140.9,118.3
			l94.8-42.4L251.8,71.6z"/>
		<g>
			<path id="XMLID_35_" class="st3" d="M188.1,41c-6.7,3-7.3,16.3-1.4,29.6c6,13.3,16.3,21.7,23,18.7l44.6-20l-21.6-48.3L188.1,41z"
				/>
			<path id="XMLID_34_" class="st4" d="M255.7,39.8c6,13.3,5.4,26.6-1.4,29.6c-6.7,3-17-5.4-23-18.7c-6-13.3-5.4-26.6,1.4-29.6
				C239.4,18,249.7,26.4,255.7,39.8z"/>
		</g>
		<path id="XMLID_33_" class="st4" d="M296.1,48.5c6,13.3,5.4,26.6-1.4,29.6c-6.7,3-17-5.4-23-18.7c-6-13.3-5.4-26.6,1.4-29.6
			C279.8,26.8,290.1,35.1,296.1,48.5z"/>
		<path id="XMLID_32_" class="st4" d="M386.6,192.6c37.3,83.4,34.7,165.8-5.8,183.9c-40.5,18.1-103.6-34.8-140.9-118.3
			c-37.3-83.4-34.7-165.8,5.8-183.9C286.2,56.2,349.3,109.2,386.6,192.6z"/>
		<path id="XMLID_31_" class="st5" d="M380.3,195.5c32.6,73,30.8,144.8-4.2,160.5c-35,15.6-89.8-30.9-122.4-103.9
			c-14.9-33.3-22.6-66.4-23.3-94c-0.8-32.9,8.4-58,27.4-66.5C292.8,76,347.6,122.5,380.3,195.5z"/>
		<path id="XMLID_30_" class="st6" d="M380.3,195.5c32.6,73,30.8,144.8-4.2,160.5c-35,15.6,59.2,22-30.4-140
			c-54.4-98.4-107-97.8-115.3-57.9c-0.8-32.9,8.4-58,27.4-66.5C292.8,76,347.6,122.5,380.3,195.5z"/>
		<path id="XMLID_29_" class="st7" d="M284.9,251c17.7,39.5,26.1,74.2,18.8,77.4c-7.3,3.3-27.5-26.1-45.2-65.6
			c-17.7-39.5-26.1-74.2-18.8-77.4C247,182.2,267.3,211.5,284.9,251z"/>
		<path id="XMLID_28_" class="st3" d="M172.2,261c-6.7,3-7.3,16.3-1.4,29.6c6,13.3,16.3,21.7,23,18.7l44.6-20L216.8,241L172.2,261z"
			/>
		<path id="XMLID_27_" class="st3" d="M153.4,207.5c-6.7,3-7.3,16.3-1.4,29.6c6,13.3,16.3,21.7,23,18.7l44.6-20L198,187.5
			L153.4,207.5z"/>
		<path id="XMLID_26_" class="st3" d="M234.9,355.9c-6.7,3-7.3,16.3-1.4,29.6c6,13.3,16.3,21.7,23,18.7l44.6-20L279.5,336
			L234.9,355.9z"/>
		<g>
			<path id="XMLID_25_" class="st3" d="M317.1,400.3c-6.7,3-7.3,16.3-1.4,29.6c6,13.3,16.3,21.7,23,18.7l44.6-20l-21.6-48.3
				L317.1,400.3z"/>
			<path id="XMLID_24_" class="st4" d="M384.7,399.1c6,13.3,5.4,26.6-1.4,29.6c-6.7,3-17-5.4-23-18.7c-6-13.3-5.4-26.6,1.4-29.6
				C368.5,377.4,378.8,385.8,384.7,399.1z"/>
		</g>
		<path id="XMLID_23_" class="st3" d="M285.5,395c-6.7,3-7.3,16.3-1.4,29.6c6,13.3,16.3,21.7,23,18.7l44.6-20L330.1,375L285.5,395z"
			/>
		<path id="XMLID_22_" class="st3" d="M199.3,310c-6.7,3-7.3,16.3-1.4,29.6c6,13.3,16.3,21.7,23,18.7l44.6-20l-21.6-48.3L199.3,310z
			"/>
		<path id="XMLID_21_" class="st3" d="M142.8,149.9c-6.7,3-7.3,16.3-1.4,29.6c6,13.3,16.3,21.7,23,18.7l44.6-20l-21.6-48.3
			L142.8,149.9z"/>
		<g>
			<path id="XMLID_20_" class="st3" d="M163.5,56.9c-6.7,3-7.3,16.3-1.4,29.6c6,13.3,16.3,21.7,23,18.7l44.6-20l-21.6-48.3
				L163.5,56.9z"/>
			<path id="XMLID_19_" class="st4" d="M231.1,55.6c6,13.3,5.4,26.6-1.4,29.6c-6.7,3-17-5.4-23-18.7c-6-13.3-5.4-26.6,1.4-29.6
				C214.8,33.9,225.1,42.3,231.1,55.6z"/>
		</g>
		<path id="XMLID_18_" class="st3" d="M147.3,86c-6.7,3-7.3,16.3-1.4,29.6c6,13.3,16.3,21.7,23,18.7l44.6-20l-21.6-48.3L147.3,86z"
			/>
		<path id="XMLID_17_" class="st4" d="M239.8,259.7c6,13.3,5.4,26.6-1.4,29.6c-6.7,3-17-5.4-23-18.7c-6-13.3-5.4-26.6,1.4-29.6
			C223.5,238,233.8,246.4,239.8,259.7z"/>
		<path id="XMLID_16_" class="st4" d="M221,206.3c6,13.3,5.4,26.6-1.4,29.6c-6.7,3-17-5.4-23-18.7c-6-13.3-5.4-26.6,1.4-29.6
			C204.8,184.5,215,192.9,221,206.3z"/>
		<path id="XMLID_15_" class="st4" d="M302.5,354.7c6,13.3,5.4,26.6-1.4,29.6c-6.7,3-17-5.4-23-18.7c-6-13.3-5.4-26.6,1.4-29.6
			C286.3,332.9,296.6,341.3,302.5,354.7z"/>
		<path id="XMLID_14_" class="st4" d="M353.1,393.8c6,13.3,5.4,26.6-1.4,29.6c-6.7,3-17-5.4-23-18.7c-6-13.3-5.4-26.6,1.4-29.6
			C336.9,372,347.2,380.4,353.1,393.8z"/>
		<path id="XMLID_13_" class="st4" d="M266.9,308.8c6,13.3,5.4,26.6-1.4,29.6c-6.7,3-17-5.4-23-18.7c-6-13.3-5.4-26.6,1.4-29.6
			C250.6,287,260.9,295.4,266.9,308.8z"/>
		<path id="XMLID_12_" class="st4" d="M210.4,148.7c6,13.3,5.4,26.6-1.4,29.6c-6.7,3-17-5.4-23-18.7c-6-13.3-5.4-26.6,1.4-29.6
			C194.1,126.9,204.4,135.3,210.4,148.7z"/>
		<path id="XMLID_11_" class="st4" d="M214.9,84.8c6,13.3,5.4,26.6-1.4,29.6c-6.7,3-17-5.4-23-18.7c-6-13.3-5.4-26.6,1.4-29.6
			C198.7,63,209,71.4,214.9,84.8z"/>
	</g>
	<g>
		<path id="XMLID_10_" class="st8" d="M389.3,150.8c-0.1,5.8-1.9,10.2-5.4,11.7l-0.1,0c1.4,0.7,2.7,1.5,4,2.2
			c0.5-0.4,0.9-0.7,1.5-0.9c6.7-3,16.8,5.3,22.8,18.4c12.7,12.1,19.9,25.7,19.9,40.2c0,1.7-0.1,3.4-0.3,5.1
			c-0.3,2.2-0.7,4.3-1.3,6.4c-11.7,43.3-88,76.8-180.5,76.8c-50.7,0-96.4-10.1-129.4-26.3c-1.4-0.7-2.7-1.4-4-2.1
			c-17-8.9-30.3-19.5-38.6-31.2c-5.3-7.5-8.7-15.5-9.7-23.7c-0.2-1.7-0.3-3.4-0.3-5.1c0-4.8,0.8-9.4,2.3-14
			c-4.7-12.3-3.7-23.9,2.5-26.7l15.4-6.9c-2.3-2.5-4.4-5.6-6.3-9.1C54.9,183,39,204.4,39,227.6c0,27.5,22.3,52.4,58.6,70.8
			C136,317.9,190,330,249.9,330c77.3,0,144.8-20.2,181.5-50.2c18.7-15.3,29.4-33.1,29.4-52.2C460.9,197,433.2,169.5,389.3,150.8z"/>
		<path id="XMLID_9_" class="st8" d="M412.2,182.6c0-0.1-0.1-0.2-0.1-0.3c-6-13.2-16.2-21.4-22.8-18.4c-0.5,0.2-1,0.6-1.5,0.9
			c-5.3,4.2-5.4,16.4,0.1,28.7c6,13.3,16.3,21.7,23,18.7C417.6,209.2,418.2,195.9,412.2,182.6z"/>
	</g>
	<path id="XMLID_8_" class="st6" d="M250.1,329.9c-116.5,0-211-45.8-211-102.4v132.4c0,56.6,94.4,102.4,211,102.4
		c116.5,0,211-45.8,211-102.4V227.5C461,284,366.6,329.9,250.1,329.9z"/>
	<path id="XMLID_7_" class="st3" d="M250.1,329.9c-116.5,0-211-45.8-211-102.4v57.3c0,56.6,94.4,102.4,211,102.4
		c116.5,0,211-45.8,211-102.4v-57.3C461,284,366.6,329.9,250.1,329.9z"/>
	<path id="XMLID_6_" class="st3" d="M250.1,406.1c-116.5,0-211-42.2-211-98.8V360c0,56.6,94.4,102.4,211,102.4
		c116.5,0,211-45.8,211-102.4v-52.7C461,363.9,366.6,406.1,250.1,406.1z"/>
	<polygon id="XMLID_5_" class="st9" points="454,301.1 449.4,307.3 449.4,268.2 454,262 	"/>
	<polygon id="XMLID_4_" class="st9" points="454,380.7 449.4,386.9 449.4,347.8 454,341.6 	"/>
	<polygon id="XMLID_3_" class="st9" points="443,314.8 438.4,321 438.4,281.9 443,275.7 	"/>
	<polygon id="XMLID_2_" class="st9" points="443,394.4 438.4,400.6 438.4,361.5 443,355.3 	"/>
	<path id="XMLID_1_" class="st10" d="M46.8,302.6c0,0,50,79.3,187.7,79.3c147.9,0,198.5-54.9,198.5-54.9s3.6-22.6-0.8-20.1
		C164.7,462.4,46.8,302.6,46.8,302.6z"/>
</g>
</svg>
