<?xml version="1.0" encoding="utf-8"?>
<!-- Generator: Adobe Illustrator 19.0.0, SVG Export Plug-In . SVG Version: 6.00 Build 0)  -->
<svg version="1.1" id="Camada_1" xmlns="http://www.w3.org/2000/svg" xmlns:xlink="http://www.w3.org/1999/xlink" x="0px" y="0px"
	 viewBox="0 0 500 500" style="enable-background:new 0 0 500 500;" xml:space="preserve">
<style type="text/css">
	.st0{stroke:#000000;stroke-width:7.3034;stroke-linejoin:round;stroke-miterlimit:10;}
	.st1{fill:#DADADA;stroke:#000000;stroke-width:2.4345;stroke-linejoin:round;stroke-miterlimit:10;}
</style>
<g>
	<path id="XMLID_2_" class="st0" d="M299.1,66.1c0-26.6-21.8-48.2-48.8-48.2c-26.9,0-48.8,21.6-48.8,48.2c0,13.5,5.7,25.7,14.7,34.4
		c8.2,8,9.1,24.9,9.1,27.1v306.4h21.9v-306v-7.9v-6v-7c0-16.4-19.5-26.3-19.5-44.8c0-12.6,10.1-22.9,22.6-22.9
		c12.5,0,22.6,10.3,22.6,22.9c0,21.1-19.5,31.2-19.5,44.4v7.4v6v7.9v354.8h21.9V127.7c0-2.2,1-19.2,9.1-27.1
		C293.4,91.8,299.1,79.6,299.1,66.1z"/>
	<path id="XMLID_1_" class="st1" d="M299.1,66.1c0-26.6-21.8-48.2-48.8-48.2c-26.9,0-48.8,21.6-48.8,48.2c0,13.5,5.7,25.7,14.7,34.4
		c8.2,8,9.1,24.9,9.1,27.1v306.4h21.9v-306v-7.9v-6v-7c0-16.4-19.5-26.3-19.5-44.8c0-12.6,10.1-22.9,22.6-22.9
		c12.5,0,22.6,10.3,22.6,22.9c0,21.1-19.5,31.2-19.5,44.4v7.4v6v7.9v354.8h21.9V127.7c0-2.2,1-19.2,9.1-27.1
		C293.4,91.8,299.1,79.6,299.1,66.1z"/>
</g>
</svg>
