<?xml version="1.0" encoding="utf-8"?>
<!-- Generator: Adobe Illustrator 19.0.0, SVG Export Plug-In . SVG Version: 6.00 Build 0)  -->
<svg version="1.1" id="Camada_1" xmlns="http://www.w3.org/2000/svg" xmlns:xlink="http://www.w3.org/1999/xlink" x="0px" y="0px"
	 viewBox="0 0 500 500" style="enable-background:new 0 0 500 500;" xml:space="preserve">
<style type="text/css">
	.st0{fill:#1A171B;stroke:#1A171B;stroke-width:3.2168;stroke-miterlimit:10;}
	.st1{fill:#1A171B;stroke:#1A171B;stroke-width:3.2168;stroke-linejoin:round;stroke-miterlimit:10;}
	.st2{fill:url(#XMLID_269_);stroke:#1A171B;stroke-width:0.8042;stroke-miterlimit:10;}
	.st3{fill:url(#XMLID_270_);stroke:#1A171B;stroke-width:0.8042;stroke-miterlimit:10;}
	.st4{fill:#6F7072;stroke:#1A171B;stroke-width:0.8042;stroke-miterlimit:10;}
	.st5{fill:#3D3D3F;stroke:#1A171B;stroke-width:0.4021;stroke-linejoin:round;stroke-miterlimit:10;}
	.st6{fill:#58585A;stroke:#1A171B;stroke-width:0.4021;stroke-linejoin:round;stroke-miterlimit:10;}
	.st7{fill:none;stroke:#E1001A;stroke-width:0.4021;stroke-linejoin:round;stroke-miterlimit:10;}
	.st8{fill:url(#XMLID_271_);stroke:#1A171B;stroke-width:0.8042;stroke-linejoin:round;stroke-miterlimit:10;}
	.st9{fill:url(#XMLID_272_);stroke:#1A171B;stroke-width:0.8042;stroke-miterlimit:10;}
	.st10{fill:#C5C6C8;stroke:#1A171B;stroke-width:0.4021;stroke-linejoin:round;stroke-miterlimit:10;}
	.st11{fill:url(#XMLID_273_);stroke:#1A171B;stroke-width:0.8042;stroke-miterlimit:10;}
	.st12{fill:#868789;stroke:#1A171B;stroke-width:0.4021;stroke-linejoin:round;stroke-miterlimit:10;}
	.st13{fill:#9B9C9E;stroke:#1A171B;stroke-width:0.6032;stroke-miterlimit:10;}
	.st14{fill:#6F7072;stroke:#1A171B;stroke-width:0.4021;stroke-linejoin:round;stroke-miterlimit:10;}
	.st15{fill:#9B9C9E;stroke:#1A171B;stroke-width:0.6032;stroke-linejoin:round;stroke-miterlimit:10;}
	.st16{fill:#868789;stroke:#1A171B;stroke-width:0.8042;stroke-miterlimit:10;}
	.st17{fill:#868789;stroke:#1A171B;stroke-width:0.8042;stroke-linejoin:round;stroke-miterlimit:10;}
	.st18{fill:#868789;}
	.st19{fill:#3D3D3F;stroke:#1A171B;stroke-width:0.4021;stroke-miterlimit:10;}
	.st20{fill:url(#XMLID_274_);stroke:#1A171B;stroke-width:0.8042;stroke-miterlimit:10;}
	.st21{fill:url(#XMLID_275_);stroke:#1A171B;stroke-width:0.8042;stroke-linejoin:round;stroke-miterlimit:10;}
</style>
<path id="XMLID_267_" class="st0" d="M119.4,351.7v39.6l0,0c0,21.9,41.3,39.6,92.3,39.6c51,0,92.3-17.7,92.3-39.6l0,0v-39.6H119.4z"
	/>
<path id="XMLID_266_" class="st0" d="M247.1,305.7c-11.7-0.7-24-1.1-36.7-1.1c-12.7,0-25,0.4-36.7,1.1H63.2v34h0
	c1.6,18.7,66.8,33.7,147.2,33.7c80.3,0,145.6-15,147.2-33.7h0v-34H247.1z"/>
<ellipse id="XMLID_265_" class="st0" cx="208.4" cy="287.9" rx="169.2" ry="69.9"/>
<path id="XMLID_264_" class="st1" d="M220.8,238.4c-0.8,1.3,4.7-17,5.4-17.8c0.7-0.8,4.6-0.7,4.9,0c0.3,0.7,3.9,18.3,3.9,18.3
	L220.8,238.4z"/>
<polyline id="XMLID_263_" class="st1" points="231.1,220.6 242.5,230.7 240.2,239.2 235,238.8 231.1,220.6 "/>
<path id="XMLID_262_" class="st1" d="M104.1,260.2"/>
<polygon id="XMLID_261_" class="st1" points="370.8,273 317.4,257.2 320.5,244.2 373.9,262.3 375.1,265.5 "/>
<path id="XMLID_260_" class="st1" d="M468.4,151.9c-7.2-38.7-29.4-65.5-39.3-64.3l-74.6,12.3l26.4,141.6l71.6-13.3
	C462.1,225.7,475.6,190.6,468.4,151.9z"/>
<ellipse id="XMLID_259_" class="st0" cx="210.6" cy="269.9" rx="113" ry="31.8"/>
<path id="XMLID_258_" class="st1" d="M131.8,286.2c-1.9-2.3-4.9-1.6-4.9-1.6L91.1,325c0,0,4.3-0.5,6.4,2.6
	C98.3,328.4,132.2,288.1,131.8,286.2z"/>
<path id="XMLID_257_" class="st1" d="M118.5,282.7c-1.9-2.3-5.5-1.5-5.5-1.5l-41.3,38.9c0,0,3.8,0.4,5.6,2.7
	C78.1,323.7,118.8,284.6,118.5,282.7z"/>
<path id="XMLID_256_" class="st1" d="M170,294.5c-1.7-1.2-6.3-1.2-6.3-1.2l-20.7,45.4c0,0,5.5-0.8,10.5,0.1L170,294.5z"/>
<path id="XMLID_255_" class="st1" d="M191.2,293.9c-4.9-1-6.7,1-6.7,1l-12.4,45.6c0,0,4.8-2.1,10.3-0.8
	C182.4,339.6,192.2,295.5,191.2,293.9z"/>
<path id="XMLID_254_" class="st1" d="M277.8,334.9c0,0-0.8-1.3-4.7-1.3c-2.4,0-5.2,0.7-5.2,0.7l-20.4-44.1c0,0,1.7-0.7,3-0.7
	c1.8-0.1,3.6,0.8,3.6,0.8L277.8,334.9z"/>
<path id="XMLID_253_" class="st1" d="M302.6,328.5c0,0-0.3-0.2-4.2,0.2c-2.4,0.3-5.1,2.1-5.1,2.1l-26.4-44c0,0,1.3-0.4,2.6-0.6
	c2.4-0.4,3.9,1.3,3.9,1.3L302.6,328.5z"/>
<path id="XMLID_252_" class="st1" d="M191.3,221.3c-0.7,0-4.1-0.6-5.7,0.5c-4.1,2.6-10.4,9.4-10.4,9.4l-13.4,2.8l-0.6,6.7l35.3-2.6
	C196.5,238.2,192,221.3,191.3,221.3z"/>
<ellipse id="XMLID_251_" class="st0" cx="210.2" cy="271.4" rx="32.1" ry="8.3"/>
<path id="XMLID_250_" class="st1" d="M98,265.2c-0.2-0.5-1.2-1.9-1.2-1.9c-3.9,0.7-54.2,27.8-54.2,27.8l2.2,3
	C45.4,295.2,98,267.3,98,265.2z"/>
<g id="XMLID_468_">
	<path id="XMLID_249_" class="st1" d="M171.6,223.8c-1.3-0.8-4.1-0.8-5.7,0c-1.6,0.8-16.3,9.4-16.3,9.4l-0.2,1.8l0.5,8.2l28.3-3.7
		C178.2,239.5,173.6,228.2,171.6,223.8z"/>
	<path id="XMLID_248_" class="st1" d="M163,241.5c0,0,3.9-17.1,4.5-17.8c0.9-1,4.1,0,4.3,0.4c0.3,0.7,6.3,15.2,6.3,15.2L163,241.5z"
		/>
	<path id="XMLID_247_" class="st1" d="M156.2,227.4c-0.5-0.8-3.1-1-6.2,0.1c-3.1,1.1-17.1,5.6-17.1,5.6l-0.4,2.6l0.1,11.7l29.4-5.8
		C162,241.6,157,228.7,156.2,227.4z"/>
	<g id="XMLID_470_">
		<path id="XMLID_246_" class="st1" d="M137.9,229.8c-3.1-0.1-9.3,2.7-11.6,3.4c-2.3,0.7-11.7,3.6-11.7,3.6l-0.1,3.4l0,12.3
			l29.8-7.5C144.2,244.9,138.7,231.1,137.9,229.8z"/>
		<path id="XMLID_245_" class="st1" d="M132.2,247.6c0,0,0.5-16.6,1.4-17.1c0.8-0.4,4.1-1.2,4.3-0.8c0.3,0.6,6.4,15.3,6.4,15.3
			L132.2,247.6z"/>
		<polygon id="XMLID_244_" class="st1" points="118.1,235.4 94.3,244.8 93.7,246.4 96,258 123.9,249.7 		"/>
		<path id="XMLID_243_" class="st1" d="M114.4,252.4c0,0,0-14.9,0.4-15.3c0.6-0.6,3.3-1.7,3.3-1.7c0.3,0.6,5.8,14.3,5.8,14.3
			L114.4,252.4z"/>
		<g id="XMLID_471_">
			<polygon id="XMLID_242_" class="st1" points="106.5,240 104.8,240.5 49.4,263.6 46.8,267.2 42.9,273.8 111.8,253.1 			"/>
			<path id="XMLID_241_" class="st1" d="M104.7,255.7c0,0-1.3-13.8-1.1-14.4c0.3-0.7,2.9-1.3,2.9-1.3c0.2,0.5,5.1,13.2,5.1,13.2
				L104.7,255.7z"/>
			<polygon id="XMLID_240_" class="st1" points="97.8,246.1 97.1,246.7 96.6,247.1 46.3,267.9 44.1,271.3 41.2,277.6 102.3,259.9 
							"/>
			<path id="XMLID_239_" class="st1" d="M97.8,246.1c-1.1,0.6,3.3,14.9,3.3,14.9l2.4-2.4C103.5,258.6,98.9,245.6,97.8,246.1z"/>
			<polygon id="XMLID_238_" class="st1" points="92.5,251.4 41.5,276.4 40.4,280 39.6,285.4 96.4,262.1 			"/>
			<path id="XMLID_237_" class="st1" d="M92.9,251.2c-0.9,0.4,2.7,11.9,2.7,11.9l2-1.9C97.5,261.3,93.8,250.8,92.9,251.2z"/>
		</g>
	</g>
	<path id="XMLID_236_" class="st1" d="M147.2,244.2c0,0,3.3-16.1,4-16.9c0.6-0.7,4-0.6,5,0.1c0.6,0.4,5.5,14.2,5.5,14.2L147.2,244.2
		z"/>
</g>
<path id="XMLID_235_" class="st1" d="M181.3,239.2c0,0,4.7-17.1,5.4-17.9c1-1.1,4.7-0.4,4.9,0c0.3,0.8,4.9,16.9,4.9,16.9
	L181.3,239.2z"/>
<path id="XMLID_234_" class="st1" d="M207.9,219.3c-2.2,0-7.9,8.3-7.6,9.5c0.3,1.2,0,9.5,0,9.5l15.2-0.4c0,0-0.9-9.5-0.8-11
	C214.8,225.4,209.1,219.3,207.9,219.3z"/>
<path id="XMLID_233_" class="st1" d="M200.3,238.3c0,0,4.7-17.5,5.4-18.3c0.7-0.9,4.6-0.8,4.9,0c0.3,0.8,4.9,18,4.9,18L200.3,238.3z
	"/>
<polygon id="XMLID_232_" class="st1" points="249.5,222.5 262.4,228.6 263.2,241.5 253.2,240.1 "/>
<path id="XMLID_231_" class="st1" d="M240.6,238.8c0,0,3.9-15.2,4.7-16c0.7-0.8,4.6-0.8,4.9,0c0.3,0.8,3,17.3,3,17.3L240.6,238.8z"
	/>
<polygon id="XMLID_230_" class="st1" points="267,225 279.8,228.9 277,244.2 269.1,242.8 "/>
<polygon id="XMLID_229_" class="st1" points="283.5,228.9 300,234.6 301.4,239.9 284.6,245.9 "/>
<path id="XMLID_228_" class="st1" d="M258.1,240.9c0,0,3.4-14.9,4.1-15.7s5.3-0.6,5.3,0c0,3.1,0.5,4.5,1.6,17.4L258.1,240.9z"/>
<path id="XMLID_227_" class="st1" d="M272.6,243.3c0,0,5.6-13.5,6.3-14.3s5.4-0.2,5.7,0.6c0.3,0.8,0.9,16.7,0.9,16.7L272.6,243.3z"
	/>
<polygon id="XMLID_226_" class="st1" points="303.3,234.7 319.8,240.3 321.2,245.6 304.4,251.6 "/>
<path id="XMLID_225_" class="st0" d="M91.1,338.3c0,0-1.2-11-0.3-13c0.5-1.1,5.7,0.2,6.7,2.2c1.1,2.2,5.9,15,5.9,15L91.1,338.3z"/>
<path id="XMLID_224_" class="st0" d="M71.7,328.8c0,0-0.8-7.8,0-8.6c0.9-0.8,4.6,1,5.6,3.1c1.1,2.2,1.5,9.3,1.5,9.3L71.7,328.8z"/>
<path id="XMLID_223_" class="st0" d="M40,294.7c0,0,1.5-2.5,2.2-3.3c1-1.2,3.1,2.3,2.5,3c-0.6,0.7-1.8,4.8-2.7,6.2L40,294.7z"/>
<polygon id="XMLID_222_" class="st1" points="44.8,294.3 42.3,300.6 96.9,270.4 97.5,269.9 98,265.3 "/>
<path id="XMLID_221_" class="st1" d="M98.4,272c-2.1-2.7-3.5-2.6-3.5-2.6l-47.2,30c0,0,0.1,1.5,2,4C50.3,304.2,98.6,273.8,98.4,272z
	"/>
<path id="XMLID_220_" class="st0" d="M45.2,306.5c0,0,1.3-4.9,2.3-7.3c0.5-1,4,2.5,4,3.6c0.1,3.1,0,11,0,11s-4.9-5.4-3.6-3.8
	C49.2,311.8,45.2,306.5,45.2,306.5z"/>
<polygon id="XMLID_219_" class="st1" points="51.6,302 51.6,314 99.5,278.1 98.4,272 "/>
<path id="XMLID_218_" class="st1" d="M106.7,277c-1.4-1.9-4.2-1.8-4.2-1.8l-45.2,32.9c0,0,1.9,1.1,4,3.6
	C61.3,311.8,106.8,278.9,106.7,277z"/>
<path id="XMLID_217_" class="st0" d="M55.2,317.8c0,0,1.4-8.9,2.1-9.7c0.8-0.9,4,2.5,4,3.6c0.1,3.1,0.1,10.8,0.1,10.8L55.2,317.8z"
	/>
<polygon id="XMLID_216_" class="st1" points="61.3,311.8 106.7,277 107.8,283.2 61.4,322.2 "/>
<polygon id="XMLID_215_" class="st1" points="77.4,322.8 118.5,282.7 119.9,288.9 78.8,332.6 "/>
<polygon id="XMLID_214_" class="st1" points="97.5,327.6 103.4,342.5 136.9,294 131.8,286.3 "/>
<path id="XMLID_213_" class="st1" d="M151.3,290.9c-1.8-2-4.7-0.8-4.7-0.8l-31.3,41c0,0,6.9,0.4,7.6,1
	C123.6,332.9,151.6,292.8,151.3,290.9z"/>
<path id="XMLID_212_" class="st0" d="M114.4,345.7c0,0-0.6-12.4,0.8-14.6c1-1.6,7.4-0.2,8.4,1.8c1.1,2.2,6.4,16.9,6.4,16.9
	L114.4,345.7z"/>
<polygon id="XMLID_211_" class="st1" points="122.9,332.1 151.3,290.9 155.7,297.7 130.1,349.9 "/>
<polygon id="XMLID_210_" class="st1" points="157.1,354.5 173.1,299.9 170,294.5 153.4,338.8 "/>
<path id="XMLID_209_" class="st0" d="M140.1,351.9c0,0,1.4-10.9,2.9-13.2c1-1.6,10-1.6,10.5,0.1c0.6,2.2,3.7,15.7,3.7,15.7
	L140.1,351.9z"/>
<polygon id="XMLID_208_" class="st1" points="182.4,339.6 188.4,357.1 194.2,301.7 191.2,293.9 "/>
<polygon id="XMLID_207_" class="st1" points="208.4,291.8 205.5,292.1 202.2,301.7 197.7,357.1 222.5,357.5 215.3,301.7 
	211.6,292.2 "/>
<polygon id="XMLID_206_" class="st1" points="231.7,291.4 228.8,291.7 225.5,301.3 229.6,357.1 253.1,355.1 238.4,300.8 
	234.3,291.3 "/>
<path id="XMLID_205_" class="st1" d="M213.3,340.5c0-0.3-7.9,0-7.9,0s-0.9-47.4,0-48.4c0.4-0.4,1.5-0.6,2.6-0.7c1.4,0,3,0.2,3.5,0.7
	C212.7,293.1,213.3,340.5,213.3,340.5z"/>
<path id="XMLID_204_" class="st0" d="M197.7,357.6c0,0,5.5-14.7,6.9-16.9c1-1.6,10-1.6,10.5,0.1c0.6,2.2,7.3,16.6,7.3,16.6
	s-3.4,0.4-10.6,0.5C204.5,357.9,197.7,357.6,197.7,357.6z"/>
<path id="XMLID_203_" class="st0" d="M167.8,355.8c0,0,3.1-13.5,4.5-15.8c1-1.6,10-1.6,10.5,0.1c0.6,2.2,5.6,17,5.6,17s-4,0-9.9-0.4
	C172.5,356.3,167.8,355.8,167.8,355.8z"/>
<path id="XMLID_202_" class="st1" d="M246.9,339.2c0,0-4.4-0.1-5.8-0.1c-1.4-0.1-3.9,0-3.9,0l-8.5-47.5c0,0,1.5-0.5,2.8-0.6
	c1.3-0.1,2.8,0.3,2.8,0.3L246.9,339.2z"/>
<path id="XMLID_201_" class="st0" d="M229.6,357.1c0,0,5.5-15.5,6.9-17.8c1-1.6,9.7-1.4,10.5,0.1c1,2,7.9,15.7,7.9,15.7
	s-6.9,0.9-12,1.2C237.9,356.7,229.6,357.1,229.6,357.1z"/>
<polygon id="XMLID_200_" class="st1" points="260.3,354.2 244.3,300.6 247.4,290.2 267.8,334.3 "/>
<path id="XMLID_199_" class="st0" d="M260.3,354.2c0,0,5.5-17.2,6.9-19.5c1-1.6,10-1.6,10.5,0.1c0.6,2.2,7.9,15,7.9,15
	s-6,1.5-12.3,2.6C267,353.6,260.3,354.2,260.3,354.2z"/>
<polygon id="XMLID_198_" class="st1" points="266.9,286.8 265.3,298.2 289.3,349.3 293.4,330.6 "/>
<path id="XMLID_197_" class="st0" d="M289.5,349.3c0,0,2.7-16.4,3.8-18.5c1-1.8,7.9-3.8,9.6-2.1c1.5,1.4,8.5,14.7,8.5,14.7
	s-5.5,1.8-10.5,3.1C296,347.7,289.5,349.3,289.5,349.3z"/>
<polygon id="XMLID_196_" class="st1" points="308.3,275.8 308.3,285.9 351.6,324.7 358,309.8 "/>
<polygon id="XMLID_195_" class="st1" points="319.7,278.5 317.7,268.5 370.1,295 370.5,308.1 "/>
<path id="XMLID_194_" class="st1" d="M363.1,306.1l-2.9,1.5c-1,0.9-2.2,2.1-2.2,2.1l-49.7-34c0,0,0.9-1.8,2.1-2.3
	c1.6-0.7,4,0.7,4,0.7L363.1,306.1z"/>
<polygon id="XMLID_193_" class="st1" points="296.7,280.9 296.8,290.5 333.3,334.9 341.8,318 "/>
<path id="XMLID_192_" class="st1" d="M327.7,321.4c0,0-3.3,0.6-4.6,1.1c-1.9,0.7-3.9,2.3-3.9,2.3l-36-40.6c0,0,1.3-1.6,2.5-2
	c1.7-0.5,3.9,1.2,3.9,1.2L327.7,321.4z"/>
<path id="XMLID_191_" class="st0" d="M315.3,342c0,0,3.1-15.1,3.9-17.2c0.8-2.2,7.9-4.1,8.5-3.4c0.8,1.1,4.5,14.1,4.5,14.1
	L315.3,342z"/>
<polygon id="XMLID_190_" class="st1" points="283.2,284.1 282.9,294.2 315.3,342 319.3,324.5 "/>
<path id="XMLID_189_" class="st1" d="M347.4,314.5c0,0-2.3,0.9-3,1.2c-0.6,0.2-2.6,2.3-2.6,2.3l-45.1-37.1c0,0,1.4-2.4,3.2-2.4
	C301.7,278.5,347.4,314.5,347.4,314.5z"/>
<path id="XMLID_188_" class="st0" d="M333.3,334.9c0,0,7-15.2,8.5-17c1.5-1.7,4.2-3.5,5.6-3.5c1.4,0,4,10.7,4,10.7L333.3,334.9z"/>
<path id="XMLID_187_" class="st0" d="M351.4,325.2c4.3-10.1,3.9-11.5,6.2-14.8c1.3-1.9,4.1-4.3,5.5-4.3c1.4,0-1.1,11.1-1.1,11.1
	L351.4,325.2z"/>
<path id="XMLID_186_" class="st1" d="M370.5,308.1c0,0-1.8-10.4-0.1-13c1.3-1.9,4.4-4.3,5.9-4.3l-1,8.9L370.5,308.1z"/>
<path id="XMLID_185_" class="st0" d="M282.8,168c0,0-0.8-53.3,25.6-75.4c10.3-8.6,24.8-11.8,39.8-5.1
	c66.2,33.5,48.7,179.1,21.7,177.8c-26.7-1.3-68.5-25.4-68.5-25.4L282.8,168z"/>
<polygon id="XMLID_184_" class="st0" points="329.4,156.1 330,160.5 389.1,147.8 387.6,143.5 "/>
<polygon id="XMLID_183_" class="st0" points="333.9,176.5 334,182.8 392.8,173.6 392.2,167.4 "/>
<polygon id="XMLID_182_" class="st0" points="336.7,200.7 335.5,205.3 393.6,205.8 393.6,200.7 "/>
<polygon id="XMLID_181_" class="st0" points="333.7,216.9 331.7,220.4 390.4,230.4 391.1,226.7 "/>
<polygon id="XMLID_180_" class="st0" points="327.2,230.8 324.6,233.5 384.9,249.2 386.3,245.6 "/>
<polygon id="XMLID_179_" class="st1" points="330,160.5 324.5,167.1 390.2,153.5 389.1,147.8 "/>
<polygon id="XMLID_178_" class="st0" points="320,135.4 322.2,138.2 378.9,120.3 376.8,116.9 "/>
<polygon id="XMLID_177_" class="st1" points="322.2,138.2 318.6,147.8 381.3,125.7 378.9,120.3 "/>
<polygon id="XMLID_176_" class="st1" points="300.8,119.1 303.9,131 332.8,84.4 330,84.4 "/>
<polygon id="XMLID_175_" class="st0" points="297.7,118.7 301.4,119.1 330,84.4 326.7,84.4 "/>
<polygon id="XMLID_174_" class="st1" points="313.8,123 312.8,137.7 357.4,93.5 354.1,90.8 "/>
<polygon id="XMLID_173_" class="st0" points="310.6,121.6 314.1,123 354.1,90.8 350.9,89 "/>
<polygon id="XMLID_172_" class="st1" points="296.8,132 297.7,108.6 297,107.5 291.2,121.5 "/>
<polygon id="XMLID_171_" class="st1" points="288.5,122.1 291.2,121.5 297,107.5 295.3,108.7 "/>
<polygon id="XMLID_170_" class="st1" points="334.2,182.3 326.7,186.8 393.3,177.5 392.8,173.6 "/>
<polygon id="XMLID_169_" class="st1" points="393.6,189.2 393.6,200.7 336.4,200.7 326.8,190.6 "/>
<polygon id="XMLID_168_" class="st1" points="325.5,208.6 392.2,216.9 391.1,226.7 333.7,216.9 "/>
<polygon id="XMLID_167_" class="st1" points="321.8,222.7 388,238.2 386.3,245.6 327.4,230.9 "/>
<polygon id="XMLID_166_" class="st0" points="315.6,241.5 377.3,261.9 373.8,264.9 311.3,242.4 "/>
<polygon id="XMLID_165_" class="st1" points="371.4,274.5 317.1,256.6 320.8,244.3 375.3,264.3 376.3,267.4 "/>
<path id="XMLID_164_" class="st1" d="M315.6,258.1c0,0,3.7-11.9,4.2-13.5c1.1-1.4,1.8,0.2,2.1,2.9c-0.4,1.4-2.8,13.4-2.8,13.4
	L315.6,258.1z"/>
<polygon id="XMLID_163_" class="st1" points="372.4,274.8 319,260.9 321.8,247.5 376.3,267.4 "/>
<polygon id="XMLID_162_" class="st1" points="376.2,285.4 321.9,267.6 325.8,255.1 380.1,275.3 381.1,278.4 "/>
<path id="XMLID_161_" class="st1" d="M322.3,265.3c0,0,2.2-8.2,2.7-9.8c1.2-1.3,1.8,0.3,2,2.9c-0.4,1.4-3.7,12.9-3.7,12.9
	L322.3,265.3z"/>
<polygon id="XMLID_160_" class="st1" points="377.4,286.7 323.6,269.9 327,258.5 381.1,278.4 "/>
<path id="XMLID_159_" class="st1" d="M376.3,290.7c0,0-1.2,0.1-2.9,1.5c-2.1,1.7-3.1,3.3-3.1,3.3l-52.6-26.9c0,0,1-2.1,2.8-2.5
	C324.4,265,376.3,290.7,376.3,290.7z"/>
<polygon id="XMLID_158_" class="st1" points="315.7,232 381.6,255.1 377.3,261.9 315.1,241.6 "/>
<polyline id="XMLID_157_" class="st0" points="301.4,243.1 304.4,235.3 314.4,236.3 316.5,248.5 305.3,252 "/>
<path id="XMLID_156_" class="st1" d="M292.8,248.2c0,0,5.2-12.7,5.9-13.5s5.1-0.9,5.4-0.2c0.3,0.8,1.3,18,1.3,18L292.8,248.2z"/>
<path id="XMLID_155_" class="st0" d="M336.4,200.7c-0.7-0.7-7.2-7.6-9.5-10.1c0-1.3,0-2.6-0.1-3.9c2.6-1.3,6.8-3.5,7.2-4
	c0.7-0.7,0.8-6.1-0.4-6.8c-0.4-0.2-5.9-2.3-8-3.1c-0.3-2-0.6-3.9-1-5.7c1.6-1.9,5.2-6,5.5-6.7c0.4-0.9,0.3-3.9-0.6-4.3
	c-0.4-0.2-5.3,0.1-7.6,0.2c-0.9-3-1.9-5.7-3-8.2c0.8-2.6,3-9.8,3.4-10.5c0.5-0.9-1.1-2.3-2.1-2.3c-0.5,0-4.7,2.4-6.5,3.4
	c-0.3-0.4-0.5-0.7-0.8-1.1c0.1-2.3,0.7-13.7,0.7-14.7c0-1.2-2-2-2.9-1.4c-0.4,0.3-3.6,7.6-4.7,10.2c-0.7-0.3-1.4-0.6-2-0.7
	c-0.7-2.7-2.8-10.9-3-11.9c-0.3-1.2-2.5-1.4-3.1-0.6c-0.3,0.4-0.5,10.6-0.5,13.2c-0.1,0.1-0.3,0.1-0.4,0.2c-1.2-2.3-4.6-9.1-5.1-10
	c-0.6-1.1-2.7-0.8-3.2,0.1c-0.2,0.4,2.4,10.2,3.4,13.9c-0.5,0.6-1,1.2-1.5,1.8c-1.5-2.8-5.1-9.7-5.8-10.5c-1-1.1-2.9,0.1-3.3,1.5
	c-0.1,0.4,3.4,10.1,5.3,15.5c-0.3,0.7-0.6,1.3-0.9,2.1c-2-1.1-7-4-8-4.1c-1.3-0.2-2.3,1.7-1.6,3c0.6,1.1,5.2,7.8,6.7,10.1
	c-0.5,2.2-0.9,4.5-1.2,6.8c-2-0.4-6.1-1.1-6.6-0.9c-0.8,0.2-1.3,2.7-0.8,3.2c0.4,0.4,5,4.8,7,6.8c0,2.7,0.1,5.5,0.3,8.2
	c-1.8,1.1-4.8,2.9-5.2,3.2c-0.6,0.5,0.1,3.1,0.6,3.3c0.4,0.2,3.2,1.6,5.2,2.7c0.4,4.1,1.1,8.1,1.9,11.9c-1.5,1.8-3.6,4.1-3.9,4.6
	c-0.5,0.7,0.9,3,1.6,3c0.3,0,2.4,0.2,4.4,0.4c0.8,2.5,1.7,4.9,2.6,7.1c-0.8,0.9-1.4,1.7-1.6,1.9c-0.5,0.7,0.9,3,1.6,3
	c0.2,0,1.2,0.1,2.4,0.2c1.6,2.9,3.3,5.5,5.1,7.6c-0.8,2.8-2.7,9-2.7,9.9c0,1.2,3.2,2.1,3.9,1.1c0.6-0.8,3-4.2,4.4-6
	c2.3,1.4,4.6,2.1,6.9,1.9c0.7,2.2,1.7,5.7,1.9,6.5c0.4,1.2,3.7,1.5,4.1,0.3c0.3-0.9,0.6-7.2,0.8-10.1c0.8-0.8,1.6-1.7,2.3-2.7
	c1.9,1.3,5.1,3.5,5.8,4c1.1,0.7,3.8-1.2,3.4-2.3c-0.3-0.8-3.9-5.8-5.6-8.3c0.7-1.7,1.3-3.5,1.9-5.4c2.5,1.1,6.1,2.8,7,3.2
	c1.4,0.6,3.9-2.4,3.2-3.6c-0.6-0.9-5.6-5.8-8.2-8.3c0.2-1.2,0.4-2.4,0.5-3.6c2.6,0.2,7.9,0.5,8.9,0.3
	C336.3,204.9,337.2,201.6,336.4,200.7z"/>
<ellipse id="XMLID_154_" transform="matrix(0.9887 -0.1499 0.1499 0.9887 -23.9615 47.7897)" class="st1" cx="305" cy="182.8" rx="13.7" ry="30.5"/>
<linearGradient id="XMLID_269_" gradientUnits="userSpaceOnUse" x1="105.7809" y1="391.3334" x2="384.0348" y2="391.3334">
	<stop  offset="0" style="stop-color:#D8D9DA"/>
	<stop  offset="0.2364" style="stop-color:#6F7072"/>
	<stop  offset="0.4727" style="stop-color:#B0B2B3"/>
	<stop  offset="0.7576" style="stop-color:#3D3D3F"/>
</linearGradient>
<path id="XMLID_153_" class="st2" d="M119.4,351.7v39.6l0,0c0,21.9,41.3,39.6,92.3,39.6c51,0,92.3-17.7,92.3-39.6l0,0v-39.6H119.4z"
	/>
<linearGradient id="XMLID_270_" gradientUnits="userSpaceOnUse" x1="63.1859" y1="339.0176" x2="357.5676" y2="339.0176">
	<stop  offset="0" style="stop-color:#D8D9DA"/>
	<stop  offset="0.2364" style="stop-color:#6F7072"/>
	<stop  offset="0.2909" style="stop-color:#D8D9DA"/>
	<stop  offset="0.4727" style="stop-color:#B0B2B3"/>
	<stop  offset="0.7576" style="stop-color:#3D3D3F"/>
</linearGradient>
<path id="XMLID_152_" class="st3" d="M247.1,305.7c-11.7-0.7-24-1.1-36.7-1.1c-12.7,0-25,0.4-36.7,1.1H63.2v34h0
	c1.6,18.7,66.8,33.7,147.2,33.7c80.3,0,145.6-15,147.2-33.7h0v-34H247.1z"/>
<ellipse id="XMLID_151_" class="st4" cx="208.4" cy="287.9" rx="169.2" ry="69.9"/>
<path id="XMLID_150_" class="st5" d="M220.8,238.4c-0.8,1.3,4.7-17,5.4-17.8c0.7-0.8,4.6-0.7,4.9,0c0.3,0.7,3.9,18.3,3.9,18.3
	L220.8,238.4z"/>
<polyline id="XMLID_149_" class="st6" points="231.1,220.6 242.5,230.7 240.2,239.2 235,238.8 231.1,220.6 "/>
<path id="XMLID_148_" class="st7" d="M104.1,260.2"/>
<polygon id="XMLID_147_" class="st6" points="370.8,273 317.4,257.2 320.5,244.2 373.9,262.3 375.1,265.5 "/>
<linearGradient id="XMLID_271_" gradientUnits="userSpaceOnUse" x1="405.0731" y1="81.957" x2="434.0243" y2="281.3997">
	<stop  offset="0" style="stop-color:#D8D9DA"/>
	<stop  offset="0.2061" style="stop-color:#D8D9DA"/>
	<stop  offset="0.3515" style="stop-color:#6F7072"/>
	<stop  offset="0.5091" style="stop-color:#B0B2B3"/>
	<stop  offset="0.6909" style="stop-color:#3D3D3F"/>
	<stop  offset="0.9455" style="stop-color:#8E8F91"/>
</linearGradient>
<path id="XMLID_146_" class="st8" d="M468.4,151.9c-7.2-38.7-29.4-65.5-39.3-64.3l-74.6,12.3l26.4,141.6l71.6-13.3
	C462.1,225.7,475.6,190.6,468.4,151.9z"/>
<linearGradient id="XMLID_272_" gradientUnits="userSpaceOnUse" x1="210.5719" y1="203.806" x2="210.5719" y2="352.5829">
	<stop  offset="0" style="stop-color:#D8D9DA"/>
	<stop  offset="0.2061" style="stop-color:#D8D9DA"/>
	<stop  offset="0.3515" style="stop-color:#6F7072"/>
	<stop  offset="0.5091" style="stop-color:#B0B2B3"/>
	<stop  offset="0.6909" style="stop-color:#3D3D3F"/>
	<stop  offset="0.9455" style="stop-color:#8E8F91"/>
</linearGradient>
<ellipse id="XMLID_145_" class="st9" cx="210.6" cy="269.9" rx="113" ry="31.8"/>
<path id="XMLID_144_" class="st10" d="M131.8,286.2c-1.9-2.3-4.9-1.6-4.9-1.6L91.1,325c0,0,4.3-0.5,6.4,2.6
	C98.3,328.4,132.2,288.1,131.8,286.2z"/>
<path id="XMLID_143_" class="st10" d="M118.5,282.7c-1.9-2.3-5.5-1.5-5.5-1.5l-41.3,38.9c0,0,3.8,0.4,5.6,2.7
	C78.1,323.7,118.8,284.6,118.5,282.7z"/>
<path id="XMLID_142_" class="st10" d="M170,294.5c-1.7-1.2-6.3-1.2-6.3-1.2l-20.7,45.4c0,0,5.5-0.8,10.5,0.1L170,294.5z"/>
<path id="XMLID_141_" class="st10" d="M191.2,293.9c-4.9-1-6.7,1-6.7,1l-12.4,45.6c0,0,4.8-2.1,10.3-0.8
	C182.4,339.6,192.2,295.5,191.2,293.9z"/>
<path id="XMLID_140_" class="st10" d="M277.8,334.9c0,0-0.8-1.3-4.7-1.3c-2.4,0-5.2,0.7-5.2,0.7l-20.4-44.1c0,0,1.7-0.7,3-0.7
	c1.8-0.1,3.6,0.8,3.6,0.8L277.8,334.9z"/>
<path id="XMLID_139_" class="st10" d="M302.6,328.5c0,0-0.3-0.2-4.2,0.2c-2.4,0.3-5.1,2.1-5.1,2.1l-26.4-44c0,0,1.3-0.4,2.6-0.6
	c2.4-0.4,3.9,1.3,3.9,1.3L302.6,328.5z"/>
<path id="XMLID_138_" class="st6" d="M191.3,221.3c-0.7,0-4.1-0.6-5.7,0.5c-4.1,2.6-10.4,9.4-10.4,9.4l-13.4,2.8l-0.6,6.7l35.3-2.6
	C196.5,238.2,192,221.3,191.3,221.3z"/>
<linearGradient id="XMLID_273_" gradientUnits="userSpaceOnUse" x1="248.1245" y1="271.4468" x2="175.343" y2="271.4468">
	<stop  offset="0.3091" style="stop-color:#3D3D3F"/>
	<stop  offset="0.3697" style="stop-color:#6F7072"/>
	<stop  offset="0.4242" style="stop-color:#1A171B"/>
	<stop  offset="0.4727" style="stop-color:#B0B2B3"/>
	<stop  offset="0.5636" style="stop-color:#1A171B"/>
	<stop  offset="0.7273" style="stop-color:#1F1D21"/>
	<stop  offset="0.9212" style="stop-color:#3D3D3F"/>
</linearGradient>
<ellipse id="XMLID_137_" class="st11" cx="210.2" cy="271.4" rx="32.1" ry="8.3"/>
<path id="XMLID_136_" class="st10" d="M98,265.2c-0.2-0.5-1.2-1.9-1.2-1.9c-3.9,0.7-54.2,27.8-54.2,27.8l2.2,3
	C45.4,295.2,98,267.3,98,265.2z"/>
<g id="XMLID_351_">
	<path id="XMLID_135_" class="st6" d="M171.6,223.8c-1.3-0.8-4.1-0.8-5.7,0c-1.6,0.8-16.3,9.4-16.3,9.4l-0.2,1.8l0.5,8.2l28.3-3.7
		C178.2,239.5,173.6,228.2,171.6,223.8z"/>
	<path id="XMLID_134_" class="st5" d="M163,241.5c0,0,3.9-17.1,4.5-17.8c0.9-1,4.1,0,4.3,0.4c0.3,0.7,6.3,15.2,6.3,15.2L163,241.5z"
		/>
	<path id="XMLID_133_" class="st6" d="M156.2,227.4c-0.5-0.8-3.1-1-6.2,0.1c-3.1,1.1-17.1,5.6-17.1,5.6l-0.4,2.6l0.1,11.7l29.4-5.8
		C162,241.6,157,228.7,156.2,227.4z"/>
	<g id="XMLID_353_">
		<path id="XMLID_132_" class="st12" d="M137.9,229.8c-3.1-0.1-9.3,2.7-11.6,3.4c-2.3,0.7-11.7,3.6-11.7,3.6l-0.1,3.4l0,12.3
			l29.8-7.5C144.2,244.9,138.7,231.1,137.9,229.8z"/>
		<path id="XMLID_131_" class="st5" d="M132.2,247.6c0,0,0.5-16.6,1.4-17.1c0.8-0.4,4.1-1.2,4.3-0.8c0.3,0.6,6.4,15.3,6.4,15.3
			L132.2,247.6z"/>
		<polygon id="XMLID_130_" class="st12" points="118.1,235.4 94.3,244.8 93.7,246.4 96,258 123.9,249.7 		"/>
		<path id="XMLID_129_" class="st5" d="M114.4,252.4c0,0,0-14.9,0.4-15.3c0.6-0.6,3.3-1.7,3.3-1.7c0.3,0.6,5.8,14.3,5.8,14.3
			L114.4,252.4z"/>
		<g id="XMLID_354_">
			<polygon id="XMLID_128_" class="st12" points="106.5,240 104.8,240.5 49.4,263.6 46.8,267.2 42.9,273.8 111.8,253.1 			"/>
			<path id="XMLID_127_" class="st5" d="M104.7,255.7c0,0-1.3-13.8-1.1-14.4c0.3-0.7,2.9-1.3,2.9-1.3c0.2,0.5,5.1,13.2,5.1,13.2
				L104.7,255.7z"/>
			<polygon id="XMLID_126_" class="st12" points="97.8,246.1 97.1,246.7 96.6,247.1 46.3,267.9 44.1,271.3 41.2,277.6 102.3,259.9 
							"/>
			<path id="XMLID_125_" class="st5" d="M97.8,246.1c-1.1,0.6,3.3,14.9,3.3,14.9l2.4-2.4C103.5,258.6,98.9,245.6,97.8,246.1z"/>
			<polygon id="XMLID_124_" class="st10" points="92.5,251.4 41.5,276.4 40.4,280 39.6,285.4 96.4,262.1 			"/>
			<path id="XMLID_123_" class="st5" d="M92.9,251.2c-0.9,0.4,2.7,11.9,2.7,11.9l2-1.9C97.5,261.3,93.8,250.8,92.9,251.2z"/>
		</g>
	</g>
	<path id="XMLID_122_" class="st5" d="M147.2,244.2c0,0,3.3-16.1,4-16.9c0.6-0.7,4-0.6,5,0.1c0.6,0.4,5.5,14.2,5.5,14.2L147.2,244.2
		z"/>
</g>
<path id="XMLID_121_" class="st5" d="M181.3,239.2c0,0,4.7-17.1,5.4-17.9c1-1.1,4.7-0.4,4.9,0c0.3,0.8,4.9,16.9,4.9,16.9
	L181.3,239.2z"/>
<path id="XMLID_120_" class="st6" d="M207.9,219.3c-2.2,0-7.9,8.3-7.6,9.5c0.3,1.2,0,9.5,0,9.5l15.2-0.4c0,0-0.9-9.5-0.8-11
	C214.8,225.4,209.1,219.3,207.9,219.3z"/>
<path id="XMLID_119_" class="st5" d="M200.3,238.3c0,0,4.7-17.5,5.4-18.3c0.7-0.9,4.6-0.8,4.9,0c0.3,0.8,4.9,18,4.9,18L200.3,238.3z
	"/>
<polygon id="XMLID_118_" class="st6" points="249.5,222.5 262.4,228.6 263.2,241.5 253.2,240.1 "/>
<path id="XMLID_117_" class="st5" d="M240.6,238.8c0,0,3.9-15.2,4.7-16c0.7-0.8,4.6-0.8,4.9,0c0.3,0.8,3,17.3,3,17.3L240.6,238.8z"
	/>
<polygon id="XMLID_116_" class="st6" points="267,225 279.8,228.9 277,244.2 269.1,242.8 "/>
<polygon id="XMLID_115_" class="st6" points="283.5,228.9 300,234.6 301.4,239.9 284.6,245.9 "/>
<path id="XMLID_114_" class="st5" d="M258.1,240.9c0,0,3.4-14.9,4.1-15.7s5.3-0.6,5.3,0c0,3.1,0.5,4.5,1.6,17.4L258.1,240.9z"/>
<path id="XMLID_113_" class="st5" d="M272.6,243.3c0,0,5.6-13.5,6.3-14.3s5.4-0.2,5.7,0.6c0.3,0.8,0.9,16.7,0.9,16.7L272.6,243.3z"
	/>
<polygon id="XMLID_112_" class="st6" points="303.3,234.7 319.8,240.3 321.2,245.6 304.4,251.6 "/>
<path id="XMLID_111_" class="st13" d="M91.1,338.3c0,0-1.2-11-0.3-13c0.5-1.1,5.7,0.2,6.7,2.2c1.1,2.2,5.9,15,5.9,15L91.1,338.3z"/>
<path id="XMLID_110_" class="st13" d="M71.7,328.8c0,0-0.8-7.8,0-8.6c0.9-0.8,4.6,1,5.6,3.1c1.1,2.2,1.5,9.3,1.5,9.3L71.7,328.8z"/>
<path id="XMLID_109_" class="st13" d="M40,294.7c0,0,1.5-2.5,2.2-3.3c1-1.2,3.1,2.3,2.5,3c-0.6,0.7-1.8,4.8-2.7,6.2L40,294.7z"/>
<polygon id="XMLID_108_" class="st6" points="44.8,294.3 42.3,300.6 96.9,270.4 97.5,269.9 98,265.3 "/>
<path id="XMLID_107_" class="st10" d="M98.4,272c-2.1-2.7-3.5-2.6-3.5-2.6l-47.2,30c0,0,0.1,1.5,2,4C50.3,304.2,98.6,273.8,98.4,272
	z"/>
<path id="XMLID_106_" class="st13" d="M45.2,306.5c0,0,1.3-4.9,2.3-7.3c0.5-1,4,2.5,4,3.6c0.1,3.1,0,11,0,11s-4.9-5.4-3.6-3.8
	C49.2,311.8,45.2,306.5,45.2,306.5z"/>
<polygon id="XMLID_105_" class="st14" points="51.6,302 51.6,314 99.5,278.1 98.4,272 "/>
<path id="XMLID_104_" class="st10" d="M106.7,277c-1.4-1.9-4.2-1.8-4.2-1.8l-45.2,32.9c0,0,1.9,1.1,4,3.6
	C61.3,311.8,106.8,278.9,106.7,277z"/>
<path id="XMLID_103_" class="st13" d="M55.2,317.8c0,0,1.4-8.9,2.1-9.7c0.8-0.9,4,2.5,4,3.6c0.1,3.1,0.1,10.8,0.1,10.8L55.2,317.8z"
	/>
<polygon id="XMLID_102_" class="st14" points="61.3,311.8 106.7,277 107.8,283.2 61.4,322.2 "/>
<polygon id="XMLID_101_" class="st14" points="77.4,322.8 118.5,282.7 119.9,288.9 78.8,332.6 "/>
<polygon id="XMLID_100_" class="st14" points="97.5,327.6 103.4,342.5 136.9,294 131.8,286.3 "/>
<path id="XMLID_99_" class="st10" d="M151.3,290.9c-1.8-2-4.7-0.8-4.7-0.8l-31.3,41c0,0,6.9,0.4,7.6,1
	C123.6,332.9,151.6,292.8,151.3,290.9z"/>
<path id="XMLID_98_" class="st13" d="M114.4,345.7c0,0-0.6-12.4,0.8-14.6c1-1.6,7.4-0.2,8.4,1.8c1.1,2.2,6.4,16.9,6.4,16.9
	L114.4,345.7z"/>
<polygon id="XMLID_97_" class="st14" points="122.9,332.1 151.3,290.9 155.7,297.7 130.1,349.9 "/>
<polygon id="XMLID_96_" class="st14" points="157.1,354.5 173.1,299.9 170,294.5 153.4,338.8 "/>
<path id="XMLID_95_" class="st13" d="M140.1,351.9c0,0,1.4-10.9,2.9-13.2c1-1.6,10-1.6,10.5,0.1c0.6,2.2,3.7,15.7,3.7,15.7
	L140.1,351.9z"/>
<polygon id="XMLID_94_" class="st14" points="182.4,339.6 188.4,357.1 194.2,301.7 191.2,293.9 "/>
<polygon id="XMLID_93_" class="st14" points="208.4,291.8 205.5,292.1 202.2,301.7 197.7,357.1 222.5,357.5 215.3,301.7 
	211.6,292.2 "/>
<polygon id="XMLID_92_" class="st14" points="231.7,291.4 228.8,291.7 225.5,301.3 229.6,357.1 253.1,355.1 238.4,300.8 
	234.3,291.3 "/>
<path id="XMLID_91_" class="st10" d="M213.3,340.5c0-0.3-7.9,0-7.9,0s-0.9-47.4,0-48.4c0.4-0.4,1.5-0.6,2.6-0.7c1.4,0,3,0.2,3.5,0.7
	C212.7,293.1,213.3,340.5,213.3,340.5z"/>
<path id="XMLID_90_" class="st13" d="M197.7,357.6c0,0,5.5-14.7,6.9-16.9c1-1.6,10-1.6,10.5,0.1c0.6,2.2,7.3,16.6,7.3,16.6
	s-3.4,0.4-10.6,0.5C204.5,357.9,197.7,357.6,197.7,357.6z"/>
<path id="XMLID_89_" class="st13" d="M167.8,355.8c0,0,3.1-13.5,4.5-15.8c1-1.6,10-1.6,10.5,0.1c0.6,2.2,5.6,17,5.6,17s-4,0-9.9-0.4
	C172.5,356.3,167.8,355.8,167.8,355.8z"/>
<path id="XMLID_88_" class="st10" d="M246.9,339.2c0,0-4.4-0.1-5.8-0.1c-1.4-0.1-3.9,0-3.9,0l-8.5-47.5c0,0,1.5-0.5,2.8-0.6
	c1.3-0.1,2.8,0.3,2.8,0.3L246.9,339.2z"/>
<path id="XMLID_87_" class="st13" d="M229.6,357.1c0,0,5.5-15.5,6.9-17.8c1-1.6,9.7-1.4,10.5,0.1c1,2,7.9,15.7,7.9,15.7
	s-6.9,0.9-12,1.2C237.9,356.7,229.6,357.1,229.6,357.1z"/>
<polygon id="XMLID_86_" class="st14" points="260.3,354.2 244.3,300.6 247.4,290.2 267.8,334.3 "/>
<path id="XMLID_85_" class="st13" d="M260.3,354.2c0,0,5.5-17.2,6.9-19.5c1-1.6,10-1.6,10.5,0.1c0.6,2.2,7.9,15,7.9,15
	s-6,1.5-12.3,2.6C267,353.6,260.3,354.2,260.3,354.2z"/>
<polygon id="XMLID_84_" class="st14" points="266.9,286.8 265.3,298.2 289.3,349.3 293.4,330.6 "/>
<path id="XMLID_83_" class="st13" d="M289.5,349.3c0,0,2.7-16.4,3.8-18.5c1-1.8,7.9-3.8,9.6-2.1c1.5,1.4,8.5,14.7,8.5,14.7
	s-5.5,1.8-10.5,3.1C296,347.7,289.5,349.3,289.5,349.3z"/>
<polygon id="XMLID_82_" class="st14" points="308.3,275.8 308.3,285.9 351.6,324.7 358,309.8 "/>
<polygon id="XMLID_81_" class="st14" points="319.7,278.5 317.7,268.5 370.1,295 370.5,308.1 "/>
<path id="XMLID_80_" class="st10" d="M363.1,306.1l-2.9,1.5c-1,0.9-2.2,2.1-2.2,2.1l-49.7-34c0,0,0.9-1.8,2.1-2.3
	c1.6-0.7,4,0.7,4,0.7L363.1,306.1z"/>
<polygon id="XMLID_79_" class="st14" points="296.7,280.9 296.8,290.5 333.3,334.9 341.8,318 "/>
<path id="XMLID_78_" class="st10" d="M327.7,321.4c0,0-3.3,0.6-4.6,1.1c-1.9,0.7-3.9,2.3-3.9,2.3l-36-40.6c0,0,1.3-1.6,2.5-2
	c1.7-0.5,3.9,1.2,3.9,1.2L327.7,321.4z"/>
<path id="XMLID_77_" class="st13" d="M315.3,342c0,0,3.1-15.1,3.9-17.2c0.8-2.2,7.9-4.1,8.5-3.4c0.8,1.1,4.5,14.1,4.5,14.1
	L315.3,342z"/>
<polygon id="XMLID_76_" class="st14" points="283.2,284.1 282.9,294.2 315.3,342 319.3,324.5 "/>
<path id="XMLID_75_" class="st10" d="M347.4,314.5c0,0-2.3,0.9-3,1.2c-0.6,0.2-2.6,2.3-2.6,2.3l-45.1-37.1c0,0,1.4-2.4,3.2-2.4
	C301.7,278.5,347.4,314.5,347.4,314.5z"/>
<path id="XMLID_74_" class="st13" d="M333.3,334.9c0,0,7-15.2,8.5-17c1.5-1.7,4.2-3.5,5.6-3.5c1.4,0,4,10.7,4,10.7L333.3,334.9z"/>
<path id="XMLID_73_" class="st13" d="M351.4,325.2c4.3-10.1,3.9-11.5,6.2-14.8c1.3-1.9,4.1-4.3,5.5-4.3c1.4,0-1.1,11.1-1.1,11.1
	L351.4,325.2z"/>
<path id="XMLID_72_" class="st15" d="M370.5,308.1c0,0-1.8-10.4-0.1-13c1.3-1.9,4.4-4.3,5.9-4.3l-1,8.9L370.5,308.1z"/>
<path id="XMLID_71_" class="st4" d="M282.8,168c0,0-0.8-53.3,25.6-75.4c10.3-8.6,24.8-11.8,39.8-5.1
	c66.2,33.5,48.7,179.1,21.7,177.8c-26.7-1.3-68.5-25.4-68.5-25.4L282.8,168z"/>
<polygon id="XMLID_70_" class="st16" points="329.4,156.1 330,160.5 389.1,147.8 387.6,143.5 "/>
<polygon id="XMLID_69_" class="st16" points="333.9,176.5 334,182.8 392.8,173.6 392.2,167.4 "/>
<polygon id="XMLID_68_" class="st16" points="336.7,200.7 335.5,205.3 393.6,205.8 393.6,200.7 "/>
<polygon id="XMLID_67_" class="st16" points="333.7,216.9 331.7,220.4 390.4,230.4 391.1,226.7 "/>
<polygon id="XMLID_66_" class="st16" points="327.2,230.8 324.6,233.5 384.9,249.2 386.3,245.6 "/>
<polygon id="XMLID_65_" class="st6" points="330,160.5 324.5,167.1 390.2,153.5 389.1,147.8 "/>
<polygon id="XMLID_64_" class="st16" points="320,135.4 322.2,138.2 378.9,120.3 376.8,116.9 "/>
<polygon id="XMLID_63_" class="st6" points="322.2,138.2 318.6,147.8 381.3,125.7 378.9,120.3 "/>
<polygon id="XMLID_62_" class="st6" points="300.8,119.1 303.9,131 332.8,84.4 330,84.4 "/>
<polygon id="XMLID_61_" class="st16" points="297.7,118.7 301.4,119.1 330,84.4 326.7,84.4 "/>
<polygon id="XMLID_60_" class="st6" points="313.8,123 312.8,137.7 357.4,93.5 354.1,90.8 "/>
<polygon id="XMLID_59_" class="st16" points="310.6,121.6 314.1,123 354.1,90.8 350.9,89 "/>
<polygon id="XMLID_58_" class="st6" points="296.8,132 297.7,108.6 297,107.5 291.2,121.5 "/>
<polygon id="XMLID_57_" class="st17" points="288.5,122.1 291.2,121.5 297,107.5 295.3,108.7 "/>
<polygon id="XMLID_56_" class="st6" points="334.2,182.3 326.7,186.8 393.3,177.5 392.8,173.6 "/>
<polygon id="XMLID_37_" class="st6" points="393.6,189.2 393.6,200.7 336.4,200.7 326.8,190.6 "/>
<polygon id="XMLID_36_" class="st6" points="325.5,208.6 392.2,216.9 391.1,226.7 333.7,216.9 "/>
<polygon id="XMLID_35_" class="st6" points="321.8,222.7 388,238.2 386.3,245.6 327.4,230.9 "/>
<polygon id="XMLID_34_" class="st18" points="311.7,240.9 373,261.1 369.9,264.2 307.4,241.7 "/>
<polygon id="XMLID_33_" class="st6" points="371.4,274.5 317.1,256.6 320.8,244.3 375.3,264.3 376.3,267.4 "/>
<path id="XMLID_32_" class="st6" d="M315.6,258.1c0,0,3.7-11.9,4.2-13.5c1.1-1.4,1.8,0.2,2.1,2.9c-0.4,1.4-2.8,13.4-2.8,13.4
	L315.6,258.1z"/>
<polygon id="XMLID_31_" class="st12" points="372.4,274.8 319,260.9 321.8,247.5 376.3,267.4 "/>
<polygon id="XMLID_30_" class="st6" points="376.2,285.4 321.9,267.6 325.8,255.1 380.1,275.3 381.1,278.4 "/>
<path id="XMLID_29_" class="st6" d="M322.3,265.3c0,0,2.2-8.2,2.7-9.8c1.2-1.3,1.8,0.3,2,2.9c-0.4,1.4-3.7,12.9-3.7,12.9
	L322.3,265.3z"/>
<polygon id="XMLID_28_" class="st12" points="377.4,286.7 323.6,269.9 327,258.5 381.1,278.4 "/>
<path id="XMLID_27_" class="st10" d="M376.3,290.7c0,0-1.2,0.1-2.9,1.5c-2.1,1.7-3.1,3.3-3.1,3.3l-52.6-26.9c0,0,1-2.1,2.8-2.5
	C324.4,265,376.3,290.7,376.3,290.7z"/>
<polygon id="XMLID_26_" class="st6" points="315.7,232 381.6,255.1 377.3,261.9 315.1,241.6 "/>
<polyline id="XMLID_25_" class="st19" points="301.7,243.4 300.5,237.4 313.5,237.6 315.3,248.1 305.3,251.1 "/>
<path id="XMLID_24_" class="st5" d="M294.7,248.1c0,0,4.1-10,4.7-10.6c0.6-0.6,4.1-0.7,4.3-0.1c0.2,0.6,1,14.2,1,14.2L294.7,248.1z"
	/>
<linearGradient id="XMLID_274_" gradientUnits="userSpaceOnUse" x1="274.0979" y1="180.5028" x2="336.6845" y2="180.5028">
	<stop  offset="0.1091" style="stop-color:#3D3D3F"/>
	<stop  offset="0.3515" style="stop-color:#58585A"/>
	<stop  offset="0.5939" style="stop-color:#58585A"/>
	<stop  offset="0.9091" style="stop-color:#C5C6C8"/>
</linearGradient>
<path id="XMLID_23_" class="st20" d="M336.4,200.7c-0.7-0.7-7.2-7.6-9.5-10.1c0-1.3,0-2.6-0.1-3.9c2.6-1.3,6.8-3.5,7.2-4
	c0.7-0.7,0.8-6.1-0.4-6.8c-0.4-0.2-5.9-2.3-8-3.1c-0.3-2-0.6-3.9-1-5.7c1.6-1.9,5.2-6,5.5-6.7c0.4-0.9,0.3-3.9-0.6-4.3
	c-0.4-0.2-5.3,0.1-7.6,0.2c-0.9-3-1.9-5.7-3-8.2c0.8-2.6,3-9.8,3.4-10.5c0.5-0.9-1.1-2.3-2.1-2.3c-0.5,0-4.7,2.4-6.5,3.4
	c-0.3-0.4-0.5-0.7-0.8-1.1c0.1-2.3,0.7-13.7,0.7-14.7c0-1.2-2-2-2.9-1.4c-0.4,0.3-3.6,7.6-4.7,10.2c-0.7-0.3-1.4-0.6-2-0.7
	c-0.7-2.7-2.8-10.9-3-11.9c-0.3-1.2-2.5-1.4-3.1-0.6c-0.3,0.4-0.5,10.6-0.5,13.2c-0.1,0.1-0.3,0.1-0.4,0.2c-1.2-2.3-4.6-9.1-5.1-10
	c-0.6-1.1-2.7-0.8-3.2,0.1c-0.2,0.4,2.4,10.2,3.4,13.9c-0.5,0.6-1,1.2-1.5,1.8c-1.5-2.8-5.1-9.7-5.8-10.5c-1-1.1-2.9,0.1-3.3,1.5
	c-0.1,0.4,3.4,10.1,5.3,15.5c-0.3,0.7-0.6,1.3-0.9,2.1c-2-1.1-7-4-8-4.1c-1.3-0.2-2.3,1.7-1.6,3c0.6,1.1,5.2,7.8,6.7,10.1
	c-0.5,2.2-0.9,4.5-1.2,6.8c-2-0.4-6.1-1.1-6.6-0.9c-0.8,0.2-1.3,2.7-0.8,3.2c0.4,0.4,5,4.8,7,6.8c0,2.7,0.1,5.5,0.3,8.2
	c-1.8,1.1-4.8,2.9-5.2,3.2c-0.6,0.5,0.1,3.1,0.6,3.3c0.4,0.2,3.2,1.6,5.2,2.7c0.4,4.1,1.1,8.1,1.9,11.9c-1.5,1.8-3.6,4.1-3.9,4.6
	c-0.5,0.7,0.9,3,1.6,3c0.3,0,2.4,0.2,4.4,0.4c0.8,2.5,1.7,4.9,2.6,7.1c-0.8,0.9-1.4,1.7-1.6,1.9c-0.5,0.7,0.9,3,1.6,3
	c0.2,0,1.2,0.1,2.4,0.2c1.6,2.9,3.3,5.5,5.1,7.6c-0.8,2.8-2.7,9-2.7,9.9c0,1.2,3.2,2.1,3.9,1.1c0.6-0.8,3-4.2,4.4-6
	c2.3,1.4,4.6,2.1,6.9,1.9c0.7,2.2,1.7,5.7,1.9,6.5c0.4,1.2,3.7,1.5,4.1,0.3c0.3-0.9,0.6-7.2,0.8-10.1c0.8-0.8,1.6-1.7,2.3-2.7
	c1.9,1.3,5.1,3.5,5.8,4c1.1,0.7,3.8-1.2,3.4-2.3c-0.3-0.8-3.9-5.8-5.6-8.3c0.7-1.7,1.3-3.5,1.9-5.4c2.5,1.1,6.1,2.8,7,3.2
	c1.4,0.6,3.9-2.4,3.2-3.6c-0.6-0.9-5.6-5.8-8.2-8.3c0.2-1.2,0.4-2.4,0.5-3.6c2.6,0.2,7.9,0.5,8.9,0.3
	C336.3,204.9,337.2,201.6,336.4,200.7z"/>
<linearGradient id="XMLID_275_" gradientUnits="userSpaceOnUse" x1="293.3006" y1="156.5638" x2="319.0349" y2="214.4659">
	<stop  offset="0.2" style="stop-color:#3D3D3F"/>
	<stop  offset="0.3879" style="stop-color:#868789"/>
	<stop  offset="0.5939" style="stop-color:#6F7072"/>
	<stop  offset="0.8182" style="stop-color:#3D3D3F"/>
</linearGradient>
<path id="XMLID_20_" class="st21" d="M318.5,180.8c2.5,16.7-1.5,31.1-8.9,32.2c-7.5,1.1-15.6-11.5-18.1-28.1
	c-2.5-16.7,1.5-31.1,8.9-32.2C307.9,151.5,316,164.1,318.5,180.8z"/>
</svg>
