<?xml version="1.0" encoding="utf-8"?>
<!-- Generator: Adobe Illustrator 19.0.0, SVG Export Plug-In . SVG Version: 6.00 Build 0)  -->
<svg version="1.1" id="Camada_1" xmlns="http://www.w3.org/2000/svg" xmlns:xlink="http://www.w3.org/1999/xlink" x="0px" y="0px"
	 viewBox="0 0 500 500" style="enable-background:new 0 0 500 500;" xml:space="preserve">
<style type="text/css">
	.st0{fill:#1A171B;stroke:#1A171B;stroke-width:7.3446;stroke-linejoin:round;stroke-miterlimit:10;}
	.st1{fill:#1A171B;stroke:#1A171B;stroke-width:7.3446;stroke-miterlimit:10;}
	.st2{fill:url(#XMLID_153_);stroke:#1A171B;stroke-width:1.2241;stroke-linejoin:round;stroke-miterlimit:10;}
	.st3{fill:url(#XMLID_154_);stroke:#1A171B;stroke-width:1.2241;stroke-linejoin:round;stroke-miterlimit:10;}
	.st4{fill:#3D3D3F;stroke:#1A171B;stroke-width:1.2241;stroke-linejoin:round;stroke-miterlimit:10;}
	.st5{fill:url(#XMLID_155_);stroke:#1A171B;stroke-width:1.2241;stroke-linejoin:round;stroke-miterlimit:10;}
	.st6{fill:#EEE272;stroke:#1A171B;stroke-width:1.2241;stroke-linejoin:round;stroke-miterlimit:10;}
	.st7{fill:url(#XMLID_156_);stroke:#1A171B;stroke-width:1.2241;stroke-linejoin:round;stroke-miterlimit:10;}
	.st8{fill:url(#XMLID_157_);stroke:#1A171B;stroke-width:1.2241;stroke-linejoin:round;stroke-miterlimit:10;}
	.st9{fill:url(#XMLID_158_);stroke:#1A171B;stroke-width:1.2241;stroke-linejoin:round;stroke-miterlimit:10;}
	.st10{fill:url(#XMLID_159_);stroke:#1A171B;stroke-width:1.2241;stroke-linejoin:round;stroke-miterlimit:10;}
	.st11{fill:url(#XMLID_160_);stroke:#1A171B;stroke-width:1.2241;stroke-linejoin:round;stroke-miterlimit:10;}
	.st12{fill:url(#XMLID_161_);stroke:#1A171B;stroke-width:1.2241;stroke-linejoin:round;stroke-miterlimit:10;}
	.st13{fill:url(#XMLID_162_);stroke:#1A171B;stroke-width:1.2241;stroke-linejoin:round;stroke-miterlimit:10;}
	.st14{fill:url(#XMLID_163_);stroke:#1A171B;stroke-width:1.2241;stroke-linejoin:round;stroke-miterlimit:10;}
	.st15{fill:url(#XMLID_164_);stroke:#1A171B;stroke-width:1.2241;stroke-linejoin:round;stroke-miterlimit:10;}
	.st16{fill:url(#XMLID_165_);stroke:#1A171B;stroke-width:1.2241;stroke-linejoin:round;stroke-miterlimit:10;}
	.st17{fill:url(#XMLID_166_);stroke:#1A171B;stroke-width:1.2241;stroke-linejoin:round;stroke-miterlimit:10;}
	.st18{fill:url(#XMLID_167_);stroke:#1A171B;stroke-width:1.2241;stroke-linejoin:round;stroke-miterlimit:10;}
	.st19{fill:#1A171B;stroke:#1A171B;stroke-width:1.2241;stroke-linejoin:round;stroke-miterlimit:10;}
	.st20{fill:url(#XMLID_168_);stroke:#1A171B;stroke-width:1.2241;stroke-linejoin:round;stroke-miterlimit:10;}
	.st21{fill:url(#XMLID_169_);stroke:#1A171B;stroke-width:1.2241;stroke-linejoin:round;stroke-miterlimit:10;}
	.st22{fill:url(#XMLID_170_);stroke:#1A171B;stroke-width:1.2241;stroke-linejoin:round;stroke-miterlimit:10;}
	.st23{fill:url(#XMLID_171_);stroke:#1A171B;stroke-width:1.2241;stroke-linejoin:round;stroke-miterlimit:10;}
	.st24{fill:url(#XMLID_172_);stroke:#1A171B;stroke-width:1.2241;stroke-linejoin:round;stroke-miterlimit:10;}
	.st25{fill:url(#XMLID_173_);stroke:#1A171B;stroke-width:1.2241;stroke-linejoin:round;stroke-miterlimit:10;}
	.st26{fill:url(#XMLID_174_);stroke:#1A171B;stroke-width:1.2241;stroke-linejoin:round;stroke-miterlimit:10;}
	.st27{fill:url(#XMLID_175_);stroke:#1A171B;stroke-width:1.2241;stroke-linejoin:round;stroke-miterlimit:10;}
	.st28{fill:url(#XMLID_176_);stroke:#1A171B;stroke-width:1.2241;stroke-linejoin:round;stroke-miterlimit:10;}
	.st29{fill:url(#XMLID_177_);stroke:#1A171B;stroke-width:1.2241;stroke-linejoin:round;stroke-miterlimit:10;}
	.st30{fill:url(#XMLID_178_);stroke:#1A171B;stroke-width:1.2241;stroke-linejoin:round;stroke-miterlimit:10;}
	.st31{fill:url(#XMLID_179_);stroke:#1A171B;stroke-width:1.2241;stroke-linejoin:round;stroke-miterlimit:10;}
	.st32{fill:url(#XMLID_180_);stroke:#1A171B;stroke-width:1.2241;stroke-linejoin:round;stroke-miterlimit:10;}
	.st33{fill:url(#XMLID_181_);stroke:#1A171B;stroke-width:1.2241;stroke-linejoin:round;stroke-miterlimit:10;}
	.st34{fill:url(#XMLID_182_);stroke:#1A171B;stroke-width:1.2241;stroke-linejoin:round;stroke-miterlimit:10;}
	.st35{fill:url(#XMLID_183_);stroke:#1A171B;stroke-width:1.2241;stroke-linejoin:round;stroke-miterlimit:10;}
	.st36{fill:url(#XMLID_184_);stroke:#1A171B;stroke-width:1.2241;stroke-linejoin:round;stroke-miterlimit:10;}
	.st37{fill:#3D3D3F;stroke:#1A171B;stroke-width:1.2241;stroke-miterlimit:10;}
	.st38{fill:#58585A;stroke:#1A171B;stroke-width:1.2241;stroke-miterlimit:10;}
	.st39{fill:#868789;stroke:#1A171B;stroke-width:1.2241;stroke-miterlimit:10;}
	.st40{fill:#1A171B;stroke:#1A171B;stroke-width:1.2241;stroke-miterlimit:10;}
	.st41{fill:url(#XMLID_185_);stroke:#1A171B;stroke-width:1.2241;stroke-linejoin:round;stroke-miterlimit:10;}
	.st42{fill:url(#XMLID_186_);stroke:#1A171B;stroke-width:1.2241;stroke-linejoin:round;stroke-miterlimit:10;}
</style>
<rect id="XMLID_151_" x="108.8" y="86.5" class="st0" width="36.3" height="205.3"/>
<polygon id="XMLID_150_" class="st0" points="126.3,333.4 108.8,291.8 145,291.8 "/>
<path id="XMLID_149_" class="st0" d="M104.6,120.9c4.1,2,45.6-5.4,49.1-9.4c1.3-1.5-4.5-5.4-8-4.7c-1.7,0.3-7.4,2.4-18.8,4.6
	c-15,2.9-18.4,1.6-19.4,1.8C100,115,102.6,119.9,104.6,120.9z"/>
<path id="XMLID_148_" class="st0" d="M103.4,139.6c4.3,2,47.2-5.7,50.9-9.7c1.4-1.5-4.6-5.4-8.3-4.7c-1.8,0.3-7.7,2.5-19.5,4.7
	c-15.6,3-19.1,1.7-20.1,1.9C98.7,133.7,101.3,138.7,103.4,139.6z"/>
<path id="XMLID_147_" class="st0" d="M103.8,156.1c4.3,2,47.2-5.7,50.9-9.7c1.4-1.5-4.6-5.4-8.3-4.7c-1.8,0.3-7.7,2.5-19.5,4.7
	c-15.6,3-19.1,1.7-20.1,1.9C99,150.2,101.6,155.2,103.8,156.1z"/>
<path id="XMLID_146_" class="st0" d="M103.4,173.6c4.3,2,47.2-5.7,50.9-9.7c1.4-1.5-4.6-5.4-8.3-4.7c-1.8,0.3-7.7,2.5-19.5,4.7
	c-15.6,3-19.1,1.7-20.1,1.9C98.7,167.7,101.3,172.6,103.4,173.6z"/>
<path id="XMLID_145_" class="st0" d="M102.5,192.7c4.3,2,47.2-5.7,50.9-9.7c1.4-1.5-4.6-5.4-8.3-4.7c-1.8,0.3-7.7,2.5-19.5,4.7
	c-15.6,3-19.1,1.7-20.1,1.9C97.7,186.7,100.3,191.7,102.5,192.7z"/>
<path id="XMLID_144_" class="st0" d="M101.1,210c4.5,1.9,50.1-6.2,54.1-10.3c1.5-1.5-4.8-5.3-8.7-4.6c-1.9,0.3-8.2,2.6-20.7,5
	c-16.5,3.2-20.3,1.9-21.3,2.1C96.1,204.1,98.8,209,101.1,210z"/>
<path id="XMLID_143_" class="st0" d="M101.1,228.4c4.5,1.9,49.4-6.1,53.3-10.1c1.5-1.5-4.8-5.3-8.6-4.6c-1.8,0.3-8.1,2.5-20.4,4.9
	c-16.3,3.1-20,1.8-21,2.1C96.2,222.5,98.9,227.4,101.1,228.4z"/>
<path id="XMLID_142_" class="st0" d="M101.3,244.8c4.5,1.9,49.4-6.1,53.3-10.1c1.5-1.5-4.8-5.3-8.6-4.6c-1.8,0.3-8.1,2.5-20.4,4.9
	c-16.3,3.1-20,1.8-21,2.1C96.4,238.9,99.1,243.9,101.3,244.8z"/>
<path id="XMLID_141_" class="st0" d="M101.1,261.5c4.5,1.9,49.4-6.1,53.3-10.1c1.5-1.5-4.8-5.3-8.6-4.6c-1.8,0.3-8.1,2.5-20.4,4.9
	c-16.3,3.1-20,1.8-21,2.1C96.2,255.6,98.9,260.5,101.1,261.5z"/>
<path id="XMLID_140_" class="st0" d="M102.5,279.8c4.5,1.9,49.4-6.1,53.3-10.1c1.5-1.5-4.8-5.3-8.6-4.6c-1.8,0.3-8.1,2.5-20.4,4.9
	c-16.3,3.1-20,1.8-21,2.1C97.6,273.9,100.3,278.9,102.5,279.8z"/>
<path id="XMLID_139_" class="st0" d="M106,295.5c4,1.4,42.7-8,45.8-11.7c1.2-1.4-4.4-4.2-7.7-3.4c-1.6,0.4-6.9,2.6-17.5,5.3
	c-14,3.6-17.3,2.7-18.2,3C101.5,290.8,104,294.8,106,295.5z"/>
<path id="XMLID_138_" class="st0" d="M122.4,304.9c2.3,0.5,24.5-9.9,23.7-12.5c-1-3-4.4-0.5-6,0.2c-0.8,0.4-3.2,2.2-8.4,4.7
	c-6.8,3.3-8.6,3.1-9,3.3C119.3,302.5,121.2,304.7,122.4,304.9z"/>
<path id="XMLID_137_" class="st0" d="M385.6,93.4c-6.2,0.1-28.3-0.1-31.2,0c-3.8-12.8-47.2-34.6-33.9-38.9c18.1,0,93.8-0.2,97.3,0
	C431.3,59.4,389.8,79.2,385.6,93.4z"/>
<path id="XMLID_136_" class="st0" d="M420.1,56.1c0,4.8-27.2,8.6-53.2,8.6c-26,0-48.7-3.9-48.7-8.6c0-4.8,22.7-8.6,48.7-8.6
	C392.9,47.5,420.1,51.3,420.1,56.1z"/>
<polygon id="XMLID_135_" class="st0" points="377.2,323.3 370.5,339.4 366.2,339.4 360.7,322.5 354.4,294.9 354.4,93.4 385.6,93.4 
	383.8,295 "/>
<path id="XMLID_134_" class="st0" d="M346.5,129.2c1.4,1.7,46.8-11.4,47.4-13.2c0.7-1.8-1.6-4.4-1.6-4.4l-6.3-2.3
	c0,0,0.6,3.3-0.1,4.9c-0.7,1.6-31.1,10.3-32.1,9.3c-1-0.9,0.2-3.3,0.2-3.3s-6.4,3.7-7.4,5.2C345.6,126.9,345.7,128.1,346.5,129.2z"
	/>
<path id="XMLID_133_" class="st0" d="M347,150.2c1.3,1.7,45.3-11,46-12.7c0.6-1.8-1.6-4.4-1.6-4.4l-6.1-2.3c0,0,0.6,3.3,0,4.9
	c-0.6,1.6-30.1,10-31.1,9c-1-1,0.2-3.3,0.2-3.3s-6.2,3.6-7.2,5.1C346.1,147.9,346.2,149.1,347,150.2z"/>
<path id="XMLID_132_" class="st0" d="M346.9,171.7c1.3,1.7,45.5-11,46.1-12.8c0.7-1.8-1.6-4.4-1.6-4.4l-6.1-2.3c0,0,0.6,3.3,0,4.9
	c-0.6,1.6-30.2,10-31.2,9.1c-1-1,0.2-3.3,0.2-3.3s-6.2,3.6-7.2,5.1C345.9,169.4,346,170.6,346.9,171.7z"/>
<path id="XMLID_131_" class="st0" d="M346.7,194.5c1.3,1.7,45.9-11.1,46.5-12.9c0.7-1.8-1.6-4.4-1.6-4.4l-6.2-2.3c0,0,0.6,3.3,0,4.9
	c-0.6,1.6-30.5,10.1-31.5,9.1c-1-1,0.2-3.3,0.2-3.3s-6.2,3.6-7.3,5.1C345.8,192.2,345.9,193.4,346.7,194.5z"/>
<path id="XMLID_130_" class="st0" d="M346.7,216.2c1.3,1.7,45.6-11.1,46.3-12.8c0.7-1.8-1.6-4.4-1.6-4.4l-6.1-2.3c0,0,0.6,3.3,0,4.9
	c-0.6,1.6-30.3,10-31.4,9.1c-1-1,0.2-3.3,0.2-3.3s-6.2,3.6-7.2,5.1C345.8,213.9,345.9,215.1,346.7,216.2z"/>
<path id="XMLID_129_" class="st0" d="M346.7,236.2c1.3,1.7,44.8-10.8,45.5-12.6c0.6-1.8-1.6-4.4-1.6-4.4l-6-2.4c0,0,0.6,3.3,0,4.9
	c-0.6,1.5-29.8,9.9-30.8,8.9c-1-1,0.2-3.3,0.2-3.3s-6.1,3.6-7.1,5.1C345.8,233.9,345.9,235.1,346.7,236.2z"/>
<path id="XMLID_128_" class="st0" d="M346.7,258.3c1.3,1.7,44.8-10.8,45.5-12.6c0.6-1.8-1.6-4.4-1.6-4.4l-6-2.4c0,0,0.6,3.3,0,4.9
	c-0.6,1.5-29.8,9.9-30.8,8.9c-1-1,0.2-3.3,0.2-3.3s-6.1,3.6-7.1,5.1C345.7,255.9,345.8,257.1,346.7,258.3z"/>
<path id="XMLID_127_" class="st0" d="M346.7,280.6c1.3,1.7,44.8-10.8,45.5-12.6c0.6-1.8-1.6-4.4-1.6-4.4l-6-2.4c0,0,0.6,3.3,0,4.9
	c-0.6,1.5-29.8,9.9-30.8,8.9c-1-1,0.2-3.3,0.2-3.3s-6.1,3.6-7.1,5.1C345.7,278.2,345.8,279.4,346.7,280.6z"/>
<path id="XMLID_126_" class="st0" d="M346.7,301.8c1.3,1.7,44.8-10.8,45.5-12.6c0.6-1.8-1.6-4.4-1.6-4.4l-6-2.4c0,0,0.6,3.3,0,4.9
	c-0.6,1.5-29.8,9.9-30.8,8.9c-1-1,0.2-3.3,0.2-3.3s-6.1,3.6-7.1,5.1C345.7,299.4,345.8,300.6,346.7,301.8z"/>
<path id="XMLID_125_" class="st0" d="M352.3,318.7c1,1.1,34.8-8.6,35.4-9.8c0.5-1.2-1.1-3-1.1-3l-4.6-1.4c0,0,0.4,2.2-0.1,3.3
	c-0.5,1.1-23.2,7.5-24,6.9c-0.8-0.6,0.2-2.2,0.2-2.2s-4.8,2.6-5.6,3.6C351.7,317.1,351.7,318,352.3,318.7z"/>
<path id="XMLID_124_" class="st0" d="M420.1,56c0,3.8-23.9,6-50.9,6c-27,0-50.9-2.8-50.9-6.6c0-3.8,24.1-7.9,51.1-7.9
	C396.5,47.5,420.1,52.1,420.1,56z"/>
<polygon id="XMLID_123_" class="st0" points="354.9,52.5 358.6,48.6 363.2,49.6 366.5,51.3 373.3,51.1 377.7,48.6 383.1,48.6 
	384.4,53.2 385.3,56.5 379.2,56.5 368.6,57.6 360,56.5 354.7,56.5 "/>
<path id="XMLID_122_" class="st0" d="M97.3,385.1c2.2,0.9,44.8,6.7,44.8,6.7c0,24.7,0,12.5,0,36.9c0,0-44.9,0.8-44.8,1.7
	c-22.3,4.7-30.5,42.1-44,33.8c-0.1-21.9-1.1-110.6-0.7-114.8C63.5,339.3,72.4,380,97.3,385.1z"/>
<path id="XMLID_121_" class="st0" d="M58.1,348.2c7,0,12.4,26.8,12.4,58.1c0.1,31.3-6.6,59-13.6,59c-7,0-11.6-27.6-11.6-59
	C45.3,375.1,51.2,348.2,58.1,348.2z"/>
<path id="XMLID_120_" class="st0" d="M55.1,347.4c5,0,9.9,21.5,9.9,59c0.1,32.6-4.3,59-9.7,59c-5.4,0-9.9-26.4-9.9-59
	C45.3,373.8,49.6,347.4,55.1,347.4z"/>
<polygon id="XMLID_119_" class="st0" points="51.9,417.3 47.1,413.9 48.3,409.5 50.4,406.4 50.1,400 47,395.8 47,390.7 52.7,389.5 
	56.8,388.6 56.8,394.4 58.1,404.4 56.8,412.5 56.8,417.6 "/>
<polygon id="XMLID_118_" class="st0" points="459.3,391.8 480,407.6 480,411.8 464.8,428.5 418.1,428.7 142.1,428.7 142.1,391.8 
	417.4,391.8 "/>
<path id="XMLID_117_" class="st0" d="M176.1,438.2c1.9-1.3-7.2-52.8-9-53.8c-1.7-1-4.6,1.2-4.6,1.2l-2.8,6.6c0,0,3.4-0.2,4.9,0.7
	c1.5,0.9,7.5,35.5,6.5,36.5c-1,1-3.3-0.7-3.3-0.7s3.1,7.5,4.5,8.8C173.7,438.9,174.9,438.9,176.1,438.2z"/>
<path id="XMLID_116_" class="st0" d="M195.1,438.9c1.9-1.3-6.6-54.3-8.3-55.4c-1.7-1-4.6,1.1-4.6,1.1l-2.9,6.7c0,0,3.4-0.1,4.9,0.8
	c1.5,1,7.1,36.6,6,37.6c-1.1,1-3.3-0.8-3.3-0.8s3,7.7,4.4,9.2C192.7,439.5,193.9,439.6,195.1,438.9z"/>
<path id="XMLID_115_" class="st0" d="M216.5,438.3c1.9-1.2-6.7-52.9-8.4-53.9c-1.7-1-4.6,1.1-4.6,1.1l-2.9,6.5c0,0,3.4-0.2,4.9,0.8
	c1.5,0.9,7.1,35.5,6.1,36.6c-1.1,1-3.3-0.7-3.3-0.7s3,7.5,4.4,8.9C214.1,439,215.3,439.1,216.5,438.3z"/>
<path id="XMLID_114_" class="st0" d="M238.7,438.6c1.9-1.3-7.2-54.5-8.9-55.6c-1.7-1-4.6,1.2-4.6,1.2l-2.9,6.7c0,0,3.4-0.2,4.9,0.8
	c1.5,1,7.4,36.6,6.4,37.7c-1,1-3.3-0.7-3.3-0.7s3.1,7.7,4.5,9.2C236.3,439.2,237.5,439.3,238.7,438.6z"/>
<path id="XMLID_113_" class="st0" d="M263.1,438.3c1.9-1.3-6.8-53.5-8.5-54.5c-1.7-1-4.6,1.1-4.6,1.1l-2.9,6.6c0,0,3.4-0.2,4.9,0.8
	c1.5,1,7.2,36,6.1,37c-1.1,1-3.3-0.7-3.3-0.7s3,7.6,4.4,9C260.6,439,261.8,439.1,263.1,438.3z"/>
<path id="XMLID_112_" class="st0" d="M283.5,438.7c1.9-1.3-7.3-53.9-9-55c-1.7-1-4.6,1.2-4.6,1.2l-2.8,6.7c0,0,3.4-0.2,4.9,0.8
	c1.5,1,7.5,36.3,6.5,37.3c-1,1-3.3-0.7-3.3-0.7s3.1,7.7,4.5,9.1C281,439.4,282.3,439.5,283.5,438.7z"/>
<path id="XMLID_111_" class="st0" d="M305.2,438c1.9-1.3-7.1-54.1-8.8-55.1c-1.7-1-4.6,1.2-4.6,1.2l-2.9,6.7c0,0,3.4-0.2,4.9,0.8
	c1.5,1,7.4,36.4,6.4,37.4c-1,1-3.3-0.7-3.3-0.7s3.1,7.7,4.5,9.1C302.8,438.7,304,438.8,305.2,438z"/>
<path id="XMLID_110_" class="st0" d="M326.9,438.3c1.9-1.2-6-53.3-7.7-54.3c-1.7-1-4.6,1.1-4.6,1.1l-3,6.5c0,0,3.4-0.1,4.9,0.8
	c1.5,1,6.7,35.9,5.6,36.9c-1.1,1-3.3-0.8-3.3-0.8s2.9,7.6,4.3,9C324.5,439,325.7,439.1,326.9,438.3z"/>
<path id="XMLID_109_" class="st0" d="M347.9,438.6c1.9-1.2-5.1-53.8-6.8-54.9c-1.7-1.1-4.6,1-4.6,1l-3.1,6.5c0,0,3.4-0.1,4.9,0.9
	c1.5,1,6.1,36.3,5,37.3c-1.1,1-3.3-0.8-3.3-0.8s2.8,7.7,4.1,9.2C345.4,439.2,346.7,439.3,347.9,438.6z"/>
<path id="XMLID_108_" class="st0" d="M369.6,438.6c1.9-1.2-5.1-53.8-6.8-54.9c-1.7-1.1-4.6,1-4.6,1l-3.1,6.5c0,0,3.4-0.1,4.9,0.9
	c1.5,1,6.1,36.3,5,37.3c-1.1,1-3.3-0.8-3.3-0.8s2.8,7.7,4.1,9.2C367.2,439.2,368.4,439.4,369.6,438.6z"/>
<path id="XMLID_107_" class="st0" d="M388.7,438.6c1.9-1.2-5.1-53.8-6.8-54.9c-1.7-1.1-4.6,1-4.6,1l-3.1,6.5c0,0,3.4-0.1,4.9,0.9
	c1.5,1,6.1,36.3,5,37.3c-1.1,1-3.3-0.8-3.3-0.8s2.8,7.7,4.1,9.2C386.2,439.2,387.4,439.4,388.7,438.6z"/>
<path id="XMLID_106_" class="st0" d="M403.5,438.6c1.9-1.2-5.1-53.8-6.8-54.9c-1.7-1.1-4.6,1-4.6,1l-3.1,6.5c0,0,3.4-0.1,4.9,0.9
	c1.5,1,6.1,36.3,5,37.3c-1.1,1-3.3-0.8-3.3-0.8s2.8,7.7,4.1,9.2C401,439.2,402.2,439.4,403.5,438.6z"/>
<path id="XMLID_105_" class="st0" d="M425.1,430.2c2.1-1.1-1.9-39.4-3.7-40.4c-1.8-1.1-5.3-0.3-5.3-0.3l-5.1,2.4c0,0,3.7,0,5.2,1
	c1.5,1,4.6,34.3,3.4,35.2c-1.2,0.9-4.5,0.6-4.5,0.6s2,2.3,3.9,2.7C421.1,431.9,423.7,430.9,425.1,430.2z"/>
<path id="XMLID_104_" class="st0" d="M158.2,438.9c1.1-1.2-10.5-52.9-11.8-53.9c-1.3-1-3,1.1-3,1.1l-1.2,6.5c0,0,2.3-0.1,3.4,0.8
	c1.1,1,8.9,35.6,8.3,36.6c-0.6,1-2.3-0.7-2.3-0.7s2.9,7.5,4,8.9C156.7,439.6,157.5,439.7,158.2,438.9z"/>
<path id="XMLID_103_" class="st1" d="M196.5,77.5c0,12.8-30.2,23.1-67.5,23.1c-37.3,0-67.5-10.3-67.5-23.1
	c0-12.8,30.2-23.1,67.5-23.1C166.3,54.4,196.5,64.7,196.5,77.5z"/>
<path id="XMLID_102_" class="st1" d="M194.8,73.6c0,10.6-29.3,19.2-65.5,19.2c-36.2,0-65.5-8.6-65.5-19.2
	c0-10.6,29.3-19.2,65.5-19.2C165.5,54.4,194.8,63,194.8,73.6z"/>
<ellipse id="XMLID_101_" class="st1" cx="127.2" cy="67.6" rx="47.7" ry="13.2"/>
<path id="XMLID_100_" class="st1" d="M165.5,64.1c4.3,8.6-16.7,13.3-37.6,13.3c-20.8,0-43.8-4.7-37.9-13.3
	c5.3-7.8,16.9-16.2,37.7-16.2S161.4,55.9,165.5,64.1z"/>
<rect id="XMLID_99_" x="125.6" y="48.2" class="st1" width="5.5" height="8.7"/>
<rect id="XMLID_98_" x="122.5" y="49" class="st1" width="12.6" height="4.8"/>
<polygon id="XMLID_97_" class="st0" points="385.5,99.5 354.7,105.6 354.7,93.4 385.6,93.4 "/>
<path id="XMLID_96_" class="st0" d="M346.2,108.2c1.1,1.2,45.3-8.5,46.2-9.7c0.9-1.2-1-3-1-3l-5.6-1.5c0,0,0.2,2.3-0.6,3.4
	c-0.8,1.1-30.5,7.5-31.3,6.8c-0.9-0.6,0.6-2.3,0.6-2.3s-6.4,2.6-7.6,3.6C345.6,106.7,345.6,107.5,346.2,108.2z"/>
<linearGradient id="XMLID_153_" gradientUnits="userSpaceOnUse" x1="116.9812" y1="189.1652" x2="141.4632" y2="189.1652">
	<stop  offset="0" style="stop-color:#1A171B"/>
	<stop  offset="0.4667" style="stop-color:#6F7072"/>
	<stop  offset="0.9818" style="stop-color:#3D3D3F"/>
</linearGradient>
<rect id="XMLID_95_" x="108.8" y="86.5" class="st2" width="36.3" height="205.3"/>
<linearGradient id="XMLID_154_" gradientUnits="userSpaceOnUse" x1="108.7879" y1="312.6252" x2="145.0482" y2="312.6252">
	<stop  offset="0" style="stop-color:#1A171B"/>
	<stop  offset="0.4667" style="stop-color:#6F7072"/>
	<stop  offset="0.9818" style="stop-color:#3D3D3F"/>
</linearGradient>
<polygon id="XMLID_94_" class="st3" points="126.3,333.4 108.8,291.8 145,291.8 "/>
<path id="XMLID_93_" class="st4" d="M104.6,120.9c4.1,2,45.6-5.4,49.1-9.4c1.3-1.5-4.5-5.4-8-4.7c-1.7,0.3-7.4,2.4-18.8,4.6
	c-15,2.9-18.4,1.6-19.4,1.8C100,115,102.6,119.9,104.6,120.9z"/>
<path id="XMLID_92_" class="st4" d="M103.4,139.6c4.3,2,47.2-5.7,50.9-9.7c1.4-1.5-4.6-5.4-8.3-4.7c-1.8,0.3-7.7,2.5-19.5,4.7
	c-15.6,3-19.1,1.7-20.1,1.9C98.7,133.7,101.3,138.7,103.4,139.6z"/>
<path id="XMLID_91_" class="st4" d="M103.8,156.1c4.3,2,47.2-5.7,50.9-9.7c1.4-1.5-4.6-5.4-8.3-4.7c-1.8,0.3-7.7,2.5-19.5,4.7
	c-15.6,3-19.1,1.7-20.1,1.9C99,150.2,101.6,155.2,103.8,156.1z"/>
<path id="XMLID_90_" class="st4" d="M103.4,173.6c4.3,2,47.2-5.7,50.9-9.7c1.4-1.5-4.6-5.4-8.3-4.7c-1.8,0.3-7.7,2.5-19.5,4.7
	c-15.6,3-19.1,1.7-20.1,1.9C98.7,167.7,101.3,172.6,103.4,173.6z"/>
<path id="XMLID_89_" class="st4" d="M102.5,192.7c4.3,2,47.2-5.7,50.9-9.7c1.4-1.5-4.6-5.4-8.3-4.7c-1.8,0.3-7.7,2.5-19.5,4.7
	c-15.6,3-19.1,1.7-20.1,1.9C97.7,186.7,100.3,191.7,102.5,192.7z"/>
<path id="XMLID_88_" class="st4" d="M101.1,210c4.5,1.9,50.1-6.2,54.1-10.3c1.5-1.5-4.8-5.3-8.7-4.6c-1.9,0.3-8.2,2.6-20.7,5
	c-16.5,3.2-20.3,1.9-21.3,2.1C96.1,204.1,98.8,209,101.1,210z"/>
<path id="XMLID_87_" class="st4" d="M101.1,228.4c4.5,1.9,49.4-6.1,53.3-10.1c1.5-1.5-4.8-5.3-8.6-4.6c-1.8,0.3-8.1,2.5-20.4,4.9
	c-16.3,3.1-20,1.8-21,2.1C96.2,222.5,98.9,227.4,101.1,228.4z"/>
<path id="XMLID_86_" class="st4" d="M101.3,244.8c4.5,1.9,49.4-6.1,53.3-10.1c1.5-1.5-4.8-5.3-8.6-4.6c-1.8,0.3-8.1,2.5-20.4,4.9
	c-16.3,3.1-20,1.8-21,2.1C96.4,238.9,99.1,243.9,101.3,244.8z"/>
<path id="XMLID_85_" class="st4" d="M101.1,261.5c4.5,1.9,49.4-6.1,53.3-10.1c1.5-1.5-4.8-5.3-8.6-4.6c-1.8,0.3-8.1,2.5-20.4,4.9
	c-16.3,3.1-20,1.8-21,2.1C96.2,255.6,98.9,260.5,101.1,261.5z"/>
<path id="XMLID_84_" class="st4" d="M102.5,279.8c4.5,1.9,49.4-6.1,53.3-10.1c1.5-1.5-4.8-5.3-8.6-4.6c-1.8,0.3-8.1,2.5-20.4,4.9
	c-16.3,3.1-20,1.8-21,2.1C97.6,273.9,100.3,278.9,102.5,279.8z"/>
<path id="XMLID_83_" class="st4" d="M106,295.5c4,1.4,42.7-8,45.8-11.7c1.2-1.4-4.4-4.2-7.7-3.4c-1.6,0.4-6.9,2.6-17.5,5.3
	c-14,3.6-17.3,2.7-18.2,3C101.5,290.8,104,294.8,106,295.5z"/>
<path id="XMLID_82_" class="st4" d="M122.4,304.9c2.3,0.5,24.5-9.9,23.7-12.5c-1-3-4.4-0.5-6,0.2c-0.8,0.4-3.2,2.2-8.4,4.7
	c-6.8,3.3-8.6,3.1-9,3.3C119.3,302.5,121.2,304.7,122.4,304.9z"/>
<linearGradient id="XMLID_155_" gradientUnits="userSpaceOnUse" x1="341.9347" y1="73.3109" x2="429.4562" y2="74.535">
	<stop  offset="0" style="stop-color:#604C3F"/>
	<stop  offset="0.4545" style="stop-color:#DAD173"/>
	<stop  offset="0.6424" style="stop-color:#AA9C61"/>
</linearGradient>
<path id="XMLID_81_" class="st5" d="M385.6,93.4c-6.2,0.1-28.3-0.1-31.2,0c-3.8-12.8-47.2-34.6-33.9-38.9c18.1,0,93.8-0.2,97.3,0
	C431.3,59.4,389.8,79.2,385.6,93.4z"/>
<path id="XMLID_80_" class="st6" d="M420.1,56.1c0,4.8-27.2,8.6-53.2,8.6c-26,0-48.7-3.9-48.7-8.6c0-4.8,22.7-8.6,48.7-8.6
	C392.9,47.5,420.1,51.3,420.1,56.1z"/>
<linearGradient id="XMLID_156_" gradientUnits="userSpaceOnUse" x1="403.1418" y1="216.3965" x2="337.0409" y2="216.3965">
	<stop  offset="0.1515" style="stop-color:#604C3F"/>
	<stop  offset="0.4545" style="stop-color:#DAD173"/>
	<stop  offset="0.6424" style="stop-color:#B07F48"/>
</linearGradient>
<polygon id="XMLID_79_" class="st7" points="377.2,323.3 370.5,339.4 366.2,339.4 360.7,322.5 354.4,294.9 354.4,93.4 385.6,93.4 
	383.8,295 "/>
<linearGradient id="XMLID_157_" gradientUnits="userSpaceOnUse" x1="334.0035" y1="124.4341" x2="389.7" y2="115.8654">
	<stop  offset="0" style="stop-color:#604C3F"/>
	<stop  offset="0.2667" style="stop-color:#DAD173"/>
	<stop  offset="0.4182" style="stop-color:#D8D9DA"/>
	<stop  offset="0.6424" style="stop-color:#AA9C61"/>
	<stop  offset="0.8364" style="stop-color:#CBC8B8"/>
</linearGradient>
<path id="XMLID_78_" class="st8" d="M346.5,129.2c1.4,1.7,46.8-11.4,47.4-13.2c0.7-1.8-1.6-4.4-1.6-4.4l-6.3-2.3
	c0,0,0.6,3.3-0.1,4.9c-0.7,1.6-31.1,10.3-32.1,9.3c-1-0.9,0.2-3.3,0.2-3.3s-6.4,3.7-7.4,5.2C345.6,126.9,345.7,128.1,346.5,129.2z"
	/>
<linearGradient id="XMLID_158_" gradientUnits="userSpaceOnUse" x1="337.1827" y1="145.0966" x2="392.8796" y2="136.5279">
	<stop  offset="0" style="stop-color:#604C3F"/>
	<stop  offset="0.2667" style="stop-color:#DAD173"/>
	<stop  offset="0.4182" style="stop-color:#D8D9DA"/>
	<stop  offset="0.6424" style="stop-color:#AA9C61"/>
	<stop  offset="0.8364" style="stop-color:#CBC8B8"/>
</linearGradient>
<path id="XMLID_77_" class="st9" d="M347,150.2c1.3,1.7,45.3-11,46-12.7c0.6-1.8-1.6-4.4-1.6-4.4l-6.1-2.3c0,0,0.6,3.3,0,4.9
	c-0.6,1.6-30.1,10-31.1,9c-1-1,0.2-3.3,0.2-3.3s-6.2,3.6-7.2,5.1C346.1,147.9,346.2,149.1,347,150.2z"/>
<linearGradient id="XMLID_159_" gradientUnits="userSpaceOnUse" x1="340.4106" y1="166.0804" x2="396.1073" y2="157.5116">
	<stop  offset="0" style="stop-color:#604C3F"/>
	<stop  offset="0.2667" style="stop-color:#DAD173"/>
	<stop  offset="0.4182" style="stop-color:#D8D9DA"/>
	<stop  offset="0.6424" style="stop-color:#AA9C61"/>
	<stop  offset="0.8364" style="stop-color:#CBC8B8"/>
</linearGradient>
<path id="XMLID_76_" class="st10" d="M346.9,171.7c1.3,1.7,45.5-11,46.1-12.8c0.7-1.8-1.6-4.4-1.6-4.4l-6.1-2.3c0,0,0.6,3.3,0,4.9
	c-0.6,1.6-30.2,10-31.2,9.1c-1-1,0.2-3.3,0.2-3.3s-6.2,3.6-7.2,5.1C345.9,169.4,346,170.6,346.9,171.7z"/>
<linearGradient id="XMLID_160_" gradientUnits="userSpaceOnUse" x1="343.8331" y1="188.3302" x2="399.5305" y2="179.7613">
	<stop  offset="0" style="stop-color:#604C3F"/>
	<stop  offset="0.2667" style="stop-color:#DAD173"/>
	<stop  offset="0.4182" style="stop-color:#D8D9DA"/>
	<stop  offset="0.6424" style="stop-color:#AA9C61"/>
	<stop  offset="0.8364" style="stop-color:#CBC8B8"/>
</linearGradient>
<path id="XMLID_75_" class="st11" d="M346.7,194.5c1.3,1.7,45.9-11.1,46.5-12.9c0.7-1.8-1.6-4.4-1.6-4.4l-6.2-2.3c0,0,0.6,3.3,0,4.9
	c-0.6,1.6-30.5,10.1-31.5,9.1c-1-1,0.2-3.3,0.2-3.3s-6.2,3.6-7.3,5.1C345.8,192.2,345.9,193.4,346.7,194.5z"/>
<linearGradient id="XMLID_161_" gradientUnits="userSpaceOnUse" x1="347.0961" y1="209.535" x2="402.7914" y2="200.9665">
	<stop  offset="0" style="stop-color:#604C3F"/>
	<stop  offset="0.2667" style="stop-color:#DAD173"/>
	<stop  offset="0.4182" style="stop-color:#D8D9DA"/>
	<stop  offset="0.6424" style="stop-color:#AA9C61"/>
	<stop  offset="0.8364" style="stop-color:#CBC8B8"/>
</linearGradient>
<path id="XMLID_74_" class="st12" d="M346.7,216.2c1.3,1.7,45.6-11.1,46.3-12.8c0.7-1.8-1.6-4.4-1.6-4.4l-6.1-2.3c0,0,0.6,3.3,0,4.9
	c-0.6,1.6-30.3,10-31.4,9.1c-1-1,0.2-3.3,0.2-3.3s-6.2,3.6-7.2,5.1C345.8,213.9,345.9,215.1,346.7,216.2z"/>
<linearGradient id="XMLID_162_" gradientUnits="userSpaceOnUse" x1="350.1108" y1="229.1339" x2="405.8074" y2="220.5652">
	<stop  offset="0" style="stop-color:#604C3F"/>
	<stop  offset="0.2667" style="stop-color:#DAD173"/>
	<stop  offset="0.4182" style="stop-color:#D8D9DA"/>
	<stop  offset="0.6424" style="stop-color:#AA9C61"/>
	<stop  offset="0.8364" style="stop-color:#CBC8B8"/>
</linearGradient>
<path id="XMLID_73_" class="st13" d="M346.7,236.2c1.3,1.7,44.8-10.8,45.5-12.6c0.6-1.8-1.6-4.4-1.6-4.4l-6-2.4c0,0,0.6,3.3,0,4.9
	c-0.6,1.5-29.8,9.9-30.8,8.9c-1-1,0.2-3.3,0.2-3.3s-6.1,3.6-7.1,5.1C345.8,233.9,345.9,235.1,346.7,236.2z"/>
<linearGradient id="XMLID_163_" gradientUnits="userSpaceOnUse" x1="353.42" y1="250.641" x2="409.1165" y2="242.0723">
	<stop  offset="0" style="stop-color:#604C3F"/>
	<stop  offset="0.2667" style="stop-color:#DAD173"/>
	<stop  offset="0.4182" style="stop-color:#D8D9DA"/>
	<stop  offset="0.6424" style="stop-color:#AA9C61"/>
	<stop  offset="0.8364" style="stop-color:#CBC8B8"/>
</linearGradient>
<path id="XMLID_72_" class="st14" d="M346.7,258.3c1.3,1.7,44.8-10.8,45.5-12.6c0.6-1.8-1.6-4.4-1.6-4.4l-6-2.4c0,0,0.6,3.3,0,4.9
	c-0.6,1.5-29.8,9.9-30.8,8.9c-1-1,0.2-3.3,0.2-3.3s-6.1,3.6-7.1,5.1C345.7,255.9,345.8,257.1,346.7,258.3z"/>
<linearGradient id="XMLID_164_" gradientUnits="userSpaceOnUse" x1="356.7708" y1="272.4199" x2="412.4673" y2="263.8512">
	<stop  offset="0" style="stop-color:#604C3F"/>
	<stop  offset="0.2667" style="stop-color:#DAD173"/>
	<stop  offset="0.4182" style="stop-color:#D8D9DA"/>
	<stop  offset="0.6424" style="stop-color:#AA9C61"/>
	<stop  offset="0.8364" style="stop-color:#CBC8B8"/>
</linearGradient>
<path id="XMLID_71_" class="st15" d="M346.7,280.6c1.3,1.7,44.8-10.8,45.5-12.6c0.6-1.8-1.6-4.4-1.6-4.4l-6-2.4c0,0,0.6,3.3,0,4.9
	c-0.6,1.5-29.8,9.9-30.8,8.9c-1-1,0.2-3.3,0.2-3.3s-6.1,3.6-7.1,5.1C345.7,278.2,345.8,279.4,346.7,280.6z"/>
<linearGradient id="XMLID_165_" gradientUnits="userSpaceOnUse" x1="359.9561" y1="293.1243" x2="415.6526" y2="284.5556">
	<stop  offset="0" style="stop-color:#604C3F"/>
	<stop  offset="0.2667" style="stop-color:#DAD173"/>
	<stop  offset="0.4182" style="stop-color:#D8D9DA"/>
	<stop  offset="0.6424" style="stop-color:#AA9C61"/>
	<stop  offset="0.8364" style="stop-color:#CBC8B8"/>
</linearGradient>
<path id="XMLID_70_" class="st16" d="M346.7,301.8c1.3,1.7,44.8-10.8,45.5-12.6c0.6-1.8-1.6-4.4-1.6-4.4l-6-2.4c0,0,0.6,3.3,0,4.9
	c-0.6,1.5-29.8,9.9-30.8,8.9c-1-1,0.2-3.3,0.2-3.3s-6.1,3.6-7.1,5.1C345.7,299.4,345.8,300.6,346.7,301.8z"/>
<linearGradient id="XMLID_166_" gradientUnits="userSpaceOnUse" x1="362.9167" y1="312.3672" x2="418.6136" y2="303.7984">
	<stop  offset="0" style="stop-color:#604C3F"/>
	<stop  offset="0.2667" style="stop-color:#DAD173"/>
	<stop  offset="0.4182" style="stop-color:#D8D9DA"/>
	<stop  offset="0.6424" style="stop-color:#AA9C61"/>
	<stop  offset="0.8364" style="stop-color:#CBC8B8"/>
</linearGradient>
<path id="XMLID_69_" class="st17" d="M352.3,318.7c1,1.1,34.8-8.6,35.4-9.8c0.5-1.2-1.1-3-1.1-3l-4.6-1.4c0,0,0.4,2.2-0.1,3.3
	c-0.5,1.1-23.2,7.5-24,6.9c-0.8-0.6,0.2-2.2,0.2-2.2s-4.8,2.6-5.6,3.6C351.7,317.1,351.7,318,352.3,318.7z"/>
<linearGradient id="XMLID_167_" gradientUnits="userSpaceOnUse" x1="369.2378" y1="41.7967" x2="369.2378" y2="108.0124">
	<stop  offset="0" style="stop-color:#604C3F"/>
	<stop  offset="0.2667" style="stop-color:#DAD173"/>
	<stop  offset="0.4182" style="stop-color:#D8D9DA"/>
	<stop  offset="0.6424" style="stop-color:#AA9C61"/>
	<stop  offset="0.8364" style="stop-color:#CBC8B8"/>
</linearGradient>
<path id="XMLID_68_" class="st18" d="M420.1,56c0,3.8-23.9,6-50.9,6c-27,0-50.9-2.8-50.9-6.6c0-3.8,24.1-7.9,51.1-7.9
	C396.5,47.5,420.1,52.1,420.1,56z"/>
<polygon id="XMLID_67_" class="st19" points="354.9,52.5 358.6,48.6 363.2,49.6 366.5,51.3 373.3,51.1 377.7,48.6 383.1,48.6 
	384.4,53.2 385.3,56.5 379.2,56.5 368.6,57.6 360,56.5 354.7,56.5 "/>
<linearGradient id="XMLID_168_" gradientUnits="userSpaceOnUse" x1="97.6112" y1="379.4932" x2="94.6018" y2="481.8105">
	<stop  offset="0" style="stop-color:#604C3F"/>
	<stop  offset="0.4545" style="stop-color:#DAD173"/>
	<stop  offset="0.6424" style="stop-color:#AA9C61"/>
</linearGradient>
<path id="XMLID_66_" class="st20" d="M97.3,385.1c2.2,0.9,44.8,6.7,44.8,6.7c0,24.7,0,12.5,0,36.9c0,0-44.9,0.8-44.8,1.7
	c-22.3,4.7-30.5,42.1-44,33.8c-0.1-21.9-1.1-110.6-0.7-114.8C63.5,339.3,72.4,380,97.3,385.1z"/>
<path id="XMLID_65_" class="st6" d="M58.1,348.2c7,0,12.4,26.8,12.4,58.1c0.1,31.3-6.6,59-13.6,59c-7,0-11.6-27.6-11.6-59
	C45.3,375.1,51.2,348.2,58.1,348.2z"/>
<linearGradient id="XMLID_169_" gradientUnits="userSpaceOnUse" x1="30.2308" y1="406.7781" x2="-25.4742" y2="407.3902" gradientTransform="matrix(0.7989 3.000000e-004 3.000000e-004 1 36.3199 -0.4432)">
	<stop  offset="0" style="stop-color:#604C3F"/>
	<stop  offset="0.2667" style="stop-color:#DAD173"/>
	<stop  offset="0.4182" style="stop-color:#D8D9DA"/>
	<stop  offset="0.6424" style="stop-color:#AA9C61"/>
	<stop  offset="0.8364" style="stop-color:#CBC8B8"/>
</linearGradient>
<path id="XMLID_64_" class="st21" d="M55.1,347.4c5,0,9.9,21.5,9.9,59c0.1,32.6-4.3,59-9.7,59c-5.4,0-9.9-26.4-9.9-59
	C45.3,373.8,49.6,347.4,55.1,347.4z"/>
<polygon id="XMLID_63_" class="st19" points="51.9,417.3 47.1,413.9 48.3,409.5 50.4,406.4 50.1,400 47,395.8 47,390.7 52.7,389.5 
	56.8,388.6 56.8,394.4 58.1,404.4 56.8,412.5 56.8,417.6 "/>
<linearGradient id="XMLID_170_" gradientUnits="userSpaceOnUse" x1="311.0484" y1="391.1451" x2="311.0484" y2="437.0487">
	<stop  offset="0" style="stop-color:#604C3F"/>
	<stop  offset="0.4545" style="stop-color:#DAD173"/>
	<stop  offset="0.6424" style="stop-color:#AA9C61"/>
</linearGradient>
<polygon id="XMLID_62_" class="st22" points="459.3,391.8 480,407.6 480,411.8 464.8,428.5 418.1,428.7 142.1,428.7 142.1,391.8 
	417.4,391.8 "/>
<linearGradient id="XMLID_171_" gradientUnits="userSpaceOnUse" x1="168.0352" y1="385.0247" x2="168.0352" y2="452.9628">
	<stop  offset="0" style="stop-color:#604C3F"/>
	<stop  offset="0.2667" style="stop-color:#DAD173"/>
	<stop  offset="0.4182" style="stop-color:#D8D9DA"/>
	<stop  offset="0.6424" style="stop-color:#AA9C61"/>
	<stop  offset="0.8364" style="stop-color:#CBC8B8"/>
</linearGradient>
<path id="XMLID_61_" class="st23" d="M176.1,438.2c1.9-1.3-7.2-52.8-9-53.8c-1.7-1-4.6,1.2-4.6,1.2l-2.8,6.6c0,0,3.4-0.2,4.9,0.7
	c1.5,0.9,7.5,35.5,6.5,36.5c-1,1-3.3-0.7-3.3-0.7s3.1,7.5,4.5,8.8C173.7,438.9,174.9,438.9,176.1,438.2z"/>
<linearGradient id="XMLID_172_" gradientUnits="userSpaceOnUse" x1="187.3909" y1="385.0251" x2="187.3909" y2="452.9608">
	<stop  offset="0" style="stop-color:#604C3F"/>
	<stop  offset="0.2667" style="stop-color:#DAD173"/>
	<stop  offset="0.4182" style="stop-color:#D8D9DA"/>
	<stop  offset="0.6424" style="stop-color:#AA9C61"/>
	<stop  offset="0.8364" style="stop-color:#CBC8B8"/>
</linearGradient>
<path id="XMLID_60_" class="st24" d="M195.1,438.9c1.9-1.3-6.6-54.3-8.3-55.4c-1.7-1-4.6,1.1-4.6,1.1l-2.9,6.7c0,0,3.4-0.1,4.9,0.8
	c1.5,1,7.1,36.6,6,37.6c-1.1,1-3.3-0.8-3.3-0.8s3,7.7,4.4,9.2C192.7,439.5,193.9,439.6,195.1,438.9z"/>
<linearGradient id="XMLID_173_" gradientUnits="userSpaceOnUse" x1="208.7014" y1="385.025" x2="208.7014" y2="452.9611">
	<stop  offset="0" style="stop-color:#604C3F"/>
	<stop  offset="0.2667" style="stop-color:#DAD173"/>
	<stop  offset="0.4182" style="stop-color:#D8D9DA"/>
	<stop  offset="0.6424" style="stop-color:#AA9C61"/>
	<stop  offset="0.8364" style="stop-color:#CBC8B8"/>
</linearGradient>
<path id="XMLID_59_" class="st25" d="M216.5,438.3c1.9-1.2-6.7-52.9-8.4-53.9c-1.7-1-4.6,1.1-4.6,1.1l-2.9,6.5c0,0,3.4-0.2,4.9,0.8
	c1.5,0.9,7.1,35.5,6.1,36.6c-1.1,1-3.3-0.7-3.3-0.7s3,7.5,4.4,8.9C214.1,439,215.3,439.1,216.5,438.3z"/>
<linearGradient id="XMLID_174_" gradientUnits="userSpaceOnUse" x1="230.6885" y1="385.0248" x2="230.6885" y2="452.9613">
	<stop  offset="0" style="stop-color:#604C3F"/>
	<stop  offset="0.2667" style="stop-color:#DAD173"/>
	<stop  offset="0.4182" style="stop-color:#D8D9DA"/>
	<stop  offset="0.6424" style="stop-color:#AA9C61"/>
	<stop  offset="0.8364" style="stop-color:#CBC8B8"/>
</linearGradient>
<path id="XMLID_58_" class="st26" d="M238.7,438.6c1.9-1.3-7.2-54.5-8.9-55.6c-1.7-1-4.6,1.2-4.6,1.2l-2.9,6.7c0,0,3.4-0.2,4.9,0.8
	c1.5,1,7.4,36.6,6.4,37.7c-1,1-3.3-0.7-3.3-0.7s3.1,7.7,4.5,9.2C236.3,439.2,237.5,439.3,238.7,438.6z"/>
<linearGradient id="XMLID_175_" gradientUnits="userSpaceOnUse" x1="255.2141" y1="385.0238" x2="255.2141" y2="452.9625">
	<stop  offset="0" style="stop-color:#604C3F"/>
	<stop  offset="0.2667" style="stop-color:#DAD173"/>
	<stop  offset="0.4182" style="stop-color:#D8D9DA"/>
	<stop  offset="0.6424" style="stop-color:#AA9C61"/>
	<stop  offset="0.8364" style="stop-color:#CBC8B8"/>
</linearGradient>
<path id="XMLID_57_" class="st27" d="M263.1,438.3c1.9-1.3-6.8-53.5-8.5-54.5c-1.7-1-4.6,1.1-4.6,1.1l-2.9,6.6c0,0,3.4-0.2,4.9,0.8
	c1.5,1,7.2,36,6.1,37c-1.1,1-3.3-0.7-3.3-0.7s3,7.6,4.4,9C260.6,439,261.8,439.1,263.1,438.3z"/>
<linearGradient id="XMLID_176_" gradientUnits="userSpaceOnUse" x1="275.3755" y1="385.0255" x2="275.3755" y2="452.9616">
	<stop  offset="0" style="stop-color:#604C3F"/>
	<stop  offset="0.2667" style="stop-color:#DAD173"/>
	<stop  offset="0.4182" style="stop-color:#D8D9DA"/>
	<stop  offset="0.6424" style="stop-color:#AA9C61"/>
	<stop  offset="0.8364" style="stop-color:#CBC8B8"/>
</linearGradient>
<path id="XMLID_56_" class="st28" d="M283.5,438.7c1.9-1.3-7.3-53.9-9-55c-1.7-1-4.6,1.2-4.6,1.2l-2.8,6.7c0,0,3.4-0.2,4.9,0.8
	c1.5,1,7.5,36.3,6.5,37.3c-1,1-3.3-0.7-3.3-0.7s3.1,7.7,4.5,9.1C281,439.4,282.3,439.5,283.5,438.7z"/>
<linearGradient id="XMLID_177_" gradientUnits="userSpaceOnUse" x1="297.25" y1="385.0257" x2="297.25" y2="452.9613">
	<stop  offset="0" style="stop-color:#604C3F"/>
	<stop  offset="0.2667" style="stop-color:#DAD173"/>
	<stop  offset="0.4182" style="stop-color:#D8D9DA"/>
	<stop  offset="0.6424" style="stop-color:#AA9C61"/>
	<stop  offset="0.8364" style="stop-color:#CBC8B8"/>
</linearGradient>
<path id="XMLID_37_" class="st29" d="M305.2,438c1.9-1.3-7.1-54.1-8.8-55.1c-1.7-1-4.6,1.2-4.6,1.2l-2.9,6.7c0,0,3.4-0.2,4.9,0.8
	c1.5,1,7.4,36.4,6.4,37.4c-1,1-3.3-0.7-3.3-0.7s3.1,7.7,4.5,9.1C302.8,438.7,304,438.8,305.2,438z"/>
<linearGradient id="XMLID_178_" gradientUnits="userSpaceOnUse" x1="319.3949" y1="385.0238" x2="319.3949" y2="452.9628">
	<stop  offset="0" style="stop-color:#604C3F"/>
	<stop  offset="0.2667" style="stop-color:#DAD173"/>
	<stop  offset="0.4182" style="stop-color:#D8D9DA"/>
	<stop  offset="0.6424" style="stop-color:#AA9C61"/>
	<stop  offset="0.8364" style="stop-color:#CBC8B8"/>
</linearGradient>
<path id="XMLID_36_" class="st30" d="M326.9,438.3c1.9-1.2-6-53.3-7.7-54.3c-1.7-1-4.6,1.1-4.6,1.1l-3,6.5c0,0,3.4-0.1,4.9,0.8
	c1.5,1,6.7,35.9,5.6,36.9c-1.1,1-3.3-0.8-3.3-0.8s2.9,7.6,4.3,9C324.5,439,325.7,439.1,326.9,438.3z"/>
<linearGradient id="XMLID_179_" gradientUnits="userSpaceOnUse" x1="340.8064" y1="385.0256" x2="340.8064" y2="452.9612">
	<stop  offset="0" style="stop-color:#604C3F"/>
	<stop  offset="0.2667" style="stop-color:#DAD173"/>
	<stop  offset="0.4182" style="stop-color:#D8D9DA"/>
	<stop  offset="0.6424" style="stop-color:#AA9C61"/>
	<stop  offset="0.8364" style="stop-color:#CBC8B8"/>
</linearGradient>
<path id="XMLID_35_" class="st31" d="M347.9,438.6c1.9-1.2-5.1-53.8-6.8-54.9c-1.7-1.1-4.6,1-4.6,1l-3.1,6.5c0,0,3.4-0.1,4.9,0.9
	c1.5,1,6.1,36.3,5,37.3c-1.1,1-3.3-0.8-3.3-0.8s2.8,7.7,4.1,9.2C345.4,439.2,346.7,439.3,347.9,438.6z"/>
<linearGradient id="XMLID_180_" gradientUnits="userSpaceOnUse" x1="362.5221" y1="385.0255" x2="362.5221" y2="452.9612">
	<stop  offset="0" style="stop-color:#604C3F"/>
	<stop  offset="0.2667" style="stop-color:#DAD173"/>
	<stop  offset="0.4182" style="stop-color:#D8D9DA"/>
	<stop  offset="0.6424" style="stop-color:#AA9C61"/>
	<stop  offset="0.8364" style="stop-color:#CBC8B8"/>
</linearGradient>
<path id="XMLID_34_" class="st32" d="M369.6,438.6c1.9-1.2-5.1-53.8-6.8-54.9c-1.7-1.1-4.6,1-4.6,1l-3.1,6.5c0,0,3.4-0.1,4.9,0.9
	c1.5,1,6.1,36.3,5,37.3c-1.1,1-3.3-0.8-3.3-0.8s2.8,7.7,4.1,9.2C367.2,439.2,368.4,439.4,369.6,438.6z"/>
<linearGradient id="XMLID_181_" gradientUnits="userSpaceOnUse" x1="381.6008" y1="385.0255" x2="381.6008" y2="452.9612">
	<stop  offset="0" style="stop-color:#604C3F"/>
	<stop  offset="0.2667" style="stop-color:#DAD173"/>
	<stop  offset="0.4182" style="stop-color:#D8D9DA"/>
	<stop  offset="0.6424" style="stop-color:#AA9C61"/>
	<stop  offset="0.8364" style="stop-color:#CBC8B8"/>
</linearGradient>
<path id="XMLID_33_" class="st33" d="M388.7,438.6c1.9-1.2-5.1-53.8-6.8-54.9c-1.7-1.1-4.6,1-4.6,1l-3.1,6.5c0,0,3.4-0.1,4.9,0.9
	c1.5,1,6.1,36.3,5,37.3c-1.1,1-3.3-0.8-3.3-0.8s2.8,7.7,4.1,9.2C386.2,439.2,387.4,439.4,388.7,438.6z"/>
<linearGradient id="XMLID_182_" gradientUnits="userSpaceOnUse" x1="396.4022" y1="385.0255" x2="396.4022" y2="452.9612">
	<stop  offset="0" style="stop-color:#604C3F"/>
	<stop  offset="0.2667" style="stop-color:#DAD173"/>
	<stop  offset="0.4182" style="stop-color:#D8D9DA"/>
	<stop  offset="0.6424" style="stop-color:#AA9C61"/>
	<stop  offset="0.8364" style="stop-color:#CBC8B8"/>
</linearGradient>
<path id="XMLID_32_" class="st34" d="M403.5,438.6c1.9-1.2-5.1-53.8-6.8-54.9c-1.7-1.1-4.6,1-4.6,1l-3.1,6.5c0,0,3.4-0.1,4.9,0.9
	c1.5,1,6.1,36.3,5,37.3c-1.1,1-3.3-0.8-3.3-0.8s2.8,7.7,4.1,9.2C401,439.2,402.2,439.4,403.5,438.6z"/>
<linearGradient id="XMLID_183_" gradientUnits="userSpaceOnUse" x1="418.3577" y1="385.0251" x2="418.3577" y2="452.963">
	<stop  offset="0" style="stop-color:#604C3F"/>
	<stop  offset="0.2667" style="stop-color:#DAD173"/>
	<stop  offset="0.4182" style="stop-color:#D8D9DA"/>
	<stop  offset="0.6424" style="stop-color:#AA9C61"/>
	<stop  offset="0.8364" style="stop-color:#CBC8B8"/>
</linearGradient>
<path id="XMLID_31_" class="st35" d="M425.1,430.2c2.1-1.1-1.9-39.4-3.7-40.4c-1.8-1.1-5.3-0.3-5.3-0.3l-5.1,2.4c0,0,3.7,0,5.2,1
	c1.5,1,4.6,34.3,3.4,35.2c-1.2,0.9-4.5,0.6-4.5,0.6s2,2.3,3.9,2.7C421.1,431.9,423.7,430.9,425.1,430.2z"/>
<linearGradient id="XMLID_184_" gradientUnits="userSpaceOnUse" x1="150.2427" y1="385.0253" x2="150.2427" y2="452.962">
	<stop  offset="0" style="stop-color:#604C3F"/>
	<stop  offset="0.2667" style="stop-color:#DAD173"/>
	<stop  offset="0.4182" style="stop-color:#D8D9DA"/>
	<stop  offset="0.6424" style="stop-color:#AA9C61"/>
	<stop  offset="0.8364" style="stop-color:#CBC8B8"/>
</linearGradient>
<path id="XMLID_30_" class="st36" d="M158.2,438.9c1.1-1.2-10.5-52.9-11.8-53.9c-1.3-1-3,1.1-3,1.1l-1.2,6.5c0,0,2.3-0.1,3.4,0.8
	c1.1,1,8.9,35.6,8.3,36.6c-0.6,1-2.3-0.7-2.3-0.7s2.9,7.5,4,8.9C156.7,439.6,157.5,439.7,158.2,438.9z"/>
<path id="XMLID_29_" class="st37" d="M196.5,77.5c0,12.8-30.2,23.1-67.5,23.1c-37.3,0-67.5-10.3-67.5-23.1
	c0-12.8,30.2-23.1,67.5-23.1C166.3,54.4,196.5,64.7,196.5,77.5z"/>
<path id="XMLID_28_" class="st38" d="M194.8,73.6c0,10.6-29.3,19.2-65.5,19.2c-36.2,0-65.5-8.6-65.5-19.2
	c0-10.6,29.3-19.2,65.5-19.2C165.5,54.4,194.8,63,194.8,73.6z"/>
<ellipse id="XMLID_27_" class="st39" cx="127.2" cy="67.6" rx="47.7" ry="13.2"/>
<path id="XMLID_26_" class="st38" d="M165.5,64.1c4.3,8.6-16.7,13.3-37.6,13.3c-20.8,0-43.8-4.7-37.9-13.3
	c5.3-7.8,16.9-16.2,37.7-16.2S161.4,55.9,165.5,64.1z"/>
<rect id="XMLID_25_" x="125.6" y="48.2" class="st40" width="5.5" height="8.7"/>
<rect id="XMLID_24_" x="122.5" y="49" class="st40" width="12.6" height="4.8"/>
<linearGradient id="XMLID_185_" gradientUnits="userSpaceOnUse" x1="354.6537" y1="99.4909" x2="385.5981" y2="99.4909">
	<stop  offset="0" style="stop-color:#604C3F"/>
	<stop  offset="0.4545" style="stop-color:#DAD173"/>
	<stop  offset="0.6424" style="stop-color:#AA9C61"/>
</linearGradient>
<polygon id="XMLID_23_" class="st41" points="385.5,99.5 354.7,105.6 354.7,93.4 385.6,93.4 "/>
<linearGradient id="XMLID_186_" gradientUnits="userSpaceOnUse" x1="331.2706" y1="106.6748" x2="386.9681" y2="98.1059">
	<stop  offset="0" style="stop-color:#604C3F"/>
	<stop  offset="0.2667" style="stop-color:#DAD173"/>
	<stop  offset="0.4182" style="stop-color:#D8D9DA"/>
	<stop  offset="0.6424" style="stop-color:#AA9C61"/>
	<stop  offset="0.8364" style="stop-color:#CBC8B8"/>
</linearGradient>
<path id="XMLID_20_" class="st42" d="M346.2,108.2c1.1,1.2,45.3-8.5,46.2-9.7c0.9-1.2-1-3-1-3l-5.6-1.5c0,0,0.2,2.3-0.6,3.4
	c-0.8,1.1-30.5,7.5-31.3,6.8c-0.9-0.6,0.6-2.3,0.6-2.3s-6.4,2.6-7.6,3.6C345.6,106.7,345.6,107.5,346.2,108.2z"/>
</svg>
