<?xml version="1.0" encoding="utf-8"?>
<!-- Generator: Adobe Illustrator 19.0.0, SVG Export Plug-In . SVG Version: 6.00 Build 0)  -->
<svg version="1.1" id="Camada_1" xmlns="http://www.w3.org/2000/svg" xmlns:xlink="http://www.w3.org/1999/xlink" x="0px" y="0px"
	 viewBox="0 0 500 500" style="enable-background:new 0 0 500 500;" xml:space="preserve">
<style type="text/css">
	.st0{fill:#1D1D1B;stroke:#1D1D1B;stroke-width:5.4874;stroke-linejoin:round;stroke-miterlimit:10;}
	.st1{fill:#1D1D1B;stroke:#1D1D1B;stroke-width:1.8291;stroke-linejoin:round;stroke-miterlimit:10;}
	.st2{fill:#D9D9D9;stroke:#1D1D1B;stroke-width:1.8291;stroke-linejoin:round;stroke-miterlimit:10;}
	.st3{fill:#3C3C3B;stroke:#1D1D1B;stroke-width:1.8291;stroke-linejoin:round;stroke-miterlimit:10;}
	.st4{fill:#6F6F6E;stroke:#1D1D1B;stroke-width:1.8291;stroke-linejoin:round;stroke-miterlimit:10;}
	.st5{fill:#F5F5F5;}
</style>
<g id="XMLID_65_">
	<path id="XMLID_63_" class="st0" d="M27.9,247.3L135.6,196c4.2-5.7,11.2-9.4,19.2-9.4h149.4l106.7-50.8
		c11.7-5.5,46.4,11.4,61.4,43.3c14.9,31.9,4.4,66.8-7.3,72.3L331.5,315c-1.6,0.8-3.4,1-5.4,0.8c0,0,0.1,0.1,0.1,0.1
		s-24.5-4-37.9-10.7c-13.5,4.7-24.3,9.7-24.3,9.7c-7.6,2.4-20.4,2.6-30.3,0.3c0,0-8.1-4.3-19.2-9.4L84.3,367.9
		c-11.8,5.5-33.9-17-49.5-50.3C19.3,284.3,16.2,252.8,27.9,247.3z"/>
	<path id="XMLID_62_" class="st1" d="M314.8,298.2c-22.3,3.3-50.9,16.6-50.9,16.6l-30.3,0.3c0,0-28.1-14.9-50.9-22.1
		c0-13.1,0-56.8,0-56.8h132C314.8,236.3,314.8,282,314.8,298.2z"/>
	<path id="XMLID_61_" class="st2" d="M143,192.5c11.8-5.5,52.8,8,68.4,41.3C227,267,230,298.5,218.3,304l-134,63.9L27.9,247.3
		L143,192.5z"/>
	
		<ellipse id="XMLID_60_" transform="matrix(-0.9058 0.4236 -0.4236 -0.9058 237.2627 562.4782)" class="st2" cx="56.1" cy="307.6" rx="23.5" ry="66.5"/>
	
		<ellipse id="XMLID_59_" transform="matrix(-0.9058 0.4237 -0.4237 -0.9058 237.2716 562.4744)" class="st1" cx="56.1" cy="307.6" rx="13.1" ry="37.2"/>
	<path id="XMLID_58_" class="st2" d="M277.5,199.4l133.5-63.6c11.7-5.5,46.4,11.4,61.4,43.3c14.9,31.9,4.4,66.8-7.3,72.3L331.5,315
		c-11.7,5.5-33.3-16-48.2-47.9C268.3,235.2,265.7,204.9,277.5,199.4z"/>
	<path id="XMLID_57_" class="st1" d="M253.5,266.8c0,0-26,38.4-26.8,28.2c-2.2-30.2-24.4-47.9-27.6-46.8
		c-10.9,3.6-17.5,4.5-28.2,6.3c-34.2,5.7-71.5-21.6-51.9-38.4c21.8-10.4,32.5-15,32.5-15L253.5,266.8z"/>
	<path id="XMLID_56_" class="st1" d="M306.3,197l35.3-18.7c0,0,16.1-9.1,33.3,4.6c26.8,21.3,11.2,44.9,0,51.1
		c-14.4,7.9-43.7,21.3-43.7,21.3s-19.4,14.3-19.4,35.8c0,10.9,14.5,24.7,14.5,24.7s-39-6.3-45.6-16.5c-12.1-18.6,6.6-88.6,6.6-88.6
		L306.3,197z"/>
	<path id="XMLID_36_" class="st2" d="M131.6,208v7.5c0,7.4,4.8,15.9,10.4,20.7c8.9,7.5,65.8,5.7,74.8,12
		c17.5,12.2,14.8,66.5,16.9,67c9.9,2.2,22.7,2,30.3-0.3c1.5-0.5-1.1-54.5,16.4-66.7c9-6.3,66.5-4.5,74.3-11.5c0,0,0,0,0-0.1
		c6.8-3.7,11.3-10.4,11.3-18.2V208c0-16.7-18.8-21.4-31.7-21.4H154.8C142,186.6,131.6,196.2,131.6,208z"/>
	<g id="XMLID_79_">
		<ellipse id="XMLID_35_" class="st3" cx="333.1" cy="205.6" rx="17.2" ry="7.6"/>
		<path id="XMLID_34_" class="st4" d="M333.1,203.7c-7.2,0-13.4,1.9-15.9,4.7c-0.8-0.9-1.3-1.9-1.3-2.9c0-4.2,7.7-7.6,17.2-7.6
			c9.5,0,17.2,3.4,17.2,7.6c0,1-0.5,2-1.3,2.9C346.4,205.7,340.3,203.7,333.1,203.7z"/>
	</g>
	<g id="XMLID_76_">
		<ellipse id="XMLID_33_" class="st3" cx="163.9" cy="205.6" rx="17.2" ry="7.6"/>
		<path id="XMLID_32_" class="st4" d="M163.9,203.7c-7.2,0-13.4,1.9-15.9,4.7c-0.8-0.9-1.3-1.9-1.3-2.9c0-4.2,7.7-7.6,17.2-7.6
			c9.5,0,17.2,3.4,17.2,7.6c0,1-0.5,2-1.3,2.9C177.2,205.7,171.1,203.7,163.9,203.7z"/>
	</g>
	<path id="XMLID_31_" class="st3" d="M328.5,285.5c-1.8,7.8,1.9,14.4,8.3,14.7c6.4,0.3,13.1-5.7,15-13.5c1.8-7.8-1.9-14.4-8.3-14.7
		C337.1,271.7,330.3,277.7,328.5,285.5z"/>
	<path id="XMLID_30_" class="st4" d="M332.5,297.4c6.4,0.3,13.1-5.7,15-13.5c1.1-4.7,0.2-8.9-2.1-11.6c5.2,1.4,8.1,7.4,6.4,14.4
		c-1.8,7.8-8.6,13.8-15,13.5c-2.6-0.1-4.7-1.3-6.2-3.1C331.2,297.3,331.8,297.4,332.5,297.4z"/>
	<path id="XMLID_29_" class="st3" d="M187.5,286.9c-1.8,7.8,1.9,14.4,8.3,14.7c6.4,0.3,13.1-5.7,15-13.5c1.8-7.8-1.9-14.4-8.3-14.7
		C196,273.1,189.3,279.2,187.5,286.9z"/>
	<path id="XMLID_28_" class="st4" d="M191.5,298.9c6.4,0.3,13.1-5.7,15-13.5c1.1-4.7,0.2-8.9-2.1-11.6c5.2,1.4,8.1,7.4,6.4,14.4
		c-1.8,7.8-8.6,13.8-15,13.5c-2.6-0.1-4.7-1.3-6.2-3.1C190.2,298.7,190.8,298.8,191.5,298.9z"/>
	<polygon id="XMLID_27_" class="st5" points="350.3,225.3 140.6,225.3 156.5,229.4 350.3,229.4 	"/>
	<polygon id="XMLID_26_" class="st5" points="300.8,195.5 181.1,195.5 187,201.1 307.4,201.1 	"/>
	<polygon id="XMLID_25_" class="st5" points="199.1,264.9 86.1,306.9 91.4,320.1 94.8,335.1 95.3,345.9 187,301.7 183.6,295.7 
		183.6,283.2 188.4,275.1 	"/>
	<polygon id="XMLID_24_" class="st5" points="117.8,242.2 113.6,238.4 58.9,261.8 63.8,267.5 	"/>
	<polygon id="XMLID_23_" class="st5" points="443,149.8 379.1,181.8 382.8,186.6 448.4,153.1 	"/>
	<polygon id="XMLID_20_" class="st5" points="476.3,201.1 476.3,222 468.1,238.4 354.5,291.7 356,280.7 350.3,267.5 	"/>
</g>
</svg>
