<?xml version="1.0" encoding="utf-8"?>
<!-- Generator: Adobe Illustrator 19.0.0, SVG Export Plug-In . SVG Version: 6.00 Build 0)  -->
<svg version="1.1" id="Camada_1" xmlns="http://www.w3.org/2000/svg" xmlns:xlink="http://www.w3.org/1999/xlink" x="0px" y="0px"
	 viewBox="0 0 500 500" style="enable-background:new 0 0 500 500;" xml:space="preserve">
<style type="text/css">
	.st0{clip-path:url(#XMLID_87_);fill:#1A171B;stroke:#1A171B;stroke-width:4.6771;stroke-miterlimit:10;}
	.st1{clip-path:url(#XMLID_87_);}
	.st2{fill:#1A171B;stroke:#1A171B;stroke-width:4.6771;stroke-miterlimit:10;}
	.st3{fill:#1A171B;stroke:#1A171B;stroke-width:4.6771;stroke-linejoin:round;stroke-miterlimit:10;}
	.st4{clip-path:url(#XMLID_87_);fill:#3D3D3F;stroke:#1A171B;stroke-width:1.1693;stroke-miterlimit:10;}
	.st5{fill:#6F7072;stroke:#1A171B;stroke-width:1.1693;stroke-miterlimit:10;}
	.st6{fill:#B0B2B3;stroke:#1A171B;stroke-width:1.1693;stroke-linejoin:round;stroke-miterlimit:10;}
	.st7{fill:#868789;stroke:#1A171B;stroke-width:1.1693;stroke-miterlimit:10;}
	.st8{fill:#868789;stroke:#1A171B;stroke-width:1.1693;stroke-linejoin:round;stroke-miterlimit:10;}
	.st9{clip-path:url(#XMLID_87_);fill:#6F7072;stroke:#1A171B;stroke-width:1.1693;stroke-miterlimit:10;}
</style>
<g id="XMLID_86_">
	<defs>
		<rect id="XMLID_20_" x="37.5" y="105.3" width="429.5" height="294.8"/>
	</defs>
	<clipPath id="XMLID_87_">
		<use xlink:href="#XMLID_20_"  style="overflow:visible;"/>
	</clipPath>
	<rect id="XMLID_84_" x="30.1" y="275.9" class="st0" width="445.2" height="164"/>
	<g id="XMLID_120_" class="st1">
		<path id="XMLID_83_" class="st2" d="M44.2,204.7c0,0,23.6-43.8,38.5-54.1c5.7-4.6,17.7,7.6,17.7,7.6s22-18.4,26.6-24.1
			c13.9-11.3,26.8-8.8,26.8-8.8l8,19.1l7.8-5.8l28.6-20.4c0,0,10.2-6.3,13.8-3.2c2.3,1.9,10.8,22.2,10.8,22.2l14.4,5.3
			c0,0,27.5-21.7,31-22.5c3-1,15.5-3,16.5,1.2c1.1,4.2,8.7,33.6,8.7,33.6H304l28.8-18.6c0,0,13.9,1,13.9,7.7c0,6.7,0,35.1,0,35.1
			l18.7,5.2l22.1-19.7c18.9,3.2,15.6,9.7,16,8.3c1.5-5.3-8.8,32-8.8,32l12.7,11.8c0,0,25.5-11.7,31.7-10.3c3.2,0.7,5.8,3.2,6.1,6.3
			c0.3,3.1-15.4,30-19,36.5c-2.2,3.9,3.8,17.3,6.2,17.6c2.4,0.3,13.8-13.8,17-15c3.2-1.3,8.3,0.5,8.3,5.7s0,16.5,0,16.5H472v33.5
			l-177.5-24.8l-46-2.7l-63.3-21l-58.3-3.4l-82.7,27.1V204.7z"/>
		<path id="XMLID_82_" class="st3" d="M127.1,134.1l-62.5,56.5l16.8,4.3l72.4-69.6c0,0-4.1-1.7-13.1,1.3
			C131.7,129.6,127.1,134.1,127.1,134.1z"/>
		<path id="XMLID_81_" class="st2" d="M64.4,191.3c0.3-4,10.8-9.6,13.5-6.1c2.7,3.5,19.8,69.1,19.8,69.1l-16.7,1.2
			C81.1,255.5,64.1,195.4,64.4,191.3z"/>
		<path id="XMLID_80_" class="st3" d="M132.9,168.7c0.6,2.4,14.5,1.9,14.5,1.9s55.2-43.5,65.6-53.8c-4-9.8-31.7,13.5-31.7,13.5
			S133.7,164.4,132.9,168.7z"/>
		<path id="XMLID_79_" class="st2" d="M132.9,168.7c0.8-4,11.4-4.1,13.7-0.3c2.3,3.8,12,69.7,12,69.7l-16.7-0.8
			C142,237.3,132.1,172.7,132.9,168.7z"/>
		<path id="XMLID_78_" class="st3" d="M213.2,160.2c0,0,52.1-39.1,54.9-40.1c2.1-1,14.8-3,15.1,0.5c0.3,3.5-56.5,42-56.5,42
			L213.2,160.2z"/>
		<path id="XMLID_77_" class="st2" d="M213.2,160.2c1.6-3.7,12-1.7,13.5,2.4c1.5,4.2,3.1,70.6,3.1,70.6l-33-3.6
			C196.9,229.7,211.6,163.9,213.2,160.2z"/>
		<path id="XMLID_76_" class="st3" d="M288,166.8l16.8,9.3c0,0,40.7-32.9,40.7-34.9c0.1-2-12.7-5.1-12.7-5.1L288,166.8z"/>
		<path id="XMLID_75_" class="st3" d="M387.5,164.5c0,0,17.2,3.9,16,8.3c-0.9,3.4-25.6,26.9-25.6,26.9l-19.1-9.5L387.5,164.5z"/>
		<path id="XMLID_74_" class="st3" d="M432.5,207.1c-6.1,4.6-17.8,23.1-18.4,25.4c-0.6,2.3,4.1,11.1,7.6,10.7
			c3.5-0.4,19.6-20.5,22.2-26.6C447.9,210.4,439.6,204.3,432.5,207.1z"/>
		<path id="XMLID_73_" class="st2" d="M287.5,167.2c2.9-2.9,16.8,4.5,17.4,8.9c0,0-3.6,28.3-4.9,32.8c-5.9,22.2-17.9,46.7-17.9,46.7
			l-52.2-36.8C229.8,218.7,284.3,170.3,287.5,167.2z"/>
		<path id="XMLID_72_" class="st2" d="M361.6,188.2c3.5-2,16.4,5.5,17,9.9c0.5,4.4-22.7,66.9-22.7,66.9l-39.4-40.5
			C316.4,224.4,356.9,190.8,361.6,188.2z"/>
		<path id="XMLID_71_" class="st2" d="M414.1,232.5c3.2-2.2,11.8,6.2,10.5,8.8c-1.3,2.5-17.3,34.7-17.3,34.7l-19.6-21.7
			C387.7,254.2,410.9,234.6,414.1,232.5z"/>
		<path id="XMLID_70_" class="st3" d="M448.1,252.5c-5.4,5.4-18.3,26.7-18.6,29c-0.3,2.3,5.6,10.5,9,9.5
			c3.4-0.9,16.5-23.1,18.2-29.5C459.9,254.9,454.7,248.7,448.1,252.5z"/>
	</g>
	<g id="XMLID_113_" class="st1">
		<path id="XMLID_69_" class="st3" d="M140,330.5l8.3-44.9l26.8-3.1l31.5,44.9h24.2l29-40.2l29.8,1l10.8,53.6l29.4,3.1l34-35.6H390
			V377h28.9l43.8-31.8l7.8,10.7l4.8,27.8l27.7-29.9c0,0-47.3-77.2-50.5-82.5c-3.2-5.3-7.9-2.9-13.7,0c-5.7,2.9-12.7,6.4-12.7,6.4
			l-14.1-4.2L381.3,230l-11.5,0.7L349.3,246l-7.8-0.8l-32.9-43.6h-24.2L270.2,234h-19.4l-30.4-42.6h-19.6L179.7,230l-19.1,4
			l-28.4-31.7l-1.5-1.7l-20.1,2.6l-9.3,48.5l-14.4,0.5l-21.7-26.3l-21-5.2v90.7l22-21.7l44.9,42.3L140,330.5z"/>
		<polygon id="XMLID_68_" class="st3" points="110.6,203.2 148.2,285.7 175,282.6 130.7,200.6 		"/>
		<polygon id="XMLID_67_" class="st3" points="200.8,191.3 259.7,287.2 289.6,288.3 220.4,191.3 		"/>
		<polygon id="XMLID_66_" class="st3" points="308.6,201.6 285.7,201.6 363.7,309.4 390,309.4 		"/>
		<polygon id="XMLID_65_" class="st3" points="381.3,230 369.2,231.2 449.8,354.5 462.7,345.1 		"/>
		<polygon id="XMLID_64_" class="st3" points="61.5,225 61.5,294.4 66.2,289.8 71.1,294.4 68.6,230 65.2,225.9 		"/>
	</g>
	<ellipse id="XMLID_63_" class="st0" cx="233.4" cy="397.7" rx="87.6" ry="17.9"/>
	<rect id="XMLID_62_" x="30.1" y="275.9" class="st4" width="445.2" height="164"/>
	<g id="XMLID_96_" class="st1">
		<path id="XMLID_61_" class="st5" d="M44.2,204.7c0,0,23.6-43.8,38.5-54.1c5.7-4.6,17.7,7.6,17.7,7.6s22-18.4,26.6-24.1
			c13.9-11.3,26.8-8.8,26.8-8.8l8,19.1l7.8-5.8l28.6-20.4c0,0,10.2-6.3,13.8-3.2c2.3,1.9,10.8,22.2,10.8,22.2l14.4,5.3
			c0,0,27.5-21.7,31-22.5c3-1,15.5-3,16.5,1.2c1.1,4.2,8.7,33.6,8.7,33.6H304l28.8-18.6c0,0,13.9,1,13.9,7.7c0,6.7,0,35.1,0,35.1
			l18.7,5.2l22.1-19.7c18.9,3.2,15.6,9.7,16,8.3c1.5-5.3-8.8,32-8.8,32l12.7,11.8c0,0,25.5-11.7,31.7-10.3c3.2,0.7,5.8,3.2,6.1,6.3
			c0.3,3.1-15.4,30-19,36.5c-2.2,3.9,3.8,17.3,6.2,17.6c2.4,0.3,13.8-13.8,17-15c3.2-1.3,8.3,0.5,8.3,5.7s0,16.5,0,16.5H472v33.5
			l-177.5-24.8l-46-2.7l-63.3-21l-58.3-3.4l-82.7,27.1V204.7z"/>
		<path id="XMLID_60_" class="st6" d="M127.1,134.1l-62.5,56.5l16.8,4.3l72.4-69.6c0,0-4.1-1.7-13.1,1.3
			C131.7,129.6,127.1,134.1,127.1,134.1z"/>
		<path id="XMLID_59_" class="st7" d="M64.4,191.3c0.3-4,10.8-9.6,13.5-6.1c2.7,3.5,19.8,69.1,19.8,69.1l-16.7,1.2
			C81.1,255.5,64.1,195.4,64.4,191.3z"/>
		<path id="XMLID_58_" class="st6" d="M132.9,168.7c0.6,2.4,14.5,1.9,14.5,1.9s55.2-43.5,65.6-53.8c-4-9.8-31.7,13.5-31.7,13.5
			S133.7,164.4,132.9,168.7z"/>
		<path id="XMLID_57_" class="st7" d="M132.9,168.7c0.8-4,11.4-4.1,13.7-0.3c2.3,3.8,12,69.7,12,69.7l-16.7-0.8
			C142,237.3,132.1,172.7,132.9,168.7z"/>
		<path id="XMLID_56_" class="st6" d="M213.2,160.2c0,0,52.1-39.1,54.9-40.1c2.1-1,14.8-3,15.1,0.5c0.3,3.5-56.5,42-56.5,42
			L213.2,160.2z"/>
		<path id="XMLID_37_" class="st7" d="M213.2,160.2c1.6-3.7,12-1.7,13.5,2.4c1.5,4.2,3.1,70.6,3.1,70.6l-33-3.6
			C196.9,229.7,211.6,163.9,213.2,160.2z"/>
		<path id="XMLID_36_" class="st6" d="M288,166.8l16.8,9.3c0,0,40.7-32.9,40.7-34.9c0.1-2-12.7-5.1-12.7-5.1L288,166.8z"/>
		<path id="XMLID_35_" class="st6" d="M387.5,164.5c0,0,17.2,3.9,16,8.3c-0.9,3.4-25.6,26.9-25.6,26.9l-19.1-9.5L387.5,164.5z"/>
		<path id="XMLID_34_" class="st6" d="M432.5,207.1c-6.1,4.6-17.8,23.1-18.4,25.4c-0.6,2.3,4.1,11.1,7.6,10.7
			c3.5-0.4,19.6-20.5,22.2-26.6C447.9,210.4,439.6,204.3,432.5,207.1z"/>
		<path id="XMLID_33_" class="st7" d="M287.5,167.2c2.9-2.9,16.8,4.5,17.4,8.9c0,0-3.6,28.3-4.9,32.8c-5.9,22.2-17.9,46.7-17.9,46.7
			l-52.2-36.8C229.8,218.7,284.3,170.3,287.5,167.2z"/>
		<path id="XMLID_32_" class="st7" d="M361.6,188.2c3.5-2,16.4,5.5,17,9.9c0.5,4.4-22.7,66.9-22.7,66.9l-39.4-40.5
			C316.4,224.4,356.9,190.8,361.6,188.2z"/>
		<path id="XMLID_31_" class="st7" d="M414.1,232.5c3.2-2.2,11.8,6.2,10.5,8.8c-1.3,2.5-17.3,34.7-17.3,34.7l-19.6-21.7
			C387.7,254.2,410.9,234.6,414.1,232.5z"/>
		<path id="XMLID_30_" class="st6" d="M448.1,252.5c-5.4,5.4-18.3,26.7-18.6,29c-0.3,2.3,5.6,10.5,9,9.5
			c3.4-0.9,16.5-23.1,18.2-29.5C459.9,254.9,454.7,248.7,448.1,252.5z"/>
	</g>
	<g id="XMLID_89_" class="st1">
		<path id="XMLID_29_" class="st8" d="M140,330.5l8.3-44.9l26.8-3.1l31.5,44.9h24.2l29-40.2l29.8,1l10.8,53.6l29.4,3.1l34-35.6H390
			V377h28.9l43.8-31.8l7.8,10.7l4.8,27.8l27.7-29.9c0,0-47.3-77.2-50.5-82.5c-3.2-5.3-7.9-2.9-13.7,0c-5.7,2.9-12.7,6.4-12.7,6.4
			l-14.1-4.2L381.3,230l-11.5,0.7L349.3,246l-7.8-0.8l-32.9-43.6h-24.2L270.2,234h-19.4l-30.4-42.6h-19.6L179.7,230l-19.1,4
			l-28.4-31.7l-1.5-1.7l-20.1,2.6l-9.3,48.5l-14.4,0.5l-21.7-26.3l-21-5.2v90.7l22-21.7l44.9,42.3L140,330.5z"/>
		<polygon id="XMLID_28_" class="st6" points="110.6,203.2 148.2,285.7 175,282.6 130.7,200.6 		"/>
		<polygon id="XMLID_27_" class="st6" points="200.8,191.3 259.7,287.2 289.6,288.3 220.4,191.3 		"/>
		<polygon id="XMLID_26_" class="st6" points="308.6,201.6 285.7,201.6 363.7,309.4 390,309.4 		"/>
		<polygon id="XMLID_25_" class="st6" points="381.3,230 369.2,231.2 449.8,354.5 462.7,345.1 		"/>
		<polygon id="XMLID_24_" class="st6" points="61.5,225 61.5,294.4 66.2,289.8 71.1,294.4 68.6,230 65.2,225.9 		"/>
	</g>
	<ellipse id="XMLID_23_" class="st9" cx="233.4" cy="397.7" rx="87.6" ry="17.9"/>
</g>
</svg>
