<?xml version="1.0" encoding="utf-8"?>
<!-- Generator: Adobe Illustrator 19.0.0, SVG Export Plug-In . SVG Version: 6.00 Build 0)  -->
<svg version="1.1" id="Camada_1" xmlns="http://www.w3.org/2000/svg" xmlns:xlink="http://www.w3.org/1999/xlink" x="0px" y="0px"
	 viewBox="0 0 500 500" style="enable-background:new 0 0 500 500;" xml:space="preserve">
<style type="text/css">
	.st0{fill:none;stroke:#1A171B;stroke-width:2.1835;stroke-miterlimit:10;}
	.st1{fill:#1A171B;}
	.st2{fill:none;stroke:#E1001A;stroke-width:2.1835;stroke-miterlimit:10;}
	.st3{font-family:'MyriadPro-Regular';}
	.st4{font-size:21.8349px;}
	.st5{fill:none;stroke:#E1001A;stroke-width:1.0917;stroke-linecap:square;stroke-miterlimit:10;}
	.st6{fill:none;stroke:#E1001A;stroke-width:1.0917;stroke-miterlimit:10;}
	.st7{fill:none;stroke:#E1001A;stroke-width:1.0917;stroke-linecap:round;stroke-miterlimit:10;}
	.st8{fill:#1A171B;stroke:#1A171B;stroke-width:4.367;stroke-linejoin:round;stroke-miterlimit:10;}
	.st9{fill:#F5F5F6;stroke:#1A171B;stroke-width:1.0917;stroke-linejoin:round;stroke-miterlimit:10;}
	.st10{fill:#ECECED;stroke:#1A171B;stroke-width:1.0917;stroke-linejoin:round;stroke-miterlimit:10;}
	.st11{fill:#D8D9DA;stroke:#1A171B;stroke-width:1.0917;stroke-linejoin:round;stroke-miterlimit:10;}
</style>
<g id="XMLID_141_">
	<g id="XMLID_107_">
		<line id="XMLID_126_" class="st0" x1="72.4" y1="189" x2="304.3" y2="189"/>
		<g id="XMLID_110_">
			<polygon id="XMLID_125_" class="st1" points="73.9,193.8 65.4,188.9 73.9,184 			"/>
		</g>
		<g id="XMLID_108_">
			<polygon id="XMLID_109_" class="st1" points="302.9,193.8 311.4,188.9 302.9,184 			"/>
		</g>
	</g>
</g>
<line id="XMLID_140_" class="st2" x1="63.1" y1="176.2" x2="63" y2="221.8"/>
<line id="XMLID_139_" class="st2" x1="19.4" y1="175.6" x2="19.4" y2="221.2"/>
<g id="XMLID_133_">
	<g id="XMLID_100_">
		<line id="XMLID_103_" class="st0" x1="20.6" y1="189" x2="54.2" y2="189"/>
		<g id="XMLID_101_">
			<polygon id="XMLID_102_" class="st1" points="52.8,193.8 61.2,188.9 52.8,184 			"/>
		</g>
	</g>
</g>
<text id="XMLID_132_" transform="matrix(1 0 0 1 9.3081 239.5457)" class="st1 st3 st4">Cabeça</text>
<line id="XMLID_131_" class="st2" x1="269" y1="153.4" x2="269" y2="222.3"/>
<line id="XMLID_130_" class="st2" x1="312.7" y1="130.7" x2="312.7" y2="223.1"/>
<g id="XMLID_124_">
	<g id="XMLID_88_">
		<line id="XMLID_91_" class="st0" x1="311.4" y1="209.9" x2="276.1" y2="210"/>
		<g id="XMLID_89_">
			<polygon id="XMLID_90_" class="st1" points="277.5,205.2 269,210.1 277.5,215 			"/>
		</g>
	</g>
</g>
<text id="XMLID_123_" transform="matrix(1 0 0 1 143.582 239.5458)" class="st1 st3 st4">Corpo</text>
<text id="XMLID_122_" transform="matrix(1 0 0 1 260.4413 239.5449)" class="st1 st3 st4">extremidade</text>
<line id="XMLID_121_" class="st5" x1="130.5" y1="100.7" x2="130.5" y2="73.4"/>
<polyline id="XMLID_120_" class="st6" points="130.5,73.4 180.5,73.4 197.5,65.8 215,73.4 269,73.4 "/>
<line id="XMLID_119_" class="st5" x1="269" y1="73.4" x2="269" y2="99.7"/>
<line id="XMLID_118_" class="st7" x1="288.7" y1="98" x2="346.5" y2="98"/>
<line id="XMLID_117_" class="st7" x1="290.2" y1="153.4" x2="346.5" y2="153.4"/>
<polyline id="XMLID_116_" class="st6" points="346.5,98 346.5,116.3 352.9,123.9 346.5,132.6 346.5,153.4 "/>
<line id="XMLID_115_" class="st7" x1="15.3" y1="239.5" x2="15.3" y2="262.5"/>
<polyline id="XMLID_114_" class="st6" points="15.3,262.5 143.2,262.5 175.6,271.9 209.4,262.5 340.8,262.5 "/>
<line id="XMLID_113_" class="st7" x1="340.8" y1="262.5" x2="340.8" y2="239.4"/>
<polygon id="XMLID_112_" class="st8" points="291.9,151.4 258.4,151.4 258.4,100.7 291.9,100.7 308.8,125.9 "/>
<polygon id="XMLID_111_" class="st9" points="291.9,151.4 258.4,151.4 258.4,100.7 291.9,100.7 308.8,125.9 "/>
<g id="XMLID_93_">
	<path id="XMLID_35_" class="st8" d="M259.5,100.7c8.6,0,15.6,11.3,15.6,25.3c0,14-7,25.3-15.6,25.3c-8.6,0-15.6-11.3-15.6-25.3
		C243.9,112.1,250.8,100.7,259.5,100.7z"/>
	<path id="XMLID_63_" class="st8" d="M248.4,100.7c8.6,0,15.6,11.3,15.6,25.3c0,14-7,25.3-15.6,25.3c-8.6,0-15.6-11.3-15.6-25.3
		C232.8,112.1,239.8,100.7,248.4,100.7z"/>
	<path id="XMLID_62_" class="st8" d="M237.4,100.7c8.6,0,15.6,11.3,15.6,25.3c0,14-7,25.3-15.6,25.3c-8.6,0-15.6-11.3-15.6-25.3
		C221.8,112.1,228.8,100.7,237.4,100.7z"/>
	<path id="XMLID_61_" class="st8" d="M226.4,100.7c8.6,0,15.6,11.3,15.6,25.3c0,14-7,25.3-15.6,25.3c-8.6,0-15.6-11.3-15.6-25.3
		C210.8,112.1,217.8,100.8,226.4,100.7z"/>
	<path id="XMLID_60_" class="st8" d="M215.4,100.8c8.6,0,15.6,11.3,15.6,25.3c0,14-7,25.3-15.6,25.3c-8.6,0-15.6-11.3-15.6-25.3
		C199.8,112.1,206.7,100.8,215.4,100.8z"/>
	<path id="XMLID_59_" class="st8" d="M204.3,100.8c8.6,0,15.6,11.3,15.6,25.3c0,14-7,25.3-15.6,25.3c-8.6,0-15.6-11.3-15.6-25.3
		C188.7,112.1,195.7,100.8,204.3,100.8z"/>
	<path id="XMLID_58_" class="st8" d="M193.3,100.8c8.6,0,15.6,11.3,15.6,25.3c0,14-7,25.3-15.6,25.3c-8.6,0-15.6-11.3-15.6-25.3
		C177.7,112.1,184.7,100.8,193.3,100.8z"/>
	<path id="XMLID_57_" class="st8" d="M182.3,100.8c8.6,0,15.6,11.3,15.6,25.3c0,14-7,25.3-15.6,25.3c-8.6,0-15.6-11.3-15.6-25.3
		C166.7,112.1,173.6,100.8,182.3,100.8z"/>
	<path id="XMLID_56_" class="st8" d="M171.2,100.8c8.6,0,15.6,11.3,15.6,25.3c0,14-7,25.3-15.6,25.3c-8.6,0-15.6-11.3-15.6-25.3
		C155.6,112.1,162.6,100.8,171.2,100.8z"/>
	<path id="XMLID_37_" class="st8" d="M160.2,100.8c8.6,0,15.6,11.3,15.6,25.3c0,14-7,25.3-15.6,25.3c-8.6,0-15.6-11.3-15.6-25.3
		C144.6,112.1,151.6,100.8,160.2,100.8z"/>
	<path id="XMLID_36_" class="st8" d="M149.2,100.8c8.6,0,15.6,11.3,15.6,25.3c0,14-7,25.3-15.6,25.3c-8.6,0-15.6-11.3-15.6-25.3
		C133.6,112.1,140.6,100.8,149.2,100.8z"/>
	<path id="XMLID_34_" class="st8" d="M138.2,100.8c8.6,0,15.6,11.3,15.6,25.3c0,14-7,25.3-15.6,25.3c-8.6,0-15.6-11.3-15.6-25.3
		C122.6,112.1,129.5,100.8,138.2,100.8z"/>
</g>
<path id="XMLID_92_" class="st8" d="M31.3,79.1l-16,23.6l0,47.1l16.1,23.5l5.3-7.7l-5.3,7.7l27.7,0L74,151.3l51.8,0
	c0.1,0,0.2,0,0.4,0c0.4,0,0.8,0.1,1.2,0.1c9.8,0,17.7-11.3,17.6-25.2c0-13.9-7.9-25.2-17.7-25.2c-0.4,0-0.8,0.1-1.2,0.1
	c-0.1,0-0.2,0-0.4,0L74,101L59,79.1L31.3,79.1l5.3,7.7L31.3,79.1z"/>
<g id="XMLID_74_">
	<path id="XMLID_23_" class="st9" d="M266.4,100.9c8.6,0,15.6,11.3,15.6,25.3c0,14-7,25.3-15.6,25.3c-8.6,0-15.6-11.3-15.6-25.3
		C250.8,112.2,257.8,100.9,266.4,100.9z"/>
	<path id="XMLID_33_" class="st9" d="M254.7,100.9c8.6,0,15.6,11.3,15.6,25.3c0,14-7,25.3-15.6,25.3c-8.6,0-15.6-11.3-15.6-25.3
		C239.1,112.2,246.1,100.9,254.7,100.9z"/>
	<path id="XMLID_32_" class="st9" d="M243.1,100.9c8.6,0,15.6,11.3,15.6,25.3c0,14-7,25.3-15.6,25.3c-8.6,0-15.6-11.3-15.6-25.3
		C227.5,112.2,234.4,100.9,243.1,100.9z"/>
	<path id="XMLID_31_" class="st9" d="M231.4,100.9c8.6,0,15.6,11.3,15.6,25.3c0,14-7,25.3-15.6,25.3c-8.6,0-15.6-11.3-15.6-25.3
		C215.8,112.2,222.8,100.9,231.4,100.9z"/>
	<path id="XMLID_30_" class="st9" d="M219.8,100.9c8.6,0,15.6,11.3,15.6,25.3c0,14-7,25.3-15.6,25.3c-8.6,0-15.6-11.3-15.6-25.3
		C204.2,112.2,211.1,100.9,219.8,100.9z"/>
	<path id="XMLID_29_" class="st9" d="M208.1,100.8c8.6,0,15.6,11.3,15.6,25.3c0,14-7,25.3-15.6,25.3c-8.6,0-15.6-11.3-15.6-25.3
		C192.5,112.2,199.5,100.9,208.1,100.8z"/>
	<path id="XMLID_28_" class="st9" d="M196.4,100.8c8.6,0,15.6,11.3,15.6,25.3c0,14-7,25.3-15.6,25.3c-8.6,0-15.6-11.3-15.6-25.3
		C180.8,112.2,187.8,100.8,196.4,100.8z"/>
	<path id="XMLID_27_" class="st9" d="M184.8,100.8c8.6,0,15.6,11.3,15.6,25.3c0,14-7,25.3-15.6,25.3c-8.6,0-15.6-11.3-15.6-25.3
		C169.2,112.2,176.2,100.8,184.8,100.8z"/>
	<path id="XMLID_26_" class="st9" d="M173.1,100.8c8.6,0,15.6,11.3,15.6,25.3c0,14-7,25.3-15.6,25.3c-8.6,0-15.6-11.3-15.6-25.3
		C157.5,112.2,164.5,100.8,173.1,100.8z"/>
	<path id="XMLID_25_" class="st9" d="M161.5,100.8c8.6,0,15.6,11.3,15.6,25.3c0,14-7,25.3-15.6,25.3c-8.6,0-15.6-11.3-15.6-25.3
		C145.9,112.2,152.8,100.8,161.5,100.8z"/>
	<path id="XMLID_24_" class="st9" d="M149.8,100.8c8.6,0,15.6,11.3,15.6,25.3c0,14-7,25.3-15.6,25.3c-8.6,0-15.6-11.3-15.6-25.3
		C134.2,112.2,141.2,100.8,149.8,100.8z"/>
	<path id="XMLID_20_" class="st9" d="M138.2,100.8c8.6,0,15.6,11.3,15.6,25.3c0,14-7,25.3-15.6,25.3c-8.6,0-15.6-11.3-15.6-25.3
		C122.6,112.1,129.5,100.8,138.2,100.8z"/>
</g>
<path id="XMLID_73_" class="st9" d="M126.2,101c-0.1,0-0.2,0-0.4,0L47.2,101c-4.8,0-8.7,3.4-8.7,7.5l0,35.3c0,4.1,3.9,7.5,8.7,7.5
	l78.6-0.1c0.1,0,0.2,0,0.4,0c0.4,0,0.8,0.1,1.2,0.1c9.8,0,17.7-11.3,17.6-25.2c0-13.9-7.9-25.2-17.7-25.2
	C127,100.9,126.6,100.9,126.2,101z"/>
<polygon id="XMLID_72_" class="st10" points="47.4,149.7 31.4,173.3 15.3,149.7 15.3,102.7 31.3,79.1 47.4,102.6 "/>
<polygon id="XMLID_71_" class="st9" points="75.1,102.6 75.1,149.7 47.4,149.7 47.4,102.6 "/>
<polygon id="XMLID_70_" class="st11" points="59,79.1 75.1,102.6 47.4,102.6 31.3,79.1 "/>
<polygon id="XMLID_69_" class="st9" points="59.1,173.3 75.1,149.7 47.4,149.7 31.4,173.3 "/>
<text id="XMLID_68_" transform="matrix(1 0 0 1 132.0014 28.5175)"><tspan x="0" y="0" class="st1 st3 st4">Comprimento</tspan><tspan x="23.9" y="26.2" class="st1 st3 st4">da Rosca</tspan></text>
<text id="XMLID_67_" transform="matrix(1 0 0 1 384.583 116.1796)"><tspan x="0" y="0" class="st1 st3 st4">Diâmetro </tspan><tspan x="-16.4" y="26.2" class="st1 st3 st4">externo rosca</tspan></text>
<text id="XMLID_66_" transform="matrix(1 0 0 1 80.918 294.0663)" class="st1 st3 st4">Comprimento do corpo</text>
</svg>
