<?xml version="1.0" encoding="utf-8"?>
<!-- Generator: Adobe Illustrator 19.0.0, SVG Export Plug-In . SVG Version: 6.00 Build 0)  -->
<svg version="1.1" id="Camada_1" xmlns="http://www.w3.org/2000/svg" xmlns:xlink="http://www.w3.org/1999/xlink" x="0px" y="0px"
	 viewBox="0 0 500 500" style="enable-background:new 0 0 500 500;" xml:space="preserve">
<style type="text/css">
	.st0{fill:#1A171B;stroke:#1A171B;stroke-width:5.7382;stroke-miterlimit:10;}
	.st1{fill:#1A171B;stroke:#1A171B;stroke-width:5.7382;stroke-linejoin:round;stroke-miterlimit:10;}
	.st2{opacity:0.59;fill:#1A171B;stroke:#1A171B;stroke-width:5.7382;stroke-miterlimit:10;}
	.st3{fill:#2D2C2F;stroke:#1A171B;stroke-width:1.4345;stroke-miterlimit:10;}
	.st4{fill:#FFFFFF;stroke:#1A171B;stroke-width:1.4345;stroke-miterlimit:10;}
	.st5{fill:#9B9C9E;stroke:#1A171B;stroke-width:1.4345;stroke-miterlimit:10;}
	.st6{fill:#6F7072;stroke:#1A171B;stroke-width:1.4345;stroke-miterlimit:10;}
	.st7{fill:#58585A;stroke:#1A171B;stroke-width:1.4345;stroke-miterlimit:10;}
	.st8{fill:#3D3D3F;stroke:#1A171B;stroke-width:1.4345;stroke-miterlimit:10;}
	.st9{fill:#E7A04B;stroke:#1A171B;stroke-width:1.4345;stroke-miterlimit:10;}
	.st10{fill:#1A171B;stroke:#1A171B;stroke-width:1.4345;stroke-miterlimit:10;}
	.st11{fill:#868789;stroke:#1A171B;stroke-width:1.4345;stroke-linejoin:round;stroke-miterlimit:10;}
	.st12{fill:#868789;stroke:#1A171B;stroke-width:1.4345;stroke-miterlimit:10;}
	.st13{fill:#C5C6C8;stroke:#1A171B;stroke-width:1.4345;stroke-miterlimit:10;}
	.st14{fill:none;stroke:#1A171B;stroke-width:1.4345;stroke-miterlimit:10;}
	.st15{fill:#ECECED;}
	.st16{opacity:0.59;fill:#ECECED;}
</style>
<polygon id="XMLID_143_" class="st0" points="294.3,206.8 411,188 443.6,215.2 443.6,324.2 282.6,296.7 "/>
<path id="XMLID_142_" class="st0" d="M372.8,229.8c-6.7-1.3-36.3,12.3-35.9,17.9c0.5,5.6,47,22.3,52.8,21.4
	C395.4,268.3,379.5,231.1,372.8,229.8z"/>
<path id="XMLID_141_" class="st0" d="M400.1,161.7c6.2,15.5-1,32.9-16,39L345.8,216c-15.1,6-32.3-1.6-38.5-17.1l0,0
	c-6.2-15.5,1-32.9,16-38.9l38.3-15.4C376.6,138.6,393.9,146.3,400.1,161.7L400.1,161.7z"/>
<path id="XMLID_140_" class="st0" d="M388.5,168.6c3.9,9.6-1.9,21-12.8,25.4l-27.8,11.2c-10.9,4.4-22.9,0.2-26.8-9.4l0,0
	c-3.9-9.6,1.9-21,12.8-25.3l27.8-11.2C372.6,154.7,384.6,159,388.5,168.6L388.5,168.6z"/>
<path id="XMLID_139_" class="st0" d="M384.5,176.2c2.7,6.8-2.9,15.3-12.4,19.2l-24.4,9.8c-9.6,3.8-19.5,1.5-22.3-5.3l0,0
	c-2.7-6.8,2.9-15.3,12.4-19.2l24.4-9.8C371.8,167.1,381.8,169.4,384.5,176.2L384.5,176.2z"/>
<rect id="XMLID_138_" x="302.6" y="286.4" transform="matrix(0.9617 0.2741 -0.2741 0.9617 96.5074 -85.2533)" class="st0" width="101.4" height="32.6"/>
<g id="XMLID_213_">
	<ellipse id="XMLID_137_" class="st0" cx="179.1" cy="250.5" rx="146.3" ry="142.5"/>
	<ellipse id="XMLID_136_" class="st0" cx="177.8" cy="237.4" rx="139.3" ry="129.3"/>
	<ellipse id="XMLID_135_" class="st0" cx="177.9" cy="242.2" rx="121.2" ry="108.3"/>
	<ellipse id="XMLID_134_" class="st0" cx="179.8" cy="247.7" rx="75.4" ry="68.6"/>
	<path id="XMLID_133_" class="st0" d="M157.4,210.6c0,0-7.9-25.6-3.6-30.9c4.3-5.3,56.9-6.3,60.5,1.5c2.8,6.1-8.2,29-8.2,29
		L157.4,210.6z"/>
	<path id="XMLID_132_" class="st0" d="M223.1,220.6c0,0,24.9-8.5,30.3-4.2c5.5,4.3,6.9,58.7,0.2,60.2c-6.7,1.4-30.1-7.3-30.1-7.3
		L223.1,220.6z"/>
	<path id="XMLID_131_" class="st0" d="M140.3,264.2c0,0-27.6,10.2-33,5.7c-5.4-4.5-2.5-56.9,4.3-58.1c6.8-1.2,29.8,3.7,29.8,3.7
		L140.3,264.2z"/>
	<path id="XMLID_130_" class="st0" d="M205.9,290.3c0,0,9.9,23.2,5.4,27.5c-4.5,4.4-66.4,2.4-67.5-3.3c-1.2-5.7,13.5-26.2,13.5-26.2
		L205.9,290.3z"/>
	<ellipse id="XMLID_129_" class="st0" cx="181.7" cy="250.9" rx="56.6" ry="51.2"/>
	<path id="XMLID_128_" class="st0" d="M77.5,181.5c0,0,30.9,34.7,60.4,15.3c23.7-13,5.6-52.4,0-52.9c-10.6,2.2-28.4,7.5-39.4,16.4
		C84.7,171.6,77.5,181.5,77.5,181.5z"/>
	<path id="XMLID_127_" class="st0" d="M233.5,147.8c0,0-35.6,24.6-9.8,48.5c23.1,21.4,55.4-13.3,55.4-13.3s-10-13.8-20.5-20.8
		C251.7,157.5,233.5,147.8,233.5,147.8z"/>
	<path id="XMLID_126_" class="st1" d="M229.9,144.8c0,0-35.7,23.9-9.8,47.9c23.1,21.4,55.8-14.1,55.8-14.1s-10.4-13-20.8-20
		C247.9,153.9,229.9,144.8,229.9,144.8z"/>
	<path id="XMLID_125_" class="st0" d="M236.9,334.8c0,0,9.6-6.3,22.7-18.2c13.1-11.9,21.6-25.4,21.6-25.4s-39.9-21.3-54-6.8
		C213,299,236.9,334.8,236.9,334.8z"/>
	<path id="XMLID_124_" class="st0" d="M95.6,315.8c6.4,7.4,18,14.1,18,14.1s29.7-22.1,22.2-37.7c-9-18.7-59.1,2.4-59.1,2.4
		S89.2,308.4,95.6,315.8z"/>
	<ellipse id="XMLID_123_" class="st0" cx="182.3" cy="249.9" rx="52.2" ry="47.7"/>
	<ellipse id="XMLID_122_" class="st0" cx="181.6" cy="251.3" rx="36.7" ry="31.2"/>
	<ellipse id="XMLID_121_" class="st0" cx="174.5" cy="220.1" rx="21.7" ry="18.9"/>
	<ellipse id="XMLID_120_" class="st0" cx="174.2" cy="217.4" rx="16.9" ry="16.2"/>
	<polygon id="XMLID_119_" class="st0" points="188.1,218.2 178.7,229.9 164.7,228.3 160,215 169.4,203.2 183.4,204.8 	"/>
	<polygon id="XMLID_118_" class="st0" points="183.5,217.9 177.4,225.6 168.2,224.5 165.1,215.8 171.3,208.1 180.5,209.1 	"/>
	<path id="XMLID_117_" class="st0" d="M234.4,152.3v27.9c0,2.6,5.3,4.6,11.8,4.6c6.5,0,11.8-2.1,11.8-4.6v-27.9H234.4z"/>
	<ellipse id="XMLID_116_" class="st0" cx="246.2" cy="152.3" rx="11.8" ry="6.6"/>
	<path id="XMLID_115_" class="st0" d="M77.5,181.5c0,0,31.8,31.4,61.3,12c23.7-13,5.2-53.1-0.5-53.7c-10.6,2.2-27.2,11.2-38.6,19.6
		C84.6,170.7,77.5,181.5,77.5,181.5z"/>
	<path id="XMLID_114_" class="st0" d="M104.5,149v27.9c0,2.6,5.3,4.6,11.8,4.6c6.5,0,11.8-2.1,11.8-4.6V149H104.5z"/>
	<ellipse id="XMLID_113_" class="st0" cx="116.2" cy="149" rx="11.8" ry="6.6"/>
	<path id="XMLID_112_" class="st1" d="M88.6,315.9c7.3,7.2,23.3,17.3,23.3,17.3s31.5-31.3,21.5-40.6c-16.5-15.6-61.1,2.9-61.1,2.9
		S78.8,306.3,88.6,315.9z"/>
	<path id="XMLID_111_" class="st0" d="M95,280.4v27.9c0,2.6,5.3,4.6,11.8,4.6c6.5,0,11.8-2.1,11.8-4.6v-27.9H95z"/>
	<ellipse id="XMLID_110_" class="st0" cx="106.8" cy="280.4" rx="11.8" ry="6.6"/>
	<path id="XMLID_109_" class="st0" d="M237.3,336.6c0,0,14-6.7,27.1-18.5c13.1-11.9,21.4-26.4,21.4-26.4s-41-21.7-55.1-7.1
		C216.6,299,237.3,336.6,237.3,336.6z"/>
	<path id="XMLID_108_" class="st0" d="M231.7,280.4v27.9c0,2.6,5.3,4.6,11.8,4.6c6.5,0,11.8-2.1,11.8-4.6v-27.9H231.7z"/>
	<ellipse id="XMLID_107_" class="st0" cx="243.4" cy="280.4" rx="11.8" ry="6.6"/>
</g>
<ellipse id="XMLID_106_" class="st0" cx="427.8" cy="324.6" rx="34.9" ry="33"/>
<ellipse id="XMLID_105_" class="st0" cx="429" cy="324.2" rx="17.9" ry="17.1"/>
<ellipse id="XMLID_104_" class="st0" cx="429" cy="331.1" rx="14.6" ry="10.6"/>
<ellipse id="XMLID_103_" class="st0" cx="425" cy="202" rx="23.3" ry="19.3"/>
<line id="XMLID_102_" class="st0" x1="440.2" y1="209.3" x2="435.1" y2="214"/>
<polygon id="XMLID_101_" class="st0" points="434.9,214.1 416.9,215.3 407,202 415.1,187.6 433.1,186.4 443,199.7 "/>
<polygon id="XMLID_100_" class="st0" points="440.4,209.1 422.4,210.3 412.5,197 420.6,182.6 438.6,181.4 448.5,194.7 "/>
<line id="XMLID_99_" class="st0" x1="412.5" y1="197" x2="407" y2="202"/>
<line id="XMLID_98_" class="st0" x1="422.4" y1="210.3" x2="416.9" y2="215.3"/>
<line id="XMLID_97_" class="st0" x1="420.6" y1="182.6" x2="415.1" y2="187.6"/>
<rect id="XMLID_96_" x="106.8" y="157.5" class="st0" width="3.3" height="20.3"/>
<rect id="XMLID_95_" x="96.8" y="288.3" class="st0" width="3.3" height="20.3"/>
<rect id="XMLID_94_" x="236.7" y="159.7" class="st0" width="3.3" height="20.3"/>
<rect id="XMLID_93_" x="235" y="288.3" class="st0" width="3.3" height="20.3"/>
<path id="XMLID_92_" class="st2" d="M69.7,308c0,4.9,0,4.9,0,4.9C106,360.5,191,361.4,191,361.4S111.7,353.9,69.7,308z"/>
<polygon id="XMLID_91_" class="st3" points="294.3,206.8 411,188 443.6,215.2 443.6,324.2 282.6,296.7 "/>
<path id="XMLID_90_" class="st4" d="M372.8,229.8c-6.7-1.3-36.3,12.3-35.9,17.9c0.5,5.6,47,22.3,52.8,21.4
	C395.4,268.3,379.5,231.1,372.8,229.8z"/>
<path id="XMLID_89_" class="st5" d="M400.1,161.7c6.2,15.5-1,32.9-16,39L345.8,216c-15.1,6-32.3-1.6-38.5-17.1l0,0
	c-6.2-15.5,1-32.9,16-38.9l38.3-15.4C376.6,138.6,393.9,146.3,400.1,161.7L400.1,161.7z"/>
<path id="XMLID_88_" class="st6" d="M388.5,168.6c3.9,9.6-1.9,21-12.8,25.4l-27.8,11.2c-10.9,4.4-22.9,0.2-26.8-9.4l0,0
	c-3.9-9.6,1.9-21,12.8-25.3l27.8-11.2C372.6,154.7,384.6,159,388.5,168.6L388.5,168.6z"/>
<path id="XMLID_87_" class="st5" d="M384.5,176.2c2.7,6.8-2.9,15.3-12.4,19.2l-24.4,9.8c-9.6,3.8-19.5,1.5-22.3-5.3l0,0
	c-2.7-6.8,2.9-15.3,12.4-19.2l24.4-9.8C371.8,167.1,381.8,169.4,384.5,176.2L384.5,176.2z"/>
<rect id="XMLID_86_" x="302.6" y="286.4" transform="matrix(0.9617 0.2741 -0.2741 0.9617 96.5074 -85.2533)" class="st7" width="101.4" height="32.6"/>
<g id="XMLID_160_">
	<ellipse id="XMLID_85_" class="st8" cx="179.1" cy="250.5" rx="146.3" ry="142.5"/>
	<ellipse id="XMLID_84_" class="st6" cx="177.8" cy="237.4" rx="139.3" ry="129.3"/>
	<ellipse id="XMLID_83_" class="st8" cx="177.9" cy="242.2" rx="121.2" ry="108.3"/>
	<ellipse id="XMLID_82_" class="st9" cx="179.8" cy="247.7" rx="75.4" ry="68.6"/>
	<path id="XMLID_81_" class="st9" d="M157.4,210.6c0,0-7.9-25.6-3.6-30.9c4.3-5.3,56.9-6.3,60.5,1.5c2.8,6.1-8.2,29-8.2,29
		L157.4,210.6z"/>
	<path id="XMLID_80_" class="st9" d="M223.1,220.6c0,0,24.9-8.5,30.3-4.2c5.5,4.3,6.9,58.7,0.2,60.2c-6.7,1.4-30.1-7.3-30.1-7.3
		L223.1,220.6z"/>
	<path id="XMLID_79_" class="st9" d="M140.3,264.2c0,0-27.6,10.2-33,5.7c-5.4-4.5-2.5-56.9,4.3-58.1c6.8-1.2,29.8,3.7,29.8,3.7
		L140.3,264.2z"/>
	<path id="XMLID_78_" class="st9" d="M205.9,290.3c0,0,9.9,23.2,5.4,27.5c-4.5,4.4-66.4,2.4-67.5-3.3c-1.2-5.7,13.5-26.2,13.5-26.2
		L205.9,290.3z"/>
	<ellipse id="XMLID_77_" class="st6" cx="181.7" cy="250.9" rx="56.6" ry="51.2"/>
	<path id="XMLID_76_" class="st10" d="M77.5,181.5c0,0,30.9,34.7,60.4,15.3c23.7-13,5.6-52.4,0-52.9c-10.6,2.2-28.4,7.5-39.4,16.4
		C84.7,171.6,77.5,181.5,77.5,181.5z"/>
	<path id="XMLID_75_" class="st10" d="M233.5,147.8c0,0-35.6,24.6-9.8,48.5c23.1,21.4,55.4-13.3,55.4-13.3s-10-13.8-20.5-20.8
		C251.7,157.5,233.5,147.8,233.5,147.8z"/>
	<path id="XMLID_74_" class="st11" d="M229.9,144.8c0,0-35.7,23.9-9.8,47.9c23.1,21.4,55.8-14.1,55.8-14.1s-10.4-13-20.8-20
		C247.9,153.9,229.9,144.8,229.9,144.8z"/>
	<path id="XMLID_73_" class="st10" d="M236.9,334.8c0,0,9.6-6.3,22.7-18.2c13.1-11.9,21.6-25.4,21.6-25.4s-39.9-21.3-54-6.8
		C213,299,236.9,334.8,236.9,334.8z"/>
	<path id="XMLID_72_" class="st10" d="M95.6,315.8c6.4,7.4,18,14.1,18,14.1s29.7-22.1,22.2-37.7c-9-18.7-59.1,2.4-59.1,2.4
		S89.2,308.4,95.6,315.8z"/>
	<ellipse id="XMLID_71_" class="st5" cx="182.3" cy="249.9" rx="52.2" ry="47.7"/>
	<ellipse id="XMLID_70_" class="st8" cx="181.6" cy="251.3" rx="36.7" ry="31.2"/>
	<ellipse id="XMLID_69_" class="st12" cx="174.5" cy="220.1" rx="21.7" ry="18.9"/>
	<ellipse id="XMLID_68_" class="st8" cx="174.2" cy="217.4" rx="16.9" ry="16.2"/>
	<polygon id="XMLID_67_" class="st12" points="188.1,218.2 178.7,229.9 164.7,228.3 160,215 169.4,203.2 183.4,204.8 	"/>
	<polygon id="XMLID_66_" class="st5" points="183.5,217.9 177.4,225.6 168.2,224.5 165.1,215.8 171.3,208.1 180.5,209.1 	"/>
	<path id="XMLID_65_" class="st13" d="M234.4,152.3v27.9c0,2.6,5.3,4.6,11.8,4.6c6.5,0,11.8-2.1,11.8-4.6v-27.9H234.4z"/>
	<ellipse id="XMLID_64_" class="st5" cx="246.2" cy="152.3" rx="11.8" ry="6.6"/>
	<path id="XMLID_63_" class="st12" d="M77.5,181.5c0,0,31.8,31.4,61.3,12c23.7-13,5.2-53.1-0.5-53.7c-10.6,2.2-27.2,11.2-38.6,19.6
		C84.6,170.7,77.5,181.5,77.5,181.5z"/>
	<path id="XMLID_62_" class="st13" d="M104.5,149v27.9c0,2.6,5.3,4.6,11.8,4.6c6.5,0,11.8-2.1,11.8-4.6V149H104.5z"/>
	<ellipse id="XMLID_61_" class="st5" cx="116.2" cy="149" rx="11.8" ry="6.6"/>
	<path id="XMLID_60_" class="st11" d="M88.6,315.9c7.3,7.2,23.3,17.3,23.3,17.3s31.5-31.3,21.5-40.6c-16.5-15.6-61.1,2.9-61.1,2.9
		S78.8,306.3,88.6,315.9z"/>
	<path id="XMLID_59_" class="st13" d="M95,280.4v27.9c0,2.6,5.3,4.6,11.8,4.6c6.5,0,11.8-2.1,11.8-4.6v-27.9H95z"/>
	<ellipse id="XMLID_58_" class="st5" cx="106.8" cy="280.4" rx="11.8" ry="6.6"/>
	<path id="XMLID_57_" class="st12" d="M237.3,336.6c0,0,14-6.7,27.1-18.5c13.1-11.9,21.4-26.4,21.4-26.4s-41-21.7-55.1-7.1
		C216.6,299,237.3,336.6,237.3,336.6z"/>
	<path id="XMLID_56_" class="st13" d="M231.7,280.4v27.9c0,2.6,5.3,4.6,11.8,4.6c6.5,0,11.8-2.1,11.8-4.6v-27.9H231.7z"/>
	<ellipse id="XMLID_37_" class="st5" cx="243.4" cy="280.4" rx="11.8" ry="6.6"/>
</g>
<ellipse id="XMLID_36_" class="st12" cx="427.8" cy="324.6" rx="34.9" ry="33"/>
<ellipse id="XMLID_35_" class="st7" cx="429" cy="324.2" rx="17.9" ry="17.1"/>
<ellipse id="XMLID_34_" class="st12" cx="429" cy="331.1" rx="14.6" ry="10.6"/>
<ellipse id="XMLID_33_" class="st12" cx="425" cy="202" rx="23.3" ry="19.3"/>
<line id="XMLID_32_" class="st14" x1="440.2" y1="209.3" x2="435.1" y2="214"/>
<polygon id="XMLID_31_" class="st5" points="434.9,214.1 416.9,215.3 407,202 415.1,187.6 433.1,186.4 443,199.7 "/>
<polygon id="XMLID_30_" class="st12" points="440.4,209.1 422.4,210.3 412.5,197 420.6,182.6 438.6,181.4 448.5,194.7 "/>
<line id="XMLID_29_" class="st14" x1="412.5" y1="197" x2="407" y2="202"/>
<line id="XMLID_28_" class="st14" x1="422.4" y1="210.3" x2="416.9" y2="215.3"/>
<line id="XMLID_27_" class="st14" x1="420.6" y1="182.6" x2="415.1" y2="187.6"/>
<rect id="XMLID_26_" x="106.8" y="157.5" class="st15" width="3.3" height="20.3"/>
<rect id="XMLID_25_" x="96.8" y="288.3" class="st15" width="3.3" height="20.3"/>
<rect id="XMLID_24_" x="236.7" y="159.7" class="st15" width="3.3" height="20.3"/>
<rect id="XMLID_23_" x="235" y="288.3" class="st15" width="3.3" height="20.3"/>
<path id="XMLID_20_" class="st16" d="M69.7,308c0,4.9,0,4.9,0,4.9C106,360.5,191,361.4,191,361.4S111.7,353.9,69.7,308z"/>
</svg>
