<?xml version="1.0" encoding="utf-8"?>
<!-- Generator: Adobe Illustrator 19.0.0, SVG Export Plug-In . SVG Version: 6.00 Build 0)  -->
<svg version="1.1" id="Camada_1" xmlns="http://www.w3.org/2000/svg" xmlns:xlink="http://www.w3.org/1999/xlink" x="0px" y="0px"
	 viewBox="0 0 500 500" style="enable-background:new 0 0 500 500;" xml:space="preserve">
<style type="text/css">
	.st0{fill:#1A171B;stroke:#1A171B;stroke-width:7.8963;stroke-miterlimit:10;}
	.st1{opacity:0.53;fill:#1A171B;stroke:#1A171B;stroke-width:7.8963;stroke-miterlimit:10;}
	.st2{fill:url(#XMLID_35_);stroke:#1A171B;stroke-width:2.6321;stroke-miterlimit:10;}
	.st3{fill:url(#XMLID_36_);stroke:#1A171B;stroke-width:2.6321;stroke-miterlimit:10;}
	.st4{fill:url(#XMLID_37_);stroke:#1A171B;stroke-width:2.6321;stroke-miterlimit:10;}
	.st5{fill:url(#XMLID_56_);stroke:#1A171B;stroke-width:2.6321;stroke-miterlimit:10;}
	.st6{fill:#FFFFFF;stroke:#1A171B;stroke-width:2.6321;stroke-miterlimit:10;}
	.st7{opacity:0.53;fill:#FFFFFF;}
</style>
<path id="XMLID_33_" class="st0" d="M462.3,270.7c0,81.7-97.3,148-217.2,148c-120,0-217.2-66.2-217.2-148c0-81.7,97.2-148,217.2-148
	C365,122.8,462.3,189,462.3,270.7z"/>
<path id="XMLID_32_" class="st0" d="M460.9,254.8c0,81.7-96.4,148-215.4,148c-119,0-215.4-66.2-215.4-148c0-81.7,96.4-148,215.4-148
	C364.5,106.8,460.9,173.1,460.9,254.8z"/>
<path id="XMLID_31_" class="st0" d="M463.2,242c0,82.6-95.6,149.5-213.5,149.5c-117.9,0-213.5-66.9-213.5-149.5
	c0-82.6,95.6-149.5,213.5-149.5C367.7,92.5,463.2,159.5,463.2,242z"/>
<path id="XMLID_30_" class="st0" d="M348.4,235.2c0,34.7-45.2,62.8-101,62.8s-101-28.1-101-62.8c0-34.7,45.2-62.9,101-62.9
	S348.4,200.5,348.4,235.2z"/>
<path id="XMLID_29_" class="st0" d="M341.8,249c0,32.8-42.7,59.4-95.4,59.4c-52.7,0-95.4-26.6-95.4-59.4c0-32.8,42.7-59.4,95.4-59.4
	C299.1,189.6,341.8,216.1,341.8,249z"/>
<path id="XMLID_28_" class="st1" d="M185.2,348.8c-19.1-3.8-20.9,9.7-4.6,22c134,34.5,213.3-34.2,213.3-34.2
	S286.2,396.6,185.2,348.8z"/>
<linearGradient id="XMLID_35_" gradientUnits="userSpaceOnUse" x1="27.8164" y1="270.71" x2="462.2506" y2="270.71">
	<stop  offset="2.424240e-002" style="stop-color:#3D3D3F"/>
	<stop  offset="0.4788" style="stop-color:#9B9C9E"/>
	<stop  offset="0.8545" style="stop-color:#3D3D3F"/>
</linearGradient>
<path id="XMLID_27_" class="st2" d="M462.3,270.7c0,81.7-97.3,148-217.2,148c-120,0-217.2-66.2-217.2-148c0-81.7,97.2-148,217.2-148
	C365,122.8,462.3,189,462.3,270.7z"/>
<linearGradient id="XMLID_36_" gradientUnits="userSpaceOnUse" x1="30.1606" y1="254.7683" x2="460.9372" y2="254.7683">
	<stop  offset="0.1697" style="stop-color:#868789"/>
	<stop  offset="0.3939" style="stop-color:#3D3D3F"/>
	<stop  offset="0.6485" style="stop-color:#D8D9DA"/>
	<stop  offset="0.8545" style="stop-color:#3D3D3F"/>
</linearGradient>
<path id="XMLID_26_" class="st3" d="M460.9,254.8c0,81.7-96.4,148-215.4,148c-119,0-215.4-66.2-215.4-148c0-81.7,96.4-148,215.4-148
	C364.5,106.8,460.9,173.1,460.9,254.8z"/>
<linearGradient id="XMLID_37_" gradientUnits="userSpaceOnUse" x1="399.6265" y1="-46.7464" x2="17.0973" y2="690.2383">
	<stop  offset="0" style="stop-color:#FFFFFF"/>
	<stop  offset="0.1636" style="stop-color:#868789"/>
	<stop  offset="0.3939" style="stop-color:#D8D9DA"/>
	<stop  offset="0.7697" style="stop-color:#D8D9DA"/>
</linearGradient>
<path id="XMLID_25_" class="st4" d="M463.2,242c0,82.6-95.6,149.5-213.5,149.5c-117.9,0-213.5-66.9-213.5-149.5
	c0-82.6,95.6-149.5,213.5-149.5C367.7,92.5,463.2,159.5,463.2,242z"/>
<linearGradient id="XMLID_56_" gradientUnits="userSpaceOnUse" x1="146.4533" y1="235.2436" x2="348.4102" y2="235.2436">
	<stop  offset="0" style="stop-color:#FFFFFF"/>
	<stop  offset="0.1636" style="stop-color:#6F7072"/>
	<stop  offset="0.3273" style="stop-color:#D8D9DA"/>
	<stop  offset="0.7697" style="stop-color:#9B9C9E"/>
</linearGradient>
<path id="XMLID_24_" class="st5" d="M348.4,235.2c0,34.7-45.2,62.8-101,62.8s-101-28.1-101-62.8c0-34.7,45.2-62.9,101-62.9
	S348.4,200.5,348.4,235.2z"/>
<path id="XMLID_23_" class="st6" d="M341.8,249c0,32.8-42.7,59.4-95.4,59.4c-52.7,0-95.4-26.6-95.4-59.4c0-32.8,42.7-59.4,95.4-59.4
	C299.1,189.6,341.8,216.1,341.8,249z"/>
<path id="XMLID_20_" class="st7" d="M185.2,348.8c-19.1-3.8-20.9,9.7-4.6,22c134,34.5,213.3-34.2,213.3-34.2
	S286.2,396.6,185.2,348.8z"/>
</svg>
