<?xml version="1.0" encoding="utf-8"?>
<!-- Generator: Adobe Illustrator 19.0.0, SVG Export Plug-In . SVG Version: 6.00 Build 0)  -->
<svg version="1.1" id="Camada_1" xmlns="http://www.w3.org/2000/svg" xmlns:xlink="http://www.w3.org/1999/xlink" x="0px" y="0px"
	 viewBox="0 0 500 500" style="enable-background:new 0 0 500 500;" xml:space="preserve">
<style type="text/css">
	.st0{fill:#1D1D1B;stroke:#1D1D1B;stroke-width:5.5496;stroke-linejoin:round;stroke-miterlimit:10;}
	.st1{fill:#DCCFB7;stroke:#1D1D1B;stroke-width:1.8499;stroke-linejoin:round;stroke-miterlimit:10;}
	.st2{fill:#D0B794;stroke:#1D1D1B;stroke-width:1.8499;stroke-linejoin:round;stroke-miterlimit:10;}
	.st3{fill:#D8C9B3;stroke:#1D1D1B;stroke-width:1.8499;stroke-linejoin:round;stroke-miterlimit:10;}
	.st4{fill:#C5A98F;stroke:#1D1D1B;stroke-width:1.8499;stroke-linejoin:round;stroke-miterlimit:10;}
	.st5{fill:#FFFFFF;stroke:#1D1D1B;stroke-width:1.8499;stroke-linejoin:round;stroke-miterlimit:10;}
</style>
<g id="XMLID_29_">
	<path id="XMLID_27_" class="st0" d="M261.6,109.1c-3.5-0.1-7.1-0.1-10.6-0.1c-0.1,0-0.2,0-0.2,0c-0.1,0-0.2,0-0.2,0
		C129,109,30.6,157.2,30.6,216.6c0,17,8.1,33.1,22.5,47.5c0,0,0,0,0,0c0,59.5,87.7,107.7,195.9,107.7
		c106.4,0,192.9-46.6,195.7-104.7c16.3-15,25.6-32.2,25.6-50.4C470.3,159,377.8,111.9,261.6,109.1z"/>
	<path id="XMLID_26_" class="st1" d="M53.1,264.1C53.1,264.1,53.1,264.1,53.1,264.1c0,59.5,87.7,107.7,195.9,107.7
		c106.4,0,192.9-46.6,195.7-104.7c-36.9,34-110,57.2-194.2,57.2C163.8,324.3,88.9,299.8,53.1,264.1z"/>
	<path id="XMLID_25_" class="st2" d="M250.4,109C129,109,30.6,157.2,30.6,216.6c0,17,8.1,33.1,22.5,47.5
		c35.8,35.7,110.7,60.2,197.3,60.2c84.2,0,157.3-23.2,194.2-57.2c16.3-15,25.6-32.2,25.6-50.4C470.3,157.2,371.9,109,250.4,109z"/>
	<path id="XMLID_24_" class="st3" d="M250.9,109c-110.7,0-200.5,43.4-200.5,97c0,15.3,7.4,29.9,20.5,42.8
		c32.7,32.1,101,54.3,180,54.3c76.8,0,143.5-20.9,177.1-51.6c14.9-13.6,23.4-29,23.4-45.4C451.4,152.4,361.7,109,250.9,109z"/>
	<path id="XMLID_23_" class="st4" d="M250.4,186.1c70.5,0,128.9,21.7,139.3,50c8.9-8.8,13.9-18.6,13.9-28.9
		c0-38.4-68.6-69.5-153.2-69.5c-84.6,0-153.2,31.1-153.2,69.5c0,10.3,5,20.1,13.9,28.9C121.6,207.8,180,186.1,250.4,186.1z"/>
	<path id="XMLID_20_" class="st5" d="M250.4,276.7c61.9,0,115.1-16.7,139.3-40.6c-10.4-28.3-68.8-50-139.3-50
		c-70.5,0-128.9,21.7-139.3,50C135.3,260,188.6,276.7,250.4,276.7z"/>
</g>
</svg>
