<?xml version="1.0" encoding="utf-8"?>
<!-- Generator: Adobe Illustrator 19.0.0, SVG Export Plug-In . SVG Version: 6.00 Build 0)  -->
<svg version="1.1" id="Camada_1" xmlns="http://www.w3.org/2000/svg" xmlns:xlink="http://www.w3.org/1999/xlink" x="0px" y="0px"
	 viewBox="0 0 500 500" style="enable-background:new 0 0 500 500;" xml:space="preserve">
<style type="text/css">
	.st0{fill:#1A171B;stroke:#1A171B;stroke-width:7.7405;stroke-miterlimit:10;}
	.st1{opacity:0.39;fill:#1A171B;stroke:#1A171B;stroke-width:7.7405;stroke-miterlimit:10;}
	.st2{opacity:0.4;fill:#1A171B;stroke:#1A171B;stroke-width:7.7405;stroke-miterlimit:10;}
	.st3{fill:#58585A;stroke:#1A171B;stroke-width:1.9351;stroke-miterlimit:10;}
	.st4{fill:#6F7072;stroke:#1A171B;stroke-width:1.9351;stroke-miterlimit:10;}
	.st5{fill:url(#XMLID_59_);stroke:#1A171B;stroke-width:1.9351;stroke-miterlimit:10;}
	.st6{fill:url(#XMLID_60_);stroke:#1A171B;stroke-width:3.8702;stroke-miterlimit:10;}
	.st7{fill:none;stroke:#1A171B;stroke-width:1.9351;stroke-miterlimit:10;}
	.st8{opacity:0.39;fill:#D8D9DA;}
	.st9{opacity:0.4;fill:#D8D9DA;}
</style>
<path id="XMLID_57_" class="st0" d="M387.8,331.2c0,58.5-62.4,96.8-142.4,96.8c-80,0-147.3-38.3-147.3-96.8c0-9.6,0.3-23.5,2.4-34.1
	c9.2-47.1,75.6-71.7,142.4-71.7c67.1,0,123.1,21.9,139.6,67.2C385.8,301.2,387.8,321.7,387.8,331.2z"/>
<path id="XMLID_56_" class="st0" d="M385.4,304.2c4.7,54.9-59.8,102.3-137.7,102.3S99,364.2,99,309.1c0-55.1,63.1-99.8,141-99.8
	S380.4,246.1,385.4,304.2z"/>
<path id="XMLID_37_" class="st0" d="M382.6,295.1c0,47.4-55.7,85.9-141,85.9c-77.9,0-141-38.4-141-85.9c0-47.4,63.1-85.9,141-85.9
	S382.6,247.7,382.6,295.1z"/>
<ellipse id="XMLID_36_" class="st0" cx="247.5" cy="190" rx="110.3" ry="109.7"/>
<path id="XMLID_35_" class="st0" d="M359,191c0,60.6-50.6,78.5-111.5,78.5c-60.2,0-110-16.7-111.2-76.3l-10.8,12.5v67.9l65.3,77.2
	l119.6-0.3l56.7-76.5l2.8-73.5C369.9,200.4,359,190.4,359,191z"/>
<line id="XMLID_34_" class="st0" x1="199.8" y1="264.6" x2="190.8" y2="350.7"/>
<line id="XMLID_33_" class="st0" x1="310.4" y1="350.4" x2="300.4" y2="263.1"/>
<path id="XMLID_32_" class="st1" d="M140.9,367.4c0,0,50.2,36.3,103.4,33.9c10.1-0.4,57-24.5,28.3-16.5
	C205.9,403.6,140.9,367.4,140.9,367.4z"/>
<path id="XMLID_31_" class="st2" d="M183.7,268.5c-6.9,8.6-19.4-12.1-19.4,0c0,12.1,17.4,2.9,15.5,15.5s23.2,1.5,13.1-2.9
	C182.7,276.8,190.6,259.9,183.7,268.5z"/>
<path id="XMLID_30_" class="st3" d="M387.8,331.2c0,58.5-62.4,96.8-142.4,96.8c-80,0-147.3-38.3-147.3-96.8c0-9.6,0.3-23.5,2.4-34.1
	c9.2-47.1,75.6-71.7,142.4-71.7c67.1,0,123.1,21.9,139.6,67.2C385.8,301.2,387.8,321.7,387.8,331.2z"/>
<path id="XMLID_29_" class="st4" d="M385.4,304.2c4.7,54.9-59.8,102.3-137.7,102.3S99,364.2,99,309.1c0-55.1,63.1-99.8,141-99.8
	S380.4,246.1,385.4,304.2z"/>
<path id="XMLID_28_" class="st3" d="M382.6,295.1c0,47.4-55.7,85.9-141,85.9c-77.9,0-141-38.4-141-85.9c0-47.4,63.1-85.9,141-85.9
	S382.6,247.7,382.6,295.1z"/>
<radialGradient id="XMLID_59_" cx="223.6211" cy="97.1559" r="352.5132" gradientUnits="userSpaceOnUse">
	<stop  offset="0.1394" style="stop-color:#6F7072"/>
	<stop  offset="0.2424" style="stop-color:#49494B"/>
	<stop  offset="0.503" style="stop-color:#1A171B"/>
	<stop  offset="1" style="stop-color:#3D3D3F"/>
</radialGradient>
<ellipse id="XMLID_27_" class="st5" cx="247.5" cy="190" rx="110.3" ry="109.7"/>
<linearGradient id="XMLID_60_" gradientUnits="userSpaceOnUse" x1="132.0261" y1="270.8634" x2="432.6149" y2="270.8634">
	<stop  offset="0.1091" style="stop-color:#3D3D3F"/>
	<stop  offset="0.2303" style="stop-color:#9B9C9E"/>
	<stop  offset="0.3697" style="stop-color:#9B9C9E"/>
	<stop  offset="0.5515" style="stop-color:#3D3D3F"/>
	<stop  offset="0.7273" style="stop-color:#C5C6C8"/>
	<stop  offset="0.8848" style="stop-color:#3D3D3F"/>
</linearGradient>
<path id="XMLID_26_" class="st6" d="M359,191c0,60.6-50.6,78.5-111.5,78.5c-60.2,0-110-16.7-111.2-76.3l-10.8,12.5v67.9l65.3,77.2
	l119.6-0.3l56.7-76.5l2.8-73.5C369.9,200.4,359,190.4,359,191z"/>
<line id="XMLID_25_" class="st7" x1="199.8" y1="264.6" x2="190.8" y2="350.7"/>
<line id="XMLID_24_" class="st7" x1="310.4" y1="350.4" x2="300.4" y2="263.1"/>
<path id="XMLID_23_" class="st8" d="M140.9,367.4c0,0,50.2,36.3,103.4,33.9c10.1-0.4,57-24.5,28.3-16.5
	C205.9,403.6,140.9,367.4,140.9,367.4z"/>
<path id="XMLID_20_" class="st9" d="M183.7,268.5c-6.9,8.6-19.4-12.1-19.4,0c0,12.1,17.4,2.9,15.5,15.5s23.2,1.5,13.1-2.9
	C182.7,276.8,190.6,259.9,183.7,268.5z"/>
</svg>
