<?xml version="1.0" encoding="utf-8"?>
<!-- Generator: Adobe Illustrator 19.0.0, SVG Export Plug-In . SVG Version: 6.00 Build 0)  -->
<svg version="1.1" id="Camada_1" xmlns="http://www.w3.org/2000/svg" xmlns:xlink="http://www.w3.org/1999/xlink" x="0px" y="0px"
	 viewBox="0 0 500 500" style="enable-background:new 0 0 500 500;" xml:space="preserve">
<style type="text/css">
	.st0{fill:none;stroke:#9B9C9E;stroke-width:1.2128;stroke-miterlimit:10;}
	.st1{fill:#1A171B;stroke:#1A171B;stroke-width:3.6384;stroke-miterlimit:10;}
	.st2{fill:#1A171B;stroke:#1A171B;stroke-width:3.6384;stroke-linejoin:round;stroke-miterlimit:10;}
	.st3{fill:#C7BEC9;stroke:#1A171B;stroke-width:1.2128;stroke-miterlimit:10;}
	.st4{fill:#FFFFFF;stroke:#1A171B;stroke-width:1.2128;stroke-miterlimit:10;}
	.st5{fill:none;stroke:#1A171B;stroke-width:1.2128;stroke-miterlimit:10;}
	.st6{fill:#3D3D3F;stroke:#1A171B;stroke-width:1.2128;stroke-linejoin:round;stroke-miterlimit:10;}
</style>
<line id="XMLID_60_" class="st0" x1="185.8" y1="89.4" x2="186.5" y2="89.4"/>
<g id="XMLID_62_">
	<path id="XMLID_59_" class="st1" d="M75.9,108.6c-4.1-8.9,20.6-25.8,27.8-21.7c18.5,15.8,72.2,41,80.7,45.1
		c11.1,5.4,106.8,2.9,118.8,2.1c30.2-2.1,85.8-57,92-57c6.2,0,28.7,23.2,26.1,27.5c-2.6,4.3-46.7,65.2-49.4,81
		c-2.7,15.8,2,117.5,4.1,126.4c5.5,22.7,50.8,69.4,55.6,77.6c4.8,8.2-17.6,38.7-27.5,33.6c-17.4-13.8-91.1-50.5-100.9-51.5
		c-9.9-1-95.6-5-105.1,1.4c-9.5,6.4-70.6,42.1-82.8,56.1c-7,7.3-40.5-19.9-34.6-27.3c8.7-10.3,58.6-66,58.4-81.7
		c-0.3-15.8,2.8-103.7-2.1-121.6C132.2,180.8,88.2,118.9,75.9,108.6z"/>
	<circle id="XMLID_58_" class="st1" cx="253.8" cy="251.9" r="32.3"/>
	<line id="XMLID_57_" class="st1" x1="253.8" y1="219.6" x2="253.8" y2="166.6"/>
	<line id="XMLID_56_" class="st1" x1="284.5" y1="248" x2="344" y2="248.1"/>
	<line id="XMLID_37_" class="st1" x1="253.8" y1="283.7" x2="253.8" y2="339.3"/>
	<line id="XMLID_36_" class="st1" x1="221.8" y1="248.1" x2="176.1" y2="248.1"/>
	<path id="XMLID_35_" class="st2" d="M99.6,86.4c-11.9,0-26.6,17.5-24.6,20.8c2.6,4.2,4.3,4.6,4.3,4.6L107,90.3
		C107,90.3,102.6,85.9,99.6,86.4z"/>
	<path id="XMLID_34_" class="st2" d="M113.8,430.4c-9.6-0.6-16.9-5.6-22.5-11c-6.7-6.4-10.8-13.3-10.7-15.6c0.2-4,6.4-8.2,6.4-8.2
		l32.8,29.3C119.7,424.9,115.1,430.5,113.8,430.4z"/>
	<path id="XMLID_33_" class="st2" d="M406.7,423.9c9.3-2.6,14.3-8.9,18.7-15.3c5.2-7.7,7.6-15.5,6.9-17.7c-1.2-3.5-5.8-8-5.8-8
		l-27.6,36.5C398.9,419.4,405.9,424.1,406.7,423.9z"/>
	<path id="XMLID_32_" class="st2" d="M421.5,103.4c-3.6-10.4-23.7-28.5-27.9-25.8c-3.7,2.4-5.8,3.9-5.8,3.9l30,28.1
		C417.8,109.7,421.7,104,421.5,103.4z"/>
	<path id="XMLID_31_" class="st3" d="M75.9,108.6c-4.1-8.9,20.6-25.8,27.8-21.7c18.5,15.8,72.2,41,80.7,45.1
		c11.1,5.4,106.8,2.9,118.8,2.1c30.2-2.1,85.8-57,92-57c6.2,0,28.7,23.2,26.1,27.5c-2.6,4.3-46.7,65.2-49.4,81
		c-2.7,15.8,2,117.5,4.1,126.4c5.5,22.7,50.8,69.4,55.6,77.6c4.8,8.2-17.6,38.7-27.5,33.6c-17.4-13.8-91.1-50.5-100.9-51.5
		c-9.9-1-95.6-5-105.1,1.4c-9.5,6.4-70.6,42.1-82.8,56.1c-7,7.3-40.5-19.9-34.6-27.3c8.7-10.3,58.6-66,58.4-81.7
		c-0.3-15.8,2.8-103.7-2.1-121.6C132.2,180.8,88.2,118.9,75.9,108.6z"/>
	<circle id="XMLID_30_" class="st4" cx="253.8" cy="251.9" r="32.3"/>
	<line id="XMLID_29_" class="st5" x1="253.8" y1="219.6" x2="253.8" y2="166.6"/>
	<line id="XMLID_28_" class="st5" x1="286.1" y1="248" x2="344" y2="248.1"/>
	<line id="XMLID_27_" class="st5" x1="253.8" y1="283.7" x2="253.8" y2="339.3"/>
	<line id="XMLID_26_" class="st5" x1="221.8" y1="248.1" x2="176.1" y2="248.1"/>
	<path id="XMLID_25_" class="st6" d="M99.6,86.4c-11.9,0-26.6,17.5-24.6,20.8c2.6,4.2,4.3,4.6,4.3,4.6L107,90.3
		C107,90.3,102.6,85.9,99.6,86.4z"/>
	<path id="XMLID_24_" class="st6" d="M113.8,430.4c-9.6-0.6-16.9-5.6-22.5-11c-6.7-6.4-10.8-13.3-10.7-15.6c0.2-4,6.4-8.2,6.4-8.2
		l32.8,29.3C119.7,424.9,115.1,430.5,113.8,430.4z"/>
	<path id="XMLID_23_" class="st6" d="M406.7,423.9c9.3-2.6,14.3-8.9,18.7-15.3c5.2-7.7,7.6-15.5,6.9-17.7c-1.2-3.5-5.8-8-5.8-8
		l-27.6,36.5C398.9,419.4,405.9,424.1,406.7,423.9z"/>
	<path id="XMLID_20_" class="st6" d="M421.5,103.4c-3.6-10.4-23.7-28.5-27.9-25.8c-3.7,2.4-5.8,3.9-5.8,3.9l30,28.1
		C417.8,109.7,421.7,104,421.5,103.4z"/>
</g>
</svg>
