<?xml version="1.0" encoding="utf-8"?>
<!-- Generator: Adobe Illustrator 19.0.0, SVG Export Plug-In . SVG Version: 6.00 Build 0)  -->
<svg version="1.1" id="Camada_1" xmlns="http://www.w3.org/2000/svg" xmlns:xlink="http://www.w3.org/1999/xlink" x="0px" y="0px"
	 viewBox="0 0 500 500" style="enable-background:new 0 0 500 500;" xml:space="preserve">
<style type="text/css">
	.st0{fill:#1A171B;stroke:#1A171B;stroke-width:9.0251;stroke-miterlimit:10;}
	.st1{fill:#1A171B;stroke:#1A171B;stroke-width:9.0251;stroke-linejoin:round;stroke-miterlimit:10;}
	.st2{opacity:0.33;fill:#1A171B;stroke:#1A171B;stroke-width:9.0251;stroke-miterlimit:10;}
	.st3{opacity:0.56;fill:#1A171B;stroke:#1A171B;stroke-width:9.0251;stroke-miterlimit:10;}
	.st4{fill:#B0B2B3;stroke:#1A171B;stroke-width:1.5042;stroke-miterlimit:10;}
	.st5{fill:none;stroke:#E1001A;stroke-width:1.5042;stroke-linejoin:round;stroke-miterlimit:10;}
	.st6{fill:#3D3D3F;stroke:#1A171B;stroke-width:1.5042;stroke-linejoin:round;stroke-miterlimit:10;}
	.st7{fill:url(#XMLID_111_);stroke:#1A171B;stroke-width:1.5042;stroke-miterlimit:10;}
	.st8{fill:url(#XMLID_112_);stroke:#1A171B;stroke-width:1.5042;stroke-miterlimit:10;}
	.st9{fill:url(#XMLID_113_);stroke:#1A171B;stroke-width:1.5042;stroke-miterlimit:10;}
	.st10{fill:url(#XMLID_114_);stroke:#1A171B;stroke-width:1.5042;stroke-miterlimit:10;}
	.st11{fill:#FFFFFF;stroke:#1A171B;stroke-width:1.5042;stroke-miterlimit:10;}
	.st12{fill:url(#XMLID_115_);stroke:#1A171B;stroke-width:1.5042;stroke-linejoin:round;stroke-miterlimit:10;}
	.st13{fill:url(#XMLID_116_);stroke:#1A171B;stroke-width:1.5042;stroke-linejoin:round;stroke-miterlimit:10;}
	.st14{fill:url(#XMLID_117_);stroke:#1A171B;stroke-width:1.5042;stroke-linejoin:round;stroke-miterlimit:10;}
	.st15{fill:url(#XMLID_118_);stroke:#1A171B;stroke-width:1.5042;stroke-miterlimit:10;}
	.st16{fill:url(#XMLID_119_);stroke:#1A171B;stroke-width:1.5042;stroke-miterlimit:10;}
	.st17{fill:url(#XMLID_120_);stroke:#1A171B;stroke-width:1.5042;stroke-linejoin:round;stroke-miterlimit:10;}
	.st18{fill:url(#XMLID_121_);stroke:#1A171B;stroke-width:1.5042;stroke-linejoin:round;stroke-miterlimit:10;}
	.st19{fill:url(#XMLID_122_);stroke:#1A171B;stroke-width:1.5042;stroke-linejoin:round;stroke-miterlimit:10;}
	.st20{fill:url(#XMLID_123_);stroke:#1A171B;stroke-width:1.5042;stroke-linejoin:round;stroke-miterlimit:10;}
	.st21{fill:url(#XMLID_124_);stroke:#1A171B;stroke-width:1.5042;stroke-linejoin:round;stroke-miterlimit:10;}
	.st22{fill:url(#XMLID_125_);stroke:#1A171B;stroke-width:1.5042;stroke-linejoin:round;stroke-miterlimit:10;}
	.st23{fill:url(#XMLID_126_);stroke:#1A171B;stroke-width:1.5042;stroke-linejoin:round;stroke-miterlimit:10;}
	.st24{fill:url(#XMLID_127_);stroke:#1A171B;stroke-width:1.5042;stroke-linejoin:round;stroke-miterlimit:10;}
	.st25{fill:url(#XMLID_128_);stroke:#1A171B;stroke-width:1.5042;stroke-linejoin:round;stroke-miterlimit:10;}
	.st26{fill:url(#XMLID_129_);stroke:#1A171B;stroke-width:1.5042;stroke-linejoin:round;stroke-miterlimit:10;}
	.st27{fill:url(#XMLID_130_);stroke:#1A171B;stroke-width:1.5042;stroke-linejoin:round;stroke-miterlimit:10;}
	.st28{fill:url(#XMLID_131_);stroke:#1A171B;stroke-width:1.5042;stroke-linejoin:round;stroke-miterlimit:10;}
	.st29{opacity:0.33;fill:#D8D9DA;}
	.st30{opacity:0.56;fill:#D8D9DA;}
	.st31{fill:url(#XMLID_132_);stroke:#1A171B;stroke-width:1.5042;stroke-linejoin:round;stroke-miterlimit:10;}
	.st32{opacity:0.44;fill:url(#XMLID_133_);}
</style>
<path id="XMLID_109_" class="st0" d="M416.6,355.1c-0.8,1.3-125.6,67.5-141.6,68.8c-8.1,1.7-163.8-45-170.7-58
	c-0.8-7.5-14.8-139.5-14.8-139.5l2.4-17.5L87.7,183c0,0-3.4-25.2,1.6-32.8c4.6-6.9,44.7-27.2,53.1-31.5c7.9-4,23,25.2,23,25.2
	l18.6-7.6c0,0-0.7-19.2,2.2-38.9c2.9-19.7,101.7-15.8,104.5-5.6c0.8,3.1-3.2,16.9,1.7,35.5l23.6,6c0,0,8.8-40.2,28.4-28.9
	c7.5,4.3,34.2,15.5,45.1,24.8c11.9,10.1,9.9,22.2,9.4,25.7l4.1,28.5l1.5,7.9c15.9,2.3,17.3,62.8,17.3,62.8S417.4,353.8,416.6,355.1z
	"/>
<line id="XMLID_108_" class="st1" x1="345.6" y1="177.3" x2="400.9" y2="168.7"/>
<line id="XMLID_107_" class="st1" x1="344.8" y1="193.6" x2="403.2" y2="184.2"/>
<polygon id="XMLID_106_" class="st1" points="366.1,319.8 331.3,336.8 328,297.9 283.1,340.4 269.3,340.1 208.7,308.2 208.7,347.2 
	162.4,334.8 157.6,293.8 142.4,236.1 165,142.9 243.3,108.8 366.1,150.2 360.8,285.4 "/>
<path id="XMLID_105_" class="st0" d="M358.8,200.8c0,19.5-47.5,35.3-106.1,35.3c-58.6,0-106.1-15.8-106.1-35.3
	c0-19.5,47.5-35.3,106.1-35.3C311.3,165.6,358.8,181.4,358.8,200.8z"/>
<path id="XMLID_104_" class="st0" d="M358.8,218.7c0,19.5-47.5,35.3-106.1,35.3c-58.6,0-106.1-15.8-106.1-35.3
	c0-19.5,47.5-35.3,106.1-35.3C311.3,183.4,358.8,199.2,358.8,218.7z"/>
<path id="XMLID_103_" class="st0" d="M364.9,236.1c0,21.2-47.5,38.4-106.1,38.4c-58.6,0-106.1-17.2-106.1-38.4
	c0-21.2,47.5-38.4,106.1-38.4C317.4,197.8,364.9,214.9,364.9,236.1z"/>
<path id="XMLID_102_" class="st0" d="M356.2,242.3c0.6,17.3-39.7,34.9-96.3,36c-56.6,1.1-103-12-103.6-29.3
	c-0.6-17.3,44.8-32.3,101.4-33.4C314.3,214.5,355.6,225,356.2,242.3z"/>
<path id="XMLID_101_" class="st0" d="M341.7,261.4c0,19.8-39.6,36.5-87.2,36.5s-86.3-16-86.3-35.8c0-19.8,38.6-35.8,86.3-35.8
	S341.7,241.6,341.7,261.4z"/>
<path id="XMLID_100_" class="st1" d="M399,154.9c0,0-52.5-0.1-64.9,14.7c-2.9-0.3-24-21.9-24-21.9s4.1-8.1,5.9-14.4
	c12.6-42.5,26.5-29.3,26.9-29.9c1.5,1,47.3,22.5,51.1,30.4C400.1,143.3,399,154.9,399,154.9z"/>
<path id="XMLID_99_" class="st1" d="M399,154.7c0,0-39,2.8-46.9-2.1c-4.7-2.9-12.7-12.8-17.1-17c-4.9-4.7-10.8-3.4-13.9-6.8
	c-4.3-4.7,7.7-32.7,21.6-25.5c3.4,2.7,10.8,5.4,18.2,9.1c14.1,7.2,30.3,16.1,32.9,21.3c2.4,3.7,3.8,8.3,4.5,11.8
	C399.5,151,399,154.7,399,154.7z"/>
<path id="XMLID_98_" class="st1" d="M313.4,151.1c0,0-9.5,9.3-1.4,17.1c1,1.6-8.2,7.4-1.9,13.5c2.4,2.6,22.1,20.6,24.2,22.2
	c2.1,1.6,17.4-0.1,17.4-0.1s4.6-6.1,8.5-7.8c2.9-1.3,44.4-4.7,44.4-4.7l-5.5-36.6c0,0-48.3-0.8-65,14.8
	C331.9,169.1,313.4,151.1,313.4,151.1z"/>
<path id="XMLID_97_" class="st1" d="M338.2,180.9c3.1,0.6,7.4-3.5,7.4-3.5l-11.6-7.8l-20.7-18.5c0,0-3.7,3.4-0.8,6.4
	c2.9,3,13.6,13.4,13.6,13.4S335.2,180.2,338.2,180.9z"/>
<path id="XMLID_96_" class="st1" d="M337.2,197.8c3.1,0.6,8.4-4.2,8.4-4.2s-8.9-2.1-13-5.8c-4.2-3.7-20.6-19.6-20.6-19.6
	s-2.8,4.9-0.8,7.5c2.6,3.3,13.1,12.3,13.1,12.3S334.2,197.1,337.2,197.8z"/>
<path id="XMLID_95_" class="st0" d="M267.1,171.3c-10.7-1.6-26.1,0-26.1,0h-24.7c0,0-33.8-15.5-32.5-23.6c0.4-5.3-1-48.6,2.3-53
	c1.1-1.5,21.2-11.2,52.1-11.5c30.7-0.2,51.9,6,52.3,8.6c1.1,6,0.1,52.4,0.9,57.5C292.5,152.8,267.1,171.3,267.1,171.3z"/>
<path id="XMLID_94_" class="st0" d="M270.1,112.4c0,0-11.3,1.5-27.4,2.2c-15.3,0.6-34.4-1-34.4-1s-23.4-10.7-22.1-18.8
	c17.2-17.3,100.3-14.2,104.4-2.9C291.6,95.3,270.1,112.4,270.1,112.4z"/>
<path id="XMLID_93_" class="st1" d="M209.7,150.3c-0.7,1.2,6.7,21,6.7,21h50.8l5.4-23c-6,2.4-15,2.6-32.9,3.1
	C227.7,151.8,219,150.9,209.7,150.3z"/>
<path id="XMLID_92_" class="st1" d="M209.7,131.1c-0.7,1.2,6.7,21,6.7,21h50.8l5.4-23c-6,2.4-15,2.6-32.9,3.1
	C227.7,132.6,219,131.6,209.7,131.1z"/>
<path id="XMLID_91_" class="st1" d="M208.3,113.5c-0.7,1.2,6.7,21,6.7,21h50.8l5.4-23c-6,2.4-15,2.6-32.9,3.1
	C226.3,115,217.5,114.1,208.3,113.5z"/>
<polygon id="XMLID_90_" class="st1" points="233.4,265 296.4,263.3 328,297.9 283.1,340.4 269.5,340.4 208.7,308.2 "/>
<path id="XMLID_89_" class="st1" d="M233.4,265l63-1.7l21.2,23.2c0,0,0,17.5-45.1,18.7c-52.3,1.4-52.3-17-52.3-17L233.4,265z"/>
<path id="XMLID_88_" class="st1" d="M86.5,171.3c0,0,50.2-0.2,62.6,14.7c3.4-3,24-21.9,24-21.9s-4.1-8.1-5.9-14.4
	c-12.6-42.5-26.5-29.3-26.9-29.9c-1.5,1-47.3,22.5-51.1,30.4C85.6,159.6,86.5,171.3,86.5,171.3z"/>
<path id="XMLID_87_" class="st1" d="M86.5,171.3c0,0,36.7,2.7,44.5-2.3c4.7-2.9,12.7-12.8,17.1-17c4.9-4.7,10.8-3.4,13.9-6.8
	c4.3-4.7-7.3-33.9-22.5-25.5c-5,2.8-9.8,4.6-17.3,9.2c-13.5,8.3-30.3,16.1-32.9,21.3c-2.4,3.7-2.4,8-2.7,11.6
	C86.1,166.5,86.5,171.3,86.5,171.3z"/>
<path id="XMLID_86_" class="st1" d="M169.8,167.5c0,0,9.5,9.3,1.4,17.1c-1,1.6,8.2,7.4,1.9,13.5c-2.4,2.6-23.3,21.5-27.4,22.8
	c-2.5,0.8-12.2-1.5-12.2-1.5s-7.6-5.6-10.5-6.9s-31.2-3.6-31.2-3.6l-5.3-37.5c0,0,45.9-1,62.6,14.7
	C151.3,185.5,169.8,167.5,169.8,167.5z"/>
<path id="XMLID_85_" class="st1" d="M145,197.3c-3.1,0.6-7.4-3.5-7.4-3.5l11.6-7.8l20.7-18.5c0,0,3.7,3.4,0.8,6.4
	c-2.9,3-13.6,13.4-13.6,13.4S148,196.6,145,197.3z"/>
<path id="XMLID_84_" class="st1" d="M145.9,214.2c-3.1,0.6-8.4-4.2-8.4-4.2s8.9-2.1,13-5.8c4.2-3.7,20.6-19.6,20.6-19.6
	s2.8,4.9,0.8,7.5c-2.6,3.3-13.1,12.3-13.1,12.3S149,213.5,145.9,214.2z"/>
<path id="XMLID_83_" class="st1" d="M123.4,209.1c6.1,1.2,23.7,12,23.7,12s22.2,16.1,24.4,19.4c2.2,3.3-6,38.5-7,45.2
	c-1,6.6-3.3,8.2-3.3,8.2l-62-10.3c0,0-2.9-25.8-4.3-40.6c-0.2-3.3-1.8-16.5-1.8-16.5s2.2-15.5,2.4-17.5
	C95.4,208.9,103.6,206,123.4,209.1z"/>
<path id="XMLID_82_" class="st1" d="M119.8,208.1c6.1,1.2,25.1,11.2,25.1,11.2l24.6,19.1l-8.6,46.3l-3.3,8.2l-62-10.3
	c0,0-2.9-25.8-4.3-40.6c-0.2-3.3-1.8-16.5-1.8-16.5s2.2-15.5,2.4-17.5C91.9,207.9,100,205,119.8,208.1z"/>
<polygon id="XMLID_81_" class="st1" points="89.5,226.4 95.6,283.5 157.6,293.8 160.9,284.6 "/>
<path id="XMLID_80_" class="st1" d="M350.7,205.5c-10.5,4.3-17.7,20-17.7,20s-4.8,8.3-4.8,12c0,3.6,32.6,47.9,32.6,47.9l61-21.7
	c0,0-2.6-33.9-7.5-48.1c-1.3-3.1-5.5-13.6-10.7-14.6c-3.2-0.6-11.6,0.6-11.6,0.6S359.1,203.9,350.7,205.5z"/>
<path id="XMLID_79_" class="st1" d="M350.7,196c-10.5,4.3-17.7,20-17.7,20s-3.3,11.6-3.9,14c-0.7,2.4,31.8,45.8,31.8,45.8l61-21.7
	c0,0-2.6-33.9-7.5-48.1c-1.3-3.1-5.5-13.6-10.7-14.6c-3.2-0.6-11.6,0.6-11.6,0.6S359.1,194.3,350.7,196z"/>
<path id="XMLID_78_" class="st1" d="M412.6,202.1c-3.2,4.5-51.8,73.7-51.8,73.7l61-21.7C421.8,254.2,418.6,211.2,412.6,202.1z"/>
<polygon id="XMLID_77_" class="st2" points="280.9,418.2 276.2,422.6 271.7,420.7 272.6,341.8 280.6,341.8 "/>
<rect id="XMLID_76_" x="101.3" y="286.8" transform="matrix(0.9953 -9.659102e-002 9.659102e-002 0.9953 -30.9833 11.4239)" class="st3" width="2.3" height="77.9"/>
<polygon id="XMLID_75_" class="st3" points="415.7,331.1 413.4,331 417.4,265.8 419.7,265.9 "/>
<path id="XMLID_74_" class="st4" d="M416.6,355.1c-0.8,1.3-125.6,67.5-141.6,68.8c-8.1,1.7-163.8-45-170.7-58
	c-0.8-7.5-14.8-139.5-14.8-139.5l2.4-17.5L87.7,183c0,0-3.4-25.2,1.6-32.8c4.6-6.9,44.7-27.2,53.1-31.5c7.9-4,23,25.2,23,25.2
	l18.6-7.6c0,0-0.7-19.2,2.2-38.9c2.9-19.7,101.7-15.8,104.5-5.6c0.8,3.1-3.2,16.9,1.7,35.5l23.6,6c0,0,8.8-40.2,28.4-28.9
	c7.5,4.3,34.2,15.5,45.1,24.8c11.9,10.1,9.9,22.2,9.4,25.7l4.1,28.5l1.5,7.9c15.9,2.3,17.3,62.8,17.3,62.8S417.4,353.8,416.6,355.1z
	"/>
<line id="XMLID_73_" class="st5" x1="345.6" y1="177.3" x2="400.9" y2="168.7"/>
<line id="XMLID_72_" class="st5" x1="344.8" y1="193.6" x2="403.2" y2="184.2"/>
<polygon id="XMLID_71_" class="st6" points="364.9,326.3 330.8,344.7 324.7,303.8 277.8,340.6 213.1,313.5 210.5,349.2 162.4,334.8 
	157.6,293.8 142.4,236.1 165,142.9 243.3,108.8 366.1,150.2 360.8,285.4 "/>
<linearGradient id="XMLID_111_" gradientUnits="userSpaceOnUse" x1="146.5712" y1="200.8392" x2="358.75" y2="200.8392">
	<stop  offset="0" style="stop-color:#5E5F61"/>
	<stop  offset="3.636360e-002" style="stop-color:#1A171B"/>
	<stop  offset="0.1212" style="stop-color:#B0B2B3"/>
	<stop  offset="0.2424" style="stop-color:#58585A"/>
	<stop  offset="0.4424" style="stop-color:#F5F5F6"/>
	<stop  offset="0.6364" style="stop-color:#3D3D3F"/>
	<stop  offset="0.8" style="stop-color:#8E8F91"/>
	<stop  offset="0.9394" style="stop-color:#3D3D3F"/>
</linearGradient>
<path id="XMLID_70_" class="st7" d="M358.8,200.8c0,19.5-47.5,35.3-106.1,35.3c-58.6,0-106.1-15.8-106.1-35.3
	c0-19.5,47.5-35.3,106.1-35.3C311.3,165.6,358.8,181.4,358.8,200.8z"/>
<linearGradient id="XMLID_112_" gradientUnits="userSpaceOnUse" x1="146.5712" y1="218.6869" x2="358.75" y2="218.6869">
	<stop  offset="0" style="stop-color:#5E5F61"/>
	<stop  offset="3.636360e-002" style="stop-color:#1A171B"/>
	<stop  offset="0.1212" style="stop-color:#B0B2B3"/>
	<stop  offset="0.2424" style="stop-color:#58585A"/>
	<stop  offset="0.4364" style="stop-color:#F5F5F6"/>
	<stop  offset="0.6364" style="stop-color:#3D3D3F"/>
	<stop  offset="0.8" style="stop-color:#8E8F91"/>
	<stop  offset="0.9394" style="stop-color:#3D3D3F"/>
</linearGradient>
<path id="XMLID_69_" class="st8" d="M358.8,218.7c0,19.5-47.5,35.3-106.1,35.3c-58.6,0-106.1-15.8-106.1-35.3
	c0-19.5,47.5-35.3,106.1-35.3C311.3,183.4,358.8,199.2,358.8,218.7z"/>
<linearGradient id="XMLID_113_" gradientUnits="userSpaceOnUse" x1="148.826" y1="236.1275" x2="361.0093" y2="236.1275">
	<stop  offset="0" style="stop-color:#5E5F61"/>
	<stop  offset="3.636360e-002" style="stop-color:#1A171B"/>
	<stop  offset="0.1212" style="stop-color:#B0B2B3"/>
	<stop  offset="0.2424" style="stop-color:#58585A"/>
	<stop  offset="0.3879" style="stop-color:#F5F5F6"/>
	<stop  offset="0.6121" style="stop-color:#3D3D3F"/>
	<stop  offset="0.8" style="stop-color:#8E8F91"/>
	<stop  offset="0.9394" style="stop-color:#3D3D3F"/>
</linearGradient>
<path id="XMLID_68_" class="st9" d="M361,236.1c0,21.2-47.5,38.4-106.1,38.4c-58.6,0-106.1-17.2-106.1-38.4
	c0-21.2,47.5-38.4,106.1-38.4C313.5,197.8,361,214.9,361,236.1z"/>
<linearGradient id="XMLID_114_" gradientUnits="userSpaceOnUse" x1="100.1166" y1="248.686" x2="431.6533" y2="248.686" gradientTransform="matrix(0.9657 1.520000e-002 -1.370000e-002 1.003 17.7015 -6.1809)">
	<stop  offset="0" style="stop-color:#5E5F61"/>
	<stop  offset="3.636360e-002" style="stop-color:#1A171B"/>
	<stop  offset="0.1212" style="stop-color:#B0B2B3"/>
	<stop  offset="0.2424" style="stop-color:#58585A"/>
	<stop  offset="0.3758" style="stop-color:#F5F5F6"/>
	<stop  offset="0.5091" style="stop-color:#3D3D3F"/>
	<stop  offset="0.8" style="stop-color:#8E8F91"/>
	<stop  offset="0.9394" style="stop-color:#3D3D3F"/>
</linearGradient>
<path id="XMLID_67_" class="st10" d="M349.4,243.8c0.3,17.4-38.8,34.4-93.5,34.7c-54.7,0.3-99.3-13.6-99.7-30.9
	c-0.3-17.4,43.7-31.7,98.4-32C309.4,215.3,349,226.4,349.4,243.8z"/>
<path id="XMLID_66_" class="st11" d="M341.7,261.4c0,19.8-39.6,36.5-87.2,36.5s-86.3-16-86.3-35.8c0-19.8,38.6-35.8,86.3-35.8
	S341.7,241.6,341.7,261.4z"/>
<linearGradient id="XMLID_115_" gradientUnits="userSpaceOnUse" x1="310.0107" y1="135.7379" x2="399.0414" y2="135.7379">
	<stop  offset="0" style="stop-color:#58585A"/>
	<stop  offset="0.6121" style="stop-color:#9B9C9E"/>
	<stop  offset="1" style="stop-color:#C5C6C8"/>
</linearGradient>
<path id="XMLID_65_" class="st12" d="M399,154.9c0,0-52.5-0.1-64.9,14.7c-2.9-0.3-24-21.9-24-21.9s4.1-8.1,5.9-14.4
	c12.6-42.5,26.5-29.3,26.9-29.9c1.5,1,47.3,22.5,51.1,30.4C400.1,143.3,399,154.9,399,154.9z"/>
<linearGradient id="XMLID_116_" gradientUnits="userSpaceOnUse" x1="349.5092" y1="142.2354" x2="408.9247" y2="94.8533">
	<stop  offset="0" style="stop-color:#6F7072"/>
	<stop  offset="0.3636" style="stop-color:#B0B2B3"/>
	<stop  offset="0.7212" style="stop-color:#3D3D3F"/>
</linearGradient>
<path id="XMLID_64_" class="st13" d="M399,154.7c0,0-39,2.8-46.9-2.1c-4.7-2.9-12.7-12.8-17.1-17c-4.9-4.7-10.8-3.4-13.9-6.8
	c-4.3-4.7,7.7-32.7,21.6-25.5c3.4,2.7,10.8,5.4,18.2,9.1c14.1,7.2,30.3,16.1,32.9,21.3c2.4,3.7,3.8,8.3,4.5,11.8
	C399.5,151,399,154.7,399,154.7z"/>
<linearGradient id="XMLID_117_" gradientUnits="userSpaceOnUse" x1="309.9235" y1="178.0958" x2="409.9516" y2="176.5916">
	<stop  offset="0" style="stop-color:#3D3D3F"/>
	<stop  offset="0.3394" style="stop-color:#B0B2B3"/>
	<stop  offset="0.703" style="stop-color:#58585A"/>
	<stop  offset="1" style="stop-color:#9B9C9E"/>
</linearGradient>
<path id="XMLID_63_" class="st14" d="M313.4,151.1c0,0-9.5,9.3-1.4,17.1c1,1.6-8.2,7.4-1.9,13.5c2.4,2.6,22.1,20.6,24.2,22.2
	c2.1,1.6,17.4-0.1,17.4-0.1s4.6-6.1,8.5-7.8c2.9-1.3,44.4-4.7,44.4-4.7l-5.5-36.6c0,0-48.3-0.8-65,14.8
	C331.9,169.1,313.4,151.1,313.4,151.1z"/>
<path id="XMLID_62_" class="st6" d="M338.2,180.9c3.1,0.6,7.4-3.5,7.4-3.5l-11.6-7.8l-20.7-18.5c0,0-3.7,3.4-0.8,6.4
	c2.9,3,13.6,13.4,13.6,13.4S335.2,180.2,338.2,180.9z"/>
<path id="XMLID_61_" class="st6" d="M337.2,197.8c3.1,0.6,8.4-4.2,8.4-4.2s-8.9-2.1-13-5.8c-4.2-3.7-20.6-19.6-20.6-19.6
	s-2.8,4.9-0.8,7.5c2.6,3.3,13.1,12.3,13.1,12.3S334.2,197.1,337.2,197.8z"/>
<linearGradient id="XMLID_118_" gradientUnits="userSpaceOnUse" x1="183.8778" y1="127.273" x2="291.544" y2="127.273">
	<stop  offset="0" style="stop-color:#3D3D3F"/>
	<stop  offset="0.4788" style="stop-color:#B0B2B3"/>
	<stop  offset="0.6727" style="stop-color:#D8D9DA"/>
	<stop  offset="1" style="stop-color:#9B9C9E"/>
</linearGradient>
<path id="XMLID_60_" class="st15" d="M267.1,171.3c-10.7-1.6-26.1,0-26.1,0h-24.7c0,0-33.8-15.5-32.5-23.6c0.4-5.3-1-48.6,2.3-53
	c1.1-1.5,21.2-11.2,52.1-11.5c30.7-0.2,51.9,6,52.3,8.6c1.1,6,0.1,52.4,0.9,57.5C292.5,152.8,267.1,171.3,267.1,171.3z"/>
<linearGradient id="XMLID_119_" gradientUnits="userSpaceOnUse" x1="238.3846" y1="79.8289" x2="238.3846" y2="128.7247">
	<stop  offset="0" style="stop-color:#3D3D3F"/>
	<stop  offset="0.4788" style="stop-color:#B0B2B3"/>
	<stop  offset="0.6727" style="stop-color:#D8D9DA"/>
	<stop  offset="1" style="stop-color:#9B9C9E"/>
</linearGradient>
<path id="XMLID_59_" class="st16" d="M270.1,112.4c0,0-11.3,1.5-27.4,2.2c-15.3,0.6-34.4-1-34.4-1s-23.4-10.7-22.1-18.8
	c17.2-17.3,100.3-14.2,104.4-2.9C291.6,95.3,270.1,112.4,270.1,112.4z"/>
<linearGradient id="XMLID_120_" gradientUnits="userSpaceOnUse" x1="209.6534" y1="159.8618" x2="272.5176" y2="159.8618">
	<stop  offset="0" style="stop-color:#3D3D3F"/>
	<stop  offset="0.4788" style="stop-color:#ECECED"/>
	<stop  offset="0.6727" style="stop-color:#ECECED"/>
	<stop  offset="1" style="stop-color:#9B9C9E"/>
</linearGradient>
<path id="XMLID_58_" class="st17" d="M209.7,150.3c-0.7,1.2,6.7,21,6.7,21h50.8l5.4-23c-6,2.4-15,2.6-32.9,3.1
	C227.7,151.8,219,150.9,209.7,150.3z"/>
<linearGradient id="XMLID_121_" gradientUnits="userSpaceOnUse" x1="209.6534" y1="140.5924" x2="272.5176" y2="140.5924">
	<stop  offset="0" style="stop-color:#3D3D3F"/>
	<stop  offset="0.4788" style="stop-color:#ECECED"/>
	<stop  offset="0.6727" style="stop-color:#ECECED"/>
	<stop  offset="1" style="stop-color:#9B9C9E"/>
</linearGradient>
<path id="XMLID_57_" class="st18" d="M209.7,131.1c-0.7,1.2,6.7,21,6.7,21h50.8l5.4-23c-6,2.4-15,2.6-32.9,3.1
	C227.7,132.6,219,131.6,209.7,131.1z"/>
<linearGradient id="XMLID_122_" gradientUnits="userSpaceOnUse" x1="208.2049" y1="123.0269" x2="271.0693" y2="123.0269">
	<stop  offset="0" style="stop-color:#3D3D3F"/>
	<stop  offset="0.4788" style="stop-color:#ECECED"/>
	<stop  offset="0.6727" style="stop-color:#ECECED"/>
	<stop  offset="1" style="stop-color:#9B9C9E"/>
</linearGradient>
<path id="XMLID_56_" class="st19" d="M208.3,113.5c-0.7,1.2,6.7,21,6.7,21h50.8l5.4-23c-6,2.4-15,2.6-32.9,3.1
	C226.3,115,217.5,114.1,208.3,113.5z"/>
<linearGradient id="XMLID_123_" gradientUnits="userSpaceOnUse" x1="152.6415" y1="141.2809" x2="92.4737" y2="188.663">
	<stop  offset="0" style="stop-color:#58585A"/>
	<stop  offset="0.6121" style="stop-color:#9B9C9E"/>
	<stop  offset="1" style="stop-color:#C5C6C8"/>
</linearGradient>
<path id="XMLID_37_" class="st20" d="M86.5,171.3c0,0,50.2-0.2,62.6,14.7c3.4-3,24-21.9,24-21.9s-4.1-8.1-5.9-14.4
	c-12.6-42.5-26.5-29.3-26.9-29.9c-1.5,1-47.3,22.5-51.1,30.4C85.6,159.6,86.5,171.3,86.5,171.3z"/>
<linearGradient id="XMLID_124_" gradientUnits="userSpaceOnUse" x1="88.9741" y1="124.8127" x2="167.1924" y2="179.7159">
	<stop  offset="0" style="stop-color:#6F7072"/>
	<stop  offset="0.3636" style="stop-color:#B0B2B3"/>
	<stop  offset="0.7212" style="stop-color:#3D3D3F"/>
</linearGradient>
<path id="XMLID_36_" class="st21" d="M86.5,171.3c0,0,36.7,2.7,44.5-2.3c4.7-2.9,12.7-12.8,17.1-17c4.9-4.7,10.8-3.4,13.9-6.8
	c4.3-4.7-7.3-33.9-22.5-25.5c-5,2.8-9.8,4.6-17.3,9.2c-13.5,8.3-30.3,16.1-32.9,21.3c-2.4,3.7-2.4,8-2.7,11.6
	C86.1,166.5,86.5,171.3,86.5,171.3z"/>
<linearGradient id="XMLID_125_" gradientUnits="userSpaceOnUse" x1="86.4154" y1="194.2584" x2="174.4104" y2="194.2584">
	<stop  offset="0" style="stop-color:#3D3D3F"/>
	<stop  offset="0.3394" style="stop-color:#B0B2B3"/>
	<stop  offset="0.703" style="stop-color:#58585A"/>
	<stop  offset="1" style="stop-color:#9B9C9E"/>
</linearGradient>
<path id="XMLID_35_" class="st22" d="M169.8,167.5c0,0,9.5,9.3,1.4,17.1c-1,1.6,8.2,7.4,1.9,13.5c-2.4,2.6-23.3,21.5-27.4,22.8
	c-2.5,0.8-12.2-1.5-12.2-1.5s-7.6-5.6-10.5-6.9s-31.2-3.6-31.2-3.6l-5.3-37.5c0,0,45.9-1,62.6,14.7
	C151.3,185.5,169.8,167.5,169.8,167.5z"/>
<path id="XMLID_34_" class="st6" d="M145,197.3c-3.1,0.6-7.4-3.5-7.4-3.5l11.6-7.8l20.7-18.5c0,0,3.7,3.4,0.8,6.4
	c-2.9,3-13.6,13.4-13.6,13.4S148,196.6,145,197.3z"/>
<path id="XMLID_33_" class="st6" d="M145.9,214.2c-3.1,0.6-8.4-4.2-8.4-4.2s8.9-2.1,13-5.8c4.2-3.7,20.6-19.6,20.6-19.6
	s2.8,4.9,0.8,7.5c-2.6,3.3-13.1,12.3-13.1,12.3S149,213.5,145.9,214.2z"/>
<linearGradient id="XMLID_126_" gradientUnits="userSpaceOnUse" x1="78.902" y1="235.1322" x2="214.174" y2="281.4686">
	<stop  offset="0.1455" style="stop-color:#515153"/>
	<stop  offset="0.5576" style="stop-color:#BCBEBF"/>
	<stop  offset="0.9394" style="stop-color:#818284"/>
</linearGradient>
<path id="XMLID_32_" class="st23" d="M123.4,209.1c6.1,1.2,23.7,12,23.7,12s22.2,16.1,24.4,19.4c2.2,3.3-6,38.5-7,45.2
	c-1,6.6-3.3,8.2-3.3,8.2l-62-10.3c0,0-2.9-25.8-4.3-40.6c-0.2-3.3-1.8-16.5-1.8-16.5s2.2-15.5,2.4-17.5
	C95.4,208.9,103.6,206,123.4,209.1z"/>
<linearGradient id="XMLID_127_" gradientUnits="userSpaceOnUse" x1="75.3954" y1="234.1374" x2="210.0362" y2="280.2575">
	<stop  offset="0.1455" style="stop-color:#515153"/>
	<stop  offset="0.5576" style="stop-color:#BCBEBF"/>
	<stop  offset="0.9394" style="stop-color:#818284"/>
</linearGradient>
<path id="XMLID_31_" class="st24" d="M119.8,208.1c6.1,1.2,25.1,11.2,25.1,11.2l24.6,19.1l-8.6,46.3l-3.3,8.2l-62-10.3
	c0,0-2.9-25.8-4.3-40.6c-0.2-3.3-1.8-16.5-1.8-16.5s2.2-15.5,2.4-17.5C91.9,207.9,100,205,119.8,208.1z"/>
<linearGradient id="XMLID_128_" gradientUnits="userSpaceOnUse" x1="89.49" y1="260.0962" x2="160.9064" y2="260.0962">
	<stop  offset="0.1455" style="stop-color:#515153"/>
	<stop  offset="0.6303" style="stop-color:#868789"/>
</linearGradient>
<polygon id="XMLID_30_" class="st25" points="89.5,226.4 95.6,283.5 157.6,293.8 160.9,284.6 "/>
<linearGradient id="XMLID_129_" gradientUnits="userSpaceOnUse" x1="428.9639" y1="203.0443" x2="281.2078" y2="311.0808">
	<stop  offset="0.1455" style="stop-color:#515153"/>
	<stop  offset="0.5576" style="stop-color:#BCBEBF"/>
	<stop  offset="0.9394" style="stop-color:#818284"/>
</linearGradient>
<path id="XMLID_29_" class="st26" d="M350.7,205.5c-10.5,4.3-17.7,20-17.7,20s-4.8,8.3-4.8,12c0,3.6,32.6,47.9,32.6,47.9l61-21.7
	c0,0-2.6-33.9-7.5-48.1c-1.3-3.1-5.5-13.6-10.7-14.6c-3.2-0.6-11.6,0.6-11.6,0.6S359.1,203.9,350.7,205.5z"/>
<linearGradient id="XMLID_130_" gradientUnits="userSpaceOnUse" x1="428.9771" y1="193.5217" x2="281.0818" y2="301.6601">
	<stop  offset="0.1455" style="stop-color:#515153"/>
	<stop  offset="0.5576" style="stop-color:#BCBEBF"/>
	<stop  offset="0.9394" style="stop-color:#818284"/>
</linearGradient>
<path id="XMLID_28_" class="st27" d="M350.7,196c-10.5,4.3-17.7,20-17.7,20s-3.3,11.6-3.9,14c-0.7,2.4,31.8,45.8,31.8,45.8l61-21.7
	c0,0-2.6-33.9-7.5-48.1c-1.3-3.1-5.5-13.6-10.7-14.6c-3.2-0.6-11.6,0.6-11.6,0.6S359.1,194.3,350.7,196z"/>
<linearGradient id="XMLID_131_" gradientUnits="userSpaceOnUse" x1="360.827" y1="238.9789" x2="421.8496" y2="238.9789">
	<stop  offset="0.1455" style="stop-color:#515153"/>
	<stop  offset="0.6303" style="stop-color:#868789"/>
</linearGradient>
<path id="XMLID_27_" class="st28" d="M412.6,202.1c-3.2,4.5-51.8,73.7-51.8,73.7l61-21.7C421.8,254.2,418.6,211.2,412.6,202.1z"/>
<polygon id="XMLID_26_" class="st29" points="280.9,418.2 276.2,422.6 271.7,420.7 272.6,341.8 280.6,341.8 "/>
<rect id="XMLID_25_" x="101.3" y="286.8" transform="matrix(0.9953 -9.659102e-002 9.659102e-002 0.9953 -30.9833 11.4239)" class="st30" width="2.3" height="77.9"/>
<polygon id="XMLID_24_" class="st30" points="415.7,331.1 413.4,331 417.4,265.8 419.7,265.9 "/>
<linearGradient id="XMLID_132_" gradientUnits="userSpaceOnUse" x1="268.5907" y1="263.5864" x2="269.3167" y2="360.1378">
	<stop  offset="0" style="stop-color:#D8D9DA"/>
	<stop  offset="0.2424" style="stop-color:#6F7072"/>
	<stop  offset="0.5152" style="stop-color:#D8D9DA"/>
	<stop  offset="0.7515" style="stop-color:#58585A"/>
	<stop  offset="1" style="stop-color:#000000"/>
</linearGradient>
<polygon id="XMLID_23_" class="st31" points="324.7,293.2 324.7,303.8 277.8,340.6 213.1,313.5 213.1,303.8 237.2,268.9 
	297.8,268.3 "/>
<linearGradient id="XMLID_133_" gradientUnits="userSpaceOnUse" x1="268.8674" y1="307.8325" x2="268.8674" y2="353.9569">
	<stop  offset="0" style="stop-color:#ECECED"/>
	<stop  offset="0.5091" style="stop-color:#6F7072"/>
	<stop  offset="0.8606" style="stop-color:#D8D9DA"/>
</linearGradient>
<path id="XMLID_20_" class="st32" d="M323.6,293.3v10.4l-45.9,35.7L214.2,313v-9.4c0,0,24.3,4.8,57.9,1.6
	C305.6,302.1,323.6,293.3,323.6,293.3z"/>
</svg>
