<?xml version="1.0" encoding="utf-8"?>
<!-- Generator: Adobe Illustrator 19.0.0, SVG Export Plug-In . SVG Version: 6.00 Build 0)  -->
<svg version="1.1" id="Camada_1" xmlns="http://www.w3.org/2000/svg" xmlns:xlink="http://www.w3.org/1999/xlink" x="0px" y="0px"
	 viewBox="0 0 500 500" style="enable-background:new 0 0 500 500;" xml:space="preserve">
<style type="text/css">
	.st0{stroke:#000000;stroke-width:5.6548;stroke-linejoin:round;stroke-miterlimit:10;}
	.st1{fill:#B2B2B2;stroke:#000000;stroke-width:1.8849;stroke-linejoin:round;stroke-miterlimit:10;}
	.st2{fill:#DADADA;stroke:#000000;stroke-width:1.8849;stroke-linejoin:round;stroke-miterlimit:10;}
	.st3{fill:#DADADA;}
	.st4{fill:#9D9D9C;}
	.st5{fill:#706F6F;stroke:#000000;stroke-width:1.8849;stroke-linejoin:round;stroke-miterlimit:10;}
</style>
<g>
	<g>
		<path id="XMLID_47_" class="st0" d="M342.7,166h-1.2h-2.4H226.9c-3.4,0-6.2,4.5-6.2,10c0,5.5,2.8,10,6.2,10h112.2h2.4h1.2
			c0,0,79.2-7.6,79.2-10C421.9,172.8,342.7,166,342.7,166z"/>
		<path id="XMLID_46_" class="st1" d="M342.7,166h-1.2h-2.4H226.9v20h112.2h2.4h1.2c0,0,79.2-7.6,79.2-10
			C421.9,172.8,342.7,166,342.7,166z"/>
		<path id="XMLID_45_" class="st2" d="M233,176c0,5.5-2.8,10-6.2,10c-3.4,0-6.2-4.5-6.2-10c0-5.5,2.8-10,6.2-10
			C230.3,166,233,170.5,233,176z"/>
		<polygon id="XMLID_44_" class="st3" points="343.4,173.1 234.8,173.1 234.1,170 343.4,170 410,174.8 		"/>
		<polygon id="XMLID_43_" class="st4" points="340.7,180.7 234.3,180.7 233,183.8 340.7,183.8 407.8,177.5 		"/>
	</g>
	<g>
		<path id="XMLID_42_" class="st0" d="M264.9,191h-1.2h-2.4H149.1c-3.4,0-6.2,4.5-6.2,10c0,5.5,2.8,10,6.2,10h112.2h2.4h1.2
			c0,0,79.2-7.6,79.2-10C344.1,197.7,264.9,191,264.9,191z"/>
		<path id="XMLID_41_" class="st1" d="M264.9,191h-1.2h-2.4H149.1v20h112.2h2.4h1.2c0,0,79.2-7.6,79.2-10
			C344.1,197.7,264.9,191,264.9,191z"/>
		<path id="XMLID_40_" class="st2" d="M155.3,201c0,5.5-2.8,10-6.2,10c-3.4,0-6.2-4.5-6.2-10c0-5.5,2.8-10,6.2-10
			C152.5,191,155.3,195.5,155.3,201z"/>
		<polygon id="XMLID_39_" class="st3" points="265.6,198.1 157.1,198.1 156.3,195 265.6,195 332.2,199.8 		"/>
		<polygon id="XMLID_38_" class="st4" points="262.9,205.7 156.6,205.7 155.3,208.8 262.9,208.8 330.1,202.5 		"/>
	</g>
	<g>
		<path id="XMLID_37_" class="st0" d="M237.2,221.6H236h-2.4H121.4c-3.4,0-6.2,4.5-6.2,10c0,5.5,2.8,10,6.2,10h112.2h2.4h1.2
			c0,0,79.2-7.6,79.2-10C316.4,228.3,237.2,221.6,237.2,221.6z"/>
		<path id="XMLID_36_" class="st1" d="M237.2,221.6H236h-2.4H121.4v20h112.2h2.4h1.2c0,0,79.2-7.6,79.2-10
			C316.4,228.3,237.2,221.6,237.2,221.6z"/>
		<path id="XMLID_35_" class="st2" d="M127.6,231.6c0,5.5-2.8,10-6.2,10c-3.4,0-6.2-4.5-6.2-10c0-5.5,2.8-10,6.2-10
			C124.8,221.6,127.6,226.1,127.6,231.6z"/>
		<polygon id="XMLID_34_" class="st3" points="237.9,228.7 129.3,228.7 128.6,225.6 237.9,225.6 304.5,230.4 		"/>
		<polygon id="XMLID_33_" class="st4" points="235.2,236.3 128.9,236.3 127.6,239.4 235.2,239.4 302.4,233.1 		"/>
	</g>
	<g>
		<path id="XMLID_32_" class="st0" d="M376.7,185.3l1.1,0.3l2.4,0.6l108.7,28.1c3.3,0.9,4.9,5.9,3.5,11.2c-1.4,5.4-5.2,9-8.5,8.1
			l-108.7-28.1l-2.4-0.6l-1.1-0.3c0,0-74.8-27.2-74.2-29.5C298.3,171.9,376.7,185.3,376.7,185.3z"/>
		<path id="XMLID_31_" class="st1" d="M376.7,185.3l1.1,0.3l2.4,0.6l108.7,28.1l-5,19.4l-108.7-28.1l-2.4-0.6l-1.1-0.3
			c0,0-74.8-27.2-74.2-29.5C298.3,171.9,376.7,185.3,376.7,185.3z"/>
		
			<ellipse id="XMLID_30_" transform="matrix(-0.9681 -0.2505 0.2505 -0.9681 901.0255 562.5591)" class="st5" cx="486.3" cy="223.9" rx="6.2" ry="10"/>
		<polygon id="XMLID_29_" class="st3" points="374.2,192 479.3,219.1 480.8,216.3 375,189 309.3,176.9 		"/>
		<polygon id="XMLID_28_" class="st4" points="374.9,200 477.9,226.6 478.4,229.9 374.2,203 310.7,180.1 		"/>
	</g>
	<g>
		<path id="XMLID_27_" class="st0" d="M345.8,209.4l1.1,0.3l2.4,0.6L458,238.4c3.3,0.9,4.9,5.9,3.5,11.2c-1.4,5.4-5.2,9-8.5,8.2
			l-108.7-28.1l-2.4-0.6l-1.1-0.3c0,0-74.8-27.2-74.2-29.5C267.4,196.1,345.8,209.4,345.8,209.4z"/>
		<path id="XMLID_26_" class="st1" d="M345.8,209.4l1.1,0.3l2.4,0.6L458,238.4l-5,19.4l-108.7-28.1l-2.4-0.6l-1.1-0.3
			c0,0-74.8-27.2-74.2-29.5C267.4,196.1,345.8,209.4,345.8,209.4z"/>
		<path id="XMLID_25_" class="st5" d="M449.5,246.5c-1.4,5.4,0.2,10.4,3.5,11.2c3.3,0.9,7.1-2.8,8.5-8.2c1.4-5.4-0.2-10.4-3.5-11.2
			C454.7,237.5,450.8,241.1,449.5,246.5z"/>
		<polygon id="XMLID_24_" class="st3" points="343.3,216.1 448.5,243.2 450,240.4 344.1,213.1 278.4,201 		"/>
		<polygon id="XMLID_23_" class="st4" points="344.1,224.1 447,250.7 447.5,254 343.3,227.1 279.8,204.2 		"/>
	</g>
	<g>
		<path id="XMLID_22_" class="st0" d="M273.4,218.9l1.1,0.3l2.4,0.6l108.7,28.1c3.3,0.9,4.9,5.9,3.5,11.2c-1.4,5.4-5.2,9-8.5,8.2
			l-108.7-28.1l-2.4-0.6l-1.1-0.3c0,0-74.8-27.2-74.2-29.5C195,205.5,273.4,218.9,273.4,218.9z"/>
		<path id="XMLID_21_" class="st1" d="M273.4,218.9l1.1,0.3l2.4,0.6l108.7,28.1l-5,19.4l-108.7-28.1l-2.4-0.6l-1.1-0.3
			c0,0-74.8-27.2-74.2-29.5C195,205.5,273.4,218.9,273.4,218.9z"/>
		<path id="XMLID_20_" class="st5" d="M377.1,256c-1.4,5.4,0.2,10.4,3.5,11.2c3.3,0.9,7.1-2.8,8.5-8.2c1.4-5.4-0.2-10.4-3.5-11.2
			C382.3,247,378.5,250.6,377.1,256z"/>
		<polygon id="XMLID_19_" class="st3" points="271,225.6 376.1,252.7 377.6,249.9 271.7,222.6 206,210.5 		"/>
		<polygon id="XMLID_18_" class="st4" points="271.7,233.6 374.6,260.2 375.1,263.5 270.9,236.6 207.4,213.7 		"/>
	</g>
	<g>
		<path id="XMLID_17_" class="st0" d="M298.1,258.7l1.1,0.3l2.4,0.6l108.7,28.1c3.3,0.9,4.9,5.9,3.5,11.2c-1.4,5.4-5.2,9-8.5,8.2
			L296.6,279l-2.4-0.6l-1.1-0.3c0,0-74.8-27.2-74.2-29.5C219.8,245.4,298.1,258.7,298.1,258.7z"/>
		<path id="XMLID_16_" class="st1" d="M298.1,258.7l1.1,0.3l2.4,0.6l108.7,28.1l-5,19.4L296.6,279l-2.4-0.6l-1.1-0.3
			c0,0-74.8-27.2-74.2-29.5C219.8,245.4,298.1,258.7,298.1,258.7z"/>
		<path id="XMLID_15_" class="st5" d="M401.8,295.8c-1.4,5.4,0.2,10.4,3.5,11.2c3.3,0.9,7.1-2.8,8.5-8.2c1.4-5.4-0.2-10.4-3.5-11.2
			C407,286.8,403.2,290.5,401.8,295.8z"/>
		<polygon id="XMLID_14_" class="st3" points="295.7,265.4 400.8,292.5 402.3,289.7 296.5,262.4 230.8,250.3 		"/>
		<polygon id="XMLID_13_" class="st4" points="296.4,273.4 399.4,300 399.9,303.3 295.6,276.4 232.2,253.5 		"/>
	</g>
	<g>
		<path id="XMLID_12_" class="st0" d="M139.4,294.5l1.1-0.4l2.3-0.9l104.6-40.6c3.2-1.2,7.4,1.9,9.4,7.1c2,5.2,1,10.3-2.1,11.6
			L150,311.9l-2.3,0.9l-1.1,0.4c0,0-76.6,21.6-77.5,19.3C68,329.5,139.4,294.5,139.4,294.5z"/>
		<path id="XMLID_11_" class="st1" d="M256.7,259.7c-2-5.2-6.2-8.3-9.4-7.1l-104.6,40.6l-2.3,0.9l-1.1,0.4c0,0-71.4,34.9-70.2,38
			c0.9,2.3,77.5-19.3,77.5-19.3l1.1-0.4l2.3-0.9l104.6-40.6C257.8,270.1,258.8,264.9,256.7,259.7z"/>
		<polygon id="XMLID_10_" class="st3" points="141.3,301.4 242.5,262.1 242.1,259 140.2,298.5 79.8,327.1 		"/>
		<polygon id="XMLID_9_" class="st4" points="146.6,307.5 245.7,269 248,271.5 147.7,310.4 82.8,328.9 		"/>
	</g>
	<g>
		<path id="XMLID_8_" class="st0" d="M226.3,315.7l1.2,0l2.4-0.1l112.2-4.1c3.4-0.1,6.3,4.3,6.5,9.8c0.2,5.5-2.4,10.1-5.8,10.2
			l-112.2,4.1l-2.4,0.1l-1.2,0c0,0-79.4-4.7-79.5-7.1C147.4,325.3,226.3,315.7,226.3,315.7z"/>
		<path id="XMLID_7_" class="st1" d="M348.6,321.2c-0.2-5.5-3.1-9.9-6.5-9.8l-112.2,4.1l-2.4,0.1l-1.2,0c0,0-78.9,9.6-78.8,12.9
			c0.1,2.4,79.5,7.1,79.5,7.1l1.2,0l2.4-0.1l112.2-4.1C346.2,331.4,348.8,326.8,348.6,321.2z"/>
		<polygon id="XMLID_6_" class="st3" points="225.8,322.8 334.3,318.9 335,315.7 225.7,319.7 159.3,326.9 		"/>
		<polygon id="XMLID_5_" class="st4" points="228.8,330.3 335.1,326.4 336.5,329.5 228.9,333.4 161.6,329.6 		"/>
	</g>
	<g>
		<path id="XMLID_4_" class="st0" d="M77.4,269.2l1.1-0.4l2.3-0.9l104.6-40.6c3.2-1.2,7.4,1.9,9.4,7.1c2,5.2,1,10.3-2.1,11.6
			L88,286.6l-2.3,0.9l-1.1,0.4c0,0-76.6,21.6-77.5,19.3C6,304.2,77.4,269.2,77.4,269.2z"/>
		<path id="XMLID_3_" class="st1" d="M194.8,234.4c-2-5.2-6.2-8.3-9.4-7.1L80.8,267.9l-2.3,0.9l-1.1,0.4c0,0-71.4,34.9-70.2,38
			c0.9,2.3,77.5-19.3,77.5-19.3l1.1-0.4l2.3-0.9L192.6,246C195.8,244.8,196.8,239.6,194.8,234.4z"/>
		<polygon id="XMLID_2_" class="st3" points="79.3,276.1 180.5,236.8 180.1,233.7 78.2,273.2 17.8,301.8 		"/>
		<polygon id="XMLID_1_" class="st4" points="84.6,282.2 183.7,243.7 186.1,246.2 85.7,285.1 20.8,303.6 		"/>
	</g>
</g>
</svg>
