<?xml version="1.0" encoding="utf-8"?>
<!-- Generator: Adobe Illustrator 19.0.0, SVG Export Plug-In . SVG Version: 6.00 Build 0)  -->
<svg version="1.1" id="Camada_1" xmlns="http://www.w3.org/2000/svg" xmlns:xlink="http://www.w3.org/1999/xlink" x="0px" y="0px"
	 viewBox="0 0 500 500" style="enable-background:new 0 0 500 500;" xml:space="preserve">
<style type="text/css">
	.st0{fill:#1A171B;stroke:#1A171B;stroke-width:5.6764;stroke-linejoin:round;stroke-miterlimit:10;}
	.st1{fill:#1A171B;stroke:#1A171B;stroke-width:5.6764;stroke-miterlimit:10;}
	.st2{fill:#3D3D3F;stroke:#1A171B;stroke-width:1.4191;stroke-linejoin:round;stroke-miterlimit:10;}
	.st3{fill:#9B9C9E;stroke:#1A171B;stroke-width:0.7095;stroke-linejoin:round;stroke-miterlimit:10;}
	.st4{fill:url(#XMLID_127_);stroke:#1A171B;stroke-width:1.4191;stroke-miterlimit:10;}
	.st5{fill:url(#XMLID_128_);stroke:#1A171B;stroke-width:1.4191;stroke-miterlimit:10;}
	.st6{fill:url(#XMLID_129_);stroke:#1A171B;stroke-width:1.4191;stroke-miterlimit:10;}
	.st7{fill:#3D3D3F;stroke:#1A171B;stroke-width:1.4191;stroke-miterlimit:10;}
	.st8{fill:#FFFFFF;stroke:#1A171B;stroke-width:1.4191;stroke-miterlimit:10;}
	.st9{fill:url(#XMLID_130_);stroke:#1A171B;stroke-width:1.4191;stroke-miterlimit:10;}
	.st10{fill:url(#XMLID_131_);stroke:#1A171B;stroke-width:1.4191;stroke-miterlimit:10;}
	.st11{fill:url(#XMLID_132_);stroke:#1A171B;stroke-width:1.4191;stroke-miterlimit:10;}
	.st12{fill:url(#XMLID_133_);stroke:#1A171B;stroke-width:1.4191;stroke-miterlimit:10;}
	.st13{fill:url(#XMLID_134_);stroke:#1A171B;stroke-width:1.4191;stroke-miterlimit:10;}
</style>
<path id="XMLID_125_" class="st0" d="M369.6,253.4c1.5-0.6,1.8-7.1-0.4-7.8c-1.4-0.5-9.8-2.1-15.7-3.2c-0.1-1-0.2-2-0.3-3
	c3.2-1.7,15.5-8.3,16.6-9.1c1.3-0.9,0.2-7.3-2.1-7.6c-1.6-0.2-11.6,0.2-17.6,0.5c-0.5-2-1.1-4.1-1.8-6.1c4.8-2.6,13.2-7.1,14.1-7.8
	c1.3-0.9,1.2-13.8-1.1-14c-1.6-0.2-12.9,6.7-18.8,7c-0.8-1.8-1.7-3.5-2.6-5.3c4.2-3.4,18.5-8.4,19.3-9.2c0,0-3.1-16.8-5.4-16.6
	c-1.6,0.1-16.2,10.9-22,12.3c-0.8-1.1-1.6-2.3-2.4-3.4c3.5-4.2,20.9-13.2,19.8-13.2c-1.4,0-5.1-16.7-5.1-16.7
	c-1.4,0.4-19.2,15.6-24.7,18.2c-1.5-1.6-3.1-3.2-4.7-4.7c2.8-5.1,19.1-16.7,19.5-17.6c0.6-1.5-3.7-14.6-3.7-14.6
	c-1.3,0.6-22.8,19.3-27.8,22.6c-1.4-1-2.9-1.9-4.4-2.8c1.5-5.8,16.7-19.2,17.2-20c1.4-2.6-1.3-14.6-2.4-15.2
	c-1.3-0.8-25.7,23.4-30.2,27.4c-1.6-0.7,14.8-24.8,13.1-25.5c-0.1-4-2.8-13.7-2.7-14.7c0.2-1.6-19.3,18.5-21,20
	c-1.1,1,2.1-14.9,2.1-14.9c-1.8-0.5-1.9-15.2-3.7-15.6c-0.6-6-16.2,26.2-16.3,25.2c-0.1-1.6-6.6-30.9-8-29.1c-1,1.3-5.3,37-8.2,42.3
	c-1.7-0.3-3.5-0.5-5.2-0.7c-1.3-5.8-3.6-15.8-3.8-16.9c-0.3-1.6-6.6-3.1-7.8-1.1c-0.8,1.4-4.5-35.4-8.5-31.7
	c-18.3,20.4-1.9,48.1-3.8,48.1c-2.4-5.5-6.3-14.6-6.8-15.6c-0.6-1.5-16.2-34-17.1-31.9c-7,17.4,7.1,42.1,6,48.1
	c-2.6,0.2-5.2,0.4-7.8,0.7c-3-5.3-7.4-13.2-7.9-14.1c-0.8-1.4-7.2-1.1-7.8,1.2c-0.3,1.4-9.1-31.2-9.6-25.3c-3.1,3.1,3.4,41.9,1,42.4
	c-3.2-5.1-8.6-13.7-9.4-14.5c-1.2-1.1-7.5,1-7.5,3.3c0,1.4-8.3-34.8-7.2-28.9c-4.1,11.1,2.7,46.8-0.8,48.2
	c-3.1-5.1-7.1-11.6-7.8-12.2c-1.1-1.1-7.6,0.9-7.5,3.2c0,1.4-5.9-37.6-8.2-32.3c-3.4,1.7,3.9,50.7,0.7,52.6c-4-4.2-8.9-9.2-9.7-9.7
	c-1.4-0.9-7.2,2.6-6.7,4.8c0.3,1.2-5.2-39.9-7-35c-5.9,2.2,6.7,51,4.3,53c-4.7-3.6-21.7-31.5-22.5-31.9c-1.5-0.7,0.6,14.1-4.6,13.8
	c-1.3-0.1-13.1,1.1-15.9,3c-2.8,2.6,3.7,11.6,1.1,14.3c-2.3-0.5-17.3,4.3-18.4,4.4c-1.6,0,6.3,15.1,5.2,15.3
	c-1.6,0.3-16.1,5-15.9,7.3c0.3,2.8,3.1,9.5,2.8,11.9c-0.6,4.9-8.2,9.1-8.5,10.3c-0.7,1.9,4.3,17.3-2.9,23.7c-1.2,1.1,0,12.1,2,13.1
	c1.2,0.5,0.4,9.5-0.5,10.2c-1.3,0.9,1.1,12.7,3.4,13.1c1.3,0.3,1.4,9.7,0.4,10.4c-1.3,0.9,1.5,10.7,2.3,11.3c1.3,1,5.7,12,5.8,13.1
	c0,1.6,1.3,9.9,3.2,11.2c2.2,1.4,6.1,12,6.4,13.5c0,0,3.5,11.6,9.4,11.8c1.6,0.1,8.2,18.3,10.5,17.8c1.6-0.4,2.7-1.6,5.2-3.1
	c0.5,0.5,0.8,0.6,1.3,1.1c1.6,6.4,5.6,17.9,6.3,18.7c1.6,1.9,11.2-2.6,11.8-3.1l2,0.6c1.7,5.7,4.4,14.9,4.4,14.9
	c1.1,1.5,8.4,2.3,8.4,2.3c1.7-0.9,4.1-3.7,7.8-6.8c0,0,1.5,0.2,2.7,0.7c0.7,3.4,3.8,14,4.2,16.1c0,0,6.4,1.4,8.4,0.7
	c0,0,6-5.6,9.7-9.5c0,0,0.8-0.4,2.7,0.2c0.9,6.8,4,16.5,4.1,17.7c0,0,7.2,1.4,8.6-0.4c1.1-1.4,7.1-8.3,10.5-13c0,0,3.5,0.2,4,0.3
	c1.1,5.8,2.9,13.4,3.2,14.5c0.3,1.6,10.6,2.6,11.9,0.7c1-1.4,4.3-10.2,6.2-14.6c1.5,0.1,4.3,0.2,6.2,0.5c2.6,6.2,3.4,12,3.9,12.9
	c0.7,1.4,7.5,1.4,8.2-0.8c0.4-1.3,1.4-8.5,2.2-14.3c3.8-0.3,7.6-0.6,11.4-1.1c3.1,5.7,6.7,12.3,7.2,13c0.9,1.4,7.6,0.7,8.1-1.5
	c0.3-1.3,0.6-8.7,0.9-14.5c2.9-0.7,5.8-1.5,8.7-2.4c4.2,5.3,9.5,12,10.1,12.7c1.1,1.2,7.6-0.6,7.7-2.9c0.1-1.5-1-9.8-1.8-15.8
	c2.8-1.2,5.6-2.5,8.4-3.8c4.6,4.8,10.4,10.8,11.1,11.4c1.2,1.1,7.1-1.4,6.9-3.7c-0.1-1.5-2.2-9.8-3.7-15.6c2.4-1.5,3.7-0.6,6-2.2
	c5.8,3.5,13,7.8,14,8.3c1.4,0.7,8.2-0.7,7.4-2.8c-0.5-1.5-1.6-10.9-3.4-18.4c1-0.7,2.7-1.2,2.7-1.2c6.3,2.9,14.6,7.3,15.6,7.6
	c1.5,0.5,5.4-4.6,5.6-6.7c0.2-1.5-1.2-3.9-2.5-15.2l0.4-0.7c6.4,1,14.8,2.3,16,2.4c1.6,0.1,3.7-3.5,3.4-10c0-1.1-3-11-2-12.3
	c5.2,0,9.8,1.3,11.2,1.2c1.6-0.1,4.3-9,3.9-11.3c-0.4-2.4-0.4-6.9-1.3-9.8c1.1-0.8,7.3-0.4,8.6-0.5c1.6-0.1,4.4-8.9,4.1-11.2
	c-0.2-1.6,3.1-15.2,4-16.8c0.8-1.4,0.1-10.8-1.9-12c-1.3-0.7-6.9,0.3-12.6-1.8c0.2-1.8,0.3-3.6,0.4-5.4
	C359,256.5,368.5,253.9,369.6,253.4z"/>
<path id="XMLID_124_" class="st0" d="M480.8,245.5c-0.1-0.9,3.2,19.1,3.2,19.1l-2.7-40.5l-10.1-6.8c-0.9-2.8-0.3-8.8-0.6-13.7
	c0,0-11.8,9.4-14.4,12.1c-2.4,2.6-6.2,3.5-8.1,4.6c-0.4,0.3-1.7,1-3.5,2c-7.4-5.6-16.3-9.4-26-9.4c-12.6,0-24.1,4.3-32.5,11.8
	c-1.9-0.6-3.4-1-4.2-1.2c-3.5-0.7-5,3.9-3.6,5.6c0.2,0.3,0.9,1.2,1.8,2.3c-2.3,3.1-4.1,6.6-5.6,10.3c-3.6-0.2-6.8-0.3-8.1-0.2
	c-3.5,0.3-3.8,5-2.1,6.4c0.7,0.5,3.8,3,7.4,5.7c-0.2,1.5-2.5-0.8-2.6,0.7c-4.8,0-17.1-1-19.5,0c-3.3,1.4-1.2,9.2,3.3,11.1
	c0.3,0.1,6,7.8,6.5,9l1.8,2.1c0.7,6.5,2.2,32.8,2.4,36c0.2,3.6,2.9,5.6,4.8,4.6c1.4-0.7,5.8-2.6,11.2-6.5c0.4,0.2,2.6,0,3,0.2
	c0.5,3.3,1.6,13.2,2.1,16.5c0.6,3.5,5.7,4.9,7.1,3.2c1-1.2,8.6-10.1,12.8-15c0.9,0.2,1.9,0.4,2.8,0.5c1.7,5.4,5.4,16.6,6.7,19.2
	c1.5,3.2,6.1,1.7,6.7-0.4c0.4-1.5,3.4-11.9,5.2-18.2c1.5-0.2,3.1-0.5,4.6-0.8c3.5,3.7,12.6,13.3,15.1,15.3c2.8,2.2,6.2-1.1,5.8-3.2
	c-0.3-1.6-1.9-14.4-2.9-20.5c0.2-0.2,1.2-0.3,1.4-0.5c3.6,1.5,14.2,7.2,19.5,8.6c1.4,0.4,2.3-1.1,2.3-1.1s-1.2-22.2-1.1-22.5
	c0,0,0.6-1.3,1.2-1.3c4.2-0.2,11.8,0.4,14.8,0.4C486.7,291,483.5,251.1,480.8,245.5z"/>
<path id="XMLID_123_" class="st0" d="M321.9,362c0,0-4.1,5.6-6.1,4.7c-0.7-1.8-6.1-37.4-6.1-37.4l4.5-5.7L321.9,362z"/>
<path id="XMLID_122_" class="st0" d="M301.6,380.8c0,0-4.4,3.7-8.1,1.4c-0.4-1.9-3.4-35.3-3.4-35.3l4.3-2.9L301.6,380.8z"/>
<path id="XMLID_121_" class="st0" d="M338.5,344.5c0,0-2,4.1-4.1,3.1c-0.7-1.8-4.8-38.4-4.8-38.4l2.4-5.9L338.5,344.5z"/>
<path id="XMLID_120_" class="st0" d="M277.8,393.6c0,0-3.9,4-7.6,1.9c-0.4-1.8-4.9-34.8-4.9-34.8l3.9-3.2L277.8,393.6z"/>
<path id="XMLID_119_" class="st0" d="M252.4,405.4c0,0-3.3,3.1-7.1,1.3c-0.5-1.8-6.7-34.5-6.7-34.5l6-2.6L252.4,405.4z"/>
<path id="XMLID_118_" class="st0" d="M224.2,412.6c0,0-5,2.1-7.1-1.3c-0.4-1.8-7.1-33.3-7.1-33.3l6.8-1.1L224.2,412.6z"/>
<path id="XMLID_117_" class="st0" d="M195.5,416.3c0,0-4.7,1.3-7.1-1.1c-0.4-1.8-7.1-33.8-7.1-33.8l6.8-0.6L195.5,416.3z"/>
<path id="XMLID_116_" class="st0" d="M167.9,418.1c0,0-5.4,0.7-7.5-3c-0.4-2-7.4-35.6-7.4-35.6l5.4,0.7L167.9,418.1z"/>
<path id="XMLID_115_" class="st0" d="M142,415.2c0,0-6.3,0.6-7.5-0.2c-0.4-2-8.5-36.9-8.5-36.9l5.9,1.1L142,415.2z"/>
<path id="XMLID_114_" class="st0" d="M117,406.8c0,0-6.3-0.5-7.5-1.3c-0.4-2-10.5-39.1-10.5-39.1l7,4.3L117,406.8z"/>
<path id="XMLID_113_" class="st0" d="M93.2,395.5c0,0-5.5-1.3-6.7-2.1c-0.4-2-10.9-38.1-10.9-38.1l5.8,3.9L93.2,395.5z"/>
<path id="XMLID_112_" class="st0" d="M72.5,380.9c0,0-3,1-4.3,0c-0.4-2.3-12.6-41.8-12.6-41.8l5.6,3.9L72.5,380.9z"/>
<polygon id="XMLID_111_" class="st0" points="51.5,356.7 50.6,356.9 46.9,349.2 38.7,321.3 42.8,325.8 "/>
<polygon id="XMLID_110_" class="st0" points="31.7,324.9 29.5,321.6 25.2,300.7 29.4,303.9 "/>
<polygon id="XMLID_109_" class="st0" points="351.3,321.6 348.5,326.6 344.1,288 345.9,286.1 "/>
<path id="XMLID_108_" class="st1" d="M361,218.4c1.5-0.6,1.8-7.1-0.4-7.8c-1.4-0.5-9.8-2.1-15.7-3.2c-0.1-1-0.2-2-0.3-3
	c3.2-1.7,15.5-8.3,16.6-9.1c1.3-0.9,0.2-7.3-2.1-7.6c-1.6-0.2-11.6,0.2-17.6,0.5c-0.5-2-1.1-4.1-1.8-6.1c4.8-2.6,13.2-7.1,14.1-7.8
	c1.3-0.9,0.2-7.3-2.1-7.6c-1.6-0.2-11.8,0.2-17.8,0.5c-0.8-1.8-1.7-3.5-2.6-5.3c4.2-3.4,11.7-9.4,12.4-10.3c1.1-1.2-1.2-7.2-3.5-7
	c-1.6,0.1-11.3,2.3-17.2,3.7c-0.8-1.1-1.6-2.3-2.4-3.4c3.5-4.2,9.2-11.2,9.7-12.2c0.8-1.4-2.6-6.8-4.8-6.2c-1.4,0.4-9.3,4-14.8,6.5
	c-1.5-1.6-3.1-3.2-4.7-4.7c2.8-5.1,6.6-11.8,7-12.7c0.6-1.5-3.6-6.3-5.7-5.4c-1.3,0.6-8.2,5.1-13.2,8.4c-1.4-1-2.9-1.9-4.4-2.8
	c1.5-5.8,3.5-13.2,3.8-14.2c0.4-1.5-4.4-5.8-6.4-4.6c-1.3,0.8-8.3,6.9-12.8,10.8c-1.6-0.7-3.3-1.4-5-2.1c0.6-5.9,1.3-13.6,1.4-14.6
	c0.2-1.6-5.3-5-7-3.5c-1.1,1-7,8-10.8,12.7c-1.8-0.5-3.6-1-5.5-1.4c-0.6-6-1.5-15.5-1.6-16.5c-0.1-1.6-6.2-3.9-7.6-2.1
	c-1,1.3-5.7,9.9-8.6,15.2c-1.7-0.3-3.5-0.5-5.2-0.7c-1.3-5.8-3.6-15.8-3.8-16.9c-0.3-1.6-6.6-3.1-7.8-1.1c-0.8,1.4-4.6,11-6.8,16.6
	c-1.9-0.1-3.7-0.1-5.6-0.1c-2.4-5.5-6.3-14.6-6.8-15.6c-0.6-1.5-7.1-1.8-7.8,0.4c-0.5,1.4-2.1,9.8-3.2,15.8
	c-2.6,0.2-5.2,0.4-7.8,0.7c-3-5.3-7.4-13.2-7.9-14.1c-0.8-1.4-7.2-1.1-7.8,1.2c-0.4,1.4-1.1,9.6-1.6,15.6c-2.4,0.5-4.7,1-7,1.6
	c-3.2-5.1-8.6-13.7-9.4-14.5c-1.2-1.1-7.5,1-7.5,3.3c0,1.4,1.5,9.5,2.6,15.3c-3.6,1.2-7.1,2.5-10.6,3.9c-3.1-5.1-7.1-11.6-7.8-12.2
	c-1.1-1.1-7.6,0.9-7.5,3.2c0,1.4,1.3,9.1,2.4,14.9c-3.4,1.7-6.7,3.5-9.9,5.4c-4-4.2-8.9-9.2-9.7-9.7c-1.4-0.9-7.2,2.6-6.7,4.8
	c0.3,1.2,2.7,7.1,4.9,12.3c-2.6,1.8-5.1,3.7-7.6,5.7c-4.7-3.6-10.5-8-11.3-8.4c-1.5-0.7-6.7,3.6-5.9,5.7c0.5,1.2,3.8,6.8,6.7,11.7
	c-2.8,2.6-5.5,5.3-8.1,8c-5.4-2.5-12-5.5-13-5.7c-1.6-0.3-5.8,5-4.5,6.9c0.7,1,4.7,5.3,8.5,9.2c-1.8,2.3-3.6,4.7-5.2,7.1
	c-5.9-1.4-14.9-3.4-16-3.4c-1.6,0-4.6,6-3,7.6c0.9,0.9,6.6,4.8,11.3,8c-1.4,2.4-2.7,4.9-3.9,7.4c-6.1-0.4-15.3-1-16.4-0.9
	c-1.6,0.3-3.6,6.7-1.7,8c1.1,0.7,7.3,3.7,12.5,6.2c-0.7,1.9-1.3,3.9-1.9,5.9c-6.1,0.6-15,1.6-16,1.9c-1.5,0.5-2.4,7.2-0.3,8.2
	c1.2,0.5,7.6,2.4,13.1,3.9c-0.4,2.4-0.7,4.7-1,7.1c-5.6,2-15.8,5.8-16.8,6.4c-1.3,0.9-0.6,7.6,1.7,8c1.3,0.3,8.6,0.5,14.5,0.6
	c0,2.1,0.2,4.1,0.3,6.2c-5.4,2-16.3,5.9-17.3,6.6c-1.3,0.9-0.6,7.6,1.7,8c1.6,0.3,11.9,0.5,17.8,0.7c0.4,1.8,0.8,3.6,1.3,5.3
	c-4.7,2.9-15.3,9.3-16.2,10.2c-1.1,1.1,0.9,7.6,3.2,7.5c1.7,0,12.3-1.9,18.1-3c0.6,1.3,1.2,2.7,1.8,4c-4.7,5.1-11.6,12.7-12.2,13.5
	c-1,1.3,1.8,7.4,4.1,7.1c1.6-0.2,11.4-3.1,17.1-4.9c0.8,1.1,1.6,2.3,2.4,3.4c-4,5.6-9.7,13.6-10.2,14.5c-0.8,1.4,2.7,7.1,4.9,6.6
	c1.6-0.4,11.7-4.8,17-7.2c0.5,0.5,1,1,1.5,1.5c-2.4,6.5-6.1,16.6-6.4,17.6c-0.4,1.6,4.5,6.2,6.5,5c1.4-0.8,8.9-6.9,13.5-10.7
	c1.9,1.4,3.8,2.9,5.8,4.2c-2.4,6.5-6,16.4-6.3,17.5c-0.4,1.6,4.5,6.2,6.5,5c1.7-0.9,12.3-9.7,16-12.7c1.2,0.6,2.3,1.2,3.5,1.8
	c-0.9,6.8-2.2,16.5-2.3,17.6c-0.1,1.6,5.7,5,7.4,3.5c1.2-1.1,7.8-9.4,11.5-14c1.9,0.7,3.7,1.3,5.6,1.9c0.4,6.8,1,18.5,1.1,19.7
	c0.2,1.6,6.5,3.9,7.9,2.1c1.1-1.4,6.7-12.1,9.2-17c2.6,0.5,5.2,1,7.8,1.4c0.6,5.3,1.6,14.1,1.8,15.2c0.3,1.6,6.7,3.5,8,1.6
	c1-1.4,5-10.6,6.9-15c2.5,0.2,5,0.3,7.5,0.3c2.6,6.2,6,13.9,6.4,14.7c0.7,1.4,7.5,1.4,8.2-0.8c0.4-1.3,1.4-8.5,2.2-14.3
	c3.8-0.3,7.6-0.6,11.4-1.1c3.1,5.7,6.7,12.3,7.2,13c0.9,1.4,7.6,0.7,8.1-1.5c0.3-1.3,0.6-8.7,0.9-14.5c2.9-0.7,5.8-1.5,8.7-2.4
	c4.2,5.3,9.5,12,10.1,12.7c1.1,1.2,7.6-0.6,7.7-2.9c0.1-1.5-1-9.8-1.8-15.8c2.8-1.2,5.6-2.5,8.4-3.8c4.6,4.8,10.4,10.8,11.1,11.4
	c1.2,1.1,7.1-1.4,6.9-3.7c-0.1-1.5-2.2-9.8-3.7-15.6c2.4-1.5,4.8-3,7.1-4.5c5.8,3.5,15.5,9.5,16.5,10c1.4,0.7,6.6-3.1,5.8-5.3
	c-0.5-1.5-5.2-10-8.1-15.2c1.7-1.4,3.4-2.8,5-4.3c6.3,2.6,16.3,6.7,17.3,7c1.5,0.5,6-4.1,4.9-6.1c-0.7-1.3-6.1-8.2-9.8-12.9
	c1.2-1.3,2.4-2.6,3.6-3.9c6.4,1,19.2,3.1,20.4,3.2c1.6,0.1,4.9-5.4,3.4-7.1c-1-1.1-7.8-6.6-12.5-10.4c1-1.3,1.9-2.7,2.8-4.1
	c5.2,0,21.3,0.1,22.7,0c1.6-0.1,4-6.1,2.2-7.5c-1.2-1-10-6.1-15.2-9c1-2,2-4.1,2.9-6.2c4.2,0.3,17.1,1.2,18.5,1.1
	c1.6-0.1,4-6.1,2.2-7.5c-1.2-1-9.7-5.9-14.9-8.8c0.6-2,1.2-4,1.7-6.1c5-0.5,16-1.6,17.2-1.9c1.6-0.4,2.9-6.7,0.9-7.8
	c-1.3-0.7-9.7-3.9-15.4-6c0.2-1.8,0.3-3.6,0.4-5.4C350.4,221.5,360,218.9,361,218.4z"/>
<path id="XMLID_107_" class="st1" d="M326.9,228.1c-1.9,32.3-21.1,57.4-43.8,79.4c-26.7,25.8-56.4,37.4-98.7,40.6
	c-73.8,5.5-144.9-38.3-137.4-126.6c1.5-18.2,21.6-61.6,59.6-84.6c21.6-13.1,43.3-29.2,89.4-29.1C274.5,107.7,331.5,151,326.9,228.1z
	"/>
<path id="XMLID_106_" class="st1" d="M262.2,197.9c11.1,44.4-14.8,89.1-57.8,99.8c-43,10.7-86.8-16.6-97.9-61
	c-11.1-44.4,9.6-88,57.8-99.8C207.4,126.4,251.1,153.5,262.2,197.9z"/>
<path id="XMLID_105_" class="st1" d="M291.5,230.8c-7.6-5.1-17.8-27.6-20.7-33.2c-4.3-8.3-10.6-16.3-14.8-21.3
	c-7.8-9-2.8-15.2-2.8-15.2s17-9.2,29-1.9c6.5,3.9,13.6,14.2,19.5,24.7c3.9,6.8,13,32.6,11,36.9C309,228.8,297.5,234.7,291.5,230.8z"
	/>
<path id="XMLID_104_" class="st1" d="M296,244.3c-10.9-1.2-16.6-3.8-16-16.9c0.5-12.2-12.4-29.3-19.5-37.6c-7.8-9-2.8-15.2-2.8-15.2
	s17-9.2,29-1.9c10.6,6.5,23,30.1,29.2,43.9C325.7,238.3,306.9,245.5,296,244.3z"/>
<path id="XMLID_103_" class="st0" d="M118.9,332c-0.6-18.6,16.8-23.8,24.7-23.3c7.9,0.5,16.8,7.6,29.2,9.4
	c12.4,1.8,15.8,1.4,25.3,0.3c9.4-1,14.5-4.3,24.6-5.8c8.7-1.3,15.5,10,7.9,18.1C191,350.6,118.9,339.9,118.9,332z"/>
<path id="XMLID_100_" class="st1" d="M252.7,181.9c-8.7-35.1-48.4-55.3-88.9-45.1c-40.4,10.2-66.2,47-57.6,82.1
	c8.7,35.1,48.4,55.3,88.9,45.1C235.6,253.8,261.3,217,252.7,181.9z M179.5,226.5c-17.2,0-31.1-11.8-31.1-26.4
	c0-14.6,13.9-26.4,31.1-26.4s31.1,11.8,31.1,26.4C210.5,214.7,196.6,226.5,179.5,226.5z"/>
<path id="XMLID_99_" class="st0" d="M72.7,200.5c-10.9,19.4,5.6,33.3,30.9,16.9c-2.1-39.6,24.2-61.5,31.4-67.3
	C111.4,144.8,80.7,183.8,72.7,200.5z"/>
<path id="XMLID_98_" class="st1" d="M74.5,221.8c-6.4,14.1,9.8,21,29.9,6.9c-1.7-19.2,1-39.9,4.5-44.8
	C105.1,181.2,78.7,209.9,74.5,221.8z"/>
<path id="XMLID_97_" class="st1" d="M123.9,339.5c-0.5-15.2,16-19.6,23.6-19.1c7.6,0.4,16,6.2,27.9,7.7c11.9,1.5,15.1,1.1,24.1,0.3
	c9-0.9,13.9-3.5,23.5-4.7c8.4-1,14.8,8.2,7.6,14.8C192.8,354.7,123.9,346,123.9,339.5z"/>
<ellipse id="XMLID_96_" class="st1" cx="179.7" cy="199.6" rx="31.3" ry="26.9"/>
<path id="XMLID_95_" class="st0" d="M366.6,317.2c-0.3,0.9-2.4-0.8-2.8-2.6c-0.4-1.9-4.4-40-4.4-40l4.7,3.2
	C364.1,277.7,366.9,316.3,366.6,317.2z"/>
<path id="XMLID_94_" class="st0" d="M390.2,331.2c-0.3,0.9-4.6-0.7-5.2-2.6c-1.4-5.2-3.6-39.9-3.6-39.9l4.8,2.4
	C386.3,291.1,390.5,330.3,390.2,331.2z"/>
<path id="XMLID_93_" class="st0" d="M419.2,336.7c-1,0.7-3.7,1.2-4.7-0.7c-1-1.8-4.6-38.2-3.9-40c0.7-1.9,4.7-1.1,5.4-0.4
	C416.7,296.4,420.2,336,419.2,336.7z"/>
<path id="XMLID_92_" class="st0" d="M451.4,327.9c0,2.3-3.3,4.6-3.6,3.3c-0.5-1.8-4.9-39.6-4.9-39.6l4.4-3.6
	C447.4,288.1,451.4,326.9,451.4,327.9z"/>
<path id="XMLID_91_" class="st0" d="M472.3,314.1c0,0-2,2.3-2.8,1.4c-1-1.1-3.3-40.6-3.3-40.6l3.1-4.1c0,0,1.4,16.5,1.4,19.4
	C470.7,302,472.3,313,472.3,314.1z"/>
<polygon id="XMLID_90_" class="st0" points="486.7,291 484.7,291 480.6,250.1 482.9,248.6 "/>
<polygon id="XMLID_89_" class="st0" points="483.6,248.2 481.3,248.6 480.6,223.5 482.7,223.5 "/>
<path id="XMLID_88_" class="st1" d="M481.6,244c-1.7-0.7-15.4-7.6-20-9.8c0-1.1,0.1-2.2,0.1-3.4c3.3-0.8,16.7-3.9,19.9-4.7
	c2.5-0.6,1.3-6.2-0.7-6.6c-1.6-0.3-14.3-3.2-19.5-4.3c-0.1-0.9-0.3-1.9-0.5-2.9c2.7-2.1,8.6-6.5,10.6-7.8c1.8-1.2-0.2-6.3-1.8-6.2
	c-1.6,0.1-12.1-0.1-12.1-0.1l-2.7-0.1l0,0c-2.1-3.3-4-2.4-6.8-5.4c0.8-1.7,1.4-3.2,1.6-4c1.1-3.4-3.2-5.4-5.1-4.3
	c-0.4,0.3-1.7,1-3.5,2c-7.4-5.6-17.4-7.3-27.1-7.3c-12.6,0-21.1,3.5-29.5,8.4c-1.9-0.6-3.7-0.3-4.5-0.4c-3.5-0.7-6.6,2.6-5.3,4.3
	c0.2,0.3,1.1,1.7,2,2.8c-1.2,1.7-1.5,3.5-2.8,4.4c-1.1,0.7-3.3,0.6-4.1,0.6c-3.6-0.2-12.3,0.8-13.6,0.9c-3.5,0.3-3.3,5.8-1.5,7.1
	c0.7,0.5,9.6,2.3,13.1,5c-0.2,1.5-0.6,4.4-0.6,5.9c-5.9,1.6-15,4.1-17.4,5.1c-3.3,1.4-2,6,0.1,6.7c1.3,0.4,10.9,3.6,17.1,5.7
	c0,0.5,0.5,4.2,0.4,4.6c-4.7,2.8-16.8,5.7-19.2,7.6c-2.8,2.2-0.2,6.3,2,6.4c1.4,0.1,19.4-0.6,22.1-0.3c1.2,0.1,1.1,1.1,2,2.4
	c-3.6,4.5-13.7,13.4-14.8,16c-1.3,3.3,2.3,5.6,4.5,5.3c2.6-0.4,14.7-8.5,19.6-11.4c0.4,0.2,2.9,2.1,3.3,2.3
	c-0.7,5.9-5.5,16.7-5.4,19.4c0.1,3.5,4.8,4,6.3,2.4c1-1.2,8.6-10.1,12.8-15c0.9,0.2,1.9,0.4,2.8,0.5c1.7,5.4,5.4,16.6,6.7,19.2
	c1.5,3.2,6.1,1.7,6.7-0.4c0.4-1.5,3.4-11.9,5.2-18.2c1.5-0.2,3.1-0.5,4.6-0.8c3.5,3.7,12.6,13.3,15.1,15.3c2.8,2.2,6.2-1.1,5.8-3.2
	c-0.3-1.6-2.3-14.3-3.3-20.4c0.2-0.2,0.4-0.3,0.7-0.5c4.5,1.9,17,7.3,20.1,8.1c3.4,0.9,5.3-3.5,4.1-5.3c-1-1.5-8.7-13.5-11.8-18.3
	c0.1-0.2,0.2-0.5,0.4-0.7c4.1,0,20-0.4,23.4,0C484.1,251,484.4,245.2,481.6,244z"/>
<path id="XMLID_87_" class="st1" d="M461.4,232c0,24.6-21.2,44.6-47.4,44.6c-26.2,0-47.4-20-47.4-44.6c0-1.3,0.2-16.2,0.4-17.5
	c1.2-10.4,22.3-27.1,47-27.1c22.9,0,46.4,14.6,46.9,23.2C461.1,213.3,461.4,228.9,461.4,232z"/>
<path id="XMLID_86_" class="st1" d="M461.4,228.9c0,22.9-21.2,41.5-47.4,41.5c-26.2,0-47.4-18.6-47.4-41.5c0-1.2,0.2-15.1,0.4-16.3
	c1.2-9.7,22.3-25.2,47-25.2c22.9,0,46.4,13.6,46.9,21.5C461.1,211.5,461.4,226,461.4,228.9z"/>
<path id="XMLID_85_" class="st1" d="M461,212.9c0,19.7-21,35.7-47,35.7c-26,0-47-16-47-35.7c0-19.7,21-33.9,47-33.9
	C440,179,461,193.2,461,212.9z"/>
<path id="XMLID_84_" class="st1" d="M438.8,213.8c0,10.8-11.1,19.6-24.8,19.6c-13.7,0-24.8-8.8-24.8-19.6
	c0-10.8,11.1-19.6,24.8-19.6C427.7,194.2,438.8,203,438.8,213.8z"/>
<polygon id="XMLID_83_" class="st0" points="471.5,217.5 469.5,216.9 468.8,206.6 471,204.8 "/>
<path id="XMLID_82_" class="st2" d="M369.6,253.4c1.5-0.6,1.8-7.1-0.4-7.8c-1.4-0.5-9.8-2.1-15.7-3.2c-0.1-1-0.2-2-0.3-3
	c3.2-1.7,15.5-8.3,16.6-9.1c1.3-0.9,0.2-7.3-2.1-7.6c-1.6-0.2-11.6,0.2-17.6,0.5c-0.5-2-1.1-4.1-1.8-6.1c4.8-2.6,13.2-7.1,14.1-7.8
	c1.3-0.9,1.2-13.8-1.1-14c-1.6-0.2-12.9,6.7-18.8,7c-0.8-1.8-1.7-3.5-2.6-5.3c4.2-3.4,18.5-8.4,19.3-9.2c0,0-3.1-16.8-5.4-16.6
	c-1.6,0.1-16.2,10.9-22,12.3c-0.8-1.1-1.6-2.3-2.4-3.4c3.5-4.2,20.9-13.2,19.8-13.2c-1.4,0-5.1-16.7-5.1-16.7
	c-1.4,0.4-19.2,15.6-24.7,18.2c-1.5-1.6-3.1-3.2-4.7-4.7c2.8-5.1,19.1-16.7,19.5-17.6c0.6-1.5-3.7-14.6-3.7-14.6
	c-1.3,0.6-22.8,19.3-27.8,22.6c-1.4-1-2.9-1.9-4.4-2.8c1.5-5.8,16.7-19.2,17.2-20c1.4-2.6-1.3-14.6-2.4-15.2
	c-1.3-0.8-25.7,23.4-30.2,27.4c-1.6-0.7,14.8-24.8,13.1-25.5c-0.1-4-2.8-13.7-2.7-14.7c0.2-1.6-19.3,18.5-21,20
	c-1.1,1,2.1-14.9,2.1-14.9c-1.8-0.5-1.9-15.2-3.7-15.6c-0.6-6-16.2,26.2-16.3,25.2c-0.1-1.6-6.6-30.9-8-29.1c-1,1.3-5.3,37-8.2,42.3
	c-1.7-0.3-3.5-0.5-5.2-0.7c-1.3-5.8-3.6-15.8-3.8-16.9c-0.3-1.6-6.6-3.1-7.8-1.1c-0.8,1.4-4.5-35.4-8.5-31.7
	c-18.3,20.4-1.9,48.1-3.8,48.1c-2.4-5.5-6.3-14.6-6.8-15.6c-0.6-1.5-16.2-34-17.1-31.9c-7,17.4,7.1,42.1,6,48.1
	c-2.6,0.2-5.2,0.4-7.8,0.7c-3-5.3-7.4-13.2-7.9-14.1c-0.8-1.4-7.2-1.1-7.8,1.2c-0.3,1.4-9.1-31.2-9.6-25.3c-3.1,3.1,3.4,41.9,1,42.4
	c-3.2-5.1-8.6-13.7-9.4-14.5c-1.2-1.1-7.5,1-7.5,3.3c0,1.4-8.3-34.8-7.2-28.9c-4.1,11.1,2.7,46.8-0.8,48.2
	c-3.1-5.1-7.1-11.6-7.8-12.2c-1.1-1.1-7.6,0.9-7.5,3.2c0,1.4-5.9-37.6-8.2-32.3c-3.4,1.7,3.9,50.7,0.7,52.6c-4-4.2-8.9-9.2-9.7-9.7
	c-1.4-0.9-7.2,2.6-6.7,4.8c0.3,1.2-5.2-39.9-7-35c-5.9,2.2,6.7,51,4.3,53c-4.7-3.6-21.7-31.5-22.5-31.9c-1.5-0.7,0.6,14.1-4.6,13.8
	c-1.3-0.1-13.1,1.1-15.9,3c-2.8,2.6,3.7,11.6,1.1,14.3c-2.3-0.5-17.3,4.3-18.4,4.4c-1.6,0,6.3,15.1,5.2,15.3
	c-1.6,0.3-16.1,5-15.9,7.3c0.3,2.8,3.1,9.5,2.8,11.9c-0.6,4.9-8.2,9.1-8.5,10.3c-0.7,1.9,4.3,17.3-2.9,23.7c-1.2,1.1,0,12.1,2,13.1
	c1.2,0.5,0.4,9.5-0.5,10.2c-1.3,0.9,1.1,12.7,3.4,13.1c1.3,0.3,1.4,9.7,0.4,10.4c-1.3,0.9,1.5,10.7,2.3,11.3c1.3,1,5.7,12,5.8,13.1
	c0,1.6,1.3,9.9,3.2,11.2c2.2,1.4,6.1,12,6.4,13.5c0,0,3.5,11.6,9.4,11.8c1.6,0.1,8.2,18.3,10.5,17.8c1.6-0.4,2.7-1.6,5.2-3.1
	c0.5,0.5,0.8,0.6,1.3,1.1c1.6,6.4,5.6,17.9,6.3,18.7c1.6,1.9,11.2-2.6,11.8-3.1l2,0.6c1.7,5.7,4.4,14.9,4.4,14.9
	c1.1,1.5,8.4,2.3,8.4,2.3c1.7-0.9,4.1-3.7,7.8-6.8c0,0,1.5,0.2,2.7,0.7c0.7,3.4,3.8,14,4.2,16.1c0,0,6.4,1.4,8.4,0.7
	c0,0,6-5.6,9.7-9.5c0,0,0.8-0.4,2.7,0.2c0.9,6.8,4,16.5,4.1,17.7c0,0,7.2,1.4,8.6-0.4c1.1-1.4,7.1-8.3,10.5-13c0,0,3.5,0.2,4,0.3
	c1.1,5.8,2.9,13.4,3.2,14.5c0.3,1.6,10.6,2.6,11.9,0.7c1-1.4,4.3-10.2,6.2-14.6c1.5,0.1,4.3,0.2,6.2,0.5c2.6,6.2,3.4,12,3.9,12.9
	c0.7,1.4,7.5,1.4,8.2-0.8c0.4-1.3,1.4-8.5,2.2-14.3c3.8-0.3,7.6-0.6,11.4-1.1c3.1,5.7,6.7,12.3,7.2,13c0.9,1.4,7.6,0.7,8.1-1.5
	c0.3-1.3,0.6-8.7,0.9-14.5c2.9-0.7,5.8-1.5,8.7-2.4c4.2,5.3,9.5,12,10.1,12.7c1.1,1.2,7.6-0.6,7.7-2.9c0.1-1.5-1-9.8-1.8-15.8
	c2.8-1.2,5.6-2.5,8.4-3.8c4.6,4.8,10.4,10.8,11.1,11.4c1.2,1.1,7.1-1.4,6.9-3.7c-0.1-1.5-2.2-9.8-3.7-15.6c2.4-1.5,3.7-0.6,6-2.2
	c5.8,3.5,13,7.8,14,8.3c1.4,0.7,8.2-0.7,7.4-2.8c-0.5-1.5-1.6-10.9-3.4-18.4c1-0.7,2.7-1.2,2.7-1.2c6.3,2.9,14.6,7.3,15.6,7.6
	c1.5,0.5,5.4-4.6,5.6-6.7c0.2-1.5-1.2-3.9-2.5-15.2l0.4-0.7c6.4,1,14.8,2.3,16,2.4c1.6,0.1,3.7-3.5,3.4-10c0-1.1-3-11-2-12.3
	c5.2,0,9.8,1.3,11.2,1.2c1.6-0.1,4.3-9,3.9-11.3c-0.4-2.4-0.4-6.9-1.3-9.8c1.1-0.8,7.3-0.4,8.6-0.5c1.6-0.1,4.4-8.9,4.1-11.2
	c-0.2-1.6,3.1-15.2,4-16.8c0.8-1.4,0.1-10.8-1.9-12c-1.3-0.7-6.9,0.3-12.6-1.8c0.2-1.8,0.3-3.6,0.4-5.4
	C359,256.5,368.5,253.9,369.6,253.4z"/>
<path id="XMLID_81_" class="st2" d="M480.8,245.5c-0.1-0.9,3.2,19.1,3.2,19.1l-2.7-40.5l-10.1-6.8c-0.9-2.8-0.3-8.8-0.6-13.7
	c0,0-11.8,9.4-14.4,12.1c-2.4,2.6-6.2,3.5-8.1,4.6c-0.4,0.3-1.7,1-3.5,2c-7.4-5.6-16.3-9.4-26-9.4c-12.6,0-24.1,4.3-32.5,11.8
	c-1.9-0.6-3.4-1-4.2-1.2c-3.5-0.7-5,3.9-3.6,5.6c0.2,0.3,0.9,1.2,1.8,2.3c-2.3,3.1-4.1,6.6-5.6,10.3c-3.6-0.2-6.8-0.3-8.1-0.2
	c-3.5,0.3-3.8,5-2.1,6.4c0.7,0.5,3.8,3,7.4,5.7c-0.2,1.5-2.5-0.8-2.6,0.7c-4.8,0-17.1-1-19.5,0c-3.3,1.4-1.2,9.2,3.3,11.1
	c0.3,0.1,6,7.8,6.5,9l1.8,2.1c0.7,6.5,2.2,32.8,2.4,36c0.2,3.6,2.9,5.6,4.8,4.6c1.4-0.7,5.8-2.6,11.2-6.5c0.4,0.2,2.6,0,3,0.2
	c0.5,3.3,1.6,13.2,2.1,16.5c0.6,3.5,5.7,4.9,7.1,3.2c1-1.2,8.6-10.1,12.8-15c0.9,0.2,1.9,0.4,2.8,0.5c1.7,5.4,5.4,16.6,6.7,19.2
	c1.5,3.2,6.1,1.7,6.7-0.4c0.4-1.5,3.4-11.9,5.2-18.2c1.5-0.2,3.1-0.5,4.6-0.8c3.5,3.7,12.6,13.3,15.1,15.3c2.8,2.2,6.2-1.1,5.8-3.2
	c-0.3-1.6-1.9-14.4-2.9-20.5c0.2-0.2,1.2-0.3,1.4-0.5c3.6,1.5,14.2,7.2,19.5,8.6c1.4,0.4,2.3-1.1,2.3-1.1s-1.2-22.2-1.1-22.5
	c0,0,0.6-1.3,1.2-1.3c4.2-0.2,11.8,0.4,14.8,0.4C486.7,291,483.5,251.1,480.8,245.5z"/>
<path id="XMLID_80_" class="st3" d="M321.9,362c0,0-4.1,5.6-6.1,4.7c-0.7-1.8-6.1-37.4-6.1-37.4l4.5-5.7L321.9,362z"/>
<path id="XMLID_79_" class="st3" d="M301.6,380.8c0,0-4.4,3.7-8.1,1.4c-0.4-1.9-3.4-35.3-3.4-35.3l4.3-2.9L301.6,380.8z"/>
<path id="XMLID_78_" class="st3" d="M338.5,344.5c0,0-2,4.1-4.1,3.1c-0.7-1.8-4.8-38.4-4.8-38.4l2.4-5.9L338.5,344.5z"/>
<path id="XMLID_77_" class="st3" d="M277.8,393.6c0,0-3.9,4-7.6,1.9c-0.4-1.8-4.9-34.8-4.9-34.8l3.9-3.2L277.8,393.6z"/>
<path id="XMLID_76_" class="st3" d="M252.4,405.4c0,0-3.3,3.1-7.1,1.3c-0.5-1.8-6.7-34.5-6.7-34.5l6-2.6L252.4,405.4z"/>
<path id="XMLID_75_" class="st3" d="M224.2,412.6c0,0-5,2.1-7.1-1.3c-0.4-1.8-7.1-33.3-7.1-33.3l6.8-1.1L224.2,412.6z"/>
<path id="XMLID_74_" class="st3" d="M195.5,416.3c0,0-4.7,1.3-7.1-1.1c-0.4-1.8-7.1-33.8-7.1-33.8l6.8-0.6L195.5,416.3z"/>
<path id="XMLID_73_" class="st3" d="M167.9,418.1c0,0-5.4,0.7-7.5-3c-0.4-2-7.4-35.6-7.4-35.6l5.4,0.7L167.9,418.1z"/>
<path id="XMLID_72_" class="st3" d="M142,415.2c0,0-6.3,0.6-7.5-0.2c-0.4-2-8.5-36.9-8.5-36.9l5.9,1.1L142,415.2z"/>
<path id="XMLID_71_" class="st3" d="M117,406.8c0,0-6.3-0.5-7.5-1.3c-0.4-2-10.5-39.1-10.5-39.1l7,4.3L117,406.8z"/>
<path id="XMLID_70_" class="st3" d="M93.2,395.5c0,0-5.5-1.3-6.7-2.1c-0.4-2-10.9-38.1-10.9-38.1l5.8,3.9L93.2,395.5z"/>
<path id="XMLID_69_" class="st3" d="M72.5,380.9c0,0-3,1-4.3,0c-0.4-2.3-12.6-41.8-12.6-41.8l5.6,3.9L72.5,380.9z"/>
<polygon id="XMLID_68_" class="st3" points="51.5,356.7 50.6,356.9 46.9,349.2 38.7,321.3 42.8,325.8 "/>
<polygon id="XMLID_67_" class="st3" points="31.7,324.9 29.5,321.6 25.2,300.7 29.4,303.9 "/>
<polygon id="XMLID_66_" class="st3" points="351.3,321.6 348.5,326.6 344.1,288 345.9,286.1 "/>
<linearGradient id="XMLID_127_" gradientUnits="userSpaceOnUse" x1="9.2618" y1="228.9872" x2="362.2016" y2="228.9872">
	<stop  offset="6.060610e-002" style="stop-color:#B0B2B3"/>
	<stop  offset="0.1515" style="stop-color:#FFFFFF"/>
	<stop  offset="0.2727" style="stop-color:#B0B2B3"/>
	<stop  offset="0.4" style="stop-color:#F0F1F1"/>
	<stop  offset="0.5152" style="stop-color:#B0B2B3"/>
	<stop  offset="0.6303" style="stop-color:#FFFFFF"/>
	<stop  offset="0.7212" style="stop-color:#C5C6C8"/>
	<stop  offset="0.8182" style="stop-color:#F5F5F6"/>
	<stop  offset="0.9515" style="stop-color:#B0B2B3"/>
</linearGradient>
<path id="XMLID_65_" class="st4" d="M361,218.4c1.5-0.6,1.8-7.1-0.4-7.8c-1.4-0.5-9.8-2.1-15.7-3.2c-0.1-1-0.2-2-0.3-3
	c3.2-1.7,15.5-8.3,16.6-9.1c1.3-0.9,0.2-7.3-2.1-7.6c-1.6-0.2-11.6,0.2-17.6,0.5c-0.5-2-1.1-4.1-1.8-6.1c4.8-2.6,13.2-7.1,14.1-7.8
	c1.3-0.9,0.2-7.3-2.1-7.6c-1.6-0.2-11.8,0.2-17.8,0.5c-0.8-1.8-1.7-3.5-2.6-5.3c4.2-3.4,11.7-9.4,12.4-10.3c1.1-1.2-1.2-7.2-3.5-7
	c-1.6,0.1-11.3,2.3-17.2,3.7c-0.8-1.1-1.6-2.3-2.4-3.4c3.5-4.2,9.2-11.2,9.7-12.2c0.8-1.4-2.6-6.8-4.8-6.2c-1.4,0.4-9.3,4-14.8,6.5
	c-1.5-1.6-3.1-3.2-4.7-4.7c2.8-5.1,6.6-11.8,7-12.7c0.6-1.5-3.6-6.3-5.7-5.4c-1.3,0.6-8.2,5.1-13.2,8.4c-1.4-1-2.9-1.9-4.4-2.8
	c1.5-5.8,3.5-13.2,3.8-14.2c0.4-1.5-4.4-5.8-6.4-4.6c-1.3,0.8-8.3,6.9-12.8,10.8c-1.6-0.7-3.3-1.4-5-2.1c0.6-5.9,1.3-13.6,1.4-14.6
	c0.2-1.6-5.3-5-7-3.5c-1.1,1-7,8-10.8,12.7c-1.8-0.5-3.6-1-5.5-1.4c-0.6-6-1.5-15.5-1.6-16.5c-0.1-1.6-6.2-3.9-7.6-2.1
	c-1,1.3-5.7,9.9-8.6,15.2c-1.7-0.3-3.5-0.5-5.2-0.7c-1.3-5.8-3.6-15.8-3.8-16.9c-0.3-1.6-6.6-3.1-7.8-1.1c-0.8,1.4-4.6,11-6.8,16.6
	c-1.9-0.1-3.7-0.1-5.6-0.1c-2.4-5.5-6.3-14.6-6.8-15.6c-0.6-1.5-7.1-1.8-7.8,0.4c-0.5,1.4-2.1,9.8-3.2,15.8
	c-2.6,0.2-5.2,0.4-7.8,0.7c-3-5.3-7.4-13.2-7.9-14.1c-0.8-1.4-7.2-1.1-7.8,1.2c-0.4,1.4-1.1,9.6-1.6,15.6c-2.4,0.5-4.7,1-7,1.6
	c-3.2-5.1-8.6-13.7-9.4-14.5c-1.2-1.1-7.5,1-7.5,3.3c0,1.4,1.5,9.5,2.6,15.3c-3.6,1.2-7.1,2.5-10.6,3.9c-3.1-5.1-7.1-11.6-7.8-12.2
	c-1.1-1.1-7.6,0.9-7.5,3.2c0,1.4,1.3,9.1,2.4,14.9c-3.4,1.7-6.7,3.5-9.9,5.4c-4-4.2-8.9-9.2-9.7-9.7c-1.4-0.9-7.2,2.6-6.7,4.8
	c0.3,1.2,2.7,7.1,4.9,12.3c-2.6,1.8-5.1,3.7-7.6,5.7c-4.7-3.6-10.5-8-11.3-8.4c-1.5-0.7-6.7,3.6-5.9,5.7c0.5,1.2,3.8,6.8,6.7,11.7
	c-2.8,2.6-5.5,5.3-8.1,8c-5.4-2.5-12-5.5-13-5.7c-1.6-0.3-5.8,5-4.5,6.9c0.7,1,4.7,5.3,8.5,9.2c-1.8,2.3-3.6,4.7-5.2,7.1
	c-5.9-1.4-14.9-3.4-16-3.4c-1.6,0-4.6,6-3,7.6c0.9,0.9,6.6,4.8,11.3,8c-1.4,2.4-2.7,4.9-3.9,7.4c-6.1-0.4-15.3-1-16.4-0.9
	c-1.6,0.3-3.6,6.7-1.7,8c1.1,0.7,7.3,3.7,12.5,6.2c-0.7,1.9-1.3,3.9-1.9,5.9c-6.1,0.6-15,1.6-16,1.9c-1.5,0.5-2.4,7.2-0.3,8.2
	c1.2,0.5,7.6,2.4,13.1,3.9c-0.4,2.4-0.7,4.7-1,7.1c-5.6,2-15.8,5.8-16.8,6.4c-1.3,0.9-0.6,7.6,1.7,8c1.3,0.3,8.6,0.5,14.5,0.6
	c0,2.1,0.2,4.1,0.3,6.2c-5.4,2-16.3,5.9-17.3,6.6c-1.3,0.9-0.6,7.6,1.7,8c1.6,0.3,11.9,0.5,17.8,0.7c0.4,1.8,0.8,3.6,1.3,5.3
	c-4.7,2.9-15.3,9.3-16.2,10.2c-1.1,1.1,0.9,7.6,3.2,7.5c1.7,0,12.3-1.9,18.1-3c0.6,1.3,1.2,2.7,1.8,4c-4.7,5.1-11.6,12.7-12.2,13.5
	c-1,1.3,1.8,7.4,4.1,7.1c1.6-0.2,11.4-3.1,17.1-4.9c0.8,1.1,1.6,2.3,2.4,3.4c-4,5.6-9.7,13.6-10.2,14.5c-0.8,1.4,2.7,7.1,4.9,6.6
	c1.6-0.4,11.7-4.8,17-7.2c0.5,0.5,1,1,1.5,1.5c-2.4,6.5-6.1,16.6-6.4,17.6c-0.4,1.6,4.5,6.2,6.5,5c1.4-0.8,8.9-6.9,13.5-10.7
	c1.9,1.4,3.8,2.9,5.8,4.2c-2.4,6.5-6,16.4-6.3,17.5c-0.4,1.6,4.5,6.2,6.5,5c1.7-0.9,12.3-9.7,16-12.7c1.2,0.6,2.3,1.2,3.5,1.8
	c-0.9,6.8-2.2,16.5-2.3,17.6c-0.1,1.6,5.7,5,7.4,3.5c1.2-1.1,7.8-9.4,11.5-14c1.9,0.7,3.7,1.3,5.6,1.9c0.4,6.8,1,18.5,1.1,19.7
	c0.2,1.6,6.5,3.9,7.9,2.1c1.1-1.4,6.7-12.1,9.2-17c2.6,0.5,5.2,1,7.8,1.4c0.6,5.3,1.6,14.1,1.8,15.2c0.3,1.6,6.7,3.5,8,1.6
	c1-1.4,5-10.6,6.9-15c2.5,0.2,5,0.3,7.5,0.3c2.6,6.2,6,13.9,6.4,14.7c0.7,1.4,7.5,1.4,8.2-0.8c0.4-1.3,1.4-8.5,2.2-14.3
	c3.8-0.3,7.6-0.6,11.4-1.1c3.1,5.7,6.7,12.3,7.2,13c0.9,1.4,7.6,0.7,8.1-1.5c0.3-1.3,0.6-8.7,0.9-14.5c2.9-0.7,5.8-1.5,8.7-2.4
	c4.2,5.3,9.5,12,10.1,12.7c1.1,1.2,7.6-0.6,7.7-2.9c0.1-1.5-1-9.8-1.8-15.8c2.8-1.2,5.6-2.5,8.4-3.8c4.6,4.8,10.4,10.8,11.1,11.4
	c1.2,1.1,7.1-1.4,6.9-3.7c-0.1-1.5-2.2-9.8-3.7-15.6c2.4-1.5,4.8-3,7.1-4.5c5.8,3.5,15.5,9.5,16.5,10c1.4,0.7,6.6-3.1,5.8-5.3
	c-0.5-1.5-5.2-10-8.1-15.2c1.7-1.4,3.4-2.8,5-4.3c6.3,2.6,16.3,6.7,17.3,7c1.5,0.5,6-4.1,4.9-6.1c-0.7-1.3-6.1-8.2-9.8-12.9
	c1.2-1.3,2.4-2.6,3.6-3.9c6.4,1,19.2,3.1,20.4,3.2c1.6,0.1,4.9-5.4,3.4-7.1c-1-1.1-7.8-6.6-12.5-10.4c1-1.3,1.9-2.7,2.8-4.1
	c5.2,0,21.3,0.1,22.7,0c1.6-0.1,4-6.1,2.2-7.5c-1.2-1-10-6.1-15.2-9c1-2,2-4.1,2.9-6.2c4.2,0.3,17.1,1.2,18.5,1.1
	c1.6-0.1,4-6.1,2.2-7.5c-1.2-1-9.7-5.9-14.9-8.8c0.6-2,1.2-4,1.7-6.1c5-0.5,16-1.6,17.2-1.9c1.6-0.4,2.9-6.7,0.9-7.8
	c-1.3-0.7-9.7-3.9-15.4-6c0.2-1.8,0.3-3.6,0.4-5.4C350.4,221.5,360,218.9,361,218.4z"/>
<linearGradient id="XMLID_128_" gradientUnits="userSpaceOnUse" x1="46.3532" y1="228.0762" x2="327.17" y2="228.0762">
	<stop  offset="3.030300e-002" style="stop-color:#1A171B"/>
	<stop  offset="0.2727" style="stop-color:#3D3D3F"/>
	<stop  offset="0.4364" style="stop-color:#58585A"/>
	<stop  offset="0.5515" style="stop-color:#3D3D3F"/>
	<stop  offset="0.7636" style="stop-color:#58585A"/>
	<stop  offset="1" style="stop-color:#1A171B"/>
</linearGradient>
<path id="XMLID_64_" class="st5" d="M326.9,228.1c-1.9,32.3-21.1,57.4-43.8,79.4c-26.7,25.8-56.4,37.4-98.7,40.6
	c-73.8,5.5-144.9-38.3-137.4-126.6c1.5-18.2,21.6-61.6,59.6-84.6c21.6-13.1,43.3-29.2,89.4-29.1C274.5,107.7,331.5,151,326.9,228.1z
	"/>
<linearGradient id="XMLID_129_" gradientUnits="userSpaceOnUse" x1="106.312" y1="217.602" x2="263.8313" y2="217.1288">
	<stop  offset="3.030300e-002" style="stop-color:#1A171B"/>
	<stop  offset="0.503" style="stop-color:#58585A"/>
	<stop  offset="0.7152" style="stop-color:#6F7072"/>
	<stop  offset="1" style="stop-color:#1A171B"/>
</linearGradient>
<path id="XMLID_63_" class="st6" d="M262.2,197.9c11.1,44.4-14.8,89.1-57.8,99.8c-43,10.7-86.8-16.6-97.9-61
	c-11.1-44.4,9.6-88,57.8-99.8C207.4,126.4,251.1,153.5,262.2,197.9z"/>
<path id="XMLID_62_" class="st7" d="M291.5,230.8c-7.6-5.1-17.8-27.6-20.7-33.2c-4.3-8.3-10.6-16.3-14.8-21.3
	c-7.8-9-2.8-15.2-2.8-15.2s17-9.2,29-1.9c6.5,3.9,13.6,14.2,19.5,24.7c3.9,6.8,13,32.6,11,36.9C309,228.8,297.5,234.7,291.5,230.8z"
	/>
<path id="XMLID_61_" class="st8" d="M296,244.3c-10.9-1.2-16.6-3.8-16-16.9c0.5-12.2-12.4-29.3-19.5-37.6c-7.8-9-2.8-15.2-2.8-15.2
	s17-9.2,29-1.9c10.6,6.5,23,30.1,29.2,43.9C325.7,238.3,306.9,245.5,296,244.3z"/>
<path id="XMLID_60_" class="st2" d="M118.9,332c-0.6-18.6,16.8-23.8,24.7-23.3c7.9,0.5,16.8,7.6,29.2,9.4
	c12.4,1.8,15.8,1.4,25.3,0.3c9.4-1,14.5-4.3,24.6-5.8c8.7-1.3,15.5,10,7.9,18.1C191,350.6,118.9,339.9,118.9,332z"/>
<linearGradient id="XMLID_130_" gradientUnits="userSpaceOnUse" x1="92.9859" y1="200.4215" x2="295.611" y2="200.4215">
	<stop  offset="3.030300e-002" style="stop-color:#BABBBD"/>
	<stop  offset="0.2667" style="stop-color:#FFFFFF"/>
	<stop  offset="0.4606" style="stop-color:#B0B2B3"/>
	<stop  offset="0.7152" style="stop-color:#FFFFFF"/>
	<stop  offset="1" style="stop-color:#D8D9DA"/>
</linearGradient>
<path id="XMLID_57_" class="st9" d="M252.7,181.9c-8.7-35.1-48.4-55.3-88.9-45.1c-40.4,10.2-66.2,47-57.6,82.1
	c8.7,35.1,48.4,55.3,88.9,45.1C235.6,253.8,261.3,217,252.7,181.9z M179.5,226.5c-17.2,0-31.1-11.8-31.1-26.4
	c0-14.6,13.9-26.4,31.1-26.4s31.1,11.8,31.1,26.4C210.5,214.7,196.6,226.5,179.5,226.5z"/>
<path id="XMLID_56_" class="st2" d="M72.7,200.5c-10.9,19.4,5.6,33.3,30.9,16.9c-2.1-39.6,24.2-61.5,31.4-67.3
	C111.4,144.8,80.7,183.8,72.7,200.5z"/>
<path id="XMLID_37_" class="st8" d="M74.5,221.8c-6.4,14.1,9.8,21,29.9,6.9c-1.7-19.2,1-39.9,4.5-44.8
	C105.1,181.2,78.7,209.9,74.5,221.8z"/>
<path id="XMLID_36_" class="st8" d="M123.9,339.5c-0.5-15.2,16-19.6,23.6-19.1c7.6,0.4,16,6.2,27.9,7.7c11.9,1.5,15.1,1.1,24.1,0.3
	c9-0.9,13.9-3.5,23.5-4.7c8.4-1,14.8,8.2,7.6,14.8C192.8,354.7,123.9,346,123.9,339.5z"/>
<ellipse id="XMLID_35_" class="st7" cx="179.7" cy="199.6" rx="31.3" ry="26.9"/>
<path id="XMLID_34_" class="st3" d="M366.6,317.2c-0.3,0.9-2.4-0.8-2.8-2.6c-0.4-1.9-4.4-40-4.4-40l4.7,3.2
	C364.1,277.7,366.9,316.3,366.6,317.2z"/>
<path id="XMLID_33_" class="st3" d="M390.2,331.2c-0.3,0.9-4.6-0.7-5.2-2.6c-1.4-5.2-3.6-39.9-3.6-39.9l4.8,2.4
	C386.3,291.1,390.5,330.3,390.2,331.2z"/>
<path id="XMLID_32_" class="st3" d="M419.2,336.7c-1,0.7-3.7,1.2-4.7-0.7c-1-1.8-4.6-38.2-3.9-40c0.7-1.9,4.7-1.1,5.4-0.4
	C416.7,296.4,420.2,336,419.2,336.7z"/>
<path id="XMLID_31_" class="st3" d="M451.4,327.9c0,2.3-3.3,4.6-3.6,3.3c-0.5-1.8-4.9-39.6-4.9-39.6l4.4-3.6
	C447.4,288.1,451.4,326.9,451.4,327.9z"/>
<path id="XMLID_30_" class="st3" d="M472.3,314.1c0,0-2,2.3-2.8,1.4c-1-1.1-3.3-40.6-3.3-40.6l3.1-4.1c0,0,1.4,16.5,1.4,19.4
	C470.7,302,472.3,313,472.3,314.1z"/>
<polygon id="XMLID_29_" class="st3" points="486.7,291 484.7,291 480.6,250.1 482.9,248.6 "/>
<polygon id="XMLID_28_" class="st3" points="483.6,248.2 481.3,248.6 480.6,223.5 482.7,223.5 "/>
<linearGradient id="XMLID_131_" gradientUnits="userSpaceOnUse" x1="347.0759" y1="237.9469" x2="483.5343" y2="237.9469">
	<stop  offset="6.060610e-002" style="stop-color:#868789"/>
	<stop  offset="0.1515" style="stop-color:#D8D9DA"/>
	<stop  offset="0.2727" style="stop-color:#868789"/>
	<stop  offset="0.4" style="stop-color:#D8D9DA"/>
	<stop  offset="0.5152" style="stop-color:#868789"/>
	<stop  offset="0.6303" style="stop-color:#C5C6C8"/>
	<stop  offset="0.7212" style="stop-color:#868789"/>
	<stop  offset="0.8182" style="stop-color:#C5C6C8"/>
	<stop  offset="0.9515" style="stop-color:#9B9C9E"/>
</linearGradient>
<path id="XMLID_27_" class="st10" d="M481.6,244c-1.7-0.7-15.4-7.6-20-9.8c0-1.1,0.1-2.2,0.1-3.4c3.3-0.8,16.7-3.9,19.9-4.7
	c2.5-0.6,1.3-6.2-0.7-6.6c-1.6-0.3-14.3-3.2-19.5-4.3c-0.1-0.9-0.3-1.9-0.5-2.9c2.7-2.1,8.6-6.5,10.6-7.8c1.8-1.2-0.2-6.3-1.8-6.2
	c-1.6,0.1-12.1-0.1-12.1-0.1l-2.7-0.1l0,0c-2.1-3.3-4-2.4-6.8-5.4c0.8-1.7,1.4-3.2,1.6-4c1.1-3.4-3.2-5.4-5.1-4.3
	c-0.4,0.3-1.7,1-3.5,2c-7.4-5.6-17.4-7.3-27.1-7.3c-12.6,0-21.1,3.5-29.5,8.4c-1.9-0.6-3.7-0.3-4.5-0.4c-3.5-0.7-6.6,2.6-5.3,4.3
	c0.2,0.3,1.1,1.7,2,2.8c-1.2,1.7-1.5,3.5-2.8,4.4c-1.1,0.7-3.3,0.6-4.1,0.6c-3.6-0.2-12.3,0.8-13.6,0.9c-3.5,0.3-3.3,5.8-1.5,7.1
	c0.7,0.5,9.6,2.3,13.1,5c-0.2,1.5-0.6,4.4-0.6,5.9c-5.9,1.6-15,4.1-17.4,5.1c-3.3,1.4-2,6,0.1,6.7c1.3,0.4,10.9,3.6,17.1,5.7
	c0,0.5,0.5,4.2,0.4,4.6c-4.7,2.8-16.8,5.7-19.2,7.6c-2.8,2.2-0.2,6.3,2,6.4c1.4,0.1,19.4-0.6,22.1-0.3c1.2,0.1,1.1,1.1,2,2.4
	c-3.6,4.5-13.7,13.4-14.8,16c-1.3,3.3,2.3,5.6,4.5,5.3c2.6-0.4,14.7-8.5,19.6-11.4c0.4,0.2,2.9,2.1,3.3,2.3
	c-0.7,5.9-5.5,16.7-5.4,19.4c0.1,3.5,4.8,4,6.3,2.4c1-1.2,8.6-10.1,12.8-15c0.9,0.2,1.9,0.4,2.8,0.5c1.7,5.4,5.4,16.6,6.7,19.2
	c1.5,3.2,6.1,1.7,6.7-0.4c0.4-1.5,3.4-11.9,5.2-18.2c1.5-0.2,3.1-0.5,4.6-0.8c3.5,3.7,12.6,13.3,15.1,15.3c2.8,2.2,6.2-1.1,5.8-3.2
	c-0.3-1.6-2.3-14.3-3.3-20.4c0.2-0.2,0.4-0.3,0.7-0.5c4.5,1.9,17,7.3,20.1,8.1c3.4,0.9,5.3-3.5,4.1-5.3c-1-1.5-8.7-13.5-11.8-18.3
	c0.1-0.2,0.2-0.5,0.4-0.7c4.1,0,20-0.4,23.4,0C484.1,251,484.4,245.2,481.6,244z"/>
<linearGradient id="XMLID_132_" gradientUnits="userSpaceOnUse" x1="373.4782" y1="232.0177" x2="455.1091" y2="232.0177">
	<stop  offset="3.030300e-002" style="stop-color:#3D3D3F"/>
	<stop  offset="0.4424" style="stop-color:#FFFFFF"/>
	<stop  offset="0.4727" style="stop-color:#EFEFF0"/>
	<stop  offset="0.7273" style="stop-color:#58585A"/>
	<stop  offset="1" style="stop-color:#3D3D3F"/>
</linearGradient>
<path id="XMLID_26_" class="st11" d="M461.4,232c0,24.6-21.2,44.6-47.4,44.6c-26.2,0-47.4-20-47.4-44.6c0-1.3,0.2-16.2,0.4-17.5
	c1.2-10.4,22.3-27.1,47-27.1c22.9,0,46.4,14.6,46.9,23.2C461.1,213.3,461.4,228.9,461.4,232z"/>
<linearGradient id="XMLID_133_" gradientUnits="userSpaceOnUse" x1="373.4782" y1="228.8816" x2="455.1091" y2="228.8816">
	<stop  offset="3.030300e-002" style="stop-color:#6F7072"/>
	<stop  offset="0.2667" style="stop-color:#FFFFFF"/>
	<stop  offset="0.4606" style="stop-color:#868789"/>
	<stop  offset="0.7152" style="stop-color:#FFFFFF"/>
	<stop  offset="1" style="stop-color:#58585A"/>
</linearGradient>
<path id="XMLID_25_" class="st12" d="M461.4,228.9c0,22.9-21.2,41.5-47.4,41.5c-26.2,0-47.4-18.6-47.4-41.5c0-1.2,0.2-15.1,0.4-16.3
	c1.2-9.7,22.3-25.2,47-25.2c22.9,0,46.4,13.6,46.9,21.5C461.1,211.5,461.4,226,461.4,228.9z"/>
<linearGradient id="XMLID_134_" gradientUnits="userSpaceOnUse" x1="370.7801" y1="213.7982" x2="477.2115" y2="213.7982">
	<stop  offset="3.030300e-002" style="stop-color:#BABBBD"/>
	<stop  offset="0.2667" style="stop-color:#FFFFFF"/>
	<stop  offset="0.4606" style="stop-color:#B0B2B3"/>
	<stop  offset="0.7152" style="stop-color:#FFFFFF"/>
	<stop  offset="1" style="stop-color:#D8D9DA"/>
</linearGradient>
<path id="XMLID_24_" class="st13" d="M461,212.9c0,19.7-21,35.7-47,35.7c-26,0-47-16-47-35.7c0-19.7,21-33.9,47-33.9
	C440,179,461,193.2,461,212.9z"/>
<path id="XMLID_23_" class="st7" d="M438.8,213.8c0,10.8-11.1,19.6-24.8,19.6c-13.7,0-24.8-8.8-24.8-19.6
	c0-10.8,11.1-19.6,24.8-19.6C427.7,194.2,438.8,203,438.8,213.8z"/>
<polygon id="XMLID_20_" class="st3" points="471.5,217.5 469.5,216.9 468.8,206.6 471,204.8 "/>
</svg>
