<?xml version="1.0" encoding="utf-8"?>
<!-- Generator: Adobe Illustrator 19.0.0, SVG Export Plug-In . SVG Version: 6.00 Build 0)  -->
<svg version="1.1" id="Camada_1" xmlns="http://www.w3.org/2000/svg" xmlns:xlink="http://www.w3.org/1999/xlink" x="0px" y="0px"
	 viewBox="0 0 500 500" style="enable-background:new 0 0 500 500;" xml:space="preserve">
<style type="text/css">
	.st0{fill:#1A171B;stroke:#1A171B;stroke-width:4.4911;stroke-miterlimit:10;}
	.st1{fill:#1A171B;stroke:#1A171B;stroke-width:4.4911;stroke-linejoin:round;stroke-miterlimit:10;}
	.st2{fill:#9B9C9E;stroke:#1A171B;stroke-width:1.1228;stroke-miterlimit:10;}
	.st3{fill:#3D3D3F;stroke:#1A171B;stroke-width:1.1228;stroke-miterlimit:10;}
	.st4{fill:#B0B2B3;stroke:#1A171B;stroke-width:1.1228;stroke-miterlimit:10;}
	.st5{fill:#D8D9DA;stroke:#1A171B;stroke-width:1.1228;stroke-miterlimit:10;}
	.st6{fill:#C5C6C8;stroke:#1A171B;stroke-width:1.1228;stroke-miterlimit:10;}
	.st7{fill:#868789;stroke:#1A171B;stroke-width:1.1228;stroke-miterlimit:10;}
	.st8{fill:#F5F5F6;}
	.st9{fill:#9B9C9E;}
	.st10{fill:#D8D9DA;stroke:#1A171B;stroke-width:1.1228;stroke-linejoin:round;stroke-miterlimit:10;}
	.st11{fill:#1A171B;stroke:#1A171B;stroke-width:1.1228;stroke-linejoin:round;stroke-miterlimit:10;}
	.st12{fill:#3D3D3F;stroke:#1A171B;stroke-width:1.1228;stroke-linejoin:round;stroke-miterlimit:10;}
	.st13{fill:#58585A;stroke:#1A171B;stroke-width:1.1228;stroke-miterlimit:10;}
	.st14{fill:#9B9C9E;stroke:#1A171B;stroke-width:1.1228;stroke-linejoin:round;stroke-miterlimit:10;}
	.st15{fill:#B0B2B3;stroke:#1A171B;stroke-width:1.1228;stroke-linejoin:round;stroke-miterlimit:10;}
	.st16{fill:#C5C6C8;stroke:#1A171B;stroke-width:1.1228;stroke-linejoin:round;stroke-miterlimit:10;}
	.st17{fill:none;stroke:#1A171B;stroke-width:1.1228;stroke-linejoin:round;stroke-miterlimit:10;}
	.st18{fill:#1A171B;stroke:#1A171B;stroke-width:1.1228;stroke-miterlimit:10;}
	.st19{fill:#868789;stroke:#1A171B;stroke-width:1.1228;stroke-linejoin:round;stroke-miterlimit:10;}
	.st20{fill:#F5F5F6;stroke:#1A171B;stroke-width:1.1228;stroke-linejoin:round;stroke-miterlimit:10;}
	.st21{fill:#6F7072;stroke:#1A171B;stroke-width:1.1228;stroke-linejoin:round;stroke-miterlimit:10;}
	.st22{fill:#9B9C9E;stroke:#1A171B;stroke-width:0.2807;stroke-linejoin:round;stroke-miterlimit:10;}
</style>
<ellipse id="XMLID_187_" class="st0" cx="236.1" cy="107.6" rx="20" ry="18"/>
<ellipse id="XMLID_186_" class="st0" cx="235.9" cy="109.8" rx="18.4" ry="15.1"/>
<ellipse id="XMLID_185_" class="st0" cx="30.2" cy="109.4" rx="20" ry="19"/>
<ellipse id="XMLID_184_" class="st0" cx="30" cy="111.7" rx="18.4" ry="15.9"/>
<ellipse id="XMLID_183_" class="st0" cx="132.2" cy="108.6" rx="20" ry="19"/>
<ellipse id="XMLID_182_" class="st0" cx="132" cy="111" rx="18.4" ry="15.9"/>
<rect id="XMLID_181_" x="9.3" y="98.7" class="st0" width="246.8" height="59.4"/>
<polygon id="XMLID_180_" class="st0" points="256.1,161.8 246.5,161.8 242.3,158 233.1,158 228.6,161.8 139.4,161.8 136.1,158 
	127.5,158 124.1,161.8 35.1,161.8 31.2,158 24.1,158 21,161.8 9.3,161.8 9.3,103.8 256.1,103.8 "/>
<rect id="XMLID_179_" x="9.3" y="109.4" class="st0" width="246.8" height="41.9"/>
<rect id="XMLID_178_" x="9.3" y="115" class="st0" width="246.8" height="43"/>
<ellipse id="XMLID_177_" class="st0" cx="29.3" cy="133.1" rx="20" ry="19"/>
<ellipse id="XMLID_176_" class="st0" cx="29.6" cy="136" rx="16.3" ry="16.1"/>
<ellipse id="XMLID_175_" class="st0" cx="29.3" cy="136.3" rx="11.5" ry="11.3"/>
<ellipse id="XMLID_174_" class="st0" cx="132.2" cy="132.2" rx="20" ry="19"/>
<ellipse id="XMLID_173_" class="st0" cx="132.4" cy="135.1" rx="16.3" ry="16.1"/>
<ellipse id="XMLID_172_" class="st0" cx="132.2" cy="135.4" rx="11.5" ry="11.3"/>
<ellipse id="XMLID_171_" class="st0" cx="236.1" cy="132.2" rx="20" ry="19"/>
<ellipse id="XMLID_170_" class="st0" cx="236.4" cy="135.1" rx="16.3" ry="16.1"/>
<ellipse id="XMLID_169_" class="st0" cx="236.1" cy="135.4" rx="11.5" ry="11.3"/>
<ellipse id="XMLID_168_" class="st0" cx="29.9" cy="136.4" rx="1.8" ry="1.5"/>
<ellipse id="XMLID_167_" class="st0" cx="132.2" cy="135.4" rx="1.8" ry="1.5"/>
<ellipse id="XMLID_166_" class="st0" cx="235.9" cy="135.4" rx="1.8" ry="1.5"/>
<path id="XMLID_165_" class="st0" d="M118.5,104.3c-4.4,0.1-9.7,4.5-8.1,4.3c1.7,0,140.1,0.3,143.9,0c2.9,0.1-7.3-4.3-7.3-4.3
	S123,104.2,118.5,104.3z"/>
<path id="XMLID_164_" class="st0" d="M9.9,104.2l32.2,0c0,0,11.6,4.3,6.7,4.6c-2.9,0-38.9,0-38.9,0V104.2z"/>
<path id="XMLID_163_" class="st1" d="M393.6,220.7c-6,0-98.2-0.6-98.2-0.6c2.2-4.7-2.1-24.6-2.1-24.6l85.2,2.5
	C378.5,198,401,214.2,393.6,220.7z"/>
<path id="XMLID_162_" class="st1" d="M397,220.7c-6,0-98.2-0.6-98.2-0.6c2.2-4.7-2.1-24.6-2.1-24.6l85.2,2.5
	C381.9,198,404.4,214.2,397,220.7z"/>
<path id="XMLID_161_" class="st1" d="M334.6,205.2c-0.3,1.3-2.9,1.7-5.8,1c-2.8-0.7-4.9-2.4-4.6-3.7c0.3-1.3,2.9-1.7,5.8-1
	C332.9,202.3,334.9,203.9,334.6,205.2z"/>
<ellipse id="XMLID_160_" transform="matrix(0.9686 0.2486 -0.2486 0.9686 61.8028 -82.9061)" class="st1" cx="359.2" cy="203.3" rx="5.3" ry="2.4"/>
<polygon id="XMLID_159_" class="st1" points="455.8,274.2 247.9,270.8 248.4,238.6 269.9,220.2 449.7,221.8 456.4,239.1 "/>
<path id="XMLID_158_" class="st0" d="M329.9,233c0,6.9-6.3,12.4-14,12.3l-58.5-0.3c-7.7,0-13.9-5.6-13.8-12.5l0,0
	c0-6.9,6.3-12.4,14-12.3l58.5,0.3C323.7,220.5,329.9,226.1,329.9,233L329.9,233z"/>
<path id="XMLID_157_" class="st0" d="M329,235.5c0,5.5-6.1,9.9-13.6,9.8l-57-0.3c-7.5,0-13.5-4.5-13.5-10l0,0
	c0-5.5,6.1-9.9,13.6-9.9l57,0.3C323,225.5,329.1,230,329,235.5L329,235.5z"/>
<path id="XMLID_156_" class="st0" d="M463.6,234.4c0,6.9-6.3,12.4-14,12.3l-58.5-0.3c-7.7,0-13.9-5.6-13.8-12.5l0,0
	c0-6.9,6.3-12.4,14-12.3l58.5,0.3C457.4,222,463.6,227.6,463.6,234.4L463.6,234.4z"/>
<path id="XMLID_155_" class="st0" d="M462.7,236.9c0,5.5-6.1,9.9-13.6,9.9l-57-0.3c-7.5,0-13.5-4.5-13.5-10l0,0
	c0-5.5,6.1-9.9,13.6-9.9l57,0.3C456.7,227,462.7,231.4,462.7,236.9L462.7,236.9z"/>
<path id="XMLID_154_" class="st0" d="M327.4,256.1l-8.7-26.6c0,0,0,0,0,0c-0.3-0.8-3.8-0.4-8,0.9c-4.1,1.4-7.3,3.1-7,4c0,0,0,0,0,0
	l8.7,26.6L327.4,256.1z"/>
<path id="XMLID_153_" class="st0" d="M275.5,257.4l-6-27.4c0,0,0,0,0,0c-0.2-0.9-3.8-0.8-8,0.1c-4.2,0.9-7.5,2.4-7.4,3.2
	c0,0,0,0,0,0l6,27.4L275.5,257.4z"/>
<path id="XMLID_152_" class="st0" d="M410,255.9l-10.3-26.1c0,0,0,0,0,0c-0.3-0.8-3.9-0.2-7.9,1.4c-4,1.6-7.1,3.5-6.7,4.4
	c0,0,0,0,0,0l10.2,26.1L410,255.9z"/>
<path id="XMLID_151_" class="st0" d="M465.1,257.4l-9-26.5c0,0,0,0,0,0c-0.3-0.8-3.9-0.4-8,1c-4.1,1.4-7.2,3.2-7,4c0,0,0,0,0,0
	l9,26.5L465.1,257.4z"/>
<path id="XMLID_150_" class="st0" d="M491.8,263.2c0-8.2-6-15-13.5-15l-226.2-0.8c-7.5,0-13.6,6.6-13.6,14.9l0,0c0,8.3,6,15,13.5,15
	l226.2,0.8C485.7,278.1,491.8,271.4,491.8,263.2L491.8,263.2z"/>
<path id="XMLID_149_" class="st0" d="M490.9,266.6c0-8.2-6-15-13.5-15l-226.2-0.8c-7.5,0-13.6,6.6-13.6,14.9l0,0c0,8.2,6,15,13.5,15
	l226.2,0.8C484.8,281.6,490.9,274.9,490.9,266.6L490.9,266.6z"/>
<path id="XMLID_148_" class="st1" d="M428.3,262.5c0.2,8.8-7.2,16-16.5,16.2l-77.9,1.7c-9.3,0.2-17-6.7-17.2-15.5l0,0
	c-0.2-8.8,7.2-16,16.5-16.2l77.9-1.7C420.4,246.8,428.1,253.7,428.3,262.5L428.3,262.5z"/>
<path id="XMLID_147_" class="st1" d="M348.4,270.7c-1.2,4.5-5.8,7.2-10.4,6c-4.6-1.2-7.3-5.8-6.2-10.3c1.2-4.5,5.8-7.2,10.4-6
	C346.8,261.6,349.6,266.2,348.4,270.7z"/>
<ellipse id="XMLID_146_" transform="matrix(0.9687 0.2484 -0.2484 0.9687 79.0708 -93.314)" class="st1" cx="409.3" cy="266.7" rx="8.6" ry="8.4"/>
<g id="XMLID_291_">
	<polygon id="XMLID_145_" class="st1" points="438.8,268.8 344.2,269.7 328.1,253.2 329.7,247.3 430.2,252.3 440.3,262.8 	"/>
	<polygon id="XMLID_144_" class="st1" points="440.3,262.8 345.8,263.7 329.7,247.3 431.8,246.3 	"/>
	
		<ellipse id="XMLID_143_" transform="matrix(0.9687 0.2484 -0.2484 0.9687 75.4312 -84.1174)" class="st1" cx="371" cy="256.9" rx="5.3" ry="2.4"/>
	
		<ellipse id="XMLID_142_" transform="matrix(0.9687 0.2484 -0.2484 0.9687 76.2625 -92.1099)" class="st1" cx="403.2" cy="256.2" rx="5.3" ry="2.4"/>
	<line id="XMLID_141_" class="st1" x1="345.8" y1="263.7" x2="344.2" y2="269.7"/>
</g>
<ellipse id="XMLID_140_" transform="matrix(0.9993 3.720854e-002 -3.720854e-002 0.9993 10.1441 -9.6974)" class="st0" cx="265.6" cy="267.7" rx="9.5" ry="8.2"/>
<path id="XMLID_139_" class="st0" d="M271.9,267.9c-0.1,3-3,5.3-6.5,5.2c-3.5-0.1-6.2-2.7-6.1-5.6c0.1-3,3-5.3,6.5-5.2
	C269.3,262.4,272,264.9,271.9,267.9z"/>
<ellipse id="XMLID_138_" transform="matrix(0.9993 3.726732e-002 -3.726732e-002 0.9993 10.2329 -17.169)" class="st0" cx="465.7" cy="265.9" rx="9.5" ry="8.2"/>
<path id="XMLID_137_" class="st0" d="M471.9,266.1c-0.1,3-3,5.3-6.5,5.2c-3.5-0.1-6.2-2.7-6.1-5.6c0.1-3,3-5.3,6.5-5.2
	C469.3,260.6,472,263.1,471.9,266.1z"/>
<path id="XMLID_136_" class="st1" d="M55,354.5c0,0-24.3-0.1-25.7,0c-14.1,0.9-21.2-24.4-6.1-25.8c5.5-0.5,29.2-2.7,29.2-2.7
	L55,354.5z"/>
<path id="XMLID_135_" class="st1" d="M48.8,364.7c0,0-24.3-0.1-25.7,0c-14.1,0.9-21.2-24.4-6.1-25.8c5.5-0.5,29.2-2.7,29.2-2.7
	L48.8,364.7z"/>
<polygon id="XMLID_134_" class="st1" points="52.4,326 42.8,340.2 49,364.7 60.2,355.6 "/>
<rect id="XMLID_133_" x="194.8" y="333" transform="matrix(0.999 4.365532e-002 -4.365532e-002 0.999 15.2504 -9.1027)" class="st1" width="42.4" height="23.3"/>
<polygon id="XMLID_132_" class="st1" points="127.5,332.4 136.4,332.6 138.8,298.2 150.5,269.7 143.4,270.4 131.8,298.9 "/>
<polygon id="XMLID_131_" class="st1" points="144.9,335.9 154.2,310.1 150.5,269.7 149.2,272.9 138.8,298.2 136.4,332.6 "/>
<path id="XMLID_130_" class="st1" d="M18.3,345.1c0,0-1.6,5.5-0.4,6.6c1.2,1.2,5.9,3.8,8.4,4.5c2.5,0.7,5.6-1.7,5.6-1.7L18.3,345.1z
	"/>
<path id="XMLID_129_" class="st1" d="M139.2,332.8l-85.3-0.1c-0.3-0.2-0.6-0.3-0.8-0.3c-0.3,0-0.5,0.1-0.8,0.3l-0.2,0l0,0.2
	c-1.7,1.6-2.8,7.2-2.6,13.9c0.2,7.9,2.2,14.2,4.4,14.2c0.5,0,1-0.4,1.5-1.1l85.3,2.7L139.2,332.8z"/>
<path id="XMLID_128_" class="st1" d="M121,349.3c-0.8,1.9-28.6,4.2-29.3,2.7c-1.3-5,7.5-18.3,8.8-20.1c5.1-6.8,22.6-6.2,25.1-0.3
	C126.1,332.7,121.8,347.3,121,349.3z"/>
<ellipse id="XMLID_127_" transform="matrix(0.9958 -9.169590e-002 9.169590e-002 0.9958 -31.7637 11.1983)" class="st1" cx="106" cy="351.3" rx="14.2" ry="13.1"/>
<ellipse id="XMLID_126_" transform="matrix(0.9958 -9.168965e-002 9.168965e-002 0.9958 -31.9066 11.2127)" class="st1" cx="106.1" cy="352.9" rx="12.3" ry="11"/>
<ellipse id="XMLID_125_" transform="matrix(0.9958 -9.169812e-002 9.169812e-002 0.9958 -32.1257 11.0534)" class="st1" cx="104.2" cy="355.1" rx="8.7" ry="7.8"/>
<line id="XMLID_124_" class="st1" x1="88.1" y1="395.2" x2="100.6" y2="397.9"/>
<polygon id="XMLID_123_" class="st1" points="236.4,353.7 194,351.9 195,329.7 237.4,330.7 "/>
<path id="XMLID_122_" class="st1" d="M279.7,333.8l-144.4-1l0,0.2c-0.2-0.1-0.3-0.1-0.5-0.1c-2.1,0-3.8,6.7-3.8,15
	c0.1,8.3,1.9,15,4,14.9c0.2,0,0.4-0.1,0.6-0.2l143.9,1L279.7,333.8z"/>
<path id="XMLID_121_" class="st1" d="M237.4,330.7c-6.8-2.6-12.8-1.2-12.9,2.6c0,2.3,0.8,6.2,0.8,6.2s-4,0.9-4.9,0.9
	c-5.3,0.3-5.5-8-18.1-7.3c-10,0.5-11.2,11-12.6,12.4c-5.9,7-2.1,26,4.4,27c7.5,1.1,41.3-0.5,41.3-0.5l1.9-8.8
	C237.4,363.2,243.3,337.4,237.4,330.7z"/>
<polygon id="XMLID_120_" class="st1" points="110.5,346.8 88.1,395.2 100.1,446.4 111.1,448.5 125.2,361.5 125.3,345.9 131.3,341.3 
	124,341 "/>
<polygon id="XMLID_119_" class="st1" points="120.8,347.7 100.6,397.9 111.1,448.5 137.7,364.2 131.3,341.3 "/>
<path id="XMLID_118_" class="st1" d="M236,369.8l-33,0c-8,0-14.4-6.2-14.4-13.7l0,0c0-7.6,6.5-13.7,14.4-13.7l35.5,0
	c0.2,0,1.3,0,1.5,0c0,0-0.4,7.3-1.5,14.6C237.5,364.3,236,369.8,236,369.8z"/>
<ellipse id="XMLID_117_" transform="matrix(0.9958 -9.165284e-002 9.165284e-002 0.9958 -31.7761 20.6297)" class="st1" cx="208.7" cy="356.3" rx="14.2" ry="13.1"/>
<ellipse id="XMLID_116_" transform="matrix(0.9958 -9.164023e-002 9.164023e-002 0.9958 -31.9168 20.6418)" class="st1" cx="208.8" cy="357.9" rx="12.3" ry="11"/>
<path id="XMLID_115_" class="st1" d="M215.6,359.3c0.4,4.3-3.2,8.1-8,8.5c-4.8,0.4-9-2.7-9.4-6.9c-0.4-4.3,3.2-8.1,8-8.5
	C211,352,215.2,355.1,215.6,359.3z"/>
<line id="XMLID_114_" class="st1" x1="296.7" y1="195.5" x2="293.4" y2="195.5"/>
<ellipse id="XMLID_113_" class="st2" cx="236.1" cy="107.6" rx="20" ry="18"/>
<ellipse id="XMLID_112_" class="st3" cx="235.9" cy="109.8" rx="18.4" ry="15.1"/>
<ellipse id="XMLID_111_" class="st2" cx="30.2" cy="109.4" rx="20" ry="19"/>
<ellipse id="XMLID_110_" class="st3" cx="30" cy="111.7" rx="18.4" ry="15.9"/>
<ellipse id="XMLID_109_" class="st2" cx="132.2" cy="108.6" rx="20" ry="19"/>
<ellipse id="XMLID_108_" class="st3" cx="132" cy="111" rx="18.4" ry="15.9"/>
<rect id="XMLID_107_" x="9.3" y="98.7" class="st4" width="246.8" height="59.4"/>
<polygon id="XMLID_106_" class="st3" points="256.1,161.8 246.5,161.8 242.3,158 233.1,158 228.6,161.8 139.4,161.8 136.1,158 
	127.5,158 124.1,161.8 35.1,161.8 31.2,158 24.1,158 21,161.8 9.3,161.8 9.3,103.8 256.1,103.8 "/>
<rect id="XMLID_105_" x="9.3" y="109.4" class="st4" width="246.8" height="41.9"/>
<rect id="XMLID_104_" x="9.3" y="115" class="st2" width="246.8" height="43"/>
<ellipse id="XMLID_103_" class="st5" cx="29.3" cy="133.1" rx="20" ry="19"/>
<ellipse id="XMLID_102_" class="st6" cx="29.6" cy="136" rx="16.3" ry="16.1"/>
<ellipse id="XMLID_101_" class="st7" cx="29.3" cy="136.3" rx="11.5" ry="11.3"/>
<ellipse id="XMLID_100_" class="st5" cx="132.2" cy="132.2" rx="20" ry="19"/>
<ellipse id="XMLID_99_" class="st6" cx="132.4" cy="135.1" rx="16.3" ry="16.1"/>
<ellipse id="XMLID_98_" class="st7" cx="132.2" cy="135.4" rx="11.5" ry="11.3"/>
<ellipse id="XMLID_97_" class="st5" cx="236.1" cy="132.2" rx="20" ry="19"/>
<ellipse id="XMLID_96_" class="st6" cx="236.4" cy="135.1" rx="16.3" ry="16.1"/>
<ellipse id="XMLID_95_" class="st7" cx="236.1" cy="135.4" rx="11.5" ry="11.3"/>
<ellipse id="XMLID_94_" class="st8" cx="29.9" cy="136.4" rx="1.8" ry="1.5"/>
<ellipse id="XMLID_93_" class="st8" cx="132.2" cy="135.4" rx="1.8" ry="1.5"/>
<ellipse id="XMLID_92_" class="st8" cx="235.9" cy="135.4" rx="1.8" ry="1.5"/>
<path id="XMLID_91_" class="st9" d="M118.5,104.3c-4.4,0.1-9.7,4.5-8.1,4.3c1.7,0,140.1,0.3,143.9,0c2.9,0.1-7.3-4.3-7.3-4.3
	S123,104.2,118.5,104.3z"/>
<path id="XMLID_90_" class="st9" d="M9.9,104.2l32.2,0c0,0,11.6,4.3,6.7,4.6c-2.9,0-38.9,0-38.9,0V104.2z"/>
<path id="XMLID_89_" class="st10" d="M393.6,220.7c-6,0-98.2-0.6-98.2-0.6c2.2-4.7-2.1-24.6-2.1-24.6l85.2,2.5
	C378.5,198,401,214.2,393.6,220.7z"/>
<path id="XMLID_88_" class="st10" d="M397,220.7c-6,0-98.2-0.6-98.2-0.6c2.2-4.7-2.1-24.6-2.1-24.6l85.2,2.5
	C381.9,198,404.4,214.2,397,220.7z"/>
<path id="XMLID_87_" class="st11" d="M334.6,205.2c-0.3,1.3-2.9,1.7-5.8,1c-2.8-0.7-4.9-2.4-4.6-3.7c0.3-1.3,2.9-1.7,5.8-1
	C332.9,202.3,334.9,203.9,334.6,205.2z"/>
<ellipse id="XMLID_86_" transform="matrix(0.9686 0.2486 -0.2486 0.9686 61.8028 -82.9061)" class="st11" cx="359.2" cy="203.3" rx="5.3" ry="2.4"/>
<polygon id="XMLID_85_" class="st12" points="455.8,274.2 247.9,270.8 248.4,238.6 269.9,220.2 449.7,221.8 456.4,239.1 "/>
<path id="XMLID_84_" class="st4" d="M329.9,233c0,6.9-6.3,12.4-14,12.3l-58.5-0.3c-7.7,0-13.9-5.6-13.8-12.5l0,0
	c0-6.9,6.3-12.4,14-12.3l58.5,0.3C323.7,220.5,329.9,226.1,329.9,233L329.9,233z"/>
<path id="XMLID_83_" class="st13" d="M329,235.5c0,5.5-6.1,9.9-13.6,9.8l-57-0.3c-7.5,0-13.5-4.5-13.5-10l0,0
	c0-5.5,6.1-9.9,13.6-9.9l57,0.3C323,225.5,329.1,230,329,235.5L329,235.5z"/>
<path id="XMLID_82_" class="st4" d="M463.6,234.4c0,6.9-6.3,12.4-14,12.3l-58.5-0.3c-7.7,0-13.9-5.6-13.8-12.5l0,0
	c0-6.9,6.3-12.4,14-12.3l58.5,0.3C457.4,222,463.6,227.6,463.6,234.4L463.6,234.4z"/>
<path id="XMLID_81_" class="st13" d="M462.7,236.9c0,5.5-6.1,9.9-13.6,9.9l-57-0.3c-7.5,0-13.5-4.5-13.5-10l0,0
	c0-5.5,6.1-9.9,13.6-9.9l57,0.3C456.7,227,462.7,231.4,462.7,236.9L462.7,236.9z"/>
<path id="XMLID_80_" class="st4" d="M327.4,256.1l-8.7-26.6c0,0,0,0,0,0c-0.3-0.8-3.8-0.4-8,0.9c-4.1,1.4-7.3,3.1-7,4c0,0,0,0,0,0
	l8.7,26.6L327.4,256.1z"/>
<path id="XMLID_79_" class="st4" d="M275.5,257.4l-6-27.4c0,0,0,0,0,0c-0.2-0.9-3.8-0.8-8,0.1c-4.2,0.9-7.5,2.4-7.4,3.2c0,0,0,0,0,0
	l6,27.4L275.5,257.4z"/>
<path id="XMLID_78_" class="st4" d="M410,255.9l-10.3-26.1c0,0,0,0,0,0c-0.3-0.8-3.9-0.2-7.9,1.4c-4,1.6-7.1,3.5-6.7,4.4
	c0,0,0,0,0,0l10.2,26.1L410,255.9z"/>
<path id="XMLID_77_" class="st4" d="M465.1,257.4l-9-26.5c0,0,0,0,0,0c-0.3-0.8-3.9-0.4-8,1c-4.1,1.4-7.2,3.2-7,4c0,0,0,0,0,0
	l9,26.5L465.1,257.4z"/>
<path id="XMLID_76_" class="st4" d="M491.8,263.2c0-8.2-6-15-13.5-15l-226.2-0.8c-7.5,0-13.6,6.6-13.6,14.9l0,0c0,8.3,6,15,13.5,15
	l226.2,0.8C485.7,278.1,491.8,271.4,491.8,263.2L491.8,263.2z"/>
<path id="XMLID_75_" class="st7" d="M490.9,266.6c0-8.2-6-15-13.5-15l-226.2-0.8c-7.5,0-13.6,6.6-13.6,14.9l0,0c0,8.2,6,15,13.5,15
	l226.2,0.8C484.8,281.6,490.9,274.9,490.9,266.6L490.9,266.6z"/>
<path id="XMLID_74_" class="st14" d="M428.3,262.5c0.2,8.8-7.2,16-16.5,16.2l-77.9,1.7c-9.3,0.2-17-6.7-17.2-15.5l0,0
	c-0.2-8.8,7.2-16,16.5-16.2l77.9-1.7C420.4,246.8,428.1,253.7,428.3,262.5L428.3,262.5z"/>
<path id="XMLID_73_" class="st15" d="M348.4,270.7c-1.2,4.5-5.8,7.2-10.4,6c-4.6-1.2-7.3-5.8-6.2-10.3c1.2-4.5,5.8-7.2,10.4-6
	C346.8,261.6,349.6,266.2,348.4,270.7z"/>
<ellipse id="XMLID_72_" transform="matrix(0.9687 0.2484 -0.2484 0.9687 79.0708 -93.314)" class="st15" cx="409.3" cy="266.7" rx="8.6" ry="8.4"/>
<g id="XMLID_216_">
	<polygon id="XMLID_71_" class="st16" points="438.8,268.8 344.2,269.7 328.1,253.2 329.7,247.3 430.2,252.3 440.3,262.8 	"/>
	<polygon id="XMLID_70_" class="st10" points="440.3,262.8 345.8,263.7 329.7,247.3 431.8,246.3 	"/>
	
		<ellipse id="XMLID_69_" transform="matrix(0.9687 0.2484 -0.2484 0.9687 75.4312 -84.1174)" class="st11" cx="371" cy="256.9" rx="5.3" ry="2.4"/>
	
		<ellipse id="XMLID_68_" transform="matrix(0.9687 0.2484 -0.2484 0.9687 76.2625 -92.1099)" class="st11" cx="403.2" cy="256.2" rx="5.3" ry="2.4"/>
	<line id="XMLID_67_" class="st17" x1="345.8" y1="263.7" x2="344.2" y2="269.7"/>
</g>
<ellipse id="XMLID_66_" transform="matrix(0.9993 3.720854e-002 -3.720854e-002 0.9993 10.1441 -9.6974)" class="st4" cx="265.6" cy="267.7" rx="9.5" ry="8.2"/>
<path id="XMLID_65_" class="st18" d="M271.9,267.9c-0.1,3-3,5.3-6.5,5.2c-3.5-0.1-6.2-2.7-6.1-5.6c0.1-3,3-5.3,6.5-5.2
	C269.3,262.4,272,264.9,271.9,267.9z"/>
<ellipse id="XMLID_64_" transform="matrix(0.9993 3.726732e-002 -3.726732e-002 0.9993 10.2329 -17.169)" class="st4" cx="465.7" cy="265.9" rx="9.5" ry="8.2"/>
<path id="XMLID_63_" class="st18" d="M471.9,266.1c-0.1,3-3,5.3-6.5,5.2c-3.5-0.1-6.2-2.7-6.1-5.6c0.1-3,3-5.3,6.5-5.2
	C469.3,260.6,472,263.1,471.9,266.1z"/>
<path id="XMLID_62_" class="st12" d="M55,354.5c0,0-24.3-0.1-25.7,0c-14.1,0.9-21.2-24.4-6.1-25.8c5.5-0.5,29.2-2.7,29.2-2.7
	L55,354.5z"/>
<path id="XMLID_61_" class="st12" d="M48.8,364.7c0,0-24.3-0.1-25.7,0c-14.1,0.9-21.2-24.4-6.1-25.8c5.5-0.5,29.2-2.7,29.2-2.7
	L48.8,364.7z"/>
<polygon id="XMLID_60_" class="st14" points="52.4,326 42.8,340.2 49,364.7 60.2,355.6 "/>
<rect id="XMLID_59_" x="194.8" y="333" transform="matrix(0.999 4.365532e-002 -4.365532e-002 0.999 15.2504 -9.1027)" class="st17" width="42.4" height="23.3"/>
<polygon id="XMLID_58_" class="st15" points="127.5,332.4 136.4,332.6 138.8,298.2 150.5,269.7 143.4,270.4 131.8,298.9 "/>
<polygon id="XMLID_57_" class="st19" points="144.9,335.9 154.2,310.1 150.5,269.7 149.2,272.9 138.8,298.2 136.4,332.6 "/>
<path id="XMLID_56_" class="st20" d="M18.3,345.1c0,0-1.6,5.5-0.4,6.6c1.2,1.2,5.9,3.8,8.4,4.5c2.5,0.7,5.6-1.7,5.6-1.7L18.3,345.1z
	"/>
<path id="XMLID_37_" class="st19" d="M139.2,332.8l-85.3-0.1c-0.3-0.2-0.6-0.3-0.8-0.3c-0.3,0-0.5,0.1-0.8,0.3l-0.2,0l0,0.2
	c-1.7,1.6-2.8,7.2-2.6,13.9c0.2,7.9,2.2,14.2,4.4,14.2c0.5,0,1-0.4,1.5-1.1l85.3,2.7L139.2,332.8z"/>
<path id="XMLID_36_" class="st21" d="M121,349.3c-0.8,1.9-28.6,4.2-29.3,2.7c-1.3-5,7.5-18.3,8.8-20.1c5.1-6.8,22.6-6.2,25.1-0.3
	C126.1,332.7,121.8,347.3,121,349.3z"/>
<ellipse id="XMLID_35_" transform="matrix(0.9958 -9.169590e-002 9.169590e-002 0.9958 -31.7637 11.1983)" class="st14" cx="106" cy="351.3" rx="14.2" ry="13.1"/>
<ellipse id="XMLID_34_" transform="matrix(0.9958 -9.168965e-002 9.168965e-002 0.9958 -31.9066 11.2127)" class="st19" cx="106.1" cy="352.9" rx="12.3" ry="11"/>
<ellipse id="XMLID_33_" transform="matrix(0.9958 -9.169812e-002 9.169812e-002 0.9958 -32.1257 11.0534)" class="st21" cx="104.2" cy="355.1" rx="8.7" ry="7.8"/>
<line id="XMLID_32_" class="st17" x1="88.1" y1="395.2" x2="100.6" y2="397.9"/>
<polygon id="XMLID_31_" class="st21" points="236.4,353.7 194,351.9 195,329.7 237.4,330.7 "/>
<path id="XMLID_30_" class="st19" d="M279.7,333.8l-144.4-1l0,0.2c-0.2-0.1-0.3-0.1-0.5-0.1c-2.1,0-3.8,6.7-3.8,15
	c0.1,8.3,1.9,15,4,14.9c0.2,0,0.4-0.1,0.6-0.2l143.9,1L279.7,333.8z"/>
<path id="XMLID_29_" class="st15" d="M237.4,330.7c-6.8-2.6-12.8-1.2-12.9,2.6c0,2.3,0.8,6.2,0.8,6.2s-4,0.9-4.9,0.9
	c-5.3,0.3-5.5-8-18.1-7.3c-10,0.5-11.2,11-12.6,12.4c-5.9,7-2.1,26,4.4,27c7.5,1.1,41.3-0.5,41.3-0.5l1.9-8.8
	C237.4,363.2,243.3,337.4,237.4,330.7z"/>
<polygon id="XMLID_28_" class="st19" points="110.5,346.8 88.1,395.2 100.1,446.4 111.1,448.5 125.2,361.5 125.3,345.9 131.3,341.3 
	124,341 "/>
<polygon id="XMLID_27_" class="st15" points="120.8,347.7 100.6,397.9 111.1,448.5 137.7,364.2 131.3,341.3 "/>
<path id="XMLID_26_" class="st22" d="M236,369.8l-33,0c-8,0-14.4-6.2-14.4-13.7l0,0c0-7.6,6.5-13.7,14.4-13.7l35.5,0
	c0.2,0,1.3,0,1.5,0c0,0-0.4,7.3-1.5,14.6C237.5,364.3,236,369.8,236,369.8z"/>
<ellipse id="XMLID_25_" transform="matrix(0.9958 -9.165284e-002 9.165284e-002 0.9958 -31.7761 20.6297)" class="st14" cx="208.7" cy="356.3" rx="14.2" ry="13.1"/>
<ellipse id="XMLID_24_" transform="matrix(0.9958 -9.164023e-002 9.164023e-002 0.9958 -31.9168 20.6418)" class="st19" cx="208.8" cy="357.9" rx="12.3" ry="11"/>
<path id="XMLID_23_" class="st21" d="M215.6,359.3c0.4,4.3-3.2,8.1-8,8.5c-4.8,0.4-9-2.7-9.4-6.9c-0.4-4.3,3.2-8.1,8-8.5
	C211,352,215.2,355.1,215.6,359.3z"/>
<line id="XMLID_20_" class="st17" x1="296.7" y1="195.5" x2="293.4" y2="195.5"/>
</svg>
