<?xml version="1.0" encoding="utf-8"?>
<!-- Generator: Adobe Illustrator 19.0.0, SVG Export Plug-In . SVG Version: 6.00 Build 0)  -->
<svg version="1.1" id="Camada_1" xmlns="http://www.w3.org/2000/svg" xmlns:xlink="http://www.w3.org/1999/xlink" x="0px" y="0px"
	 viewBox="0 0 500 500" style="enable-background:new 0 0 500 500;" xml:space="preserve">
<style type="text/css">
	.st0{fill:#1A171B;stroke:#1A171B;stroke-width:5.9777;stroke-miterlimit:10;}
	.st1{opacity:0.57;fill:#1A171B;stroke:#1A171B;stroke-width:5.9777;stroke-miterlimit:10;}
	.st2{opacity:0.71;fill:#1A171B;stroke:#1A171B;stroke-width:5.9777;stroke-miterlimit:10;}
	.st3{opacity:0.77;fill:#1A171B;stroke:#1A171B;stroke-width:5.9777;stroke-miterlimit:10;}
	.st4{fill:#C5C6C8;stroke:#1A171B;stroke-width:1.4944;stroke-miterlimit:10;}
	.st5{fill:none;stroke:#E1001A;stroke-width:1.4944;stroke-miterlimit:10;}
	.st6{opacity:0.57;fill:#ECECED;}
	.st7{opacity:0.71;fill:#ECECED;}
	.st8{opacity:0.77;fill:#ECECED;}
</style>
<path id="XMLID_67_" class="st0" d="M420.2,195.6h-78c-29.7,0-53.7,27.9-53.7,62.4c0,5.7,0.7,11.3,1.9,16.6l24.8,34.6
	c8.9,7.7,19.4,10.6,27,11.2h78c29.7,0,53.7-27.9,53.7-62.4C474,223.5,449.9,195.6,420.2,195.6z M410.7,232.7
	c19.4,0,35.2,11.2,35.2,25.1c0,13.9-15.7,25.1-35.2,25.1h-51c-7.4,0-10.7-0.6-16.3-3.5l-16.9-28.6c0.6-1.1,13.8-18.2,33.2-18.2
	H410.7z"/>
<path id="XMLID_66_" class="st0" d="M291.5,237.7c-1.1,0-71.7,0-71.7,0c-24.3,0-41.8,4.1-41.8,14.4l0.1,7.5
	c0,6.3,17.4,15.3,41.7,15.3h63.9c33.6,0.1,41.7-20.8,43-24.3c0,0,7.9-9.9,17-13.9c1.3-0.4,4,13.6,4,20.7l0,0
	c0,31.3-24.3,56.7-54.4,56.7h-78.9c-30,0-54.4-25.4-54.4-56.7l0,0c0-31.3,24.3-56.7,54.4-56.7h78.9c9.4,0,22.2,3.3,20.1,4.8
	C311.2,206.9,296.1,218.4,291.5,237.7z"/>
<path id="XMLID_65_" class="st0" d="M184.5,304.6"/>
<path id="XMLID_64_" class="st0" d="M175.8,257.3"/>
<path id="XMLID_58_" class="st0" d="M184.5,304.6 M209.4,274.3 M163.6,277.5c-4.6-0.2-17.1-0.1-23.6-0.1H96.6
	c-23,0-41.6-10.6-41.6-23.7c0-13.1,18.6-23.7,41.6-23.7H140c46.6,0,38.2,30.7,38.2,30.7s1.3,5.3,12.4,9.4c9.6,3.6,18.8,4.1,18.8,4.1
	c2.6-6.8,4-14.2,4-21.9c0-34-27.5-61.6-61.4-61.6H88c-33.9,0-61.4,27.6-61.4,61.6c0,34,27.5,61.6,61.4,61.6h64
	c11.5,0,32.5-4.4,35.1-7.6C180.2,302.5,168.3,291.4,163.6,277.5z M175.8,257.3 M162.4,273.7"/>
<path id="XMLID_57_" class="st1" d="M451.9,227.8c0,0-37.9-17.9-52.9-17.9c-15,0-52.5,15-25.4,8.9
	C400.7,212.8,451.9,227.8,451.9,227.8z"/>
<path id="XMLID_56_" class="st2" d="M339.3,261.8c0,0-4.1,26.5-12.9,36.3c-8.7,9.8-51.1,11.9-37.9,6.5
	C327.9,293.9,339.3,261.8,339.3,261.8z"/>
<path id="XMLID_37_" class="st3" d="M199.5,235.8c7.5,6.7-6-26.2-19.4-32.1c-13.4-6-39.8,0-39.8,0S173.4,201.8,199.5,235.8z"/>
<path id="XMLID_34_" class="st4" d="M420.2,195.6h-78c-29.7,0-53.7,27.9-53.7,62.4c0,5.7,0.7,11.3,1.9,16.6l24.8,34.6
	c8.9,7.7,19.4,10.6,27,11.2h78c29.7,0,53.7-27.9,53.7-62.4C474,223.5,449.9,195.6,420.2,195.6z M410.7,232.7
	c19.4,0,35.2,11.2,35.2,25.1c0,13.9-15.7,25.1-35.2,25.1h-51c-7.4,0-10.7-0.6-16.3-3.5l-16.9-28.6c0.6-1.1,13.8-18.2,33.2-18.2
	H410.7z"/>
<path id="XMLID_33_" class="st4" d="M291.5,237.7c-1.1,0-71.7,0-71.7,0c-24.3,0-41.8,4.1-41.8,14.4l0.1,7.5
	c0,6.3,17.4,15.3,41.7,15.3h63.9c33.6,0.1,41.7-20.8,43-24.3c0,0,7.9-9.9,17-13.9c1.3-0.4,4,13.6,4,20.7l0,0
	c0,31.3-24.3,56.7-54.4,56.7h-78.9c-30,0-54.4-25.4-54.4-56.7l0,0c0-31.3,24.3-56.7,54.4-56.7h78.9c9.4,0,22.2,3.3,20.1,4.8
	C311.2,206.9,296.1,218.4,291.5,237.7z"/>
<path id="XMLID_32_" class="st5" d="M184.5,304.6"/>
<path id="XMLID_31_" class="st5" d="M175.8,257.3"/>
<path id="XMLID_25_" class="st4" d="M184.5,304.6 M209.4,274.3 M163.6,277.5c-4.6-0.2-17.1-0.1-23.6-0.1H96.6
	c-23,0-41.6-10.6-41.6-23.7c0-13.1,18.6-23.7,41.6-23.7H140c46.6,0,38.2,30.7,38.2,30.7s1.3,5.3,12.4,9.4c9.6,3.6,18.8,4.1,18.8,4.1
	c2.6-6.8,4-14.2,4-21.9c0-34-27.5-61.6-61.4-61.6H88c-33.9,0-61.4,27.6-61.4,61.6c0,34,27.5,61.6,61.4,61.6h64
	c11.5,0,32.5-4.4,35.1-7.6C180.2,302.5,168.3,291.4,163.6,277.5z M175.8,257.3 M162.4,273.7"/>
<path id="XMLID_24_" class="st6" d="M451.9,227.8c0,0-37.9-17.9-52.9-17.9c-15,0-52.5,15-25.4,8.9
	C400.7,212.8,451.9,227.8,451.9,227.8z"/>
<path id="XMLID_23_" class="st7" d="M339.3,261.8c0,0-4.1,26.5-12.9,36.3c-8.7,9.8-51.1,11.9-37.9,6.5
	C327.9,293.9,339.3,261.8,339.3,261.8z"/>
<path id="XMLID_20_" class="st8" d="M199.5,235.8c7.5,6.7-6-26.2-19.4-32.1c-13.4-6-39.8,0-39.8,0S173.4,201.8,199.5,235.8z"/>
</svg>
