<?xml version="1.0" encoding="utf-8"?>
<!-- Generator: Adobe Illustrator 19.0.0, SVG Export Plug-In . SVG Version: 6.00 Build 0)  -->
<svg version="1.1" id="Camada_1" xmlns="http://www.w3.org/2000/svg" xmlns:xlink="http://www.w3.org/1999/xlink" x="0px" y="0px"
	 viewBox="0 0 500 500" style="enable-background:new 0 0 500 500;" xml:space="preserve">
<style type="text/css">
	.st0{fill:#1A171B;stroke:#1A171B;stroke-width:5.5488;stroke-miterlimit:10;}
	.st1{fill:#1A171B;stroke:#1A171B;stroke-width:5.5488;stroke-linejoin:round;stroke-miterlimit:10;}
	.st2{opacity:0.86;fill:#1A171B;stroke:#1A171B;stroke-width:5.5488;stroke-miterlimit:10;}
	.st3{opacity:0.82;fill:#1A171B;stroke:#1A171B;stroke-width:5.5488;stroke-miterlimit:10;}
	.st4{fill:url(#XMLID_517_);stroke:#1A171B;stroke-width:1.3872;stroke-miterlimit:10;}
	.st5{fill:#C5C6C8;stroke:#1A171B;stroke-width:1.3872;stroke-miterlimit:10;}
	.st6{fill:#58585A;stroke:#1A171B;stroke-width:1.3872;stroke-miterlimit:10;}
	.st7{fill:#6F7072;stroke:#1A171B;stroke-width:1.3872;stroke-linejoin:round;stroke-miterlimit:10;}
	.st8{fill:#6F7072;stroke:#1A171B;stroke-width:1.3872;stroke-miterlimit:10;}
	.st9{fill:url(#XMLID_518_);stroke:#1A171B;stroke-width:1.3872;stroke-miterlimit:10;}
	.st10{fill:#58585A;stroke:#1A171B;stroke-width:0.3468;stroke-miterlimit:10;}
	.st11{fill:#9B9C9E;stroke:#1A171B;stroke-width:0.3468;stroke-miterlimit:10;}
	.st12{fill:none;stroke:#E1001A;stroke-width:1.3872;stroke-miterlimit:10;}
	.st13{fill:none;stroke:#E1001A;stroke-width:1.3872;stroke-linejoin:round;stroke-miterlimit:10;}
	.st14{fill:#B0B2B3;stroke:#1A171B;stroke-width:1.3872;stroke-linejoin:round;stroke-miterlimit:10;}
	.st15{fill:url(#XMLID_519_);stroke:#1A171B;stroke-width:1.3872;stroke-linejoin:round;stroke-miterlimit:10;}
	.st16{fill:#58585A;stroke:#1A171B;stroke-width:1.3872;stroke-linejoin:round;stroke-miterlimit:10;}
	.st17{fill:url(#XMLID_520_);stroke:#1A171B;stroke-width:1.3872;stroke-linejoin:round;stroke-miterlimit:10;}
	.st18{fill:url(#XMLID_521_);stroke:#1A171B;stroke-width:1.3872;stroke-linejoin:round;stroke-miterlimit:10;}
	.st19{fill:url(#XMLID_522_);stroke:#1A171B;stroke-width:1.3872;stroke-linejoin:round;stroke-miterlimit:10;}
	.st20{fill:none;stroke:#1A171B;stroke-width:1.3872;stroke-miterlimit:10;}
	.st21{fill:url(#XMLID_523_);stroke:#1A171B;stroke-width:1.3872;stroke-miterlimit:10;}
	.st22{fill:url(#XMLID_524_);stroke:#1A171B;stroke-width:1.3872;stroke-linejoin:round;stroke-miterlimit:10;}
	.st23{fill:url(#XMLID_525_);stroke:#1A171B;stroke-width:1.3872;stroke-linejoin:round;stroke-miterlimit:10;}
	.st24{fill:url(#XMLID_526_);stroke:#1A171B;stroke-width:1.3872;stroke-linejoin:round;stroke-miterlimit:10;}
	.st25{fill:#D8D9DA;stroke:#1A171B;stroke-width:0.3468;stroke-miterlimit:10;}
	.st26{fill:#58585A;stroke:#1A171B;stroke-width:0.6936;stroke-linejoin:round;stroke-miterlimit:10;}
	.st27{fill:#B0B2B3;stroke:#1A171B;stroke-width:0.6936;stroke-linejoin:round;stroke-miterlimit:10;}
	.st28{opacity:0.86;fill:#ECECED;}
	.st29{fill:#ECECED;}
	.st30{opacity:0.82;fill:#ECECED;}
</style>
<path id="XMLID_513_" class="st0" d="M285,61.7c-99.5,0-180.1,79.9-180.1,178.5c0,98.6,80.6,178.5,180.1,178.5
	c99.5,0,180.1-79.9,180.1-178.5C465.1,141.6,384.5,61.7,285,61.7z M285,358.8c-65.5,0-118.7-53.1-118.7-118.5
	c0-65.5,53.1-118.5,118.7-118.5c65.5,0,118.7,53.1,118.7,118.5C403.6,305.8,350.5,358.8,285,358.8z"/>
<path id="XMLID_510_" class="st0" d="M284.9,83c-87.3,0-158,70.4-158,157.3c0,86.9,70.7,157.3,158,157.3c87.3,0,158-70.4,158-157.3
	C442.9,153.5,372.1,83,284.9,83z M284.2,380.5c-77,0-139.5-61.9-139.5-138.2S207.2,104,284.2,104c77,0,139.5,61.9,139.5,138.2
	S361.2,380.5,284.2,380.5z"/>
<path id="XMLID_509_" class="st0" d="M322.9,109.4c-6.5-1.6-27.6-4.6-31.6-5.2c-3.9-0.6-0.7-21.8,3.9-20.8c4.8,0,28.7,3.6,31.9,5.3
	C330.4,89.6,326.7,110.4,322.9,109.4z"/>
<path id="XMLID_508_" class="st0" d="M370,133.3c-4.3-3.7-25-15.1-28.5-17.1c-3.5-1.9,6.1-21,10-18.5c12.2,5.6,27.1,15.1,29.5,17.8
	C383.8,117.5,372.9,135.8,370,133.3z"/>
<path id="XMLID_507_" class="st0" d="M404,171.4c-2.6-6-17.9-24-21.2-27c-3-2.6,14.9-15.4,17.5-11.6c1.2,1.6,18.8,22.6,19.8,26
	C421.8,161.8,405.5,175,404,171.4z"/>
<path id="XMLID_506_" class="st0" d="M421.1,215.8c-0.8-3.8-7.5-26-9.9-30.7c-1.8-3.5,18.1-10.7,19.1-6.1
	c0.5,1.9,10.1,29.1,9.9,32.7C440.9,215.1,421.9,219.6,421.1,215.8z"/>
<path id="XMLID_505_" class="st0" d="M421.2,268.3c1.4-5.5,3.2-29.1,2.5-33.7c-0.7-3.9,19.5-4,19.1,0.7c0.8,5,0,28-2.5,33.7
	C438.6,272.4,420.6,270.8,421.2,268.3z"/>
<path id="XMLID_504_" class="st0" d="M403.3,314.3c2.5-3.4,12-24,13.9-29.6c1.3-3.8,18.7,4.6,16.5,8.7c-1.3,3.6-11.8,27.1-14.3,29.6
	C416.4,325.6,401.7,316.5,403.3,314.3z"/>
<path id="XMLID_503_" class="st0" d="M272.3,380c3.1,0.2,9,0.8,16,0.4c7-0.3,13.4-1.3,15.4-1.3c4,0,8.1,15.7,3.5,17
	c-2.6,0.3-10.9,1.7-19.2,1.5c-7.4-0.2-15.7,0-17.4-0.6C267.1,395.5,269.7,379.8,272.3,380z"/>
<path id="XMLID_502_" class="st0" d="M220,365c2.9,1.3,8.9,4.7,15.5,6.8c6.7,2.1,12.2,3.8,14.1,4.5c3.7,1.4,2.2,17.3-2.5,16.8
	c-2.5-0.6-10.5-2.6-18.1-5.6c-6.9-2.7-14.7-6.2-16-7.2C210.1,377.8,217.6,363.9,220,365z"/>
<path id="XMLID_501_" class="st0" d="M323.5,375c4.2-1.3,24.9-8.7,30.7-13c3.2-2.4,12.7,14,8.3,15.6c-1.8,0.7-28.8,13.6-32.4,13.7
	C326.1,391.1,321,375.7,323.5,375z"/>
<path id="XMLID_500_" class="st0" d="M275.3,104.3c-6.5-0.6-29.5,5.4-33.4,6.2c-3.9,0.8-10.1-19.3-5.5-20c1.9-0.4,26.9-6.9,34.3-6.9
	C274.2,83.3,279.1,104.7,275.3,104.3z"/>
<path id="XMLID_499_" class="st0" d="M224,117.5c-4.3,1.8-24.3,14.2-28.5,18c-2.9,2.7-14.4-14.8-10.4-17.2
	c1.7-1.1,23.7-16.9,27.2-17.8C215.4,98.9,227.6,116,224,117.5z"/>
<path id="XMLID_498_" class="st0" d="M184.3,145.8c-5.8,4.9-18.5,23.3-20.9,27.3c-2.1,3.4-18.9-6.7-16-10.4
	c1.2-1.6,16.8-25.4,19.8-27.4C169.5,132.8,187.2,143.3,184.3,145.8z"/>
<path id="XMLID_497_" class="st0" d="M155.2,189.5c-1.1,2.7-2.9,8.2-5.3,15.6c-1.9,5.9-3,13.4-3.5,15.3c-1.1,4.1-19.3,0.4-17.7-4.3
	c-0.1-3.1,6.6-26.7,8.3-31.3C138.4,181.3,157,185.2,155.2,189.5z"/>
<path id="XMLID_496_" class="st0" d="M144.6,241.4c-0.1,2.9,0.6,8.4,0.8,16.1c0.2,6.2,2.3,13.6,2.5,15.5c0.3,4.3-17.4,7.1-17.4,2.1
	c-1.3-2.5-3.9-27.3-3.6-32.3C127,239.1,144.8,236.7,144.6,241.4z"/>
<path id="XMLID_495_" class="st1" d="M250.4,376.4c0,0-9.4,15.3-18.7,12.2c-2.6-0.9-7.8-2.8-8.7-3.5c-6.6-4.8-2.7-19.9-2.7-19.9
	s8.6,4.3,13.9,6.2C237.5,372.6,242.7,374.2,250.4,376.4z"/>
<path id="XMLID_494_" class="st0" d="M144.8,244.6c0,0-9.4-1.6-16.8,6.6c-0.7,0.7-0.1,5.9,0,6.7c0.8,4.2,18.8,8.3,18.8,8.3
	s-1.1-5.6-1.5-11.2C144.9,250.4,144.8,244.6,144.8,244.6z"/>
<path id="XMLID_491_" class="st0" d="M427.2,317.9c-32.7,0-59.2,25.9-59.2,57.9c0,32,26.5,57.9,59.2,57.9
	c32.7,0,59.2-25.9,59.2-57.9C486.4,343.8,459.9,317.9,427.2,317.9z M427.2,414.2c-21.6,0-39-17.2-39-38.4c0-21.2,17.5-38.4,39-38.4
	c21.6,0,39,17.2,39,38.4C466.2,397,448.7,414.2,427.2,414.2z"/>
<path id="XMLID_488_" class="st0" d="M427.1,323.5c-28.7,0-52,22.8-52,51c0,28.2,23.3,51,52,51c28.7,0,52-22.8,52-51
	C479.1,346.3,455.8,323.5,427.1,323.5z M426.9,419.9c-25.3,0-45.9-20.1-45.9-44.8c0-24.7,20.5-44.8,45.9-44.8
	c25.3,0,45.9,20.1,45.9,44.8C472.8,399.8,452.3,419.9,426.9,419.9z"/>
<path id="XMLID_487_" class="st0" d="M440,331.3c-1.3,0.3-9.7-1.4-10.9-1.6c-1.3-0.2-0.6-6.2,0.9-5.9c0.6,0.1,9.9,0.9,11,1.6
	C442,325.7,441.3,331,440,331.3z"/>
<path id="XMLID_486_" class="st0" d="M455.6,339c-1.3-0.2-8.5-4.8-9.6-5.4c-1.2-0.6,1.5-5.7,2.8-4.9c0.6,0.3,8.9,4.4,9.6,5.4
	C459.3,334.8,456.9,339.2,455.6,339z"/>
<path id="XMLID_485_" class="st0" d="M466.5,351.7c-1.1-0.7-5.8-7.7-6.6-8.7c-0.8-1,3.6-4.5,4.4-3.3c0.4,0.5,6.3,7.6,6.6,8.7
	C471.5,349.4,467.5,352.4,466.5,351.7z"/>
<path id="XMLID_484_" class="st0" d="M472,366.5c-0.1-0.9-1.4-5.8-1.8-6.8c-0.2-0.4,1.4-1.5,3.1-1.5c1.3,0,3,1.1,3,1.2
	c0.1,0.5,0.7,2.4,1.1,4.1c0,0.3-0.8,2.3-2.1,2.9C473.9,367.3,472.1,366.7,472,366.5z"/>
<path id="XMLID_483_" class="st0" d="M473,368.5c-0.7-1.1-2.5-9.3-2.8-10.6c-0.4-1.2,5-2.8,5.3-1.3c0.2,0.6,3,9.4,2.8,10.6
	C478.4,368.3,473.7,369.6,473,368.5z"/>
<path id="XMLID_482_" class="st0" d="M471.7,384.6c0.3-0.9,1.1-6.5,1.1-7.5c0-0.4,2-0.4,3.3,0.3c1.5,0.7,2.6,2.7,2.6,2.9
	c0,0.4-0.2,2.4-0.6,4.3c-0.1,0.3-1.7,1.7-3.3,1.6C473.3,386.1,471.6,384.8,471.7,384.6z"/>
<path id="XMLID_481_" class="st0" d="M471.2,387c0.4-1.3,2-9.9,1.6-11.9c-0.2-1.3,6.6,0.5,6.3,1.9c-0.1,1.2-1.2,9.5-1.7,10.6
	C476.7,388.6,470.9,387.8,471.2,387z"/>
<path id="XMLID_480_" class="st0" d="M464.9,400.8c0.6-0.7,3.4-5.5,3.8-6.4c0.1-0.4,1.8,0.4,2.8,1.6c1,1.2,1,1.7,1.1,2.8
	c0,0.4-1.7,3.2-2.7,4.7c-0.2,0.2-1.5,0.6-2.8,0C465.8,402.8,464.8,400.9,464.9,400.8z"/>
<path id="XMLID_479_" class="st0" d="M463,402.7c0.8-1.1,5.8-8.4,6.3-10.4c0.3-1.2,5.5,3,4.7,4.2c-0.5,1.1-5,8.6-5.9,9.3
	C467.1,406.5,462.5,403.4,463,402.7z"/>
<path id="XMLID_478_" class="st0" d="M448.3,415c0.9-0.4,5.6-3.2,6.3-3.9c0.3-0.2,1.4,1.3,1.7,2.7c0.3,1.6,0.1,2.5,0.1,2.5
	c-0.5,0.4-3.9,2.4-5.5,3.2c-0.2,0.1-1.2-0.1-2-1.3C448.2,417.2,448.2,415.1,448.3,415z"/>
<path id="XMLID_477_" class="st0" d="M445.6,416.2c0.6-0.3,3.2-1.3,5.5-2.7c2.3-1.4,4.3-3.2,5.1-3.9c1-0.8,3.5,4.9,2.2,5.6
	c-1,0.7-8.3,5-9.7,5.7C447.6,421.3,444.8,416.5,445.6,416.2z"/>
<path id="XMLID_476_" class="st0" d="M408.2,415.9c0.9,0.4,2.7,1.2,4.9,1.8c2.2,0.6,4.5,1.2,5.2,1.4c1.2,0.4,0.7,5.5-0.9,5.4
	c-0.8-0.2-3.6-0.6-6.1-1.5c-2.3-0.8-4.9-1.7-5.3-2C405,420.1,407.4,415.6,408.2,415.9z"/>
<path id="XMLID_475_" class="st0" d="M394.6,407c0.8,0.7,2.4,2.3,4.3,3.6c1.9,1.3,3.5,2.3,4,2.7c1.1,0.8-0.9,5.6-2.3,5
	c-0.7-0.4-3.1-1.8-5.2-3.4c-1.9-1.5-4.1-3.3-4.4-3.7C390.4,410,394,406.4,394.6,407z"/>
<path id="XMLID_474_" class="st0" d="M423.3,329.4c-1.1,0.6-9.6,1.8-10.9,2.1c-1.3,0.3-2.5-5-1-5.2c0.6-0.1,9.7-2.4,10.9-2.1
	C423.4,324.2,424.4,328.8,423.3,329.4z"/>
<path id="XMLID_473_" class="st0" d="M406.3,334.5c-0.8,1-8.2,5.2-9.3,5.9c-1.1,0.7-4.4-3.9-3-4.6c0.5-0.3,8.1-5.8,9.3-5.9
	C404.2,329.4,407.1,333.5,406.3,334.5z"/>
<path id="XMLID_472_" class="st0" d="M393.2,343.8c-0.4,1.2-5.8,7.7-6.6,8.8c-0.8,1-5.4-2-4.4-3.2c0.4-0.5,5.5-8.2,6.6-8.8
	C389.6,339.9,393.6,342.6,393.2,343.8z"/>
<path id="XMLID_471_" class="st0" d="M383.9,359.4c-0.3,0.8-2.1,6.6-2.2,8c0,0.6-5.3-2.5-4.7-6.4C378,358.7,384.3,358.6,383.9,359.4
	z"/>
<path id="XMLID_470_" class="st0" d="M384.5,358c-0.4,0.9-1,2.6-1.7,5c-0.6,1.9-1,4.4-1.2,4.9c-0.4,1.3-6.4,0.1-5.8-1.4
	c0-1,2.2-8.7,2.7-10.1C379,355.3,385.1,356.6,384.5,358z"/>
<path id="XMLID_469_" class="st0" d="M381,374.3c0,1,0.2,2.7,0.3,5.2c0.1,2,0.8,4.4,0.8,5c0.1,1.4-5.7,2.3-5.7,0.7
	c-0.4-0.8-1.3-8.8-1.2-10.5C375.2,373.6,381.1,372.8,381,374.3z"/>
<path id="XMLID_468_" class="st0" d="M408.2,416.2c0,0-0.2,5.8,3.5,6.9s6.6-4,6.6-4s-1,0-4.9-1.2
	C409.4,416.7,408.2,416.2,408.2,416.2z"/>
<path id="XMLID_467_" class="st0" d="M426.1,420c1,0,3,0.1,5.2-0.2c2.3-0.2,4.6-0.6,5.3-0.7c1.3-0.1,2.7,4.9,1.2,5.4
	c-0.8,0.1-3.6,0.8-6.3,0.9c-2.4,0.1-5.2,0.3-5.7,0.1C424.6,425.1,425.2,420,426.1,420z"/>
<path id="XMLID_466_" class="st0" d="M426.2,420.3c0,0,1.7,5.1,5.8,5.1c4.2,0,4.6-6.1,4.6-6.1s-0.9,0.4-5,0.7
	C427.5,420.3,426.2,420.3,426.2,420.3z"/>
<path id="XMLID_465_" class="st1" d="M403.2,413.3c0,0-4.4,3.9-7,2.1c-2.6-1.8-1.5-8.3-1.5-8.3s2.3,2.1,3.8,3.2
	C399.5,411,401,411.9,403.2,413.3z"/>
<path id="XMLID_464_" class="st0" d="M384.1,391.8c0.5,0.9,1.7,2.8,2.8,4.8c1,1.9,2.4,4,2.7,4.5c0.7,1.1-2.7,4.4-3.8,3.3
	c-0.5-0.7-2.3-2.7-3.7-5c-1.3-2.1-2.7-4.5-2.8-5C379,393.1,383.7,391,384.1,391.8z"/>
<path id="XMLID_463_" class="st0" d="M389.4,400.9c0,0-5,1.9-6.8-0.7c-1.8-2.6,1.5-8.3,1.5-8.3s1.5,2.5,2.4,4.1
	C387.3,397.3,387.8,398.7,389.4,400.9z"/>
<path id="XMLID_460_" class="st1" d="M249,391.9c-15.8,0-28.6,12-28.6,26.8c0,14.8,12.8,26.8,28.6,26.8c15.8,0,28.7-12,28.7-26.8
	C277.6,403.9,264.8,391.9,249,391.9z M248.4,433.5c-7.9,0-14.3-6.3-14.3-14.1c0-7.8,6.4-14.1,14.3-14.1c7.9,0,14.3,6.3,14.3,14.1
	C262.7,427.2,256.3,433.5,248.4,433.5z"/>
<path id="XMLID_457_" class="st1" d="M368.5,356.8c-24.6,0-44.6,18.9-44.6,42.2c0,23.3,20,42.2,44.6,42.2
	c24.6,0,44.6-18.9,44.6-42.2C413.1,375.7,393.2,356.8,368.5,356.8z M368.5,436.9c-22.9,0-41.4-17-41.4-38c0-21,18.5-38,41.4-38
	c22.9,0,41.4,17,41.4,38C409.9,419.9,391.4,436.9,368.5,436.9z"/>
<path id="XMLID_454_" class="st1" d="M368.5,360.9c-22.8,0-41.4,17-41.4,38c0,21,18.5,38,41.4,38c22.8,0,41.4-17,41.4-38
	C409.9,377.9,391.3,360.9,368.5,360.9z M369.3,422.6c-14,0-25.3-10.2-25.3-22.8c0-12.6,11.3-22.8,25.3-22.8s25.3,10.2,25.3,22.8
	C394.6,412.4,383.2,422.6,369.3,422.6z"/>
<path id="XMLID_451_" class="st1" d="M369.3,377c-14,0-25.3,10.2-25.3,22.8s11.3,22.8,25.3,22.8s25.3-10.2,25.3-22.8
	S383.2,377,369.3,377z M369.6,418.7c-11.3,0-20.4-8.2-20.4-18.4c0-10.2,9.1-18.4,20.4-18.4c11.3,0,20.4,8.2,20.4,18.4
	C389.9,410.5,380.8,418.7,369.6,418.7z"/>
<path id="XMLID_448_" class="st1" d="M411.6,398.1c-13.7,0-24.9,10.4-24.9,23.2c0,12.8,11.1,23.2,24.9,23.2
	c13.7,0,24.9-10.4,24.9-23.2C436.5,408.5,425.4,398.1,411.6,398.1z M411.6,442.2c-12.7,0-23.1-9.4-23.1-20.9
	c0-11.6,10.3-20.9,23.1-20.9s23.1,9.4,23.1,20.9C434.7,432.8,424.4,442.2,411.6,442.2z"/>
<path id="XMLID_445_" class="st1" d="M411.6,400.4c-12.7,0-23.1,9.4-23.1,20.9c0,11.6,10.3,20.9,23.1,20.9
	c12.7,0,23.1-9.4,23.1-20.9C434.7,409.7,424.3,400.4,411.6,400.4z M412.1,434.3c-7.8,0-14.1-5.6-14.1-12.6c0-6.9,6.3-12.6,14.1-12.6
	c7.8,0,14.1,5.6,14.1,12.6C426.1,428.7,419.8,434.3,412.1,434.3z"/>
<path id="XMLID_442_" class="st1" d="M412.1,409.2c-7.8,0-14.1,5.6-14.1,12.6c0,6.9,6.3,12.6,14.1,12.6c7.8,0,14.1-5.6,14.1-12.6
	C426.1,414.8,419.8,409.2,412.1,409.2z M412.2,432.2c-6.3,0-11.4-4.5-11.4-10.1c0-5.6,5.1-10.1,11.4-10.1c6.3,0,11.4,4.5,11.4,10.1
	C423.6,427.7,418.5,432.2,412.2,432.2z"/>
<path id="XMLID_441_" class="st0" d="M364.9,129.5c-2.3-1.8-17.8-11-20.7-12.1c-1.3-0.5,0.7-7.2,5.6-11.4c3.6-3.1,12.7-2.8,12.9-2.7
	c0.9,0.4,3,1.8,7.7,4.9c0.6,0.4,3,6.2,1.7,11.1C370.5,125,365.3,129.8,364.9,129.5z"/>
<path id="XMLID_440_" class="st0" d="M319.7,108.2c-2.8-0.8-20.7-3.5-23.8-3.4c-1.4,0.1-2-7,0.9-12.7c2.2-4.2,10.7-7.4,10.9-7.4
	c0.9,0,3.5,0.6,8.9,1.6c0.8,0.2,5.1,4.6,5.8,9.6C323.2,101.9,320.1,108.4,319.7,108.2z"/>
<path id="XMLID_439_" class="st0" d="M270.3,104.3c-2.9,0.2-20.6,3.8-23.5,4.9c-1.3,0.5-4.3-5.7-3.4-11.9c0.6-4.6,7.6-10.3,7.8-10.4
	c0.9-0.3,3.5-0.7,9-1.5c0.8-0.1,6.4,2.5,8.6,6.8C271.5,97.4,270.8,104.3,270.3,104.3z"/>
<path id="XMLID_438_" class="st0" d="M218.3,120.6c-2.4,1.2-17,9.7-19.1,11.7c-0.9,0.9-5.7-3.5-7.2-9.1c-1.1-4.2,2.7-11.5,2.9-11.7
	c0.7-0.5,2.7-1.8,7-4.4c0.6-0.4,6.3,0,9.8,2.9C215.8,113.5,218.7,120.4,218.3,120.6z"/>
<path id="XMLID_437_" class="st0" d="M400.1,165.3c-1.4-2.6-10.9-14.8-13.2-17c-1-1,2.5-6.3,7.9-8.7c4.1-1.8,10.5-1.1,10.6-0.8
	c0.9,1.3,4.9,6,8,10.2c0.4,0.7,0,7.7-3.2,11.5C406.8,164.8,400.3,165.7,400.1,165.3z"/>
<path id="XMLID_436_" class="st0" d="M420,210.6c-0.4-2.9-5.1-17.3-6.4-20.1c-0.6-1.2,4.3-4.8,10-5.3c4.6-0.4,10.1,2.3,10.2,2.5
	c0.5,1.1,3.4,9,4.2,14.5c0.1,0.8-1.7,6.6-5.7,8.5C427.3,212.9,420.1,211.1,420,210.6z"/>
<path id="XMLID_435_" class="st0" d="M422.7,261c0.6-2.9,1.4-17.8,1-20.9c-0.1-1.2,4.3-2.8,9-1.9c5.5,1.1,9.9,7.2,9.9,7.5
	c0.2,1.2-0.3,6.9-0.7,12c-0.1,0.8-4.5,8.3-9.3,8.2C427.5,265.9,422.6,261.5,422.7,261z"/>
<path id="XMLID_434_" class="st0" d="M406.3,309.2c1.6-2.4,8.1-15.9,8.9-18.9c0.3-1.1,5.9-1.5,9.3,1.6c3.7,3.4,5.2,10.4,5.1,10.7
	c-0.3,1.2-2.7,7-5.4,12c-0.4,0.8-6.5,3.3-11.1,1.8C408.9,315.1,406.1,309.5,406.3,309.2z"/>
<path id="XMLID_433_" class="st1" d="M272.3,380.3c0,0,4.5,17.2,9.3,17.3c1.5,0,14.7-0.2,14.7-0.2c6.8-3.4,7.3-18.2,7.3-18.2
	s-2.9,1-15.4,1.2C275.7,380.6,272.3,380.3,272.3,380.3z"/>
<path id="XMLID_432_" class="st0" d="M179.2,151c-1.7,2-12.2,15.4-13.4,18c-0.5,1.2-6.4-1-9.7-5.6c-2.5-3.4-1.6-11.6-1.4-11.8
	c0.4-0.7,1.9-2.6,4.9-6.7c0.4-0.6,5.8-2.4,10-1C174.5,145.5,179.5,150.7,179.2,151z"/>
<path id="XMLID_431_" class="st0" d="M153.5,193.9c-1,2.5-6.5,20.2-6.7,24.7c-0.1,2-16.9-3.7-15.1-15.8c0.7-2.2,2.4-10.3,3.2-10.9
	C140.8,187.8,154.2,192,153.5,193.9z"/>
<ellipse id="XMLID_430_" class="st0" cx="153.1" cy="177.4" rx="4" ry="3.5"/>
<ellipse id="XMLID_429_" class="st0" cx="137.3" cy="228.2" rx="4" ry="3.5"/>
<ellipse id="XMLID_428_" class="st0" cx="184.3" cy="135" rx="4" ry="3.5"/>
<ellipse id="XMLID_427_" class="st0" cx="228.6" cy="105.8" rx="4" ry="3.5"/>
<ellipse id="XMLID_426_" class="st0" cx="283" cy="92.9" rx="4" ry="3.5"/>
<ellipse id="XMLID_425_" class="st0" cx="336.7" cy="102.3" rx="4" ry="3.5"/>
<ellipse id="XMLID_424_" class="st0" cx="383" cy="129.5" rx="4" ry="3.5"/>
<ellipse id="XMLID_423_" class="st0" cx="418.5" cy="172" rx="4" ry="3.5"/>
<ellipse id="XMLID_422_" class="st0" cx="432.1" cy="223.9" rx="4" ry="3.5"/>
<ellipse id="XMLID_421_" class="st0" cx="428.1" cy="277.8" rx="4" ry="3.5"/>
<ellipse id="XMLID_420_" class="st0" cx="315.9" cy="384.3" rx="4" ry="3.5"/>
<ellipse id="XMLID_419_" class="st0" cx="261.1" cy="386.1" rx="4" ry="3.5"/>
<path id="XMLID_416_" class="st0" d="M100.6,249.5c-50.1,0-90.7,40.2-90.7,89.9c0,49.6,40.6,89.9,90.7,89.9
	c50.1,0,90.7-40.2,90.7-89.9C191.3,289.8,150.7,249.5,100.6,249.5z M100.6,399.1c-33,0-59.7-26.7-59.7-59.7
	c0-32.9,26.7-59.7,59.7-59.7c33,0,59.7,26.7,59.7,59.7C160.3,372.4,133.6,399.1,100.6,399.1z"/>
<path id="XMLID_413_" class="st0" d="M100.6,260.3c-43.9,0-79.5,35.5-79.5,79.2c0,43.7,35.6,79.2,79.5,79.2
	c43.9,0,79.5-35.5,79.5-79.2C180.1,295.7,144.5,260.3,100.6,260.3z M100.2,410C61.5,410,30,378.9,30,340.4
	c0-38.4,31.4-69.6,70.2-69.6c38.8,0,70.2,31.2,70.2,69.6C170.4,378.9,139,410,100.2,410z"/>
<path id="XMLID_412_" class="st0" d="M119.7,273.6c-3.3-0.8-13.9-2.3-15.9-2.6c-2-0.3-0.3-11,2-10.5c2.4,0,14.4,1.8,16,2.7
	C123.5,263.6,121.6,274,119.7,273.6z"/>
<path id="XMLID_411_" class="st0" d="M143.4,285.6c-2.2-1.9-12.6-7.6-14.3-8.6c-1.8-1,3.1-10.6,5-9.3c6.1,2.8,13.6,7.6,14.8,9
	C150.3,277.6,144.9,286.9,143.4,285.6z"/>
<path id="XMLID_410_" class="st0" d="M160.5,304.8c-1.3-3-9-12.1-10.7-13.6c-1.5-1.3,7.5-7.8,8.8-5.8c0.6,0.8,9.4,11.4,10,13.1
	C169.5,300,161.3,306.6,160.5,304.8z"/>
<path id="XMLID_409_" class="st0" d="M169.1,327.1c-0.4-1.9-3.8-13.1-5-15.5c-0.9-1.8,9.1-5.4,9.6-3.1c0.3,1,5.1,14.7,5,16.5
	C179.1,326.8,169.6,329,169.1,327.1z"/>
<path id="XMLID_408_" class="st0" d="M169.2,353.5c0.7-2.8,1.6-14.6,1.2-17c-0.3-2,9.8-2,9.6,0.3c0.4,2.5,0,14.1-1.3,17
	C177.9,355.6,168.9,354.8,169.2,353.5z"/>
<path id="XMLID_407_" class="st0" d="M160.2,376.7c1.2-1.7,6-12.1,7-14.9c0.7-1.9,9.4,2.3,8.3,4.4c-0.7,1.8-5.9,13.6-7.2,14.9
	C166.8,382.4,159.4,377.8,160.2,376.7z"/>
<path id="XMLID_406_" class="st0" d="M94.2,409.8c1.6,0.1,4.5,0.4,8,0.2c3.5-0.2,6.8-0.6,7.8-0.6c2,0,4.1,7.9,1.8,8.5
	c-1.3,0.2-5.5,0.9-9.6,0.8c-3.7-0.1-7.9,0-8.7-0.3C91.6,417.6,92.9,409.7,94.2,409.8z"/>
<path id="XMLID_405_" class="st0" d="M67.9,402.2c1.4,0.6,4.5,2.4,7.8,3.4c3.4,1.1,6.1,1.9,7.1,2.3c1.9,0.7,1.1,8.7-1.3,8.5
	c-1.3-0.3-5.3-1.3-9.1-2.8c-3.5-1.4-7.4-3.1-8.1-3.6C62.9,408.6,66.7,401.7,67.9,402.2z"/>
<path id="XMLID_404_" class="st0" d="M120,407.2c2.1-0.7,12.5-4.4,15.4-6.6c1.6-1.2,6.4,7.1,4.2,7.8c-0.9,0.4-14.5,6.8-16.3,6.9
	C121.3,415.3,118.7,407.6,120,407.2z"/>
<path id="XMLID_403_" class="st0" d="M95.7,271c-3.3-0.3-14.8,2.7-16.8,3.1c-2,0.4-5.1-9.7-2.7-10c1-0.2,13.5-3.5,17.3-3.5
	C95.2,260.4,97.7,271.2,95.7,271z"/>
<path id="XMLID_402_" class="st0" d="M69.9,277.7c-2.2,0.9-12.2,7.2-14.3,9.1c-1.5,1.4-7.3-7.5-5.2-8.7c0.8-0.5,11.9-8.5,13.7-9
	C65.6,268.3,71.7,276.9,69.9,277.7z"/>
<path id="XMLID_401_" class="st0" d="M49.9,291.9c-2.9,2.5-9.3,11.7-10.5,13.8c-1,1.7-9.5-3.4-8.1-5.2c0.6-0.8,8.5-12.8,10-13.8
	C42.5,285.4,51.4,290.6,49.9,291.9z"/>
<path id="XMLID_400_" class="st0" d="M35.3,313.9c-0.6,1.4-1.5,4.1-2.6,7.8c-0.9,3-1.5,6.8-1.8,7.7c-0.6,2.1-9.7,0.2-8.9-2.2
	c-0.1-1.6,3.3-13.4,4.2-15.7C26.8,309.8,36.2,311.7,35.3,313.9z"/>
<path id="XMLID_399_" class="st0" d="M30,340c-0.1,1.5,0.3,4.2,0.4,8.1c0.1,3.1,1.2,6.8,1.2,7.8c0.1,2.1-8.8,3.6-8.8,1.1
	c-0.7-1.3-2-13.7-1.8-16.3C21.1,338.8,30.1,337.7,30,340z"/>
<path id="XMLID_398_" class="st1" d="M83.2,408c0,0-4.7,7.7-9.4,6.1c-1.3-0.4-3.9-1.4-4.4-1.8c-3.3-2.4-1.4-10-1.4-10s4.3,2.1,7,3.1
	C76.7,406.1,79.4,406.8,83.2,408z"/>
<path id="XMLID_397_" class="st0" d="M47,385.9c1.1,1.1,3.3,3.8,6,6c2.7,2.2,5,4,5.8,4.7c1.5,1.3-2.1,8.5-4.3,7.4
	c-1.1-0.7-4.4-3.1-7.5-5.9c-2.7-2.5-5.8-5.6-6.2-6.3C40.1,390.1,46.1,385,47,385.9z"/>
<path id="XMLID_396_" class="st1" d="M59.2,396.8c0,0-7.2,5.4-11,2.3c-1.1-0.9-3.1-2.7-3.4-3.2c-2.2-3.4,2.4-9.8,2.4-9.8
	s3.3,3.6,5.4,5.5C53.8,392.7,56,394.4,59.2,396.8z"/>
<path id="XMLID_395_" class="st0" d="M34,365c0.6,1.5,1.7,4.7,3.3,7.8c1.7,3.1,3.1,5.6,3.5,6.5c0.9,1.8-4.4,6.7-5.9,4.8
	c-0.7-1.1-2.9-4.6-4.6-8.4c-1.6-3.4-3.3-7.3-3.4-8.2C26.7,365.9,33.5,363.8,34,365z"/>
<path id="XMLID_394_" class="st1" d="M41.5,379.1c0,0-8.4,2.2-10.6-2c-0.6-1.2-1.8-3.6-1.9-4.1c-0.7-3.9,5.7-7.9,5.7-7.9
	s1.6,4.4,2.8,6.8C38.2,373.5,39.5,375.8,41.5,379.1z"/>
<path id="XMLID_393_" class="st0" d="M30,341.6c0,0-4.7-0.8-8.4,3.3c-0.3,0.4,0,2.9,0,3.4c0.5,4.2,9.5,4.2,9.5,4.2s-0.5-2.8-0.7-5.6
	C30.1,344.5,30,341.6,30,341.6z"/>
<path id="XMLID_392_" class="st0" d="M140.8,283.7c-1.2-0.9-9-5.5-10.4-6.1c-0.7-0.2,0.4-3.6,2.8-5.7c1.8-1.6,6.4-1.4,6.5-1.4
	c0.4,0.2,1.5,0.9,3.9,2.5c0.3,0.2,1.5,3.1,0.9,5.6C143.7,281.4,141,283.8,140.8,283.7z"/>
<path id="XMLID_391_" class="st0" d="M118.1,273c-1.4-0.4-10.4-1.8-12-1.7c-0.7,0-1-3.5,0.4-6.4c1.1-2.1,5.4-3.7,5.5-3.7
	c0.5,0,1.8,0.3,4.5,0.8c0.4,0.1,2.6,2.3,2.9,4.8C119.8,269.8,118.3,273,118.1,273z"/>
<path id="XMLID_390_" class="st0" d="M93.2,271c-1.5,0.1-10.4,1.9-11.8,2.5c-0.7,0.3-2.1-2.9-1.7-6c0.3-2.3,3.8-5.2,3.9-5.2
	c0.5-0.1,1.7-0.3,4.5-0.8c0.4-0.1,3.2,1.3,4.4,3.4C93.8,267.5,93.5,271,93.2,271z"/>
<path id="XMLID_389_" class="st0" d="M67.1,279.2c-1.2,0.6-8.6,4.9-9.6,5.9c-0.5,0.5-2.8-1.7-3.6-4.6c-0.6-2.1,1.3-5.8,1.4-5.9
	c0.3-0.3,1.4-0.9,3.5-2.2c0.3-0.2,3.2,0,4.9,1.5C65.8,275.7,67.3,279.1,67.1,279.2z"/>
<path id="XMLID_388_" class="st0" d="M158.6,301.7c-0.7-1.3-5.5-7.5-6.6-8.5c-0.5-0.5,1.2-3.2,4-4.4c2.1-0.9,5.3-0.5,5.4-0.4
	c0.4,0.7,2.5,3,4,5.2c0.2,0.3,0,3.9-1.6,5.8C161.9,301.4,158.7,301.9,158.6,301.7z"/>
<path id="XMLID_387_" class="st0" d="M168.6,324.5c-0.2-1.5-2.6-8.7-3.2-10.1c-0.3-0.6,2.2-2.4,5-2.7c2.3-0.2,5.1,1.1,5.2,1.3
	c0.3,0.5,1.7,4.5,2.1,7.3c0.1,0.4-0.8,3.3-2.9,4.3C172.3,325.6,168.6,324.7,168.6,324.5z"/>
<path id="XMLID_386_" class="st0" d="M169.9,349.9c0.3-1.4,0.7-8.9,0.5-10.5c-0.1-0.6,2.2-1.4,4.5-1c2.8,0.5,5,3.6,5,3.8
	c0.1,0.6-0.1,3.5-0.4,6.1c-0.1,0.4-2.3,4.2-4.7,4.1C172.4,352.3,169.9,350.1,169.9,349.9z"/>
<path id="XMLID_385_" class="st0" d="M161.7,374.1c0.8-1.2,4.1-8,4.5-9.5c0.2-0.6,3-0.8,4.7,0.8c1.8,1.7,2.6,5.2,2.6,5.4
	c-0.2,0.6-1.4,3.5-2.7,6.1c-0.2,0.4-3.3,1.7-5.6,0.9C163,377.1,161.6,374.3,161.7,374.1z"/>
<path id="XMLID_384_" class="st0" d="M144.5,394.8c1.7-1.3,10-10.1,11.8-12.5c1.2-1.6,7.5,5.2,5.9,6.8c-1.9,2.6-9.6,10.2-12.5,12.3
	C147.9,402.2,143.4,395.7,144.5,394.8z"/>
<path id="XMLID_383_" class="st0" d="M146.8,392.9c1.1-0.9,6.2-6.5,7-7.8c0.3-0.5,3.1,0.1,4.2,2.1c1.3,2.2,0.9,5.7,0.8,5.9
	c-0.3,0.5-3.5,3.6-5.5,5.6c-0.3,0.3-2.5,0.1-4.4-1.3C147.1,396.1,146.6,393,146.8,392.9z"/>
<path id="XMLID_382_" class="st1" d="M94.2,409.9c0,0,2.3,8.7,4.7,8.7c0.8,0,7.4-0.1,7.4-0.1c3.4-1.7,3.7-9.2,3.7-9.2
	s-1.5,0.5-7.8,0.6C96,410.1,94.2,409.9,94.2,409.9z"/>
<path id="XMLID_381_" class="st0" d="M47.4,294.5c-0.9,1-6.1,7.7-6.7,9c-0.3,0.6-3.2-0.5-4.9-2.8c-1.3-1.7-0.8-5.8-0.7-5.9
	c0.2-0.4,0.9-1.3,2.5-3.4c0.2-0.3,2.9-1.2,5-0.5C45,291.8,47.5,294.4,47.4,294.5z"/>
<path id="XMLID_380_" class="st0" d="M34.4,316.1c-0.5,1.2-3.3,10.2-3.4,12.4c0,1-8.5-1.9-7.6-8c0.3-1.1,1.2-5.2,1.6-5.5
	C28.1,313,34.8,315.2,34.4,316.1z"/>
<ellipse id="XMLID_379_" class="st0" cx="34.2" cy="307.8" rx="2" ry="1.8"/>
<ellipse id="XMLID_378_" class="st0" cx="26.3" cy="333.3" rx="2" ry="1.8"/>
<ellipse id="XMLID_377_" class="st0" cx="49.9" cy="286.4" rx="2" ry="1.8"/>
<ellipse id="XMLID_376_" class="st0" cx="72.3" cy="271.7" rx="2" ry="1.8"/>
<ellipse id="XMLID_375_" class="st0" cx="99.6" cy="265.3" rx="2" ry="1.8"/>
<ellipse id="XMLID_374_" class="st0" cx="126.7" cy="270" rx="2" ry="1.8"/>
<ellipse id="XMLID_373_" class="st0" cx="149.9" cy="283.7" rx="2" ry="1.8"/>
<ellipse id="XMLID_372_" class="st0" cx="167.8" cy="305.1" rx="2" ry="1.8"/>
<ellipse id="XMLID_371_" class="st0" cx="174.7" cy="331.2" rx="2" ry="1.8"/>
<ellipse id="XMLID_370_" class="st0" cx="172.7" cy="358.3" rx="2" ry="1.8"/>
<ellipse id="XMLID_369_" class="st0" cx="116.2" cy="411.9" rx="2" ry="1.8"/>
<ellipse id="XMLID_368_" class="st0" cx="142.2" cy="402.2" rx="2" ry="1.8"/>
<ellipse id="XMLID_367_" class="st0" cx="162.4" cy="382.6" rx="2" ry="1.8"/>
<ellipse id="XMLID_366_" class="st0" cx="88.6" cy="412.8" rx="2" ry="1.8"/>
<ellipse id="XMLID_365_" class="st0" cx="61.2" cy="403.9" rx="2" ry="1.8"/>
<ellipse id="XMLID_364_" class="st0" cx="40.8" cy="385.8" rx="2" ry="1.8"/>
<ellipse id="XMLID_363_" class="st0" cx="28.9" cy="361.3" rx="2" ry="1.8"/>
<path id="XMLID_360_" class="st1" d="M165.4,327.8c-30.3,0-54.8,24.3-54.8,54.3c0,30,24.5,54.3,54.8,54.3
	c30.3,0,54.8-24.3,54.8-54.3C220.2,352.1,195.6,327.8,165.4,327.8z M167.2,430.3c-26.2,0-47.4-21.4-47.4-47.8
	c0-26.4,21.2-48.5,47.4-47.8c24.1,0.6,45.1,21.7,45.1,48.1C212.3,409.2,193.4,430.3,167.2,430.3z"/>
<path id="XMLID_357_" class="st1" d="M166,334.8c-25.6,0-46.3,21.4-46.3,47.8c0,26.4,20.7,47.5,46.3,47.8
	c27.2,0.3,46.3-20.2,46.3-47.8C212.3,356.1,191.5,334.8,166,334.8z M165.1,421.6c-22.3,0-40.5-17.4-40.5-39c0-21.5,18.1-39,40.5-39
	c22.3,0,40.5,17.4,40.5,39C205.6,404.2,187.5,421.6,165.1,421.6z"/>
<path id="XMLID_354_" class="st1" d="M166.8,340.3c-22.6,0-42.1,19.3-42.1,42.4c0,23.1,19.5,41.2,42.1,41.2
	c22.6,0,40.9-18.7,40.9-41.8C207.7,359,189.4,340.3,166.8,340.3z M166,416.3c-19.7,0-35.7-15.3-35.7-34.1c0-18.8,16-34.1,35.7-34.1
	c19.7,0,35.7,15.3,35.7,34.1C201.8,401,185.8,416.3,166,416.3z"/>
<path id="XMLID_351_" class="st0" d="M248.2,394.6c-13.7,0-24.8,10.8-24.8,24.2c0,13.4,11.1,24.2,24.8,24.2
	c13.7,0,24.8-10.8,24.8-24.2C273,405.4,261.9,394.6,248.2,394.6z M248.3,436.7c-10.2,0-18.5-8-18.5-17.9c0-9.9,8.3-17.9,18.5-17.9
	c10.2,0,18.5,8,18.5,17.9C266.9,428.7,258.6,436.7,248.3,436.7z"/>
<rect id="XMLID_350_" x="250.1" y="396.1" transform="matrix(0.9753 0.2208 -0.2208 0.9753 94.3596 -46.2497)" class="st1" width="7.9" height="5.6"/>
<rect id="XMLID_349_" x="259.5" y="401.3" transform="matrix(0.7155 0.6986 -0.6986 0.7155 356.9984 -68.8953)" class="st1" width="7.1" height="5.1"/>
<rect id="XMLID_348_" x="265" y="409.5" transform="matrix(0.3657 0.9308 -0.9308 0.3657 553.9453 11.4522)" class="st1" width="7.1" height="5.1"/>
<polygon id="XMLID_347_" class="st1" points="266.4,425.2 267.4,418.1 272.5,418.8 271.5,425.9 "/>
<polygon id="XMLID_346_" class="st1" points="261.2,432.2 265.5,426.6 269.6,429.7 265.3,435.4 "/>
<rect id="XMLID_345_" x="243.3" y="437.1" transform="matrix(-0.9949 -0.1013 0.1013 -0.9949 447.9842 902.0232)" class="st1" width="7.1" height="5.1"/>
<rect id="XMLID_344_" x="233.3" y="433.6" transform="matrix(-0.8506 -0.5259 0.5259 -0.8506 209.0372 931.7679)" class="st1" width="7.1" height="5.1"/>
<rect id="XMLID_343_" x="225.2" y="407.6" transform="matrix(0.4158 -0.9094 0.9094 0.4158 -239.6232 447.8359)" class="st1" width="7.1" height="5.7"/>
<rect id="XMLID_342_" x="231.4" y="400" transform="matrix(0.8079 -0.5893 0.5893 0.8079 -192.127 215.7785)" class="st1" width="7.1" height="5.3"/>
<ellipse id="XMLID_341_" transform="matrix(0.9753 0.2211 -0.2211 0.9753 94.4548 -46.344)" class="st1" cx="254.3" cy="398.8" rx="1.7" ry="2.2"/>
<ellipse id="XMLID_340_" transform="matrix(0.7506 0.6607 -0.6607 0.7506 332.6132 -73.3523)" class="st1" cx="263.5" cy="404" rx="1.8" ry="2.1"/>
<path id="XMLID_339_" class="st1" d="M269.2,413.8c-1.1,0.4-2.2,0-2.6-0.9c-0.3-0.9,0.3-2,1.4-2.4c1.1-0.4,2.2,0,2.6,0.9
	C270.9,412.3,270.3,413.4,269.2,413.8z"/>
<path id="XMLID_338_" class="st1" d="M270.2,423.6c-1,0.5-2.2,0.2-2.7-0.6c-0.4-0.9,0.1-2,1.1-2.5c1-0.5,2.2-0.2,2.7,0.6
	C271.7,421.9,271.2,423.1,270.2,423.6z"/>
<path id="XMLID_337_" class="st1" d="M266.7,432.2c-0.8,0.8-2,0.9-2.7,0.2c-0.7-0.7-0.6-1.9,0.3-2.7c0.8-0.8,2-0.9,2.7-0.2
	C267.6,430.2,267.5,431.4,266.7,432.2z"/>
<polygon id="XMLID_336_" class="st1" points="253.3,436.6 259.7,433.4 262,438.1 255.6,441.2 "/>
<path id="XMLID_335_" class="st1" d="M258.2,439c-1.1,0.4-2.2-0.1-2.6-1c-0.3-0.9,0.3-2,1.4-2.3c1.1-0.4,2.2,0.1,2.6,1
	C259.9,437.6,259.3,438.6,258.2,439z"/>
<path id="XMLID_334_" class="st1" d="M247.4,441.3c-1.1,0.4-2.2-0.1-2.6-1c-0.3-0.9,0.3-2,1.4-2.3c1.1-0.4,2.2,0.1,2.6,1
	C249.2,439.9,248.5,440.9,247.4,441.3z"/>
<path id="XMLID_333_" class="st1" d="M237.6,437.4c-1.1,0.5-2.2,0.2-2.7-0.7c-0.4-0.9,0.1-2,1.1-2.5c1-0.5,2.2-0.2,2.7,0.7
	C239.1,435.8,238.6,436.9,237.6,437.4z"/>
<polygon id="XMLID_332_" class="st1" points="230.3,425.6 234.5,431.3 230.4,434.4 226.2,428.6 "/>
<path id="XMLID_331_" class="st1" d="M230.5,431.3c-1.2,0.1-2.2-0.6-2.2-1.6c-0.1-1,0.8-1.8,2-1.9c1.2-0.1,2.2,0.6,2.2,1.6
	C232.6,430.4,231.7,431.3,230.5,431.3z"/>
<rect id="XMLID_330_" x="223.5" y="417.3" transform="matrix(-8.455744e-002 -0.9964 0.9964 -8.455744e-002 -172.3915 681.8658)" class="st1" width="7.1" height="5.6"/>
<path id="XMLID_329_" class="st1" d="M225.9,421.4c-1-0.5-1.5-1.7-1-2.5c0.5-0.9,1.7-1.1,2.7-0.6c1,0.5,1.5,1.7,1,2.5
	C228.1,421.7,226.9,422,225.9,421.4z"/>
<path id="XMLID_328_" class="st1" d="M228,412c-1.1-0.3-1.8-1.4-1.5-2.3c0.3-0.9,1.4-1.4,2.5-1.1c1.1,0.3,1.8,1.4,1.5,2.3
	C230.3,411.9,229.1,412.3,228,412z"/>
<path id="XMLID_327_" class="st1" d="M234.9,404.5c-1.2-0.1-2.1-0.9-2-1.9c0-1,1-1.7,2.2-1.6c1.2,0.1,2.1,0.9,2,1.9
	C237.1,403.8,236.1,404.5,234.9,404.5z"/>
<rect id="XMLID_326_" x="240.5" y="395.8" transform="matrix(0.9868 -0.1619 0.1619 0.9868 -61.2998 44.7924)" class="st1" width="7.1" height="5.3"/>
<path id="XMLID_325_" class="st1" d="M243.3,400c-1-0.6-1.4-1.7-1-2.6c0.5-0.8,1.7-1.1,2.7-0.5c1,0.6,1.4,1.7,1,2.6
	C245.5,400.4,244.3,400.6,243.3,400z"/>
<path id="XMLID_324_" class="st0" d="M453.8,338c-0.8-0.6-5.9-3.6-6.8-3.9c-0.4-0.2,0.1-2.2,1.6-3.4c1.1-0.9,4-0.7,4.1-0.6
	c0.3,0.1,1,0.6,2.5,1.6c0.2,0.1,1,1.9,0.7,3.4C455.6,336.7,453.9,338.1,453.8,338z"/>
<path id="XMLID_323_" class="st0" d="M438.2,331.3c-0.9-0.2-6.8-1.1-7.8-1.1c-0.5,0-0.7-2.1,0.3-3.8c0.7-1.3,3.5-2.2,3.6-2.2
	c0.3,0,1.1,0.2,2.9,0.5c0.3,0,1.7,1.4,1.9,2.9C439.4,329.4,438.4,331.3,438.2,331.3z"/>
<path id="XMLID_322_" class="st0" d="M421.5,329.9c-1,0.1-6.8,1.1-7.7,1.5c-0.4,0.2-1.3-1.7-0.9-3.5c0.3-1.3,2.6-3,2.7-3.1
	c0.3-0.1,1.1-0.2,2.9-0.5c0.3,0,2,0.7,2.7,2C422,327.9,421.6,329.9,421.5,329.9z"/>
<path id="XMLID_321_" class="st0" d="M404.4,335.8c-0.9,0.4-5.8,3.7-6.5,4.4c-0.3,0.3-1.9-1.1-2.4-3c-0.3-1.4,1.1-4,1.2-4
	c0.2-0.2,1-0.6,2.5-1.6c0.2-0.1,2.2-0.1,3.4,0.9C404,333.6,404.6,335.7,404.4,335.8z"/>
<path id="XMLID_320_" class="st0" d="M392.6,345.1c-0.7,0.7-4.3,5.4-4.7,6.3c-0.2,0.4-2.1-0.4-3-1.9c-0.7-1.2-0.1-4,0-4.1
	c0.2-0.3,0.7-0.9,1.9-2.3c0.2-0.2,2-0.8,3.3-0.4C391.6,343.2,392.8,344.9,392.6,345.1z"/>
<path id="XMLID_319_" class="st0" d="M465.1,350.1c-0.5-0.8-3.6-4.8-4.3-5.5c-0.3-0.3,0.8-2,2.6-2.8c1.4-0.6,3.5-0.3,3.5-0.3
	c0.3,0.4,1.6,2,2.6,3.3c0.1,0.2,0,2.5-1,3.7C467.2,349.9,465.1,350.3,465.1,350.1z"/>
<path id="XMLID_318_" class="st0" d="M472.3,366.5c-0.1-0.9-1.3-6.1-1.7-7c-0.2-0.4,1.3-1.6,3-1.6c1.3,0,3,1,3,1.1
	c0.1,0.5,0.8,2.4,1.2,4.1c0.1,0.3-0.7,2.3-2,3C474.4,366.9,472.3,366.6,472.3,366.5z"/>
<path id="XMLID_317_" class="st0" d="M464.4,401.2c0.6-0.7,3.3-5.3,3.7-6.2c0.2-0.4,2-0.1,3.2,1.1c0.9,0.9,1.3,2.9,1.2,3
	c-0.3,0.4-1.3,2.2-2.2,3.6c-0.2,0.2-2.2,1-3.5,0.6C465.3,402.8,464.3,401.3,464.4,401.2z"/>
<path id="XMLID_316_" class="st0" d="M447.1,415.4c0.9-0.4,5.4-3,6.2-3.7c0.4-0.3,1.8,0.8,2.3,2.5c0.3,1.3-0.3,3.1-0.3,3.2
	c-0.5,0.2-2.2,1.3-3.6,2.2c-0.2,0.1-2.4-0.1-3.4-1.2C447.1,417.3,446.9,415.5,447.1,415.4z"/>
<path id="XMLID_315_" class="st0" d="M471.9,384.4c0.2-0.9,1-6.1,0.9-7.2c0-0.5,1.8-0.9,3.4-0.2c1.2,0.5,2.3,2.1,2.3,2.2
	c-0.1,0.5-0.3,2.5-0.5,4.2c-0.1,0.3-1.6,1.8-3,2C473.4,385.6,471.8,384.6,471.9,384.4z"/>
<ellipse id="XMLID_314_" transform="matrix(0.8235 -0.5673 0.5673 0.8235 -29.0432 138.2698)" class="st2" cx="207.7" cy="115.8" rx="4" ry="6.6"/>
<ellipse id="XMLID_313_" transform="matrix(0.8235 -0.5673 0.5673 0.8235 -8.521 165.3948)" class="st2" cx="261.6" cy="96.4" rx="4" ry="6.6"/>
<ellipse id="XMLID_312_" transform="matrix(0.8235 -0.5673 0.5673 0.8235 0.2915 193.9825)" class="st2" cx="311.9" cy="96.5" rx="4" ry="6.6"/>
<ellipse id="XMLID_311_" transform="matrix(0.8235 -0.5673 0.5673 0.8235 -1.7786 225.2223)" class="st2" cx="361.1" cy="115.5" rx="4" ry="6.6"/>
<ellipse id="XMLID_310_" transform="matrix(0.8235 -0.5673 0.5673 0.8235 -14.5919 256.9584)" class="st2" cx="405.7" cy="151.9" rx="4" ry="6.6"/>
<ellipse id="XMLID_309_" transform="matrix(0.8235 -0.5673 0.5673 0.8235 -37.0947 277.6245)" class="st2" cx="427.6" cy="198.4" rx="4" ry="6.6"/>
<ellipse id="XMLID_308_" transform="matrix(0.8235 -0.5673 0.5673 0.8235 -66.3898 290.5997)" class="st2" cx="433.9" cy="252" rx="4" ry="6.6"/>
<ellipse id="XMLID_307_" transform="matrix(0.8235 -0.5673 0.5673 0.8235 -99.1262 291.5139)" class="st2" cx="419" cy="305.1" rx="4" ry="6.6"/>
<ellipse id="XMLID_306_" transform="matrix(0.8235 -0.5673 0.5673 0.8235 -170.402 231.5504)" class="st2" cx="286.9" cy="389.6" rx="4" ry="6.6"/>
<ellipse id="XMLID_305_" transform="matrix(0.8235 -0.5673 0.5673 0.8235 -174.7813 197.5463)" class="st2" cx="230.1" cy="379.7" rx="4" ry="6.6"/>
<ellipse id="XMLID_304_" transform="matrix(0.8235 -0.5673 0.5673 0.8235 -87.1241 116.812)" class="st2" cx="144.2" cy="198.4" rx="4" ry="6.6"/>
<ellipse id="XMLID_303_" transform="matrix(0.8235 -0.5673 0.5673 0.8235 -56.695 121.8931)" class="st2" cx="167.6" cy="152.1" rx="4" ry="6.6"/>
<ellipse id="XMLID_302_" class="st0" cx="87.2" cy="267.5" rx="3.4" ry="1.5"/>
<ellipse id="XMLID_301_" class="st0" cx="112.8" cy="268.2" rx="3.4" ry="1.5"/>
<ellipse id="XMLID_300_" class="st0" cx="138.9" cy="274.1" rx="3.4" ry="1.5"/>
<ellipse id="XMLID_299_" class="st0" cx="158.6" cy="295" rx="3.4" ry="1.5"/>
<ellipse id="XMLID_298_" class="st0" cx="171.4" cy="317" rx="3.4" ry="1.5"/>
<ellipse id="XMLID_297_" class="st0" cx="167.6" cy="372.6" rx="3.4" ry="1.5"/>
<ellipse id="XMLID_296_" class="st0" cx="151.8" cy="392.1" rx="3.4" ry="1.5"/>
<ellipse id="XMLID_295_" class="st0" cx="100.6" cy="414.3" rx="3.4" ry="1.5"/>
<ellipse id="XMLID_294_" class="st0" cx="73.9" cy="409.2" rx="3.4" ry="1.5"/>
<ellipse id="XMLID_293_" class="st0" cx="47.9" cy="393.2" rx="3.4" ry="1.5"/>
<ellipse id="XMLID_292_" class="st0" cx="34" cy="373.8" rx="3.4" ry="1.5"/>
<ellipse id="XMLID_291_" class="st0" cx="26.2" cy="347" rx="3.4" ry="1.5"/>
<ellipse id="XMLID_290_" class="st0" cx="28.3" cy="320.6" rx="3.4" ry="1.5"/>
<ellipse id="XMLID_289_" class="st0" cx="38.8" cy="296.2" rx="3.4" ry="1.5"/>
<ellipse id="XMLID_288_" class="st0" cx="59.2" cy="277.1" rx="3.4" ry="1.5"/>
<ellipse id="XMLID_287_" class="st3" cx="417.2" cy="326.8" rx="2.7" ry="1.1"/>
<ellipse id="XMLID_286_" class="st3" cx="434.7" cy="327.6" rx="2.7" ry="1.1"/>
<ellipse id="XMLID_285_" class="st3" cx="452.1" cy="332.6" rx="2.7" ry="1.1"/>
<ellipse id="XMLID_284_" class="st3" cx="465.4" cy="344.7" rx="2.7" ry="1.1"/>
<ellipse id="XMLID_283_" class="st3" cx="473.9" cy="360.9" rx="2.7" ry="1.1"/>
<ellipse id="XMLID_282_" class="st3" cx="475.2" cy="379.8" rx="2.7" ry="1.1"/>
<ellipse id="XMLID_281_" class="st3" cx="468" cy="400.4" rx="2.7" ry="1.1"/>
<ellipse id="XMLID_280_" class="st3" cx="451.4" cy="415.7" rx="2.7" ry="1.1"/>
<ellipse id="XMLID_279_" class="st3" cx="387.7" cy="346.7" rx="2.7" ry="1.1"/>
<ellipse id="XMLID_278_" class="st3" cx="400" cy="333.8" rx="2.7" ry="1.1"/>
<linearGradient id="XMLID_517_" gradientUnits="userSpaceOnUse" x1="104.8306" y1="240.1799" x2="465.1032" y2="240.1799">
	<stop  offset="0" style="stop-color:#FFFFFF"/>
	<stop  offset="0.1697" style="stop-color:#B0B2B3"/>
	<stop  offset="0.3455" style="stop-color:#D8D9DA"/>
	<stop  offset="0.4606" style="stop-color:#868789"/>
	<stop  offset="0.6242" style="stop-color:#D8D9DA"/>
	<stop  offset="0.7515" style="stop-color:#9B9C9E"/>
	<stop  offset="0.8545" style="stop-color:#D8D9DA"/>
	<stop  offset="0.9697" style="stop-color:#868789"/>
</linearGradient>
<path id="XMLID_275_" class="st4" d="M285,61.7c-99.5,0-180.1,79.9-180.1,178.5c0,98.6,80.6,178.5,180.1,178.5
	c99.5,0,180.1-79.9,180.1-178.5C465.1,141.6,384.5,61.7,285,61.7z M285,358.8c-65.5,0-118.7-53.1-118.7-118.5
	c0-65.5,53.1-118.5,118.7-118.5c65.5,0,118.7,53.1,118.7,118.5C403.6,305.8,350.5,358.8,285,358.8z"/>
<path id="XMLID_272_" class="st5" d="M284.9,83c-87.3,0-158,70.4-158,157.3c0,86.9,70.7,157.3,158,157.3c87.3,0,158-70.4,158-157.3
	C442.9,153.5,372.1,83,284.9,83z M284.2,380.5c-77,0-139.5-61.9-139.5-138.2S207.2,104,284.2,104c77,0,139.5,61.9,139.5,138.2
	S361.2,380.5,284.2,380.5z"/>
<path id="XMLID_271_" class="st6" d="M322.9,109.4c-6.5-1.6-27.6-4.6-31.6-5.2c-3.9-0.6-0.7-21.8,3.9-20.8c4.8,0,28.7,3.6,31.9,5.3
	C330.4,89.6,326.7,110.4,322.9,109.4z"/>
<path id="XMLID_270_" class="st6" d="M370,133.3c-4.3-3.7-25-15.1-28.5-17.1c-3.5-1.9,6.1-21,10-18.5c12.2,5.6,27.1,15.1,29.5,17.8
	C383.8,117.5,372.9,135.8,370,133.3z"/>
<path id="XMLID_269_" class="st6" d="M404,171.4c-2.6-6-17.9-24-21.2-27c-3-2.6,14.9-15.4,17.5-11.6c1.2,1.6,18.8,22.6,19.8,26
	C421.8,161.8,405.5,175,404,171.4z"/>
<path id="XMLID_268_" class="st6" d="M421.1,215.8c-0.8-3.8-7.5-26-9.9-30.7c-1.8-3.5,18.1-10.7,19.1-6.1
	c0.5,1.9,10.1,29.1,9.9,32.7C440.9,215.1,421.9,219.6,421.1,215.8z"/>
<path id="XMLID_267_" class="st6" d="M421.2,268.3c1.4-5.5,3.2-29.1,2.5-33.7c-0.7-3.9,19.5-4,19.1,0.7c0.8,5,0,28-2.5,33.7
	C438.6,272.4,420.6,270.8,421.2,268.3z"/>
<path id="XMLID_266_" class="st6" d="M403.3,314.3c2.5-3.4,12-24,13.9-29.6c1.3-3.8,18.7,4.6,16.5,8.7c-1.3,3.6-11.8,27.1-14.3,29.6
	C416.4,325.6,401.7,316.5,403.3,314.3z"/>
<path id="XMLID_265_" class="st6" d="M272.3,380c3.1,0.2,9,0.8,16,0.4c7-0.3,13.4-1.3,15.4-1.3c4,0,8.1,15.7,3.5,17
	c-2.6,0.3-10.9,1.7-19.2,1.5c-7.4-0.2-15.7,0-17.4-0.6C267.1,395.5,269.7,379.8,272.3,380z"/>
<path id="XMLID_264_" class="st6" d="M220,365c2.9,1.3,8.9,4.7,15.5,6.8c6.7,2.1,12.2,3.8,14.1,4.5c3.7,1.4,2.2,17.3-2.5,16.8
	c-2.5-0.6-10.5-2.6-18.1-5.6c-6.9-2.7-14.7-6.2-16-7.2C210.1,377.8,217.6,363.9,220,365z"/>
<path id="XMLID_263_" class="st6" d="M323.5,375c4.2-1.3,24.9-8.7,30.7-13c3.2-2.4,12.7,14,8.3,15.6c-1.8,0.7-28.8,13.6-32.4,13.7
	C326.1,391.1,321,375.7,323.5,375z"/>
<path id="XMLID_262_" class="st6" d="M275.3,104.3c-6.5-0.6-29.5,5.4-33.4,6.2c-3.9,0.8-10.1-19.3-5.5-20c1.9-0.4,26.9-6.9,34.3-6.9
	C274.2,83.3,279.1,104.7,275.3,104.3z"/>
<path id="XMLID_261_" class="st6" d="M224,117.5c-4.3,1.8-24.3,14.2-28.5,18c-2.9,2.7-14.4-14.8-10.4-17.2
	c1.7-1.1,23.7-16.9,27.2-17.8C215.4,98.9,227.6,116,224,117.5z"/>
<path id="XMLID_260_" class="st6" d="M184.3,145.8c-5.8,4.9-18.5,23.3-20.9,27.3c-2.1,3.4-18.9-6.7-16-10.4
	c1.2-1.6,16.8-25.4,19.8-27.4C169.5,132.8,187.2,143.3,184.3,145.8z"/>
<path id="XMLID_259_" class="st6" d="M155.2,189.5c-1.1,2.7-2.9,8.2-5.3,15.6c-1.9,5.9-3,13.4-3.5,15.3c-1.1,4.1-19.3,0.4-17.7-4.3
	c-0.1-3.1,6.6-26.7,8.3-31.3C138.4,181.3,157,185.2,155.2,189.5z"/>
<path id="XMLID_258_" class="st6" d="M144.6,241.4c-0.1,2.9,0.6,8.4,0.8,16.1c0.2,6.2,2.3,13.6,2.5,15.5c0.3,4.3-17.4,7.1-17.4,2.1
	c-1.3-2.5-3.9-27.3-3.6-32.3C127,239.1,144.8,236.7,144.6,241.4z"/>
<path id="XMLID_257_" class="st7" d="M250.4,376.4c0,0-9.4,15.3-18.7,12.2c-2.6-0.9-7.8-2.8-8.7-3.5c-6.6-4.8-2.7-19.9-2.7-19.9
	s8.6,4.3,13.9,6.2C237.5,372.6,242.7,374.2,250.4,376.4z"/>
<path id="XMLID_256_" class="st8" d="M144.8,244.6c0,0-9.4-1.6-16.8,6.6c-0.7,0.7-0.1,5.9,0,6.7c0.8,4.2,18.8,8.3,18.8,8.3
	s-1.1-5.6-1.5-11.2C144.9,250.4,144.8,244.6,144.8,244.6z"/>
<linearGradient id="XMLID_518_" gradientUnits="userSpaceOnUse" x1="367.9361" y1="375.7737" x2="486.4316" y2="375.7737">
	<stop  offset="0" style="stop-color:#FFFFFF"/>
	<stop  offset="0.1697" style="stop-color:#B0B2B3"/>
	<stop  offset="0.3455" style="stop-color:#D8D9DA"/>
	<stop  offset="0.4606" style="stop-color:#868789"/>
	<stop  offset="0.6242" style="stop-color:#D8D9DA"/>
	<stop  offset="0.7515" style="stop-color:#9B9C9E"/>
	<stop  offset="0.8545" style="stop-color:#D8D9DA"/>
	<stop  offset="0.9697" style="stop-color:#868789"/>
</linearGradient>
<path id="XMLID_253_" class="st9" d="M427.2,317.9c-32.7,0-59.2,25.9-59.2,57.9c0,32,26.5,57.9,59.2,57.9
	c32.7,0,59.2-25.9,59.2-57.9C486.4,343.8,459.9,317.9,427.2,317.9z M427.2,414.2c-21.6,0-39-17.2-39-38.4c0-21.2,17.5-38.4,39-38.4
	c21.6,0,39,17.2,39,38.4C466.2,397,448.7,414.2,427.2,414.2z"/>
<path id="XMLID_250_" class="st5" d="M427.1,323.5c-28.7,0-52,22.8-52,51c0,28.2,23.3,51,52,51c28.7,0,52-22.8,52-51
	C479.1,346.3,455.8,323.5,427.1,323.5z M426.9,419.9c-25.3,0-45.9-20.1-45.9-44.8c0-24.7,20.5-44.8,45.9-44.8
	c25.3,0,45.9,20.1,45.9,44.8C472.8,399.8,452.3,419.9,426.9,419.9z"/>
<path id="XMLID_249_" class="st10" d="M440,331.3c-1.3,0.3-9.7-1.4-10.9-1.6c-1.3-0.2-0.6-6.2,0.9-5.9c0.6,0.1,9.9,0.9,11,1.6
	C442,325.7,441.3,331,440,331.3z"/>
<path id="XMLID_248_" class="st10" d="M455.6,339c-1.3-0.2-8.5-4.8-9.6-5.4c-1.2-0.6,1.5-5.7,2.8-4.9c0.6,0.3,8.9,4.4,9.6,5.4
	C459.3,334.8,456.9,339.2,455.6,339z"/>
<path id="XMLID_247_" class="st10" d="M466.5,351.7c-1.1-0.7-5.8-7.7-6.6-8.7c-0.8-1,3.6-4.5,4.4-3.3c0.4,0.5,6.3,7.6,6.6,8.7
	C471.5,349.4,467.5,352.4,466.5,351.7z"/>
<path id="XMLID_246_" class="st11" d="M472,366.5c-0.1-0.9-1.4-5.8-1.8-6.8c-0.2-0.4,1.4-1.5,3.1-1.5c1.3,0,3,1.1,3,1.2
	c0.1,0.5,0.7,2.4,1.1,4.1c0,0.3-0.8,2.3-2.1,2.9C473.9,367.3,472.1,366.7,472,366.5z"/>
<path id="XMLID_245_" class="st10" d="M473,368.5c-0.7-1.1-2.5-9.3-2.8-10.6c-0.4-1.2,5-2.8,5.3-1.3c0.2,0.6,3,9.4,2.8,10.6
	C478.4,368.3,473.7,369.6,473,368.5z"/>
<path id="XMLID_244_" class="st11" d="M471.7,384.6c0.3-0.9,1.1-6.5,1.1-7.5c0-0.4,2-0.4,3.3,0.3c1.5,0.7,2.6,2.7,2.6,2.9
	c0,0.4-0.2,2.4-0.6,4.3c-0.1,0.3-1.7,1.7-3.3,1.6C473.3,386.1,471.6,384.8,471.7,384.6z"/>
<path id="XMLID_243_" class="st10" d="M471.2,387c0.4-1.3,2-9.9,1.6-11.9c-0.2-1.3,6.6,0.5,6.3,1.9c-0.1,1.2-1.2,9.5-1.7,10.6
	C476.7,388.6,470.9,387.8,471.2,387z"/>
<path id="XMLID_242_" class="st11" d="M464.9,400.8c0.6-0.7,3.4-5.5,3.8-6.4c0.1-0.4,1.8,0.4,2.8,1.6c1,1.2,1,1.7,1.1,2.8
	c0,0.4-1.7,3.2-2.7,4.7c-0.2,0.2-1.5,0.6-2.8,0C465.8,402.8,464.8,400.9,464.9,400.8z"/>
<path id="XMLID_241_" class="st10" d="M463,402.7c0.8-1.1,5.8-8.4,6.3-10.4c0.3-1.2,5.5,3,4.7,4.2c-0.5,1.1-5,8.6-5.9,9.3
	C467.1,406.5,462.5,403.4,463,402.7z"/>
<path id="XMLID_240_" class="st11" d="M448.3,415c0.9-0.4,5.6-3.2,6.3-3.9c0.3-0.2,1.4,1.3,1.7,2.7c0.3,1.6,0.1,2.5,0.1,2.5
	c-0.5,0.4-3.9,2.4-5.5,3.2c-0.2,0.1-1.2-0.1-2-1.3C448.2,417.2,448.2,415.1,448.3,415z"/>
<path id="XMLID_239_" class="st10" d="M445.6,416.2c0.6-0.3,3.2-1.3,5.5-2.7c2.3-1.4,4.3-3.2,5.1-3.9c1-0.8,3.5,4.9,2.2,5.6
	c-1,0.7-8.3,5-9.7,5.7C447.6,421.3,444.8,416.5,445.6,416.2z"/>
<path id="XMLID_238_" class="st10" d="M408.2,415.9c0.9,0.4,2.7,1.2,4.9,1.8c2.2,0.6,4.5,1.2,5.2,1.4c1.2,0.4,0.7,5.5-0.9,5.4
	c-0.8-0.2-3.6-0.6-6.1-1.5c-2.3-0.8-4.9-1.7-5.3-2C405,420.1,407.4,415.6,408.2,415.9z"/>
<path id="XMLID_237_" class="st12" d="M394.6,407c0.8,0.7,2.4,2.3,4.3,3.6c1.9,1.3,3.5,2.3,4,2.7c1.1,0.8-0.9,5.6-2.3,5
	c-0.7-0.4-3.1-1.8-5.2-3.4c-1.9-1.5-4.1-3.3-4.4-3.7C390.4,410,394,406.4,394.6,407z"/>
<path id="XMLID_236_" class="st10" d="M423.3,329.4c-1.1,0.6-9.6,1.8-10.9,2.1c-1.3,0.3-2.5-5-1-5.2c0.6-0.1,9.7-2.4,10.9-2.1
	C423.4,324.2,424.4,328.8,423.3,329.4z"/>
<path id="XMLID_235_" class="st10" d="M406.3,334.5c-0.8,1-8.2,5.2-9.3,5.9c-1.1,0.7-4.4-3.9-3-4.6c0.5-0.3,8.1-5.8,9.3-5.9
	C404.2,329.4,407.1,333.5,406.3,334.5z"/>
<path id="XMLID_234_" class="st10" d="M393.2,343.8c-0.4,1.2-5.8,7.7-6.6,8.8c-0.8,1-5.4-2-4.4-3.2c0.4-0.5,5.5-8.2,6.6-8.8
	C389.6,339.9,393.6,342.6,393.2,343.8z"/>
<path id="XMLID_233_" class="st12" d="M383.9,359.4c-0.3,0.8-2.1,6.6-2.2,8c0,0.6-5.3-2.5-4.7-6.4
	C378,358.7,384.3,358.6,383.9,359.4z"/>
<path id="XMLID_232_" class="st10" d="M384.5,358c-0.4,0.9-1,2.6-1.7,5c-0.6,1.9-1,4.4-1.2,4.9c-0.4,1.3-6.4,0.1-5.8-1.4
	c0-1,2.2-8.7,2.7-10.1C379,355.3,385.1,356.6,384.5,358z"/>
<path id="XMLID_231_" class="st10" d="M381,374.3c0,1,0.2,2.7,0.3,5.2c0.1,2,0.8,4.4,0.8,5c0.1,1.4-5.7,2.3-5.7,0.7
	c-0.4-0.8-1.3-8.8-1.2-10.5C375.2,373.6,381.1,372.8,381,374.3z"/>
<path id="XMLID_230_" class="st11" d="M408.2,416.2c0,0-0.2,5.8,3.5,6.9s6.6-4,6.6-4s-1,0-4.9-1.2
	C409.4,416.7,408.2,416.2,408.2,416.2z"/>
<path id="XMLID_229_" class="st10" d="M426.1,420c1,0,3,0.1,5.2-0.2c2.3-0.2,4.6-0.6,5.3-0.7c1.3-0.1,2.7,4.9,1.2,5.4
	c-0.8,0.1-3.6,0.8-6.3,0.9c-2.4,0.1-5.2,0.3-5.7,0.1C424.6,425.1,425.2,420,426.1,420z"/>
<path id="XMLID_228_" class="st11" d="M426.2,420.3c0,0,1.7,5.1,5.8,5.1c4.2,0,4.6-6.1,4.6-6.1s-0.9,0.4-5,0.7
	C427.5,420.3,426.2,420.3,426.2,420.3z"/>
<path id="XMLID_227_" class="st13" d="M403.2,413.3c0,0-4.4,3.9-7,2.1c-2.6-1.8-1.5-8.3-1.5-8.3s2.3,2.1,3.8,3.2
	C399.5,411,401,411.9,403.2,413.3z"/>
<path id="XMLID_226_" class="st10" d="M384.1,391.8c0.5,0.9,1.7,2.8,2.8,4.8c1,1.9,2.4,4,2.7,4.5c0.7,1.1-2.7,4.4-3.8,3.3
	c-0.5-0.7-2.3-2.7-3.7-5c-1.3-2.1-2.7-4.5-2.8-5C379,393.1,383.7,391,384.1,391.8z"/>
<path id="XMLID_225_" class="st11" d="M389.4,400.9c0,0-5,1.9-6.8-0.7c-1.8-2.6,1.5-8.3,1.5-8.3s1.5,2.5,2.4,4.1
	C387.3,397.3,387.8,398.7,389.4,400.9z"/>
<path id="XMLID_222_" class="st14" d="M249,391.9c-15.8,0-28.6,12-28.6,26.8c0,14.8,12.8,26.8,28.6,26.8c15.8,0,28.7-12,28.7-26.8
	C277.6,403.9,264.8,391.9,249,391.9z M248.4,433.5c-7.9,0-14.3-6.3-14.3-14.1c0-7.8,6.4-14.1,14.3-14.1c7.9,0,14.3,6.3,14.3,14.1
	C262.7,427.2,256.3,433.5,248.4,433.5z"/>
<linearGradient id="XMLID_519_" gradientUnits="userSpaceOnUse" x1="323.9558" y1="398.9952" x2="413.137" y2="398.9952">
	<stop  offset="0" style="stop-color:#FFFFFF"/>
	<stop  offset="0.1697" style="stop-color:#B0B2B3"/>
	<stop  offset="0.3455" style="stop-color:#D8D9DA"/>
	<stop  offset="0.4606" style="stop-color:#868789"/>
	<stop  offset="0.6242" style="stop-color:#D8D9DA"/>
	<stop  offset="0.7515" style="stop-color:#9B9C9E"/>
	<stop  offset="0.8545" style="stop-color:#D8D9DA"/>
	<stop  offset="0.9697" style="stop-color:#868789"/>
</linearGradient>
<path id="XMLID_219_" class="st15" d="M368.5,356.8c-24.6,0-44.6,18.9-44.6,42.2c0,23.3,20,42.2,44.6,42.2
	c24.6,0,44.6-18.9,44.6-42.2C413.1,375.7,393.2,356.8,368.5,356.8z M368.5,436.9c-22.9,0-41.4-17-41.4-38c0-21,18.5-38,41.4-38
	c22.9,0,41.4,17,41.4,38C409.9,419.9,391.4,436.9,368.5,436.9z"/>
<path id="XMLID_216_" class="st16" d="M368.5,360.9c-22.8,0-41.4,17-41.4,38c0,21,18.5,38,41.4,38c22.8,0,41.4-17,41.4-38
	C409.9,377.9,391.3,360.9,368.5,360.9z M369.3,422.6c-14,0-25.3-10.2-25.3-22.8c0-12.6,11.3-22.8,25.3-22.8s25.3,10.2,25.3,22.8
	C394.6,412.4,383.2,422.6,369.3,422.6z"/>
<linearGradient id="XMLID_520_" gradientUnits="userSpaceOnUse" x1="344.0257" y1="399.7891" x2="394.5506" y2="399.7891">
	<stop  offset="0" style="stop-color:#FFFFFF"/>
	<stop  offset="0.1697" style="stop-color:#B0B2B3"/>
	<stop  offset="0.3455" style="stop-color:#D8D9DA"/>
	<stop  offset="0.4606" style="stop-color:#868789"/>
	<stop  offset="0.6242" style="stop-color:#D8D9DA"/>
	<stop  offset="0.7515" style="stop-color:#9B9C9E"/>
	<stop  offset="0.8545" style="stop-color:#D8D9DA"/>
	<stop  offset="0.9697" style="stop-color:#868789"/>
</linearGradient>
<path id="XMLID_213_" class="st17" d="M369.3,377c-14,0-25.3,10.2-25.3,22.8s11.3,22.8,25.3,22.8s25.3-10.2,25.3-22.8
	S383.2,377,369.3,377z M369.6,418.7c-11.3,0-20.4-8.2-20.4-18.4c0-10.2,9.1-18.4,20.4-18.4c11.3,0,20.4,8.2,20.4,18.4
	C389.9,410.5,380.8,418.7,369.6,418.7z"/>
<linearGradient id="XMLID_521_" gradientUnits="userSpaceOnUse" x1="386.7828" y1="421.3289" x2="436.4962" y2="421.3289">
	<stop  offset="0" style="stop-color:#FFFFFF"/>
	<stop  offset="0.1697" style="stop-color:#B0B2B3"/>
	<stop  offset="0.3455" style="stop-color:#D8D9DA"/>
	<stop  offset="0.4606" style="stop-color:#868789"/>
	<stop  offset="0.6242" style="stop-color:#D8D9DA"/>
	<stop  offset="0.7515" style="stop-color:#9B9C9E"/>
	<stop  offset="0.8545" style="stop-color:#D8D9DA"/>
	<stop  offset="0.9697" style="stop-color:#868789"/>
</linearGradient>
<path id="XMLID_210_" class="st18" d="M411.6,398.1c-13.7,0-24.9,10.4-24.9,23.2c0,12.8,11.1,23.2,24.9,23.2
	c13.7,0,24.9-10.4,24.9-23.2C436.5,408.5,425.4,398.1,411.6,398.1z M411.6,442.2c-12.7,0-23.1-9.4-23.1-20.9
	c0-11.6,10.3-20.9,23.1-20.9s23.1,9.4,23.1,20.9C434.7,432.8,424.4,442.2,411.6,442.2z"/>
<path id="XMLID_207_" class="st14" d="M411.6,400.4c-12.7,0-23.1,9.4-23.1,20.9c0,11.6,10.3,20.9,23.1,20.9
	c12.7,0,23.1-9.4,23.1-20.9C434.7,409.7,424.3,400.4,411.6,400.4z M412.1,434.3c-7.8,0-14.1-5.6-14.1-12.6c0-6.9,6.3-12.6,14.1-12.6
	c7.8,0,14.1,5.6,14.1,12.6C426.1,428.7,419.8,434.3,412.1,434.3z"/>
<linearGradient id="XMLID_522_" gradientUnits="userSpaceOnUse" x1="397.9698" y1="421.7657" x2="426.1353" y2="421.7657">
	<stop  offset="0" style="stop-color:#FFFFFF"/>
	<stop  offset="0.1697" style="stop-color:#B0B2B3"/>
	<stop  offset="0.3455" style="stop-color:#D8D9DA"/>
	<stop  offset="0.4606" style="stop-color:#868789"/>
	<stop  offset="0.6242" style="stop-color:#D8D9DA"/>
	<stop  offset="0.7515" style="stop-color:#9B9C9E"/>
	<stop  offset="0.8545" style="stop-color:#D8D9DA"/>
	<stop  offset="0.9697" style="stop-color:#868789"/>
</linearGradient>
<path id="XMLID_204_" class="st19" d="M412.1,409.2c-7.8,0-14.1,5.6-14.1,12.6c0,6.9,6.3,12.6,14.1,12.6c7.8,0,14.1-5.6,14.1-12.6
	C426.1,414.8,419.8,409.2,412.1,409.2z M412.2,432.2c-6.3,0-11.4-4.5-11.4-10.1c0-5.6,5.1-10.1,11.4-10.1c6.3,0,11.4,4.5,11.4,10.1
	C423.6,427.7,418.5,432.2,412.2,432.2z"/>
<path id="XMLID_203_" class="st8" d="M364.9,129.5c-2.3-1.8-17.8-11-20.7-12.1c-1.3-0.5,0.7-7.2,5.6-11.4c3.6-3.1,12.7-2.8,12.9-2.7
	c0.9,0.4,3,1.8,7.7,4.9c0.6,0.4,3,6.2,1.7,11.1C370.5,125,365.3,129.8,364.9,129.5z"/>
<path id="XMLID_202_" class="st8" d="M319.7,108.2c-2.8-0.8-20.7-3.5-23.8-3.4c-1.4,0.1-2-7,0.9-12.7c2.2-4.2,10.7-7.4,10.9-7.4
	c0.9,0,3.5,0.6,8.9,1.6c0.8,0.2,5.1,4.6,5.8,9.6C323.2,101.9,320.1,108.4,319.7,108.2z"/>
<path id="XMLID_201_" class="st8" d="M270.3,104.3c-2.9,0.2-20.6,3.8-23.5,4.9c-1.3,0.5-4.3-5.7-3.4-11.9c0.6-4.6,7.6-10.3,7.8-10.4
	c0.9-0.3,3.5-0.7,9-1.5c0.8-0.1,6.4,2.5,8.6,6.8C271.5,97.4,270.8,104.3,270.3,104.3z"/>
<path id="XMLID_200_" class="st8" d="M218.3,120.6c-2.4,1.2-17,9.7-19.1,11.7c-0.9,0.9-5.7-3.5-7.2-9.1c-1.1-4.2,2.7-11.5,2.9-11.7
	c0.7-0.5,2.7-1.8,7-4.4c0.6-0.4,6.3,0,9.8,2.9C215.8,113.5,218.7,120.4,218.3,120.6z"/>
<path id="XMLID_199_" class="st8" d="M400.1,165.3c-1.4-2.6-10.9-14.8-13.2-17c-1-1,2.5-6.3,7.9-8.7c4.1-1.8,10.5-1.1,10.6-0.8
	c0.9,1.3,4.9,6,8,10.2c0.4,0.7,0,7.7-3.2,11.5C406.8,164.8,400.3,165.7,400.1,165.3z"/>
<path id="XMLID_198_" class="st8" d="M420,210.6c-0.4-2.9-5.1-17.3-6.4-20.1c-0.6-1.2,4.3-4.8,10-5.3c4.6-0.4,10.1,2.3,10.2,2.5
	c0.5,1.1,3.4,9,4.2,14.5c0.1,0.8-1.7,6.6-5.7,8.5C427.3,212.9,420.1,211.1,420,210.6z"/>
<path id="XMLID_197_" class="st8" d="M422.7,261c0.6-2.9,1.4-17.8,1-20.9c-0.1-1.2,4.3-2.8,9-1.9c5.5,1.1,9.9,7.2,9.9,7.5
	c0.2,1.2-0.3,6.9-0.7,12c-0.1,0.8-4.5,8.3-9.3,8.2C427.5,265.9,422.6,261.5,422.7,261z"/>
<path id="XMLID_196_" class="st8" d="M406.3,309.2c1.6-2.4,8.1-15.9,8.9-18.9c0.3-1.1,5.9-1.5,9.3,1.6c3.7,3.4,5.2,10.4,5.1,10.7
	c-0.3,1.2-2.7,7-5.4,12c-0.4,0.8-6.5,3.3-11.1,1.8C408.9,315.1,406.1,309.5,406.3,309.2z"/>
<path id="XMLID_195_" class="st7" d="M272.3,380.3c0,0,4.5,17.2,9.3,17.3c1.5,0,14.7-0.2,14.7-0.2c6.8-3.4,7.3-18.2,7.3-18.2
	s-2.9,1-15.4,1.2C275.7,380.6,272.3,380.3,272.3,380.3z"/>
<path id="XMLID_194_" class="st8" d="M179.2,151c-1.7,2-12.2,15.4-13.4,18c-0.5,1.2-6.4-1-9.7-5.6c-2.5-3.4-1.6-11.6-1.4-11.8
	c0.4-0.7,1.9-2.6,4.9-6.7c0.4-0.6,5.8-2.4,10-1C174.5,145.5,179.5,150.7,179.2,151z"/>
<path id="XMLID_193_" class="st8" d="M153.5,193.9c-1,2.5-6.5,20.2-6.7,24.7c-0.1,2-16.9-3.7-15.1-15.8c0.7-2.2,2.4-10.3,3.2-10.9
	C140.8,187.8,154.2,192,153.5,193.9z"/>
<ellipse id="XMLID_192_" class="st20" cx="153.1" cy="177.4" rx="4" ry="3.5"/>
<ellipse id="XMLID_191_" class="st20" cx="137.3" cy="228.2" rx="4" ry="3.5"/>
<ellipse id="XMLID_190_" class="st20" cx="184.3" cy="135" rx="4" ry="3.5"/>
<ellipse id="XMLID_189_" class="st20" cx="228.6" cy="105.8" rx="4" ry="3.5"/>
<ellipse id="XMLID_188_" class="st20" cx="283" cy="92.9" rx="4" ry="3.5"/>
<ellipse id="XMLID_187_" class="st20" cx="336.7" cy="102.3" rx="4" ry="3.5"/>
<ellipse id="XMLID_186_" class="st20" cx="383" cy="129.5" rx="4" ry="3.5"/>
<ellipse id="XMLID_185_" class="st20" cx="418.5" cy="172" rx="4" ry="3.5"/>
<ellipse id="XMLID_184_" class="st20" cx="432.1" cy="223.9" rx="4" ry="3.5"/>
<ellipse id="XMLID_183_" class="st20" cx="428.1" cy="277.8" rx="4" ry="3.5"/>
<ellipse id="XMLID_182_" class="st20" cx="315.9" cy="384.3" rx="4" ry="3.5"/>
<ellipse id="XMLID_181_" class="st20" cx="261.1" cy="386.1" rx="4" ry="3.5"/>
<linearGradient id="XMLID_523_" gradientUnits="userSpaceOnUse" x1="9.9502" y1="339.3872" x2="191.2713" y2="339.3872">
	<stop  offset="0" style="stop-color:#FFFFFF"/>
	<stop  offset="0.1697" style="stop-color:#B0B2B3"/>
	<stop  offset="0.3455" style="stop-color:#D8D9DA"/>
	<stop  offset="0.4606" style="stop-color:#868789"/>
	<stop  offset="0.6242" style="stop-color:#D8D9DA"/>
	<stop  offset="0.7515" style="stop-color:#9B9C9E"/>
	<stop  offset="0.8545" style="stop-color:#D8D9DA"/>
	<stop  offset="0.9697" style="stop-color:#868789"/>
</linearGradient>
<path id="XMLID_178_" class="st21" d="M100.6,249.5c-50.1,0-90.7,40.2-90.7,89.9c0,49.6,40.6,89.9,90.7,89.9
	c50.1,0,90.7-40.2,90.7-89.9C191.3,289.8,150.7,249.5,100.6,249.5z M100.6,399.1c-33,0-59.7-26.7-59.7-59.7
	c0-32.9,26.7-59.7,59.7-59.7c33,0,59.7,26.7,59.7,59.7C160.3,372.4,133.6,399.1,100.6,399.1z"/>
<path id="XMLID_175_" class="st5" d="M100.6,260.3c-43.9,0-79.5,35.5-79.5,79.2c0,43.7,35.6,79.2,79.5,79.2
	c43.9,0,79.5-35.5,79.5-79.2C180.1,295.7,144.5,260.3,100.6,260.3z M100.2,410C61.5,410,30,378.9,30,340.4
	c0-38.4,31.4-69.6,70.2-69.6c38.8,0,70.2,31.2,70.2,69.6C170.4,378.9,139,410,100.2,410z"/>
<path id="XMLID_174_" class="st6" d="M119.7,273.6c-3.3-0.8-13.9-2.3-15.9-2.6c-2-0.3-0.3-11,2-10.5c2.4,0,14.4,1.8,16,2.7
	C123.5,263.6,121.6,274,119.7,273.6z"/>
<path id="XMLID_173_" class="st6" d="M143.4,285.6c-2.2-1.9-12.6-7.6-14.3-8.6c-1.8-1,3.1-10.6,5-9.3c6.1,2.8,13.6,7.6,14.8,9
	C150.3,277.6,144.9,286.9,143.4,285.6z"/>
<path id="XMLID_172_" class="st6" d="M160.5,304.8c-1.3-3-9-12.1-10.7-13.6c-1.5-1.3,7.5-7.8,8.8-5.8c0.6,0.8,9.4,11.4,10,13.1
	C169.5,300,161.3,306.6,160.5,304.8z"/>
<path id="XMLID_171_" class="st6" d="M169.1,327.1c-0.4-1.9-3.8-13.1-5-15.5c-0.9-1.8,9.1-5.4,9.6-3.1c0.3,1,5.1,14.7,5,16.5
	C179.1,326.8,169.6,329,169.1,327.1z"/>
<path id="XMLID_170_" class="st6" d="M169.2,353.5c0.7-2.8,1.6-14.6,1.2-17c-0.3-2,9.8-2,9.6,0.3c0.4,2.5,0,14.1-1.3,17
	C177.9,355.6,168.9,354.8,169.2,353.5z"/>
<path id="XMLID_169_" class="st6" d="M160.2,376.7c1.2-1.7,6-12.1,7-14.9c0.7-1.9,9.4,2.3,8.3,4.4c-0.7,1.8-5.9,13.6-7.2,14.9
	C166.8,382.4,159.4,377.8,160.2,376.7z"/>
<path id="XMLID_168_" class="st6" d="M94.2,409.8c1.6,0.1,4.5,0.4,8,0.2c3.5-0.2,6.8-0.6,7.8-0.6c2,0,4.1,7.9,1.8,8.5
	c-1.3,0.2-5.5,0.9-9.6,0.8c-3.7-0.1-7.9,0-8.7-0.3C91.6,417.6,92.9,409.7,94.2,409.8z"/>
<path id="XMLID_167_" class="st6" d="M67.9,402.2c1.4,0.6,4.5,2.4,7.8,3.4c3.4,1.1,6.1,1.9,7.1,2.3c1.9,0.7,1.1,8.7-1.3,8.5
	c-1.3-0.3-5.3-1.3-9.1-2.8c-3.5-1.4-7.4-3.1-8.1-3.6C62.9,408.6,66.7,401.7,67.9,402.2z"/>
<path id="XMLID_166_" class="st6" d="M120,407.2c2.1-0.7,12.5-4.4,15.4-6.6c1.6-1.2,6.4,7.1,4.2,7.8c-0.9,0.4-14.5,6.8-16.3,6.9
	C121.3,415.3,118.7,407.6,120,407.2z"/>
<path id="XMLID_165_" class="st6" d="M95.7,271c-3.3-0.3-14.8,2.7-16.8,3.1c-2,0.4-5.1-9.7-2.7-10c1-0.2,13.5-3.5,17.3-3.5
	C95.2,260.4,97.7,271.2,95.7,271z"/>
<path id="XMLID_164_" class="st6" d="M69.9,277.7c-2.2,0.9-12.2,7.2-14.3,9.1c-1.5,1.4-7.3-7.5-5.2-8.7c0.8-0.5,11.9-8.5,13.7-9
	C65.6,268.3,71.7,276.9,69.9,277.7z"/>
<path id="XMLID_163_" class="st6" d="M49.9,291.9c-2.9,2.5-9.3,11.7-10.5,13.8c-1,1.7-9.5-3.4-8.1-5.2c0.6-0.8,8.5-12.8,10-13.8
	C42.5,285.4,51.4,290.6,49.9,291.9z"/>
<path id="XMLID_162_" class="st6" d="M35.3,313.9c-0.6,1.4-1.5,4.1-2.6,7.8c-0.9,3-1.5,6.8-1.8,7.7c-0.6,2.1-9.7,0.2-8.9-2.2
	c-0.1-1.6,3.3-13.4,4.2-15.7C26.8,309.8,36.2,311.7,35.3,313.9z"/>
<path id="XMLID_161_" class="st6" d="M30,340c-0.1,1.5,0.3,4.2,0.4,8.1c0.1,3.1,1.2,6.8,1.2,7.8c0.1,2.1-8.8,3.6-8.8,1.1
	c-0.7-1.3-2-13.7-1.8-16.3C21.1,338.8,30.1,337.7,30,340z"/>
<path id="XMLID_160_" class="st7" d="M83.2,408c0,0-4.7,7.7-9.4,6.1c-1.3-0.4-3.9-1.4-4.4-1.8c-3.3-2.4-1.4-10-1.4-10s4.3,2.1,7,3.1
	C76.7,406.1,79.4,406.8,83.2,408z"/>
<path id="XMLID_159_" class="st6" d="M47,385.9c1.1,1.1,3.3,3.8,6,6c2.7,2.2,5,4,5.8,4.7c1.5,1.3-2.1,8.5-4.3,7.4
	c-1.1-0.7-4.4-3.1-7.5-5.9c-2.7-2.5-5.8-5.6-6.2-6.3C40.1,390.1,46.1,385,47,385.9z"/>
<path id="XMLID_158_" class="st7" d="M59.2,396.8c0,0-7.2,5.4-11,2.3c-1.1-0.9-3.1-2.7-3.4-3.2c-2.2-3.4,2.4-9.8,2.4-9.8
	s3.3,3.6,5.4,5.5C53.8,392.7,56,394.4,59.2,396.8z"/>
<path id="XMLID_157_" class="st6" d="M34,365c0.6,1.5,1.7,4.7,3.3,7.8c1.7,3.1,3.1,5.6,3.5,6.5c0.9,1.8-4.4,6.7-5.9,4.8
	c-0.7-1.1-2.9-4.6-4.6-8.4c-1.6-3.4-3.3-7.3-3.4-8.2C26.7,365.9,33.5,363.8,34,365z"/>
<path id="XMLID_156_" class="st7" d="M41.5,379.1c0,0-8.4,2.2-10.6-2c-0.6-1.2-1.8-3.6-1.9-4.1c-0.7-3.9,5.7-7.9,5.7-7.9
	s1.6,4.4,2.8,6.8C38.2,373.5,39.5,375.8,41.5,379.1z"/>
<path id="XMLID_155_" class="st8" d="M30,341.6c0,0-4.7-0.8-8.4,3.3c-0.3,0.4,0,2.9,0,3.4c0.5,4.2,9.5,4.2,9.5,4.2s-0.5-2.8-0.7-5.6
	C30.1,344.5,30,341.6,30,341.6z"/>
<path id="XMLID_154_" class="st8" d="M140.8,283.7c-1.2-0.9-9-5.5-10.4-6.1c-0.7-0.2,0.4-3.6,2.8-5.7c1.8-1.6,6.4-1.4,6.5-1.4
	c0.4,0.2,1.5,0.9,3.9,2.5c0.3,0.2,1.5,3.1,0.9,5.6C143.7,281.4,141,283.8,140.8,283.7z"/>
<path id="XMLID_153_" class="st8" d="M118.1,273c-1.4-0.4-10.4-1.8-12-1.7c-0.7,0-1-3.5,0.4-6.4c1.1-2.1,5.4-3.7,5.5-3.7
	c0.5,0,1.8,0.3,4.5,0.8c0.4,0.1,2.6,2.3,2.9,4.8C119.8,269.8,118.3,273,118.1,273z"/>
<path id="XMLID_152_" class="st8" d="M93.2,271c-1.5,0.1-10.4,1.9-11.8,2.5c-0.7,0.3-2.1-2.9-1.7-6c0.3-2.3,3.8-5.2,3.9-5.2
	c0.5-0.1,1.7-0.3,4.5-0.8c0.4-0.1,3.2,1.3,4.4,3.4C93.8,267.5,93.5,271,93.2,271z"/>
<path id="XMLID_151_" class="st8" d="M67.1,279.2c-1.2,0.6-8.6,4.9-9.6,5.9c-0.5,0.5-2.8-1.7-3.6-4.6c-0.6-2.1,1.3-5.8,1.4-5.9
	c0.3-0.3,1.4-0.9,3.5-2.2c0.3-0.2,3.2,0,4.9,1.5C65.8,275.7,67.3,279.1,67.1,279.2z"/>
<path id="XMLID_150_" class="st8" d="M158.6,301.7c-0.7-1.3-5.5-7.5-6.6-8.5c-0.5-0.5,1.2-3.2,4-4.4c2.1-0.9,5.3-0.5,5.4-0.4
	c0.4,0.7,2.5,3,4,5.2c0.2,0.3,0,3.9-1.6,5.8C161.9,301.4,158.7,301.9,158.6,301.7z"/>
<path id="XMLID_149_" class="st8" d="M168.6,324.5c-0.2-1.5-2.6-8.7-3.2-10.1c-0.3-0.6,2.2-2.4,5-2.7c2.3-0.2,5.1,1.1,5.2,1.3
	c0.3,0.5,1.7,4.5,2.1,7.3c0.1,0.4-0.8,3.3-2.9,4.3C172.3,325.6,168.6,324.7,168.6,324.5z"/>
<path id="XMLID_148_" class="st8" d="M169.9,349.9c0.3-1.4,0.7-8.9,0.5-10.5c-0.1-0.6,2.2-1.4,4.5-1c2.8,0.5,5,3.6,5,3.8
	c0.1,0.6-0.1,3.5-0.4,6.1c-0.1,0.4-2.3,4.2-4.7,4.1C172.4,352.3,169.9,350.1,169.9,349.9z"/>
<path id="XMLID_147_" class="st8" d="M161.7,374.1c0.8-1.2,4.1-8,4.5-9.5c0.2-0.6,3-0.8,4.7,0.8c1.8,1.7,2.6,5.2,2.6,5.4
	c-0.2,0.6-1.4,3.5-2.7,6.1c-0.2,0.4-3.3,1.7-5.6,0.9C163,377.1,161.6,374.3,161.7,374.1z"/>
<path id="XMLID_146_" class="st6" d="M144.5,394.8c1.7-1.3,10-10.1,11.8-12.5c1.2-1.6,7.5,5.2,5.9,6.8c-1.9,2.6-9.6,10.2-12.5,12.3
	C147.9,402.2,143.4,395.7,144.5,394.8z"/>
<path id="XMLID_145_" class="st8" d="M146.8,392.9c1.1-0.9,6.2-6.5,7-7.8c0.3-0.5,3.1,0.1,4.2,2.1c1.3,2.2,0.9,5.7,0.8,5.9
	c-0.3,0.5-3.5,3.6-5.5,5.6c-0.3,0.3-2.5,0.1-4.4-1.3C147.1,396.1,146.6,393,146.8,392.9z"/>
<path id="XMLID_144_" class="st7" d="M94.2,409.9c0,0,2.3,8.7,4.7,8.7c0.8,0,7.4-0.1,7.4-0.1c3.4-1.7,3.7-9.2,3.7-9.2
	s-1.5,0.5-7.8,0.6C96,410.1,94.2,409.9,94.2,409.9z"/>
<path id="XMLID_143_" class="st8" d="M47.4,294.5c-0.9,1-6.1,7.7-6.7,9c-0.3,0.6-3.2-0.5-4.9-2.8c-1.3-1.7-0.8-5.8-0.7-5.9
	c0.2-0.4,0.9-1.3,2.5-3.4c0.2-0.3,2.9-1.2,5-0.5C45,291.8,47.5,294.4,47.4,294.5z"/>
<path id="XMLID_142_" class="st8" d="M34.4,316.1c-0.5,1.2-3.3,10.2-3.4,12.4c0,1-8.5-1.9-7.6-8c0.3-1.1,1.2-5.2,1.6-5.5
	C28.1,313,34.8,315.2,34.4,316.1z"/>
<ellipse id="XMLID_141_" class="st20" cx="34.2" cy="307.8" rx="2" ry="1.8"/>
<ellipse id="XMLID_140_" class="st20" cx="26.3" cy="333.3" rx="2" ry="1.8"/>
<ellipse id="XMLID_139_" class="st20" cx="49.9" cy="286.4" rx="2" ry="1.8"/>
<ellipse id="XMLID_138_" class="st20" cx="72.3" cy="271.7" rx="2" ry="1.8"/>
<ellipse id="XMLID_137_" class="st20" cx="99.6" cy="265.3" rx="2" ry="1.8"/>
<ellipse id="XMLID_136_" class="st20" cx="126.7" cy="270" rx="2" ry="1.8"/>
<ellipse id="XMLID_135_" class="st20" cx="149.9" cy="283.7" rx="2" ry="1.8"/>
<ellipse id="XMLID_134_" class="st20" cx="167.8" cy="305.1" rx="2" ry="1.8"/>
<ellipse id="XMLID_133_" class="st20" cx="174.7" cy="331.2" rx="2" ry="1.8"/>
<ellipse id="XMLID_132_" class="st20" cx="172.7" cy="358.3" rx="2" ry="1.8"/>
<ellipse id="XMLID_131_" class="st20" cx="116.2" cy="411.9" rx="2" ry="1.8"/>
<ellipse id="XMLID_130_" class="st20" cx="142.2" cy="402.2" rx="2" ry="1.8"/>
<ellipse id="XMLID_129_" class="st20" cx="162.4" cy="382.6" rx="2" ry="1.8"/>
<ellipse id="XMLID_128_" class="st20" cx="88.6" cy="412.8" rx="2" ry="1.8"/>
<ellipse id="XMLID_127_" class="st20" cx="61.2" cy="403.9" rx="2" ry="1.8"/>
<ellipse id="XMLID_126_" class="st20" cx="40.8" cy="385.8" rx="2" ry="1.8"/>
<ellipse id="XMLID_125_" class="st20" cx="28.9" cy="361.3" rx="2" ry="1.8"/>
<linearGradient id="XMLID_524_" gradientUnits="userSpaceOnUse" x1="110.5907" y1="382.0961" x2="220.175" y2="382.0961">
	<stop  offset="0" style="stop-color:#FFFFFF"/>
	<stop  offset="0.1697" style="stop-color:#B0B2B3"/>
	<stop  offset="0.3455" style="stop-color:#D8D9DA"/>
	<stop  offset="0.4606" style="stop-color:#868789"/>
	<stop  offset="0.6242" style="stop-color:#D8D9DA"/>
	<stop  offset="0.7515" style="stop-color:#9B9C9E"/>
	<stop  offset="0.8545" style="stop-color:#D8D9DA"/>
	<stop  offset="0.9697" style="stop-color:#868789"/>
</linearGradient>
<path id="XMLID_122_" class="st22" d="M165.4,327.8c-30.3,0-54.8,24.3-54.8,54.3c0,30,24.5,54.3,54.8,54.3
	c30.3,0,54.8-24.3,54.8-54.3C220.2,352.1,195.6,327.8,165.4,327.8z M167.2,430.3c-26.2,0-47.4-21.4-47.4-47.8
	c0-26.4,21.2-48.5,47.4-47.8c24.1,0.6,45.1,21.7,45.1,48.1C212.3,409.2,193.4,430.3,167.2,430.3z"/>
<linearGradient id="XMLID_525_" gradientUnits="userSpaceOnUse" x1="119.6645" y1="382.5395" x2="212.2719" y2="382.5395">
	<stop  offset="0" style="stop-color:#FFFFFF"/>
	<stop  offset="0.1697" style="stop-color:#58585A"/>
	<stop  offset="0.3455" style="stop-color:#D8D9DA"/>
	<stop  offset="0.4606" style="stop-color:#6F7072"/>
	<stop  offset="0.6242" style="stop-color:#D8D9DA"/>
	<stop  offset="0.7515" style="stop-color:#58585A"/>
	<stop  offset="0.8545" style="stop-color:#D8D9DA"/>
	<stop  offset="0.9697" style="stop-color:#868789"/>
</linearGradient>
<path id="XMLID_119_" class="st23" d="M166,334.8c-25.6,0-46.3,21.4-46.3,47.8c0,26.4,20.7,47.5,46.3,47.8
	c27.2,0.3,46.3-20.2,46.3-47.8C212.3,356.1,191.5,334.8,166,334.8z M165.1,421.6c-22.3,0-40.5-17.4-40.5-39c0-21.5,18.1-39,40.5-39
	c22.3,0,40.5,17.4,40.5,39C205.6,404.2,187.5,421.6,165.1,421.6z"/>
<linearGradient id="XMLID_526_" gradientUnits="userSpaceOnUse" x1="124.6796" y1="382.0961" x2="207.6902" y2="382.0961">
	<stop  offset="0" style="stop-color:#FFFFFF"/>
	<stop  offset="0.1697" style="stop-color:#B0B2B3"/>
	<stop  offset="0.3455" style="stop-color:#D8D9DA"/>
	<stop  offset="0.4606" style="stop-color:#868789"/>
	<stop  offset="0.6242" style="stop-color:#D8D9DA"/>
	<stop  offset="0.7515" style="stop-color:#9B9C9E"/>
	<stop  offset="0.8545" style="stop-color:#D8D9DA"/>
	<stop  offset="0.9697" style="stop-color:#868789"/>
</linearGradient>
<path id="XMLID_116_" class="st24" d="M166.8,340.3c-22.6,0-42.1,19.3-42.1,42.4c0,23.1,19.5,41.2,42.1,41.2
	c22.6,0,40.9-18.7,40.9-41.8C207.7,359,189.4,340.3,166.8,340.3z M166,416.3c-19.7,0-35.7-15.3-35.7-34.1c0-18.8,16-34.1,35.7-34.1
	c19.7,0,35.7,15.3,35.7,34.1C201.8,401,185.8,416.3,166,416.3z"/>
<path id="XMLID_113_" class="st25" d="M248.2,394.6c-13.7,0-24.8,10.8-24.8,24.2c0,13.4,11.1,24.2,24.8,24.2
	c13.7,0,24.8-10.8,24.8-24.2C273,405.4,261.9,394.6,248.2,394.6z M248.3,436.7c-10.2,0-18.5-8-18.5-17.9c0-9.9,8.3-17.9,18.5-17.9
	c10.2,0,18.5,8,18.5,17.9C266.9,428.7,258.6,436.7,248.3,436.7z"/>
<rect id="XMLID_112_" x="250.1" y="396.1" transform="matrix(0.9753 0.2208 -0.2208 0.9753 94.3596 -46.2497)" class="st26" width="7.9" height="5.6"/>
<rect id="XMLID_111_" x="259.5" y="401.3" transform="matrix(0.7155 0.6986 -0.6986 0.7155 356.9984 -68.8953)" class="st26" width="7.1" height="5.1"/>
<rect id="XMLID_110_" x="265" y="409.5" transform="matrix(0.3657 0.9308 -0.9308 0.3657 553.9453 11.4522)" class="st26" width="7.1" height="5.1"/>
<polygon id="XMLID_109_" class="st26" points="266.4,425.2 267.4,418.1 272.5,418.8 271.5,425.9 "/>
<polygon id="XMLID_108_" class="st26" points="261.2,432.2 265.5,426.6 269.6,429.7 265.3,435.4 "/>
<rect id="XMLID_107_" x="243.3" y="437.1" transform="matrix(-0.9949 -0.1013 0.1013 -0.9949 447.9842 902.0232)" class="st26" width="7.1" height="5.1"/>
<rect id="XMLID_106_" x="233.3" y="433.6" transform="matrix(-0.8506 -0.5259 0.5259 -0.8506 209.0372 931.7679)" class="st26" width="7.1" height="5.1"/>
<rect id="XMLID_105_" x="225.2" y="407.6" transform="matrix(0.4158 -0.9094 0.9094 0.4158 -239.6232 447.8359)" class="st26" width="7.1" height="5.7"/>
<rect id="XMLID_104_" x="231.4" y="400" transform="matrix(0.8079 -0.5893 0.5893 0.8079 -192.127 215.7785)" class="st26" width="7.1" height="5.3"/>
<ellipse id="XMLID_103_" transform="matrix(0.9753 0.2211 -0.2211 0.9753 94.4548 -46.344)" class="st27" cx="254.3" cy="398.8" rx="1.7" ry="2.2"/>
<ellipse id="XMLID_102_" transform="matrix(0.7506 0.6607 -0.6607 0.7506 332.6132 -73.3523)" class="st27" cx="263.5" cy="404" rx="1.8" ry="2.1"/>
<path id="XMLID_101_" class="st27" d="M269.2,413.8c-1.1,0.4-2.2,0-2.6-0.9c-0.3-0.9,0.3-2,1.4-2.4c1.1-0.4,2.2,0,2.6,0.9
	C270.9,412.3,270.3,413.4,269.2,413.8z"/>
<path id="XMLID_100_" class="st27" d="M270.2,423.6c-1,0.5-2.2,0.2-2.7-0.6c-0.4-0.9,0.1-2,1.1-2.5c1-0.5,2.2-0.2,2.7,0.6
	C271.7,421.9,271.2,423.1,270.2,423.6z"/>
<path id="XMLID_99_" class="st27" d="M266.7,432.2c-0.8,0.8-2,0.9-2.7,0.2c-0.7-0.7-0.6-1.9,0.3-2.7c0.8-0.8,2-0.9,2.7-0.2
	C267.6,430.2,267.5,431.4,266.7,432.2z"/>
<polygon id="XMLID_98_" class="st26" points="253.3,436.6 259.7,433.4 262,438.1 255.6,441.2 "/>
<path id="XMLID_97_" class="st27" d="M258.2,439c-1.1,0.4-2.2-0.1-2.6-1c-0.3-0.9,0.3-2,1.4-2.3c1.1-0.4,2.2,0.1,2.6,1
	C259.9,437.6,259.3,438.6,258.2,439z"/>
<path id="XMLID_96_" class="st27" d="M247.4,441.3c-1.1,0.4-2.2-0.1-2.6-1c-0.3-0.9,0.3-2,1.4-2.3c1.1-0.4,2.2,0.1,2.6,1
	C249.2,439.9,248.5,440.9,247.4,441.3z"/>
<path id="XMLID_95_" class="st27" d="M237.6,437.4c-1.1,0.5-2.2,0.2-2.7-0.7c-0.4-0.9,0.1-2,1.1-2.5c1-0.5,2.2-0.2,2.7,0.7
	C239.1,435.8,238.6,436.9,237.6,437.4z"/>
<polygon id="XMLID_94_" class="st26" points="230.3,425.6 234.5,431.3 230.4,434.4 226.2,428.6 "/>
<path id="XMLID_93_" class="st27" d="M230.5,431.3c-1.2,0.1-2.2-0.6-2.2-1.6c-0.1-1,0.8-1.8,2-1.9c1.2-0.1,2.2,0.6,2.2,1.6
	C232.6,430.4,231.7,431.3,230.5,431.3z"/>
<rect id="XMLID_92_" x="223.5" y="417.3" transform="matrix(-8.455744e-002 -0.9964 0.9964 -8.455744e-002 -172.3915 681.8658)" class="st26" width="7.1" height="5.6"/>
<path id="XMLID_91_" class="st27" d="M225.9,421.4c-1-0.5-1.5-1.7-1-2.5c0.5-0.9,1.7-1.1,2.7-0.6c1,0.5,1.5,1.7,1,2.5
	C228.1,421.7,226.9,422,225.9,421.4z"/>
<path id="XMLID_90_" class="st27" d="M228,412c-1.1-0.3-1.8-1.4-1.5-2.3c0.3-0.9,1.4-1.4,2.5-1.1c1.1,0.3,1.8,1.4,1.5,2.3
	C230.3,411.9,229.1,412.3,228,412z"/>
<path id="XMLID_89_" class="st27" d="M234.9,404.5c-1.2-0.1-2.1-0.9-2-1.9c0-1,1-1.7,2.2-1.6c1.2,0.1,2.1,0.9,2,1.9
	C237.1,403.8,236.1,404.5,234.9,404.5z"/>
<rect id="XMLID_88_" x="240.5" y="395.8" transform="matrix(0.9868 -0.1619 0.1619 0.9868 -61.2998 44.7924)" class="st26" width="7.1" height="5.3"/>
<path id="XMLID_87_" class="st27" d="M243.3,400c-1-0.6-1.4-1.7-1-2.6c0.5-0.8,1.7-1.1,2.7-0.5c1,0.6,1.4,1.7,1,2.6
	C245.5,400.4,244.3,400.6,243.3,400z"/>
<path id="XMLID_86_" class="st11" d="M453.8,338c-0.8-0.6-5.9-3.6-6.8-3.9c-0.4-0.2,0.1-2.2,1.6-3.4c1.1-0.9,4-0.7,4.1-0.6
	c0.3,0.1,1,0.6,2.5,1.6c0.2,0.1,1,1.9,0.7,3.4C455.6,336.7,453.9,338.1,453.8,338z"/>
<path id="XMLID_85_" class="st11" d="M438.2,331.3c-0.9-0.2-6.8-1.1-7.8-1.1c-0.5,0-0.7-2.1,0.3-3.8c0.7-1.3,3.5-2.2,3.6-2.2
	c0.3,0,1.1,0.2,2.9,0.5c0.3,0,1.7,1.4,1.9,2.9C439.4,329.4,438.4,331.3,438.2,331.3z"/>
<path id="XMLID_84_" class="st11" d="M421.5,329.9c-1,0.1-6.8,1.1-7.7,1.5c-0.4,0.2-1.3-1.7-0.9-3.5c0.3-1.3,2.6-3,2.7-3.1
	c0.3-0.1,1.1-0.2,2.9-0.5c0.3,0,2,0.7,2.7,2C422,327.9,421.6,329.9,421.5,329.9z"/>
<path id="XMLID_83_" class="st11" d="M404.4,335.8c-0.9,0.4-5.8,3.7-6.5,4.4c-0.3,0.3-1.9-1.1-2.4-3c-0.3-1.4,1.1-4,1.2-4
	c0.2-0.2,1-0.6,2.5-1.6c0.2-0.1,2.2-0.1,3.4,0.9C404,333.6,404.6,335.7,404.4,335.8z"/>
<path id="XMLID_82_" class="st11" d="M392.6,345.1c-0.7,0.7-4.3,5.4-4.7,6.3c-0.2,0.4-2.1-0.4-3-1.9c-0.7-1.2-0.1-4,0-4.1
	c0.2-0.3,0.7-0.9,1.9-2.3c0.2-0.2,2-0.8,3.3-0.4C391.6,343.2,392.8,344.9,392.6,345.1z"/>
<path id="XMLID_81_" class="st11" d="M465.1,350.1c-0.5-0.8-3.6-4.8-4.3-5.5c-0.3-0.3,0.8-2,2.6-2.8c1.4-0.6,3.5-0.3,3.5-0.3
	c0.3,0.4,1.6,2,2.6,3.3c0.1,0.2,0,2.5-1,3.7C467.2,349.9,465.1,350.3,465.1,350.1z"/>
<path id="XMLID_80_" class="st11" d="M472.3,366.5c-0.1-0.9-1.3-6.1-1.7-7c-0.2-0.4,1.3-1.6,3-1.6c1.3,0,3,1,3,1.1
	c0.1,0.5,0.8,2.4,1.2,4.1c0.1,0.3-0.7,2.3-2,3C474.4,366.9,472.3,366.6,472.3,366.5z"/>
<path id="XMLID_79_" class="st11" d="M464.4,401.2c0.6-0.7,3.3-5.3,3.7-6.2c0.2-0.4,2-0.1,3.2,1.1c0.9,0.9,1.3,2.9,1.2,3
	c-0.3,0.4-1.3,2.2-2.2,3.6c-0.2,0.2-2.2,1-3.5,0.6C465.3,402.8,464.3,401.3,464.4,401.2z"/>
<path id="XMLID_78_" class="st11" d="M447.1,415.4c0.9-0.4,5.4-3,6.2-3.7c0.4-0.3,1.8,0.8,2.3,2.5c0.3,1.3-0.3,3.1-0.3,3.2
	c-0.5,0.2-2.2,1.3-3.6,2.2c-0.2,0.1-2.4-0.1-3.4-1.2C447.1,417.3,446.9,415.5,447.1,415.4z"/>
<path id="XMLID_77_" class="st11" d="M471.9,384.4c0.2-0.9,1-6.1,0.9-7.2c0-0.5,1.8-0.9,3.4-0.2c1.2,0.5,2.3,2.1,2.3,2.2
	c-0.1,0.5-0.3,2.5-0.5,4.2c-0.1,0.3-1.6,1.8-3,2C473.4,385.6,471.8,384.6,471.9,384.4z"/>
<ellipse id="XMLID_76_" transform="matrix(0.8235 -0.5673 0.5673 0.8235 -29.0432 138.2698)" class="st28" cx="207.7" cy="115.8" rx="4" ry="6.6"/>
<ellipse id="XMLID_75_" transform="matrix(0.8235 -0.5673 0.5673 0.8235 -8.521 165.3948)" class="st28" cx="261.6" cy="96.4" rx="4" ry="6.6"/>
<ellipse id="XMLID_74_" transform="matrix(0.8235 -0.5673 0.5673 0.8235 0.2915 193.9825)" class="st28" cx="311.9" cy="96.5" rx="4" ry="6.6"/>
<ellipse id="XMLID_73_" transform="matrix(0.8235 -0.5673 0.5673 0.8235 -1.7786 225.2223)" class="st28" cx="361.1" cy="115.5" rx="4" ry="6.6"/>
<ellipse id="XMLID_72_" transform="matrix(0.8235 -0.5673 0.5673 0.8235 -14.5919 256.9584)" class="st28" cx="405.7" cy="151.9" rx="4" ry="6.6"/>
<ellipse id="XMLID_71_" transform="matrix(0.8235 -0.5673 0.5673 0.8235 -37.0947 277.6245)" class="st28" cx="427.6" cy="198.4" rx="4" ry="6.6"/>
<ellipse id="XMLID_70_" transform="matrix(0.8235 -0.5673 0.5673 0.8235 -66.3898 290.5997)" class="st28" cx="433.9" cy="252" rx="4" ry="6.6"/>
<ellipse id="XMLID_69_" transform="matrix(0.8235 -0.5673 0.5673 0.8235 -99.1262 291.5139)" class="st28" cx="419" cy="305.1" rx="4" ry="6.6"/>
<ellipse id="XMLID_68_" transform="matrix(0.8235 -0.5673 0.5673 0.8235 -170.402 231.5504)" class="st28" cx="286.9" cy="389.6" rx="4" ry="6.6"/>
<ellipse id="XMLID_67_" transform="matrix(0.8235 -0.5673 0.5673 0.8235 -174.7813 197.5463)" class="st28" cx="230.1" cy="379.7" rx="4" ry="6.6"/>
<ellipse id="XMLID_66_" transform="matrix(0.8235 -0.5673 0.5673 0.8235 -87.1241 116.812)" class="st28" cx="144.2" cy="198.4" rx="4" ry="6.6"/>
<ellipse id="XMLID_65_" transform="matrix(0.8235 -0.5673 0.5673 0.8235 -56.695 121.8931)" class="st28" cx="167.6" cy="152.1" rx="4" ry="6.6"/>
<ellipse id="XMLID_64_" class="st29" cx="87.2" cy="267.5" rx="3.4" ry="1.5"/>
<ellipse id="XMLID_63_" class="st29" cx="112.8" cy="268.2" rx="3.4" ry="1.5"/>
<ellipse id="XMLID_62_" class="st29" cx="138.9" cy="274.1" rx="3.4" ry="1.5"/>
<ellipse id="XMLID_61_" class="st29" cx="158.6" cy="295" rx="3.4" ry="1.5"/>
<ellipse id="XMLID_60_" class="st29" cx="171.4" cy="317" rx="3.4" ry="1.5"/>
<ellipse id="XMLID_59_" class="st29" cx="167.6" cy="372.6" rx="3.4" ry="1.5"/>
<ellipse id="XMLID_58_" class="st29" cx="151.8" cy="392.1" rx="3.4" ry="1.5"/>
<ellipse id="XMLID_57_" class="st29" cx="100.6" cy="414.3" rx="3.4" ry="1.5"/>
<ellipse id="XMLID_56_" class="st29" cx="73.9" cy="409.2" rx="3.4" ry="1.5"/>
<ellipse id="XMLID_37_" class="st29" cx="47.9" cy="393.2" rx="3.4" ry="1.5"/>
<ellipse id="XMLID_36_" class="st29" cx="34" cy="373.8" rx="3.4" ry="1.5"/>
<ellipse id="XMLID_35_" class="st29" cx="26.2" cy="347" rx="3.4" ry="1.5"/>
<ellipse id="XMLID_34_" class="st29" cx="28.3" cy="320.6" rx="3.4" ry="1.5"/>
<ellipse id="XMLID_33_" class="st29" cx="38.8" cy="296.2" rx="3.4" ry="1.5"/>
<ellipse id="XMLID_32_" class="st29" cx="59.2" cy="277.1" rx="3.4" ry="1.5"/>
<ellipse id="XMLID_31_" class="st30" cx="417.2" cy="326.8" rx="2.7" ry="1.1"/>
<ellipse id="XMLID_30_" class="st30" cx="434.7" cy="327.6" rx="2.7" ry="1.1"/>
<ellipse id="XMLID_29_" class="st30" cx="452.1" cy="332.6" rx="2.7" ry="1.1"/>
<ellipse id="XMLID_28_" class="st30" cx="465.4" cy="344.7" rx="2.7" ry="1.1"/>
<ellipse id="XMLID_27_" class="st30" cx="473.9" cy="360.9" rx="2.7" ry="1.1"/>
<ellipse id="XMLID_26_" class="st30" cx="475.2" cy="379.8" rx="2.7" ry="1.1"/>
<ellipse id="XMLID_25_" class="st30" cx="468" cy="400.4" rx="2.7" ry="1.1"/>
<ellipse id="XMLID_24_" class="st30" cx="451.4" cy="415.7" rx="2.7" ry="1.1"/>
<ellipse id="XMLID_23_" class="st30" cx="387.7" cy="346.7" rx="2.7" ry="1.1"/>
<ellipse id="XMLID_20_" class="st30" cx="400" cy="333.8" rx="2.7" ry="1.1"/>
</svg>
