<?xml version="1.0" encoding="utf-8"?>
<!-- Generator: Adobe Illustrator 19.0.0, SVG Export Plug-In . SVG Version: 6.00 Build 0)  -->
<svg version="1.1" id="Camada_1" xmlns="http://www.w3.org/2000/svg" xmlns:xlink="http://www.w3.org/1999/xlink" x="0px" y="0px"
	 viewBox="0 0 500 500" style="enable-background:new 0 0 500 500;" xml:space="preserve">
<style type="text/css">
	.st0{stroke:#000000;stroke-width:5.9211;stroke-linejoin:round;stroke-miterlimit:10;}
	.st1{fill:#B2B2B2;stroke:#000000;stroke-width:1.9737;stroke-linejoin:round;stroke-miterlimit:10;}
	.st2{fill:#DADADA;stroke:#000000;stroke-width:1.9737;stroke-linejoin:round;stroke-miterlimit:10;}
	.st3{stroke:#000000;stroke-width:1.9737;stroke-linejoin:round;stroke-miterlimit:10;}
</style>
<g>
	<path id="XMLID_4_" class="st0" d="M478.2,77.6l-57.6,24.8l-36.8-9.6c0,0-187.4,115.7-253,148.6c-28.4,14.3-117.2,49.3-117.2,49.3
		s29.3,48.5,37,63.1c9.7,18.5,32.5,69.3,32.5,69.3s78.9-63.1,106-83c59.7-43.9,244.2-168,244.2-168l7.7-42.7l45-38.8L478.2,77.6z"/>
	<path id="XMLID_3_" class="st1" d="M422.7,103l-38.9-10.2c0,0-187.4,115.7-253,148.6c-28.4,14.3-117.2,49.3-117.2,49.3
		s29.3,48.5,37,63.1c9.7,18.5,32.5,69.3,32.5,69.3s78.9-63.1,106-83c59.7-43.9,244.2-168,244.2-168l7.7-42.7L422.7,103z"/>
	<path id="XMLID_2_" class="st2" d="M383.7,92.8c0,0,7.8,26.6,17,41.7c12.6,20.7,32.5,37.7,32.5,37.7l7.7-42.7L422.7,103L383.7,92.8
		z"/>
	<path id="XMLID_1_" class="st3" d="M485.9,90.7l-50.7,43.8c0,0-11.4,4.5-20-10.9c-6.9-12.2-2.1-17.9-2.1-17.9l65-28L485.9,90.7z"/>
</g>
</svg>
