<?xml version="1.0" encoding="utf-8"?>
<!-- Generator: Adobe Illustrator 19.0.0, SVG Export Plug-In . SVG Version: 6.00 Build 0)  -->
<svg version="1.1" id="Camada_1" xmlns="http://www.w3.org/2000/svg" xmlns:xlink="http://www.w3.org/1999/xlink" x="0px" y="0px"
	 viewBox="0 0 500 500" style="enable-background:new 0 0 500 500;" xml:space="preserve">
<style type="text/css">
	.st0{stroke:#000000;stroke-width:5.4902;stroke-linejoin:round;stroke-miterlimit:10;}
	.st1{fill:#3C3C3B;stroke:#000000;stroke-width:1.8301;stroke-linejoin:round;stroke-miterlimit:10;}
	.st2{fill:#575756;stroke:#000000;stroke-width:1.8301;stroke-linejoin:round;stroke-miterlimit:10;}
	.st3{fill:#B2B2B2;stroke:#000000;stroke-width:1.8301;stroke-linejoin:round;stroke-miterlimit:10;}
	.st4{fill:#1C1C16;stroke:#000000;stroke-width:1.8301;stroke-linejoin:round;stroke-miterlimit:10;}
	.st5{fill:url(#XMLID_42_);stroke:#000000;stroke-width:1.8301;stroke-linejoin:round;stroke-miterlimit:10;}
	.st6{fill:url(#XMLID_43_);stroke:#000000;stroke-width:1.8301;stroke-linejoin:round;stroke-miterlimit:10;}
	.st7{fill:url(#XMLID_44_);stroke:#000000;stroke-width:1.8301;stroke-linejoin:round;stroke-miterlimit:10;}
	.st8{fill:#C6C6C6;}
</style>
<g>
	<g>
		<polygon id="XMLID_40_" class="st0" points="57,115.6 48.7,115.6 48.7,110.8 41.1,110.8 41.1,115.6 30.4,115.6 30.4,110.8 
			22.8,110.8 22.8,115.6 15.5,115.6 15.5,371.8 22.8,371.8 22.8,376.5 30.4,376.5 30.4,371.8 41.1,371.8 41.1,376.5 48.7,376.5 
			48.7,371.8 57,371.8 57,366 75.3,366 75.3,121 57,121 		"/>
		<path id="XMLID_19_" class="st0" d="M460,145.2h-23.8c-2.1,0-4.1,1.5-6,4.2c-21.2,10.4-32.2,41-37.6,92.3
			c-8.2-59.7-24.1-88.2-49.1-95.3c-3.8-0.9-6.8-1.1-11-0.5c-0.4,0-0.7,0-1,0.1c-0.6,0.1-1.1,0.3-1.7,0.4c-0.5,0.1-1,0.2-1.5,0.3
			c0,0,0.1,0,0.1,0c-30.2,8-42.6,49.4-47.1,125.4c-6-31.5-14.2-57.6-22.4-78.1v-45.4h-15.6v-21.4h-27.1v11.4h-7.6v-11.4h-38.1v11.4
			h-11V354h11v11.4h38.1V354h7.6v11.4h27.1V344h15.6V231.1C270,268.1,279,314.7,279,368c0,0,0,0,0,0c0,0,0,0,0,0c0,0,0,0.1,0,0.1
			c0,1.6,1.3,2.8,2.8,2.8h5.3c1.6,0,2.8-1.3,2.8-2.8c0,0,0,0,0-0.1c0,0,0,0,0,0c0-126.6,6-208.5,44.5-220.1
			c46.6,11.1,53.1,84.2,53.5,206.6c0,4.4,0,9,0,13.5c0,0,0,0,0.1,0c0,0.5,0,1,0,1.5c0,0,0,0,0,0.1c0,1.6,1.3,2.8,2.9,2.8h5.5
			c1.6,0,2.9-1.3,2.9-2.8c0-0.5,0.1-0.8,0-1.5c0-9.9-0.1-19.5-0.3-28.6c0.8-87.1,5.8-149.4,25.5-177c-6.7,21.4-11.2,60.8-11.2,105.8
			c0,67.9,10.2,122.9,22.9,122.9H460c12.6,0,22.9-55,22.9-122.9S472.6,145.2,460,145.2z M445.2,155.2c-0.1-0.2-0.2-0.5-0.3-0.7
			C445,154.7,445.1,155,445.2,155.2z M444.3,153c-0.1-0.2-0.2-0.3-0.2-0.5C444.1,152.7,444.2,152.9,444.3,153z M443.1,150.9
			c-0.1-0.2-0.2-0.3-0.3-0.5C442.9,150.6,443,150.8,443.1,150.9z M442.1,149.4c-0.1-0.1-0.2-0.3-0.3-0.4
			C441.9,149.1,442,149.2,442.1,149.4z M446.3,157.8c-0.1-0.2-0.1-0.4-0.2-0.6C446.1,157.4,446.2,157.6,446.3,157.8z M437.5,145.4
			c-0.1,0-0.2-0.1-0.3-0.1C437.4,145.4,437.4,145.4,437.5,145.4z M438.6,145.9c0,0-0.1,0-0.2-0.1
			C438.5,145.8,438.5,145.8,438.6,145.9z M437.3,390.9c0.1,0,0.2,0,0.3-0.1C437.4,390.9,437.4,390.9,437.3,390.9z M438.4,390.5
			c0,0,0.1,0,0.2-0.1C438.5,390.4,438.5,390.4,438.4,390.5z M439.6,389.7c0.1-0.1,0.2-0.2,0.3-0.2
			C439.8,389.6,439.7,389.6,439.6,389.7z M440.7,388.7c0.1-0.1,0.2-0.2,0.2-0.2C440.8,388.6,440.7,388.6,440.7,388.7z M447.9,373.8
			c0.1-0.2,0.1-0.4,0.2-0.7c-6.6-21.6-11-60.5-11-105c0-44.5,4.4-83.4,11-105c-0.1-0.2-0.1-0.4-0.2-0.7
			c6.7,21.4,11.2,60.7,11.2,105.7C459.1,313.1,454.6,352.4,447.9,373.8z M441.8,387.3c0.1-0.1,0.2-0.3,0.3-0.4
			C442,387,441.9,387.2,441.8,387.3z M442.8,385.8c0.1-0.2,0.2-0.3,0.3-0.5C443,385.5,442.9,385.7,442.8,385.8z M444,383.7
			c0.1-0.2,0.2-0.3,0.2-0.5C444.2,383.4,444.1,383.6,444,383.7z M444.9,381.8c0.1-0.2,0.2-0.5,0.3-0.7
			C445.1,381.3,445,381.5,444.9,381.8z M446.1,379.1c0.1-0.2,0.1-0.4,0.2-0.6C446.2,378.7,446.1,378.9,446.1,379.1z M447,376.7
			c0.1-0.3,0.2-0.6,0.3-0.9C447.2,376,447.1,376.4,447,376.7z M447,159.6c0.1,0.3,0.2,0.6,0.3,0.9
			C447.2,160.2,447.1,159.9,447,159.6z"/>
	</g>
	<path id="XMLID_18_" class="st1" d="M448.1,163.1c-3.5-11.4-7.5-17.9-11.9-17.9c-12.6,0-22.9,55-22.9,122.9s10.2,122.9,22.9,122.9
		c4.4,0,8.4-6.6,11.9-17.9c-6.6-21.6-11-60.5-11-105C437.1,223.7,441.5,184.7,448.1,163.1z"/>
	<path id="XMLID_17_" class="st2" d="M279.1,368c2.7,0,6.9,0,11,0c0-129.1,6.2-211.7,46.8-220.8c2.5-0.6-2.7-1.7-5.4-1.2
		C287.7,154.1,279.1,227,279.1,368z"/>
	<path id="XMLID_16_" class="st2" d="M388,368c2.7,0,6.9,0,11,0c0-129.1,6.2-211.7,46.8-220.8c2.5-0.6-2.7-1.7-5.4-1.2
		C396.6,154.1,388,227,388,368z"/>
	<path id="XMLID_15_" class="st3" d="M399.4,368C399,219.1,382,157.3,343.5,146.4c-4.9-1.2-8.5-1.2-15.3,0.4
		c54.3,6.2,59.8,85.8,59.8,222.7c0,0,0,0,0,0.1c0,1.6,1.3,2.8,2.9,2.8h5.5c1.6,0,2.9-1.3,2.9-2.8C399.4,369.1,399.5,368.8,399.4,368
		z"/>
	<path id="XMLID_14_" class="st3" d="M290,367.7c-0.1-149.5-59.8-229-59.8-229h-11c0,0,59.8,92.4,59.8,229.4c0,0,0,0,0,0
		c0,0,0,0.1,0,0.1c0,1.6,1.3,2.8,2.8,2.8h5.3c1.6,0,2.8-1.3,2.8-2.8C290,368,290,367.9,290,367.7z"/>
	<rect id="XMLID_13_" x="33.8" y="121" class="st3" width="41.5" height="245"/>
	<polygon id="XMLID_12_" class="st4" points="57,115.6 48.7,115.6 48.7,110.8 41.1,110.8 41.1,115.6 30.4,115.6 30.4,110.8 
		22.8,110.8 22.8,115.6 15.5,115.6 15.5,371.8 22.8,371.8 22.8,376.5 30.4,376.5 30.4,371.8 41.1,371.8 41.1,376.5 48.7,376.5 
		48.7,371.8 57,371.8 	"/>
	<rect id="XMLID_11_" x="159.4" y="138.7" class="st1" width="74.4" height="215.3"/>
	<rect id="XMLID_10_" x="240" y="148.7" class="st3" width="18.9" height="195.4"/>
	<linearGradient id="XMLID_42_" gradientUnits="userSpaceOnUse" x1="189.4907" y1="119.5976" x2="189.4907" y2="392.8338">
		<stop  offset="0" style="stop-color:#FFFFFF"/>
		<stop  offset="1" style="stop-color:#000000"/>
	</linearGradient>
	<rect id="XMLID_9_" x="170.4" y="127.2" class="st5" width="38.1" height="238.2"/>
	<linearGradient id="XMLID_43_" gradientUnits="userSpaceOnUse" x1="229.7524" y1="119.5976" x2="229.7524" y2="387.1405">
		<stop  offset="0" style="stop-color:#FFFFFF"/>
		<stop  offset="1" style="stop-color:#000000"/>
	</linearGradient>
	<rect id="XMLID_8_" x="216.2" y="127.2" class="st6" width="27.1" height="238.2"/>
	<linearGradient id="XMLID_44_" gradientUnits="userSpaceOnUse" x1="459.5439" y1="124.1745" x2="459.5439" y2="412.2665">
		<stop  offset="0" style="stop-color:#FFFFFF"/>
		<stop  offset="1" style="stop-color:#000000"/>
	</linearGradient>
	<path id="XMLID_7_" class="st7" d="M460,145.2h-23.8c12.6,0,22.9,55,22.9,122.9s-10.2,122.9-22.9,122.9H460
		c12.6,0,22.9-55,22.9-122.9S472.6,145.2,460,145.2z"/>
	<rect id="XMLID_6_" x="173.3" y="234.9" class="st8" width="32" height="5.5"/>
	<rect id="XMLID_5_" x="173.3" y="242.2" class="st8" width="32" height="2.7"/>
	<rect id="XMLID_4_" x="219.2" y="234.9" class="st8" width="20.7" height="5.5"/>
	<rect id="XMLID_3_" x="219.2" y="242.2" class="st8" width="20.7" height="2.7"/>
	<rect id="XMLID_2_" x="462.2" y="234.9" class="st8" width="16.9" height="5.5"/>
	<rect id="XMLID_1_" x="462.2" y="242.2" class="st8" width="16.9" height="2.7"/>
</g>
</svg>
