<?xml version="1.0" encoding="utf-8"?>
<!-- Generator: Adobe Illustrator 19.0.0, SVG Export Plug-In . SVG Version: 6.00 Build 0)  -->
<svg version="1.1" id="Camada_1" xmlns="http://www.w3.org/2000/svg" xmlns:xlink="http://www.w3.org/1999/xlink" x="0px" y="0px"
	 viewBox="0 0 500 500" style="enable-background:new 0 0 500 500;" xml:space="preserve">
<style type="text/css">
	.st0{fill:#1A171B;stroke:#1A171B;stroke-width:5.9375;stroke-linejoin:round;stroke-miterlimit:10;}
	.st1{fill:#1A171B;stroke:#1A171B;stroke-width:5.9375;stroke-miterlimit:10;}
	.st2{opacity:0.38;fill:#1A171B;stroke:#1A171B;stroke-width:5.9375;stroke-miterlimit:10;}
	.st3{opacity:0.94;fill:#1A171B;stroke:#1A171B;stroke-width:5.9375;stroke-miterlimit:10;}
	.st4{fill:#1A171B;stroke:#1A171B;stroke-width:1.4844;stroke-miterlimit:10;}
	.st5{fill:none;stroke:#1A171B;stroke-width:1.4844;stroke-miterlimit:10;}
	.st6{fill:none;stroke:#1A171B;stroke-width:1.4844;stroke-linejoin:round;stroke-miterlimit:10;}
	.st7{fill:url(#XMLID_158_);stroke:#1A171B;stroke-width:1.4844;stroke-miterlimit:10;}
	.st8{fill:#3D3D3F;stroke:#1A171B;stroke-width:1.4844;stroke-linejoin:round;stroke-miterlimit:10;}
	.st9{fill:url(#XMLID_159_);stroke:#1A171B;stroke-width:1.4844;stroke-miterlimit:10;}
	.st10{fill:url(#XMLID_160_);stroke:#1A171B;stroke-width:1.4844;stroke-linejoin:round;stroke-miterlimit:10;}
	.st11{fill:url(#XMLID_161_);stroke:#1A171B;stroke-width:1.4844;stroke-linejoin:round;stroke-miterlimit:10;}
	.st12{opacity:0.38;fill:#41281B;}
	.st13{fill:url(#XMLID_162_);stroke:#1A171B;stroke-width:1.4844;stroke-miterlimit:10;}
	.st14{fill:url(#XMLID_163_);stroke:#1A171B;stroke-width:1.4844;stroke-linejoin:round;stroke-miterlimit:10;}
	.st15{fill:url(#XMLID_164_);stroke:#1A171B;stroke-width:1.4844;stroke-linejoin:round;stroke-miterlimit:10;}
	.st16{fill:url(#XMLID_165_);stroke:#1A171B;stroke-width:1.4844;stroke-linejoin:round;stroke-miterlimit:10;}
	.st17{fill:url(#XMLID_166_);stroke:#1A171B;stroke-width:1.4844;stroke-linejoin:round;stroke-miterlimit:10;}
	.st18{fill:url(#XMLID_167_);stroke:#1A171B;stroke-width:1.4844;stroke-linejoin:round;stroke-miterlimit:10;}
	.st19{fill:url(#XMLID_168_);stroke:#1A171B;stroke-width:1.4844;stroke-miterlimit:10;}
	.st20{fill:url(#XMLID_169_);stroke:#1A171B;stroke-width:1.4844;stroke-linejoin:round;stroke-miterlimit:10;}
	.st21{fill:url(#XMLID_170_);stroke:#1A171B;stroke-width:1.4844;stroke-miterlimit:10;}
	.st22{fill:url(#XMLID_171_);stroke:#1A171B;stroke-width:1.4844;stroke-linejoin:round;stroke-miterlimit:10;}
	.st23{fill:url(#XMLID_172_);stroke:#1A171B;stroke-width:1.4844;stroke-linejoin:round;stroke-miterlimit:10;}
	.st24{fill:url(#XMLID_174_);stroke:#1A171B;stroke-width:1.4844;stroke-linejoin:round;stroke-miterlimit:10;}
	.st25{fill:url(#XMLID_175_);stroke:#1A171B;stroke-width:1.4844;stroke-linejoin:round;stroke-miterlimit:10;}
	.st26{fill:url(#XMLID_176_);stroke:#1A171B;stroke-width:1.4844;stroke-linejoin:round;stroke-miterlimit:10;}
	.st27{fill:url(#XMLID_177_);stroke:#1A171B;stroke-width:1.4844;stroke-miterlimit:10;}
	.st28{fill:url(#XMLID_178_);stroke:#1A171B;stroke-width:1.4844;stroke-linejoin:round;stroke-miterlimit:10;}
	.st29{fill:url(#XMLID_179_);stroke:#1A171B;stroke-width:1.4844;stroke-linejoin:round;stroke-miterlimit:10;}
	.st30{fill:url(#XMLID_180_);stroke:#1A171B;stroke-width:1.4844;stroke-linejoin:round;stroke-miterlimit:10;}
	.st31{opacity:0.94;fill:#1A171B;}
	.st32{fill:url(#XMLID_181_);stroke:#1A171B;stroke-width:1.4844;stroke-linejoin:round;stroke-miterlimit:10;}
	.st33{fill:url(#XMLID_182_);stroke:#1A171B;stroke-width:1.4844;stroke-linejoin:round;stroke-miterlimit:10;}
	.st34{fill:url(#XMLID_183_);stroke:#1A171B;stroke-width:1.4844;stroke-miterlimit:10;}
	.st35{fill:url(#XMLID_184_);stroke:#1A171B;stroke-width:1.4844;stroke-linejoin:round;stroke-miterlimit:10;}
	.st36{fill:url(#XMLID_185_);stroke:#1A171B;stroke-width:1.4844;stroke-miterlimit:10;}
	.st37{fill:url(#XMLID_186_);stroke:#1A171B;stroke-width:1.4844;stroke-miterlimit:10;}
	.st38{fill:url(#XMLID_187_);stroke:#1A171B;stroke-width:1.4844;stroke-miterlimit:10;}
	.st39{fill:url(#XMLID_188_);stroke:#1A171B;stroke-width:1.4844;stroke-miterlimit:10;}
	.st40{fill:url(#XMLID_189_);stroke:#1A171B;stroke-width:1.4844;stroke-miterlimit:10;}
	.st41{fill:url(#XMLID_190_);stroke:#1A171B;stroke-width:1.4844;stroke-miterlimit:10;}
	.st42{fill:url(#XMLID_191_);stroke:#1A171B;stroke-width:1.4844;stroke-miterlimit:10;}
	.st43{fill:url(#XMLID_192_);stroke:#1A171B;stroke-width:1.4844;stroke-miterlimit:10;}
	.st44{fill:url(#XMLID_193_);stroke:#1A171B;stroke-width:1.4844;stroke-miterlimit:10;}
	.st45{fill:url(#XMLID_194_);stroke:#1A171B;stroke-width:1.4844;stroke-miterlimit:10;}
	.st46{fill:url(#XMLID_195_);stroke:#1A171B;stroke-width:1.4844;stroke-miterlimit:10;}
	.st47{fill:url(#XMLID_196_);stroke:#1A171B;stroke-width:1.4844;stroke-miterlimit:10;}
	.st48{fill:url(#XMLID_197_);stroke:#1A171B;stroke-width:1.4844;stroke-linejoin:round;stroke-miterlimit:10;}
	.st49{fill:url(#XMLID_198_);stroke:#1A171B;stroke-width:1.4844;stroke-miterlimit:10;}
	.st50{fill:url(#XMLID_199_);stroke:#1A171B;stroke-width:1.4844;stroke-miterlimit:10;}
	.st51{fill:url(#XMLID_200_);stroke:#1A171B;stroke-width:1.4844;stroke-miterlimit:10;}
	.st52{fill:url(#XMLID_201_);stroke:#1A171B;stroke-width:1.4844;stroke-miterlimit:10;}
</style>
<g id="XMLID_157_">
	<path id="XMLID_155_" class="st0" d="M426.1,280.4c2.4,11.7-74.7,104.5-93.6,103.9c-8.8-1.2-16.1-2.2-16.1-2.2s83.2-65.1,93-92.1
		L426.1,280.4z"/>
	<path id="XMLID_154_" class="st0" d="M371.3,296.3c2.1,8-63.9,70.6-80.2,70.1c-7.6-0.9-13.9-1.6-13.9-1.6s71.4-43.8,79.7-62.1
		L371.3,296.3z"/>
	<polygon id="XMLID_153_" class="st1" points="226.7,214.8 274.5,229.3 284,249 310,288.8 275.6,327.4 251.3,311.3 228.2,271.8 	"/>
	<path id="XMLID_152_" class="st1" d="M121.3,306.4c0,0-8.3-9.5-3.9-16.8l28.1,1.2"/>
	<line id="XMLID_151_" class="st0" x1="243.7" y1="263.3" x2="244.4" y2="270.3"/>
	<path id="XMLID_150_" class="st1" d="M230.1,219.2c-6.7,0.8-186.7,23.2-186.7,23.2l62.2,128.2l94.4-11.6l34.6-22.6l13-22.1
		l8.5-55.2l-13.7-35.3L230.1,219.2z"/>
	<path id="XMLID_149_" class="st0" d="M224.7,213.1l-9.9,11.7c0,0,24.4-2.7,27.7-2.9c0.8-0.1,3-2.9,3.9-4.6c0.3-0.6,1-4.7,0.9-4.8
		C245,211,224.7,213.1,224.7,213.1z"/>
	<path id="XMLID_148_" class="st1" d="M224.9,209.2l-6.9,11.7c0,0,21.9-3.2,24.3-2.4c0.7,0.4,5.4-5.5,5.1-6.2
		C245,211,224.9,209.2,224.9,209.2z"/>
	<line id="XMLID_147_" class="st0" x1="240.9" y1="228.6" x2="241" y2="231.8"/>
	<polygon id="XMLID_146_" class="st0" points="285,222.2 250.4,221.2 237.4,230 235.2,236.2 239.5,240.6 292.3,245.7 	"/>
	<polygon id="XMLID_145_" class="st0" points="280.4,217.3 235.3,222.3 235.2,236.2 284,238.8 	"/>
	<polygon id="XMLID_144_" class="st0" points="276.2,197.2 254.8,195.8 242.3,201.1 242.1,208.7 270.2,213 	"/>
	<polygon id="XMLID_143_" class="st0" points="278.5,193.8 242.6,196.1 242.2,204.8 280.3,209.3 	"/>
	<polygon id="XMLID_142_" class="st2" points="255.5,280.5 271.8,279.3 291.5,276.1 299.4,277.9 277.4,309.8 271.7,318 270.4,305.2 
		255.2,291.9 	"/>
	<path id="XMLID_141_" class="st1" d="M425.6,187l18.2,9.9c0,0,7.8,165.8-72.2,173.9c-52.9,5.4-135.9-24.7-113.7-49.2
		c21.2-23.4,43.6-44.6,42.8-47.4c-2.3-8.4-5-18.6-5.3-20.8c-0.3-1.9-10.2-9.5-3-11.7c3.3-1-12.5,23.6-14.9,16.4
		c-4.4-12.5-4.7-19.5-4.7-19.5c1-8.8-11.5-8.7-10.6-16c1.4-10.9,5.1-18.7,5.1-18.7L425.6,187z"/>
	<path id="XMLID_140_" class="st0" d="M358.3,302.2c0,0-13.2-9.8-16-11.9l21.2-9.9c5.1,1.6,7.8,16.1,7.8,16.1L358.3,302.2z"/>
	<path id="XMLID_139_" class="st0" d="M342.3,290.3c0,0-13.2,16.9-28.9,31.4c-15.6,14.5-37,31.9-37,31.9l-3.7,10.6l4.6,0.8
		c0,0,18.5-12.4,41.4-27.4c27.9-18.1,39.1-35.8,39.1-35.8L342.3,290.3z"/>
	<path id="XMLID_138_" class="st0" d="M270.1,338.9l-19.3-0.3l-4-18.6c0,0,19.1-8,32.4-20.1c13.3-12.2,18.2-21.4,18.2-21.4l2-0.6
		l31.2,6.9L270.1,338.9z"/>
	<path id="XMLID_137_" class="st0" d="M249.1,329.2c0,0,12-9.8,32.9-26.4c18.3-14.6,17.4-24.9,17.4-24.9l23.7,6.7l-33.6,28.8
		l-38.7,25.2L249.1,329.2z"/>
	<path id="XMLID_136_" class="st1" d="M472,248.5c0,2.7-27.7,81.1-27.7,81.1s13.1,10.9,17.4,7C484.6,316,472,248.5,472,248.5z"/>
	<path id="XMLID_135_" class="st0" d="M434.2,206c0,0-11.3-23.7-1.7-25.8c8-3.4,18,6.8,25.2,17.7c5.5,8.3,9.4,17,9.6,20.4
		c0.4,7.8-33.9,2.5-33.9,2.5L434.2,206z"/>
	<path id="XMLID_134_" class="st1" d="M432,200.6c6.5-14.1,25.7-2.8,25.7-2.8s-12-20.1-25.2-17.7C424.1,182,432,200.6,432,200.6z"/>
	<path id="XMLID_133_" class="st0" d="M467.3,217.9l-24.3,5.5l-33.2,136.1c0,0,3.1,6.3,8,6.6c3.6,0.2,11.7-0.4,11.7-0.4
		s27.5-39.2,33.9-74C469.9,257,467.3,217.9,467.3,217.9z"/>
	<path id="XMLID_132_" class="st0" d="M438.4,213.7c1.7-6.6,17.4-12.1,22.4-5.7c4.8,6.2,7.6,12.7,7.6,12.7s-22.4-0.9-27.5,5.8
		C432,228.5,439.3,211.4,438.4,213.7"/>
	<path id="XMLID_131_" class="st0" d="M467.3,217.9L467.3,217.9c0,0,2.3,30.7-1.9,63.7c-4.4,34.9-35.8,84.1-35.8,84.1l18.6-14.1
		c0,0,16.9-29.2,21.5-65.2C474,252.6,471.8,226.1,467.3,217.9z"/>
	<path id="XMLID_130_" class="st0" d="M447.1,256.7l-18.1-1.2l-66.6,116.9c0,0-0.1,7.8,4.7,9c4.8,1.3,9.9,0.3,9.9,0.3
		s27.8-31.4,46.4-61.5C442.1,290.1,447.1,256.7,447.1,256.7z"/>
	<path id="XMLID_129_" class="st0" d="M456.4,242.8l-9.3,13.9c0,0-3.4,26.6-19.3,55.9C411,343.5,377,381.6,377,381.6l17.4-2.4
		c0,0,23.9-27.9,41.3-59.8c16.4-29.9,31.3-56.7,23.6-72.5C458.5,245.5,457.6,244.1,456.4,242.8z"/>
	<path id="XMLID_128_" class="st1" d="M447.1,256.7c0,0-14.3-1-18.1-1.2c-4-0.3,7.2-18.6,13.1-19.7c5.9-1.1,14.4,7.1,14.4,7.1
		L447.1,256.7z"/>
	<path id="XMLID_127_" class="st0" d="M410.8,289c0,0-15.2-14.2-18.5-17.3L417,257c5.9,2.3,8.9,23.6,8.9,23.6L410.8,289z"/>
	<path id="XMLID_126_" class="st0" d="M392.3,271.7c0,0-15.5,25-33.8,46.5c-18.3,21.5-43.2,47.2-43.2,47.2l-4.4,15.7l5.3,1.1
		c0,0,21.5-18.5,48.3-40.7c32.5-27,45.6-53.1,45.6-53.1L392.3,271.7z"/>
	<polygon id="XMLID_125_" class="st3" points="256.8,242.3 218.1,235.9 184.3,267.6 202.9,300.5 251.7,305.4 	"/>
	<polygon id="XMLID_124_" class="st2" points="249,241.9 247.1,241.4 226.6,239.5 192.8,270.9 211.5,299.6 256.5,299.7 256.4,259.8 
			"/>
	<path id="XMLID_123_" class="st0" d="M235.2,356.6c0,0-23.2-4.4-51.1-15.2c-11.8-4.6-58.3-31-62.9-34.9c-4.6-3.9-6.3-11.9-3.9-16.8
		l28.1,1.2l103.2,52.8L235.2,356.6z"/>
	<path id="XMLID_122_" class="st0" d="M246,346.2c0,0-24.5-4.3-50.6-13.6c-11.7-4.2-40.5-16.6-47.1-21.2c0,0-3.6-5.3-3.1-12.6l0.2-8
		l103.2,52.8L246,346.2z"/>
	<path id="XMLID_121_" class="st1" d="M194.6,274.4c0,0-25.5,12.3-29.3,11.7c-3.8-0.6,34.5,17.3,52.2,23.1
		c17.7,5.8,40.5,9.6,40.5,9.6l14-10.8l-16.8-17.5L194.6,274.4z"/>
	<path id="XMLID_120_" class="st0" d="M194.6,274.4c0,0,10.8,17.8,12.5,19.3c1.7,1.5,54.4,12.5,54.4,12.5L272,308l-16.8-17.5
		L194.6,274.4z"/>
	<path id="XMLID_119_" class="st0" d="M220.1,243.2l-11.8,19.1c0,0,31.1-0.2,35.3,0c1.1,0,3.6-4.7,4.7-7.6c0.3-1,0.9-8.2,0.8-8.5
		C246.1,243.3,220.1,243.2,220.1,243.2z"/>
	<path id="XMLID_118_" class="st1" d="M223.9,237.1l-11.8,19.1c0,0,27.8-1.6,30.9,0.3c0.9,0.8,6.5-8.9,6-10.2
		C246.1,243.3,223.9,237.1,223.9,237.1z"/>
	<path id="XMLID_117_" class="st0" d="M48.6,205.7c0,0-10.2,17-8.9,19.8c1.3,2.8,11.7,1,11.7,1L48.6,205.7z"/>
	<g id="XMLID_232_">
		<path id="XMLID_116_" class="st1" d="M227.4,225.2c2.3,32.1-36.2,61.1-86,64.8c-49.8,3.6-89.1-19.4-91.4-51.6
			c-0.6-8-1.6-33.6-1.1-37.3c3-25.5,46.7-24.8,84.1-27.5c35.3-2.6,86.6-21.1,91,3.5C225.7,186.9,226.7,215.8,227.4,225.2z"/>
		<path id="XMLID_115_" class="st1" d="M227,219.2c2.1,29.1-36.6,55.6-86.4,59.2c-49.8,3.6-88.9-17-91-46
			c-0.5-7.3-1.3-30.4-0.9-33.7c3.2-23,46.8-22.8,84.2-25.5c35.3-2.6,86.7-19.7,90.9,2.5C225.5,184.6,226.4,210.8,227,219.2z"/>
		
			<ellipse id="XMLID_114_" transform="matrix(0.9885 -0.1512 0.1512 0.9885 -25.2387 22.4224)" class="st1" cx="134.9" cy="177.2" rx="90.5" ry="53.8"/>
		
			<ellipse id="XMLID_113_" transform="matrix(0.9904 -0.1379 0.1379 0.9904 -23.0232 20.2271)" class="st1" cx="134.4" cy="176.2" rx="53" ry="31.1"/>
	</g>
	<path id="XMLID_112_" class="st1" d="M56.3,351.3c-12.2,3.2-31.7-93.3-31.3-107.1c7.5-23.5,24.2-19.9,24.2-19.9l27.7,125.5
		C76.8,349.7,68.3,351.5,56.3,351.3z"/>
	<path id="XMLID_111_" class="st1" d="M58.4,366.9c-12.2,3.2-31.7-93.3-31.3-107.1c7.5-23.5,24.2-19.9,24.2-19.9l27.7,125.5
		C78.9,365.4,70.5,367.2,58.4,366.9z"/>
	<path id="XMLID_110_" class="st1" d="M105.5,370.7c0,0-11.2,15.4-36.1-4.1c-6.8-5.3-15.5-24.1-22.5-38.4
		C32,298,36.8,280.9,36.8,280.9s2,17.8,22.3,43.8C78,348.8,105.5,370.7,105.5,370.7z"/>
	<path id="XMLID_109_" class="st0" d="M105.4,370.7c0,0-9,13.2-29.1-5.5c-6.7-5.3-19.2-25.7-26.3-40c-14.9-30.2-13.2-44.3-13.2-44.3
		s2,17.8,22.3,43.8C77.9,348.8,105.4,370.7,105.4,370.7z"/>
	<path id="XMLID_108_" class="st1" d="M141.9,387.1c-10.1,7.6-92.2-52.6-104.5-102.8c-6.8-32.7,16.4-31.2,16.4-31.2s6,9.5,19,21.3
		c3.4,3.1-9.5,13.1-5.4,19.2c4.6,6.9,17.2,16.6,23.1,23c27.5,29.7,68.5,52.9,69.4,55C161.7,375.8,153.6,383.6,141.9,387.1z"/>
	<path id="XMLID_107_" class="st1" d="M141.7,383.2c-3,2.3-38.5-21.7-64.5-48c-16.5-16.8-27.2-35.8-29.5-45.3
		c-3.3-16,14-25.4,14-25.4s5.5,5.5,11.8,11.3c0,0-8.1,14.8-6,17.8c2.3,3.4,20.2,19.9,23.1,23c13.5,14.6,61.1,49.3,60.9,53
		C151.3,371.9,147.4,381.5,141.7,383.2z"/>
	<path id="XMLID_106_" class="st1" d="M181,382.8c-2.4,0.3-37.3-18.5-64.5-42.8c-26-23.3-47.9-42.7-49.1-46.3
		c-2.5-7.5,5.8-22.4,14.2-21.5c4.4,0.5,29.7,28.8,60.8,51.9c28.2,21.1,62.5,37.1,63.3,40C207.3,370.2,199,380.2,181,382.8z"/>
	<path id="XMLID_105_" class="st1" d="M197.5,376.4c-2,0.4-41.7-18.6-65.8-35.4c-24.3-16.9-40.9-36.1-42-39
		c-2.3-6.3,4.3-19.2,9.9-14.6c2.9,2.4,21.3,22.3,47.5,40.7c17.9,12.5,58,33.7,58.7,36.1C207.1,369.2,200.2,375.9,197.5,376.4z"/>
	<line id="XMLID_104_" class="st0" x1="243.1" y1="256.5" x2="242.8" y2="262.3"/>
	<polygon id="XMLID_103_" class="st0" points="273,256.7 246.4,262.7 243.7,275.3 244.8,283.8 290.9,274.6 292.4,267.2 	"/>
	<polygon id="XMLID_102_" class="st0" points="275.8,258 246.4,262.7 243.7,275.3 274.2,271.5 289,267.7 	"/>
	<path id="XMLID_101_" class="st1" d="M432.5,229.2c-4.8,36.2-32.8,46.2-76.6,53.2c-47.4,7.6-86-12.2-90.8-37.1
		c-0.8-4.3-5.6-34.5-4.9-41.1c2.2-22.4,46.5-23,79.4-28c35.4-5.4,74-23.2,90-6.3c1.6,1.7,2.6,7.2,3.2,14.2
		C434.1,200.4,433.1,225.1,432.5,229.2z"/>
	<path id="XMLID_100_" class="st1" d="M433.4,220.8c-5,36.2-33.5,46.3-78.2,53.4c-48.3,7.7-87.5-12-92.4-36.9
		c-0.8-4.3-5.6-34.5-4.9-41.1c2.3-22.5,47.5-23.1,81-28.3c36.1-5.5,79.7-26.2,91.4-5.9c1.1,1.9,2.9,6.5,3.5,13.5
		C435.1,191.9,434,216.6,433.4,220.8z"/>
	<path id="XMLID_99_" class="st1" d="M431.1,164.2c4.5,29.3-31.2,59.1-79.6,66.6c-48.5,7.4-91.4-10.4-95.9-39.7
		c-4.5-29.3,31.2-59.1,79.6-66.6C383.7,117,426.6,134.8,431.1,164.2z"/>
	
		<ellipse id="XMLID_98_" transform="matrix(0.9904 -0.1379 0.1379 0.9904 -20.7451 49.1684)" class="st1" cx="344.4" cy="174.3" rx="53" ry="31.1"/>
	<polygon id="XMLID_97_" class="st4" points="226.7,214.8 274.5,229.3 284,249 310,288.8 275.6,327.4 251.3,311.3 228.2,271.8 	"/>
	<path id="XMLID_96_" class="st5" d="M121.3,306.4c0,0-8.3-9.5-3.9-16.8l28.1,1.2"/>
	<line id="XMLID_95_" class="st6" x1="243.7" y1="263.3" x2="244.4" y2="270.3"/>
	
		<linearGradient id="XMLID_158_" gradientUnits="userSpaceOnUse" x1="31.5175" y1="292.2113" x2="244.6607" y2="292.2113" gradientTransform="matrix(0.9996 2.920000e-002 -2.920000e-002 0.9996 18.9633 -1.7624)">
		<stop  offset="7.272730e-002" style="stop-color:#D8D9DA"/>
		<stop  offset="0.3636" style="stop-color:#8A8B8D"/>
		<stop  offset="0.6788" style="stop-color:#F5F5F6"/>
		<stop  offset="0.897" style="stop-color:#C5C6C8"/>
	</linearGradient>
	<path id="XMLID_94_" class="st7" d="M230.1,219.2c-6.7,0.8-186.7,23.2-186.7,23.2l62.2,128.2l94.4-11.6l34.6-22.6l13-22.1l8.5-55.2
		l-13.7-35.3L230.1,219.2z"/>
	<path id="XMLID_93_" class="st8" d="M224.7,213.1l-9.9,11.7c0,0,24.4-2.7,27.7-2.9c0.8-0.1,3-2.9,3.9-4.6c0.3-0.6,1-4.7,0.9-4.8
		C245,211,224.7,213.1,224.7,213.1z"/>
	
		<linearGradient id="XMLID_159_" gradientUnits="userSpaceOnUse" x1="320.3755" y1="151.9662" x2="362.2532" y2="151.9662" gradientTransform="matrix(0.7056 -0.1858 0.1168 0.4436 -26.5937 210.3373)">
		<stop  offset="3.030300e-002" style="stop-color:#6F7072"/>
		<stop  offset="0.297" style="stop-color:#C5C6C8"/>
		<stop  offset="0.6727" style="stop-color:#58585A"/>
		<stop  offset="0.9636" style="stop-color:#C5C6C8"/>
	</linearGradient>
	<path id="XMLID_92_" class="st9" d="M224.9,209.2l-6.9,11.7c0,0,21.9-3.2,24.3-2.4c0.7,0.4,5.4-5.5,5.1-6.2
		C245,211,224.9,209.2,224.9,209.2z"/>
	<line id="XMLID_91_" class="st6" x1="240.9" y1="228.6" x2="241" y2="231.8"/>
	<polygon id="XMLID_90_" class="st8" points="285,222.2 250.4,221.2 237.4,230 235.2,236.2 239.5,240.6 292.3,245.7 	"/>
	
		<linearGradient id="XMLID_160_" gradientUnits="userSpaceOnUse" x1="118.6591" y1="152.1158" x2="168.3078" y2="152.1158" gradientTransform="matrix(0.8317 0.5553 -0.5553 0.8317 225.9876 22.5957)">
		<stop  offset="3.030300e-002" style="stop-color:#BABBBD"/>
		<stop  offset="0.2667" style="stop-color:#FFFFFF"/>
		<stop  offset="0.4606" style="stop-color:#B0B2B3"/>
		<stop  offset="0.7152" style="stop-color:#FFFFFF"/>
		<stop  offset="1" style="stop-color:#D8D9DA"/>
	</linearGradient>
	<polygon id="XMLID_89_" class="st10" points="280.4,217.3 235.3,222.3 235.2,236.2 284,238.8 	"/>
	<polygon id="XMLID_88_" class="st8" points="276.2,197.2 254.8,195.8 242.3,201.1 242.1,208.7 270.2,213 	"/>
	
		<linearGradient id="XMLID_161_" gradientUnits="userSpaceOnUse" x1="98.0265" y1="61.5378" x2="145.3862" y2="61.5378" gradientTransform="matrix(0.6645 0.447 -0.4777 0.613 211.3183 108.7839)">
		<stop  offset="3.030300e-002" style="stop-color:#BABBBD"/>
		<stop  offset="0.2667" style="stop-color:#FFFFFF"/>
		<stop  offset="0.4606" style="stop-color:#B0B2B3"/>
		<stop  offset="0.7152" style="stop-color:#FFFFFF"/>
		<stop  offset="1" style="stop-color:#D8D9DA"/>
	</linearGradient>
	<polygon id="XMLID_87_" class="st11" points="278.5,193.8 242.6,196.1 242.2,204.8 280.3,209.3 	"/>
	<polygon id="XMLID_86_" class="st12" points="255.5,280.5 271.8,279.3 291.5,276.1 299.4,277.9 277.4,309.8 271.7,318 270.4,305.2 
		255.2,291.9 	"/>
	
		<linearGradient id="XMLID_162_" gradientUnits="userSpaceOnUse" x1="244.871" y1="269.9399" x2="431.1594" y2="269.9399" gradientTransform="matrix(0.9996 2.920000e-002 -2.920000e-002 0.9996 18.9633 -1.7624)">
		<stop  offset="7.272730e-002" style="stop-color:#D8D9DA"/>
		<stop  offset="0.3636" style="stop-color:#8A8B8D"/>
		<stop  offset="0.6788" style="stop-color:#F5F5F6"/>
		<stop  offset="0.897" style="stop-color:#C5C6C8"/>
	</linearGradient>
	<path id="XMLID_85_" class="st13" d="M425.6,187l18.2,9.9c0,0,7.8,165.8-72.2,173.9c-52.9,5.4-135.9-24.7-113.7-49.2
		c21.2-23.4,43.6-44.6,42.8-47.4c-2.3-8.4-5-18.6-5.3-20.8c-0.3-1.9-10.2-9.5-3-11.7c3.3-1-12.5,23.6-14.9,16.4
		c-4.4-12.5-4.7-19.5-4.7-19.5c1-8.8-11.5-8.7-10.6-16c1.4-10.9,5.1-18.7,5.1-18.7L425.6,187z"/>
	
		<linearGradient id="XMLID_163_" gradientUnits="userSpaceOnUse" x1="268.8549" y1="323.8729" x2="360.943" y2="323.8729" gradientTransform="matrix(0.9996 2.920000e-002 -2.920000e-002 0.9996 18.9633 -1.7624)">
		<stop  offset="3.030300e-002" style="stop-color:#BABBBD"/>
		<stop  offset="0.2667" style="stop-color:#FFFFFF"/>
		<stop  offset="0.4606" style="stop-color:#B0B2B3"/>
		<stop  offset="0.7152" style="stop-color:#FFFFFF"/>
		<stop  offset="1" style="stop-color:#D8D9DA"/>
	</linearGradient>
	<path id="XMLID_84_" class="st14" d="M371.3,296.3c2.1,8-63.9,70.6-80.2,70.1c-7.6-0.9-13.9-1.6-13.9-1.6s71.4-43.8,79.7-62.1
		L371.3,296.3z"/>
	
		<linearGradient id="XMLID_164_" gradientUnits="userSpaceOnUse" x1="334.5698" y1="271.3569" x2="369.0796" y2="297.3319" gradientTransform="matrix(0.9996 2.920000e-002 -2.920000e-002 0.9996 18.9633 -1.7624)">
		<stop  offset="3.030300e-002" style="stop-color:#BABBBD"/>
		<stop  offset="0.2667" style="stop-color:#FFFFFF"/>
		<stop  offset="0.4606" style="stop-color:#B0B2B3"/>
		<stop  offset="0.7152" style="stop-color:#FFFFFF"/>
		<stop  offset="1" style="stop-color:#D8D9DA"/>
	</linearGradient>
	<path id="XMLID_83_" class="st15" d="M358.3,302.2c0,0-13.2-9.8-16-11.9l21.2-9.9c5.1,1.6,7.8,16.1,7.8,16.1L358.3,302.2z"/>
	
		<linearGradient id="XMLID_165_" gradientUnits="userSpaceOnUse" x1="257.2152" y1="335.626" x2="448.6969" y2="269.5724" gradientTransform="matrix(0.9996 2.920000e-002 -2.920000e-002 0.9996 18.9633 -1.7624)">
		<stop  offset="1.818180e-002" style="stop-color:#8A8B8D"/>
		<stop  offset="0.3455" style="stop-color:#3D3D3F"/>
		<stop  offset="0.497" style="stop-color:#B0B2B3"/>
		<stop  offset="0.7273" style="stop-color:#3D3D3F"/>
		<stop  offset="0.897" style="stop-color:#9B9C9E"/>
	</linearGradient>
	<path id="XMLID_82_" class="st16" d="M342.3,290.3c0,0-13.2,16.9-28.9,31.4c-15.6,14.5-37,31.9-37,31.9l-3.7,10.6l4.6,0.8
		c0,0,18.5-12.4,41.4-27.4c27.9-18.1,39.1-35.8,39.1-35.8L342.3,290.3z"/>
	
		<linearGradient id="XMLID_166_" gradientUnits="userSpaceOnUse" x1="237.064" y1="302.3887" x2="319.7821" y2="302.3887" gradientTransform="matrix(0.9996 2.920000e-002 -2.920000e-002 0.9996 18.9633 -1.7624)">
		<stop  offset="0.3455" style="stop-color:#3D3D3F"/>
		<stop  offset="0.497" style="stop-color:#B0B2B3"/>
		<stop  offset="0.7273" style="stop-color:#3D3D3F"/>
		<stop  offset="0.897" style="stop-color:#9B9C9E"/>
	</linearGradient>
	<path id="XMLID_81_" class="st17" d="M270.1,338.9l-19.3-0.3l-4-18.6c0,0,19.1-8,32.4-20.1c13.3-12.2,18.2-21.4,18.2-21.4l2-0.6
		l31.2,5.9L270.1,338.9z"/>
	
		<linearGradient id="XMLID_167_" gradientUnits="userSpaceOnUse" x1="239.6561" y1="302.3887" x2="312.2325" y2="302.3887" gradientTransform="matrix(0.9996 2.920000e-002 -2.920000e-002 0.9996 18.9633 -1.7624)">
		<stop  offset="3.030300e-002" style="stop-color:#BABBBD"/>
		<stop  offset="0.2667" style="stop-color:#FFFFFF"/>
		<stop  offset="0.4606" style="stop-color:#B0B2B3"/>
		<stop  offset="0.7152" style="stop-color:#FFFFFF"/>
		<stop  offset="1" style="stop-color:#D8D9DA"/>
	</linearGradient>
	<path id="XMLID_80_" class="st18" d="M249.1,329.2c0,0,12-9.8,32.9-26.4c18.3-14.6,17.4-24.9,17.4-24.9l23.7,5.2l-33.6,30.2
		l-38.7,25.2L249.1,329.2z"/>
	
		<linearGradient id="XMLID_168_" gradientUnits="userSpaceOnUse" x1="432.2675" y1="281.2901" x2="489.4165" y2="282.0323" gradientTransform="matrix(0.9996 2.920000e-002 -2.920000e-002 0.9996 18.9633 -1.7624)">
		<stop  offset="3.030300e-002" style="stop-color:#3D3D3F"/>
		<stop  offset="0.3333" style="stop-color:#1A171B"/>
		<stop  offset="0.4667" style="stop-color:#58585A"/>
		<stop  offset="0.7152" style="stop-color:#B0B2B3"/>
		<stop  offset="0.7879" style="stop-color:#3D3D3F"/>
		<stop  offset="1" style="stop-color:#868789"/>
	</linearGradient>
	<path id="XMLID_79_" class="st19" d="M472,248.5c0,2.7-27.7,81.1-27.7,81.1s13.1,10.9,17.4,7C484.6,316,472,248.5,472,248.5z"/>
	
		<linearGradient id="XMLID_169_" gradientUnits="userSpaceOnUse" x1="486.0564" y1="190.2594" x2="371.0254" y2="190.2594" gradientTransform="matrix(0.9996 2.920000e-002 -2.920000e-002 0.9996 18.9633 -1.7624)">
		<stop  offset="1.818180e-002" style="stop-color:#8A8B8D"/>
		<stop  offset="0.3455" style="stop-color:#3D3D3F"/>
		<stop  offset="0.497" style="stop-color:#B0B2B3"/>
		<stop  offset="0.7273" style="stop-color:#3D3D3F"/>
		<stop  offset="0.897" style="stop-color:#9B9C9E"/>
	</linearGradient>
	<path id="XMLID_78_" class="st20" d="M434.2,206c0,0-11.3-23.7-1.7-25.8c8-3.4,18,6.8,25.2,17.7c5.5,8.3,9.4,17,9.6,20.4
		c0.4,7.8-33.9,2.5-33.9,2.5L434.2,206z"/>
	
		<linearGradient id="XMLID_170_" gradientUnits="userSpaceOnUse" x1="414.9922" y1="179.8875" x2="444.403" y2="179.8875" gradientTransform="matrix(0.9996 2.920000e-002 -2.920000e-002 0.9996 18.9633 -1.7624)">
		<stop  offset="3.030300e-002" style="stop-color:#BABBBD"/>
		<stop  offset="0.2667" style="stop-color:#FFFFFF"/>
		<stop  offset="0.4606" style="stop-color:#B0B2B3"/>
		<stop  offset="0.7152" style="stop-color:#FFFFFF"/>
		<stop  offset="1" style="stop-color:#D8D9DA"/>
	</linearGradient>
	<path id="XMLID_77_" class="st21" d="M432,200.6c6.5-14.1,25.7-2.8,25.7-2.8s-12-20.1-25.2-17.7C424.1,182,432,200.6,432,200.6z"/>
	
		<linearGradient id="XMLID_171_" gradientUnits="userSpaceOnUse" x1="373.3156" y1="282.0043" x2="492.8113" y2="280.5199" gradientTransform="matrix(0.9996 2.920000e-002 -2.920000e-002 0.9996 18.9633 -1.7624)">
		<stop  offset="1.818180e-002" style="stop-color:#8A8B8D"/>
		<stop  offset="0.3455" style="stop-color:#3D3D3F"/>
		<stop  offset="0.497" style="stop-color:#B0B2B3"/>
		<stop  offset="0.7273" style="stop-color:#3D3D3F"/>
		<stop  offset="0.897" style="stop-color:#9B9C9E"/>
	</linearGradient>
	<path id="XMLID_76_" class="st22" d="M467.3,217.9l-24.3,5.5l-33.2,136.1c0,0,3.1,6.3,8,6.6c3.6,0.2,11.7-0.4,11.7-0.4
		s27.5-39.2,33.9-74C469.9,257,467.3,217.9,467.3,217.9z"/>
	
		<linearGradient id="XMLID_172_" gradientUnits="userSpaceOnUse" x1="473.1946" y1="194.8985" x2="401.6413" y2="214.1628" gradientTransform="matrix(0.9996 2.920000e-002 -2.920000e-002 0.9996 18.9633 -1.7624)">
		<stop  offset="3.030300e-002" style="stop-color:#BABBBD"/>
		<stop  offset="0.2667" style="stop-color:#FFFFFF"/>
		<stop  offset="0.4606" style="stop-color:#B0B2B3"/>
		<stop  offset="0.7152" style="stop-color:#FFFFFF"/>
		<stop  offset="1" style="stop-color:#D8D9DA"/>
	</linearGradient>
	<path id="XMLID_75_" class="st23" d="M439.5,211.5c2.9-6.2,18.3-7,21.4-3.5c4.8,6.2,7.6,12.7,7.6,12.7s-21.2-2.2-26.2,4.6
		C435.3,217.9,438.5,213,439.5,211.5"/>
	
		<linearGradient id="XMLID_174_" gradientUnits="userSpaceOnUse" x1="421.1396" y1="280.9162" x2="460.3344" y2="280.9162" gradientTransform="matrix(0.9996 2.920000e-002 -2.920000e-002 0.9996 18.9633 -1.7624)">
		<stop  offset="3.030300e-002" style="stop-color:#BABBBD"/>
		<stop  offset="0.2667" style="stop-color:#FFFFFF"/>
		<stop  offset="0.4606" style="stop-color:#B0B2B3"/>
		<stop  offset="0.7152" style="stop-color:#FFFFFF"/>
		<stop  offset="1" style="stop-color:#D8D9DA"/>
	</linearGradient>
	<path id="XMLID_74_" class="st24" d="M467.3,217.9L467.3,217.9c0,0,2.3,30.7-1.9,63.7c-4.4,34.9-35.8,84.1-35.8,84.1l18.6-14.1
		c0,0,16.9-29.2,21.5-65.2C474,252.6,471.8,226.1,467.3,217.9z"/>
	
		<linearGradient id="XMLID_175_" gradientUnits="userSpaceOnUse" x1="442.1407" y1="308.9425" x2="290.7321" y2="309.6848" gradientTransform="matrix(0.9996 2.920000e-002 -2.920000e-002 0.9996 18.9633 -1.7624)">
		<stop  offset="1.818180e-002" style="stop-color:#8A8B8D"/>
		<stop  offset="0.3455" style="stop-color:#3D3D3F"/>
		<stop  offset="0.497" style="stop-color:#B0B2B3"/>
		<stop  offset="0.7273" style="stop-color:#3D3D3F"/>
		<stop  offset="0.897" style="stop-color:#9B9C9E"/>
	</linearGradient>
	<path id="XMLID_73_" class="st25" d="M447.1,256.7l-18.1-1.2l-66.6,116.9c0,0-0.1,7.8,4.7,9c4.8,1.3,9.9,0.3,9.9,0.3
		s27.8-31.4,46.4-61.5C442.1,290.1,447.1,256.7,447.1,256.7z"/>
	
		<linearGradient id="XMLID_176_" gradientUnits="userSpaceOnUse" x1="369.0699" y1="302.2391" x2="449.7804" y2="302.2391" gradientTransform="matrix(0.9996 2.920000e-002 -2.920000e-002 0.9996 18.9633 -1.7624)">
		<stop  offset="3.030300e-002" style="stop-color:#BABBBD"/>
		<stop  offset="0.2667" style="stop-color:#FFFFFF"/>
		<stop  offset="0.4606" style="stop-color:#B0B2B3"/>
		<stop  offset="0.7152" style="stop-color:#FFFFFF"/>
		<stop  offset="1" style="stop-color:#D8D9DA"/>
	</linearGradient>
	<path id="XMLID_72_" class="st26" d="M456.4,242.8l-9.3,13.9c0,0-3.4,26.6-19.3,55.9C411,343.5,377,381.6,377,381.6l17.4-2.4
		c0,0,23.9-27.9,41.3-59.8c16.4-29.9,31.3-56.7,23.6-72.5C458.5,245.5,457.6,244.1,456.4,242.8z"/>
	
		<linearGradient id="XMLID_177_" gradientUnits="userSpaceOnUse" x1="416.4442" y1="235.3734" x2="444.398" y2="235.3734" gradientTransform="matrix(0.9996 2.920000e-002 -2.920000e-002 0.9996 18.9633 -1.7624)">
		<stop  offset="3.030300e-002" style="stop-color:#BABBBD"/>
		<stop  offset="0.2667" style="stop-color:#FFFFFF"/>
		<stop  offset="0.4606" style="stop-color:#B0B2B3"/>
		<stop  offset="0.7152" style="stop-color:#FFFFFF"/>
		<stop  offset="1" style="stop-color:#D8D9DA"/>
	</linearGradient>
	<path id="XMLID_71_" class="st27" d="M447.1,256.7c0,0-14.3-1-18.1-1.2c-4-0.3,7.2-18.6,13.1-19.7c5.9-1.1,14.4,7.1,14.4,7.1
		L447.1,256.7z"/>
	
		<linearGradient id="XMLID_178_" gradientUnits="userSpaceOnUse" x1="308.5354" y1="323.4671" x2="415.2852" y2="323.4671" gradientTransform="matrix(0.9996 2.920000e-002 -2.920000e-002 0.9996 18.9633 -1.7624)">
		<stop  offset="3.030300e-002" style="stop-color:#BABBBD"/>
		<stop  offset="0.2667" style="stop-color:#FFFFFF"/>
		<stop  offset="0.4606" style="stop-color:#B0B2B3"/>
		<stop  offset="0.7152" style="stop-color:#FFFFFF"/>
		<stop  offset="1" style="stop-color:#D8D9DA"/>
	</linearGradient>
	<path id="XMLID_70_" class="st28" d="M426.1,280.4c2.4,11.7-74.7,104.5-93.6,103.9c-8.8-1.2-16.1-2.2-16.1-2.2s83.2-65.1,93-92.1
		L426.1,280.4z"/>
	
		<linearGradient id="XMLID_179_" gradientUnits="userSpaceOnUse" x1="381.164" y1="263.109" x2="414.9824" y2="263.109" gradientTransform="matrix(0.9996 2.920000e-002 -2.920000e-002 0.9996 18.9633 -1.7624)">
		<stop  offset="3.030300e-002" style="stop-color:#BABBBD"/>
		<stop  offset="0.2667" style="stop-color:#FFFFFF"/>
		<stop  offset="0.4606" style="stop-color:#B0B2B3"/>
		<stop  offset="0.7152" style="stop-color:#FFFFFF"/>
		<stop  offset="1" style="stop-color:#D8D9DA"/>
	</linearGradient>
	<path id="XMLID_69_" class="st29" d="M410.8,289c0,0-15.2-14.2-18.5-17.3L417,257c5.9,2.3,8.9,23.6,8.9,23.6L410.8,289z"/>
	
		<linearGradient id="XMLID_180_" gradientUnits="userSpaceOnUse" x1="281.2151" y1="318.8171" x2="462.3081" y2="318.8171" gradientTransform="matrix(0.9996 2.920000e-002 -2.920000e-002 0.9996 18.9633 -1.7624)">
		<stop  offset="0.3455" style="stop-color:#3D3D3F"/>
		<stop  offset="0.497" style="stop-color:#B0B2B3"/>
		<stop  offset="0.7273" style="stop-color:#3D3D3F"/>
		<stop  offset="0.897" style="stop-color:#9B9C9E"/>
	</linearGradient>
	<path id="XMLID_68_" class="st30" d="M392.3,271.7c0,0-15.5,25-33.8,46.5c-18.3,21.5-43.2,47.2-43.2,47.2l-4.4,15.7l5.3,1.1
		c0,0,21.5-18.5,48.3-40.7c32.5-27,45.6-53.1,45.6-53.1L392.3,271.7z"/>
	<polygon id="XMLID_67_" class="st31" points="256.8,242.3 218.1,235.9 184.3,267.6 202.9,300.5 251.7,305.4 	"/>
	<polygon id="XMLID_66_" class="st12" points="249,241.9 247.1,241.4 226.6,239.5 192.8,270.9 211.5,299.6 256.5,299.7 256.4,259.8 
			"/>
	
		<linearGradient id="XMLID_181_" gradientUnits="userSpaceOnUse" x1="105.912" y1="320.1331" x2="239.6558" y2="320.1331" gradientTransform="matrix(0.9996 2.920000e-002 -2.920000e-002 0.9996 18.9633 -1.7624)">
		<stop  offset="3.030300e-002" style="stop-color:#6F7072"/>
		<stop  offset="0.297" style="stop-color:#C5C6C8"/>
		<stop  offset="0.6727" style="stop-color:#58585A"/>
		<stop  offset="0.9636" style="stop-color:#C5C6C8"/>
	</linearGradient>
	<path id="XMLID_65_" class="st32" d="M235.2,356.6c0,0-23.2-4.4-51.1-15.2c-11.8-4.6-58.3-31-62.9-34.9c-4.6-3.9-6.3-11.9-3.9-16.8
		l28.1,1.2l103.2,52.8L235.2,356.6z"/>
	
		<linearGradient id="XMLID_182_" gradientUnits="userSpaceOnUse" x1="142.9339" y1="314.9655" x2="253.4105" y2="314.9655" gradientTransform="matrix(0.9996 2.920000e-002 -2.920000e-002 0.9996 18.9633 -1.7624)">
		<stop  offset="3.030300e-002" style="stop-color:#3D3D3F"/>
		<stop  offset="0.3333" style="stop-color:#1A171B"/>
		<stop  offset="0.4667" style="stop-color:#58585A"/>
		<stop  offset="0.7152" style="stop-color:#B0B2B3"/>
		<stop  offset="0.7879" style="stop-color:#3D3D3F"/>
		<stop  offset="1" style="stop-color:#868789"/>
	</linearGradient>
	<path id="XMLID_64_" class="st33" d="M246,346.2c0,0-24.5-4.3-50.6-13.6c-11.7-4.2-40.5-16.6-47.1-21.2c0,0-3.6-5.3-3.1-12.6l0.2-8
		l103.2,52.8L246,346.2z"/>
	
		<linearGradient id="XMLID_183_" gradientUnits="userSpaceOnUse" x1="154.425" y1="292.1979" x2="261.9929" y2="292.1979" gradientTransform="matrix(0.9996 2.920000e-002 -2.920000e-002 0.9996 18.9633 -1.7624)">
		<stop  offset="3.030300e-002" style="stop-color:#6F7072"/>
		<stop  offset="0.297" style="stop-color:#C5C6C8"/>
		<stop  offset="0.6727" style="stop-color:#58585A"/>
		<stop  offset="0.9636" style="stop-color:#C5C6C8"/>
	</linearGradient>
	<path id="XMLID_63_" class="st34" d="M194.6,274.4c0,0-25.5,12.3-29.3,11.7c-3.8-0.6,34.5,17.3,52.2,23.1
		c17.7,5.8,40.5,9.6,40.5,9.6l14-10.8l-16.8-17.5L194.6,274.4z"/>
	
		<linearGradient id="XMLID_184_" gradientUnits="userSpaceOnUse" x1="179.3281" y1="278.0362" x2="282.5598" y2="301.8818" gradientTransform="matrix(0.9996 2.920000e-002 -2.920000e-002 0.9996 18.9633 -1.7624)">
		<stop  offset="3.030300e-002" style="stop-color:#3D3D3F"/>
		<stop  offset="0.3333" style="stop-color:#1A171B"/>
		<stop  offset="0.4667" style="stop-color:#58585A"/>
		<stop  offset="0.7152" style="stop-color:#B0B2B3"/>
		<stop  offset="0.7879" style="stop-color:#3D3D3F"/>
		<stop  offset="1" style="stop-color:#868789"/>
	</linearGradient>
	<path id="XMLID_62_" class="st35" d="M194.6,274.4c0,0,10.8,17.8,12.5,19.3c1.7,1.5,54.4,12.5,54.4,12.5L272,308l-16.8-17.5
		L194.6,274.4z"/>
	<path id="XMLID_61_" class="st8" d="M220.1,243.2l-11.8,19.1c0,0,31.1-0.2,35.3,0c1.1,0,3.6-4.7,4.7-7.6c0.3-1,0.9-8.2,0.8-8.5
		C246.1,243.3,220.1,243.2,220.1,243.2z"/>
	
		<linearGradient id="XMLID_185_" gradientUnits="userSpaceOnUse" x1="213.9326" y1="289.0349" x2="249.1933" y2="289.0349" gradientTransform="matrix(1.0582 -0.2376 0.2191 0.9757 -78.5586 20.6464)">
		<stop  offset="3.030300e-002" style="stop-color:#6F7072"/>
		<stop  offset="0.297" style="stop-color:#C5C6C8"/>
		<stop  offset="0.6727" style="stop-color:#58585A"/>
		<stop  offset="0.9636" style="stop-color:#C5C6C8"/>
	</linearGradient>
	<path id="XMLID_60_" class="st36" d="M223.9,237.1l-11.8,19.1c0,0,27.8-1.6,30.9,0.3c0.9,0.8,6.5-8.9,6-10.2
		C246.1,243.3,223.9,237.1,223.9,237.1z"/>
	<path id="XMLID_59_" class="st8" d="M48.6,205.7c0,0-10.2,17-8.9,19.8c1.3,2.8,11.7,1,11.7,1L48.6,205.7z"/>
	<g id="XMLID_173_">
		
			<linearGradient id="XMLID_186_" gradientUnits="userSpaceOnUse" x1="35.104" y1="233.8786" x2="254.7909" y2="229.9213" gradientTransform="matrix(1.0002 3.790000e-002 -2.300000e-002 1.0845 16.7098 -29.7489)">
			<stop  offset="3.030300e-002" style="stop-color:#3D3D3F"/>
			<stop  offset="0.3333" style="stop-color:#6F7072"/>
			<stop  offset="0.5333" style="stop-color:#B0B2B3"/>
			<stop  offset="0.7879" style="stop-color:#3D3D3F"/>
			<stop  offset="1" style="stop-color:#868789"/>
		</linearGradient>
		<path id="XMLID_58_" class="st37" d="M227.4,225.2c2.3,32.1-36.2,61.1-86,64.8c-49.8,3.6-89.1-19.4-91.4-51.6
			c-0.6-8-1.6-33.6-1.1-37.3c3-25.5,46.7-24.8,84.1-27.5c35.3-2.6,86.6-21.1,91,3.5C225.7,186.9,226.7,215.8,227.4,225.2z"/>
		
			<linearGradient id="XMLID_187_" gradientUnits="userSpaceOnUse" x1="33.8236" y1="219.6775" x2="253.5175" y2="215.72" gradientTransform="matrix(0.9994 2.740000e-002 -3.050000e-002 0.9815 18.9941 3.9529)">
			<stop  offset="3.030300e-002" style="stop-color:#3D3D3F"/>
			<stop  offset="0.3333" style="stop-color:#1A171B"/>
			<stop  offset="0.4667" style="stop-color:#58585A"/>
			<stop  offset="0.7152" style="stop-color:#B0B2B3"/>
			<stop  offset="0.7879" style="stop-color:#3D3D3F"/>
			<stop  offset="1" style="stop-color:#868789"/>
		</linearGradient>
		<path id="XMLID_57_" class="st38" d="M227,219.2c2.1,29.1-36.6,55.6-86.4,59.2c-49.8,3.6-88.9-17-91-46
			c-0.5-7.3-1.3-30.4-0.9-33.7c3.2-23,46.8-22.8,84.2-25.5c35.3-2.6,86.7-19.7,90.9,2.5C225.5,184.6,226.4,210.8,227,219.2z"/>
		
			<linearGradient id="XMLID_188_" gradientUnits="userSpaceOnUse" x1="31.5202" y1="175.5062" x2="210.6057" y2="175.5062" gradientTransform="matrix(0.9996 2.920000e-002 -2.920000e-002 0.9996 18.9633 -1.7624)">
			<stop  offset="3.030300e-002" style="stop-color:#BABBBD"/>
			<stop  offset="0.2667" style="stop-color:#FFFFFF"/>
			<stop  offset="0.4606" style="stop-color:#B0B2B3"/>
			<stop  offset="0.7152" style="stop-color:#FFFFFF"/>
			<stop  offset="1" style="stop-color:#D8D9DA"/>
		</linearGradient>
		<path id="XMLID_56_" class="st39" d="M224.3,163.5c4.5,29.3-31.9,59.3-81.3,66.8c-49.4,7.6-93.1-10.1-97.6-39.5
			c-4.5-29.3,31.9-59.3,81.3-66.8C176.1,116.5,219.8,134.2,224.3,163.5z"/>
		
			<linearGradient id="XMLID_189_" gradientUnits="userSpaceOnUse" x1="56.8412" y1="174.5435" x2="167.6724" y2="174.5435" gradientTransform="matrix(0.9996 2.920000e-002 -2.920000e-002 0.9996 18.9633 -1.7624)">
			<stop  offset="3.030300e-002" style="stop-color:#1A171B"/>
			<stop  offset="0.2727" style="stop-color:#3D3D3F"/>
			<stop  offset="0.4364" style="stop-color:#58585A"/>
			<stop  offset="0.5515" style="stop-color:#3D3D3F"/>
			<stop  offset="0.7636" style="stop-color:#58585A"/>
			<stop  offset="1" style="stop-color:#1A171B"/>
		</linearGradient>
		<path id="XMLID_37_" class="st40" d="M187,168.9c2.4,17-19.2,34.1-48.2,38.1c-29,4-54.5-6.5-56.8-23.5
			c-2.4-17,19.2-34.1,48.2-38.1C159.2,141.4,184.6,151.9,187,168.9z"/>
	</g>
	
		<linearGradient id="XMLID_190_" gradientUnits="userSpaceOnUse" x1="13.1619" y1="288.3877" x2="68.0535" y2="288.3877" gradientTransform="matrix(0.9996 2.920000e-002 -2.920000e-002 0.9996 18.9633 -1.7624)">
		<stop  offset="3.030300e-002" style="stop-color:#6F7072"/>
		<stop  offset="0.297" style="stop-color:#C5C6C8"/>
		<stop  offset="0.6727" style="stop-color:#58585A"/>
		<stop  offset="0.9636" style="stop-color:#C5C6C8"/>
	</linearGradient>
	<path id="XMLID_36_" class="st41" d="M56.3,351.3c-12.2,3.2-31.7-93.3-31.3-107.1c7.5-23.5,24.2-19.9,24.2-19.9l27.7,125.5
		C76.8,349.7,68.3,351.5,56.3,351.3z"/>
	
		<linearGradient id="XMLID_191_" gradientUnits="userSpaceOnUse" x1="-36.2616" y1="336.8424" x2="151.521" y2="264.8467" gradientTransform="matrix(0.9996 2.920000e-002 -2.920000e-002 0.9996 18.9633 -1.7624)">
		<stop  offset="3.030300e-002" style="stop-color:#3D3D3F"/>
		<stop  offset="0.3333" style="stop-color:#1A171B"/>
		<stop  offset="0.4667" style="stop-color:#58585A"/>
		<stop  offset="0.7152" style="stop-color:#B0B2B3"/>
		<stop  offset="0.7879" style="stop-color:#3D3D3F"/>
		<stop  offset="1" style="stop-color:#868789"/>
	</linearGradient>
	<path id="XMLID_35_" class="st42" d="M58.4,366.9c-12.2,3.2-31.7-93.3-31.3-107.1c7.5-23.5,24.2-19.9,24.2-19.9l27.7,125.5
		C78.9,365.4,70.5,367.2,58.4,366.9z"/>
	
		<linearGradient id="XMLID_192_" gradientUnits="userSpaceOnUse" x1="25.5658" y1="328.9744" x2="97.4101" y2="328.9744" gradientTransform="matrix(0.9996 2.920000e-002 -2.920000e-002 0.9996 18.9633 -1.7624)">
		<stop  offset="3.030300e-002" style="stop-color:#6F7072"/>
		<stop  offset="0.297" style="stop-color:#C5C6C8"/>
		<stop  offset="0.6727" style="stop-color:#58585A"/>
		<stop  offset="0.9636" style="stop-color:#C5C6C8"/>
	</linearGradient>
	<path id="XMLID_34_" class="st43" d="M105.5,370.7c0,0-11.2,15.4-36.1-4.1c-6.8-5.3-15.5-24.1-22.5-38.4
		C32,298,36.8,280.9,36.8,280.9s2,17.8,22.3,43.8C78,348.8,105.5,370.7,105.5,370.7z"/>
	<path id="XMLID_33_" class="st8" d="M105.4,370.7c0,0-9,13.2-29.1-5.5c-6.7-5.3-19.2-25.7-26.3-40c-14.9-30.2-13.2-44.3-13.2-44.3
		s2,17.8,22.3,43.8C77.9,348.8,105.4,370.7,105.4,370.7z"/>
	
		<linearGradient id="XMLID_193_" gradientUnits="userSpaceOnUse" x1="25.2471" y1="319.7618" x2="152.0994" y2="319.7618" gradientTransform="matrix(0.9996 2.920000e-002 -2.920000e-002 0.9996 18.9633 -1.7624)">
		<stop  offset="3.030300e-002" style="stop-color:#6F7072"/>
		<stop  offset="0.297" style="stop-color:#C5C6C8"/>
		<stop  offset="0.6727" style="stop-color:#58585A"/>
		<stop  offset="0.9636" style="stop-color:#C5C6C8"/>
	</linearGradient>
	<path id="XMLID_32_" class="st44" d="M141.9,387.1c-10.1,7.6-92.2-52.6-104.5-102.8c-6.8-32.7,16.4-31.2,16.4-31.2s6,9.5,19,21.3
		c3.4,3.1-9.5,13.1-5.4,19.2c4.6,6.9,17.2,16.6,23.1,23c27.5,29.7,68.5,52.9,69.4,55C161.7,375.8,153.6,383.6,141.9,387.1z"/>
	
		<linearGradient id="XMLID_194_" gradientUnits="userSpaceOnUse" x1="203.4374" y1="275.7669" x2="-125.7244" y2="415.6417" gradientTransform="matrix(0.9996 2.920000e-002 -2.920000e-002 0.9996 18.9633 -1.7624)">
		<stop  offset="3.030300e-002" style="stop-color:#3D3D3F"/>
		<stop  offset="0.3333" style="stop-color:#1A171B"/>
		<stop  offset="0.4667" style="stop-color:#58585A"/>
		<stop  offset="0.7152" style="stop-color:#B0B2B3"/>
		<stop  offset="0.7879" style="stop-color:#3D3D3F"/>
		<stop  offset="1" style="stop-color:#868789"/>
	</linearGradient>
	<path id="XMLID_31_" class="st45" d="M141.7,383.2c-3,2.3-38.5-21.7-64.5-48c-16.5-16.8-27.2-35.8-29.5-45.3
		c-3.3-16,14-25.4,14-25.4s5.5,5.5,11.8,11.3c0,0-8.1,14.8-6,17.8c2.3,3.4,20.2,19.9,23.1,23c13.5,14.6,61.1,49.3,60.9,53
		C151.3,371.9,147.4,381.5,141.7,383.2z"/>
	
		<linearGradient id="XMLID_195_" gradientUnits="userSpaceOnUse" x1="47.0974" y1="274.3141" x2="222.3187" y2="399.8986" gradientTransform="matrix(0.9996 2.920000e-002 -2.920000e-002 0.9996 18.9633 -1.7624)">
		<stop  offset="3.030300e-002" style="stop-color:#6F7072"/>
		<stop  offset="0.297" style="stop-color:#C5C6C8"/>
		<stop  offset="0.6727" style="stop-color:#58585A"/>
		<stop  offset="0.9636" style="stop-color:#C5C6C8"/>
	</linearGradient>
	<path id="XMLID_30_" class="st46" d="M181,382.8c-2.4,0.3-37.3-18.5-64.5-42.8c-26-23.3-47.9-42.7-49.1-46.3
		c-2.5-7.5,5.8-22.4,14.2-21.5c4.4,0.5,29.7,28.8,60.8,51.9c28.2,21.1,62.5,37.1,63.3,40C207.3,370.2,199,380.2,181,382.8z"/>
	
		<linearGradient id="XMLID_196_" gradientUnits="userSpaceOnUse" x1="255.7335" y1="393.1829" x2="-39.6915" y2="236.0583" gradientTransform="matrix(0.9996 2.920000e-002 -2.920000e-002 0.9996 18.9633 -1.7624)">
		<stop  offset="3.030300e-002" style="stop-color:#3D3D3F"/>
		<stop  offset="0.3333" style="stop-color:#1A171B"/>
		<stop  offset="0.4667" style="stop-color:#58585A"/>
		<stop  offset="0.7152" style="stop-color:#B0B2B3"/>
		<stop  offset="0.7879" style="stop-color:#3D3D3F"/>
		<stop  offset="1" style="stop-color:#868789"/>
	</linearGradient>
	<path id="XMLID_29_" class="st47" d="M197.5,376.4c-2,0.4-41.7-18.6-65.8-35.4c-24.3-16.9-40.9-36.1-42-39
		c-2.3-6.3,4.3-19.2,9.9-14.6c2.9,2.4,21.3,22.3,47.5,40.7c17.9,12.5,58,33.7,58.7,36.1C207.1,369.2,200.2,375.9,197.5,376.4z"/>
	<line id="XMLID_28_" class="st6" x1="243.1" y1="256.5" x2="242.8" y2="262.3"/>
	<polygon id="XMLID_27_" class="st8" points="273,256.7 246.4,262.7 243.7,275.3 244.8,283.8 290.9,274.6 292.4,267.2 	"/>
	
		<linearGradient id="XMLID_197_" gradientUnits="userSpaceOnUse" x1="238.7545" y1="250.2418" x2="282.9514" y2="250.2418" gradientTransform="matrix(1.0453 0.2449 6.430000e-002 1.2093 -22.593 -98.3216)">
		<stop  offset="3.030300e-002" style="stop-color:#BABBBD"/>
		<stop  offset="0.2667" style="stop-color:#FFFFFF"/>
		<stop  offset="0.4606" style="stop-color:#B0B2B3"/>
		<stop  offset="0.7152" style="stop-color:#FFFFFF"/>
		<stop  offset="1" style="stop-color:#D8D9DA"/>
	</linearGradient>
	<polygon id="XMLID_26_" class="st48" points="275.8,258 246.4,262.7 243.7,275.3 274.2,271.5 289,267.7 	"/>
	
		<linearGradient id="XMLID_198_" gradientUnits="userSpaceOnUse" x1="254.6523" y1="213.4903" x2="446.6367" y2="213.4903" gradientTransform="matrix(0.9813 3.200000e-002 -2.590000e-002 0.9991 18.5794 -1.6554)">
		<stop  offset="3.030300e-002" style="stop-color:#3D3D3F"/>
		<stop  offset="0.2732" style="stop-color:#58585A"/>
		<stop  offset="0.4433" style="stop-color:#58585A"/>
		<stop  offset="0.5979" style="stop-color:#B0B2B3"/>
		<stop  offset="0.7879" style="stop-color:#3D3D3F"/>
		<stop  offset="1" style="stop-color:#D8D9DA"/>
	</linearGradient>
	<path id="XMLID_25_" class="st49" d="M432.5,229.2c-4.8,36.2-32.8,46.2-76.6,53.2c-47.4,7.6-86-12.2-90.8-37.1
		c-0.8-4.3-5.6-34.5-4.9-41.1c2.2-22.4,46.5-23,79.4-28c35.4-5.4,74-23.2,90-6.3c1.6,1.7,2.6,7.2,3.2,14.2
		C434.1,200.4,433.1,225.1,432.5,229.2z"/>
	
		<linearGradient id="XMLID_199_" gradientUnits="userSpaceOnUse" x1="247.8247" y1="205.9429" x2="439.804" y2="205.9429" gradientTransform="matrix(0.9996 2.920000e-002 -2.920000e-002 0.9996 18.9633 -1.7624)">
		<stop  offset="3.030300e-002" style="stop-color:#3D3D3F"/>
		<stop  offset="0.2732" style="stop-color:#58585A"/>
		<stop  offset="0.4433" style="stop-color:#58585A"/>
		<stop  offset="0.5979" style="stop-color:#B0B2B3"/>
		<stop  offset="0.7879" style="stop-color:#3D3D3F"/>
		<stop  offset="1" style="stop-color:#D8D9DA"/>
	</linearGradient>
	<path id="XMLID_24_" class="st50" d="M433.4,220.8c-5,36.2-33.5,46.3-78.2,53.4c-48.3,7.7-87.5-12-92.4-36.9
		c-0.8-4.3-5.6-34.5-4.9-41.1c2.3-22.5,47.5-23.1,81-28.3c36.1-5.5,79.7-26.2,91.4-5.9c1.1,1.9,2.9,6.5,3.5,13.5
		C435.1,191.9,434,216.6,433.4,220.8z"/>
	
		<linearGradient id="XMLID_200_" gradientUnits="userSpaceOnUse" x1="242.0202" y1="169.4636" x2="417.2423" y2="169.4636" gradientTransform="matrix(1.0024 2.880000e-002 -2.980000e-002 0.9997 17.9783 -1.3218)">
		<stop  offset="3.030300e-002" style="stop-color:#BABBBD"/>
		<stop  offset="0.2667" style="stop-color:#FFFFFF"/>
		<stop  offset="0.4606" style="stop-color:#B0B2B3"/>
		<stop  offset="0.7152" style="stop-color:#FFFFFF"/>
		<stop  offset="1" style="stop-color:#D8D9DA"/>
	</linearGradient>
	<path id="XMLID_23_" class="st51" d="M431.1,164.2c4.5,29.3-31.2,59.1-79.6,66.6c-48.5,7.4-91.4-10.4-95.9-39.7
		c-4.5-29.3,31.2-59.1,79.6-66.6C383.7,117,426.6,134.8,431.1,164.2z"/>
	
		<linearGradient id="XMLID_201_" gradientUnits="userSpaceOnUse" x1="277.899" y1="166.4607" x2="383.0117" y2="166.4607" gradientTransform="matrix(0.9996 2.920000e-002 -2.920000e-002 0.9996 18.9633 -1.7624)">
		<stop  offset="3.030300e-002" style="stop-color:#1A171B"/>
		<stop  offset="0.2727" style="stop-color:#3D3D3F"/>
		<stop  offset="0.4364" style="stop-color:#58585A"/>
		<stop  offset="0.5515" style="stop-color:#3D3D3F"/>
		<stop  offset="0.7636" style="stop-color:#58585A"/>
		<stop  offset="1" style="stop-color:#1A171B"/>
	</linearGradient>
	<path id="XMLID_20_" class="st52" d="M397,167c2.4,17-19.2,34.1-48.2,38.1c-29,4-54.5-6.5-56.8-23.5c-2.4-17,19.2-34.1,48.2-38.1
		C369.2,139.4,394.6,150,397,167z"/>
</g>
</svg>
