<?xml version="1.0" encoding="utf-8"?>
<!-- Generator: Adobe Illustrator 19.0.0, SVG Export Plug-In . SVG Version: 6.00 Build 0)  -->
<svg version="1.1" id="Camada_1" xmlns="http://www.w3.org/2000/svg" xmlns:xlink="http://www.w3.org/1999/xlink" x="0px" y="0px"
	 viewBox="0 0 500 500" style="enable-background:new 0 0 500 500;" xml:space="preserve">
<style type="text/css">
	.st0{fill:#1D1D1B;stroke:#1D1D1B;stroke-width:5.4205;stroke-linejoin:round;stroke-miterlimit:10;}
	.st1{fill:#D9D9D9;stroke:#1D1D1B;stroke-width:1.8068;stroke-linejoin:round;stroke-miterlimit:10;}
	.st2{fill:#FFFFFF;stroke:#1D1D1B;stroke-width:1.8068;stroke-linejoin:round;stroke-miterlimit:10;}
</style>
<g id="XMLID_32_">
	<path id="XMLID_27_" class="st0" d="M378.8,154.7c-42,0-78,22.6-93.7,55c-0.2,0-0.6,0.3-1,1c0,0,0,0,0,0
		c-7.2,11.9-22.7,12.5-25.5,18.6c-2.4,5.2-1.3,21.2,1.1,22.7c3,2.2,10.4,1.9,17,1.1c6.2-0.7,11.9-1.9,11.9-1.9s-0.2-1.1-0.2-3.2h0
		c0-0.6-0.1-1.2-0.1-1.8c0,0,0,0,0,0c0-40.4,36.5-73.1,81.6-73.1c45.1,0,81.6,32.7,81.6,73.1c0,40.4-36.5,73.1-81.6,73.1
		c-37.7,0-69.4-22.9-78.8-54.1l-1.9-7c0,0-5.5,1.1-11.6,2.3c-7,1.4-14.8,3.2-15.9,5c-1,7.9,1.8,22.1,7.6,25.4
		c5.2,2.9,17.1,2.5,24.9,6.7c0,0,0,0,0,0c18.4,24.2,49.4,40,84.5,40c56.4,0,102.2-40.9,102.2-91.4
		C480.9,195.6,435.2,154.7,378.8,154.7z"/>
	<path id="XMLID_26_" class="st1" d="M378.8,154.7c-42,0-78,22.6-93.7,55c-0.2,0-0.6,0.3-1,1c0,0,0,0,0,0
		c-7.2,11.9-22.7,12.5-25.5,18.6c-2.4,5.2-1.3,21.2,1.1,22.7c3,2.2,10.4,1.9,17,1.1c6.2-0.7,11.9-1.9,11.9-1.9s-0.2-1.1-0.2-3.2h0
		c0-0.6-0.1-1.2-0.1-1.8c0,0,0,0,0,0c0-40.4,36.5-73.1,81.6-73.1c45.1,0,81.6,32.7,81.6,73.1c0,40.4-36.5,73.1-81.6,73.1
		c-37.7,0-69.4-22.9-78.8-54.1l-1.9-7c0,0-5.5,1.1-11.6,2.3c-7,1.4-14.8,3.2-15.9,5c-1,7.9,1.8,22.1,7.6,25.4
		c5.2,2.9,17.1,2.5,24.9,6.7c0,0,0,0,0,0c18.4,24.2,49.4,40,84.5,40c56.4,0,102.2-40.9,102.2-91.4
		C480.9,195.6,435.2,154.7,378.8,154.7z"/>
	<circle id="XMLID_25_" class="st2" cx="277.1" cy="277.7" r="8.1"/>
	<circle id="XMLID_24_" class="st2" cx="270.9" cy="236.2" r="8.1"/>
</g>
<g id="XMLID_29_">
	<path id="XMLID_23_" class="st0" d="M180.5,160.1L180.5,160.1L180.5,160.1L169,184.4l-7.3,15.3v37.4l29.6,5.5
		c-2,27.1-18.9,50.1-42.5,60.9l-5.1-17.7H94.4l-6.1,17.8c-23.7-10.8-40.6-33.8-42.7-61l29.5-5.5v-37.4l-7.2-15.2l0-0.1l-11.5-24.2
		l0-0.1l0,0l0,0l0,0.1c-22.4,18.1-36.7,45.8-36.7,76.8c0,54.6,44.3,98.9,98.9,98.9c54.6,0,98.9-44.3,98.9-98.9
		C217.3,206,203,178.3,180.5,160.1z"/>
	<path id="XMLID_20_" class="st1" d="M180.5,160.1L180.5,160.1L180.5,160.1L169,184.4l-7.3,15.3v37.4l29.6,5.5
		c-2,27.1-18.9,50.1-42.5,60.9l-5.1-17.7H94.4l-6.1,17.8c-23.7-10.8-40.6-33.8-42.7-61l29.5-5.5v-37.4l-7.2-15.2l0-0.1l-11.5-24.2
		l0-0.1l0,0l0,0l0,0.1c-22.4,18.1-36.7,45.8-36.7,76.8c0,54.6,44.3,98.9,98.9,98.9c54.6,0,98.9-44.3,98.9-98.9
		C217.3,206,203,178.3,180.5,160.1z"/>
</g>
</svg>
