<?xml version="1.0" encoding="utf-8"?>
<!-- Generator: Adobe Illustrator 19.0.0, SVG Export Plug-In . SVG Version: 6.00 Build 0)  -->
<svg version="1.1" id="Camada_1" xmlns="http://www.w3.org/2000/svg" xmlns:xlink="http://www.w3.org/1999/xlink" x="0px" y="0px"
	 viewBox="0 0 500 500" style="enable-background:new 0 0 500 500;" xml:space="preserve">
<style type="text/css">
	.st0{fill:#1A171B;stroke:#1A171B;stroke-width:2.9172;stroke-miterlimit:10;}
	.st1{fill:#1A171B;stroke:#1A171B;stroke-width:2.9172;stroke-linejoin:round;stroke-miterlimit:10;}
	.st2{fill:#58585A;stroke:#1A171B;stroke-width:0.1823;stroke-miterlimit:10;}
	.st3{fill:#6F7072;stroke:#1A171B;stroke-width:0.1823;stroke-miterlimit:10;}
	.st4{fill:none;stroke:#E1001A;stroke-width:0.1823;stroke-linejoin:round;stroke-miterlimit:10;}
	.st5{fill:#9B9C9E;stroke:#1A171B;stroke-width:0.1823;stroke-miterlimit:10;}
</style>
<ellipse id="XMLID_695_" class="st0" cx="70.1" cy="292" rx="16.7" ry="9.2"/>
<path id="XMLID_694_" class="st0" d="M159.8,293.2c0,3.3-3,6.1-6.8,6.1h-39.1c-3.7,0-6.8-2.7-6.8-6.1l0,0c0-3.3,3-6.1,6.8-6.1H153
	C156.7,287.1,159.8,289.8,159.8,293.2L159.8,293.2z"/>
<path id="XMLID_693_" class="st0" d="M159.8,290.5c0,3.3-3,6.1-6.8,6.1h-39.1c-3.7,0-6.8-2.7-6.8-6.1l0,0c0-3.3,3-6.1,6.8-6.1H153
	C156.7,284.4,159.8,287.1,159.8,290.5L159.8,290.5z"/>
<path id="XMLID_692_" class="st0" d="M236.7,293.2c0,3.3-3,6.1-6.8,6.1h-39.1c-3.7,0-6.8-2.7-6.8-6.1l0,0c0-3.3,3-6.1,6.8-6.1h39.1
	C233.6,287.1,236.7,289.8,236.7,293.2L236.7,293.2z"/>
<path id="XMLID_691_" class="st0" d="M236.7,290.5c0,3.3-3,6.1-6.8,6.1h-39.1c-3.7,0-6.8-2.7-6.8-6.1l0,0c0-3.3,3-6.1,6.8-6.1h39.1
	C233.6,284.4,236.7,287.1,236.7,290.5L236.7,290.5z"/>
<path id="XMLID_690_" class="st0" d="M314.8,293.8c0,3.3-3,6.1-6.8,6.1h-39.1c-3.7,0-6.8-2.7-6.8-6.1l0,0c0-3.3,3-6.1,6.8-6.1H308
	C311.8,287.7,314.8,290.5,314.8,293.8L314.8,293.8z"/>
<path id="XMLID_689_" class="st0" d="M314.8,291.1c0,3.3-3,6.1-6.8,6.1h-39.1c-3.7,0-6.8-2.7-6.8-6.1l0,0c0-3.3,3-6.1,6.8-6.1H308
	C311.8,285.1,314.8,287.8,314.8,291.1L314.8,291.1z"/>
<path id="XMLID_688_" class="st0" d="M396.2,293.8c0,3.3-3,6.1-6.8,6.1h-39.1c-3.7,0-6.8-2.7-6.8-6.1l0,0c0-3.3,3-6.1,6.8-6.1h39.1
	C393.1,287.7,396.2,290.5,396.2,293.8L396.2,293.8z"/>
<path id="XMLID_687_" class="st0" d="M396.2,291.1c0,3.3-3,6.1-6.8,6.1h-39.1c-3.7,0-6.8-2.7-6.8-6.1l0,0c0-3.3,3-6.1,6.8-6.1h39.1
	C393.1,285.1,396.2,287.8,396.2,291.1L396.2,291.1z"/>
<path id="XMLID_686_" class="st1" d="M440.8,241.4"/>
<path id="XMLID_685_" class="st1" d="M440.8,308.2"/>
<ellipse id="XMLID_684_" class="st0" cx="109.6" cy="291.4" rx="16.7" ry="9.2"/>
<path id="XMLID_683_" class="st0" d="M127,288c0,3.7-2,6.6-4.5,6.6H56.3c-2.5,0-4.5-3-4.5-6.6l0,0c0-3.7,2-6.6,4.5-6.6h66.2
	C125,281.4,127,284.4,127,288L127,288z"/>
<path id="XMLID_682_" class="st0" d="M127,286.7c0,2.9-2,5.3-4.5,5.3H56.3c-2.5,0-4.5-2.4-4.5-5.3l0,0c0-2.9,2-5.3,4.5-5.3h66.2
	C125,281.4,127,283.8,127,286.7L127,286.7z"/>
<path id="XMLID_681_" class="st0" d="M97.3,262.5v24.9c0,1.9,5.2,3.5,11.5,3.5s11.5-1.6,11.5-3.5v-24.9H97.3z"/>
<path id="XMLID_680_" class="st0" d="M59.4,262.5v24.9c0,1.9,5.2,3.5,11.5,3.5c6.4,0,11.5-1.6,11.5-3.5v-24.9H59.4z"/>
<path id="XMLID_679_" class="st0" d="M126.3,259.7c0,3.1-1.8,5.6-4,5.6H52.8c-2.2,0-4-2.5-4-5.6l0,0c0-3.1,1.8-5.6,4-5.6h69.5
	C124.5,254.1,126.3,256.6,126.3,259.7L126.3,259.7z"/>
<path id="XMLID_678_" class="st0" d="M126.3,258.3c0,2.3-1.8,4.2-4,4.2H52.8c-2.2,0-4-1.9-4-4.2l0,0c0-2.3,1.8-4.2,4-4.2h69.5
	C124.5,254.1,126.3,256,126.3,258.3L126.3,258.3z"/>
<path id="XMLID_677_" class="st0" d="M86.8,254.6c0,2.8-2.3,5.1-5.1,5.1H18.3c-2.8,0-5.1-2.3-5.1-5.1l0,0c0-2.8,2.3-5.1,5.1-5.1
	h63.4C84.6,249.6,86.8,251.8,86.8,254.6L86.8,254.6z"/>
<path id="XMLID_676_" class="st0" d="M84.9,252.1c0,1.4-2.2,2.5-4.9,2.5H19.1c-2.7,0-4.9-1.1-4.9-2.5l0,0c0-1.4,2.2-2.5,4.9-2.5
	h60.9C82.8,249.6,84.9,250.7,84.9,252.1L84.9,252.1z"/>
<g id="XMLID_1410_">
	<path id="XMLID_675_" class="st0" d="M64.9,249.5v2.1c0,0.3,2.9,0.6,6.4,0.6s6.4-0.3,6.4-0.6v-2.1H64.9z"/>
	<ellipse id="XMLID_674_" class="st0" cx="71.3" cy="249.4" rx="6.4" ry="1.4"/>
</g>
<ellipse id="XMLID_673_" class="st0" cx="149.7" cy="290.5" rx="16.7" ry="9.2"/>
<ellipse id="XMLID_672_" class="st0" cx="189.9" cy="290.5" rx="16.7" ry="9.2"/>
<path id="XMLID_671_" class="st0" d="M207.3,288c0,3.7-2,6.6-4.5,6.6h-66.2c-2.5,0-4.5-3-4.5-6.6l0,0c0-3.7,2-6.6,4.5-6.6h66.2
	C205.3,281.4,207.3,284.4,207.3,288L207.3,288z"/>
<path id="XMLID_670_" class="st0" d="M207.3,286.7c0,2.9-2,5.3-4.5,5.3h-66.2c-2.5,0-4.5-2.4-4.5-5.3l0,0c0-2.9,2-5.3,4.5-5.3h66.2
	C205.3,281.4,207.3,283.8,207.3,286.7L207.3,286.7z"/>
<path id="XMLID_669_" class="st0" d="M136.7,262.5v24.9c0,1.9,5.2,3.5,11.5,3.5c6.4,0,11.5-1.6,11.5-3.5v-24.9H136.7z"/>
<path id="XMLID_668_" class="st0" d="M176.4,262.5v24.9c0,1.9,5.2,3.5,11.5,3.5c6.4,0,11.5-1.6,11.5-3.5v-24.9H176.4z"/>
<path id="XMLID_667_" class="st0" d="M207.3,259.7c0,3.1-1.8,5.6-4,5.6h-69.5c-2.2,0-4-2.5-4-5.6l0,0c0-3.1,1.8-5.6,4-5.6h69.5
	C205.5,254.1,207.3,256.6,207.3,259.7L207.3,259.7z"/>
<path id="XMLID_666_" class="st0" d="M207.3,258.3c0,2.3-1.8,4.2-4,4.2h-69.5c-2.2,0-4-1.9-4-4.2l0,0c0-2.3,1.8-4.2,4-4.2h69.5
	C205.5,254.1,207.3,256,207.3,258.3L207.3,258.3z"/>
<path id="XMLID_665_" class="st0" d="M164.9,254.6c0,2.8-2.3,5.1-5.1,5.1H96.4c-2.8,0-5.1-2.3-5.1-5.1l0,0c0-2.8,2.3-5.1,5.1-5.1
	h63.4C162.3,249.6,164.9,251.8,164.9,254.6L164.9,254.6z"/>
<path id="XMLID_664_" class="st0" d="M158.1,254.6H97.2c-2.7,0-4.9-1.1-4.9-2.5l0,0c0-1.4,2.2-2.5,4.9-2.5h60.9
	c2.7,0,5.3,0.8,4.9,2.5C163,252.1,163.1,254.9,158.1,254.6z"/>
<g id="XMLID_1397_">
	<path id="XMLID_663_" class="st0" d="M100.7,249.9v2.1c0,0.3,2.9,0.6,6.4,0.6s6.4-0.3,6.4-0.6v-2.1H100.7z"/>
	<ellipse id="XMLID_662_" class="st0" cx="107.1" cy="249.8" rx="6.4" ry="1.4"/>
</g>
<g id="XMLID_1394_">
	<path id="XMLID_661_" class="st0" d="M143.3,249.5v2.1c0,0.3,2.9,0.6,6.4,0.6c3.5,0,6.4-0.3,6.4-0.6v-2.1H143.3z"/>
	<ellipse id="XMLID_660_" class="st0" cx="149.7" cy="249.4" rx="6.4" ry="1.4"/>
</g>
<ellipse id="XMLID_659_" class="st0" cx="229.1" cy="291.4" rx="16.7" ry="9.2"/>
<ellipse id="XMLID_658_" class="st0" cx="268.6" cy="291.4" rx="16.7" ry="9.2"/>
<path id="XMLID_657_" class="st0" d="M286.7,288c0,3.7-2,6.6-4.5,6.6H216c-2.5,0-4.5-3-4.5-6.6l0,0c0-3.7,2-6.6,4.5-6.6h66.2
	C284.7,281.4,286.7,284.4,286.7,288L286.7,288z"/>
<path id="XMLID_656_" class="st0" d="M286.7,286.7c0,2.9-2,5.3-4.5,5.3H216c-2.5,0-4.5-2.4-4.5-5.3l0,0c0-2.9,2-5.3,4.5-5.3h66.2
	C284.7,281.4,286.7,283.8,286.7,286.7L286.7,286.7z"/>
<path id="XMLID_655_" class="st0" d="M217.6,262.5v24.9c0,1.9,5.2,3.5,11.5,3.5c6.4,0,11.5-1.6,11.5-3.5v-24.9H217.6z"/>
<path id="XMLID_654_" class="st0" d="M257.5,262.5v24.9c0,1.9,5.2,3.5,11.5,3.5s11.5-1.6,11.5-3.5v-24.9H257.5z"/>
<path id="XMLID_653_" class="st0" d="M287.9,259.7c0,3.1-1.8,5.6-4,5.6h-69.5c-2.2,0-4-2.5-4-5.6l0,0c0-3.1,1.8-5.6,4-5.6h69.5
	C286.1,254.1,287.9,256.6,287.9,259.7L287.9,259.7z"/>
<path id="XMLID_652_" class="st0" d="M287.9,258.3c0,2.3-1.8,4.2-4,4.2h-69.5c-2.2,0-4-1.9-4-4.2l0,0c0-2.3,1.8-4.2,4-4.2h69.5
	C286.1,254.1,287.9,256,287.9,258.3L287.9,258.3z"/>
<path id="XMLID_651_" class="st0" d="M245.7,254.6c0,2.8-2.3,5.1-5.1,5.1h-63.4c-2.8,0-5.1-2.3-5.1-5.1l0,0c0-2.8,2.3-5.1,5.1-5.1
	h63.4C243.5,249.6,245.7,251.8,245.7,254.6L245.7,254.6z"/>
<path id="XMLID_650_" class="st0" d="M243.8,252.1c0,1.4-2.2,2.5-4.9,2.5H178c-2.7,0-4.9-1.1-4.9-2.5l0,0c0-1.4,2.2-2.5,4.9-2.5H239
	C241.7,249.6,243.8,250.7,243.8,252.1L243.8,252.1z"/>
<g id="XMLID_1381_">
	<path id="XMLID_649_" class="st0" d="M181.8,249.7v2.1c0,0.3,2.9,0.6,6.4,0.6c3.5,0,6.4-0.3,6.4-0.6v-2.1H181.8z"/>
	<ellipse id="XMLID_648_" class="st0" cx="188.2" cy="249.6" rx="6.4" ry="1.4"/>
</g>
<g id="XMLID_1378_">
	<path id="XMLID_647_" class="st0" d="M224.4,249.3v2.1c0,0.3,2.9,0.6,6.4,0.6s6.4-0.3,6.4-0.6v-2.1H224.4z"/>
	<ellipse id="XMLID_646_" class="st0" cx="230.8" cy="249.2" rx="6.4" ry="1.4"/>
</g>
<ellipse id="XMLID_645_" class="st0" cx="308.8" cy="291.8" rx="16.7" ry="9.2"/>
<ellipse id="XMLID_644_" class="st0" cx="347.9" cy="291.4" rx="16.7" ry="9.2"/>
<path id="XMLID_643_" class="st0" d="M365.6,288c0,3.7-2,6.6-4.5,6.6h-66.2c-2.5,0-4.5-3-4.5-6.6l0,0c0-3.7,2-6.6,4.5-6.6h66.2
	C363.6,281.4,365.6,284.4,365.6,288L365.6,288z"/>
<path id="XMLID_642_" class="st0" d="M365.6,286.7c0,2.9-2,5.3-4.5,5.3h-66.2c-2.5,0-4.5-2.4-4.5-5.3l0,0c0-2.9,2-5.3,4.5-5.3h66.2
	C363.6,281.4,365.6,283.8,365.6,286.7L365.6,286.7z"/>
<path id="XMLID_641_" class="st0" d="M297.7,262.5v24.9c0,1.9,5.2,3.5,11.5,3.5s11.5-1.6,11.5-3.5v-24.9H297.7z"/>
<path id="XMLID_640_" class="st0" d="M337,262.5v24.9c0,1.9,5.2,3.5,11.5,3.5c6.4,0,11.5-1.6,11.5-3.5v-24.9H337z"/>
<path id="XMLID_639_" class="st0" d="M369,259.7c0,3.1-1.8,5.6-4,5.6h-69.5c-2.2,0-4-2.5-4-5.6l0,0c0-3.1,1.8-5.6,4-5.6H365
	C367.2,254.1,369,256.6,369,259.7L369,259.7z"/>
<path id="XMLID_638_" class="st0" d="M369,258.3c0,2.3-1.8,4.2-4,4.2h-69.5c-2.2,0-4-1.9-4-4.2l0,0c0-2.3,1.8-4.2,4-4.2H365
	C367.2,254.1,369,256,369,258.3L369,258.3z"/>
<path id="XMLID_637_" class="st0" d="M328,255.2c0,2.8-2.3,5.1-5.1,5.1h-63.4c-2.8,0-5.1-2.3-5.1-5.1l0,0c0-2.8,2.3-5.1,5.1-5.1
	h63.4C325.7,250.1,328,252.4,328,255.2L328,255.2z"/>
<path id="XMLID_636_" class="st0" d="M326.1,252.6c0,1.4-2.2,2.5-4.9,2.5h-60.9c-2.7,0-4.9-1.1-4.9-2.5l0,0c0-1.4,2.2-2.5,4.9-2.5
	h60.9C323.9,250.1,326.1,251.2,326.1,252.6L326.1,252.6z"/>
<g id="XMLID_1365_">
	<path id="XMLID_635_" class="st0" d="M263.7,249.5v2.1c0,0.3,2.9,0.6,6.4,0.6c3.5,0,6.4-0.3,6.4-0.6v-2.1H263.7z"/>
	<ellipse id="XMLID_634_" class="st0" cx="270.1" cy="249.4" rx="6.4" ry="1.4"/>
</g>
<g id="XMLID_1362_">
	<path id="XMLID_633_" class="st0" d="M304.8,249.5v2.1c0,0.3,2.9,0.6,6.4,0.6c3.5,0,6.4-0.3,6.4-0.6v-2.1H304.8z"/>
	<ellipse id="XMLID_632_" class="st0" cx="311.2" cy="249.4" rx="6.4" ry="1.4"/>
</g>
<ellipse id="XMLID_631_" class="st0" cx="385.5" cy="291.4" rx="16.7" ry="9.2"/>
<ellipse id="XMLID_630_" class="st0" cx="425.7" cy="291.4" rx="16.7" ry="9.2"/>
<path id="XMLID_629_" class="st0" d="M443.6,288c0,3.7-2,6.6-4.5,6.6h-66.2c-2.5,0-4.5-3-4.5-6.6l0,0c0-3.7,2-6.6,4.5-6.6h66.2
	C441.6,281.4,443.6,284.4,443.6,288L443.6,288z"/>
<path id="XMLID_628_" class="st0" d="M443.6,286.7c0,2.9-2,5.3-4.5,5.3h-66.2c-2.5,0-4.5-2.4-4.5-5.3l0,0c0-2.9,2-5.3,4.5-5.3h66.2
	C441.6,281.4,443.6,283.8,443.6,286.7L443.6,286.7z"/>
<path id="XMLID_627_" class="st0" d="M375.7,262.5v24.9c0,1.9,5.2,3.5,11.5,3.5c6.4,0,11.5-1.6,11.5-3.5v-24.9H375.7z"/>
<path id="XMLID_626_" class="st0" d="M413.1,262.5v24.9c0,1.9,5.2,3.5,11.5,3.5c6.4,0,11.5-1.6,11.5-3.5v-24.9H413.1z"/>
<path id="XMLID_625_" class="st0" d="M448,260.2c0,3.1-1.8,5.6-4,5.6h-69.5c-2.2,0-4-2.5-4-5.6l0,0c0-3.1,1.8-5.6,4-5.6H444
	C446.2,254.6,448,257.1,448,260.2L448,260.2z"/>
<path id="XMLID_624_" class="st0" d="M448,258.9c0,2.3-1.8,4.2-4,4.2h-69.5c-2.2,0-4-1.9-4-4.2l0,0c0-2.3,1.8-4.2,4-4.2H444
	C446.2,254.6,448,256.5,448,258.9L448,258.9z"/>
<path id="XMLID_623_" class="st0" d="M483.5,255.2c0,2.8-2.3,5.1-5.1,5.1H415c-2.8,0-5.1-2.3-5.1-5.1l0,0c0-2.8,2.3-5.1,5.1-5.1
	h63.4C481.2,250.1,483.5,252.4,483.5,255.2L483.5,255.2z"/>
<path id="XMLID_622_" class="st0" d="M481.6,252.6c0,1.4-2.2,2.5-4.9,2.5h-60.9c-2.7,0-4.9-1.1-4.9-2.5l0,0c0-1.4,2.2-2.5,4.9-2.5
	h60.9C479.4,250.1,481.6,251.2,481.6,252.6L481.6,252.6z"/>
<path id="XMLID_621_" class="st0" d="M406,255c0,2.8-2.3,5.1-5.1,5.1h-63.4c-2.8,0-5.1-2.3-5.1-5.1l0,0c0-2.8,2.3-5.1,5.1-5.1H401
	C403.8,249.9,406,252.2,406,255L406,255z"/>
<path id="XMLID_620_" class="st0" d="M404.1,252.5c0,1.4-2.2,2.5-4.9,2.5h-60.9c-2.7,0-4.9-1.1-4.9-2.5l0,0c0-1.4,2.2-2.5,4.9-2.5
	h60.9C402,249.9,404.1,251.1,404.1,252.5L404.1,252.5z"/>
<g id="XMLID_1347_">
	<path id="XMLID_619_" class="st0" d="M342.3,250.3v2.1c0,0.3,2.9,0.6,6.4,0.6c3.5,0,6.4-0.3,6.4-0.6v-2.1H342.3z"/>
	<ellipse id="XMLID_618_" class="st0" cx="348.7" cy="250.2" rx="6.4" ry="1.4"/>
</g>
<g id="XMLID_1344_">
	<path id="XMLID_617_" class="st0" d="M383.4,250.3v2.1c0,0.3,2.9,0.6,6.4,0.6c3.5,0,6.4-0.3,6.4-0.6v-2.1H383.4z"/>
	<ellipse id="XMLID_616_" class="st0" cx="389.8" cy="250.2" rx="6.4" ry="1.4"/>
</g>
<g id="XMLID_1341_">
	<path id="XMLID_615_" class="st0" d="M415.8,250.3v2.1c0,0.3,2.9,0.6,6.4,0.6c3.5,0,6.4-0.3,6.4-0.6v-2.1H415.8z"/>
	<ellipse id="XMLID_614_" class="st0" cx="422.2" cy="250.2" rx="6.4" ry="1.4"/>
</g>
<ellipse id="XMLID_613_" class="st0" cx="70.1" cy="292" rx="16.7" ry="9.2"/>
<path id="XMLID_612_" class="st0" d="M159.8,293.2c0,3.3-3,6.1-6.8,6.1h-39.1c-3.7,0-6.8-2.7-6.8-6.1l0,0c0-3.3,3-6.1,6.8-6.1H153
	C156.7,287.1,159.8,289.8,159.8,293.2L159.8,293.2z"/>
<path id="XMLID_611_" class="st0" d="M159.8,290.5c0,3.3-3,6.1-6.8,6.1h-39.1c-3.7,0-6.8-2.7-6.8-6.1l0,0c0-3.3,3-6.1,6.8-6.1H153
	C156.7,284.4,159.8,287.1,159.8,290.5L159.8,290.5z"/>
<path id="XMLID_610_" class="st0" d="M236.7,293.2c0,3.3-3,6.1-6.8,6.1h-39.1c-3.7,0-6.8-2.7-6.8-6.1l0,0c0-3.3,3-6.1,6.8-6.1h39.1
	C233.6,287.1,236.7,289.8,236.7,293.2L236.7,293.2z"/>
<path id="XMLID_609_" class="st0" d="M236.7,290.5c0,3.3-3,6.1-6.8,6.1h-39.1c-3.7,0-6.8-2.7-6.8-6.1l0,0c0-3.3,3-6.1,6.8-6.1h39.1
	C233.6,284.4,236.7,287.1,236.7,290.5L236.7,290.5z"/>
<path id="XMLID_608_" class="st0" d="M314.8,293.8c0,3.3-3,6.1-6.8,6.1h-39.1c-3.7,0-6.8-2.7-6.8-6.1l0,0c0-3.3,3-6.1,6.8-6.1H308
	C311.8,287.7,314.8,290.5,314.8,293.8L314.8,293.8z"/>
<path id="XMLID_607_" class="st0" d="M314.8,291.1c0,3.3-3,6.1-6.8,6.1h-39.1c-3.7,0-6.8-2.7-6.8-6.1l0,0c0-3.3,3-6.1,6.8-6.1H308
	C311.8,285.1,314.8,287.8,314.8,291.1L314.8,291.1z"/>
<path id="XMLID_606_" class="st0" d="M396.2,293.8c0,3.3-3,6.1-6.8,6.1h-39.1c-3.7,0-6.8-2.7-6.8-6.1l0,0c0-3.3,3-6.1,6.8-6.1h39.1
	C393.1,287.7,396.2,290.5,396.2,293.8L396.2,293.8z"/>
<path id="XMLID_605_" class="st0" d="M396.2,291.1c0,3.3-3,6.1-6.8,6.1h-39.1c-3.7,0-6.8-2.7-6.8-6.1l0,0c0-3.3,3-6.1,6.8-6.1h39.1
	C393.1,285.1,396.2,287.8,396.2,291.1L396.2,291.1z"/>
<path id="XMLID_604_" class="st1" d="M440.8,241.4"/>
<path id="XMLID_603_" class="st1" d="M440.8,308.2"/>
<ellipse id="XMLID_602_" class="st0" cx="109.6" cy="291.4" rx="16.7" ry="9.2"/>
<path id="XMLID_601_" class="st0" d="M127,288c0,3.7-2,6.6-4.5,6.6H56.3c-2.5,0-4.5-3-4.5-6.6l0,0c0-3.7,2-6.6,4.5-6.6h66.2
	C125,281.4,127,284.4,127,288L127,288z"/>
<path id="XMLID_600_" class="st0" d="M127,286.7c0,2.9-2,5.3-4.5,5.3H56.3c-2.5,0-4.5-2.4-4.5-5.3l0,0c0-2.9,2-5.3,4.5-5.3h66.2
	C125,281.4,127,283.8,127,286.7L127,286.7z"/>
<path id="XMLID_599_" class="st0" d="M97.3,262.5v24.9c0,1.9,5.2,3.5,11.5,3.5s11.5-1.6,11.5-3.5v-24.9H97.3z"/>
<path id="XMLID_598_" class="st0" d="M59.4,262.5v24.9c0,1.9,5.2,3.5,11.5,3.5c6.4,0,11.5-1.6,11.5-3.5v-24.9H59.4z"/>
<path id="XMLID_597_" class="st0" d="M126.3,259.7c0,3.1-1.8,5.6-4,5.6H52.8c-2.2,0-4-2.5-4-5.6l0,0c0-3.1,1.8-5.6,4-5.6h69.5
	C124.5,254.1,126.3,256.6,126.3,259.7L126.3,259.7z"/>
<path id="XMLID_596_" class="st0" d="M126.3,258.3c0,2.3-1.8,4.2-4,4.2H52.8c-2.2,0-4-1.9-4-4.2l0,0c0-2.3,1.8-4.2,4-4.2h69.5
	C124.5,254.1,126.3,256,126.3,258.3L126.3,258.3z"/>
<path id="XMLID_595_" class="st0" d="M86.8,254.6c0,2.8-2.3,5.1-5.1,5.1H18.3c-2.8,0-5.1-2.3-5.1-5.1l0,0c0-2.8,2.3-5.1,5.1-5.1
	h63.4C84.6,249.6,86.8,251.8,86.8,254.6L86.8,254.6z"/>
<path id="XMLID_594_" class="st0" d="M84.9,252.1c0,1.4-2.2,2.5-4.9,2.5H19.1c-2.7,0-4.9-1.1-4.9-2.5l0,0c0-1.4,2.2-2.5,4.9-2.5
	h60.9C82.8,249.6,84.9,250.7,84.9,252.1L84.9,252.1z"/>
<g id="XMLID_1318_">
	<path id="XMLID_593_" class="st0" d="M64.9,249.5v2.1c0,0.3,2.9,0.6,6.4,0.6s6.4-0.3,6.4-0.6v-2.1H64.9z"/>
	<ellipse id="XMLID_592_" class="st0" cx="71.3" cy="249.4" rx="6.4" ry="1.4"/>
</g>
<ellipse id="XMLID_591_" class="st0" cx="149.7" cy="290.5" rx="16.7" ry="9.2"/>
<ellipse id="XMLID_590_" class="st0" cx="189.9" cy="290.5" rx="16.7" ry="9.2"/>
<path id="XMLID_589_" class="st0" d="M207.3,288c0,3.7-2,6.6-4.5,6.6h-66.2c-2.5,0-4.5-3-4.5-6.6l0,0c0-3.7,2-6.6,4.5-6.6h66.2
	C205.3,281.4,207.3,284.4,207.3,288L207.3,288z"/>
<path id="XMLID_588_" class="st0" d="M207.3,286.7c0,2.9-2,5.3-4.5,5.3h-66.2c-2.5,0-4.5-2.4-4.5-5.3l0,0c0-2.9,2-5.3,4.5-5.3h66.2
	C205.3,281.4,207.3,283.8,207.3,286.7L207.3,286.7z"/>
<path id="XMLID_587_" class="st0" d="M136.7,262.5v24.9c0,1.9,5.2,3.5,11.5,3.5c6.4,0,11.5-1.6,11.5-3.5v-24.9H136.7z"/>
<path id="XMLID_586_" class="st0" d="M176.4,262.5v24.9c0,1.9,5.2,3.5,11.5,3.5c6.4,0,11.5-1.6,11.5-3.5v-24.9H176.4z"/>
<path id="XMLID_585_" class="st0" d="M207.3,259.7c0,3.1-1.8,5.6-4,5.6h-69.5c-2.2,0-4-2.5-4-5.6l0,0c0-3.1,1.8-5.6,4-5.6h69.5
	C205.5,254.1,207.3,256.6,207.3,259.7L207.3,259.7z"/>
<path id="XMLID_584_" class="st0" d="M207.3,258.3c0,2.3-1.8,4.2-4,4.2h-69.5c-2.2,0-4-1.9-4-4.2l0,0c0-2.3,1.8-4.2,4-4.2h69.5
	C205.5,254.1,207.3,256,207.3,258.3L207.3,258.3z"/>
<path id="XMLID_583_" class="st0" d="M164.9,254.6c0,2.8-2.3,5.1-5.1,5.1H96.4c-2.8,0-5.1-2.3-5.1-5.1l0,0c0-2.8,2.3-5.1,5.1-5.1
	h63.4C162.3,249.6,164.9,251.8,164.9,254.6L164.9,254.6z"/>
<path id="XMLID_582_" class="st0" d="M158.1,254.6H97.2c-2.7,0-4.9-1.1-4.9-2.5l0,0c0-1.4,2.2-2.5,4.9-2.5h60.9
	c2.7,0,5.3,0.8,4.9,2.5C163,252.1,163.1,254.9,158.1,254.6z"/>
<g id="XMLID_1305_">
	<path id="XMLID_581_" class="st0" d="M100.7,249.9v2.1c0,0.3,2.9,0.6,6.4,0.6s6.4-0.3,6.4-0.6v-2.1H100.7z"/>
	<ellipse id="XMLID_580_" class="st0" cx="107.1" cy="249.8" rx="6.4" ry="1.4"/>
</g>
<g id="XMLID_1302_">
	<path id="XMLID_579_" class="st0" d="M143.3,249.5v2.1c0,0.3,2.9,0.6,6.4,0.6c3.5,0,6.4-0.3,6.4-0.6v-2.1H143.3z"/>
	<ellipse id="XMLID_578_" class="st0" cx="149.7" cy="249.4" rx="6.4" ry="1.4"/>
</g>
<ellipse id="XMLID_577_" class="st0" cx="229.1" cy="291.4" rx="16.7" ry="9.2"/>
<ellipse id="XMLID_576_" class="st0" cx="268.6" cy="291.4" rx="16.7" ry="9.2"/>
<path id="XMLID_575_" class="st0" d="M286.7,288c0,3.7-2,6.6-4.5,6.6H216c-2.5,0-4.5-3-4.5-6.6l0,0c0-3.7,2-6.6,4.5-6.6h66.2
	C284.7,281.4,286.7,284.4,286.7,288L286.7,288z"/>
<path id="XMLID_574_" class="st0" d="M286.7,286.7c0,2.9-2,5.3-4.5,5.3H216c-2.5,0-4.5-2.4-4.5-5.3l0,0c0-2.9,2-5.3,4.5-5.3h66.2
	C284.7,281.4,286.7,283.8,286.7,286.7L286.7,286.7z"/>
<path id="XMLID_573_" class="st0" d="M217.6,262.5v24.9c0,1.9,5.2,3.5,11.5,3.5c6.4,0,11.5-1.6,11.5-3.5v-24.9H217.6z"/>
<path id="XMLID_572_" class="st0" d="M257.5,262.5v24.9c0,1.9,5.2,3.5,11.5,3.5s11.5-1.6,11.5-3.5v-24.9H257.5z"/>
<path id="XMLID_571_" class="st0" d="M287.9,259.7c0,3.1-1.8,5.6-4,5.6h-69.5c-2.2,0-4-2.5-4-5.6l0,0c0-3.1,1.8-5.6,4-5.6h69.5
	C286.1,254.1,287.9,256.6,287.9,259.7L287.9,259.7z"/>
<path id="XMLID_570_" class="st0" d="M287.9,258.3c0,2.3-1.8,4.2-4,4.2h-69.5c-2.2,0-4-1.9-4-4.2l0,0c0-2.3,1.8-4.2,4-4.2h69.5
	C286.1,254.1,287.9,256,287.9,258.3L287.9,258.3z"/>
<path id="XMLID_569_" class="st0" d="M245.7,254.6c0,2.8-2.3,5.1-5.1,5.1h-63.4c-2.8,0-5.1-2.3-5.1-5.1l0,0c0-2.8,2.3-5.1,5.1-5.1
	h63.4C243.5,249.6,245.7,251.8,245.7,254.6L245.7,254.6z"/>
<path id="XMLID_568_" class="st0" d="M243.8,252.1c0,1.4-2.2,2.5-4.9,2.5H178c-2.7,0-4.9-1.1-4.9-2.5l0,0c0-1.4,2.2-2.5,4.9-2.5H239
	C241.7,249.6,243.8,250.7,243.8,252.1L243.8,252.1z"/>
<g id="XMLID_1289_">
	<path id="XMLID_567_" class="st0" d="M181.8,249.7v2.1c0,0.3,2.9,0.6,6.4,0.6c3.5,0,6.4-0.3,6.4-0.6v-2.1H181.8z"/>
	<ellipse id="XMLID_566_" class="st0" cx="188.2" cy="249.6" rx="6.4" ry="1.4"/>
</g>
<g id="XMLID_1286_">
	<path id="XMLID_565_" class="st0" d="M224.4,249.3v2.1c0,0.3,2.9,0.6,6.4,0.6s6.4-0.3,6.4-0.6v-2.1H224.4z"/>
	<ellipse id="XMLID_564_" class="st0" cx="230.8" cy="249.2" rx="6.4" ry="1.4"/>
</g>
<ellipse id="XMLID_563_" class="st0" cx="308.8" cy="291.8" rx="16.7" ry="9.2"/>
<ellipse id="XMLID_562_" class="st0" cx="347.9" cy="291.4" rx="16.7" ry="9.2"/>
<path id="XMLID_561_" class="st0" d="M365.6,288c0,3.7-2,6.6-4.5,6.6h-66.2c-2.5,0-4.5-3-4.5-6.6l0,0c0-3.7,2-6.6,4.5-6.6h66.2
	C363.6,281.4,365.6,284.4,365.6,288L365.6,288z"/>
<path id="XMLID_560_" class="st0" d="M365.6,286.7c0,2.9-2,5.3-4.5,5.3h-66.2c-2.5,0-4.5-2.4-4.5-5.3l0,0c0-2.9,2-5.3,4.5-5.3h66.2
	C363.6,281.4,365.6,283.8,365.6,286.7L365.6,286.7z"/>
<path id="XMLID_559_" class="st0" d="M297.7,262.5v24.9c0,1.9,5.2,3.5,11.5,3.5s11.5-1.6,11.5-3.5v-24.9H297.7z"/>
<path id="XMLID_558_" class="st0" d="M337,262.5v24.9c0,1.9,5.2,3.5,11.5,3.5c6.4,0,11.5-1.6,11.5-3.5v-24.9H337z"/>
<path id="XMLID_557_" class="st0" d="M369,259.7c0,3.1-1.8,5.6-4,5.6h-69.5c-2.2,0-4-2.5-4-5.6l0,0c0-3.1,1.8-5.6,4-5.6H365
	C367.2,254.1,369,256.6,369,259.7L369,259.7z"/>
<path id="XMLID_556_" class="st0" d="M369,258.3c0,2.3-1.8,4.2-4,4.2h-69.5c-2.2,0-4-1.9-4-4.2l0,0c0-2.3,1.8-4.2,4-4.2H365
	C367.2,254.1,369,256,369,258.3L369,258.3z"/>
<path id="XMLID_555_" class="st0" d="M328,255.2c0,2.8-2.3,5.1-5.1,5.1h-63.4c-2.8,0-5.1-2.3-5.1-5.1l0,0c0-2.8,2.3-5.1,5.1-5.1
	h63.4C325.7,250.1,328,252.4,328,255.2L328,255.2z"/>
<path id="XMLID_554_" class="st0" d="M326.1,252.6c0,1.4-2.2,2.5-4.9,2.5h-60.9c-2.7,0-4.9-1.1-4.9-2.5l0,0c0-1.4,2.2-2.5,4.9-2.5
	h60.9C323.9,250.1,326.1,251.2,326.1,252.6L326.1,252.6z"/>
<g id="XMLID_1273_">
	<path id="XMLID_553_" class="st0" d="M263.7,249.5v2.1c0,0.3,2.9,0.6,6.4,0.6c3.5,0,6.4-0.3,6.4-0.6v-2.1H263.7z"/>
	<ellipse id="XMLID_552_" class="st0" cx="270.1" cy="249.4" rx="6.4" ry="1.4"/>
</g>
<g id="XMLID_1270_">
	<path id="XMLID_551_" class="st0" d="M304.8,249.5v2.1c0,0.3,2.9,0.6,6.4,0.6c3.5,0,6.4-0.3,6.4-0.6v-2.1H304.8z"/>
	<ellipse id="XMLID_550_" class="st0" cx="311.2" cy="249.4" rx="6.4" ry="1.4"/>
</g>
<ellipse id="XMLID_549_" class="st0" cx="385.5" cy="291.4" rx="16.7" ry="9.2"/>
<ellipse id="XMLID_548_" class="st0" cx="425.7" cy="291.4" rx="16.7" ry="9.2"/>
<path id="XMLID_547_" class="st0" d="M443.6,288c0,3.7-2,6.6-4.5,6.6h-66.2c-2.5,0-4.5-3-4.5-6.6l0,0c0-3.7,2-6.6,4.5-6.6h66.2
	C441.6,281.4,443.6,284.4,443.6,288L443.6,288z"/>
<path id="XMLID_546_" class="st0" d="M443.6,286.7c0,2.9-2,5.3-4.5,5.3h-66.2c-2.5,0-4.5-2.4-4.5-5.3l0,0c0-2.9,2-5.3,4.5-5.3h66.2
	C441.6,281.4,443.6,283.8,443.6,286.7L443.6,286.7z"/>
<path id="XMLID_545_" class="st0" d="M375.7,262.5v24.9c0,1.9,5.2,3.5,11.5,3.5c6.4,0,11.5-1.6,11.5-3.5v-24.9H375.7z"/>
<path id="XMLID_544_" class="st0" d="M413.1,262.5v24.9c0,1.9,5.2,3.5,11.5,3.5c6.4,0,11.5-1.6,11.5-3.5v-24.9H413.1z"/>
<path id="XMLID_543_" class="st0" d="M448,260.2c0,3.1-1.8,5.6-4,5.6h-69.5c-2.2,0-4-2.5-4-5.6l0,0c0-3.1,1.8-5.6,4-5.6H444
	C446.2,254.6,448,257.1,448,260.2L448,260.2z"/>
<path id="XMLID_542_" class="st0" d="M448,258.9c0,2.3-1.8,4.2-4,4.2h-69.5c-2.2,0-4-1.9-4-4.2l0,0c0-2.3,1.8-4.2,4-4.2H444
	C446.2,254.6,448,256.5,448,258.9L448,258.9z"/>
<path id="XMLID_541_" class="st0" d="M483.5,255.2c0,2.8-2.3,5.1-5.1,5.1H415c-2.8,0-5.1-2.3-5.1-5.1l0,0c0-2.8,2.3-5.1,5.1-5.1
	h63.4C481.2,250.1,483.5,252.4,483.5,255.2L483.5,255.2z"/>
<path id="XMLID_540_" class="st0" d="M481.6,252.6c0,1.4-2.2,2.5-4.9,2.5h-60.9c-2.7,0-4.9-1.1-4.9-2.5l0,0c0-1.4,2.2-2.5,4.9-2.5
	h60.9C479.4,250.1,481.6,251.2,481.6,252.6L481.6,252.6z"/>
<path id="XMLID_539_" class="st0" d="M406,255c0,2.8-2.3,5.1-5.1,5.1h-63.4c-2.8,0-5.1-2.3-5.1-5.1l0,0c0-2.8,2.3-5.1,5.1-5.1H401
	C403.8,249.9,406,252.2,406,255L406,255z"/>
<path id="XMLID_538_" class="st0" d="M404.1,252.5c0,1.4-2.2,2.5-4.9,2.5h-60.9c-2.7,0-4.9-1.1-4.9-2.5l0,0c0-1.4,2.2-2.5,4.9-2.5
	h60.9C402,249.9,404.1,251.1,404.1,252.5L404.1,252.5z"/>
<g id="XMLID_1255_">
	<path id="XMLID_537_" class="st0" d="M342.3,250.3v2.1c0,0.3,2.9,0.6,6.4,0.6c3.5,0,6.4-0.3,6.4-0.6v-2.1H342.3z"/>
	<ellipse id="XMLID_536_" class="st0" cx="348.7" cy="250.2" rx="6.4" ry="1.4"/>
</g>
<g id="XMLID_1252_">
	<path id="XMLID_535_" class="st0" d="M383.4,250.3v2.1c0,0.3,2.9,0.6,6.4,0.6c3.5,0,6.4-0.3,6.4-0.6v-2.1H383.4z"/>
	<ellipse id="XMLID_534_" class="st0" cx="389.8" cy="250.2" rx="6.4" ry="1.4"/>
</g>
<g id="XMLID_1249_">
	<path id="XMLID_533_" class="st0" d="M415.8,250.3v2.1c0,0.3,2.9,0.6,6.4,0.6c3.5,0,6.4-0.3,6.4-0.6v-2.1H415.8z"/>
	<ellipse id="XMLID_532_" class="st0" cx="422.2" cy="250.2" rx="6.4" ry="1.4"/>
</g>
<ellipse id="XMLID_531_" class="st0" cx="70.1" cy="245.7" rx="16.7" ry="9.2"/>
<path id="XMLID_530_" class="st0" d="M159.7,246.8c0,3.3-3,6.1-6.8,6.1h-39.1c-3.7,0-6.8-2.7-6.8-6.1l0,0c0-3.3,3-6.1,6.8-6.1H153
	C156.7,240.7,159.7,243.4,159.7,246.8L159.7,246.8z"/>
<path id="XMLID_529_" class="st0" d="M159.7,244.1c0,3.3-3,6.1-6.8,6.1h-39.1c-3.7,0-6.8-2.7-6.8-6.1l0,0c0-3.3,3-6.1,6.8-6.1H153
	C156.7,238,159.7,240.7,159.7,244.1L159.7,244.1z"/>
<path id="XMLID_528_" class="st0" d="M236.7,246.8c0,3.3-3,6.1-6.8,6.1h-39.1c-3.7,0-6.8-2.7-6.8-6.1l0,0c0-3.3,3-6.1,6.8-6.1h39.1
	C233.6,240.7,236.7,243.5,236.7,246.8L236.7,246.8z"/>
<path id="XMLID_527_" class="st0" d="M236.7,244.1c0,3.3-3,6.1-6.8,6.1h-39.1c-3.7,0-6.8-2.7-6.8-6.1l0,0c0-3.3,3-6.1,6.8-6.1h39.1
	C233.6,238.1,236.7,240.8,236.7,244.1L236.7,244.1z"/>
<path id="XMLID_526_" class="st0" d="M314.8,247.4c0,3.3-3,6.1-6.8,6.1h-39.1c-3.7,0-6.8-2.7-6.8-6.1l0,0c0-3.3,3-6.1,6.8-6.1H308
	C311.7,241.4,314.8,244.1,314.8,247.4L314.8,247.4z"/>
<path id="XMLID_525_" class="st0" d="M314.8,244.7c0,3.3-3,6.1-6.8,6.1h-39.1c-3.7,0-6.8-2.7-6.8-6.1l0,0c0-3.3,3-6.1,6.8-6.1H308
	C311.7,238.7,314.8,241.4,314.8,244.7L314.8,244.7z"/>
<path id="XMLID_524_" class="st0" d="M396.2,247.4c0,3.3-3,6.1-6.8,6.1h-39.1c-3.7,0-6.8-2.7-6.8-6.1l0,0c0-3.3,3-6.1,6.8-6.1h39.1
	C393.1,241.4,396.2,244.1,396.2,247.4L396.2,247.4z"/>
<path id="XMLID_523_" class="st0" d="M396.2,244.7c0,3.3-3,6.1-6.8,6.1h-39.1c-3.7,0-6.8-2.7-6.8-6.1l0,0c0-3.3,3-6.1,6.8-6.1h39.1
	C393.1,238.7,396.2,241.4,396.2,244.7L396.2,244.7z"/>
<path id="XMLID_522_" class="st1" d="M440.8,195"/>
<path id="XMLID_521_" class="st1" d="M440.8,261.8"/>
<ellipse id="XMLID_520_" class="st0" cx="109.6" cy="245" rx="16.7" ry="9.2"/>
<path id="XMLID_519_" class="st0" d="M127,241.7c0,3.7-2,6.6-4.5,6.6H56.3c-2.5,0-4.5-3-4.5-6.6l0,0c0-3.7,2-6.6,4.5-6.6h66.2
	C125,235.1,127,238,127,241.7L127,241.7z"/>
<path id="XMLID_518_" class="st0" d="M127,240.4c0,2.9-2,5.3-4.5,5.3H56.3c-2.5,0-4.5-2.4-4.5-5.3l0,0c0-2.9,2-5.3,4.5-5.3h66.2
	C125,235.1,127,237.4,127,240.4L127,240.4z"/>
<path id="XMLID_517_" class="st0" d="M97.2,216.2v24.9c0,1.9,5.2,3.5,11.5,3.5c6.4,0,11.5-1.6,11.5-3.5v-24.9H97.2z"/>
<path id="XMLID_516_" class="st0" d="M59.4,216.2v24.9c0,1.9,5.2,3.5,11.5,3.5c6.4,0,11.5-1.6,11.5-3.5v-24.9H59.4z"/>
<path id="XMLID_515_" class="st0" d="M126.3,213.3c0,3.1-1.8,5.6-4,5.6H52.8c-2.2,0-4-2.5-4-5.6l0,0c0-3.1,1.8-5.6,4-5.6h69.5
	C124.5,207.7,126.3,210.2,126.3,213.3L126.3,213.3z"/>
<path id="XMLID_514_" class="st0" d="M126.3,212c0,2.3-1.8,4.2-4,4.2H52.8c-2.2,0-4-1.9-4-4.2l0,0c0-2.3,1.8-4.2,4-4.2h69.5
	C124.5,207.7,126.3,209.6,126.3,212L126.3,212z"/>
<path id="XMLID_513_" class="st0" d="M86.8,208.3c0,2.8-2.3,5.1-5.1,5.1H18.3c-2.8,0-5.1-2.3-5.1-5.1l0,0c0-2.8,2.3-5.1,5.1-5.1
	h63.4C84.5,203.2,86.8,205.5,86.8,208.3L86.8,208.3z"/>
<path id="XMLID_512_" class="st0" d="M84.9,205.7c0,1.4-2.2,2.5-4.9,2.5H19.1c-2.7,0-4.9-1.1-4.9-2.5l0,0c0-1.4,2.2-2.5,4.9-2.5
	h60.9C82.7,203.2,84.9,204.3,84.9,205.7L84.9,205.7z"/>
<g id="XMLID_1226_">
	<path id="XMLID_511_" class="st0" d="M64.9,203.1v2.1c0,0.3,2.9,0.6,6.4,0.6c3.5,0,6.4-0.3,6.4-0.6v-2.1H64.9z"/>
	<ellipse id="XMLID_510_" class="st0" cx="71.3" cy="203.1" rx="6.4" ry="1.4"/>
</g>
<ellipse id="XMLID_509_" class="st0" cx="149.7" cy="244.1" rx="16.7" ry="9.2"/>
<ellipse id="XMLID_508_" class="st0" cx="189.9" cy="244.1" rx="16.7" ry="9.2"/>
<path id="XMLID_507_" class="st0" d="M207.3,241.7c0,3.7-2,6.6-4.5,6.6h-66.2c-2.5,0-4.5-3-4.5-6.6l0,0c0-3.7,2-6.6,4.5-6.6h66.2
	C205.3,235.1,207.3,238,207.3,241.7L207.3,241.7z"/>
<path id="XMLID_506_" class="st0" d="M207.3,240.4c0,2.9-2,5.3-4.5,5.3h-66.2c-2.5,0-4.5-2.4-4.5-5.3l0,0c0-2.9,2-5.3,4.5-5.3h66.2
	C205.3,235.1,207.3,237.4,207.3,240.4L207.3,240.4z"/>
<path id="XMLID_505_" class="st0" d="M136.7,216.2v24.9c0,1.9,5.2,3.5,11.5,3.5c6.4,0,11.5-1.6,11.5-3.5v-24.9H136.7z"/>
<path id="XMLID_504_" class="st0" d="M176.4,216.2v24.9c0,1.9,5.2,3.5,11.5,3.5s11.5-1.6,11.5-3.5v-24.9H176.4z"/>
<path id="XMLID_503_" class="st0" d="M207.3,213.3c0,3.1-1.8,5.6-4,5.6h-69.5c-2.2,0-4-2.5-4-5.6l0,0c0-3.1,1.8-5.6,4-5.6h69.5
	C205.5,207.7,207.3,210.2,207.3,213.3L207.3,213.3z"/>
<path id="XMLID_502_" class="st0" d="M207.3,211.9c0,2.3-1.8,4.2-4,4.2h-69.5c-2.2,0-4-1.9-4-4.2l0,0c0-2.3,1.8-4.2,4-4.2h69.5
	C205.5,207.7,207.3,209.6,207.3,211.9L207.3,211.9z"/>
<path id="XMLID_501_" class="st0" d="M164.9,208.2c0,2.8-2.3,5.1-5.1,5.1H96.4c-2.8,0-5.1-2.3-5.1-5.1l0,0c0-2.8,2.3-5.1,5.1-5.1
	h63.4C162.3,203.2,164.9,205.4,164.9,208.2L164.9,208.2z"/>
<path id="XMLID_500_" class="st0" d="M158.1,208.2H97.2c-2.7,0-4.9-1.1-4.9-2.5l0,0c0-1.4,2.2-2.5,4.9-2.5h60.9
	c2.7,0,5.3,0.8,4.9,2.5C163,205.7,163.1,208.6,158.1,208.2z"/>
<g id="XMLID_1213_">
	<path id="XMLID_499_" class="st0" d="M100.7,203.6v2.1c0,0.3,2.9,0.6,6.4,0.6s6.4-0.3,6.4-0.6v-2.1H100.7z"/>
	<ellipse id="XMLID_498_" class="st0" cx="107.1" cy="203.5" rx="6.4" ry="1.4"/>
</g>
<g id="XMLID_1210_">
	<path id="XMLID_497_" class="st0" d="M143.3,203.1v2.1c0,0.3,2.9,0.6,6.4,0.6c3.5,0,6.4-0.3,6.4-0.6v-2.1H143.3z"/>
	<ellipse id="XMLID_496_" class="st0" cx="149.7" cy="203.1" rx="6.4" ry="1.4"/>
</g>
<ellipse id="XMLID_495_" class="st0" cx="229.1" cy="245" rx="16.7" ry="9.2"/>
<ellipse id="XMLID_494_" class="st0" cx="268.5" cy="245" rx="16.7" ry="9.2"/>
<path id="XMLID_493_" class="st0" d="M286.7,241.7c0,3.7-2,6.6-4.5,6.6H216c-2.5,0-4.5-3-4.5-6.6l0,0c0-3.7,2-6.6,4.5-6.6h66.2
	C284.7,235.1,286.7,238,286.7,241.7L286.7,241.7z"/>
<path id="XMLID_492_" class="st0" d="M286.7,240.4c0,2.9-2,5.3-4.5,5.3H216c-2.5,0-4.5-2.4-4.5-5.3l0,0c0-2.9,2-5.3,4.5-5.3h66.2
	C284.7,235.1,286.7,237.4,286.7,240.4L286.7,240.4z"/>
<path id="XMLID_491_" class="st0" d="M217.6,216.2v24.9c0,1.9,5.2,3.5,11.5,3.5c6.4,0,11.5-1.6,11.5-3.5v-24.9H217.6z"/>
<path id="XMLID_490_" class="st0" d="M257.5,216.2v24.9c0,1.9,5.2,3.5,11.5,3.5c6.4,0,11.5-1.6,11.5-3.5v-24.9H257.5z"/>
<path id="XMLID_489_" class="st0" d="M287.8,213.3c0,3.1-1.8,5.6-4,5.6h-69.5c-2.2,0-4-2.5-4-5.6l0,0c0-3.1,1.8-5.6,4-5.6h69.5
	C286.1,207.7,287.8,210.2,287.8,213.3L287.8,213.3z"/>
<path id="XMLID_488_" class="st0" d="M287.8,212c0,2.3-1.8,4.2-4,4.2h-69.5c-2.2,0-4-1.9-4-4.2l0,0c0-2.3,1.8-4.2,4-4.2h69.5
	C286.1,207.7,287.8,209.6,287.8,212L287.8,212z"/>
<path id="XMLID_487_" class="st0" d="M245.7,208.3c0,2.8-2.3,5.1-5.1,5.1h-63.4c-2.8,0-5.1-2.3-5.1-5.1l0,0c0-2.8,2.3-5.1,5.1-5.1
	h63.4C243.4,203.2,245.7,205.5,245.7,208.3L245.7,208.3z"/>
<path id="XMLID_486_" class="st0" d="M243.8,205.7c0,1.4-2.2,2.5-4.9,2.5H178c-2.7,0-4.9-1.1-4.9-2.5l0,0c0-1.4,2.2-2.5,4.9-2.5H239
	C241.6,203.2,243.8,204.3,243.8,205.7L243.8,205.7z"/>
<g id="XMLID_1197_">
	<path id="XMLID_485_" class="st0" d="M181.8,203.4v2.1c0,0.3,2.9,0.6,6.4,0.6s6.4-0.3,6.4-0.6v-2.1H181.8z"/>
	<ellipse id="XMLID_484_" class="st0" cx="188.2" cy="203.3" rx="6.4" ry="1.4"/>
</g>
<g id="XMLID_1194_">
	<path id="XMLID_483_" class="st0" d="M224.4,202.9v2.1c0,0.3,2.9,0.6,6.4,0.6c3.5,0,6.4-0.3,6.4-0.6v-2.1H224.4z"/>
	<ellipse id="XMLID_482_" class="st0" cx="230.8" cy="202.8" rx="6.4" ry="1.4"/>
</g>
<ellipse id="XMLID_481_" class="st0" cx="308.8" cy="245.5" rx="16.7" ry="9.2"/>
<ellipse id="XMLID_480_" class="st0" cx="347.9" cy="245" rx="16.7" ry="9.2"/>
<path id="XMLID_479_" class="st0" d="M365.6,241.7c0,3.7-2,6.6-4.5,6.6h-66.2c-2.5,0-4.5-3-4.5-6.6l0,0c0-3.7,2-6.6,4.5-6.6h66.2
	C363.6,235.1,365.6,238,365.6,241.7L365.6,241.7z"/>
<path id="XMLID_478_" class="st0" d="M365.6,240.4c0,2.9-2,5.3-4.5,5.3h-66.2c-2.5,0-4.5-2.4-4.5-5.3l0,0c0-2.9,2-5.3,4.5-5.3h66.2
	C363.6,235.1,365.6,237.4,365.6,240.4L365.6,240.4z"/>
<path id="XMLID_477_" class="st0" d="M297.7,216.2v24.9c0,1.9,5.2,3.5,11.5,3.5c6.4,0,11.5-1.6,11.5-3.5v-24.9H297.7z"/>
<path id="XMLID_476_" class="st0" d="M337,216.2v24.9c0,1.9,5.2,3.5,11.5,3.5s11.5-1.6,11.5-3.5v-24.9H337z"/>
<path id="XMLID_475_" class="st0" d="M369,213.3c0,3.1-1.8,5.6-4,5.6h-69.5c-2.2,0-4-2.5-4-5.6l0,0c0-3.1,1.8-5.6,4-5.6h69.5
	C367.2,207.7,369,210.2,369,213.3L369,213.3z"/>
<path id="XMLID_474_" class="st0" d="M369,211.9c0,2.3-1.8,4.2-4,4.2h-69.5c-2.2,0-4-1.9-4-4.2l0,0c0-2.3,1.8-4.2,4-4.2h69.5
	C367.2,207.7,369,209.6,369,211.9L369,211.9z"/>
<path id="XMLID_473_" class="st0" d="M328,208.8c0,2.8-2.3,5.1-5.1,5.1h-63.4c-2.8,0-5.1-2.3-5.1-5.1l0,0c0-2.8,2.3-5.1,5.1-5.1
	h63.4C325.7,203.7,328,206,328,208.8L328,208.8z"/>
<path id="XMLID_472_" class="st0" d="M326.1,206.3c0,1.4-2.2,2.5-4.9,2.5h-60.9c-2.7,0-4.9-1.1-4.9-2.5l0,0c0-1.4,2.2-2.5,4.9-2.5
	h60.9C323.9,203.7,326.1,204.9,326.1,206.3L326.1,206.3z"/>
<g id="XMLID_1181_">
	<path id="XMLID_471_" class="st0" d="M263.7,203.1v2.1c0,0.3,2.9,0.6,6.4,0.6c3.5,0,6.4-0.3,6.4-0.6v-2.1H263.7z"/>
	<ellipse id="XMLID_470_" class="st0" cx="270.1" cy="203.1" rx="6.4" ry="1.4"/>
</g>
<g id="XMLID_1178_">
	<path id="XMLID_469_" class="st0" d="M304.8,203.1v2.1c0,0.3,2.9,0.6,6.4,0.6c3.5,0,6.4-0.3,6.4-0.6v-2.1H304.8z"/>
	<ellipse id="XMLID_468_" class="st0" cx="311.2" cy="203.1" rx="6.4" ry="1.4"/>
</g>
<ellipse id="XMLID_467_" class="st0" cx="385.4" cy="245" rx="16.7" ry="9.2"/>
<ellipse id="XMLID_466_" class="st0" cx="425.6" cy="245" rx="16.7" ry="9.2"/>
<path id="XMLID_465_" class="st0" d="M443.6,241.7c0,3.7-2,6.6-4.5,6.6h-66.2c-2.5,0-4.5-3-4.5-6.6l0,0c0-3.7,2-6.6,4.5-6.6h66.2
	C441.6,235.1,443.6,238,443.6,241.7L443.6,241.7z"/>
<path id="XMLID_464_" class="st0" d="M443.6,240.4c0,2.9-2,5.3-4.5,5.3h-66.2c-2.5,0-4.5-2.4-4.5-5.3l0,0c0-2.9,2-5.3,4.5-5.3h66.2
	C441.6,235.1,443.6,237.4,443.6,240.4L443.6,240.4z"/>
<path id="XMLID_463_" class="st0" d="M375.7,216.2v24.9c0,1.9,5.2,3.5,11.5,3.5c6.4,0,11.5-1.6,11.5-3.5v-24.9H375.7z"/>
<path id="XMLID_462_" class="st0" d="M413.1,216.2v24.9c0,1.9,5.2,3.5,11.5,3.5c6.4,0,11.5-1.6,11.5-3.5v-24.9H413.1z"/>
<path id="XMLID_461_" class="st0" d="M448,213.9c0,3.1-1.8,5.6-4,5.6h-69.5c-2.2,0-4-2.5-4-5.6l0,0c0-3.1,1.8-5.6,4-5.6H444
	C446.2,208.3,448,210.8,448,213.9L448,213.9z"/>
<path id="XMLID_460_" class="st0" d="M448,212.5c0,2.3-1.8,4.2-4,4.2h-69.5c-2.2,0-4-1.9-4-4.2l0,0c0-2.3,1.8-4.2,4-4.2H444
	C446.2,208.3,448,210.2,448,212.5L448,212.5z"/>
<path id="XMLID_459_" class="st0" d="M483.5,208.8c0,2.8-2.3,5.1-5.1,5.1H415c-2.8,0-5.1-2.3-5.1-5.1l0,0c0-2.8,2.3-5.1,5.1-5.1
	h63.4C481.2,203.7,483.5,206,483.5,208.8L483.5,208.8z"/>
<path id="XMLID_458_" class="st0" d="M481.6,206.3c0,1.4-2.2,2.5-4.9,2.5h-60.9c-2.7,0-4.9-1.1-4.9-2.5l0,0c0-1.4,2.2-2.5,4.9-2.5
	h60.9C479.4,203.7,481.6,204.9,481.6,206.3L481.6,206.3z"/>
<path id="XMLID_457_" class="st0" d="M406,208.6c0,2.8-2.3,5.1-5.1,5.1h-63.4c-2.8,0-5.1-2.3-5.1-5.1l0,0c0-2.8,2.3-5.1,5.1-5.1
	h63.4C403.7,203.6,406,205.8,406,208.6L406,208.6z"/>
<path id="XMLID_456_" class="st0" d="M404.1,206.1c0,1.4-2.2,2.5-4.9,2.5h-60.9c-2.7,0-4.9-1.1-4.9-2.5l0,0c0-1.4,2.2-2.5,4.9-2.5
	h60.9C401.9,203.6,404.1,204.7,404.1,206.1L404.1,206.1z"/>
<g id="XMLID_1163_">
	<path id="XMLID_455_" class="st0" d="M342.3,203.9v2.1c0,0.3,2.9,0.6,6.4,0.6c3.5,0,6.4-0.3,6.4-0.6v-2.1H342.3z"/>
	<ellipse id="XMLID_454_" class="st0" cx="348.7" cy="203.8" rx="6.4" ry="1.4"/>
</g>
<g id="XMLID_1160_">
	<path id="XMLID_453_" class="st0" d="M383.4,203.9v2.1c0,0.3,2.9,0.6,6.4,0.6c3.5,0,6.4-0.3,6.4-0.6v-2.1H383.4z"/>
	<ellipse id="XMLID_452_" class="st0" cx="389.8" cy="203.8" rx="6.4" ry="1.4"/>
</g>
<g id="XMLID_1157_">
	<path id="XMLID_451_" class="st0" d="M415.8,203.9v2.1c0,0.3,2.9,0.6,6.4,0.6c3.5,0,6.4-0.3,6.4-0.6v-2.1H415.8z"/>
	<ellipse id="XMLID_450_" class="st0" cx="422.2" cy="203.8" rx="6.4" ry="1.4"/>
</g>
<ellipse id="XMLID_449_" class="st0" cx="70.1" cy="245.7" rx="16.7" ry="9.2"/>
<path id="XMLID_448_" class="st0" d="M159.7,246.8c0,3.3-3,6.1-6.8,6.1h-39.1c-3.7,0-6.8-2.7-6.8-6.1l0,0c0-3.3,3-6.1,6.8-6.1H153
	C156.7,240.7,159.7,243.4,159.7,246.8L159.7,246.8z"/>
<path id="XMLID_447_" class="st0" d="M159.7,244.1c0,3.3-3,6.1-6.8,6.1h-39.1c-3.7,0-6.8-2.7-6.8-6.1l0,0c0-3.3,3-6.1,6.8-6.1H153
	C156.7,238,159.7,240.7,159.7,244.1L159.7,244.1z"/>
<path id="XMLID_446_" class="st0" d="M236.7,246.8c0,3.3-3,6.1-6.8,6.1h-39.1c-3.7,0-6.8-2.7-6.8-6.1l0,0c0-3.3,3-6.1,6.8-6.1h39.1
	C233.6,240.7,236.7,243.5,236.7,246.8L236.7,246.8z"/>
<path id="XMLID_445_" class="st0" d="M236.7,244.1c0,3.3-3,6.1-6.8,6.1h-39.1c-3.7,0-6.8-2.7-6.8-6.1l0,0c0-3.3,3-6.1,6.8-6.1h39.1
	C233.6,238.1,236.7,240.8,236.7,244.1L236.7,244.1z"/>
<path id="XMLID_444_" class="st0" d="M314.8,247.4c0,3.3-3,6.1-6.8,6.1h-39.1c-3.7,0-6.8-2.7-6.8-6.1l0,0c0-3.3,3-6.1,6.8-6.1H308
	C311.7,241.4,314.8,244.1,314.8,247.4L314.8,247.4z"/>
<path id="XMLID_443_" class="st0" d="M314.8,244.7c0,3.3-3,6.1-6.8,6.1h-39.1c-3.7,0-6.8-2.7-6.8-6.1l0,0c0-3.3,3-6.1,6.8-6.1H308
	C311.7,238.7,314.8,241.4,314.8,244.7L314.8,244.7z"/>
<path id="XMLID_442_" class="st0" d="M396.2,247.4c0,3.3-3,6.1-6.8,6.1h-39.1c-3.7,0-6.8-2.7-6.8-6.1l0,0c0-3.3,3-6.1,6.8-6.1h39.1
	C393.1,241.4,396.2,244.1,396.2,247.4L396.2,247.4z"/>
<path id="XMLID_441_" class="st0" d="M396.2,244.7c0,3.3-3,6.1-6.8,6.1h-39.1c-3.7,0-6.8-2.7-6.8-6.1l0,0c0-3.3,3-6.1,6.8-6.1h39.1
	C393.1,238.7,396.2,241.4,396.2,244.7L396.2,244.7z"/>
<path id="XMLID_440_" class="st1" d="M440.8,195"/>
<path id="XMLID_439_" class="st1" d="M440.8,261.8"/>
<ellipse id="XMLID_438_" class="st0" cx="109.6" cy="245" rx="16.7" ry="9.2"/>
<path id="XMLID_437_" class="st0" d="M127,241.7c0,3.7-2,6.6-4.5,6.6H56.3c-2.5,0-4.5-3-4.5-6.6l0,0c0-3.7,2-6.6,4.5-6.6h66.2
	C125,235.1,127,238,127,241.7L127,241.7z"/>
<path id="XMLID_436_" class="st0" d="M127,240.4c0,2.9-2,5.3-4.5,5.3H56.3c-2.5,0-4.5-2.4-4.5-5.3l0,0c0-2.9,2-5.3,4.5-5.3h66.2
	C125,235.1,127,237.4,127,240.4L127,240.4z"/>
<path id="XMLID_435_" class="st0" d="M97.2,216.2v24.9c0,1.9,5.2,3.5,11.5,3.5c6.4,0,11.5-1.6,11.5-3.5v-24.9H97.2z"/>
<path id="XMLID_434_" class="st0" d="M59.4,216.2v24.9c0,1.9,5.2,3.5,11.5,3.5c6.4,0,11.5-1.6,11.5-3.5v-24.9H59.4z"/>
<path id="XMLID_433_" class="st0" d="M126.3,213.3c0,3.1-1.8,5.6-4,5.6H52.8c-2.2,0-4-2.5-4-5.6l0,0c0-3.1,1.8-5.6,4-5.6h69.5
	C124.5,207.7,126.3,210.2,126.3,213.3L126.3,213.3z"/>
<path id="XMLID_432_" class="st0" d="M126.3,212c0,2.3-1.8,4.2-4,4.2H52.8c-2.2,0-4-1.9-4-4.2l0,0c0-2.3,1.8-4.2,4-4.2h69.5
	C124.5,207.7,126.3,209.6,126.3,212L126.3,212z"/>
<path id="XMLID_431_" class="st0" d="M86.8,208.3c0,2.8-2.3,5.1-5.1,5.1H18.3c-2.8,0-5.1-2.3-5.1-5.1l0,0c0-2.8,2.3-5.1,5.1-5.1
	h63.4C84.5,203.2,86.8,205.5,86.8,208.3L86.8,208.3z"/>
<path id="XMLID_430_" class="st0" d="M84.9,205.7c0,1.4-2.2,2.5-4.9,2.5H19.1c-2.7,0-4.9-1.1-4.9-2.5l0,0c0-1.4,2.2-2.5,4.9-2.5
	h60.9C82.7,203.2,84.9,204.3,84.9,205.7L84.9,205.7z"/>
<g id="XMLID_1134_">
	<path id="XMLID_429_" class="st0" d="M64.9,203.1v2.1c0,0.3,2.9,0.6,6.4,0.6c3.5,0,6.4-0.3,6.4-0.6v-2.1H64.9z"/>
	<ellipse id="XMLID_428_" class="st0" cx="71.3" cy="203.1" rx="6.4" ry="1.4"/>
</g>
<ellipse id="XMLID_427_" class="st0" cx="149.7" cy="244.1" rx="16.7" ry="9.2"/>
<ellipse id="XMLID_426_" class="st0" cx="189.9" cy="244.1" rx="16.7" ry="9.2"/>
<path id="XMLID_425_" class="st0" d="M207.3,241.7c0,3.7-2,6.6-4.5,6.6h-66.2c-2.5,0-4.5-3-4.5-6.6l0,0c0-3.7,2-6.6,4.5-6.6h66.2
	C205.3,235.1,207.3,238,207.3,241.7L207.3,241.7z"/>
<path id="XMLID_424_" class="st0" d="M207.3,240.4c0,2.9-2,5.3-4.5,5.3h-66.2c-2.5,0-4.5-2.4-4.5-5.3l0,0c0-2.9,2-5.3,4.5-5.3h66.2
	C205.3,235.1,207.3,237.4,207.3,240.4L207.3,240.4z"/>
<path id="XMLID_423_" class="st0" d="M136.7,216.2v24.9c0,1.9,5.2,3.5,11.5,3.5c6.4,0,11.5-1.6,11.5-3.5v-24.9H136.7z"/>
<path id="XMLID_422_" class="st0" d="M176.4,216.2v24.9c0,1.9,5.2,3.5,11.5,3.5s11.5-1.6,11.5-3.5v-24.9H176.4z"/>
<path id="XMLID_421_" class="st0" d="M207.3,213.3c0,3.1-1.8,5.6-4,5.6h-69.5c-2.2,0-4-2.5-4-5.6l0,0c0-3.1,1.8-5.6,4-5.6h69.5
	C205.5,207.7,207.3,210.2,207.3,213.3L207.3,213.3z"/>
<path id="XMLID_420_" class="st0" d="M207.3,211.9c0,2.3-1.8,4.2-4,4.2h-69.5c-2.2,0-4-1.9-4-4.2l0,0c0-2.3,1.8-4.2,4-4.2h69.5
	C205.5,207.7,207.3,209.6,207.3,211.9L207.3,211.9z"/>
<path id="XMLID_419_" class="st0" d="M164.9,208.2c0,2.8-2.3,5.1-5.1,5.1H96.4c-2.8,0-5.1-2.3-5.1-5.1l0,0c0-2.8,2.3-5.1,5.1-5.1
	h63.4C162.3,203.2,164.9,205.4,164.9,208.2L164.9,208.2z"/>
<path id="XMLID_418_" class="st0" d="M158.1,208.2H97.2c-2.7,0-4.9-1.1-4.9-2.5l0,0c0-1.4,2.2-2.5,4.9-2.5h60.9
	c2.7,0,5.3,0.8,4.9,2.5C163,205.7,163.1,208.6,158.1,208.2z"/>
<g id="XMLID_1121_">
	<path id="XMLID_417_" class="st0" d="M100.7,203.6v2.1c0,0.3,2.9,0.6,6.4,0.6s6.4-0.3,6.4-0.6v-2.1H100.7z"/>
	<ellipse id="XMLID_416_" class="st0" cx="107.1" cy="203.5" rx="6.4" ry="1.4"/>
</g>
<g id="XMLID_1118_">
	<path id="XMLID_415_" class="st0" d="M143.3,203.1v2.1c0,0.3,2.9,0.6,6.4,0.6c3.5,0,6.4-0.3,6.4-0.6v-2.1H143.3z"/>
	<ellipse id="XMLID_414_" class="st0" cx="149.7" cy="203.1" rx="6.4" ry="1.4"/>
</g>
<ellipse id="XMLID_413_" class="st0" cx="229.1" cy="245" rx="16.7" ry="9.2"/>
<ellipse id="XMLID_412_" class="st0" cx="268.5" cy="245" rx="16.7" ry="9.2"/>
<path id="XMLID_411_" class="st0" d="M286.7,241.7c0,3.7-2,6.6-4.5,6.6H216c-2.5,0-4.5-3-4.5-6.6l0,0c0-3.7,2-6.6,4.5-6.6h66.2
	C284.7,235.1,286.7,238,286.7,241.7L286.7,241.7z"/>
<path id="XMLID_410_" class="st0" d="M286.7,240.4c0,2.9-2,5.3-4.5,5.3H216c-2.5,0-4.5-2.4-4.5-5.3l0,0c0-2.9,2-5.3,4.5-5.3h66.2
	C284.7,235.1,286.7,237.4,286.7,240.4L286.7,240.4z"/>
<path id="XMLID_409_" class="st0" d="M217.6,216.2v24.9c0,1.9,5.2,3.5,11.5,3.5c6.4,0,11.5-1.6,11.5-3.5v-24.9H217.6z"/>
<path id="XMLID_408_" class="st0" d="M257.5,216.2v24.9c0,1.9,5.2,3.5,11.5,3.5c6.4,0,11.5-1.6,11.5-3.5v-24.9H257.5z"/>
<path id="XMLID_407_" class="st0" d="M287.8,213.3c0,3.1-1.8,5.6-4,5.6h-69.5c-2.2,0-4-2.5-4-5.6l0,0c0-3.1,1.8-5.6,4-5.6h69.5
	C286.1,207.7,287.8,210.2,287.8,213.3L287.8,213.3z"/>
<path id="XMLID_406_" class="st0" d="M287.8,212c0,2.3-1.8,4.2-4,4.2h-69.5c-2.2,0-4-1.9-4-4.2l0,0c0-2.3,1.8-4.2,4-4.2h69.5
	C286.1,207.7,287.8,209.6,287.8,212L287.8,212z"/>
<path id="XMLID_405_" class="st0" d="M245.7,208.3c0,2.8-2.3,5.1-5.1,5.1h-63.4c-2.8,0-5.1-2.3-5.1-5.1l0,0c0-2.8,2.3-5.1,5.1-5.1
	h63.4C243.4,203.2,245.7,205.5,245.7,208.3L245.7,208.3z"/>
<path id="XMLID_404_" class="st0" d="M243.8,205.7c0,1.4-2.2,2.5-4.9,2.5H178c-2.7,0-4.9-1.1-4.9-2.5l0,0c0-1.4,2.2-2.5,4.9-2.5H239
	C241.6,203.2,243.8,204.3,243.8,205.7L243.8,205.7z"/>
<g id="XMLID_1105_">
	<path id="XMLID_403_" class="st0" d="M181.8,203.4v2.1c0,0.3,2.9,0.6,6.4,0.6s6.4-0.3,6.4-0.6v-2.1H181.8z"/>
	<ellipse id="XMLID_402_" class="st0" cx="188.2" cy="203.3" rx="6.4" ry="1.4"/>
</g>
<g id="XMLID_1102_">
	<path id="XMLID_401_" class="st0" d="M224.4,202.9v2.1c0,0.3,2.9,0.6,6.4,0.6c3.5,0,6.4-0.3,6.4-0.6v-2.1H224.4z"/>
	<ellipse id="XMLID_400_" class="st0" cx="230.8" cy="202.8" rx="6.4" ry="1.4"/>
</g>
<ellipse id="XMLID_399_" class="st0" cx="308.8" cy="245.5" rx="16.7" ry="9.2"/>
<ellipse id="XMLID_398_" class="st0" cx="347.9" cy="245" rx="16.7" ry="9.2"/>
<path id="XMLID_397_" class="st0" d="M365.6,241.7c0,3.7-2,6.6-4.5,6.6h-66.2c-2.5,0-4.5-3-4.5-6.6l0,0c0-3.7,2-6.6,4.5-6.6h66.2
	C363.6,235.1,365.6,238,365.6,241.7L365.6,241.7z"/>
<path id="XMLID_396_" class="st0" d="M365.6,240.4c0,2.9-2,5.3-4.5,5.3h-66.2c-2.5,0-4.5-2.4-4.5-5.3l0,0c0-2.9,2-5.3,4.5-5.3h66.2
	C363.6,235.1,365.6,237.4,365.6,240.4L365.6,240.4z"/>
<path id="XMLID_395_" class="st0" d="M297.7,216.2v24.9c0,1.9,5.2,3.5,11.5,3.5c6.4,0,11.5-1.6,11.5-3.5v-24.9H297.7z"/>
<path id="XMLID_394_" class="st0" d="M337,216.2v24.9c0,1.9,5.2,3.5,11.5,3.5s11.5-1.6,11.5-3.5v-24.9H337z"/>
<path id="XMLID_393_" class="st0" d="M369,213.3c0,3.1-1.8,5.6-4,5.6h-69.5c-2.2,0-4-2.5-4-5.6l0,0c0-3.1,1.8-5.6,4-5.6h69.5
	C367.2,207.7,369,210.2,369,213.3L369,213.3z"/>
<path id="XMLID_392_" class="st0" d="M369,211.9c0,2.3-1.8,4.2-4,4.2h-69.5c-2.2,0-4-1.9-4-4.2l0,0c0-2.3,1.8-4.2,4-4.2h69.5
	C367.2,207.7,369,209.6,369,211.9L369,211.9z"/>
<path id="XMLID_391_" class="st0" d="M328,208.8c0,2.8-2.3,5.1-5.1,5.1h-63.4c-2.8,0-5.1-2.3-5.1-5.1l0,0c0-2.8,2.3-5.1,5.1-5.1
	h63.4C325.7,203.7,328,206,328,208.8L328,208.8z"/>
<path id="XMLID_390_" class="st0" d="M326.1,206.3c0,1.4-2.2,2.5-4.9,2.5h-60.9c-2.7,0-4.9-1.1-4.9-2.5l0,0c0-1.4,2.2-2.5,4.9-2.5
	h60.9C323.9,203.7,326.1,204.9,326.1,206.3L326.1,206.3z"/>
<g id="XMLID_1089_">
	<path id="XMLID_389_" class="st0" d="M263.7,203.1v2.1c0,0.3,2.9,0.6,6.4,0.6c3.5,0,6.4-0.3,6.4-0.6v-2.1H263.7z"/>
	<ellipse id="XMLID_388_" class="st0" cx="270.1" cy="203.1" rx="6.4" ry="1.4"/>
</g>
<g id="XMLID_1086_">
	<path id="XMLID_387_" class="st0" d="M304.8,203.1v2.1c0,0.3,2.9,0.6,6.4,0.6c3.5,0,6.4-0.3,6.4-0.6v-2.1H304.8z"/>
	<ellipse id="XMLID_386_" class="st0" cx="311.2" cy="203.1" rx="6.4" ry="1.4"/>
</g>
<ellipse id="XMLID_385_" class="st0" cx="385.4" cy="245" rx="16.7" ry="9.2"/>
<ellipse id="XMLID_384_" class="st0" cx="425.6" cy="245" rx="16.7" ry="9.2"/>
<path id="XMLID_383_" class="st0" d="M443.6,241.7c0,3.7-2,6.6-4.5,6.6h-66.2c-2.5,0-4.5-3-4.5-6.6l0,0c0-3.7,2-6.6,4.5-6.6h66.2
	C441.6,235.1,443.6,238,443.6,241.7L443.6,241.7z"/>
<path id="XMLID_382_" class="st0" d="M443.6,240.4c0,2.9-2,5.3-4.5,5.3h-66.2c-2.5,0-4.5-2.4-4.5-5.3l0,0c0-2.9,2-5.3,4.5-5.3h66.2
	C441.6,235.1,443.6,237.4,443.6,240.4L443.6,240.4z"/>
<path id="XMLID_381_" class="st0" d="M375.7,216.2v24.9c0,1.9,5.2,3.5,11.5,3.5c6.4,0,11.5-1.6,11.5-3.5v-24.9H375.7z"/>
<path id="XMLID_380_" class="st0" d="M413.1,216.2v24.9c0,1.9,5.2,3.5,11.5,3.5c6.4,0,11.5-1.6,11.5-3.5v-24.9H413.1z"/>
<path id="XMLID_379_" class="st0" d="M448,213.9c0,3.1-1.8,5.6-4,5.6h-69.5c-2.2,0-4-2.5-4-5.6l0,0c0-3.1,1.8-5.6,4-5.6H444
	C446.2,208.3,448,210.8,448,213.9L448,213.9z"/>
<path id="XMLID_378_" class="st0" d="M448,212.5c0,2.3-1.8,4.2-4,4.2h-69.5c-2.2,0-4-1.9-4-4.2l0,0c0-2.3,1.8-4.2,4-4.2H444
	C446.2,208.3,448,210.2,448,212.5L448,212.5z"/>
<path id="XMLID_377_" class="st0" d="M483.5,208.8c0,2.8-2.3,5.1-5.1,5.1H415c-2.8,0-5.1-2.3-5.1-5.1l0,0c0-2.8,2.3-5.1,5.1-5.1
	h63.4C481.2,203.7,483.5,206,483.5,208.8L483.5,208.8z"/>
<path id="XMLID_376_" class="st0" d="M481.6,206.3c0,1.4-2.2,2.5-4.9,2.5h-60.9c-2.7,0-4.9-1.1-4.9-2.5l0,0c0-1.4,2.2-2.5,4.9-2.5
	h60.9C479.4,203.7,481.6,204.9,481.6,206.3L481.6,206.3z"/>
<path id="XMLID_375_" class="st0" d="M406,208.6c0,2.8-2.3,5.1-5.1,5.1h-63.4c-2.8,0-5.1-2.3-5.1-5.1l0,0c0-2.8,2.3-5.1,5.1-5.1
	h63.4C403.7,203.6,406,205.8,406,208.6L406,208.6z"/>
<path id="XMLID_374_" class="st0" d="M404.1,206.1c0,1.4-2.2,2.5-4.9,2.5h-60.9c-2.7,0-4.9-1.1-4.9-2.5l0,0c0-1.4,2.2-2.5,4.9-2.5
	h60.9C401.9,203.6,404.1,204.7,404.1,206.1L404.1,206.1z"/>
<g id="XMLID_1071_">
	<path id="XMLID_373_" class="st0" d="M342.3,203.9v2.1c0,0.3,2.9,0.6,6.4,0.6c3.5,0,6.4-0.3,6.4-0.6v-2.1H342.3z"/>
	<ellipse id="XMLID_372_" class="st0" cx="348.7" cy="203.8" rx="6.4" ry="1.4"/>
</g>
<g id="XMLID_1068_">
	<path id="XMLID_371_" class="st0" d="M383.4,203.9v2.1c0,0.3,2.9,0.6,6.4,0.6c3.5,0,6.4-0.3,6.4-0.6v-2.1H383.4z"/>
	<ellipse id="XMLID_370_" class="st0" cx="389.8" cy="203.8" rx="6.4" ry="1.4"/>
</g>
<g id="XMLID_1065_">
	<path id="XMLID_369_" class="st0" d="M415.8,203.9v2.1c0,0.3,2.9,0.6,6.4,0.6c3.5,0,6.4-0.3,6.4-0.6v-2.1H415.8z"/>
	<ellipse id="XMLID_368_" class="st0" cx="422.2" cy="203.8" rx="6.4" ry="1.4"/>
</g>
<ellipse id="XMLID_367_" class="st2" cx="70.1" cy="292" rx="16.7" ry="9.2"/>
<path id="XMLID_366_" class="st2" d="M159.8,293.2c0,3.3-3,6.1-6.8,6.1h-39.1c-3.7,0-6.8-2.7-6.8-6.1l0,0c0-3.3,3-6.1,6.8-6.1H153
	C156.7,287.1,159.8,289.8,159.8,293.2L159.8,293.2z"/>
<path id="XMLID_365_" class="st3" d="M159.8,290.5c0,3.3-3,6.1-6.8,6.1h-39.1c-3.7,0-6.8-2.7-6.8-6.1l0,0c0-3.3,3-6.1,6.8-6.1H153
	C156.7,284.4,159.8,287.1,159.8,290.5L159.8,290.5z"/>
<path id="XMLID_364_" class="st2" d="M236.7,293.2c0,3.3-3,6.1-6.8,6.1h-39.1c-3.7,0-6.8-2.7-6.8-6.1l0,0c0-3.3,3-6.1,6.8-6.1h39.1
	C233.6,287.1,236.7,289.8,236.7,293.2L236.7,293.2z"/>
<path id="XMLID_363_" class="st3" d="M236.7,290.5c0,3.3-3,6.1-6.8,6.1h-39.1c-3.7,0-6.8-2.7-6.8-6.1l0,0c0-3.3,3-6.1,6.8-6.1h39.1
	C233.6,284.4,236.7,287.1,236.7,290.5L236.7,290.5z"/>
<path id="XMLID_362_" class="st2" d="M314.8,293.8c0,3.3-3,6.1-6.8,6.1h-39.1c-3.7,0-6.8-2.7-6.8-6.1l0,0c0-3.3,3-6.1,6.8-6.1H308
	C311.8,287.7,314.8,290.5,314.8,293.8L314.8,293.8z"/>
<path id="XMLID_361_" class="st3" d="M314.8,291.1c0,3.3-3,6.1-6.8,6.1h-39.1c-3.7,0-6.8-2.7-6.8-6.1l0,0c0-3.3,3-6.1,6.8-6.1H308
	C311.8,285.1,314.8,287.8,314.8,291.1L314.8,291.1z"/>
<path id="XMLID_360_" class="st2" d="M396.2,293.8c0,3.3-3,6.1-6.8,6.1h-39.1c-3.7,0-6.8-2.7-6.8-6.1l0,0c0-3.3,3-6.1,6.8-6.1h39.1
	C393.1,287.7,396.2,290.5,396.2,293.8L396.2,293.8z"/>
<path id="XMLID_359_" class="st3" d="M396.2,291.1c0,3.3-3,6.1-6.8,6.1h-39.1c-3.7,0-6.8-2.7-6.8-6.1l0,0c0-3.3,3-6.1,6.8-6.1h39.1
	C393.1,285.1,396.2,287.8,396.2,291.1L396.2,291.1z"/>
<path id="XMLID_358_" class="st4" d="M440.8,241.4"/>
<path id="XMLID_357_" class="st4" d="M440.8,308.2"/>
<ellipse id="XMLID_356_" class="st2" cx="109.6" cy="291.4" rx="16.7" ry="9.2"/>
<path id="XMLID_355_" class="st3" d="M127,288c0,3.7-2,6.6-4.5,6.6H56.3c-2.5,0-4.5-3-4.5-6.6l0,0c0-3.7,2-6.6,4.5-6.6h66.2
	C125,281.4,127,284.4,127,288L127,288z"/>
<path id="XMLID_354_" class="st5" d="M127,286.7c0,2.9-2,5.3-4.5,5.3H56.3c-2.5,0-4.5-2.4-4.5-5.3l0,0c0-2.9,2-5.3,4.5-5.3h66.2
	C125,281.4,127,283.8,127,286.7L127,286.7z"/>
<path id="XMLID_353_" class="st2" d="M97.3,262.5v24.9c0,1.9,5.2,3.5,11.5,3.5s11.5-1.6,11.5-3.5v-24.9H97.3z"/>
<path id="XMLID_352_" class="st2" d="M59.4,262.5v24.9c0,1.9,5.2,3.5,11.5,3.5c6.4,0,11.5-1.6,11.5-3.5v-24.9H59.4z"/>
<path id="XMLID_351_" class="st3" d="M126.3,259.7c0,3.1-1.8,5.6-4,5.6H52.8c-2.2,0-4-2.5-4-5.6l0,0c0-3.1,1.8-5.6,4-5.6h69.5
	C124.5,254.1,126.3,256.6,126.3,259.7L126.3,259.7z"/>
<path id="XMLID_350_" class="st5" d="M126.3,258.3c0,2.3-1.8,4.2-4,4.2H52.8c-2.2,0-4-1.9-4-4.2l0,0c0-2.3,1.8-4.2,4-4.2h69.5
	C124.5,254.1,126.3,256,126.3,258.3L126.3,258.3z"/>
<path id="XMLID_349_" class="st3" d="M86.8,254.6c0,2.8-2.3,5.1-5.1,5.1H18.3c-2.8,0-5.1-2.3-5.1-5.1l0,0c0-2.8,2.3-5.1,5.1-5.1
	h63.4C84.6,249.6,86.8,251.8,86.8,254.6L86.8,254.6z"/>
<path id="XMLID_348_" class="st5" d="M84.9,252.1c0,1.4-2.2,2.5-4.9,2.5H19.1c-2.7,0-4.9-1.1-4.9-2.5l0,0c0-1.4,2.2-2.5,4.9-2.5
	h60.9C82.8,249.6,84.9,250.7,84.9,252.1L84.9,252.1z"/>
<g id="XMLID_1042_">
	<path id="XMLID_347_" class="st2" d="M64.9,249.5v2.1c0,0.3,2.9,0.6,6.4,0.6s6.4-0.3,6.4-0.6v-2.1H64.9z"/>
	<ellipse id="XMLID_346_" class="st3" cx="71.3" cy="249.4" rx="6.4" ry="1.4"/>
</g>
<ellipse id="XMLID_345_" class="st2" cx="149.7" cy="290.5" rx="16.7" ry="9.2"/>
<ellipse id="XMLID_344_" class="st2" cx="189.9" cy="290.5" rx="16.7" ry="9.2"/>
<path id="XMLID_343_" class="st3" d="M207.3,288c0,3.7-2,6.6-4.5,6.6h-66.2c-2.5,0-4.5-3-4.5-6.6l0,0c0-3.7,2-6.6,4.5-6.6h66.2
	C205.3,281.4,207.3,284.4,207.3,288L207.3,288z"/>
<path id="XMLID_342_" class="st5" d="M207.3,286.7c0,2.9-2,5.3-4.5,5.3h-66.2c-2.5,0-4.5-2.4-4.5-5.3l0,0c0-2.9,2-5.3,4.5-5.3h66.2
	C205.3,281.4,207.3,283.8,207.3,286.7L207.3,286.7z"/>
<path id="XMLID_341_" class="st2" d="M136.7,262.5v24.9c0,1.9,5.2,3.5,11.5,3.5c6.4,0,11.5-1.6,11.5-3.5v-24.9H136.7z"/>
<path id="XMLID_340_" class="st2" d="M176.4,262.5v24.9c0,1.9,5.2,3.5,11.5,3.5c6.4,0,11.5-1.6,11.5-3.5v-24.9H176.4z"/>
<path id="XMLID_339_" class="st3" d="M207.3,259.7c0,3.1-1.8,5.6-4,5.6h-69.5c-2.2,0-4-2.5-4-5.6l0,0c0-3.1,1.8-5.6,4-5.6h69.5
	C205.5,254.1,207.3,256.6,207.3,259.7L207.3,259.7z"/>
<path id="XMLID_338_" class="st5" d="M207.3,258.3c0,2.3-1.8,4.2-4,4.2h-69.5c-2.2,0-4-1.9-4-4.2l0,0c0-2.3,1.8-4.2,4-4.2h69.5
	C205.5,254.1,207.3,256,207.3,258.3L207.3,258.3z"/>
<path id="XMLID_337_" class="st3" d="M164.9,254.6c0,2.8-2.3,5.1-5.1,5.1H96.4c-2.8,0-5.1-2.3-5.1-5.1l0,0c0-2.8,2.3-5.1,5.1-5.1
	h63.4C162.3,249.6,164.9,251.8,164.9,254.6L164.9,254.6z"/>
<path id="XMLID_336_" class="st5" d="M158.1,254.6H97.2c-2.7,0-4.9-1.1-4.9-2.5l0,0c0-1.4,2.2-2.5,4.9-2.5h60.9
	c2.7,0,5.3,0.8,4.9,2.5C163,252.1,163.1,254.9,158.1,254.6z"/>
<g id="XMLID_1029_">
	<path id="XMLID_335_" class="st2" d="M100.7,249.9v2.1c0,0.3,2.9,0.6,6.4,0.6s6.4-0.3,6.4-0.6v-2.1H100.7z"/>
	<ellipse id="XMLID_334_" class="st3" cx="107.1" cy="249.8" rx="6.4" ry="1.4"/>
</g>
<g id="XMLID_1026_">
	<path id="XMLID_333_" class="st2" d="M143.3,249.5v2.1c0,0.3,2.9,0.6,6.4,0.6c3.5,0,6.4-0.3,6.4-0.6v-2.1H143.3z"/>
	<ellipse id="XMLID_332_" class="st3" cx="149.7" cy="249.4" rx="6.4" ry="1.4"/>
</g>
<ellipse id="XMLID_331_" class="st2" cx="229.1" cy="291.4" rx="16.7" ry="9.2"/>
<ellipse id="XMLID_330_" class="st2" cx="268.6" cy="291.4" rx="16.7" ry="9.2"/>
<path id="XMLID_329_" class="st3" d="M286.7,288c0,3.7-2,6.6-4.5,6.6H216c-2.5,0-4.5-3-4.5-6.6l0,0c0-3.7,2-6.6,4.5-6.6h66.2
	C284.7,281.4,286.7,284.4,286.7,288L286.7,288z"/>
<path id="XMLID_328_" class="st5" d="M286.7,286.7c0,2.9-2,5.3-4.5,5.3H216c-2.5,0-4.5-2.4-4.5-5.3l0,0c0-2.9,2-5.3,4.5-5.3h66.2
	C284.7,281.4,286.7,283.8,286.7,286.7L286.7,286.7z"/>
<path id="XMLID_327_" class="st2" d="M217.6,262.5v24.9c0,1.9,5.2,3.5,11.5,3.5c6.4,0,11.5-1.6,11.5-3.5v-24.9H217.6z"/>
<path id="XMLID_326_" class="st2" d="M257.5,262.5v24.9c0,1.9,5.2,3.5,11.5,3.5s11.5-1.6,11.5-3.5v-24.9H257.5z"/>
<path id="XMLID_325_" class="st3" d="M287.9,259.7c0,3.1-1.8,5.6-4,5.6h-69.5c-2.2,0-4-2.5-4-5.6l0,0c0-3.1,1.8-5.6,4-5.6h69.5
	C286.1,254.1,287.9,256.6,287.9,259.7L287.9,259.7z"/>
<path id="XMLID_324_" class="st5" d="M287.9,258.3c0,2.3-1.8,4.2-4,4.2h-69.5c-2.2,0-4-1.9-4-4.2l0,0c0-2.3,1.8-4.2,4-4.2h69.5
	C286.1,254.1,287.9,256,287.9,258.3L287.9,258.3z"/>
<path id="XMLID_323_" class="st3" d="M245.7,254.6c0,2.8-2.3,5.1-5.1,5.1h-63.4c-2.8,0-5.1-2.3-5.1-5.1l0,0c0-2.8,2.3-5.1,5.1-5.1
	h63.4C243.5,249.6,245.7,251.8,245.7,254.6L245.7,254.6z"/>
<path id="XMLID_322_" class="st5" d="M243.8,252.1c0,1.4-2.2,2.5-4.9,2.5H178c-2.7,0-4.9-1.1-4.9-2.5l0,0c0-1.4,2.2-2.5,4.9-2.5H239
	C241.7,249.6,243.8,250.7,243.8,252.1L243.8,252.1z"/>
<g id="XMLID_1013_">
	<path id="XMLID_321_" class="st2" d="M181.8,249.7v2.1c0,0.3,2.9,0.6,6.4,0.6c3.5,0,6.4-0.3,6.4-0.6v-2.1H181.8z"/>
	<ellipse id="XMLID_320_" class="st3" cx="188.2" cy="249.6" rx="6.4" ry="1.4"/>
</g>
<g id="XMLID_1010_">
	<path id="XMLID_319_" class="st2" d="M224.4,249.3v2.1c0,0.3,2.9,0.6,6.4,0.6s6.4-0.3,6.4-0.6v-2.1H224.4z"/>
	<ellipse id="XMLID_318_" class="st3" cx="230.8" cy="249.2" rx="6.4" ry="1.4"/>
</g>
<ellipse id="XMLID_317_" class="st2" cx="308.8" cy="291.8" rx="16.7" ry="9.2"/>
<ellipse id="XMLID_316_" class="st2" cx="347.9" cy="291.4" rx="16.7" ry="9.2"/>
<path id="XMLID_315_" class="st3" d="M365.6,288c0,3.7-2,6.6-4.5,6.6h-66.2c-2.5,0-4.5-3-4.5-6.6l0,0c0-3.7,2-6.6,4.5-6.6h66.2
	C363.6,281.4,365.6,284.4,365.6,288L365.6,288z"/>
<path id="XMLID_314_" class="st5" d="M365.6,286.7c0,2.9-2,5.3-4.5,5.3h-66.2c-2.5,0-4.5-2.4-4.5-5.3l0,0c0-2.9,2-5.3,4.5-5.3h66.2
	C363.6,281.4,365.6,283.8,365.6,286.7L365.6,286.7z"/>
<path id="XMLID_313_" class="st2" d="M297.7,262.5v24.9c0,1.9,5.2,3.5,11.5,3.5s11.5-1.6,11.5-3.5v-24.9H297.7z"/>
<path id="XMLID_312_" class="st2" d="M337,262.5v24.9c0,1.9,5.2,3.5,11.5,3.5c6.4,0,11.5-1.6,11.5-3.5v-24.9H337z"/>
<path id="XMLID_311_" class="st3" d="M369,259.7c0,3.1-1.8,5.6-4,5.6h-69.5c-2.2,0-4-2.5-4-5.6l0,0c0-3.1,1.8-5.6,4-5.6H365
	C367.2,254.1,369,256.6,369,259.7L369,259.7z"/>
<path id="XMLID_310_" class="st5" d="M369,258.3c0,2.3-1.8,4.2-4,4.2h-69.5c-2.2,0-4-1.9-4-4.2l0,0c0-2.3,1.8-4.2,4-4.2H365
	C367.2,254.1,369,256,369,258.3L369,258.3z"/>
<path id="XMLID_309_" class="st3" d="M328,255.2c0,2.8-2.3,5.1-5.1,5.1h-63.4c-2.8,0-5.1-2.3-5.1-5.1l0,0c0-2.8,2.3-5.1,5.1-5.1
	h63.4C325.7,250.1,328,252.4,328,255.2L328,255.2z"/>
<path id="XMLID_308_" class="st5" d="M326.1,252.6c0,1.4-2.2,2.5-4.9,2.5h-60.9c-2.7,0-4.9-1.1-4.9-2.5l0,0c0-1.4,2.2-2.5,4.9-2.5
	h60.9C323.9,250.1,326.1,251.2,326.1,252.6L326.1,252.6z"/>
<g id="XMLID_997_">
	<path id="XMLID_307_" class="st2" d="M263.7,249.5v2.1c0,0.3,2.9,0.6,6.4,0.6c3.5,0,6.4-0.3,6.4-0.6v-2.1H263.7z"/>
	<ellipse id="XMLID_306_" class="st3" cx="270.1" cy="249.4" rx="6.4" ry="1.4"/>
</g>
<g id="XMLID_994_">
	<path id="XMLID_305_" class="st2" d="M304.8,249.5v2.1c0,0.3,2.9,0.6,6.4,0.6c3.5,0,6.4-0.3,6.4-0.6v-2.1H304.8z"/>
	<ellipse id="XMLID_304_" class="st3" cx="311.2" cy="249.4" rx="6.4" ry="1.4"/>
</g>
<ellipse id="XMLID_303_" class="st2" cx="385.5" cy="291.4" rx="16.7" ry="9.2"/>
<ellipse id="XMLID_302_" class="st2" cx="425.7" cy="291.4" rx="16.7" ry="9.2"/>
<path id="XMLID_301_" class="st3" d="M443.6,288c0,3.7-2,6.6-4.5,6.6h-66.2c-2.5,0-4.5-3-4.5-6.6l0,0c0-3.7,2-6.6,4.5-6.6h66.2
	C441.6,281.4,443.6,284.4,443.6,288L443.6,288z"/>
<path id="XMLID_300_" class="st5" d="M443.6,286.7c0,2.9-2,5.3-4.5,5.3h-66.2c-2.5,0-4.5-2.4-4.5-5.3l0,0c0-2.9,2-5.3,4.5-5.3h66.2
	C441.6,281.4,443.6,283.8,443.6,286.7L443.6,286.7z"/>
<path id="XMLID_299_" class="st2" d="M375.7,262.5v24.9c0,1.9,5.2,3.5,11.5,3.5c6.4,0,11.5-1.6,11.5-3.5v-24.9H375.7z"/>
<path id="XMLID_298_" class="st2" d="M413.1,262.5v24.9c0,1.9,5.2,3.5,11.5,3.5c6.4,0,11.5-1.6,11.5-3.5v-24.9H413.1z"/>
<path id="XMLID_297_" class="st3" d="M448,260.2c0,3.1-1.8,5.6-4,5.6h-69.5c-2.2,0-4-2.5-4-5.6l0,0c0-3.1,1.8-5.6,4-5.6H444
	C446.2,254.6,448,257.1,448,260.2L448,260.2z"/>
<path id="XMLID_296_" class="st5" d="M448,258.9c0,2.3-1.8,4.2-4,4.2h-69.5c-2.2,0-4-1.9-4-4.2l0,0c0-2.3,1.8-4.2,4-4.2H444
	C446.2,254.6,448,256.5,448,258.9L448,258.9z"/>
<path id="XMLID_295_" class="st3" d="M483.5,255.2c0,2.8-2.3,5.1-5.1,5.1H415c-2.8,0-5.1-2.3-5.1-5.1l0,0c0-2.8,2.3-5.1,5.1-5.1
	h63.4C481.2,250.1,483.5,252.4,483.5,255.2L483.5,255.2z"/>
<path id="XMLID_294_" class="st5" d="M481.6,252.6c0,1.4-2.2,2.5-4.9,2.5h-60.9c-2.7,0-4.9-1.1-4.9-2.5l0,0c0-1.4,2.2-2.5,4.9-2.5
	h60.9C479.4,250.1,481.6,251.2,481.6,252.6L481.6,252.6z"/>
<path id="XMLID_293_" class="st3" d="M406,255c0,2.8-2.3,5.1-5.1,5.1h-63.4c-2.8,0-5.1-2.3-5.1-5.1l0,0c0-2.8,2.3-5.1,5.1-5.1H401
	C403.8,249.9,406,252.2,406,255L406,255z"/>
<path id="XMLID_292_" class="st5" d="M404.1,252.5c0,1.4-2.2,2.5-4.9,2.5h-60.9c-2.7,0-4.9-1.1-4.9-2.5l0,0c0-1.4,2.2-2.5,4.9-2.5
	h60.9C402,249.9,404.1,251.1,404.1,252.5L404.1,252.5z"/>
<g id="XMLID_979_">
	<path id="XMLID_291_" class="st2" d="M342.3,250.3v2.1c0,0.3,2.9,0.6,6.4,0.6c3.5,0,6.4-0.3,6.4-0.6v-2.1H342.3z"/>
	<ellipse id="XMLID_290_" class="st3" cx="348.7" cy="250.2" rx="6.4" ry="1.4"/>
</g>
<g id="XMLID_976_">
	<path id="XMLID_289_" class="st2" d="M383.4,250.3v2.1c0,0.3,2.9,0.6,6.4,0.6c3.5,0,6.4-0.3,6.4-0.6v-2.1H383.4z"/>
	<ellipse id="XMLID_288_" class="st3" cx="389.8" cy="250.2" rx="6.4" ry="1.4"/>
</g>
<g id="XMLID_973_">
	<path id="XMLID_287_" class="st2" d="M415.8,250.3v2.1c0,0.3,2.9,0.6,6.4,0.6c3.5,0,6.4-0.3,6.4-0.6v-2.1H415.8z"/>
	<ellipse id="XMLID_286_" class="st3" cx="422.2" cy="250.2" rx="6.4" ry="1.4"/>
</g>
<ellipse id="XMLID_285_" class="st2" cx="70.1" cy="292" rx="16.7" ry="9.2"/>
<path id="XMLID_284_" class="st2" d="M159.8,293.2c0,3.3-3,6.1-6.8,6.1h-39.1c-3.7,0-6.8-2.7-6.8-6.1l0,0c0-3.3,3-6.1,6.8-6.1H153
	C156.7,287.1,159.8,289.8,159.8,293.2L159.8,293.2z"/>
<path id="XMLID_283_" class="st3" d="M159.8,290.5c0,3.3-3,6.1-6.8,6.1h-39.1c-3.7,0-6.8-2.7-6.8-6.1l0,0c0-3.3,3-6.1,6.8-6.1H153
	C156.7,284.4,159.8,287.1,159.8,290.5L159.8,290.5z"/>
<path id="XMLID_282_" class="st2" d="M236.7,293.2c0,3.3-3,6.1-6.8,6.1h-39.1c-3.7,0-6.8-2.7-6.8-6.1l0,0c0-3.3,3-6.1,6.8-6.1h39.1
	C233.6,287.1,236.7,289.8,236.7,293.2L236.7,293.2z"/>
<path id="XMLID_281_" class="st3" d="M236.7,290.5c0,3.3-3,6.1-6.8,6.1h-39.1c-3.7,0-6.8-2.7-6.8-6.1l0,0c0-3.3,3-6.1,6.8-6.1h39.1
	C233.6,284.4,236.7,287.1,236.7,290.5L236.7,290.5z"/>
<path id="XMLID_280_" class="st2" d="M314.8,293.8c0,3.3-3,6.1-6.8,6.1h-39.1c-3.7,0-6.8-2.7-6.8-6.1l0,0c0-3.3,3-6.1,6.8-6.1H308
	C311.8,287.7,314.8,290.5,314.8,293.8L314.8,293.8z"/>
<path id="XMLID_279_" class="st3" d="M314.8,291.1c0,3.3-3,6.1-6.8,6.1h-39.1c-3.7,0-6.8-2.7-6.8-6.1l0,0c0-3.3,3-6.1,6.8-6.1H308
	C311.8,285.1,314.8,287.8,314.8,291.1L314.8,291.1z"/>
<path id="XMLID_278_" class="st2" d="M396.2,293.8c0,3.3-3,6.1-6.8,6.1h-39.1c-3.7,0-6.8-2.7-6.8-6.1l0,0c0-3.3,3-6.1,6.8-6.1h39.1
	C393.1,287.7,396.2,290.5,396.2,293.8L396.2,293.8z"/>
<path id="XMLID_277_" class="st3" d="M396.2,291.1c0,3.3-3,6.1-6.8,6.1h-39.1c-3.7,0-6.8-2.7-6.8-6.1l0,0c0-3.3,3-6.1,6.8-6.1h39.1
	C393.1,285.1,396.2,287.8,396.2,291.1L396.2,291.1z"/>
<path id="XMLID_276_" class="st4" d="M440.8,241.4"/>
<path id="XMLID_275_" class="st4" d="M440.8,308.2"/>
<ellipse id="XMLID_274_" class="st2" cx="109.6" cy="291.4" rx="16.7" ry="9.2"/>
<path id="XMLID_273_" class="st3" d="M127,288c0,3.7-2,6.6-4.5,6.6H56.3c-2.5,0-4.5-3-4.5-6.6l0,0c0-3.7,2-6.6,4.5-6.6h66.2
	C125,281.4,127,284.4,127,288L127,288z"/>
<path id="XMLID_272_" class="st5" d="M127,286.7c0,2.9-2,5.3-4.5,5.3H56.3c-2.5,0-4.5-2.4-4.5-5.3l0,0c0-2.9,2-5.3,4.5-5.3h66.2
	C125,281.4,127,283.8,127,286.7L127,286.7z"/>
<path id="XMLID_271_" class="st2" d="M97.3,262.5v24.9c0,1.9,5.2,3.5,11.5,3.5s11.5-1.6,11.5-3.5v-24.9H97.3z"/>
<path id="XMLID_270_" class="st2" d="M59.4,262.5v24.9c0,1.9,5.2,3.5,11.5,3.5c6.4,0,11.5-1.6,11.5-3.5v-24.9H59.4z"/>
<path id="XMLID_269_" class="st3" d="M126.3,259.7c0,3.1-1.8,5.6-4,5.6H52.8c-2.2,0-4-2.5-4-5.6l0,0c0-3.1,1.8-5.6,4-5.6h69.5
	C124.5,254.1,126.3,256.6,126.3,259.7L126.3,259.7z"/>
<path id="XMLID_268_" class="st5" d="M126.3,258.3c0,2.3-1.8,4.2-4,4.2H52.8c-2.2,0-4-1.9-4-4.2l0,0c0-2.3,1.8-4.2,4-4.2h69.5
	C124.5,254.1,126.3,256,126.3,258.3L126.3,258.3z"/>
<path id="XMLID_267_" class="st3" d="M86.8,254.6c0,2.8-2.3,5.1-5.1,5.1H18.3c-2.8,0-5.1-2.3-5.1-5.1l0,0c0-2.8,2.3-5.1,5.1-5.1
	h63.4C84.6,249.6,86.8,251.8,86.8,254.6L86.8,254.6z"/>
<path id="XMLID_266_" class="st5" d="M84.9,252.1c0,1.4-2.2,2.5-4.9,2.5H19.1c-2.7,0-4.9-1.1-4.9-2.5l0,0c0-1.4,2.2-2.5,4.9-2.5
	h60.9C82.8,249.6,84.9,250.7,84.9,252.1L84.9,252.1z"/>
<g id="XMLID_950_">
	<path id="XMLID_265_" class="st2" d="M64.9,249.5v2.1c0,0.3,2.9,0.6,6.4,0.6s6.4-0.3,6.4-0.6v-2.1H64.9z"/>
	<ellipse id="XMLID_264_" class="st3" cx="71.3" cy="249.4" rx="6.4" ry="1.4"/>
</g>
<ellipse id="XMLID_263_" class="st2" cx="149.7" cy="290.5" rx="16.7" ry="9.2"/>
<ellipse id="XMLID_262_" class="st2" cx="189.9" cy="290.5" rx="16.7" ry="9.2"/>
<path id="XMLID_261_" class="st3" d="M207.3,288c0,3.7-2,6.6-4.5,6.6h-66.2c-2.5,0-4.5-3-4.5-6.6l0,0c0-3.7,2-6.6,4.5-6.6h66.2
	C205.3,281.4,207.3,284.4,207.3,288L207.3,288z"/>
<path id="XMLID_260_" class="st5" d="M207.3,286.7c0,2.9-2,5.3-4.5,5.3h-66.2c-2.5,0-4.5-2.4-4.5-5.3l0,0c0-2.9,2-5.3,4.5-5.3h66.2
	C205.3,281.4,207.3,283.8,207.3,286.7L207.3,286.7z"/>
<path id="XMLID_259_" class="st2" d="M136.7,262.5v24.9c0,1.9,5.2,3.5,11.5,3.5c6.4,0,11.5-1.6,11.5-3.5v-24.9H136.7z"/>
<path id="XMLID_258_" class="st2" d="M176.4,262.5v24.9c0,1.9,5.2,3.5,11.5,3.5c6.4,0,11.5-1.6,11.5-3.5v-24.9H176.4z"/>
<path id="XMLID_257_" class="st3" d="M207.3,259.7c0,3.1-1.8,5.6-4,5.6h-69.5c-2.2,0-4-2.5-4-5.6l0,0c0-3.1,1.8-5.6,4-5.6h69.5
	C205.5,254.1,207.3,256.6,207.3,259.7L207.3,259.7z"/>
<path id="XMLID_256_" class="st5" d="M207.3,258.3c0,2.3-1.8,4.2-4,4.2h-69.5c-2.2,0-4-1.9-4-4.2l0,0c0-2.3,1.8-4.2,4-4.2h69.5
	C205.5,254.1,207.3,256,207.3,258.3L207.3,258.3z"/>
<path id="XMLID_255_" class="st3" d="M164.9,254.6c0,2.8-2.3,5.1-5.1,5.1H96.4c-2.8,0-5.1-2.3-5.1-5.1l0,0c0-2.8,2.3-5.1,5.1-5.1
	h63.4C162.3,249.6,164.9,251.8,164.9,254.6L164.9,254.6z"/>
<path id="XMLID_254_" class="st5" d="M158.1,254.6H97.2c-2.7,0-4.9-1.1-4.9-2.5l0,0c0-1.4,2.2-2.5,4.9-2.5h60.9
	c2.7,0,5.3,0.8,4.9,2.5C163,252.1,163.1,254.9,158.1,254.6z"/>
<g id="XMLID_937_">
	<path id="XMLID_253_" class="st2" d="M100.7,249.9v2.1c0,0.3,2.9,0.6,6.4,0.6s6.4-0.3,6.4-0.6v-2.1H100.7z"/>
	<ellipse id="XMLID_252_" class="st3" cx="107.1" cy="249.8" rx="6.4" ry="1.4"/>
</g>
<g id="XMLID_934_">
	<path id="XMLID_251_" class="st2" d="M143.3,249.5v2.1c0,0.3,2.9,0.6,6.4,0.6c3.5,0,6.4-0.3,6.4-0.6v-2.1H143.3z"/>
	<ellipse id="XMLID_250_" class="st3" cx="149.7" cy="249.4" rx="6.4" ry="1.4"/>
</g>
<ellipse id="XMLID_249_" class="st2" cx="229.1" cy="291.4" rx="16.7" ry="9.2"/>
<ellipse id="XMLID_248_" class="st2" cx="268.6" cy="291.4" rx="16.7" ry="9.2"/>
<path id="XMLID_247_" class="st3" d="M286.7,288c0,3.7-2,6.6-4.5,6.6H216c-2.5,0-4.5-3-4.5-6.6l0,0c0-3.7,2-6.6,4.5-6.6h66.2
	C284.7,281.4,286.7,284.4,286.7,288L286.7,288z"/>
<path id="XMLID_246_" class="st5" d="M286.7,286.7c0,2.9-2,5.3-4.5,5.3H216c-2.5,0-4.5-2.4-4.5-5.3l0,0c0-2.9,2-5.3,4.5-5.3h66.2
	C284.7,281.4,286.7,283.8,286.7,286.7L286.7,286.7z"/>
<path id="XMLID_245_" class="st2" d="M217.6,262.5v24.9c0,1.9,5.2,3.5,11.5,3.5c6.4,0,11.5-1.6,11.5-3.5v-24.9H217.6z"/>
<path id="XMLID_244_" class="st2" d="M257.5,262.5v24.9c0,1.9,5.2,3.5,11.5,3.5s11.5-1.6,11.5-3.5v-24.9H257.5z"/>
<path id="XMLID_243_" class="st3" d="M287.9,259.7c0,3.1-1.8,5.6-4,5.6h-69.5c-2.2,0-4-2.5-4-5.6l0,0c0-3.1,1.8-5.6,4-5.6h69.5
	C286.1,254.1,287.9,256.6,287.9,259.7L287.9,259.7z"/>
<path id="XMLID_242_" class="st5" d="M287.9,258.3c0,2.3-1.8,4.2-4,4.2h-69.5c-2.2,0-4-1.9-4-4.2l0,0c0-2.3,1.8-4.2,4-4.2h69.5
	C286.1,254.1,287.9,256,287.9,258.3L287.9,258.3z"/>
<path id="XMLID_241_" class="st3" d="M245.7,254.6c0,2.8-2.3,5.1-5.1,5.1h-63.4c-2.8,0-5.1-2.3-5.1-5.1l0,0c0-2.8,2.3-5.1,5.1-5.1
	h63.4C243.5,249.6,245.7,251.8,245.7,254.6L245.7,254.6z"/>
<path id="XMLID_240_" class="st5" d="M243.8,252.1c0,1.4-2.2,2.5-4.9,2.5H178c-2.7,0-4.9-1.1-4.9-2.5l0,0c0-1.4,2.2-2.5,4.9-2.5H239
	C241.7,249.6,243.8,250.7,243.8,252.1L243.8,252.1z"/>
<g id="XMLID_921_">
	<path id="XMLID_239_" class="st2" d="M181.8,249.7v2.1c0,0.3,2.9,0.6,6.4,0.6c3.5,0,6.4-0.3,6.4-0.6v-2.1H181.8z"/>
	<ellipse id="XMLID_238_" class="st3" cx="188.2" cy="249.6" rx="6.4" ry="1.4"/>
</g>
<g id="XMLID_918_">
	<path id="XMLID_237_" class="st2" d="M224.4,249.3v2.1c0,0.3,2.9,0.6,6.4,0.6s6.4-0.3,6.4-0.6v-2.1H224.4z"/>
	<ellipse id="XMLID_236_" class="st3" cx="230.8" cy="249.2" rx="6.4" ry="1.4"/>
</g>
<ellipse id="XMLID_235_" class="st2" cx="308.8" cy="291.8" rx="16.7" ry="9.2"/>
<ellipse id="XMLID_234_" class="st2" cx="347.9" cy="291.4" rx="16.7" ry="9.2"/>
<path id="XMLID_233_" class="st3" d="M365.6,288c0,3.7-2,6.6-4.5,6.6h-66.2c-2.5,0-4.5-3-4.5-6.6l0,0c0-3.7,2-6.6,4.5-6.6h66.2
	C363.6,281.4,365.6,284.4,365.6,288L365.6,288z"/>
<path id="XMLID_232_" class="st5" d="M365.6,286.7c0,2.9-2,5.3-4.5,5.3h-66.2c-2.5,0-4.5-2.4-4.5-5.3l0,0c0-2.9,2-5.3,4.5-5.3h66.2
	C363.6,281.4,365.6,283.8,365.6,286.7L365.6,286.7z"/>
<path id="XMLID_231_" class="st2" d="M297.7,262.5v24.9c0,1.9,5.2,3.5,11.5,3.5s11.5-1.6,11.5-3.5v-24.9H297.7z"/>
<path id="XMLID_230_" class="st2" d="M337,262.5v24.9c0,1.9,5.2,3.5,11.5,3.5c6.4,0,11.5-1.6,11.5-3.5v-24.9H337z"/>
<path id="XMLID_229_" class="st3" d="M369,259.7c0,3.1-1.8,5.6-4,5.6h-69.5c-2.2,0-4-2.5-4-5.6l0,0c0-3.1,1.8-5.6,4-5.6H365
	C367.2,254.1,369,256.6,369,259.7L369,259.7z"/>
<path id="XMLID_228_" class="st5" d="M369,258.3c0,2.3-1.8,4.2-4,4.2h-69.5c-2.2,0-4-1.9-4-4.2l0,0c0-2.3,1.8-4.2,4-4.2H365
	C367.2,254.1,369,256,369,258.3L369,258.3z"/>
<path id="XMLID_227_" class="st3" d="M328,255.2c0,2.8-2.3,5.1-5.1,5.1h-63.4c-2.8,0-5.1-2.3-5.1-5.1l0,0c0-2.8,2.3-5.1,5.1-5.1
	h63.4C325.7,250.1,328,252.4,328,255.2L328,255.2z"/>
<path id="XMLID_226_" class="st5" d="M326.1,252.6c0,1.4-2.2,2.5-4.9,2.5h-60.9c-2.7,0-4.9-1.1-4.9-2.5l0,0c0-1.4,2.2-2.5,4.9-2.5
	h60.9C323.9,250.1,326.1,251.2,326.1,252.6L326.1,252.6z"/>
<g id="XMLID_905_">
	<path id="XMLID_225_" class="st2" d="M263.7,249.5v2.1c0,0.3,2.9,0.6,6.4,0.6c3.5,0,6.4-0.3,6.4-0.6v-2.1H263.7z"/>
	<ellipse id="XMLID_224_" class="st3" cx="270.1" cy="249.4" rx="6.4" ry="1.4"/>
</g>
<g id="XMLID_902_">
	<path id="XMLID_223_" class="st2" d="M304.8,249.5v2.1c0,0.3,2.9,0.6,6.4,0.6c3.5,0,6.4-0.3,6.4-0.6v-2.1H304.8z"/>
	<ellipse id="XMLID_222_" class="st3" cx="311.2" cy="249.4" rx="6.4" ry="1.4"/>
</g>
<ellipse id="XMLID_221_" class="st2" cx="385.5" cy="291.4" rx="16.7" ry="9.2"/>
<ellipse id="XMLID_220_" class="st2" cx="425.7" cy="291.4" rx="16.7" ry="9.2"/>
<path id="XMLID_219_" class="st3" d="M443.6,288c0,3.7-2,6.6-4.5,6.6h-66.2c-2.5,0-4.5-3-4.5-6.6l0,0c0-3.7,2-6.6,4.5-6.6h66.2
	C441.6,281.4,443.6,284.4,443.6,288L443.6,288z"/>
<path id="XMLID_218_" class="st5" d="M443.6,286.7c0,2.9-2,5.3-4.5,5.3h-66.2c-2.5,0-4.5-2.4-4.5-5.3l0,0c0-2.9,2-5.3,4.5-5.3h66.2
	C441.6,281.4,443.6,283.8,443.6,286.7L443.6,286.7z"/>
<path id="XMLID_217_" class="st2" d="M375.7,262.5v24.9c0,1.9,5.2,3.5,11.5,3.5c6.4,0,11.5-1.6,11.5-3.5v-24.9H375.7z"/>
<path id="XMLID_216_" class="st2" d="M413.1,262.5v24.9c0,1.9,5.2,3.5,11.5,3.5c6.4,0,11.5-1.6,11.5-3.5v-24.9H413.1z"/>
<path id="XMLID_215_" class="st3" d="M448,260.2c0,3.1-1.8,5.6-4,5.6h-69.5c-2.2,0-4-2.5-4-5.6l0,0c0-3.1,1.8-5.6,4-5.6H444
	C446.2,254.6,448,257.1,448,260.2L448,260.2z"/>
<path id="XMLID_214_" class="st5" d="M448,258.9c0,2.3-1.8,4.2-4,4.2h-69.5c-2.2,0-4-1.9-4-4.2l0,0c0-2.3,1.8-4.2,4-4.2H444
	C446.2,254.6,448,256.5,448,258.9L448,258.9z"/>
<path id="XMLID_213_" class="st3" d="M483.5,255.2c0,2.8-2.3,5.1-5.1,5.1H415c-2.8,0-5.1-2.3-5.1-5.1l0,0c0-2.8,2.3-5.1,5.1-5.1
	h63.4C481.2,250.1,483.5,252.4,483.5,255.2L483.5,255.2z"/>
<path id="XMLID_212_" class="st5" d="M481.6,252.6c0,1.4-2.2,2.5-4.9,2.5h-60.9c-2.7,0-4.9-1.1-4.9-2.5l0,0c0-1.4,2.2-2.5,4.9-2.5
	h60.9C479.4,250.1,481.6,251.2,481.6,252.6L481.6,252.6z"/>
<path id="XMLID_211_" class="st3" d="M406,255c0,2.8-2.3,5.1-5.1,5.1h-63.4c-2.8,0-5.1-2.3-5.1-5.1l0,0c0-2.8,2.3-5.1,5.1-5.1H401
	C403.8,249.9,406,252.2,406,255L406,255z"/>
<path id="XMLID_210_" class="st5" d="M404.1,252.5c0,1.4-2.2,2.5-4.9,2.5h-60.9c-2.7,0-4.9-1.1-4.9-2.5l0,0c0-1.4,2.2-2.5,4.9-2.5
	h60.9C402,249.9,404.1,251.1,404.1,252.5L404.1,252.5z"/>
<g id="XMLID_887_">
	<path id="XMLID_209_" class="st2" d="M342.3,250.3v2.1c0,0.3,2.9,0.6,6.4,0.6c3.5,0,6.4-0.3,6.4-0.6v-2.1H342.3z"/>
	<ellipse id="XMLID_208_" class="st3" cx="348.7" cy="250.2" rx="6.4" ry="1.4"/>
</g>
<g id="XMLID_884_">
	<path id="XMLID_207_" class="st2" d="M383.4,250.3v2.1c0,0.3,2.9,0.6,6.4,0.6c3.5,0,6.4-0.3,6.4-0.6v-2.1H383.4z"/>
	<ellipse id="XMLID_206_" class="st3" cx="389.8" cy="250.2" rx="6.4" ry="1.4"/>
</g>
<g id="XMLID_881_">
	<path id="XMLID_205_" class="st2" d="M415.8,250.3v2.1c0,0.3,2.9,0.6,6.4,0.6c3.5,0,6.4-0.3,6.4-0.6v-2.1H415.8z"/>
	<ellipse id="XMLID_204_" class="st3" cx="422.2" cy="250.2" rx="6.4" ry="1.4"/>
</g>
<ellipse id="XMLID_203_" class="st2" cx="70.1" cy="245.7" rx="16.7" ry="9.2"/>
<path id="XMLID_202_" class="st2" d="M159.7,246.8c0,3.3-3,6.1-6.8,6.1h-39.1c-3.7,0-6.8-2.7-6.8-6.1l0,0c0-3.3,3-6.1,6.8-6.1H153
	C156.7,240.7,159.7,243.4,159.7,246.8L159.7,246.8z"/>
<path id="XMLID_201_" class="st3" d="M159.7,244.1c0,3.3-3,6.1-6.8,6.1h-39.1c-3.7,0-6.8-2.7-6.8-6.1l0,0c0-3.3,3-6.1,6.8-6.1H153
	C156.7,238,159.7,240.7,159.7,244.1L159.7,244.1z"/>
<path id="XMLID_200_" class="st2" d="M236.7,246.8c0,3.3-3,6.1-6.8,6.1h-39.1c-3.7,0-6.8-2.7-6.8-6.1l0,0c0-3.3,3-6.1,6.8-6.1h39.1
	C233.6,240.7,236.7,243.5,236.7,246.8L236.7,246.8z"/>
<path id="XMLID_199_" class="st3" d="M236.7,244.1c0,3.3-3,6.1-6.8,6.1h-39.1c-3.7,0-6.8-2.7-6.8-6.1l0,0c0-3.3,3-6.1,6.8-6.1h39.1
	C233.6,238.1,236.7,240.8,236.7,244.1L236.7,244.1z"/>
<path id="XMLID_198_" class="st2" d="M314.8,247.4c0,3.3-3,6.1-6.8,6.1h-39.1c-3.7,0-6.8-2.7-6.8-6.1l0,0c0-3.3,3-6.1,6.8-6.1H308
	C311.7,241.4,314.8,244.1,314.8,247.4L314.8,247.4z"/>
<path id="XMLID_197_" class="st3" d="M314.8,244.7c0,3.3-3,6.1-6.8,6.1h-39.1c-3.7,0-6.8-2.7-6.8-6.1l0,0c0-3.3,3-6.1,6.8-6.1H308
	C311.7,238.7,314.8,241.4,314.8,244.7L314.8,244.7z"/>
<path id="XMLID_196_" class="st2" d="M396.2,247.4c0,3.3-3,6.1-6.8,6.1h-39.1c-3.7,0-6.8-2.7-6.8-6.1l0,0c0-3.3,3-6.1,6.8-6.1h39.1
	C393.1,241.4,396.2,244.1,396.2,247.4L396.2,247.4z"/>
<path id="XMLID_195_" class="st3" d="M396.2,244.7c0,3.3-3,6.1-6.8,6.1h-39.1c-3.7,0-6.8-2.7-6.8-6.1l0,0c0-3.3,3-6.1,6.8-6.1h39.1
	C393.1,238.7,396.2,241.4,396.2,244.7L396.2,244.7z"/>
<path id="XMLID_194_" class="st4" d="M440.8,195"/>
<path id="XMLID_193_" class="st4" d="M440.8,261.8"/>
<ellipse id="XMLID_192_" class="st2" cx="109.6" cy="245" rx="16.7" ry="9.2"/>
<path id="XMLID_191_" class="st3" d="M127,241.7c0,3.7-2,6.6-4.5,6.6H56.3c-2.5,0-4.5-3-4.5-6.6l0,0c0-3.7,2-6.6,4.5-6.6h66.2
	C125,235.1,127,238,127,241.7L127,241.7z"/>
<path id="XMLID_190_" class="st5" d="M127,240.4c0,2.9-2,5.3-4.5,5.3H56.3c-2.5,0-4.5-2.4-4.5-5.3l0,0c0-2.9,2-5.3,4.5-5.3h66.2
	C125,235.1,127,237.4,127,240.4L127,240.4z"/>
<path id="XMLID_189_" class="st2" d="M97.2,216.2v24.9c0,1.9,5.2,3.5,11.5,3.5c6.4,0,11.5-1.6,11.5-3.5v-24.9H97.2z"/>
<path id="XMLID_188_" class="st2" d="M59.4,216.2v24.9c0,1.9,5.2,3.5,11.5,3.5c6.4,0,11.5-1.6,11.5-3.5v-24.9H59.4z"/>
<path id="XMLID_187_" class="st3" d="M126.3,213.3c0,3.1-1.8,5.6-4,5.6H52.8c-2.2,0-4-2.5-4-5.6l0,0c0-3.1,1.8-5.6,4-5.6h69.5
	C124.5,207.7,126.3,210.2,126.3,213.3L126.3,213.3z"/>
<path id="XMLID_186_" class="st5" d="M126.3,212c0,2.3-1.8,4.2-4,4.2H52.8c-2.2,0-4-1.9-4-4.2l0,0c0-2.3,1.8-4.2,4-4.2h69.5
	C124.5,207.7,126.3,209.6,126.3,212L126.3,212z"/>
<path id="XMLID_185_" class="st3" d="M86.8,208.3c0,2.8-2.3,5.1-5.1,5.1H18.3c-2.8,0-5.1-2.3-5.1-5.1l0,0c0-2.8,2.3-5.1,5.1-5.1
	h63.4C84.5,203.2,86.8,205.5,86.8,208.3L86.8,208.3z"/>
<path id="XMLID_184_" class="st5" d="M84.9,205.7c0,1.4-2.2,2.5-4.9,2.5H19.1c-2.7,0-4.9-1.1-4.9-2.5l0,0c0-1.4,2.2-2.5,4.9-2.5
	h60.9C82.7,203.2,84.9,204.3,84.9,205.7L84.9,205.7z"/>
<g id="XMLID_858_">
	<path id="XMLID_183_" class="st2" d="M64.9,203.1v2.1c0,0.3,2.9,0.6,6.4,0.6c3.5,0,6.4-0.3,6.4-0.6v-2.1H64.9z"/>
	<ellipse id="XMLID_182_" class="st3" cx="71.3" cy="203.1" rx="6.4" ry="1.4"/>
</g>
<ellipse id="XMLID_181_" class="st2" cx="149.7" cy="244.1" rx="16.7" ry="9.2"/>
<ellipse id="XMLID_180_" class="st2" cx="189.9" cy="244.1" rx="16.7" ry="9.2"/>
<path id="XMLID_179_" class="st3" d="M207.3,241.7c0,3.7-2,6.6-4.5,6.6h-66.2c-2.5,0-4.5-3-4.5-6.6l0,0c0-3.7,2-6.6,4.5-6.6h66.2
	C205.3,235.1,207.3,238,207.3,241.7L207.3,241.7z"/>
<path id="XMLID_178_" class="st5" d="M207.3,240.4c0,2.9-2,5.3-4.5,5.3h-66.2c-2.5,0-4.5-2.4-4.5-5.3l0,0c0-2.9,2-5.3,4.5-5.3h66.2
	C205.3,235.1,207.3,237.4,207.3,240.4L207.3,240.4z"/>
<path id="XMLID_177_" class="st2" d="M136.7,216.2v24.9c0,1.9,5.2,3.5,11.5,3.5c6.4,0,11.5-1.6,11.5-3.5v-24.9H136.7z"/>
<path id="XMLID_176_" class="st2" d="M176.4,216.2v24.9c0,1.9,5.2,3.5,11.5,3.5s11.5-1.6,11.5-3.5v-24.9H176.4z"/>
<path id="XMLID_175_" class="st3" d="M207.3,213.3c0,3.1-1.8,5.6-4,5.6h-69.5c-2.2,0-4-2.5-4-5.6l0,0c0-3.1,1.8-5.6,4-5.6h69.5
	C205.5,207.7,207.3,210.2,207.3,213.3L207.3,213.3z"/>
<path id="XMLID_174_" class="st5" d="M207.3,211.9c0,2.3-1.8,4.2-4,4.2h-69.5c-2.2,0-4-1.9-4-4.2l0,0c0-2.3,1.8-4.2,4-4.2h69.5
	C205.5,207.7,207.3,209.6,207.3,211.9L207.3,211.9z"/>
<path id="XMLID_173_" class="st3" d="M164.9,208.2c0,2.8-2.3,5.1-5.1,5.1H96.4c-2.8,0-5.1-2.3-5.1-5.1l0,0c0-2.8,2.3-5.1,5.1-5.1
	h63.4C162.3,203.2,164.9,205.4,164.9,208.2L164.9,208.2z"/>
<path id="XMLID_172_" class="st5" d="M158.1,208.2H97.2c-2.7,0-4.9-1.1-4.9-2.5l0,0c0-1.4,2.2-2.5,4.9-2.5h60.9
	c2.7,0,5.3,0.8,4.9,2.5C163,205.7,163.1,208.6,158.1,208.2z"/>
<g id="XMLID_845_">
	<path id="XMLID_171_" class="st2" d="M100.7,203.6v2.1c0,0.3,2.9,0.6,6.4,0.6s6.4-0.3,6.4-0.6v-2.1H100.7z"/>
	<ellipse id="XMLID_170_" class="st3" cx="107.1" cy="203.5" rx="6.4" ry="1.4"/>
</g>
<g id="XMLID_842_">
	<path id="XMLID_169_" class="st2" d="M143.3,203.1v2.1c0,0.3,2.9,0.6,6.4,0.6c3.5,0,6.4-0.3,6.4-0.6v-2.1H143.3z"/>
	<ellipse id="XMLID_168_" class="st3" cx="149.7" cy="203.1" rx="6.4" ry="1.4"/>
</g>
<ellipse id="XMLID_167_" class="st2" cx="229.1" cy="245" rx="16.7" ry="9.2"/>
<ellipse id="XMLID_166_" class="st2" cx="268.5" cy="245" rx="16.7" ry="9.2"/>
<path id="XMLID_165_" class="st3" d="M286.7,241.7c0,3.7-2,6.6-4.5,6.6H216c-2.5,0-4.5-3-4.5-6.6l0,0c0-3.7,2-6.6,4.5-6.6h66.2
	C284.7,235.1,286.7,238,286.7,241.7L286.7,241.7z"/>
<path id="XMLID_164_" class="st5" d="M286.7,240.4c0,2.9-2,5.3-4.5,5.3H216c-2.5,0-4.5-2.4-4.5-5.3l0,0c0-2.9,2-5.3,4.5-5.3h66.2
	C284.7,235.1,286.7,237.4,286.7,240.4L286.7,240.4z"/>
<path id="XMLID_163_" class="st2" d="M217.6,216.2v24.9c0,1.9,5.2,3.5,11.5,3.5c6.4,0,11.5-1.6,11.5-3.5v-24.9H217.6z"/>
<path id="XMLID_162_" class="st2" d="M257.5,216.2v24.9c0,1.9,5.2,3.5,11.5,3.5c6.4,0,11.5-1.6,11.5-3.5v-24.9H257.5z"/>
<path id="XMLID_161_" class="st3" d="M287.8,213.3c0,3.1-1.8,5.6-4,5.6h-69.5c-2.2,0-4-2.5-4-5.6l0,0c0-3.1,1.8-5.6,4-5.6h69.5
	C286.1,207.7,287.8,210.2,287.8,213.3L287.8,213.3z"/>
<path id="XMLID_160_" class="st5" d="M287.8,212c0,2.3-1.8,4.2-4,4.2h-69.5c-2.2,0-4-1.9-4-4.2l0,0c0-2.3,1.8-4.2,4-4.2h69.5
	C286.1,207.7,287.8,209.6,287.8,212L287.8,212z"/>
<path id="XMLID_159_" class="st3" d="M245.7,208.3c0,2.8-2.3,5.1-5.1,5.1h-63.4c-2.8,0-5.1-2.3-5.1-5.1l0,0c0-2.8,2.3-5.1,5.1-5.1
	h63.4C243.4,203.2,245.7,205.5,245.7,208.3L245.7,208.3z"/>
<path id="XMLID_158_" class="st5" d="M243.8,205.7c0,1.4-2.2,2.5-4.9,2.5H178c-2.7,0-4.9-1.1-4.9-2.5l0,0c0-1.4,2.2-2.5,4.9-2.5H239
	C241.6,203.2,243.8,204.3,243.8,205.7L243.8,205.7z"/>
<g id="XMLID_829_">
	<path id="XMLID_157_" class="st2" d="M181.8,203.4v2.1c0,0.3,2.9,0.6,6.4,0.6s6.4-0.3,6.4-0.6v-2.1H181.8z"/>
	<ellipse id="XMLID_156_" class="st3" cx="188.2" cy="203.3" rx="6.4" ry="1.4"/>
</g>
<g id="XMLID_826_">
	<path id="XMLID_155_" class="st2" d="M224.4,202.9v2.1c0,0.3,2.9,0.6,6.4,0.6c3.5,0,6.4-0.3,6.4-0.6v-2.1H224.4z"/>
	<ellipse id="XMLID_154_" class="st3" cx="230.8" cy="202.8" rx="6.4" ry="1.4"/>
</g>
<ellipse id="XMLID_153_" class="st2" cx="308.8" cy="245.5" rx="16.7" ry="9.2"/>
<ellipse id="XMLID_152_" class="st2" cx="347.9" cy="245" rx="16.7" ry="9.2"/>
<path id="XMLID_151_" class="st3" d="M365.6,241.7c0,3.7-2,6.6-4.5,6.6h-66.2c-2.5,0-4.5-3-4.5-6.6l0,0c0-3.7,2-6.6,4.5-6.6h66.2
	C363.6,235.1,365.6,238,365.6,241.7L365.6,241.7z"/>
<path id="XMLID_150_" class="st5" d="M365.6,240.4c0,2.9-2,5.3-4.5,5.3h-66.2c-2.5,0-4.5-2.4-4.5-5.3l0,0c0-2.9,2-5.3,4.5-5.3h66.2
	C363.6,235.1,365.6,237.4,365.6,240.4L365.6,240.4z"/>
<path id="XMLID_149_" class="st2" d="M297.7,216.2v24.9c0,1.9,5.2,3.5,11.5,3.5c6.4,0,11.5-1.6,11.5-3.5v-24.9H297.7z"/>
<path id="XMLID_148_" class="st2" d="M337,216.2v24.9c0,1.9,5.2,3.5,11.5,3.5s11.5-1.6,11.5-3.5v-24.9H337z"/>
<path id="XMLID_147_" class="st3" d="M369,213.3c0,3.1-1.8,5.6-4,5.6h-69.5c-2.2,0-4-2.5-4-5.6l0,0c0-3.1,1.8-5.6,4-5.6h69.5
	C367.2,207.7,369,210.2,369,213.3L369,213.3z"/>
<path id="XMLID_146_" class="st5" d="M369,211.9c0,2.3-1.8,4.2-4,4.2h-69.5c-2.2,0-4-1.9-4-4.2l0,0c0-2.3,1.8-4.2,4-4.2h69.5
	C367.2,207.7,369,209.6,369,211.9L369,211.9z"/>
<path id="XMLID_145_" class="st3" d="M328,208.8c0,2.8-2.3,5.1-5.1,5.1h-63.4c-2.8,0-5.1-2.3-5.1-5.1l0,0c0-2.8,2.3-5.1,5.1-5.1
	h63.4C325.7,203.7,328,206,328,208.8L328,208.8z"/>
<path id="XMLID_144_" class="st5" d="M326.1,206.3c0,1.4-2.2,2.5-4.9,2.5h-60.9c-2.7,0-4.9-1.1-4.9-2.5l0,0c0-1.4,2.2-2.5,4.9-2.5
	h60.9C323.9,203.7,326.1,204.9,326.1,206.3L326.1,206.3z"/>
<g id="XMLID_813_">
	<path id="XMLID_143_" class="st2" d="M263.7,203.1v2.1c0,0.3,2.9,0.6,6.4,0.6c3.5,0,6.4-0.3,6.4-0.6v-2.1H263.7z"/>
	<ellipse id="XMLID_142_" class="st3" cx="270.1" cy="203.1" rx="6.4" ry="1.4"/>
</g>
<g id="XMLID_810_">
	<path id="XMLID_141_" class="st2" d="M304.8,203.1v2.1c0,0.3,2.9,0.6,6.4,0.6c3.5,0,6.4-0.3,6.4-0.6v-2.1H304.8z"/>
	<ellipse id="XMLID_140_" class="st3" cx="311.2" cy="203.1" rx="6.4" ry="1.4"/>
</g>
<ellipse id="XMLID_139_" class="st2" cx="385.4" cy="245" rx="16.7" ry="9.2"/>
<ellipse id="XMLID_138_" class="st2" cx="425.6" cy="245" rx="16.7" ry="9.2"/>
<path id="XMLID_137_" class="st3" d="M443.6,241.7c0,3.7-2,6.6-4.5,6.6h-66.2c-2.5,0-4.5-3-4.5-6.6l0,0c0-3.7,2-6.6,4.5-6.6h66.2
	C441.6,235.1,443.6,238,443.6,241.7L443.6,241.7z"/>
<path id="XMLID_136_" class="st5" d="M443.6,240.4c0,2.9-2,5.3-4.5,5.3h-66.2c-2.5,0-4.5-2.4-4.5-5.3l0,0c0-2.9,2-5.3,4.5-5.3h66.2
	C441.6,235.1,443.6,237.4,443.6,240.4L443.6,240.4z"/>
<path id="XMLID_135_" class="st2" d="M375.7,216.2v24.9c0,1.9,5.2,3.5,11.5,3.5c6.4,0,11.5-1.6,11.5-3.5v-24.9H375.7z"/>
<path id="XMLID_134_" class="st2" d="M413.1,216.2v24.9c0,1.9,5.2,3.5,11.5,3.5c6.4,0,11.5-1.6,11.5-3.5v-24.9H413.1z"/>
<path id="XMLID_133_" class="st3" d="M448,213.9c0,3.1-1.8,5.6-4,5.6h-69.5c-2.2,0-4-2.5-4-5.6l0,0c0-3.1,1.8-5.6,4-5.6H444
	C446.2,208.3,448,210.8,448,213.9L448,213.9z"/>
<path id="XMLID_132_" class="st5" d="M448,212.5c0,2.3-1.8,4.2-4,4.2h-69.5c-2.2,0-4-1.9-4-4.2l0,0c0-2.3,1.8-4.2,4-4.2H444
	C446.2,208.3,448,210.2,448,212.5L448,212.5z"/>
<path id="XMLID_131_" class="st3" d="M483.5,208.8c0,2.8-2.3,5.1-5.1,5.1H415c-2.8,0-5.1-2.3-5.1-5.1l0,0c0-2.8,2.3-5.1,5.1-5.1
	h63.4C481.2,203.7,483.5,206,483.5,208.8L483.5,208.8z"/>
<path id="XMLID_130_" class="st5" d="M481.6,206.3c0,1.4-2.2,2.5-4.9,2.5h-60.9c-2.7,0-4.9-1.1-4.9-2.5l0,0c0-1.4,2.2-2.5,4.9-2.5
	h60.9C479.4,203.7,481.6,204.9,481.6,206.3L481.6,206.3z"/>
<path id="XMLID_129_" class="st3" d="M406,208.6c0,2.8-2.3,5.1-5.1,5.1h-63.4c-2.8,0-5.1-2.3-5.1-5.1l0,0c0-2.8,2.3-5.1,5.1-5.1
	h63.4C403.7,203.6,406,205.8,406,208.6L406,208.6z"/>
<path id="XMLID_128_" class="st5" d="M404.1,206.1c0,1.4-2.2,2.5-4.9,2.5h-60.9c-2.7,0-4.9-1.1-4.9-2.5l0,0c0-1.4,2.2-2.5,4.9-2.5
	h60.9C401.9,203.6,404.1,204.7,404.1,206.1L404.1,206.1z"/>
<g id="XMLID_795_">
	<path id="XMLID_127_" class="st2" d="M342.3,203.9v2.1c0,0.3,2.9,0.6,6.4,0.6c3.5,0,6.4-0.3,6.4-0.6v-2.1H342.3z"/>
	<ellipse id="XMLID_126_" class="st3" cx="348.7" cy="203.8" rx="6.4" ry="1.4"/>
</g>
<g id="XMLID_792_">
	<path id="XMLID_125_" class="st2" d="M383.4,203.9v2.1c0,0.3,2.9,0.6,6.4,0.6c3.5,0,6.4-0.3,6.4-0.6v-2.1H383.4z"/>
	<ellipse id="XMLID_124_" class="st3" cx="389.8" cy="203.8" rx="6.4" ry="1.4"/>
</g>
<g id="XMLID_789_">
	<path id="XMLID_123_" class="st2" d="M415.8,203.9v2.1c0,0.3,2.9,0.6,6.4,0.6c3.5,0,6.4-0.3,6.4-0.6v-2.1H415.8z"/>
	<ellipse id="XMLID_122_" class="st3" cx="422.2" cy="203.8" rx="6.4" ry="1.4"/>
</g>
<ellipse id="XMLID_121_" class="st2" cx="70.1" cy="245.7" rx="16.7" ry="9.2"/>
<path id="XMLID_120_" class="st2" d="M159.7,246.8c0,3.3-3,6.1-6.8,6.1h-39.1c-3.7,0-6.8-2.7-6.8-6.1l0,0c0-3.3,3-6.1,6.8-6.1H153
	C156.7,240.7,159.7,243.4,159.7,246.8L159.7,246.8z"/>
<path id="XMLID_119_" class="st3" d="M159.7,244.1c0,3.3-3,6.1-6.8,6.1h-39.1c-3.7,0-6.8-2.7-6.8-6.1l0,0c0-3.3,3-6.1,6.8-6.1H153
	C156.7,238,159.7,240.7,159.7,244.1L159.7,244.1z"/>
<path id="XMLID_118_" class="st2" d="M236.7,246.8c0,3.3-3,6.1-6.8,6.1h-39.1c-3.7,0-6.8-2.7-6.8-6.1l0,0c0-3.3,3-6.1,6.8-6.1h39.1
	C233.6,240.7,236.7,243.5,236.7,246.8L236.7,246.8z"/>
<path id="XMLID_117_" class="st3" d="M236.7,244.1c0,3.3-3,6.1-6.8,6.1h-39.1c-3.7,0-6.8-2.7-6.8-6.1l0,0c0-3.3,3-6.1,6.8-6.1h39.1
	C233.6,238.1,236.7,240.8,236.7,244.1L236.7,244.1z"/>
<path id="XMLID_116_" class="st2" d="M314.8,247.4c0,3.3-3,6.1-6.8,6.1h-39.1c-3.7,0-6.8-2.7-6.8-6.1l0,0c0-3.3,3-6.1,6.8-6.1H308
	C311.7,241.4,314.8,244.1,314.8,247.4L314.8,247.4z"/>
<path id="XMLID_115_" class="st3" d="M314.8,244.7c0,3.3-3,6.1-6.8,6.1h-39.1c-3.7,0-6.8-2.7-6.8-6.1l0,0c0-3.3,3-6.1,6.8-6.1H308
	C311.7,238.7,314.8,241.4,314.8,244.7L314.8,244.7z"/>
<path id="XMLID_114_" class="st2" d="M396.2,247.4c0,3.3-3,6.1-6.8,6.1h-39.1c-3.7,0-6.8-2.7-6.8-6.1l0,0c0-3.3,3-6.1,6.8-6.1h39.1
	C393.1,241.4,396.2,244.1,396.2,247.4L396.2,247.4z"/>
<path id="XMLID_113_" class="st3" d="M396.2,244.7c0,3.3-3,6.1-6.8,6.1h-39.1c-3.7,0-6.8-2.7-6.8-6.1l0,0c0-3.3,3-6.1,6.8-6.1h39.1
	C393.1,238.7,396.2,241.4,396.2,244.7L396.2,244.7z"/>
<path id="XMLID_112_" class="st4" d="M440.8,195"/>
<path id="XMLID_111_" class="st4" d="M440.8,261.8"/>
<ellipse id="XMLID_110_" class="st2" cx="109.6" cy="245" rx="16.7" ry="9.2"/>
<path id="XMLID_109_" class="st3" d="M127,241.7c0,3.7-2,6.6-4.5,6.6H56.3c-2.5,0-4.5-3-4.5-6.6l0,0c0-3.7,2-6.6,4.5-6.6h66.2
	C125,235.1,127,238,127,241.7L127,241.7z"/>
<path id="XMLID_108_" class="st5" d="M127,240.4c0,2.9-2,5.3-4.5,5.3H56.3c-2.5,0-4.5-2.4-4.5-5.3l0,0c0-2.9,2-5.3,4.5-5.3h66.2
	C125,235.1,127,237.4,127,240.4L127,240.4z"/>
<path id="XMLID_107_" class="st2" d="M97.2,216.2v24.9c0,1.9,5.2,3.5,11.5,3.5c6.4,0,11.5-1.6,11.5-3.5v-24.9H97.2z"/>
<path id="XMLID_106_" class="st2" d="M59.4,216.2v24.9c0,1.9,5.2,3.5,11.5,3.5c6.4,0,11.5-1.6,11.5-3.5v-24.9H59.4z"/>
<path id="XMLID_105_" class="st3" d="M126.3,213.3c0,3.1-1.8,5.6-4,5.6H52.8c-2.2,0-4-2.5-4-5.6l0,0c0-3.1,1.8-5.6,4-5.6h69.5
	C124.5,207.7,126.3,210.2,126.3,213.3L126.3,213.3z"/>
<path id="XMLID_104_" class="st5" d="M126.3,212c0,2.3-1.8,4.2-4,4.2H52.8c-2.2,0-4-1.9-4-4.2l0,0c0-2.3,1.8-4.2,4-4.2h69.5
	C124.5,207.7,126.3,209.6,126.3,212L126.3,212z"/>
<path id="XMLID_103_" class="st3" d="M86.8,208.3c0,2.8-2.3,5.1-5.1,5.1H18.3c-2.8,0-5.1-2.3-5.1-5.1l0,0c0-2.8,2.3-5.1,5.1-5.1
	h63.4C84.5,203.2,86.8,205.5,86.8,208.3L86.8,208.3z"/>
<path id="XMLID_102_" class="st5" d="M84.9,205.7c0,1.4-2.2,2.5-4.9,2.5H19.1c-2.7,0-4.9-1.1-4.9-2.5l0,0c0-1.4,2.2-2.5,4.9-2.5
	h60.9C82.7,203.2,84.9,204.3,84.9,205.7L84.9,205.7z"/>
<g id="XMLID_766_">
	<path id="XMLID_101_" class="st2" d="M64.9,203.1v2.1c0,0.3,2.9,0.6,6.4,0.6c3.5,0,6.4-0.3,6.4-0.6v-2.1H64.9z"/>
	<ellipse id="XMLID_100_" class="st3" cx="71.3" cy="203.1" rx="6.4" ry="1.4"/>
</g>
<ellipse id="XMLID_99_" class="st2" cx="149.7" cy="244.1" rx="16.7" ry="9.2"/>
<ellipse id="XMLID_98_" class="st2" cx="189.9" cy="244.1" rx="16.7" ry="9.2"/>
<path id="XMLID_97_" class="st3" d="M207.3,241.7c0,3.7-2,6.6-4.5,6.6h-66.2c-2.5,0-4.5-3-4.5-6.6l0,0c0-3.7,2-6.6,4.5-6.6h66.2
	C205.3,235.1,207.3,238,207.3,241.7L207.3,241.7z"/>
<path id="XMLID_96_" class="st5" d="M207.3,240.4c0,2.9-2,5.3-4.5,5.3h-66.2c-2.5,0-4.5-2.4-4.5-5.3l0,0c0-2.9,2-5.3,4.5-5.3h66.2
	C205.3,235.1,207.3,237.4,207.3,240.4L207.3,240.4z"/>
<path id="XMLID_95_" class="st2" d="M136.7,216.2v24.9c0,1.9,5.2,3.5,11.5,3.5c6.4,0,11.5-1.6,11.5-3.5v-24.9H136.7z"/>
<path id="XMLID_94_" class="st2" d="M176.4,216.2v24.9c0,1.9,5.2,3.5,11.5,3.5s11.5-1.6,11.5-3.5v-24.9H176.4z"/>
<path id="XMLID_93_" class="st3" d="M207.3,213.3c0,3.1-1.8,5.6-4,5.6h-69.5c-2.2,0-4-2.5-4-5.6l0,0c0-3.1,1.8-5.6,4-5.6h69.5
	C205.5,207.7,207.3,210.2,207.3,213.3L207.3,213.3z"/>
<path id="XMLID_92_" class="st5" d="M207.3,211.9c0,2.3-1.8,4.2-4,4.2h-69.5c-2.2,0-4-1.9-4-4.2l0,0c0-2.3,1.8-4.2,4-4.2h69.5
	C205.5,207.7,207.3,209.6,207.3,211.9L207.3,211.9z"/>
<path id="XMLID_91_" class="st3" d="M164.9,208.2c0,2.8-2.3,5.1-5.1,5.1H96.4c-2.8,0-5.1-2.3-5.1-5.1l0,0c0-2.8,2.3-5.1,5.1-5.1
	h63.4C162.3,203.2,164.9,205.4,164.9,208.2L164.9,208.2z"/>
<path id="XMLID_90_" class="st5" d="M158.1,208.2H97.2c-2.7,0-4.9-1.1-4.9-2.5l0,0c0-1.4,2.2-2.5,4.9-2.5h60.9
	c2.7,0,5.3,0.8,4.9,2.5C163,205.7,163.1,208.6,158.1,208.2z"/>
<g id="XMLID_753_">
	<path id="XMLID_89_" class="st2" d="M100.7,203.6v2.1c0,0.3,2.9,0.6,6.4,0.6s6.4-0.3,6.4-0.6v-2.1H100.7z"/>
	<ellipse id="XMLID_88_" class="st3" cx="107.1" cy="203.5" rx="6.4" ry="1.4"/>
</g>
<g id="XMLID_750_">
	<path id="XMLID_87_" class="st2" d="M143.3,203.1v2.1c0,0.3,2.9,0.6,6.4,0.6c3.5,0,6.4-0.3,6.4-0.6v-2.1H143.3z"/>
	<ellipse id="XMLID_86_" class="st3" cx="149.7" cy="203.1" rx="6.4" ry="1.4"/>
</g>
<ellipse id="XMLID_85_" class="st2" cx="229.1" cy="245" rx="16.7" ry="9.2"/>
<ellipse id="XMLID_84_" class="st2" cx="268.5" cy="245" rx="16.7" ry="9.2"/>
<path id="XMLID_83_" class="st3" d="M286.7,241.7c0,3.7-2,6.6-4.5,6.6H216c-2.5,0-4.5-3-4.5-6.6l0,0c0-3.7,2-6.6,4.5-6.6h66.2
	C284.7,235.1,286.7,238,286.7,241.7L286.7,241.7z"/>
<path id="XMLID_82_" class="st5" d="M286.7,240.4c0,2.9-2,5.3-4.5,5.3H216c-2.5,0-4.5-2.4-4.5-5.3l0,0c0-2.9,2-5.3,4.5-5.3h66.2
	C284.7,235.1,286.7,237.4,286.7,240.4L286.7,240.4z"/>
<path id="XMLID_81_" class="st2" d="M217.6,216.2v24.9c0,1.9,5.2,3.5,11.5,3.5c6.4,0,11.5-1.6,11.5-3.5v-24.9H217.6z"/>
<path id="XMLID_80_" class="st2" d="M257.5,216.2v24.9c0,1.9,5.2,3.5,11.5,3.5c6.4,0,11.5-1.6,11.5-3.5v-24.9H257.5z"/>
<path id="XMLID_79_" class="st3" d="M287.8,213.3c0,3.1-1.8,5.6-4,5.6h-69.5c-2.2,0-4-2.5-4-5.6l0,0c0-3.1,1.8-5.6,4-5.6h69.5
	C286.1,207.7,287.8,210.2,287.8,213.3L287.8,213.3z"/>
<path id="XMLID_78_" class="st5" d="M287.8,212c0,2.3-1.8,4.2-4,4.2h-69.5c-2.2,0-4-1.9-4-4.2l0,0c0-2.3,1.8-4.2,4-4.2h69.5
	C286.1,207.7,287.8,209.6,287.8,212L287.8,212z"/>
<path id="XMLID_77_" class="st3" d="M245.7,208.3c0,2.8-2.3,5.1-5.1,5.1h-63.4c-2.8,0-5.1-2.3-5.1-5.1l0,0c0-2.8,2.3-5.1,5.1-5.1
	h63.4C243.4,203.2,245.7,205.5,245.7,208.3L245.7,208.3z"/>
<path id="XMLID_76_" class="st5" d="M243.8,205.7c0,1.4-2.2,2.5-4.9,2.5H178c-2.7,0-4.9-1.1-4.9-2.5l0,0c0-1.4,2.2-2.5,4.9-2.5H239
	C241.6,203.2,243.8,204.3,243.8,205.7L243.8,205.7z"/>
<g id="XMLID_737_">
	<path id="XMLID_75_" class="st2" d="M181.8,203.4v2.1c0,0.3,2.9,0.6,6.4,0.6s6.4-0.3,6.4-0.6v-2.1H181.8z"/>
	<ellipse id="XMLID_74_" class="st3" cx="188.2" cy="203.3" rx="6.4" ry="1.4"/>
</g>
<g id="XMLID_734_">
	<path id="XMLID_73_" class="st2" d="M224.4,202.9v2.1c0,0.3,2.9,0.6,6.4,0.6c3.5,0,6.4-0.3,6.4-0.6v-2.1H224.4z"/>
	<ellipse id="XMLID_72_" class="st3" cx="230.8" cy="202.8" rx="6.4" ry="1.4"/>
</g>
<ellipse id="XMLID_71_" class="st2" cx="308.8" cy="245.5" rx="16.7" ry="9.2"/>
<ellipse id="XMLID_70_" class="st2" cx="347.9" cy="245" rx="16.7" ry="9.2"/>
<path id="XMLID_69_" class="st3" d="M365.6,241.7c0,3.7-2,6.6-4.5,6.6h-66.2c-2.5,0-4.5-3-4.5-6.6l0,0c0-3.7,2-6.6,4.5-6.6h66.2
	C363.6,235.1,365.6,238,365.6,241.7L365.6,241.7z"/>
<path id="XMLID_68_" class="st5" d="M365.6,240.4c0,2.9-2,5.3-4.5,5.3h-66.2c-2.5,0-4.5-2.4-4.5-5.3l0,0c0-2.9,2-5.3,4.5-5.3h66.2
	C363.6,235.1,365.6,237.4,365.6,240.4L365.6,240.4z"/>
<path id="XMLID_67_" class="st2" d="M297.7,216.2v24.9c0,1.9,5.2,3.5,11.5,3.5c6.4,0,11.5-1.6,11.5-3.5v-24.9H297.7z"/>
<path id="XMLID_66_" class="st2" d="M337,216.2v24.9c0,1.9,5.2,3.5,11.5,3.5s11.5-1.6,11.5-3.5v-24.9H337z"/>
<path id="XMLID_65_" class="st3" d="M369,213.3c0,3.1-1.8,5.6-4,5.6h-69.5c-2.2,0-4-2.5-4-5.6l0,0c0-3.1,1.8-5.6,4-5.6h69.5
	C367.2,207.7,369,210.2,369,213.3L369,213.3z"/>
<path id="XMLID_64_" class="st5" d="M369,211.9c0,2.3-1.8,4.2-4,4.2h-69.5c-2.2,0-4-1.9-4-4.2l0,0c0-2.3,1.8-4.2,4-4.2h69.5
	C367.2,207.7,369,209.6,369,211.9L369,211.9z"/>
<path id="XMLID_63_" class="st3" d="M328,208.8c0,2.8-2.3,5.1-5.1,5.1h-63.4c-2.8,0-5.1-2.3-5.1-5.1l0,0c0-2.8,2.3-5.1,5.1-5.1h63.4
	C325.7,203.7,328,206,328,208.8L328,208.8z"/>
<path id="XMLID_62_" class="st5" d="M326.1,206.3c0,1.4-2.2,2.5-4.9,2.5h-60.9c-2.7,0-4.9-1.1-4.9-2.5l0,0c0-1.4,2.2-2.5,4.9-2.5
	h60.9C323.9,203.7,326.1,204.9,326.1,206.3L326.1,206.3z"/>
<g id="XMLID_721_">
	<path id="XMLID_61_" class="st2" d="M263.7,203.1v2.1c0,0.3,2.9,0.6,6.4,0.6c3.5,0,6.4-0.3,6.4-0.6v-2.1H263.7z"/>
	<ellipse id="XMLID_60_" class="st3" cx="270.1" cy="203.1" rx="6.4" ry="1.4"/>
</g>
<g id="XMLID_718_">
	<path id="XMLID_59_" class="st2" d="M304.8,203.1v2.1c0,0.3,2.9,0.6,6.4,0.6c3.5,0,6.4-0.3,6.4-0.6v-2.1H304.8z"/>
	<ellipse id="XMLID_58_" class="st3" cx="311.2" cy="203.1" rx="6.4" ry="1.4"/>
</g>
<ellipse id="XMLID_57_" class="st2" cx="385.4" cy="245" rx="16.7" ry="9.2"/>
<ellipse id="XMLID_56_" class="st2" cx="425.6" cy="245" rx="16.7" ry="9.2"/>
<path id="XMLID_37_" class="st3" d="M443.6,241.7c0,3.7-2,6.6-4.5,6.6h-66.2c-2.5,0-4.5-3-4.5-6.6l0,0c0-3.7,2-6.6,4.5-6.6h66.2
	C441.6,235.1,443.6,238,443.6,241.7L443.6,241.7z"/>
<path id="XMLID_36_" class="st5" d="M443.6,240.4c0,2.9-2,5.3-4.5,5.3h-66.2c-2.5,0-4.5-2.4-4.5-5.3l0,0c0-2.9,2-5.3,4.5-5.3h66.2
	C441.6,235.1,443.6,237.4,443.6,240.4L443.6,240.4z"/>
<path id="XMLID_35_" class="st2" d="M375.7,216.2v24.9c0,1.9,5.2,3.5,11.5,3.5c6.4,0,11.5-1.6,11.5-3.5v-24.9H375.7z"/>
<path id="XMLID_34_" class="st2" d="M413.1,216.2v24.9c0,1.9,5.2,3.5,11.5,3.5c6.4,0,11.5-1.6,11.5-3.5v-24.9H413.1z"/>
<path id="XMLID_33_" class="st3" d="M448,213.9c0,3.1-1.8,5.6-4,5.6h-69.5c-2.2,0-4-2.5-4-5.6l0,0c0-3.1,1.8-5.6,4-5.6H444
	C446.2,208.3,448,210.8,448,213.9L448,213.9z"/>
<path id="XMLID_32_" class="st5" d="M448,212.5c0,2.3-1.8,4.2-4,4.2h-69.5c-2.2,0-4-1.9-4-4.2l0,0c0-2.3,1.8-4.2,4-4.2H444
	C446.2,208.3,448,210.2,448,212.5L448,212.5z"/>
<path id="XMLID_31_" class="st3" d="M483.5,208.8c0,2.8-2.3,5.1-5.1,5.1H415c-2.8,0-5.1-2.3-5.1-5.1l0,0c0-2.8,2.3-5.1,5.1-5.1h63.4
	C481.2,203.7,483.5,206,483.5,208.8L483.5,208.8z"/>
<path id="XMLID_30_" class="st5" d="M481.6,206.3c0,1.4-2.2,2.5-4.9,2.5h-60.9c-2.7,0-4.9-1.1-4.9-2.5l0,0c0-1.4,2.2-2.5,4.9-2.5
	h60.9C479.4,203.7,481.6,204.9,481.6,206.3L481.6,206.3z"/>
<path id="XMLID_29_" class="st3" d="M406,208.6c0,2.8-2.3,5.1-5.1,5.1h-63.4c-2.8,0-5.1-2.3-5.1-5.1l0,0c0-2.8,2.3-5.1,5.1-5.1h63.4
	C403.7,203.6,406,205.8,406,208.6L406,208.6z"/>
<path id="XMLID_28_" class="st5" d="M404.1,206.1c0,1.4-2.2,2.5-4.9,2.5h-60.9c-2.7,0-4.9-1.1-4.9-2.5l0,0c0-1.4,2.2-2.5,4.9-2.5
	h60.9C401.9,203.6,404.1,204.7,404.1,206.1L404.1,206.1z"/>
<g id="XMLID_703_">
	<path id="XMLID_27_" class="st2" d="M342.3,203.9v2.1c0,0.3,2.9,0.6,6.4,0.6c3.5,0,6.4-0.3,6.4-0.6v-2.1H342.3z"/>
	<ellipse id="XMLID_26_" class="st3" cx="348.7" cy="203.8" rx="6.4" ry="1.4"/>
</g>
<g id="XMLID_700_">
	<path id="XMLID_25_" class="st2" d="M383.4,203.9v2.1c0,0.3,2.9,0.6,6.4,0.6c3.5,0,6.4-0.3,6.4-0.6v-2.1H383.4z"/>
	<ellipse id="XMLID_24_" class="st3" cx="389.8" cy="203.8" rx="6.4" ry="1.4"/>
</g>
<g id="XMLID_697_">
	<path id="XMLID_23_" class="st2" d="M415.8,203.9v2.1c0,0.3,2.9,0.6,6.4,0.6c3.5,0,6.4-0.3,6.4-0.6v-2.1H415.8z"/>
	<ellipse id="XMLID_20_" class="st3" cx="422.2" cy="203.8" rx="6.4" ry="1.4"/>
</g>
</svg>
