<?xml version="1.0" encoding="utf-8"?>
<!-- Generator: Adobe Illustrator 19.0.0, SVG Export Plug-In . SVG Version: 6.00 Build 0)  -->
<svg version="1.1" id="Camada_1" xmlns="http://www.w3.org/2000/svg" xmlns:xlink="http://www.w3.org/1999/xlink" x="0px" y="0px"
	 viewBox="0 0 500 500" style="enable-background:new 0 0 500 500;" xml:space="preserve">
<style type="text/css">
	.st0{fill:#1A171B;stroke:#1A171B;stroke-width:7.2844;stroke-linejoin:round;stroke-miterlimit:10;}
	.st1{fill:#1A171B;stroke:#1A171B;stroke-width:7.2844;stroke-miterlimit:10;}
	.st2{fill:url(#XMLID_107_);stroke:#1A171B;stroke-width:1.8211;stroke-linejoin:round;stroke-miterlimit:10;}
	.st3{fill:url(#XMLID_108_);stroke:#1A171B;stroke-width:1.8211;stroke-linejoin:round;stroke-miterlimit:10;}
	.st4{fill:#B0B2B3;stroke:#1A171B;stroke-width:1.8211;stroke-miterlimit:10;}
	.st5{fill:url(#XMLID_109_);stroke:#1A171B;stroke-width:1.8211;stroke-miterlimit:10;}
	.st6{fill:#3D3D3F;stroke:#1A171B;stroke-width:1.8211;stroke-miterlimit:10;}
	.st7{fill:#D8D9DA;stroke:#1A171B;stroke-width:1.8211;stroke-miterlimit:10;}
	.st8{fill:url(#XMLID_110_);stroke:#1A171B;stroke-width:1.8211;stroke-miterlimit:10;}
	.st9{fill:#3D3D3F;}
	.st10{fill:#F5F5F6;}
</style>
<path id="XMLID_105_" class="st0" d="M393,155.9C335.3,61.7,247.1,10,192.4,36.9c0,0-3.7,1.9-5.3,2.9c-2,1.2-91.2,54.5-91.2,54.5
	l217.7,350l97.3-58.2C460.4,352.6,449.3,247.9,393,155.9z"/>
<path id="XMLID_104_" class="st0" d="M328.3,195.3c-57.6-94.1-145.8-145.8-200.5-119c0,0-3.7,1.9-5.3,2.9
	c-2,1.2-26.6,15.1-26.6,15.1l217.7,350l32.6-18.8C395.7,392,384.7,287.4,328.3,195.3z"/>
<path id="XMLID_103_" class="st1" d="M311.8,209c56.1,99.2,53.2,206.8-6.4,240.5C245.9,483.2,152.2,430.1,96.1,331
	c-56.1-99.2-53.2-206.8,6.4-240.5C162.1,56.8,255.8,109.9,311.8,209z"/>
<path id="XMLID_102_" class="st1" d="M311.7,208.8c48.9,86.5,44.9,181.3-8.9,211.7c-53.8,30.4-137.1-15-186-101.5
	c-48.9-86.5-44.9-181.3,8.9-211.7S262.8,122.3,311.7,208.8z"/>
<path id="XMLID_101_" class="st1" d="M294.5,214.4c46.9,83,54.3,167.7,16.3,189.2C272.9,425,226,405.2,157.1,292
	C87,176.7,102.9,124.2,140.8,102.8C178.7,81.4,247.5,131.3,294.5,214.4z"/>
<ellipse id="XMLID_100_" class="st1" cx="203.7" cy="154.5" rx="21.2" ry="23.9"/>
<ellipse id="XMLID_99_" class="st1" cx="157.6" cy="127.7" rx="20.5" ry="23.1"/>
<path id="XMLID_98_" class="st1" d="M135.4,135.2c2.3,7.6-0.3,15.1-5.8,16.8c-5.5,1.7-11.9-3.1-14.2-10.7
	c-2.3-7.6,0.3-15.1,5.8-16.8C126.7,122.8,133,127.6,135.4,135.2z"/>
<path id="XMLID_97_" class="st1" d="M130.6,165.3c2.8,7.4,0.8,15.1-4.6,17.2c-5.4,2.1-12-2.3-14.9-9.7c-2.8-7.4-0.8-15.1,4.6-17.2
	C121.1,153.5,127.7,157.9,130.6,165.3z"/>
<ellipse id="XMLID_96_" class="st1" cx="246.7" cy="202.2" rx="22.6" ry="25.5"/>
<ellipse id="XMLID_95_" class="st1" cx="281.9" cy="256.7" rx="22.2" ry="24.9"/>
<ellipse id="XMLID_94_" class="st1" cx="308.5" cy="319.1" rx="22.1" ry="24.9"/>
<ellipse id="XMLID_93_" class="st1" cx="311.7" cy="367.4" rx="19.3" ry="18.9"/>
<ellipse id="XMLID_92_" transform="matrix(0.7937 -0.6083 0.6083 0.7937 -178.0993 261.9789)" class="st1" cx="297.2" cy="393.6" rx="10.2" ry="12.2"/>
<ellipse id="XMLID_91_" transform="matrix(0.7937 -0.6083 0.6083 0.7937 -185.6944 247.9673)" class="st1" cx="272.7" cy="397.8" rx="10.2" ry="12.2"/>
<ellipse id="XMLID_90_" transform="matrix(0.8705 -0.4921 0.4921 0.8705 -107.8586 134.7987)" class="st1" cx="202.3" cy="272.4" rx="48.9" ry="136.6"/>
<path id="XMLID_89_" class="st1" d="M240.8,246.9c31,49.1,43.2,102.9,21.3,116.7c-21.9,13.8-56.9-21.7-88-70.8
	c-31-49.1-48.5-105.4-25.5-117.2C163.6,168,209.8,197.8,240.8,246.9z"/>
<ellipse id="XMLID_88_" class="st1" cx="169" cy="128.4" rx="7.1" ry="9.9"/>
<ellipse id="XMLID_87_" class="st1" cx="214.2" cy="155.1" rx="7.1" ry="9.9"/>
<ellipse id="XMLID_86_" class="st1" cx="259.7" cy="207.1" rx="7.1" ry="9.9"/>
<ellipse id="XMLID_85_" class="st1" cx="290.8" cy="263.6" rx="7.1" ry="9.9"/>
<ellipse id="XMLID_84_" class="st1" cx="308.1" cy="309.3" rx="7.1" ry="9.9"/>
<ellipse id="XMLID_83_" class="st1" cx="315.3" cy="362.5" rx="7.1" ry="9.9"/>
<path id="XMLID_82_" class="st1" d="M145.6,113c2-4.1,33.7-1.5,17.9,0c-15.9,1.5-8.9,8-8.9,8S143.6,117.1,145.6,113z"/>
<path id="XMLID_81_" class="st1" d="M239.5,190.2c2-4.1,33.7-1.5,17.9,0c-15.9,1.5-8.9,8-8.9,8S237.5,194.3,239.5,190.2z"/>
<path id="XMLID_80_" class="st1" d="M273.5,244.3c2-4.1,33.7-1.5,17.9,0c-15.9,1.5-8.9,8-8.9,8S271.5,248.4,273.5,244.3z"/>
<path id="XMLID_79_" class="st1" d="M318.7,333.3c-3.4,3.1-31.9-11-16.6-6.6c15.3,4.4,11.3-4.1,11.3-4.1S322.1,330.2,318.7,333.3z"
	/>
<path id="XMLID_78_" class="st1" d="M308.8,384c-4.5-1-9.3-32.5-4.1-17.4c5.1,15.1,9.8,6.9,9.8,6.9S313.3,385,308.8,384z"/>
<path id="XMLID_77_" class="st1" d="M198.2,140.5c2-4.1,16.2,2.1,9,1.9c-10.9-0.4-3.5-1.2-8.9,8
	C192.9,159.5,196.2,144.6,198.2,140.5z"/>
<ellipse id="XMLID_76_" class="st1" cx="122" cy="134.4" rx="3.4" ry="3.8"/>
<ellipse id="XMLID_75_" class="st1" cx="295.8" cy="393.6" rx="3.4" ry="3.8"/>
<ellipse id="XMLID_74_" class="st1" cx="272.7" cy="397.8" rx="3.4" ry="3.8"/>
<ellipse id="XMLID_73_" class="st1" cx="118.7" cy="164.9" rx="3.4" ry="3.8"/>
<linearGradient id="XMLID_107_" gradientUnits="userSpaceOnUse" x1="150.2574" y1="26.3245" x2="547.8683" y2="559.912">
	<stop  offset="7.272730e-002" style="stop-color:#B0B2B3"/>
	<stop  offset="0.1818" style="stop-color:#CACBCC"/>
	<stop  offset="0.2848" style="stop-color:#3D3D3F"/>
	<stop  offset="0.4242" style="stop-color:#9B9C9E"/>
	<stop  offset="0.5333" style="stop-color:#D8D9DA"/>
	<stop  offset="0.6545" style="stop-color:#868789"/>
	<stop  offset="0.8909" style="stop-color:#C5C6C8"/>
</linearGradient>
<path id="XMLID_72_" class="st2" d="M393,155.9C335.3,61.7,247.1,10,192.4,36.9c0,0-3.7,1.9-5.3,2.9c-2,1.2-91.2,54.5-91.2,54.5
	l217.7,350l97.3-58.2C460.4,352.6,449.3,247.9,393,155.9z"/>
<linearGradient id="XMLID_108_" gradientUnits="userSpaceOnUse" x1="137.384" y1="79.6137" x2="429.974" y2="459.6168">
	<stop  offset="7.272730e-002" style="stop-color:#B0B2B3"/>
	<stop  offset="0.1818" style="stop-color:#CACBCC"/>
	<stop  offset="0.2848" style="stop-color:#3D3D3F"/>
	<stop  offset="0.4242" style="stop-color:#9B9C9E"/>
	<stop  offset="0.5333" style="stop-color:#D8D9DA"/>
	<stop  offset="0.6545" style="stop-color:#868789"/>
	<stop  offset="0.8909" style="stop-color:#C5C6C8"/>
</linearGradient>
<path id="XMLID_71_" class="st3" d="M328.3,195.3c-57.6-94.1-145.8-145.8-200.5-119c0,0-3.7,1.9-5.3,2.9c-2,1.2-26.6,15.1-26.6,15.1
	l217.7,350l32.6-18.8C395.7,392,384.7,287.4,328.3,195.3z"/>
<path id="XMLID_70_" class="st4" d="M311.8,209c56.1,99.2,53.2,206.8-6.4,240.5C245.9,483.2,152.2,430.1,96.1,331
	c-56.1-99.2-53.2-206.8,6.4-240.5C162.1,56.8,255.8,109.9,311.8,209z"/>
<linearGradient id="XMLID_109_" gradientUnits="userSpaceOnUse" x1="128.8982" y1="156.1741" x2="311.6169" y2="386.8475">
	<stop  offset="0" style="stop-color:#3D3D3F"/>
	<stop  offset="0.1394" style="stop-color:#3D3D3F"/>
	<stop  offset="0.3394" style="stop-color:#58585A"/>
	<stop  offset="0.5212" style="stop-color:#A6A7A9"/>
	<stop  offset="0.7515" style="stop-color:#3D3D3F"/>
	<stop  offset="0.9939" style="stop-color:#C5C6C8"/>
</linearGradient>
<path id="XMLID_69_" class="st5" d="M311.7,208.8c48.9,86.5,44.9,181.3-8.9,211.7c-53.8,30.4-137.1-15-186-101.5
	c-48.9-86.5-44.9-181.3,8.9-211.7S262.8,122.3,311.7,208.8z"/>
<path id="XMLID_68_" class="st6" d="M294.5,214.4c46.9,83,54.3,167.7,16.3,189.2C272.9,425,226,405.2,157.1,292
	C87,176.7,102.9,124.2,140.8,102.8C178.7,81.4,247.5,131.3,294.5,214.4z"/>
<ellipse id="XMLID_67_" class="st7" cx="203.7" cy="154.5" rx="21.2" ry="23.9"/>
<ellipse id="XMLID_66_" class="st7" cx="157.6" cy="127.7" rx="20.5" ry="23.1"/>
<path id="XMLID_65_" class="st7" d="M135.4,135.2c2.3,7.6-0.3,15.1-5.8,16.8c-5.5,1.7-11.9-3.1-14.2-10.7
	c-2.3-7.6,0.3-15.1,5.8-16.8C126.7,122.8,133,127.6,135.4,135.2z"/>
<path id="XMLID_64_" class="st7" d="M130.6,165.3c2.8,7.4,0.8,15.1-4.6,17.2c-5.4,2.1-12-2.3-14.9-9.7c-2.8-7.4-0.8-15.1,4.6-17.2
	C121.1,153.5,127.7,157.9,130.6,165.3z"/>
<ellipse id="XMLID_63_" class="st7" cx="246.7" cy="202.2" rx="22.6" ry="25.5"/>
<ellipse id="XMLID_62_" class="st7" cx="281.9" cy="256.7" rx="22.2" ry="24.9"/>
<ellipse id="XMLID_61_" class="st7" cx="308.5" cy="319.1" rx="22.1" ry="24.9"/>
<ellipse id="XMLID_60_" class="st7" cx="311.7" cy="367.4" rx="19.3" ry="18.9"/>
<ellipse id="XMLID_59_" transform="matrix(0.7937 -0.6083 0.6083 0.7937 -178.0993 261.9789)" class="st7" cx="297.2" cy="393.6" rx="10.2" ry="12.2"/>
<ellipse id="XMLID_58_" transform="matrix(0.7937 -0.6083 0.6083 0.7937 -185.6944 247.9673)" class="st7" cx="272.7" cy="397.8" rx="10.2" ry="12.2"/>
<ellipse id="XMLID_57_" transform="matrix(0.8705 -0.4921 0.4921 0.8705 -107.8586 134.7987)" class="st4" cx="202.3" cy="272.4" rx="48.9" ry="136.6"/>
<linearGradient id="XMLID_110_" gradientUnits="userSpaceOnUse" x1="-35.9882" y1="215.8974" x2="132.168" y2="458.7213" gradientTransform="matrix(1.1046 -1.390000e-002 -0.1282 1.046 208.2114 -65.0704)">
	<stop  offset="0" style="stop-color:#58585A"/>
	<stop  offset="0.1576" style="stop-color:#3D3D3F"/>
	<stop  offset="0.2909" style="stop-color:#C5C6C8"/>
	<stop  offset="0.4909" style="stop-color:#3D3D3F"/>
	<stop  offset="0.6727" style="stop-color:#A2A3A5"/>
	<stop  offset="0.8303" style="stop-color:#3D3D3F"/>
</linearGradient>
<path id="XMLID_56_" class="st8" d="M240.8,246.9c31,49.1,43.2,102.9,21.3,116.7c-21.9,13.8-56.9-21.7-88-70.8
	c-31-49.1-48.5-105.4-25.5-117.2C163.6,168,209.8,197.8,240.8,246.9z"/>
<ellipse id="XMLID_37_" class="st9" cx="169" cy="128.4" rx="7.1" ry="9.9"/>
<ellipse id="XMLID_36_" class="st9" cx="214.2" cy="155.1" rx="7.1" ry="9.9"/>
<ellipse id="XMLID_35_" class="st9" cx="259.7" cy="207.1" rx="7.1" ry="9.9"/>
<ellipse id="XMLID_34_" class="st9" cx="290.8" cy="263.6" rx="7.1" ry="9.9"/>
<ellipse id="XMLID_33_" class="st9" cx="308.1" cy="309.3" rx="7.1" ry="9.9"/>
<ellipse id="XMLID_32_" class="st9" cx="315.3" cy="362.5" rx="7.1" ry="9.9"/>
<path id="XMLID_31_" class="st10" d="M145.6,113c2-4.1,33.7-1.5,17.9,0c-15.9,1.5-8.9,8-8.9,8S143.6,117.1,145.6,113z"/>
<path id="XMLID_30_" class="st10" d="M239.5,190.2c2-4.1,33.7-1.5,17.9,0c-15.9,1.5-8.9,8-8.9,8S237.5,194.3,239.5,190.2z"/>
<path id="XMLID_29_" class="st10" d="M273.5,244.3c2-4.1,33.7-1.5,17.9,0c-15.9,1.5-8.9,8-8.9,8S271.5,248.4,273.5,244.3z"/>
<path id="XMLID_28_" class="st10" d="M318.7,333.3c-3.4,3.1-31.9-11-16.6-6.6c15.3,4.4,11.3-4.1,11.3-4.1S322.1,330.2,318.7,333.3z"
	/>
<path id="XMLID_27_" class="st10" d="M308.8,384c-4.5-1-9.3-32.5-4.1-17.4c5.1,15.1,9.8,6.9,9.8,6.9S313.3,385,308.8,384z"/>
<path id="XMLID_26_" class="st10" d="M198.2,140.5c2-4.1,16.2,2.1,9,1.9c-10.9-0.4-3.5-1.2-8.9,8
	C192.9,159.5,196.2,144.6,198.2,140.5z"/>
<ellipse id="XMLID_25_" class="st10" cx="122" cy="134.4" rx="3.4" ry="3.8"/>
<ellipse id="XMLID_24_" class="st10" cx="295.8" cy="393.6" rx="3.4" ry="3.8"/>
<ellipse id="XMLID_23_" class="st10" cx="272.7" cy="397.8" rx="3.4" ry="3.8"/>
<ellipse id="XMLID_20_" class="st10" cx="118.7" cy="164.9" rx="3.4" ry="3.8"/>
</svg>
