<?xml version="1.0" encoding="utf-8"?>
<!-- Generator: Adobe Illustrator 19.0.0, SVG Export Plug-In . SVG Version: 6.00 Build 0)  -->
<svg version="1.1" id="Camada_1" xmlns="http://www.w3.org/2000/svg" xmlns:xlink="http://www.w3.org/1999/xlink" x="0px" y="0px"
	 viewBox="0 0 500 500" style="enable-background:new 0 0 500 500;" xml:space="preserve">
<style type="text/css">
	.st0{stroke:#000000;stroke-width:6.9618;stroke-linejoin:round;stroke-miterlimit:10;}
	.st1{fill:#C6C6C6;stroke:#706F6F;stroke-width:2.3206;stroke-linejoin:round;stroke-miterlimit:10;}
	.st2{fill:#DADADA;stroke:#000000;stroke-width:2.3206;stroke-linejoin:round;stroke-miterlimit:10;}
	.st3{opacity:0.5;stroke:#000000;stroke-width:2.3206;stroke-linejoin:round;stroke-miterlimit:10;}
	.st4{fill:#F6F6F6;}
</style>
<g>
	<path id="XMLID_27_" class="st0" d="M386.7,75.7l0-0.2l-269.8-1c-57.5,0-104.1,78.7-104.1,175.8S59.5,426.2,117,426.2h255.4
		c3.6,0.6,7.2,0.9,10.8,0.9c57.5,0,104.1-78.7,104.1-175.8C487.3,156.3,442.6,78.9,386.7,75.7z M468.7,225.9H335.4
		c0-0.1,0.1-0.2,0.1-0.2h133.2C468.7,225.8,468.7,225.9,468.7,225.9z M431.9,129.9c0.1,0.1,0.1,0.2,0.2,0.2h-1
		c-0.1-0.1-0.1-0.2-0.2-0.2H431.9z M384.8,160.9h66.7c0,0.1,0.1,0.2,0.1,0.2h-67.1C384.6,161.1,384.7,161,384.8,160.9z M355.4,193.1
		h107.5c0,0.1,0,0.2,0.1,0.2H355.2C355.3,193.2,355.3,193.1,355.4,193.1z M344.7,209.2h121.8c0,0.2,0.1,0.4,0.1,0.5H344.3
		C344.4,209.6,344.5,209.4,344.7,209.2z M334.5,129.9h1.4c-0.1,0.1-0.1,0.2-0.2,0.2h-1.3C334.3,130.1,334.4,130,334.5,129.9z
		 M314.8,160.9h0.8c0,0.1-0.1,0.2-0.1,0.2h-0.8C314.7,161.1,314.8,161,314.8,160.9z M296.4,258.1c0-0.1,0-0.2,0-0.2h0.1
		c0,0.1,0,0.2,0,0.2H296.4z M297.4,274.5c0-0.2,0-0.3,0-0.5h0.1C297.4,274.2,297.4,274.3,297.4,274.5L297.4,274.5z M297.9,225.9
		h-0.3c0-0.1,0-0.2,0-0.2h0.3C297.9,225.8,297.9,225.9,297.9,225.9z M300.2,209.8h-0.4c0-0.2,0.1-0.4,0.1-0.5h0.4
		C300.3,209.4,300.3,209.6,300.2,209.8z M303.9,193.3h-0.5c0-0.1,0-0.2,0.1-0.2h0.5C303.9,193.1,303.9,193.2,303.9,193.3z
		 M415.4,387.5H351c-0.1-0.1-0.2-0.2-0.3-0.2h65.1C415.6,387.4,415.5,387.5,415.4,387.5z M444.4,355.4H322c0-0.1-0.1-0.2-0.1-0.2
		h122.7C444.5,355.3,444.4,355.3,444.4,355.4z M452.7,339.2H313.7c-0.1-0.2-0.2-0.4-0.3-0.5H453
		C452.9,338.9,452.8,339.1,452.7,339.2z M459.1,322.8H307.3c0-0.1-0.1-0.2-0.1-0.2h151.9C459.1,322.6,459.1,322.7,459.1,322.8z
		 M466.9,290.6H310.8c0-0.1,0-0.2,0.1-0.2h156.1C466.9,290.5,466.9,290.6,466.9,290.6z M469,274.5H315.5c0-0.2,0.1-0.3,0.1-0.5H469
		C469,274.2,469,274.3,469,274.5z M321.2,258.1c0-0.1,0.1-0.2,0.1-0.2H470c0,0.1,0,0.2,0,0.2H321.2z"/>
	<g>
		<rect id="XMLID_26_" x="252.2" y="130.1" class="st1" width="200.3" height="15.9"/>
		<rect id="XMLID_25_" x="252.2" y="355.4" class="st1" width="200.3" height="15.9"/>
		<rect id="XMLID_24_" x="262.7" y="339.2" class="st1" width="200.3" height="15.9"/>
		<rect id="XMLID_23_" x="229" y="387.5" class="st1" width="200.3" height="15.9"/>
		<rect id="XMLID_22_" x="245.3" y="371.4" class="st1" width="200.3" height="15.9"/>
		<rect id="XMLID_21_" x="270.8" y="290.6" class="st1" width="200.3" height="15.9"/>
		<rect id="XMLID_20_" x="273.5" y="274.5" class="st1" width="200.3" height="15.9"/>
		<rect id="XMLID_19_" x="262.7" y="322.8" class="st1" width="200.3" height="15.9"/>
		<rect id="XMLID_18_" x="270.8" y="306.6" class="st1" width="200.3" height="15.9"/>
		<rect id="XMLID_17_" x="273.5" y="225.9" class="st1" width="200.3" height="15.9"/>
		<rect id="XMLID_16_" x="273.5" y="209.8" class="st1" width="200.3" height="15.9"/>
		<rect id="XMLID_15_" x="273.5" y="258.1" class="st1" width="200.3" height="15.9"/>
		<rect id="XMLID_14_" x="279.1" y="241.9" class="st1" width="200.3" height="15.9"/>
		<rect id="XMLID_13_" x="262.7" y="161.2" class="st1" width="200.3" height="15.9"/>
		<rect id="XMLID_12_" x="262.7" y="145" class="st1" width="200.3" height="15.9"/>
		<rect id="XMLID_11_" x="270.8" y="193.3" class="st1" width="200.3" height="15.9"/>
		<rect id="XMLID_10_" x="270.8" y="177.1" class="st1" width="200.3" height="15.9"/>
		<rect id="XMLID_9_" x="229" y="98" class="st1" width="200.3" height="15.9"/>
		<rect id="XMLID_8_" x="245.3" y="114" class="st1" width="200.3" height="15.9"/>
	</g>
	<path id="XMLID_7_" class="st2" d="M279.1,251.3c0-97.1,46.6-175.8,104.1-175.8c1.2,0,2.4,0.1,3.5,0.2l0-0.2l-269.8-1
		c-57.5,0-104.1,78.7-104.1,175.8S59.5,426.2,117,426.2h255.4C319.9,417,279.1,342.2,279.1,251.3z"/>
	<path id="XMLID_4_" class="st2" d="M386.7,75.7c-1.2-0.1-2.4-0.2-3.5-0.2c-57.5,0-104.1,78.7-104.1,175.8
		c0,90.9,40.9,165.7,93.3,174.8c3.6,0.6,7.2,0.9,10.8,0.9c57.5,0,104.1-78.7,104.1-175.8C487.3,156.3,442.6,78.9,386.7,75.7z
		 M383.2,398c-0.2,0-0.4,0-0.6,0c-47.7-0.6-86.2-66-86.2-146.6c0-81,38.9-146.7,86.9-146.7c1.1,0,2.1,0.1,3.2,0.1
		c46.5,2.8,83.7,67.3,83.7,146.5C470.1,332.3,431.2,398,383.2,398z"/>
	<path id="XMLID_3_" class="st3" d="M304.9,315.7c-5.4-19.1-8.5-40.4-8.5-63c0-81,38.9-146.7,86.9-146.7c18.7,0,36,10,50.1,26.9
		c-1.3,1.1-2.6,2.3-3.8,3.4C371.2,152.7,323.6,222.8,304.9,315.7z"/>
	<polygon id="XMLID_2_" class="st4" points="265.6,244.2 27,244.2 33,216.3 265.6,216.3 	"/>
	<rect id="XMLID_1_" x="27" y="257.4" class="st4" width="238.6" height="10.2"/>
</g>
</svg>
