<?xml version="1.0" encoding="utf-8"?>
<!-- Generator: Adobe Illustrator 19.0.0, SVG Export Plug-In . SVG Version: 6.00 Build 0)  -->
<svg version="1.1" id="Camada_1" xmlns="http://www.w3.org/2000/svg" xmlns:xlink="http://www.w3.org/1999/xlink" x="0px" y="0px"
	 viewBox="0 0 500 500" style="enable-background:new 0 0 500 500;" xml:space="preserve">
<style type="text/css">
	.st0{fill:#1A171B;stroke:#1A171B;stroke-width:7.3146;stroke-miterlimit:10;}
	.st1{fill:#1A171B;stroke:#1A171B;stroke-width:7.3146;stroke-linecap:round;stroke-linejoin:round;stroke-miterlimit:10;}
	.st2{opacity:0.41;fill:#1A171B;stroke:#1A171B;stroke-width:7.3146;stroke-miterlimit:10;}
	.st3{fill:none;stroke:#1A171B;stroke-width:2.4382;stroke-miterlimit:10;}
	.st4{fill:#AE9200;stroke:#1A171B;stroke-width:2.4382;stroke-linecap:round;stroke-linejoin:round;stroke-miterlimit:10;}
	.st5{fill:url(#XMLID_117_);stroke:#1A171B;stroke-width:2.4382;stroke-linecap:round;stroke-linejoin:round;stroke-miterlimit:10;}
	.st6{fill:url(#XMLID_118_);stroke:#1A171B;stroke-width:2.4382;stroke-linecap:round;stroke-linejoin:round;stroke-miterlimit:10;}
	.st7{fill:url(#XMLID_119_);stroke:#1A171B;stroke-width:2.4382;stroke-linecap:round;stroke-linejoin:round;stroke-miterlimit:10;}
	.st8{fill:#9B9C9E;stroke:#1A171B;stroke-width:2.4382;stroke-linecap:round;stroke-linejoin:round;stroke-miterlimit:10;}
	.st9{fill:#B0B2B3;stroke:#1A171B;stroke-width:2.4382;stroke-linecap:round;stroke-linejoin:round;stroke-miterlimit:10;}
	.st10{opacity:0.41;fill:#FFFFFF;}
</style>
<path id="XMLID_115_" class="st0" d="M457.3,198c-6-23.9-18.6-41.5-28.3-39.2c-0.7,0.2-381.6,79.8-381.6,79.8
	c-9,4.2-11.5,23.6-9.1,46.2c4.4,41.2,34.2,69.8,44.5,67c3.9-1.1,362.7-96.7,363.3-96.9C455.8,252.7,463.2,222,457.3,198z"/>
<path id="XMLID_114_" class="st1" d="M457.6,201.6c-5.9-26.1-18.5-48.1-26.6-43.7c-5.3,2.9-11.2,24.7-5.4,50.8
	c5.9,26.1,17.7,45.7,26.6,43.7C461,250.4,463.5,227.7,457.6,201.6z"/>
<path id="XMLID_113_" class="st1" d="M448.4,204.2c-6.3-27.3-20-50.2-28.7-45.6c-5.7,3-12.1,25.8-5.7,53.1
	c6.3,27.3,19.2,47.7,28.7,45.6C452.2,255.2,454.7,231.4,448.4,204.2z"/>
<path id="XMLID_112_" class="st1" d="M437.4,206.9c-6.3-27.1-19.6-50.1-27.7-45.7c-5.4,2.9-11,25.5-4.7,52.6
	c6.4,27.1,18.8,47.6,27.7,45.7C441.6,257.6,443.7,234.1,437.4,206.9z"/>
<path id="XMLID_111_" class="st1" d="M425.8,209.3c-6-27.7-17.7-51.3-24.4-47c-4.5,2.9-8.8,25.6-2.9,53.3c6,27.7,16.9,48.7,24.4,47
	C430.5,260.8,431.8,237,425.8,209.3z"/>
<path id="XMLID_110_" class="st1" d="M417.7,211.4c-5.7-28.6-18-52.7-25.9-47.9c-5.2,3.2-11.1,27.1-5.4,55.7
	c5.6,28.6,17.2,50,25.9,47.9C420.9,264.9,423.3,240,417.7,211.4z"/>
<path id="XMLID_109_" class="st1" d="M409.4,213.5c-6.4-28.2-19.9-52.1-28.3-47.4c-5.6,3.1-11.6,26.6-5.2,54.8
	c6.4,28.2,19.1,49.4,28.4,47.4C413.5,266.2,415.8,241.7,409.4,213.5z"/>
<path id="XMLID_108_" class="st1" d="M396.9,216.3c-6.4-28.4-18.9-52.7-26.1-48.2c-4.8,2.9-9.3,26.3-2.9,54.7
	c6.4,28.4,18.1,50,26.1,48.2C402,269.2,403.3,244.8,396.9,216.3z"/>
<path id="XMLID_107_" class="st1" d="M386.4,219c-6.8-28.6-18.9-53.2-25.3-49c-4.2,2.8-7.5,25.9-0.7,54.5
	c6.8,28.6,18.1,50.5,25.3,49C392.9,272,393.2,247.6,386.4,219z"/>
<path id="XMLID_106_" class="st1" d="M378.9,219.9c-6.9-29.1-20.3-53.6-27.8-48.6c-5,3.3-9.7,27.8-2.8,57
	c6.9,29.1,19.4,50.9,27.8,48.6C384.6,274.5,385.8,249,378.9,219.9z"/>
<g id="XMLID_181_">
	<path id="XMLID_105_" class="st1" d="M235.4,305.4l0.5-0.1C235.7,305.3,235.5,305.3,235.4,305.4L235.4,305.4z"/>
	<path id="XMLID_104_" class="st1" d="M213.7,204.3c0.2-0.1,0.3-0.2,0.5-0.2L213.7,204.3L213.7,204.3z"/>
	<path id="XMLID_103_" class="st1" d="M346.6,175.7l-144.2,30.6c8.8-1.9,26.8,19.3,32.8,47.2c6,27.9,1.9,58.1-6.9,60l140.2-37.5
		c5.4-1.2,4.7-23.8-1.3-51.7C361.2,196.2,352,174.5,346.6,175.7z"/>
</g>
<path id="XMLID_102_" class="st1" d="M235.4,254.2c8.4,30.3,8.2,60-1.9,59.7c-6.7-0.2-24.1-19.8-32.5-50.1
	c-8.5-30.4-7.6-57.1,1.9-59.7C212.4,201.4,227,223.9,235.4,254.2z"/>
<path id="XMLID_101_" class="st1" d="M225.5,256.2c8.5,30.4,8.5,60.1-1.2,59.7c-6.4-0.3-23.4-20.1-31.9-50.5
	c-8.5-30.4-7.9-57.2,1.2-59.7C202.7,203.1,217,225.7,225.5,256.2z"/>
<path id="XMLID_100_" class="st1" d="M214.5,258.5c8.5,30.6,9,60.3-0.3,59.7c-6.2-0.3-22.6-20.4-31.2-51
	c-8.5-30.6-8.4-57.3,0.3-59.7C192,205.2,205.9,228,214.5,258.5z"/>
<path id="XMLID_99_" class="st1" d="M203.2,260.7c8.5,30.5,10.3,59.8,2.6,58.9c-5.1-0.6-19.7-21.2-28.2-51.7
	c-8.5-30.5-9.6-56.9-2.6-58.8C182.1,207.1,194.7,230.2,203.2,260.7z"/>
<path id="XMLID_98_" class="st1" d="M196.1,263.4c8.7,31.1,9.9,61.1,1.3,60.4c-5.7-0.5-21.4-21.2-30.1-52.3
	c-8.7-31.1-9.3-58.1-1.3-60.3C174,208.8,187.4,232.2,196.1,263.4z"/>
<path id="XMLID_97_" class="st1" d="M186.2,265.5c8.7,31.2,9.2,61.5-0.2,60.9c-6.2-0.4-23-20.9-31.7-52c-8.7-31.2-8.6-58.5,0.2-60.9
	C163.3,211,177.5,234.3,186.2,265.5z"/>
<path id="XMLID_96_" class="st1" d="M175.3,268.2c8.7,31.3,10.3,61.4,2.1,60.5c-5.5-0.6-20.8-21.6-29.5-52.9
	c-8.7-31.3-9.7-58.4-2.1-60.5C153.4,213.3,166.6,236.9,175.3,268.2z"/>
<path id="XMLID_95_" class="st1" d="M164.2,270.7c8.7,31.3,10.9,61.2,3.5,60.1c-5-0.7-19.4-22-28.1-53.3
	c-8.7-31.3-10.3-58.2-3.5-60.1C142.9,215.5,155.4,239.4,164.2,270.7z"/>
<path id="XMLID_94_" class="st1" d="M156,272.1c8.8,31.5,10.2,61.9,1.8,61c-5.6-0.6-21.2-21.6-30-53.2c-8.8-31.5-9.6-58.8-1.8-61
	C133.8,216.8,147.2,240.6,156,272.1z"/>
<path id="XMLID_93_" class="st1" d="M146.3,274.7c8.8,31.6,10.8,61.8,3.1,60.8c-5.2-0.7-20-22-28.8-53.6
	c-8.8-31.6-10.2-58.8-3.1-60.7C124.6,219.1,137.5,243.1,146.3,274.7z"/>
<path id="XMLID_92_" class="st1" d="M136.6,277.5c8.9,31.8,10.7,62.3,2.7,61.3c-5.3-0.7-20.5-22.1-29.3-53.8
	c-8.9-31.8-10.1-59.2-2.7-61.3C114.6,221.6,127.7,245.7,136.6,277.5z"/>
<path id="XMLID_91_" class="st1" d="M127.7,279.3c9,32.1,9.8,63.2,0.5,62.5c-6.2-0.5-23-21.7-31.9-53.8c-9-32.1-9.2-60.1-0.5-62.5
	C104.5,223.1,118.8,247.2,127.7,279.3z"/>
<path id="XMLID_90_" class="st1" d="M117.9,281.2c9,32.3,8.8,63.9-1.7,63.5c-7-0.2-25.3-21.2-34.3-53.5c-9-32.3-8.2-60.7,1.7-63.5
	C93.5,225,108.9,249,117.9,281.2z"/>
<path id="XMLID_89_" class="st1" d="M108,283.9c9.1,32.7,8.2,64.8-3.3,64.7c-7.6-0.1-27.2-21-36.3-53.6c-9.1-32.7-7.6-61.6,3.3-64.7
	C82.6,227.3,98.9,251.3,108,283.9z"/>
<path id="XMLID_88_" class="st1" d="M99.2,286.1c9,32.4,6,64.9-7.8,65.5c-9.2,0.4-31.5-19.6-40.6-52c-9-32.5-5.5-61.8,7.8-65.5
	C72,230.4,90.2,253.7,99.2,286.1z"/>
<path id="XMLID_87_" class="st1" d="M89.3,288.6c8.8,31.5,5.7,63.1-7.9,63.6c-9,0.4-30.9-18.9-39.6-50.4c-8.8-31.5-5.2-60,7.9-63.6
	C62.8,234.5,80.5,257.1,89.3,288.6z"/>
<path id="XMLID_86_" class="st1" d="M81.8,291.1c8,28.6,6,57-5.5,57.3c-7.6,0.2-26.4-17.6-34.4-46.2c-8-28.6-5.5-54.2,5.5-57.3
	C58.5,241.9,73.9,262.6,81.8,291.1z"/>
<path id="XMLID_85_" class="st2" d="M72.3,242.7l1.4,3c0,0,21.2,36.7,20.6,51.8c11.3-11-22-55.8-22-55.8"/>
<path id="XMLID_84_" class="st2" d="M167.8,232.5l1.1,3.2c0,0,16.8,39,14.3,53.9c12.5-9.6-15.3-58-15.3-58"/>
<path id="XMLID_83_" class="st2" d="M129.3,248.3l1.1,3.2c0,0,16.8,39,14.3,53.9c12.5-9.6-15.3-58-15.3-58"/>
<path id="XMLID_82_" class="st2" d="M197.3,232.5l1.1,3.2c0,0,16.8,39,14.3,53.9c12.5-9.6-15.3-58-15.3-58"/>
<path id="XMLID_81_" class="st2" d="M218.3,225.4l1.1,3.2c0,0,16.8,39,14.3,53.9c12.5-9.6-15.3-58-15.3-58"/>
<path id="XMLID_80_" class="st2" d="M361.2,190.8l1.1,3.2c0,0,16.8,39,14.3,53.9c12.5-9.6-15.3-58-15.3-58"/>
<path id="XMLID_79_" class="st2" d="M402.4,180.4l0.9,3.2c0,0,14.2,40,10.7,54.7c13.1-8.8-11.4-58.9-11.4-58.9"/>
<path id="XMLID_78_" class="st2" d="M440.5,171.7l1.1,3.2c0,0,16.8,39,14.3,53.9c12.5-9.6-15.3-58-15.3-58"/>
<path id="XMLID_77_" class="st3" d="M457.3,198c-6-23.9-18.6-41.5-28.3-39.2c-0.7,0.2-381.6,79.8-381.6,79.8
	c-9,4.2-11.5,23.6-9.1,46.2c4.4,41.2,34.2,69.8,44.5,67c3.9-1.1,362.7-96.7,363.3-96.9C455.8,252.7,463.2,222,457.3,198z"/>
<path id="XMLID_76_" class="st4" d="M457.6,201.6c-5.9-26.1-18.5-48.1-26.6-43.7c-5.3,2.9-11.2,24.7-5.4,50.8
	c5.9,26.1,17.7,45.7,26.6,43.7C461,250.4,463.5,227.7,457.6,201.6z"/>
<path id="XMLID_75_" class="st4" d="M448.4,204.2c-6.3-27.3-20-50.2-28.7-45.6c-5.7,3-12.1,25.8-5.7,53.1
	c6.3,27.3,19.2,47.7,28.7,45.6C452.2,255.2,454.7,231.4,448.4,204.2z"/>
<path id="XMLID_74_" class="st4" d="M437.4,206.9c-6.3-27.1-19.6-50.1-27.7-45.7c-5.4,2.9-11,25.5-4.7,52.6
	c6.4,27.1,18.8,47.6,27.7,45.7C441.6,257.6,443.7,234.1,437.4,206.9z"/>
<path id="XMLID_73_" class="st4" d="M425.8,209.3c-6-27.7-17.7-51.3-24.4-47c-4.5,2.9-8.8,25.6-2.9,53.3c6,27.7,16.9,48.7,24.4,47
	C430.5,260.8,431.8,237,425.8,209.3z"/>
<path id="XMLID_72_" class="st4" d="M417.7,211.4c-5.7-28.6-18-52.7-25.9-47.9c-5.2,3.2-11.1,27.1-5.4,55.7
	c5.6,28.6,17.2,50,25.9,47.9C420.9,264.9,423.3,240,417.7,211.4z"/>
<path id="XMLID_71_" class="st4" d="M409.4,213.5c-6.4-28.2-19.9-52.1-28.3-47.4c-5.6,3.1-11.6,26.6-5.2,54.8
	c6.4,28.2,19.1,49.4,28.4,47.4C413.5,266.2,415.8,241.7,409.4,213.5z"/>
<path id="XMLID_70_" class="st4" d="M396.9,216.3c-6.4-28.4-18.9-52.7-26.1-48.2c-4.8,2.9-9.3,26.3-2.9,54.7
	c6.4,28.4,18.1,50,26.1,48.2C402,269.2,403.3,244.8,396.9,216.3z"/>
<path id="XMLID_69_" class="st4" d="M386.4,219c-6.8-28.6-18.9-53.2-25.3-49c-4.2,2.8-7.5,25.9-0.7,54.5c6.8,28.6,18.1,50.5,25.3,49
	C392.9,272,393.2,247.6,386.4,219z"/>
<path id="XMLID_68_" class="st4" d="M378.9,219.9c-6.9-29.1-20.3-53.6-27.8-48.6c-5,3.3-9.7,27.8-2.8,57
	c6.9,29.1,19.4,50.9,27.8,48.6C384.6,274.5,385.8,249,378.9,219.9z"/>
<g id="XMLID_142_">
	<linearGradient id="XMLID_117_" gradientUnits="userSpaceOnUse" x1="204.5795" y1="174.1636" x2="248.3584" y2="359.0081">
		<stop  offset="0" style="stop-color:#8B8B8B"/>
		<stop  offset="0.2909" style="stop-color:#ECECED"/>
		<stop  offset="0.5697" style="stop-color:#58585A"/>
		<stop  offset="0.7939" style="stop-color:#C5C5C5"/>
	</linearGradient>
	<path id="XMLID_67_" class="st5" d="M235.4,305.4l0.5-0.1C235.7,305.3,235.5,305.3,235.4,305.4L235.4,305.4z"/>
	<linearGradient id="XMLID_118_" gradientUnits="userSpaceOnUse" x1="206.4864" y1="172.7096" x2="251.26" y2="361.7541">
		<stop  offset="0" style="stop-color:#8B8B8B"/>
		<stop  offset="0.2909" style="stop-color:#ECECED"/>
		<stop  offset="0.5697" style="stop-color:#58585A"/>
		<stop  offset="0.7939" style="stop-color:#C5C5C5"/>
	</linearGradient>
	<path id="XMLID_66_" class="st6" d="M213.7,204.3c0.2-0.1,0.3-0.2,0.5-0.2L213.7,204.3L213.7,204.3z"/>
	<linearGradient id="XMLID_119_" gradientUnits="userSpaceOnUse" x1="271.2916" y1="158.0189" x2="315.1796" y2="343.3243">
		<stop  offset="0" style="stop-color:#8B8B8B"/>
		<stop  offset="0.2909" style="stop-color:#ECECED"/>
		<stop  offset="0.5697" style="stop-color:#58585A"/>
		<stop  offset="0.7939" style="stop-color:#C5C5C5"/>
	</linearGradient>
	<path id="XMLID_65_" class="st7" d="M346.6,175.7l-144.2,30.6c8.8-1.9,26.8,19.3,32.8,47.2c6,27.9,1.9,58.1-6.9,60l140.2-37.5
		c5.4-1.2,4.7-23.8-1.3-51.7C361.2,196.2,352,174.5,346.6,175.7z"/>
</g>
<path id="XMLID_64_" class="st4" d="M235.4,254.2c8.4,30.3,8.2,60-1.9,59.7c-6.7-0.2-24.1-19.8-32.5-50.1
	c-8.5-30.4-7.6-57.1,1.9-59.7C212.4,201.4,227,223.9,235.4,254.2z"/>
<path id="XMLID_63_" class="st4" d="M225.5,256.2c8.5,30.4,8.5,60.1-1.2,59.7c-6.4-0.3-23.4-20.1-31.9-50.5
	c-8.5-30.4-7.9-57.2,1.2-59.7C202.7,203.1,217,225.7,225.5,256.2z"/>
<path id="XMLID_62_" class="st4" d="M214.5,258.5c8.5,30.6,9,60.3-0.3,59.7c-6.2-0.3-22.6-20.4-31.2-51c-8.5-30.6-8.4-57.3,0.3-59.7
	C192,205.2,205.9,228,214.5,258.5z"/>
<path id="XMLID_61_" class="st4" d="M203.2,260.7c8.5,30.5,10.3,59.8,2.6,58.9c-5.1-0.6-19.7-21.2-28.2-51.7
	c-8.5-30.5-9.6-56.9-2.6-58.8C182.1,207.1,194.7,230.2,203.2,260.7z"/>
<path id="XMLID_60_" class="st4" d="M196.1,263.4c8.7,31.1,9.9,61.1,1.3,60.4c-5.7-0.5-21.4-21.2-30.1-52.3
	c-8.7-31.1-9.3-58.1-1.3-60.3C174,208.8,187.4,232.2,196.1,263.4z"/>
<path id="XMLID_59_" class="st4" d="M186.2,265.5c8.7,31.2,9.2,61.5-0.2,60.9c-6.2-0.4-23-20.9-31.7-52c-8.7-31.2-8.6-58.5,0.2-60.9
	C163.3,211,177.5,234.3,186.2,265.5z"/>
<path id="XMLID_58_" class="st4" d="M175.3,268.2c8.7,31.3,10.3,61.4,2.1,60.5c-5.5-0.6-20.8-21.6-29.5-52.9
	c-8.7-31.3-9.7-58.4-2.1-60.5C153.4,213.3,166.6,236.9,175.3,268.2z"/>
<path id="XMLID_57_" class="st4" d="M164.2,270.7c8.7,31.3,10.9,61.2,3.5,60.1c-5-0.7-19.4-22-28.1-53.3
	c-8.7-31.3-10.3-58.2-3.5-60.1C142.9,215.5,155.4,239.4,164.2,270.7z"/>
<path id="XMLID_56_" class="st4" d="M156,272.1c8.8,31.5,10.2,61.9,1.8,61c-5.6-0.6-21.2-21.6-30-53.2c-8.8-31.5-9.6-58.8-1.8-61
	C133.8,216.8,147.2,240.6,156,272.1z"/>
<path id="XMLID_37_" class="st4" d="M146.3,274.7c8.8,31.6,10.8,61.8,3.1,60.8c-5.2-0.7-20-22-28.8-53.6
	c-8.8-31.6-10.2-58.8-3.1-60.7C124.6,219.1,137.5,243.1,146.3,274.7z"/>
<path id="XMLID_36_" class="st4" d="M136.6,277.5c8.9,31.8,10.7,62.3,2.7,61.3c-5.3-0.7-20.5-22.1-29.3-53.8
	c-8.9-31.8-10.1-59.2-2.7-61.3C114.6,221.6,127.7,245.7,136.6,277.5z"/>
<path id="XMLID_35_" class="st4" d="M127.7,279.3c9,32.1,9.8,63.2,0.5,62.5c-6.2-0.5-23-21.7-31.9-53.8c-9-32.1-9.2-60.1-0.5-62.5
	C104.5,223.1,118.8,247.2,127.7,279.3z"/>
<path id="XMLID_34_" class="st4" d="M117.9,281.2c9,32.3,8.8,63.9-1.7,63.5c-7-0.2-25.3-21.2-34.3-53.5c-9-32.3-8.2-60.7,1.7-63.5
	C93.5,225,108.9,249,117.9,281.2z"/>
<path id="XMLID_33_" class="st4" d="M108,283.9c9.1,32.7,8.2,64.8-3.3,64.7c-7.6-0.1-27.2-21-36.3-53.6c-9.1-32.7-7.6-61.6,3.3-64.7
	C82.6,227.3,98.9,251.3,108,283.9z"/>
<path id="XMLID_32_" class="st4" d="M99.2,286.1c9,32.4,6,64.9-7.8,65.5c-9.2,0.4-31.5-19.6-40.6-52c-9-32.5-5.5-61.8,7.8-65.5
	C72,230.4,90.2,253.7,99.2,286.1z"/>
<path id="XMLID_31_" class="st8" d="M89.3,288.6c8.8,31.5,5.7,63.1-7.9,63.6c-9,0.4-30.9-18.9-39.6-50.4c-8.8-31.5-5.2-60,7.9-63.6
	C62.8,234.5,80.5,257.1,89.3,288.6z"/>
<path id="XMLID_30_" class="st9" d="M81.8,291.1c8,28.6,6,57-5.5,57.3c-7.6,0.2-26.4-17.6-34.4-46.2c-8-28.6-5.5-54.2,5.5-57.3
	C58.5,241.9,73.9,262.6,81.8,291.1z"/>
<path id="XMLID_29_" class="st10" d="M72.3,242.7l1.4,3c0,0,21.2,36.7,20.6,51.8c11.3-11-22-55.8-22-55.8"/>
<path id="XMLID_28_" class="st10" d="M167.8,232.5l1.1,3.2c0,0,16.8,39,14.3,53.9c12.5-9.6-15.3-58-15.3-58"/>
<path id="XMLID_27_" class="st10" d="M129.3,248.3l1.1,3.2c0,0,16.8,39,14.3,53.9c12.5-9.6-15.3-58-15.3-58"/>
<path id="XMLID_26_" class="st10" d="M197.3,232.5l1.1,3.2c0,0,16.8,39,14.3,53.9c12.5-9.6-15.3-58-15.3-58"/>
<path id="XMLID_25_" class="st10" d="M218.3,225.4l1.1,3.2c0,0,16.8,39,14.3,53.9c12.5-9.6-15.3-58-15.3-58"/>
<path id="XMLID_24_" class="st10" d="M361.2,190.8l1.1,3.2c0,0,16.8,39,14.3,53.9c12.5-9.6-15.3-58-15.3-58"/>
<path id="XMLID_23_" class="st10" d="M402.4,180.4l0.9,3.2c0,0,14.2,40,10.7,54.7c13.1-8.8-11.4-58.9-11.4-58.9"/>
<path id="XMLID_20_" class="st10" d="M440.5,171.7l1.1,3.2c0,0,16.8,39,14.3,53.9c12.5-9.6-15.3-58-15.3-58"/>
</svg>
