<?xml version="1.0" encoding="utf-8"?>
<!-- Generator: Adobe Illustrator 19.0.0, SVG Export Plug-In . SVG Version: 6.00 Build 0)  -->
<svg version="1.1" id="Camada_1" xmlns="http://www.w3.org/2000/svg" xmlns:xlink="http://www.w3.org/1999/xlink" x="0px" y="0px"
	 viewBox="0 0 500 500" style="enable-background:new 0 0 500 500;" xml:space="preserve">
<style type="text/css">
	.st0{stroke:#000000;stroke-width:8.7615;stroke-linejoin:round;stroke-miterlimit:10;}
	.st1{fill:#333333;stroke:#000000;stroke-width:2.9205;stroke-linejoin:round;stroke-miterlimit:10;}
	.st2{fill:none;stroke:#000000;stroke-width:2.9205;stroke-linejoin:round;stroke-miterlimit:10;}
</style>
<g>
	<path id="XMLID_51_" class="st0" d="M427.3,315.6c-28.9,61.6-97.5,104.9-177.6,104.9c-106.2,0-192.3-76.2-192.3-170.1
		c0-93.9,86.1-170.1,192.3-170.1c106.2,0,192.3,76.2,192.3,170.1c0,1.4-0.1,2.7-0.1,4.1l40.3,3.5c0.1-2.5,0.2-5,0.2-7.6
		c0-113.7-104.2-205.8-232.7-205.8S17,136.7,17,250.4c0,113.7,104.2,205.8,232.7,205.8c95.5,0,177.4-50.9,213.3-123.6L427.3,315.6z"
		/>
	<path id="XMLID_50_" class="st1" d="M427.3,315.6c-28.9,61.6-97.5,104.9-177.6,104.9c-106.2,0-192.3-76.2-192.3-170.1
		c0-93.9,86.1-170.1,192.3-170.1c106.2,0,192.3,76.2,192.3,170.1c0,1.4-0.1,2.7-0.1,4.1l40.3,3.5c0.1-2.5,0.2-5,0.2-7.6
		c0-113.7-104.2-205.8-232.7-205.8S17,136.7,17,250.4c0,113.7,104.2,205.8,232.7,205.8c95.5,0,177.4-50.9,213.3-123.6L427.3,315.6z"
		/>
	<polyline id="XMLID_49_" class="st2" points="243.9,420.5 228.4,436.9 239.5,456.2 	"/>
	<polyline id="XMLID_48_" class="st2" points="220.3,418.6 204.3,433 213.4,453.4 	"/>
	<polyline id="XMLID_47_" class="st2" points="197.5,413.5 179.2,427.4 186.8,448.1 	"/>
	<polyline id="XMLID_46_" class="st2" points="172.1,407 155.7,418.6 161.5,441.6 	"/>
	<polyline id="XMLID_45_" class="st2" points="153.9,398 134.8,408.8 136,430.8 	"/>
	<polyline id="XMLID_44_" class="st2" points="135.7,387.5 113.6,395.6 112.5,416.7 	"/>
	<polyline id="XMLID_43_" class="st2" points="118.7,375 98.1,380.1 92.3,402.1 	"/>
	<polyline id="XMLID_42_" class="st2" points="105,362.5 82.8,366.9 74.4,385.9 	"/>
	<polyline id="XMLID_41_" class="st2" points="91.6,348.5 67.4,348 57.3,367.8 	"/>
	<polyline id="XMLID_40_" class="st2" points="79.3,329.7 56.5,327.7 44.3,346.8 	"/>
	<polyline id="XMLID_39_" class="st2" points="68.7,308.4 44.9,304.6 31.4,322.8 	"/>
	<polyline id="XMLID_38_" class="st2" points="61.8,286.9 41.3,282.8 24.5,301.2 	"/>
	<polyline id="XMLID_37_" class="st2" points="58.7,268.1 37.2,261.7 18.6,276.3 	"/>
	<polyline id="XMLID_36_" class="st2" points="57.3,249.9 36.3,239.8 17,252.2 	"/>
	<polyline id="XMLID_35_" class="st2" points="58.8,229.4 41.5,218.3 18.5,228.1 	"/>
	<polyline id="XMLID_34_" class="st2" points="63,209.4 45.2,196.8 23.3,203 	"/>
	<polyline id="XMLID_33_" class="st2" points="69.3,190 52.5,174.6 29.6,182.4 	"/>
	<polyline id="XMLID_32_" class="st2" points="79.4,170.3 64.8,154.7 41,160.6 	"/>
	<polyline id="XMLID_31_" class="st2" points="91.9,153.1 77.1,134.8 53,140.3 	"/>
	<polyline id="XMLID_30_" class="st2" points="110.3,133.1 99,114.6 72.5,117.2 	"/>
	<polyline id="XMLID_29_" class="st2" points="131,115.7 120.9,97.8 96,96.6 	"/>
	<polyline id="XMLID_28_" class="st2" points="149.3,105.3 141.4,83.5 117.8,80.3 	"/>
	<polyline id="XMLID_27_" class="st2" points="171,94.3 167.4,75.6 144.5,66.8 	"/>
	<polyline id="XMLID_26_" class="st2" points="190.9,88.4 188.3,68.4 167.8,57.7 	"/>
	<polyline id="XMLID_25_" class="st2" points="208.9,84.1 208.5,65 192.4,50.6 	"/>
	<polyline id="XMLID_24_" class="st2" points="219.6,83.2 226,63.6 215.5,46.8 	"/>
	<polyline id="XMLID_23_" class="st2" points="236,80.5 249.4,61 239.5,44.6 	"/>
	<polyline id="XMLID_22_" class="st2" points="262.4,80.1 276,65.5 268.5,44.4 	"/>
	<polyline id="XMLID_21_" class="st2" points="285.3,83.2 300.7,68.4 296.6,48.8 	"/>
	<polyline id="XMLID_20_" class="st2" points="305.4,87.6 324.2,75.9 318.5,53.8 	"/>
	<polyline id="XMLID_19_" class="st2" points="327.7,94.9 346.3,85.1 344,62.2 	"/>
	<polyline id="XMLID_18_" class="st2" points="350,105.3 369,96.1 367.7,73.1 	"/>
	<polyline id="XMLID_17_" class="st2" points="369.9,117.5 389.1,110 390.2,86.3 	"/>
	<polyline id="XMLID_16_" class="st2" points="385,130.3 406.6,124.1 411.7,102.6 	"/>
	<polyline id="XMLID_15_" class="st2" points="399.6,144.5 423.3,141.6 430.4,121.5 	"/>
	<polyline id="XMLID_14_" class="st2" points="412.4,160.3 433.8,160.1 445.7,140.1 	"/>
	<polyline id="XMLID_13_" class="st2" points="422.1,175.5 444.9,176.3 458.4,159.8 	"/>
	<polyline id="XMLID_12_" class="st2" points="431,192.2 454.2,198.1 469.7,181.2 	"/>
	<polyline id="XMLID_11_" class="st2" points="437.6,213.1 459,220.1 476.3,204.5 	"/>
	<polyline id="XMLID_10_" class="st2" points="441.7,236.1 463.5,245.1 481.8,230.6 	"/>
	<polyline id="XMLID_9_" class="st2" points="418.7,333.1 432.3,349.3 455.2,348.2 	"/>
	<polyline id="XMLID_8_" class="st2" points="405.2,350.5 418.8,369.1 441.9,366.8 	"/>
	<polyline id="XMLID_7_" class="st2" points="390.7,366 401.2,385.6 426,385.2 	"/>
	<polyline id="XMLID_6_" class="st2" points="373.9,380.2 383.6,402.1 406.8,402.2 	"/>
	<polyline id="XMLID_5_" class="st2" points="351,396.2 356.6,416.7 381.2,420.2 	"/>
	<polyline id="XMLID_4_" class="st2" points="326,406.6 330.6,428 354.3,434.7 	"/>
	<polyline id="XMLID_3_" class="st2" points="305.3,414.4 306.7,437.2 326,444.9 	"/>
	<polyline id="XMLID_2_" class="st2" points="282.2,418.5 280.3,437.3 299.9,451 	"/>
	<polyline id="XMLID_1_" class="st2" points="261.6,420.2 257,441.3 274.6,455.1 	"/>
</g>
</svg>
