<?xml version="1.0" encoding="utf-8"?>
<!-- Generator: Adobe Illustrator 19.0.0, SVG Export Plug-In . SVG Version: 6.00 Build 0)  -->
<svg version="1.1" id="Camada_1" xmlns="http://www.w3.org/2000/svg" xmlns:xlink="http://www.w3.org/1999/xlink" x="0px" y="0px"
	 viewBox="0 0 500 500" style="enable-background:new 0 0 500 500;" xml:space="preserve">
<style type="text/css">
	.st0{fill:none;stroke:#1D1D1B;stroke-width:3.169;stroke-miterlimit:10;}
	.st1{fill:#1D1D1B;}
	.st2{fill:none;stroke:#E20613;stroke-width:3.169;stroke-miterlimit:10;}
	.st3{font-family:'MyriadPro-Regular';}
	.st4{font-size:32.254px;}
	.st5{fill:#1D1D1B;stroke:#1D1D1B;stroke-width:6.3381;stroke-linejoin:round;stroke-miterlimit:10;}
	.st6{fill:#F5F5F5;stroke:#1D1D1B;stroke-width:1.5845;stroke-linejoin:round;stroke-miterlimit:10;}
	.st7{fill:#ECECEC;stroke:#1D1D1B;stroke-width:1.5845;stroke-linejoin:round;stroke-miterlimit:10;}
	.st8{fill:#D9D9D9;stroke:#1D1D1B;stroke-width:1.5845;stroke-linejoin:round;stroke-miterlimit:10;}
</style>
<g id="XMLID_76_">
	<g id="XMLID_118_">
		<line id="XMLID_123_" class="st0" x1="109.5" y1="168.3" x2="421.6" y2="168.3"/>
		<g id="XMLID_121_">
			<polygon id="XMLID_122_" class="st1" points="114.6,175.3 87.1,168 114.6,160.6 			"/>
		</g>
		<g id="XMLID_119_">
			<polygon id="XMLID_120_" class="st1" points="416.6,175.3 444.1,168 416.6,160.6 			"/>
		</g>
	</g>
</g>
<line id="XMLID_75_" class="st2" x1="83.8" y1="149.7" x2="83.6" y2="215.9"/>
<line id="XMLID_74_" class="st2" x1="20.4" y1="148.9" x2="20.4" y2="215"/>
<g id="XMLID_91_">
	<g id="XMLID_111_">
		<line id="XMLID_116_" class="st0" x1="41.8" y1="168.3" x2="61.4" y2="168.3"/>
		<g id="XMLID_114_">
			<polygon id="XMLID_115_" class="st1" points="46.2,174.4 22.1,168 46.2,161.5 			"/>
		</g>
		<g id="XMLID_112_">
			<polygon id="XMLID_113_" class="st1" points="57,174.4 81.1,168 57,161.5 			"/>
		</g>
	</g>
</g>
<text id="XMLID_90_" transform="matrix(1 0 0 1 4.8384 250.8984)" class="st1 st3 st4">Cabeça</text>
<line id="XMLID_89_" class="st2" x1="382.6" y1="116.7" x2="382.6" y2="216.6"/>
<line id="XMLID_88_" class="st2" x1="446.1" y1="83.7" x2="446.1" y2="217.8"/>
<g id="XMLID_101_">
	<g id="XMLID_104_">
		<line id="XMLID_109_" class="st0" x1="424.4" y1="198.7" x2="402.3" y2="198.8"/>
		<g id="XMLID_107_">
			<polygon id="XMLID_108_" class="st1" points="420,192.6 444.1,198.9 420.1,205.5 			"/>
		</g>
		<g id="XMLID_105_">
			<polygon id="XMLID_106_" class="st1" points="406.7,192.6 382.6,199.2 406.7,205.5 			"/>
		</g>
	</g>
</g>
<text id="XMLID_100_" transform="matrix(1 0 0 1 161.2544 250.8984)" class="st1 st3 st4">Corpo</text>
<text id="XMLID_99_" transform="matrix(1 0 0 1 325.8193 250.8984)" class="st1 st3 st4">Extremidade</text>
<polygon id="XMLID_98_" class="st5" points="415.8,113.8 367.2,113.8 367.2,40.2 415.8,40.2 440.4,76.7 "/>
<polygon id="XMLID_97_" class="st6" points="415.8,113.8 367.2,113.8 367.2,40.2 415.8,40.2 440.4,76.7 "/>
<g id="XMLID_80_">
	<path id="XMLID_35_" class="st5" d="M368.8,40.2c12.5,0,22.7,16.4,22.7,36.7c0,20.3-10.1,36.7-22.6,36.7
		c-12.5,0-22.7-16.4-22.7-36.7C346.1,56.7,356.3,40.2,368.8,40.2z"/>
	<path id="XMLID_63_" class="st5" d="M352.8,40.2c12.5,0,22.7,16.4,22.7,36.7c0,20.3-10.1,36.7-22.6,36.7
		c-12.5,0-22.7-16.4-22.7-36.7C330.1,56.7,340.3,40.2,352.8,40.2z"/>
	<path id="XMLID_62_" class="st5" d="M336.8,40.2c12.5,0,22.7,16.4,22.7,36.7c0,20.3-10.1,36.7-22.6,36.7
		c-12.5,0-22.7-16.4-22.7-36.7C314.1,56.7,324.2,40.2,336.8,40.2z"/>
	<path id="XMLID_61_" class="st5" d="M320.8,40.2c12.5,0,22.7,16.4,22.7,36.7c0,20.3-10.1,36.7-22.6,36.7
		c-12.5,0-22.7-16.4-22.7-36.7C298.1,56.7,308.2,40.2,320.8,40.2z"/>
	<path id="XMLID_60_" class="st5" d="M304.7,40.2c12.5,0,22.7,16.4,22.7,36.7c0,20.3-10.1,36.7-22.6,36.7
		c-12.5,0-22.7-16.4-22.7-36.7C282.1,56.7,292.2,40.3,304.7,40.2z"/>
	<path id="XMLID_59_" class="st5" d="M288.7,40.3c12.5,0,22.7,16.4,22.7,36.7c0,20.3-10.1,36.7-22.6,36.7
		c-12.5,0-22.7-16.4-22.7-36.7C266.1,56.7,276.2,40.3,288.7,40.3z"/>
	<path id="XMLID_58_" class="st5" d="M272.7,40.3c12.5,0,22.7,16.4,22.7,36.7c0,20.3-10.1,36.7-22.6,36.7
		c-12.5,0-22.7-16.4-22.7-36.7C250.1,56.7,260.2,40.3,272.7,40.3z"/>
	<path id="XMLID_57_" class="st5" d="M256.7,40.3c12.5,0,22.7,16.4,22.7,36.7c0,20.3-10.1,36.7-22.6,36.7
		c-12.5,0-22.7-16.4-22.7-36.7C234.1,56.7,244.2,40.3,256.7,40.3z"/>
	<path id="XMLID_56_" class="st5" d="M240.7,40.3c12.5,0,22.7,16.4,22.7,36.7c0,20.3-10.1,36.7-22.6,36.7
		c-12.5,0-22.7-16.4-22.7-36.7C218.1,56.8,228.2,40.3,240.7,40.3z"/>
	<path id="XMLID_37_" class="st5" d="M224.7,40.3c12.5,0,22.7,16.4,22.7,36.7c0,20.3-10.1,36.7-22.6,36.7
		c-12.5,0-22.7-16.4-22.7-36.7C202.1,56.8,212.2,40.3,224.7,40.3z"/>
	<path id="XMLID_36_" class="st5" d="M208.7,40.3c12.5,0,22.7,16.4,22.7,36.7c0,20.3-10.1,36.7-22.6,36.7
		c-12.5,0-22.7-16.4-22.7-36.7C186.1,56.8,196.2,40.3,208.7,40.3z"/>
	<path id="XMLID_34_" class="st5" d="M192.7,40.3c12.5,0,22.7,16.4,22.7,36.7c0,20.3-10.1,36.7-22.6,36.7
		c-12.5,0-22.7-16.4-22.7-36.7C170.1,56.8,180.2,40.3,192.7,40.3z"/>
</g>
<path id="XMLID_72_" class="st5" d="M37.6,8.8L14.4,43l0.1,68.3l23.3,34.2l7.6-11.2l-7.6,11.2l40.2,0l21.6-31.9l75.2-0.1
	c0.2,0,0.4,0,0.5,0c0.6,0.1,1.2,0.1,1.8,0.1c14.2,0,25.6-16.4,25.6-36.6c0-20.2-11.5-36.6-25.7-36.6c-0.6,0-1.2,0.1-1.8,0.1
	c-0.2,0-0.4,0-0.5,0l-75.2,0.1L77.8,8.8L37.6,8.8L45.3,20L37.6,8.8z"/>
<g id="XMLID_79_">
	<path id="XMLID_23_" class="st6" d="M378.8,40.4c12.5,0,22.7,16.4,22.7,36.7c0,20.3-10.1,36.7-22.6,36.7
		c-12.5,0-22.7-16.4-22.7-36.7C356.2,56.9,366.3,40.4,378.8,40.4z"/>
	<path id="XMLID_33_" class="st6" d="M361.9,40.4c12.5,0,22.7,16.4,22.7,36.7c0,20.3-10.1,36.7-22.6,36.7
		c-12.5,0-22.7-16.4-22.7-36.7C339.3,56.9,349.4,40.4,361.9,40.4z"/>
	<path id="XMLID_32_" class="st6" d="M345,40.4c12.5,0,22.7,16.4,22.7,36.7c0,20.3-10.1,36.7-22.6,36.7c-12.5,0-22.7-16.4-22.7-36.7
		C322.3,56.9,332.5,40.4,345,40.4z"/>
	<path id="XMLID_31_" class="st6" d="M328.1,40.4c12.5,0,22.7,16.4,22.7,36.7c0,20.3-10.1,36.7-22.6,36.7
		c-12.5,0-22.7-16.4-22.7-36.7C305.4,56.9,315.5,40.4,328.1,40.4z"/>
	<path id="XMLID_30_" class="st6" d="M311.1,40.4c12.5,0,22.7,16.4,22.7,36.7c0,20.3-10.1,36.7-22.6,36.7
		c-12.5,0-22.7-16.4-22.7-36.7C288.5,56.9,298.6,40.4,311.1,40.4z"/>
	<path id="XMLID_29_" class="st6" d="M294.2,40.4c12.5,0,22.7,16.4,22.7,36.7c0,20.3-10.1,36.7-22.6,36.7
		c-12.5,0-22.7-16.4-22.7-36.7C271.6,56.8,281.7,40.4,294.2,40.4z"/>
	<path id="XMLID_28_" class="st6" d="M277.3,40.4c12.5,0,22.7,16.4,22.7,36.7c0,20.3-10.1,36.7-22.6,36.7
		c-12.5,0-22.7-16.4-22.7-36.7C254.7,56.8,264.8,40.4,277.3,40.4z"/>
	<path id="XMLID_27_" class="st6" d="M260.4,40.4c12.5,0,22.7,16.4,22.7,36.7c0,20.3-10.1,36.7-22.6,36.7
		c-12.5,0-22.7-16.4-22.7-36.7C237.7,56.8,247.9,40.4,260.4,40.4z"/>
	<path id="XMLID_26_" class="st6" d="M243.5,40.4c12.5,0,22.7,16.4,22.7,36.7c0,20.3-10.1,36.7-22.6,36.7
		c-12.5,0-22.7-16.4-22.7-36.7C220.8,56.8,230.9,40.4,243.5,40.4z"/>
	<path id="XMLID_25_" class="st6" d="M226.5,40.3c12.5,0,22.7,16.4,22.7,36.7c0,20.3-10.1,36.7-22.6,36.7
		c-12.5,0-22.7-16.4-22.7-36.7C203.9,56.8,214,40.4,226.5,40.3z"/>
	<path id="XMLID_24_" class="st6" d="M209.6,40.3c12.5,0,22.7,16.4,22.7,36.7c0,20.3-10.1,36.7-22.6,36.7
		c-12.5,0-22.7-16.4-22.7-36.7C187,56.8,197.1,40.3,209.6,40.3z"/>
	<path id="XMLID_20_" class="st6" d="M192.7,40.3c12.5,0,22.7,16.4,22.7,36.7c0,20.3-10.1,36.7-22.6,36.7
		c-12.5,0-22.7-16.4-22.7-36.7C170.1,56.8,180.2,40.3,192.7,40.3z"/>
</g>
<path id="XMLID_68_" class="st6" d="M175.3,40.6c-0.2,0-0.4,0-0.5,0l-114,0.1c-7,0-12.6,4.9-12.6,10.9l0,51.3
	c0,6,5.7,10.9,12.6,10.9l114-0.1c0.2,0,0.4,0,0.5,0c0.6,0.1,1.2,0.1,1.8,0.1c14.2,0,25.6-16.4,25.6-36.6c0-20.2-11.5-36.6-25.7-36.6
	C176.5,40.5,175.9,40.5,175.3,40.6z"/>
<polygon id="XMLID_67_" class="st7" points="61,111.3 37.8,145.5 14.5,111.4 14.4,43 37.6,8.8 60.9,43 "/>
<polygon id="XMLID_66_" class="st6" points="101.1,42.9 101.2,111.3 61,111.3 60.9,43 "/>
<polygon id="XMLID_65_" class="st8" points="77.8,8.8 101.1,43 60.9,43 37.6,8.8 "/>
<polygon id="XMLID_64_" class="st6" points="78,145.5 101.2,111.3 61,111.3 37.8,145.5 "/>
</svg>
