<?xml version="1.0" encoding="utf-8"?>
<!-- Generator: Adobe Illustrator 19.0.0, SVG Export Plug-In . SVG Version: 6.00 Build 0)  -->
<svg version="1.1" id="Camada_1" xmlns="http://www.w3.org/2000/svg" xmlns:xlink="http://www.w3.org/1999/xlink" x="0px" y="0px"
	 viewBox="0 0 500 500" style="enable-background:new 0 0 500 500;" xml:space="preserve">
<style type="text/css">
	.st0{stroke:#000000;stroke-width:6.2848;stroke-linejoin:round;stroke-miterlimit:10;}
	.st1{fill:#F6F6F6;stroke:#000000;stroke-width:2.0949;stroke-linejoin:round;stroke-miterlimit:10;}
	.st2{fill:#C6C6C6;stroke:#000000;stroke-width:2.0949;stroke-linejoin:round;stroke-miterlimit:10;}
	.st3{fill:#DADADA;stroke:#000000;stroke-width:2.0949;stroke-linejoin:round;stroke-miterlimit:10;}
	.st4{fill:#B2B2B2;stroke:#000000;stroke-width:2.0949;stroke-linejoin:round;stroke-miterlimit:10;}
	.st5{fill:#DDC87A;stroke:#000000;stroke-width:2.0949;stroke-linejoin:round;stroke-miterlimit:10;}
	.st6{fill:#3C3C3B;stroke:#000000;stroke-width:2.0949;stroke-linejoin:round;stroke-miterlimit:10;}
</style>
<g>
	<g>
		<path id="XMLID_35_" class="st0" d="M271,219.4c0-59.5-39-109.5-91.7-123.6c-13.2-5.1-27.5-7.8-42.4-7.8
			c-67.9,0-123,57.5-123,128.5c0,66.2,47.9,120.7,109.5,127.7c8.2,1.8,16.7,2.8,25.5,2.8C216.3,347,271,289.9,271,219.4z
			 M52.4,219.4c0-47.4,31.3-87.1,73.4-97.9c2-0.2,4.1-0.3,6.1-0.3c58.5-1.2,107,45.3,108.2,103.8c0.4,20.4-5,39.5-14.6,55.9
			c-17.6,24-45.4,39.5-76.5,39.5C95.6,320.3,52.4,275.1,52.4,219.4z"/>
		<path id="XMLID_34_" class="st0" d="M476.3,348.8L476.3,348.8l-0.6-0.5c-0.4-1.2-1.1-2.4-2-3.6l-5.1-5.2c-0.2-1.8-1-3.8-2.5-5.6
			L448,315.5c-2.3-1.9-5-2.9-7.6-3.1l-3.4-3.4c-4.7-3.8-11.3-4.2-14.6-0.8c-0.8,0.8-1.3,1.7-1.6,2.7l-6.4-6.5
			c-4.7-3.8-11.3-4.2-14.6-0.8c-1.2,1.2-1.8,2.7-1.9,4.4l-7.7-7.9c-4.7-3.8-11.3-4.2-14.6-0.8c-2.3,2.4-2.4,6-0.6,9.2
			c-4.4-0.2-8.9-0.3-13.6-0.4v-0.9c0-5.6-4.6-10.2-10.2-10.2c-5.6,0-10.2,4.6-10.2,10.2v1.1c-4.8,0.2-9.5,0.4-14.1,0.7
			c2.1-3.4,2.1-7.2-0.4-9.7c-3.3-3.4-9.8-3-14.6,0.8l-7.7,7.9c-0.1-1.6-0.7-3.2-1.9-4.4c-3.3-3.4-9.8-3-14.6,0.8l-6.4,6.5
			c-0.3-1-0.8-2-1.6-2.7c-3.3-3.4-9.8-3-14.6,0.8l-3.4,3.4c-2.6,0.2-5.3,1.2-7.6,3.1L236.5,334c-1.5,1.8-2.3,3.8-2.5,5.6l-5.1,5.2
			c-2.9,3.6-3.3,7.5-1.5,10.2c-0.7,1.2-1.1,2.3-1.1,3.5V369c0,0,0,1.1,0,1.6c0,3.1,2.5,6.1,7.1,8.9v8.7c0,14.3,54.7,25.8,122.1,25.8
			s122.1-11.6,122.1-25.8v-8.7c4.6-2.8,7.1-5.8,7.1-8.9c0-0.5,0-1.6,0-1.6v-10.5C484.6,355.1,481.6,351.8,476.3,348.8z"/>
	</g>
	<g>
		<path id="XMLID_33_" class="st1" d="M249.5,223c0-58.5-47.5-106-106-106c-16.7,0-32.5,3.9-46.5,10.7c10.9-4.1,22.6-6.4,34.9-6.7
			c58.5-1.2,107,45.3,108.2,103.8c0.9,42.8-23.7,80.1-59.8,97.6C220.7,307.6,249.5,268.7,249.5,223z"/>
		<path id="XMLID_32_" class="st1" d="M26.8,219.4c0-70.5,54.7-127.6,122.1-127.6c10.5,0,20.7,1.4,30.4,4
			c-13.2-5.1-27.5-7.8-42.4-7.8c-67.9,0-123,57.5-123,128.5c0,66.2,47.9,120.7,109.5,127.7C68.2,331.9,26.8,280.7,26.8,219.4z"/>
		<path id="XMLID_29_" class="st2" d="M179.3,95.7c-9.7-2.6-19.9-4-30.4-4c-67.4,0-122.1,57.1-122.1,127.6
			c0,61.3,41.4,112.6,96.6,124.8c8.2,1.8,16.7,2.8,25.5,2.8c67.4,0,122.1-57.1,122.1-127.6C271,159.9,232,109.9,179.3,95.7z
			 M52.4,219.4c0-55.7,43.2-100.9,96.5-100.9s96.5,45.2,96.5,100.9c0,55.7-43.2,100.9-96.5,100.9S52.4,275.1,52.4,219.4z"/>
	</g>
	<g>
		<path id="XMLID_28_" class="st3" d="M310,325.9c-3.8,4.7-10.5,6.9-14.9,4.9l0,0c-4.4-2-4.9-7.5-1-12.3l18.1-18.5
			c4.7-3.8,11.3-4.2,14.6-0.8l0,0c3.3,3.4,2.2,9.2-2.6,13L310,325.9z"/>
		<path id="XMLID_27_" class="st3" d="M285.9,330.2c-3.8,4.7-10.5,6.9-14.9,4.9l0,0c-4.4-2-4.9-7.5-1-12.3l18.1-18.5
			c4.7-3.8,11.3-4.2,14.6-0.8l0,0c3.3,3.4,2.2,9.2-2.6,13L285.9,330.2z"/>
		<path id="XMLID_26_" class="st3" d="M263.3,334.8c-3.8,4.7-10.5,6.9-14.9,4.9l0,0c-4.4-2-4.9-7.5-1-12.3l18.1-18.5
			c4.7-3.8,11.3-4.2,14.6-0.8l0,0c3.3,3.4,2.2,9.2-2.6,13L263.3,334.8z"/>
		<path id="XMLID_25_" class="st3" d="M252.4,341.4c-3.8,4.7-10.5,6.9-14.9,4.9l0,0c-4.4-2-4.9-7.5-1-12.3l18.1-18.5
			c4.7-3.8,11.3-4.2,14.6-0.8l0,0c3.3,3.4,2.2,9.2-2.6,13L252.4,341.4z"/>
		<path id="XMLID_24_" class="st3" d="M392.5,325.9c3.8,4.7,10.5,6.9,14.9,4.9l0,0c4.4-2,4.9-7.5,1-12.3L390.4,300
			c-4.7-3.8-11.3-4.2-14.6-0.8l0,0c-3.3,3.4-2.2,9.2,2.6,13L392.5,325.9z"/>
		<path id="XMLID_23_" class="st3" d="M416.7,330.2c3.8,4.7,10.5,6.9,14.9,4.9l0,0c4.4-2,4.9-7.5,1-12.3l-18.1-18.5
			c-4.7-3.8-11.3-4.2-14.6-0.8l0,0c-3.3,3.4-2.2,9.2,2.6,13L416.7,330.2z"/>
		<path id="XMLID_22_" class="st3" d="M439.2,334.8c3.8,4.7,10.5,6.9,14.9,4.9l0,0c4.4-2,4.9-7.5,1-12.3L437,308.9
			c-4.7-3.8-11.3-4.2-14.6-0.8l0,0c-3.3,3.4-2.2,9.2,2.6,13L439.2,334.8z"/>
		<path id="XMLID_21_" class="st3" d="M450.1,341.4c3.8,4.7,10.5,6.9,14.9,4.9l0,0c4.4-2,4.9-7.5,1-12.3L448,315.5
			c-4.7-3.8-11.3-4.2-14.6-0.8l0,0c-3.3,3.4-2.2,9.2,2.6,13L450.1,341.4z"/>
		<path id="XMLID_20_" class="st3" d="M361.6,319.4c0,5.6-4.6,10.2-10.2,10.2l0,0c-5.6,0-10.2-4.6-10.2-10.2v-12.4
			c0-5.6,4.6-10.2,10.2-10.2l0,0c5.6,0,10.2,4.6,10.2,10.2V319.4z"/>
		<path id="XMLID_19_" class="st4" d="M459,374.5c-21.6-7.3-59.9-12.1-103.5-12.1s-82,4.9-103.5,12.1h-18.6v13.7
			c0,14.3,54.7,25.8,122.1,25.8s122.1-11.6,122.1-25.8v-13.7H459z"/>
		<path id="XMLID_18_" class="st5" d="M484.6,358.5h-13.4c-21.1-9-65-15.2-115.8-15.2s-94.7,6.2-115.8,15.2h-13.4V369
			c0,0,0,1.1,0,1.6c0,15.1,57.8,27.3,129.2,27.3s129.2-12.2,129.2-27.3c0-0.5,0-1.6,0-1.6V358.5z"/>
		<path id="XMLID_17_" class="st3" d="M476.3,348.8L476.3,348.8l-27-20.9l-187.7-1.2l-29.6,23.7l0,0c-3.7,2.5-5.7,5.2-5.7,8
			c0,15.1,57.8,27.3,129.2,27.3s129.2-12.2,129.2-27.3C484.6,355.1,481.6,351.8,476.3,348.8z"/>
		<ellipse id="XMLID_16_" class="st6" cx="355.4" cy="327.8" rx="93.9" ry="19.8"/>
		<path id="XMLID_15_" class="st3" d="M339.1,374.9c-0.8,5.9-6.6,10.6-12.9,10.6l0,0c-6.3,0-10.8-4.8-10-10.6l3.1-22.1
			c0.8-5.9,6.6-10.6,12.9-10.6l0,0c6.3,0,10.8,4.8,10,10.6L339.1,374.9z"/>
		<path id="XMLID_14_" class="st3" d="M244.8,352.2c-3.8,4.7-10.5,6.9-14.9,4.9l0,0c-4.4-2-4.9-7.5-1-12.3l18.1-18.5
			c4.7-3.8,11.3-4.2,14.6-0.8l0,0c3.3,3.4,2.2,9.2-2.6,13L244.8,352.2z"/>
		<path id="XMLID_13_" class="st3" d="M248.3,361.9c-3.9,4.8-10.7,7-15.2,5l0,0c-4.5-2.1-5-7.7-1.1-12.5l18.5-18.9
			c4.8-3.9,11.5-4.3,14.9-0.9l0,0c3.4,3.4,2.2,9.4-2.6,13.3L248.3,361.9z"/>
		<path id="XMLID_12_" class="st3" d="M263.3,367.7c-3.9,4.8-10.7,7.1-15.2,5l0,0c-4.5-2.1-5-7.7-1.1-12.5l18.5-18.9
			c4.8-3.9,11.5-4.3,14.9-0.9l0,0c3.4,3.4,2.2,9.4-2.6,13.3L263.3,367.7z"/>
		<path id="XMLID_11_" class="st3" d="M363.4,374.9c0.8,5.9,6.6,10.6,12.9,10.6l0,0c6.3,0,10.8-4.8,10-10.6l-3.1-22.1
			c-0.8-5.9-6.6-10.6-12.9-10.6l0,0c-6.3,0-10.8,4.8-10,10.6L363.4,374.9z"/>
		<path id="XMLID_10_" class="st3" d="M457.7,352.2c3.8,4.7,10.5,6.9,14.9,4.9l0,0c4.4-2,4.9-7.5,1-12.3l-18.1-18.5
			c-4.7-3.8-11.3-4.2-14.6-0.8l0,0c-3.3,3.4-2.2,9.2,2.6,13L457.7,352.2z"/>
		<path id="XMLID_9_" class="st3" d="M454.2,361.9c3.9,4.8,10.7,7,15.2,5l0,0c4.5-2.1,5-7.7,1.1-12.5L452,335.4
			c-4.8-3.9-11.5-4.3-14.9-0.9l0,0c-3.4,3.4-2.2,9.4,2.6,13.3L454.2,361.9z"/>
		<path id="XMLID_8_" class="st3" d="M439.2,367.7c3.9,4.8,10.7,7.1,15.2,5l0,0c4.5-2.1,5-7.7,1.1-12.5L437,341.3
			c-4.8-3.9-11.5-4.3-14.9-0.9l0,0c-3.4,3.4-2.2,9.4,2.6,13.3L439.2,367.7z"/>
		<g>
			<g id="XMLID_82_">
				<path id="XMLID_87_" class="st5" d="M273.3,369.2c-0.8,4.7,1.9,9.3,6.9,10.9c6,2,13.1-1,15.8-6.6l5.8-8.4l3.7-5.4
					c-9.3-0.9-17.7-2-24.9-3.3l-6.4,10C273.8,367.3,273.5,368.3,273.3,369.2z"/>
				<path id="XMLID_86_" class="st5" d="M400.1,364.3l6.4,9.2c2.7,5.6,9.7,8.6,15.8,6.6c5.6-1.8,8.3-7.2,6.5-12.5
					c-0.1-0.4-0.3-0.8-0.5-1.3l-4.9-7.7c-7.8,0.9-16.3,1.7-25.5,2.3L400.1,364.3z"/>
				<path id="XMLID_85_" class="st5" d="M476.3,348.9L476.3,348.9l-0.6-0.5c1.3,3.7,0.2,7.1-3.1,8.7c-0.1,0.1-0.3,0.1-0.5,0.2
					c0.2,0.4,0.4,0.9,0.5,1.3c1.1,3.5-0.1,6.9-3.3,8.4c-3.3,1.5-7.8,0.7-11.5-1.7c0.7,3.2-0.5,6.2-3.5,7.5c-0.2,0.1-0.5,0.1-0.7,0.2
					c-3.7,1.3-8.6,0-12.3-3c-0.8-0.7-1.6-1.4-2.2-2.2l-10.2-9.9c-1.8,0.3-3.7,0.5-5.6,0.7l4.9,7.7c0.2,0.4,0.4,0.8,0.5,1.3
					c1.7,5.3-1,10.7-6.5,12.5c-6,2-13.1-1-15.8-6.6l-6.4-9.2l-2.3-3.3c-4.3,0.3-8.8,0.5-13.4,0.7l0.2,1.6l1.6,11.7
					c0.7,5.3-2.8,9.6-8.1,10.5c33.4-1.3,62.4-5.2,81.7-10.8c15.5-4.5,24.7-10.1,24.7-16.1C484.6,355.1,481.6,351.9,476.3,348.9z"/>
				<path id="XMLID_84_" class="st5" d="M301.8,365.1l-5.8,8.4c-2.7,5.6-9.7,8.6-15.8,6.6c-5-1.6-7.7-6.2-6.9-10.9
					c0.2-0.9,0.4-1.9,0.9-2.8l6.4-10c-1.6-0.3-3.1-0.6-4.6-0.9l-12.7,12.3c-3.9,4.8-10.7,7.1-15.2,5c-3-1.4-4.1-4.3-3.5-7.5
					c-3.7,2.4-8.2,3.2-11.5,1.7c-3.2-1.5-4.3-4.8-3.3-8.4h-3.6c0,6,9.2,11.6,24.7,16.1c17.2,5,42.3,8.7,71.4,10.3
					c-4.2-1.5-6.9-5.4-6.2-10l1.6-11.2l0.4-3c-4.4-0.3-8.6-0.7-12.6-1L301.8,365.1z"/>
				<path id="XMLID_83_" class="st5" d="M340.9,361.9l-0.1,0.8l-1.7,12.3c-0.7,5-5,9.2-10.2,10.3c8.6,0.4,17.4,0.6,26.5,0.6
					c6.8,0,13.4-0.1,19.9-0.3c-5.9-0.5-11.1-5-11.9-10.6l-1.7-12.5l-0.1-0.4c-0.7,0-1.3,0-2,0C353.2,362.1,347,362,340.9,361.9z"/>
			</g>
		</g>
		<path id="XMLID_2_" class="st3" d="M296,373.4c-2.7,5.6-9.7,8.6-15.8,6.6l0,0c-6-2-8.7-8.1-6-13.7l14.2-22.3
			c4.1-4.7,11.7-5.6,17-2.1l0,0c5.3,3.5,6.2,10.2,2,14.9L296,373.4z"/>
		<path id="XMLID_1_" class="st3" d="M406.5,373.4c2.7,5.6,9.7,8.6,15.8,6.6l0,0c6-2,8.7-8.1,6-13.7L414.1,344
			c-4.1-4.7-11.7-5.6-17-2.1l0,0c-5.3,3.5-6.2,10.2-2,14.9L406.5,373.4z"/>
	</g>
</g>
</svg>
