<?xml version="1.0" encoding="utf-8"?>
<!-- Generator: Adobe Illustrator 19.0.0, SVG Export Plug-In . SVG Version: 6.00 Build 0)  -->
<svg version="1.1" id="Camada_1" xmlns="http://www.w3.org/2000/svg" xmlns:xlink="http://www.w3.org/1999/xlink" x="0px" y="0px"
	 viewBox="0 0 500 500" style="enable-background:new 0 0 500 500;" xml:space="preserve">
<style type="text/css">
	.st0{fill:#1D1D1B;stroke:#1D1D1B;stroke-width:6.3052;stroke-linejoin:round;stroke-miterlimit:10;}
	.st1{fill:#D9D9D9;stroke:#1D1D1B;stroke-width:2.1017;stroke-linejoin:round;stroke-miterlimit:10;}
	.st2{fill:#B1B1B1;stroke:#1D1D1B;stroke-width:2.1017;stroke-linejoin:round;stroke-miterlimit:10;}
	.st3{fill:#1D1D1B;stroke:#1D1D1B;stroke-width:2.1017;stroke-linejoin:round;stroke-miterlimit:10;}
	.st4{fill:#F5F5F5;}
	.st5{fill:#9C9B9B;}
</style>
<g id="XMLID_57_">
	<path id="XMLID_37_" class="st0" d="M405.6,145H302c-10.6,0-39.6-6.3-39.6-6.3l3.6,5.1l-51.4-18.9c-4.9-3.3-10.1-5.1-15.4-5.1H95.5
		c-30.3,0-54.8,55.8-54.8,124.7c0,49.8,12.8,92.8,31.4,112.8l0,0l0,0c7.1,7.7,15,12,23.4,12h103.7c4.2,0,8.2-1.1,12.1-3.1l78.6,25.2
		c3.9,2,8,3.1,12.1,3.1h103.7c30.3,0,54.8-55.8,54.8-124.7C460.4,200.9,435.9,145,405.6,145z"/>
	<path id="XMLID_36_" class="st1" d="M405.6,145H302v249.5h103.7c30.3,0,54.8-55.8,54.8-124.7C460.4,200.9,435.9,145,405.6,145z"/>
	<path id="XMLID_35_" class="st2" d="M356.7,269.8c0,68.9-24.5,124.7-54.8,124.7c-30.3,0-54.8-81.1-54.8-149.9
		c0-85.7,24.5-99.5,54.8-99.5C332.2,145,356.7,200.9,356.7,269.8z"/>
	<g id="XMLID_69_">
		<path id="XMLID_34_" class="st3" d="M296.4,143.8l-100.3-25.2v247.6l100.3,25.2c29.3,0,53-54,53-120.6
			C349.3,204.1,325.6,150.1,296.4,143.8z"/>
		<ellipse id="XMLID_33_" class="st3" cx="196.1" cy="245.5" rx="53" ry="120.6"/>
	</g>
	<polygon id="XMLID_32_" class="st1" points="240.5,330.5 280.9,343.1 291,277.4 253.9,264.8 210.1,284.1 	"/>
	<path id="XMLID_31_" class="st1" d="M199.1,119.8H95.5v249.5h103.7c30.3,0,54.8-55.8,54.8-124.7
		C253.9,175.7,229.4,119.8,199.1,119.8z"/>
	<path id="XMLID_30_" class="st1" d="M150.3,244.5c0,68.9-24.5,124.7-54.8,124.7c-30.3,0-54.8-55.8-54.8-124.7
		c0-68.9,24.5-124.7,54.8-124.7C125.7,119.8,150.3,175.7,150.3,244.5z"/>
	<path id="XMLID_29_" class="st3" d="M113,244.5c0,27-7.8,48.9-17.5,48.9c-9.7,0-17.5-21.9-17.5-48.9c0-27,7.9-48.9,17.5-48.9
		C105.2,195.7,113,217.5,113,244.5z"/>
	<path id="XMLID_28_" class="st1" d="M302,145c-10.6,0-39.6-6.3-39.6-6.3l23.6,32.9l53.1,6.3C327.2,153.5,314.3,145,302,145z"/>
	<polygon id="XMLID_27_" class="st3" points="118.8,131.7 68.6,353.1 72.1,357.3 123.2,137.2 	"/>
	<polygon id="XMLID_26_" class="st4" points="152.8,218.4 154.9,244.5 250.6,244.5 247.7,218.4 	"/>
	<polygon id="XMLID_25_" class="st4" points="358.4,243.6 360.5,269.7 456.2,269.7 453.4,243.6 	"/>
	<polygon id="XMLID_24_" class="st4" points="155.2,250.9 154.4,257.2 250,257.2 251.3,250.9 	"/>
	<polygon id="XMLID_23_" class="st4" points="361,276.1 359.7,282.4 455.3,282.4 456.2,276.1 	"/>
	<path id="XMLID_20_" class="st5" d="M79.7,235.3c0,0-0.9,51.9,17.7,57.9C81.9,275.2,79.7,235.3,79.7,235.3z"/>
</g>
</svg>
