<?xml version="1.0" encoding="utf-8"?>
<!-- Generator: Adobe Illustrator 19.0.0, SVG Export Plug-In . SVG Version: 6.00 Build 0)  -->
<svg version="1.1" id="Camada_1" xmlns="http://www.w3.org/2000/svg" xmlns:xlink="http://www.w3.org/1999/xlink" x="0px" y="0px"
	 viewBox="0 0 500 500" style="enable-background:new 0 0 500 500;" xml:space="preserve">
<style type="text/css">
	.st0{fill:#1D1D1B;stroke:#1D1D1B;stroke-width:5.4403;stroke-linejoin:round;stroke-miterlimit:10;}
	.st1{fill:#C6C6C5;stroke:#1D1D1B;stroke-width:1.8134;stroke-linejoin:round;stroke-miterlimit:10;}
	.st2{fill:#ECECEC;stroke:#1D1D1B;stroke-width:1.8134;stroke-linejoin:round;stroke-miterlimit:10;}
</style>
<g id="XMLID_35_">
	<path id="XMLID_33_" class="st0" d="M291.1,108.2c0-0.4,0-0.6,0-0.6l0,0c-0.3-5.2-3.6-10.1-9.8-13.6c-13.8-7.7-36.8-5.7-51.4,4.4
		L39.4,229.6c-8.9,6.1-12.6,13.9-11.1,20.7l0,0l4.6,25.3h0c1,4.3,4.2,8.3,9.5,11.2c13.8,7.7,36.8,5.7,51.4-4.4l188.5-129.8
		c6.4-4.8,8.3-10,8.3-14.2c0-7,0.4-23.1,0.5-28.9C291.1,109.3,291.1,108.8,291.1,108.2z"/>
	<path id="XMLID_32_" class="st1" d="M290.5,138.7c0-8.5,0.6-31,0.6-31l-19.6,7.3c-12.4-1.5-26.8,1.6-37.1,8.7L143.9,186L28.3,250.4
		l4.6,25.3h0c1,4.3,4.2,8.3,9.5,11.2c13.8,7.7,36.8,5.7,51.4-4.4l188.5-129.8C288.6,148,290.5,142.8,290.5,138.7z"/>
	<path id="XMLID_31_" class="st2" d="M89.2,257.4c-14.6,10.1-37.6,12-51.4,4.4l0,0c-13.8-7.7-13.1-22,1.6-32.1L229.9,98.5
		c14.6-10.1,37.6-12,51.4-4.4l0,0c13.8,7.7,13.1,22-1.6,32.1L89.2,257.4z"/>
	<path id="XMLID_30_" class="st0" d="M312.8,208.9c0-0.4,0-0.6,0-0.6l0,0c-0.3-5.2-3.6-10.1-9.8-13.6c-13.8-7.7-36.8-5.7-51.4,4.4
		l-123.9,86.3c-8.9,6.1-12.6,13.9-11.1,20.7l0,0l4.6,25.3h0c1,4.3,4.2,8.3,9.5,11.2c13.8,7.7,36.8,5.7,51.4-4.4L304,253.5
		c6.4-4.8,8.3-10,8.3-14.1c0-7,0.4-23.1,0.5-28.9C312.8,209.9,312.9,209.4,312.8,208.9z"/>
	<path id="XMLID_29_" class="st1" d="M312.3,239.3c0-8.5,0.6-31,0.6-31l-19.6,7.3c-12.4-1.5-26.8,1.6-37.1,8.7l-23.9,17.5
		l-115.6,64.3l4.6,25.3h0c1,4.3,4.2,8.3,9.5,11.2c13.8,7.7,36.8,5.7,51.4-4.4L304,253.5C310.3,248.6,312.3,243.4,312.3,239.3z"/>
	<path id="XMLID_28_" class="st2" d="M177.6,313.1c-14.6,10.1-37.6,12-51.4,4.4l0,0c-13.8-7.7-13.1-22,1.6-32.1l123.9-86.3
		c14.6-10.1,37.6-12,51.4-4.4l0,0c13.8,7.7,13.1,22-1.6,32.1L177.6,313.1z"/>
	<path id="XMLID_27_" class="st0" d="M415.4,254.7c0-0.4,0-0.6,0-0.6l0,0c-0.3-5.2-3.6-10.1-9.8-13.6c-13.8-7.7-36.8-5.7-51.4,4.4
		l-123.9,86.3c-8.9,6.1-12.6,13.9-11.1,20.7l0,0l4.6,25.3h0c1,4.3,4.2,8.3,9.5,11.2c13.8,7.7,36.8,5.7,51.4-4.4l121.8-84.9
		c6.4-4.8,8.3-10,8.3-14.1c0-7,0.4-23.1,0.5-28.9C415.4,255.7,415.4,255.2,415.4,254.7z"/>
	<path id="XMLID_26_" class="st1" d="M414.8,285.1c0-8.6,0.6-31,0.6-31l-19.6,7.3c-12.4-1.5-26.8,1.6-37.1,8.7l-23.9,17.5
		l-115.6,64.3l4.6,25.3h0c1,4.3,4.2,8.3,9.5,11.2c13.8,7.7,36.8,5.7,51.4-4.4l121.8-84.9C412.9,294.4,414.8,289.2,414.8,285.1z"/>
	<path id="XMLID_25_" class="st2" d="M280.2,358.9c-14.6,10.1-37.6,12-51.4,4.4l0,0c-13.8-7.7-13.1-22,1.6-32.1l123.9-86.3
		c14.6-10.1,37.6-12,51.4-4.4l0,0c13.8,7.7,13.1,22-1.6,32.1L280.2,358.9z"/>
	<path id="XMLID_24_" class="st0" d="M455.9,346.9c0-0.4,0-0.6,0-0.6l0,0c-0.3-5.2-3.6-10.1-9.8-13.6c-13.8-7.7-36.8-5.7-51.4,4.4
		l-54.8,39.3c-8.9,6.1-12.6,13.9-11.1,20.7l0,0l4.6,25.3h0c1,4.3,4.2,8.3,9.5,11.2c13.8,7.7,36.8,5.7,51.4-4.4l52.7-37.9
		c6.4-4.8,8.3-10,8.3-14.1c0-7,0.4-23.1,0.5-28.9C455.9,347.9,456,347.4,455.9,346.9z"/>
	<path id="XMLID_23_" class="st1" d="M455.4,377.3c0-8.6,0.6-31,0.6-31l-19.6,7.3c-12.4-1.5-26.8,1.6-37.1,8.7l-23.9,17.5
		l-46.6,17.4l4.6,25.3h0c1,4.3,4.2,8.3,9.5,11.2c13.8,7.7,36.8,5.7,51.4-4.4l52.7-37.9C453.4,386.6,455.4,381.4,455.4,377.3z"/>
	<path id="XMLID_20_" class="st2" d="M389.7,404.2c-14.6,10.1-37.6,12-51.4,4.4l0,0c-13.8-7.7-13.1-22,1.6-32.1l54.8-39.3
		c14.6-10.1,37.6-12,51.4-4.4l0,0c13.8,7.7,13.1,22-1.6,32.1L389.7,404.2z"/>
</g>
</svg>
