<?xml version="1.0" encoding="utf-8"?>
<!-- Generator: Adobe Illustrator 19.0.0, SVG Export Plug-In . SVG Version: 6.00 Build 0)  -->
<svg version="1.1" id="Camada_1" xmlns="http://www.w3.org/2000/svg" xmlns:xlink="http://www.w3.org/1999/xlink" x="0px" y="0px"
	 viewBox="0 0 500 500" style="enable-background:new 0 0 500 500;" xml:space="preserve">
<style type="text/css">
	.st0{stroke:#000000;stroke-width:6.0266;stroke-linejoin:round;stroke-miterlimit:10;}
	.st1{fill:#575756;stroke:#000000;stroke-width:2.0089;stroke-linejoin:round;stroke-miterlimit:10;}
	.st2{fill:#CCCCCC;stroke:#000000;stroke-width:2.0089;stroke-linejoin:round;stroke-miterlimit:10;}
	.st3{fill:none;stroke:#000000;stroke-width:2.0089;stroke-linejoin:round;stroke-miterlimit:10;}
	.st4{fill:#DEBE75;stroke:#000000;stroke-width:2.0089;stroke-linejoin:round;stroke-miterlimit:10;}
	.st5{stroke:#000000;stroke-width:2.0089;stroke-linejoin:round;stroke-miterlimit:10;}
	.st6{fill:#ECEBD9;stroke:#000000;stroke-width:2.0089;stroke-linejoin:round;stroke-miterlimit:10;}
</style>
<g>
	<g>
		<path id="XMLID_71_" class="st0" d="M192.9,116.4c-19.3-20.3-47.5-33.1-78.8-33.1c-58.3,0-105.6,44.3-105.6,99
			c0,27,11.6,51.5,30.3,69.3c19.3,20.3,47.5,33.1,78.8,33.1c58.3,0,105.6-44.3,105.6-99C223.1,158.7,211.6,134.3,192.9,116.4z
			 M36.4,185.7c0-42,36.3-76,81.1-76c22.4,0,42.6,8.5,57.3,22.2c12.7,13.4,20.4,31.1,20.4,50.4c0,42-36.3,76-81.1,76
			c-22.4,0-42.6-8.5-57.3-22.2C44.1,222.8,36.4,205.1,36.4,185.7z"/>
		<g>
			<path id="XMLID_68_" class="st1" d="M117.5,86.7c-58.3,0-105.6,44.3-105.6,99c0,54.7,47.3,99,105.6,99
				c58.3,0,105.6-44.3,105.6-99C223.1,131.1,175.8,86.7,117.5,86.7z M117.5,261.8c-44.8,0-81.1-34-81.1-76c0-42,36.3-76,81.1-76
				c44.8,0,81.1,34,81.1,76C198.6,227.7,162.3,261.8,117.5,261.8z"/>
			<path id="XMLID_65_" class="st2" d="M114.1,83.3c-58.3,0-105.6,44.3-105.6,99c0,54.7,47.3,99,105.6,99
				c58.3,0,105.6-44.3,105.6-99C219.7,127.7,172.4,83.3,114.1,83.3z M114.1,258.4c-44.8,0-81.1-34.1-81.1-76
				c0-42,36.3-76.1,81.1-76.1s81.1,34.1,81.1,76.1C195.2,224.3,158.9,258.4,114.1,258.4z"/>
			<path id="XMLID_64_" class="st3" d="M209,182.3c0,48.8-42.4,88.4-94.7,88.4c-52.3,0-94.7-39.6-94.7-88.4
				c0-48.8,42.4-88.4,94.7-88.4C166.6,93.9,209,133.5,209,182.3z"/>
			<path id="XMLID_61_" class="st2" d="M114.1,83.3c-58.3,0-105.6,44.3-105.6,99c0,54.7,47.3,99,105.6,99
				c58.3,0,105.6-44.3,105.6-99C219.7,127.7,172.4,83.3,114.1,83.3z M114.1,258.4c-44.8,0-81.1-34.1-81.1-76
				c0-42,36.3-76.1,81.1-76.1s81.1,34.1,81.1,76.1C195.2,224.3,158.9,258.4,114.1,258.4z"/>
			<path id="XMLID_60_" class="st3" d="M209,182.3c0,48.8-42.4,88.4-94.7,88.4c-52.3,0-94.7-39.6-94.7-88.4
				c0-48.8,42.4-88.4,94.7-88.4C166.6,93.9,209,133.5,209,182.3z"/>
		</g>
	</g>
	<g>
		<path id="XMLID_57_" class="st0" d="M315.6,173.7c-19.4-21.7-48.5-35.5-81-35.5c0,0-0.1,0-0.1,0c0,0-0.1,0-0.1,0
			c-58.3,0-105.6,44.3-105.6,99c0,27,11.6,51.5,30.3,69.3c19.3,20.3,47.5,33.1,78.8,33.1c58.3,0,105.6-44.3,105.6-99
			C343.4,214.8,332.9,191.3,315.6,173.7z M315.5,237.3c0,42-36.3,76-81,76c-23.5,0-44.6-9.4-59.4-24.4
			c-11.5-13.1-18.4-29.9-18.4-48.2c0-42,36.3-76.1,81.1-76.1c22.4,0,42.6,8.5,57.3,22.2C307.8,200.2,315.5,217.9,315.5,237.3z"/>
		<path id="XMLID_54_" class="st1" d="M237.8,141.6c-58.3,0-105.6,44.3-105.6,99c0,54.7,47.3,99,105.6,99
			c58.3,0,105.6-44.3,105.6-99C343.4,186,296.1,141.6,237.8,141.6z M237.8,316.7c-44.8,0-81.1-34.1-81.1-76
			c0-42,36.3-76.1,81.1-76.1c44.8,0,81.1,34,81.1,76.1C318.9,282.7,282.6,316.7,237.8,316.7z"/>
		<path id="XMLID_51_" class="st2" d="M234.6,138.2c-58.3,0-105.6,44.3-105.6,99c0,54.7,47.3,99,105.6,99
			c58.3,0,105.6-44.3,105.6-99C340.3,182.6,293,138.2,234.6,138.2z M234.6,313.3c-44.8,0-81.1-34-81.1-76c0-42,36.3-76.1,81.1-76.1
			c44.8,0,81.1,34.1,81.1,76.1C315.8,279.3,279.4,313.3,234.6,313.3z"/>
		<path id="XMLID_48_" class="st4" d="M234.4,138.2c-58.3,0-105.6,44.3-105.6,99c0,54.7,47.3,99,105.6,99S340,292,340,237.3
			C340,182.6,292.7,138.2,234.4,138.2z M234.4,313.3c-44.8,0-81.1-34-81.1-76c0-42,36.3-76.1,81.1-76.1c44.8,0,81.1,34.1,81.1,76.1
			C315.5,279.3,279.2,313.3,234.4,313.3z"/>
		<circle id="XMLID_47_" class="st5" cx="234.6" cy="149.7" r="9"/>
		<circle id="XMLID_46_" class="st5" cx="234.4" cy="324.8" r="9"/>
		<circle id="XMLID_45_" class="st5" cx="142" cy="237.3" r="9"/>
		<circle id="XMLID_44_" class="st6" cx="327.3" cy="237.3" r="9"/>
		<circle id="XMLID_43_" class="st5" cx="170.4" cy="173.9" r="9"/>
		<circle id="XMLID_42_" class="st5" cx="298.8" cy="300.7" r="9"/>
		<circle id="XMLID_41_" class="st5" cx="171.5" cy="300.7" r="9"/>
		<circle id="XMLID_40_" class="st5" cx="202.3" cy="319" r="9"/>
		<circle id="XMLID_39_" class="st5" cx="149.2" cy="200.7" r="9"/>
		<circle id="XMLID_38_" class="st5" cx="200.8" cy="155.5" r="9"/>
		<circle id="XMLID_37_" class="st5" cx="149.8" cy="272.8" r="9"/>
		<circle id="XMLID_36_" class="st5" cx="327.3" cy="237.2" r="9"/>
		<circle id="XMLID_35_" class="st5" cx="298.8" cy="173.8" r="9"/>
		<path id="XMLID_34_" class="st5" d="M259.6,324.2c2.9,4,8.5,5,12.6,2.1c4-2.9,5-8.5,2.1-12.6c-2.9-4-8.5-5-12.6-2.1
			C257.6,314.5,256.7,320.2,259.6,324.2z"/>
		<path id="XMLID_33_" class="st5" d="M314.8,193.3c-4,2.9-5,8.5-2.1,12.6c2.9,4,8.5,5,12.6,2.1c4-2.9,5-8.5,2.1-12.6
			C324.5,191.3,318.8,190.4,314.8,193.3z"/>
		<circle id="XMLID_32_" class="st5" cx="268.5" cy="155.4" r="9"/>
		<circle id="XMLID_31_" class="st5" cx="319.5" cy="272.7" r="9"/>
		<circle id="XMLID_30_" class="st6" cx="234.4" cy="149.7" r="6.7"/>
		<path id="XMLID_29_" class="st6" d="M241.1,324.8c0,3.7-3,6.7-6.7,6.7c-3.7,0-6.7-3-6.7-6.7c0-3.7,3-6.7,6.7-6.7
			C238.1,318.1,241.1,321.1,241.1,324.8z"/>
		<circle id="XMLID_28_" class="st6" cx="142" cy="237.3" r="6.7"/>
		<circle id="XMLID_27_" class="st6" cx="319.5" cy="272.7" r="6.7"/>
		<circle id="XMLID_26_" class="st6" cx="170.4" cy="173.9" r="6.7"/>
		<circle id="XMLID_25_" class="st6" cx="266.9" cy="318.9" r="6.7"/>
		<circle id="XMLID_24_" class="st6" cx="171.5" cy="300.7" r="6.7"/>
		<circle id="XMLID_23_" class="st6" cx="202.3" cy="319" r="6.7"/>
		<circle id="XMLID_22_" class="st6" cx="149.2" cy="200.7" r="6.7"/>
		<path id="XMLID_21_" class="st6" d="M207.5,154.8c0.3,3.7-2.4,6.9-6,7.3c-3.7,0.3-6.9-2.4-7.3-6c-0.3-3.7,2.4-6.9,6-7.3
			C203.9,148.4,207.1,151.1,207.5,154.8z"/>
		<circle id="XMLID_20_" class="st6" cx="149.8" cy="272.8" r="6.7"/>
		<path id="XMLID_19_" class="st6" d="M327.3,230.5c-3.7,0-6.7,3-6.7,6.7c0,3.7,3,6.7,6.7,6.7c3.7,0,6.7-3,6.7-6.7
			C334,233.5,331,230.5,327.3,230.5z"/>
		<path id="XMLID_18_" class="st6" d="M293.8,169.4c-2.4,2.8-2.1,7,0.7,9.4c2.8,2.4,7,2.1,9.4-0.7c2.4-2.8,2.1-7-0.7-9.4
			C300.4,166.3,296.2,166.6,293.8,169.4z"/>
		<path id="XMLID_17_" class="st6" d="M316.2,195.3c-3,2.1-3.7,6.3-1.5,9.3c2.1,3,6.3,3.7,9.3,1.5c3-2.1,3.7-6.3,1.5-9.3
			C323.3,193.8,319.2,193.1,316.2,195.3z"/>
		<path id="XMLID_16_" class="st6" d="M261.8,154.8c-0.3,3.7,2.4,6.9,6,7.3c3.7,0.3,6.9-2.4,7.3-6c0.3-3.7-2.4-6.9-6-7.3
			C265.4,148.4,262.2,151.1,261.8,154.8z"/>
		<path id="XMLID_15_" class="st6" d="M299.5,294.1c-3.7-0.3-6.9,2.4-7.3,6c-0.3,3.7,2.4,6.9,6,7.3c3.7,0.3,6.9-2.4,7.3-6
			C305.8,297.7,303.1,294.4,299.5,294.1z"/>
	</g>
	<g>
		<path id="XMLID_12_" class="st0" d="M460.1,250.4c-19.3-20.3-47.5-33.1-78.8-33.1c-58.3,0-105.6,44.3-105.6,99
			c0,27,11.6,51.5,30.3,69.4c19.3,20.3,47.5,33.1,78.8,33.1c58.3,0,105.6-44.3,105.6-99C490.3,292.8,478.8,268.3,460.1,250.4z
			 M303.6,319.8c0-42,36.3-76,81.1-76c22.4,0,42.6,8.5,57.3,22.2c12.7,13.4,20.4,31.1,20.4,50.4c0,42-36.3,76-81.1,76
			c-22.4,0-42.6-8.5-57.3-22.2C311.3,356.8,303.6,339.1,303.6,319.8z"/>
		<g>
			<path id="XMLID_9_" class="st1" d="M384.7,220.8c-58.3,0-105.6,44.3-105.6,99s47.3,99,105.6,99c58.3,0,105.6-44.3,105.6-99
				S443.1,220.8,384.7,220.8z M384.7,395.8c-44.8,0-81.1-34.1-81.1-76s36.3-76,81.1-76c44.8,0,81.1,34.1,81.1,76
				S429.5,395.8,384.7,395.8z"/>
			<path id="XMLID_6_" class="st2" d="M381.3,217.4c-58.3,0-105.6,44.3-105.6,99c0,54.7,47.3,99,105.6,99
				c58.3,0,105.6-44.3,105.6-99C486.9,261.7,439.7,217.4,381.3,217.4z M381.3,392.4c-44.8,0-81.1-34-81.1-76
				c0-42,36.3-76.1,81.1-76.1c44.8,0,81.1,34.1,81.1,76.1C462.4,358.4,426.1,392.4,381.3,392.4z"/>
			<ellipse id="XMLID_5_" class="st3" cx="381.5" cy="316.3" rx="94.7" ry="88.4"/>
			<path id="XMLID_2_" class="st2" d="M381.3,217.4c-58.3,0-105.6,44.3-105.6,99c0,54.7,47.3,99,105.6,99
				c58.3,0,105.6-44.3,105.6-99C486.9,261.7,439.7,217.4,381.3,217.4z M381.3,392.4c-44.8,0-81.1-34-81.1-76
				c0-42,36.3-76.1,81.1-76.1c44.8,0,81.1,34.1,81.1,76.1C462.4,358.4,426.1,392.4,381.3,392.4z"/>
			<ellipse id="XMLID_1_" class="st3" cx="381.5" cy="316.3" rx="94.7" ry="88.4"/>
		</g>
	</g>
</g>
</svg>
