<?xml version="1.0" encoding="utf-8"?>
<!-- Generator: Adobe Illustrator 19.0.0, SVG Export Plug-In . SVG Version: 6.00 Build 0)  -->
<svg version="1.1" id="Camada_1" xmlns="http://www.w3.org/2000/svg" xmlns:xlink="http://www.w3.org/1999/xlink" x="0px" y="0px"
	 viewBox="0 0 500 500" style="enable-background:new 0 0 500 500;" xml:space="preserve">
<style type="text/css">
	.st0{fill:#1A171B;stroke:#1A171B;stroke-width:3.4792;stroke-miterlimit:10;}
	.st1{fill:#3D3D3F;stroke:#1A171B;stroke-width:0.8698;stroke-miterlimit:10;}
	.st2{fill:#58585A;}
	.st3{fill:#9B9C9E;}
	.st4{fill:#3D3D3F;}
	.st5{fill:url(#XMLID_129_);stroke:#1A171B;stroke-width:0.8698;stroke-miterlimit:10;}
	.st6{fill:#C5C6C8;stroke:#1A171B;stroke-width:0.8698;stroke-miterlimit:10;}
	.st7{fill:url(#XMLID_130_);stroke:#1A171B;stroke-width:0.8698;stroke-miterlimit:10;}
	.st8{fill:url(#XMLID_131_);stroke:#1A171B;stroke-width:0.8698;stroke-miterlimit:10;}
	.st9{fill:#6F7072;stroke:#1A171B;stroke-width:0.8698;stroke-miterlimit:10;}
	.st10{fill:#B0B2B3;stroke:#1A171B;stroke-width:0.8698;stroke-miterlimit:10;}
</style>
<g id="XMLID_128_">
	<path id="XMLID_126_" class="st0" d="M360.8,222.8c1-0.4,1.2-4.6-0.2-5.1c-0.9-0.3-6.4-1.4-10.2-2.1c-0.1-0.6-0.1-1.3-0.2-1.9
		c2.1-1.1,10-5.4,10.8-5.9c0.8-0.6,0.1-4.7-1.4-4.9c-1-0.1-7.5,0.1-11.4,0.3c-0.4-1.3-0.7-2.6-1.2-3.9c3.1-1.7,8.5-4.6,9.1-5.1
		c0.8-0.6,0.1-4.7-1.4-4.9c-1-0.1-7.7,0.1-11.5,0.3c-0.5-1.2-1.1-2.3-1.7-3.4c2.7-2.2,7.6-6.1,8.1-6.6c0.7-0.8-0.8-4.7-2.3-4.6
		c-1,0.1-7.3,1.5-11.1,2.4c-0.5-0.7-1-1.5-1.6-2.2c2.3-2.8,5.9-7.3,6.3-7.9c0.5-0.9-1.7-4.4-3.1-4c-0.9,0.3-6.1,2.6-9.6,4.2
		c-1-1-2-2-3.1-3c1.8-3.3,4.3-7.6,4.5-8.2c0.4-1-2.4-4.1-3.7-3.5c-0.9,0.4-5.3,3.3-8.6,5.5c-0.9-0.6-1.9-1.2-2.8-1.8
		c1-3.7,2.3-8.6,2.4-9.2c0.3-1-2.9-3.7-4.1-3c-0.8,0.5-5.4,4.4-8.3,7c-1.1-0.5-2.1-0.9-3.3-1.3c0.4-3.8,0.9-8.8,0.9-9.5
		c0.1-1-3.4-3.2-4.6-2.3c-0.7,0.6-4.5,5.2-7,8.2c-1.2-0.3-2.4-0.6-3.5-0.9c-0.4-3.9-1-10-1-10.7c-0.1-1-4-2.5-4.9-1.3
		c-0.6,0.8-3.7,6.4-5.5,9.9c-1.1-0.2-2.2-0.3-3.4-0.5c-0.9-3.8-2.3-10.2-2.5-11c-0.2-1-4.3-2-5-0.7c-0.5,0.9-3,7.1-4.4,10.7
		c-1.2,0-2.4-0.1-3.6-0.1c-1.6-3.6-4.1-9.5-4.4-10.1c-0.4-1-4.6-1.2-5.1,0.2c-0.3,0.9-1.4,6.4-2.1,10.2c-1.7,0.1-3.4,0.3-5.1,0.5
		c-1.9-3.4-4.8-8.5-5.1-9.1c-0.5-0.9-4.7-0.7-5,0.8c-0.2,0.9-0.7,6.2-1,10.1c-1.5,0.3-3,0.7-4.5,1c-2.1-3.3-5.5-8.9-6.1-9.4
		c-0.8-0.7-4.9,0.6-4.9,2.1c0,0.9,1,6.1,1.7,9.9c-2.3,0.8-4.6,1.6-6.9,2.6c-2-3.3-4.6-7.5-5-7.9c-0.7-0.7-4.9,0.6-4.9,2.1
		c0,0.9,0.9,5.9,1.5,9.7c-2.2,1.1-4.3,2.3-6.4,3.5c-2.6-2.7-5.8-6-6.3-6.3c-0.9-0.6-4.6,1.7-4.3,3.1c0.2,0.8,1.8,4.6,3.2,8
		c-1.7,1.2-3.3,2.4-4.9,3.7c-3-2.3-6.8-5.2-7.3-5.4c-1-0.4-4.4,2.3-3.8,3.7c0.5,1.2,2.6,4.7,4.3,7.6c-1.8,1.7-3.6,3.4-5.2,5.2
		c-3.5-1.6-7.8-3.6-8.4-3.7c-1-0.2-3.7,3.2-2.9,4.5c0.4,0.6,3.1,3.4,5.5,6c-1.2,1.5-2.3,3-3.4,4.6c-3.9-0.9-9.7-2.2-10.4-2.2
		c-1,0-3,3.9-1.9,5c0.6,0.6,4.3,3.1,7.3,5.2c-0.9,1.6-1.7,3.2-2.5,4.8c-3.9-0.3-9.9-0.7-10.6-0.6c-1,0.2-2.3,4.3-1.1,5.2
		c0.7,0.5,4.7,2.4,8.1,4c-0.4,1.3-0.9,2.5-1.2,3.8c-3.9,0.4-9.7,1-10.4,1.3c-1,0.4-1.6,4.7-0.2,5.3c0.8,0.4,4.9,1.5,8.5,2.5
		c-0.3,1.5-0.5,3.1-0.7,4.6c-3.6,1.3-10.3,3.7-10.9,4.2c-0.9,0.6-0.4,4.9,1.1,5.2c0.9,0.2,5.6,0.3,9.4,0.4c0,1.3,0.1,2.7,0.2,4
		c-3.5,1.3-10.5,3.8-11.2,4.3c-0.9,0.6-0.4,4.9,1.1,5.2c1,0.2,7.7,0.4,11.6,0.4c0.3,1.2,0.5,2.3,0.9,3.5c-3.1,1.9-9.9,6-10.5,6.6
		c-0.7,0.7,0.6,4.9,2.1,4.9c1.1,0,8-1.2,11.7-1.9c0.4,0.9,0.8,1.7,1.2,2.6c-3,3.3-7.5,8.2-7.9,8.8c-0.6,0.8,1.2,4.8,2.6,4.6
		c1-0.1,7.4-2,11.1-3.2c0.5,0.7,1,1.5,1.5,2.2c-2.6,3.6-6.3,8.8-6.6,9.4c-0.5,0.9,1.7,4.6,3.2,4.3c1.1-0.3,7.6-3.1,11-4.7
		c0.3,0.3,0.6,0.7,1,1c-1.5,4.2-3.9,10.7-4.1,11.4c-0.3,1,2.9,4,4.2,3.3c0.9-0.5,5.8-4.4,8.8-6.9c1.2,0.9,2.5,1.9,3.7,2.7
		c-1.5,4.2-3.9,10.7-4.1,11.3c-0.3,1,2.9,4,4.2,3.3c1.1-0.6,8-6.3,10.4-8.2c0.8,0.4,1.5,0.8,2.3,1.2c-0.6,4.4-1.4,10.7-1.5,11.4
		c-0.1,1,3.7,3.3,4.8,2.3c0.8-0.7,5.1-6.1,7.4-9.1c1.2,0.4,2.4,0.8,3.7,1.2c0.2,4.4,0.6,12,0.7,12.8c0.1,1,4.2,2.5,5.1,1.4
		c0.7-0.9,4.3-7.8,6-11c1.7,0.3,3.4,0.6,5.1,0.9c0.4,3.5,1,9.2,1.2,9.9c0.2,1,4.4,2.3,5.2,1c0.6-0.9,3.2-6.9,4.5-9.7
		c1.6,0.1,3.2,0.2,4.9,0.2c1.7,4,3.9,9,4.2,9.5c0.5,0.9,4.8,0.9,5.3-0.5c0.3-0.8,0.9-5.5,1.4-9.3c2.5-0.2,4.9-0.4,7.4-0.7
		c2,3.7,4.3,8,4.6,8.4c0.6,0.9,4.9,0.5,5.2-1c0.2-0.9,0.4-5.6,0.6-9.4c1.9-0.5,3.8-1,5.7-1.6c2.7,3.4,6.1,7.8,6.6,8.3
		c0.7,0.8,4.9-0.4,5-1.9c0-0.9-0.6-6.3-1.1-10.2c1.8-0.8,3.6-1.6,5.4-2.5c3,3.1,6.8,7,7.2,7.4c0.8,0.7,4.6-0.9,4.5-2.4
		c-0.1-0.9-1.4-6.3-2.4-10.1c1.6-0.9,3.1-1.9,4.6-2.9c3.7,2.3,10,6.1,10.7,6.5c0.9,0.5,4.3-2,3.8-3.4c-0.3-1-3.4-6.5-5.3-9.9
		c1.1-0.9,2.2-1.8,3.2-2.8c4.1,1.7,10.6,4.3,11.2,4.5c1,0.3,3.9-2.7,3.2-4c-0.5-0.8-3.9-5.3-6.4-8.4c0.8-0.8,1.6-1.7,2.3-2.6
		c4.1,0.7,12.5,2,13.2,2.1c1,0.1,3.2-3.5,2.2-4.6c-0.6-0.7-5-4.3-8.1-6.7c0.6-0.9,1.2-1.7,1.8-2.6c3.4,0,13.8,0.1,14.7,0
		c1-0.1,2.6-3.9,1.4-4.9c-0.8-0.7-6.5-3.9-9.9-5.8c0.7-1.3,1.3-2.7,1.9-4c2.7,0.2,11.1,0.7,12,0.7c1-0.1,2.6-3.9,1.4-4.9
		c-0.8-0.6-6.3-3.8-9.7-5.7c0.4-1.3,0.8-2.6,1.1-3.9c3.2-0.3,10.4-1,11.2-1.2c1-0.2,1.9-4.3,0.6-5.1c-0.8-0.5-6.3-2.5-10-3.9
		c0.1-1.2,0.2-2.3,0.3-3.5C354,224.8,360.1,223.1,360.8,222.8z"/>
	<path id="XMLID_125_" class="st0" d="M351.4,206.9c1-0.3,1.5-4.5,0.1-5.1c-0.9-0.4-6.2-1.8-10-2.8c0-0.6,0-1.3-0.1-1.9
		c2.2-1,10.4-4.7,11.1-5.2c0.9-0.6,0.4-4.7-1-5c-1-0.2-7.5-0.4-11.4-0.5c-0.3-1.3-0.6-2.7-0.9-4c3.2-1.5,8.8-4,9.5-4.4
		c0.9-0.6-1.3-4.8-2.8-5.1c-1-0.2-5.9-0.2-9.8-0.3c-0.5-1.2-0.9-2.4-1.4-3.5c2.9-2,8-5.6,8.5-6.1c0.8-0.7-0.4-4.7-1.9-4.7
		c-1,0-7.4,1-11.3,1.6c-0.5-0.8-0.9-1.5-1.4-2.3c2.4-2.6,6.4-6.9,6.8-7.4c0.6-0.8-1.4-4.5-2.9-4.2c-0.9,0.2-6.2,2.2-9.9,3.6
		c-0.9-1.1-1.9-2.2-2.8-3.2c2.1-3.2,4.8-7.3,5.1-7.9c0.5-0.9-2.1-4.2-3.5-3.7c-0.9,0.3-5.5,3-8.9,4.9c-0.9-0.7-1.8-1.4-2.7-2
		c1.2-3.7,2.8-8.4,3.1-9c0.3-1-2.6-3.9-3.9-3.2c-0.9,0.5-5.7,4.1-8.8,6.4c-1-0.5-2.1-1.1-3.2-1.6c0.6-3.8,1.5-8.7,1.6-9.4
		c0.2-1-3.2-3.5-4.4-2.6c-0.8,0.6-4.9,4.9-7.6,7.7c-1.1-0.4-2.3-0.8-3.5-1.2c-0.1-3.9-0.3-10.1-0.3-10.8c0-1-3.8-2.8-4.8-1.7
		c-0.7,0.8-4.1,6.2-6.2,9.5c-1.1-0.2-2.2-0.5-3.3-0.7c-0.6-3.8-1.6-10.4-1.7-11.1c-0.2-1-4.1-2.3-5-1c-0.6,0.9-3.5,6.9-5.1,10.4
		c-1.2-0.1-2.4-0.2-3.6-0.3c-1.3-3.7-3.4-9.7-3.7-10.4c-0.3-1-4.5-1.5-5.1-0.1c-0.4,0.9-1.8,6.3-2.8,10.1c-1.7,0-3.4,0-5.1,0.1
		c-1.7-3.5-4.2-8.8-4.5-9.5c-0.4-0.9-4.6-1-5.1,0.4c-0.3,0.9-1.1,6.2-1.7,10c-1.5,0.2-3.1,0.4-4.6,0.7c-1.8-3.5-4.9-9.2-5.4-9.8
		c-0.7-0.8-4.9,0.3-5,1.8c0,0.9,0.6,6.2,1,10c-2.4,0.6-4.7,1.3-7,2.1c-1.8-3.4-4.1-7.8-4.5-8.3c-0.7-0.8-4.9,0.3-5,1.8
		c-0.1,0.9,0.5,5.9,0.9,9.8c-2.3,1-4.5,2-6.7,3.1c-2.4-2.9-5.4-6.3-5.9-6.7c-0.8-0.6-4.7,1.3-4.5,2.8c0.1,0.8,1.4,4.7,2.6,8.2
		c-1.8,1.1-3.5,2.2-5.2,3.3c-2.9-2.5-6.4-5.6-7-5.9c-0.9-0.5-4.5,2-4.1,3.4c0.2,0.8,2.2,4.6,3.8,7.8c-1.9,1.6-3.8,3.2-5.6,4.8
		c-3.4-1.8-7.5-4.1-8.1-4.3c-1-0.3-3.9,3-3.2,4.3c0.4,0.7,2.8,3.6,5.1,6.3c-1.3,1.4-2.5,2.9-3.7,4.3c-3.8-1.2-9.5-2.9-10.2-2.9
		c-1-0.1-3.3,3.7-2.3,4.8c0.6,0.6,4,3.4,7,5.7c-1,1.5-1.9,3.1-2.8,4.6c-3.9-0.5-9.9-1.3-10.6-1.3c-1,0.1-2.6,4.2-1.5,5.1
		c0.7,0.5,4.6,2.7,7.8,4.6c-0.5,1.2-1,2.5-1.5,3.7c-4,0.1-9.8,0.4-10.5,0.5c-1,0.3-1.9,4.6-0.6,5.3c0.7,0.4,4.8,1.9,8.3,3.1
		c-0.4,1.5-0.7,3-1,4.5c-3.7,1.1-10.5,3-11.2,3.4c-0.9,0.5-0.7,4.9,0.7,5.3c0.8,0.2,5.6,0.7,9.3,1c-0.1,1.3-0.1,2.7-0.1,4
		c-3.6,1-10.8,3.1-11.4,3.5c-0.9,0.5-0.7,4.9,0.7,5.3c1,0.3,7.7,0.9,11.5,1.2c0.2,1.2,0.4,2.4,0.6,3.5c-3.2,1.6-10.3,5.3-10.9,5.9
		c-0.8,0.7,0.3,4.9,1.8,5c1.1,0.1,8-0.7,11.8-1.1c0.3,0.9,0.6,1.8,1,2.6c-3.2,3.1-8,7.7-8.5,8.2c-0.7,0.8,0.8,4.9,2.3,4.8
		c1-0.1,7.5-1.5,11.3-2.4c0.4,0.8,0.9,1.5,1.4,2.3c-2.8,3.5-6.9,8.4-7.3,8.9c-0.6,0.9,1.4,4.7,2.9,4.5c1.1-0.2,7.8-2.6,11.3-3.9
		c0.3,0.3,0.6,0.7,0.9,1c-1.8,4.1-4.6,10.5-4.9,11.1c-0.4,1,2.6,4.2,4,3.5c0.9-0.4,6-4,9.2-6.3c1.2,1,2.3,2,3.5,3
		c-1.8,4.1-4.6,10.4-4.8,11c-0.4,1,2.6,4.2,4,3.5c1.1-0.5,8.4-5.7,10.9-7.5c0.7,0.4,1.5,0.9,2.2,1.3c-0.9,4.4-2.2,10.6-2.2,11.3
		c-0.1,1,3.5,3.5,4.6,2.6c0.8-0.7,5.5-5.7,8-8.6c1.2,0.5,2.4,1,3.6,1.5c-0.1,4.4-0.2,12-0.1,12.8c0.1,1,4.1,2.8,5,1.7
		c0.8-0.9,4.9-7.5,6.7-10.6c1.6,0.5,3.3,0.9,5,1.3c0.2,3.5,0.4,9.2,0.5,9.9c0.1,1,4.2,2.6,5.1,1.4c0.7-0.9,3.7-6.6,5.1-9.4
		c1.6,0.2,3.2,0.4,4.9,0.5c1.4,4.1,3.3,9.2,3.5,9.8c0.4,1,4.8,1.2,5.3-0.1c0.3-0.8,1.3-5.5,2-9.2c2.5,0,4.9-0.1,7.4-0.2
		c1.7,3.8,3.8,8.2,4.1,8.7c0.5,0.9,4.9,0.8,5.3-0.6c0.2-0.8,0.8-5.6,1.2-9.4c1.9-0.3,3.8-0.7,5.7-1.2c2.5,3.6,5.6,8.2,6,8.7
		c0.7,0.8,4.9,0,5.1-1.5c0.1-0.9-0.2-6.4-0.5-10.3c1.9-0.7,3.7-1.4,5.6-2.1c2.8,3.3,6.3,7.4,6.7,7.9c0.7,0.7,4.7-0.6,4.7-2.1
		c0-1-1-6.4-1.7-10.3c1.6-0.8,3.2-1.7,4.8-2.6c3.6,2.5,9.6,6.8,10.2,7.2c0.9,0.5,4.4-1.7,4-3.2c-0.3-1-2.9-6.7-4.6-10.2
		c1.2-0.8,2.3-1.7,3.4-2.5c4,2,10.2,5,10.9,5.3c1,0.4,4.1-2.4,3.4-3.8c-0.4-0.9-3.6-5.5-5.8-8.8c0.8-0.8,1.7-1.6,2.5-2.4
		c4.1,1,12.3,2.9,13.1,3c1,0.2,3.4-3.3,2.5-4.4c-0.6-0.8-4.7-4.6-7.6-7.3c0.7-0.8,1.4-1.7,2-2.5c3.3,0.2,13.8,1,14.7,1
		c1,0,2.9-3.8,1.8-4.8c-0.8-0.7-6.2-4.4-9.5-6.5c0.8-1.3,1.5-2.6,2.2-3.9c2.7,0.4,11,1.5,11.9,1.5c1,0,2.9-3.8,1.8-4.8
		c-0.7-0.7-6-4.2-9.3-6.4c0.5-1.3,0.9-2.6,1.4-3.8c3.3-0.1,10.4-0.3,11.2-0.5c1-0.2,2.2-4.2,1-5c-0.8-0.5-6.1-2.9-9.7-4.5
		c0.2-1.2,0.4-2.3,0.5-3.5C344.4,208.4,350.7,207.1,351.4,206.9z"/>
	<path id="XMLID_124_" class="st0" d="M475,311.9c-1.6-4.5-3.3-9-3.7-10.3l-4.9-0.2c-0.3,1.2-1.8,5.8-3.2,10.5h-5.5
		c-1.7-4.6-3.3-9.2-3.8-10.4l-4.9-0.2c-0.3,1.2-1.8,6-3.3,10.6h-6.4c-1.7-4.6-3.3-9.2-3.8-10.4l-4.9-0.2c-0.3,1.2-1.8,6-3.3,10.6
		h-6.2c-1.7-4.7-3.4-9.4-3.9-10.7l-4.9-0.2c-0.3,1.2-1.9,6.2-3.4,10.9h-6.2c-1.7-4.7-3.4-9.4-3.9-10.7l-4.9-0.2
		c-0.3,1.2-1.9,6.2-3.4,10.9h-6.9c-1.7-4.7-3.4-9.4-3.9-10.7l-4.9-0.2c-0.3,1.2-1.9,6.2-3.4,10.9h-5.9c-1.7-4.7-3.4-9.4-3.9-10.7
		l-4.9-0.2c-0.3,1.2-1.9,6.2-3.4,10.9h-7.1c-1.6-4.5-3.3-9-3.7-10.3l-4.9-0.2c-0.3,1.2-1.8,5.9-3.3,10.5h-5.7
		c-1.6-4.5-3.3-9-3.7-10.3l-4.9-0.2c-0.3,1.2-1.8,5.9-3.3,10.5h-6.5c-1.6-4.5-3.3-9-3.7-10.3l-4.9-0.2c-0.3,1.2-1.8,5.9-3.3,10.5
		h-6.3c-1.7-4.6-3.4-9.3-3.9-10.6l-4.9-0.2c-0.3,1.2-1.8,6.1-3.3,10.8h-6.3c-1.7-4.6-3.4-9.3-3.9-10.6l-4.9-0.2
		c-0.3,1.2-1.8,6.1-3.3,10.8h-7c-1.7-4.6-3.4-9.3-3.9-10.6l-4.9-0.2c-0.3,1.2-1.8,6.1-3.3,10.8h-6c-1.7-4.6-3.4-9.3-3.9-10.6
		l-4.9-0.2c-0.3,1.2-1.8,6.1-3.3,10.8H219c-1.7-4.6-3.4-9.3-3.9-10.6l-4.9-0.2c-0.3,1.2-1.8,6.1-3.3,10.8h-7.4
		c-1.7-4.6-3.4-9.3-3.9-10.6l-4.9-0.2c-0.3,1.2-1.8,6.1-3.3,10.8h-6.6c-1.7-4.6-3.4-9.3-3.9-10.6l-4.9-0.2
		c-0.3,1.2-1.8,6.1-3.3,10.8h-7.6c-1.7-4.6-3.4-9.3-3.9-10.6l-4.9-0.2c-0.3,1.2-1.8,6.1-3.3,10.8h-8.3c-1.7-4.6-3.4-9.3-3.9-10.6
		l-4.9-0.2c-0.3,1.2-1.8,6.1-3.3,10.8h-4.8c-1.6-4.5-3.3-9-3.7-10.3l-4.9-0.2c-0.3,1.2-1.8,5.9-3.3,10.5h-5.7
		c-1.6-4.5-3.3-9-3.7-10.3l-4.9-0.2c-0.3,1.2-1.8,5.9-3.3,10.5h-7.6c-1.6-4.5-3.3-9-3.7-10.3l-4.9-0.2c-0.3,1.2-1.8,5.9-3.3,10.5H68
		c-1.6-4.5-3.3-9-3.7-10.3l-4.9-0.2c-0.3,1.2-1.8,5.9-3.3,10.5h-7.8c-1.6-4.5-3.3-9-3.7-10.3l-4.9-0.2c-0.3,1.2-1.8,5.9-3.3,10.5
		h-5.8c-1.6-4.5-3.3-9-3.7-10.3l-4.9-0.2c-0.3,1.2-1.8,5.9-3.3,10.5h-3.4V366l7,22.3L479.1,366l7-31.7l-7-22.3H475z"/>
	<g id="XMLID_209_">
		<path id="XMLID_123_" class="st0" d="M482.1,334.2c-1.6-4.5-3.3-9-3.7-10.3l-4.9-0.2c-0.3,1.2-1.8,5.8-3.2,10.5h-5.5
			c-1.7-4.6-3.3-9.2-3.8-10.4l-4.9-0.2c-0.3,1.2-1.8,6-3.3,10.6h-6.4c-1.7-4.6-3.3-9.2-3.8-10.4l-4.9-0.2c-0.3,1.2-1.8,6-3.3,10.6
			h-6.2c-1.7-4.7-3.4-9.4-3.9-10.7l-4.9-0.2c-0.3,1.2-1.9,6.2-3.4,10.9h-6.2c-1.7-4.7-3.4-9.4-3.9-10.7l-4.9-0.2
			c-0.3,1.2-1.9,6.2-3.4,10.9h-6.9c-1.7-4.7-3.4-9.4-3.9-10.7l-4.9-0.2c-0.3,1.2-1.9,6.2-3.4,10.9h-5.9c-1.7-4.7-3.4-9.4-3.9-10.7
			l-4.9-0.2c-0.3,1.2-1.9,6.2-3.4,10.9h-7.1c-1.6-4.5-3.3-9-3.7-10.3l-4.9-0.2c-0.3,1.2-1.8,5.9-3.3,10.5h-5.7
			c-1.6-4.5-3.3-9-3.7-10.3l-4.9-0.2c-0.3,1.2-1.8,5.9-3.3,10.5h-6.5c-1.6-4.5-3.3-9-3.7-10.3l-4.9-0.2c-0.3,1.2-1.8,5.9-3.3,10.5
			h-6.3c-1.7-4.6-3.4-9.3-3.9-10.6l-4.9-0.2c-0.3,1.2-1.8,6.1-3.3,10.8h-6.3c-1.7-4.6-3.4-9.3-3.9-10.6l-4.9-0.2
			c-0.3,1.2-1.8,6.1-3.3,10.8h-7c-1.7-4.6-3.4-9.3-3.9-10.6l-4.9-0.2c-0.3,1.2-1.8,6.1-3.3,10.8h-6c-1.7-4.6-3.4-9.3-3.9-10.6
			l-4.9-0.2c-0.3,1.2-1.8,6.1-3.3,10.8H226c-1.7-4.6-3.4-9.3-3.9-10.6l-4.9-0.2c-0.3,1.2-1.8,6.1-3.3,10.8h-7.4
			c-1.7-4.6-3.4-9.3-3.9-10.6l-4.9-0.2c-0.3,1.2-1.8,6.1-3.3,10.8h-6.6c-1.7-4.6-3.4-9.3-3.9-10.6l-4.9-0.2
			c-0.3,1.2-1.8,6.1-3.3,10.8h-7.6c-1.7-4.6-3.4-9.3-3.9-10.6l-4.9-0.2c-0.3,1.2-1.8,6.1-3.3,10.8h-8.3c-1.7-4.6-3.4-9.3-3.9-10.6
			l-4.9-0.2c-0.3,1.2-1.8,6.1-3.3,10.8h-4.8c-1.6-4.5-3.3-9-3.7-10.3l-4.9-0.2c-0.3,1.2-1.8,5.9-3.3,10.5h-5.7
			c-1.6-4.5-3.3-9-3.7-10.3l-4.9-0.2c-0.3,1.2-1.8,5.9-3.3,10.5h-7.6c-1.6-4.5-3.3-9-3.7-10.3l-4.9-0.2c-0.3,1.2-1.8,5.9-3.3,10.5
			H75c-1.6-4.5-3.3-9-3.7-10.3l-4.9-0.2c-0.3,1.2-1.8,5.9-3.3,10.5h-7.8c-1.6-4.5-3.3-9-3.7-10.3l-4.9-0.2
			c-0.3,1.2-1.8,5.9-3.3,10.5h-5.8c-1.6-4.5-3.3-9-3.7-10.3l-4.9-0.2c-0.3,1.2-1.8,5.9-3.3,10.5h-3.4v54.1h463.7v-54.1H482.1z"/>
		<ellipse id="XMLID_122_" class="st0" cx="120.1" cy="366" rx="18.3" ry="15.2"/>
		<ellipse id="XMLID_121_" class="st0" cx="451.3" cy="359.9" rx="18.3" ry="15.2"/>
		<ellipse id="XMLID_120_" class="st0" cx="450.4" cy="356.6" rx="15.2" ry="11.7"/>
		<ellipse id="XMLID_119_" class="st0" cx="120.1" cy="363.9" rx="16.9" ry="13.2"/>
	</g>
	<path id="XMLID_118_" class="st1" d="M351.4,206.9c1-0.3,1.5-4.5,0.1-5.1c-0.9-0.4-6.2-1.8-10-2.8c0-0.6,0-1.3-0.1-1.9
		c2.2-1,10.4-4.7,11.1-5.2c0.9-0.6,0.4-4.7-1-5c-1-0.2-7.5-0.4-11.4-0.5c-0.3-1.3-0.6-2.7-0.9-4c3.2-1.5,8.8-4,9.5-4.4
		c0.9-0.6-1.3-4.8-2.8-5.1c-1-0.2-5.9-0.2-9.8-0.3c-0.5-1.2-0.9-2.4-1.4-3.5c2.9-2,8-5.6,8.5-6.1c0.8-0.7-0.4-4.7-1.9-4.7
		c-1,0-7.4,1-11.3,1.6c-0.5-0.8-0.9-1.5-1.4-2.3c2.4-2.6,6.4-6.9,6.8-7.4c0.6-0.8-1.4-4.5-2.9-4.2c-0.9,0.2-6.2,2.2-9.9,3.6
		c-0.9-1.1-1.9-2.2-2.8-3.2c2.1-3.2,4.8-7.3,5.1-7.9c0.5-0.9-2.1-4.2-3.5-3.7c-0.9,0.3-5.5,3-8.9,4.9c-0.9-0.7-1.8-1.4-2.7-2
		c1.2-3.7,2.8-8.4,3.1-9c0.3-1-2.6-3.9-3.9-3.2c-0.9,0.5-5.7,4.1-8.8,6.4c-1-0.5-2.1-1.1-3.2-1.6c0.6-3.8,1.5-8.7,1.6-9.4
		c0.2-1-3.2-3.5-4.4-2.6c-0.8,0.6-4.9,4.9-7.6,7.7c-1.1-0.4-2.3-0.8-3.5-1.2c-0.1-3.9-0.3-10.1-0.3-10.8c0-1-3.8-2.8-4.8-1.7
		c-0.7,0.8-4.1,6.2-6.2,9.5c-1.1-0.2-2.2-0.5-3.3-0.7c-0.6-3.8-1.6-10.4-1.7-11.1c-0.2-1-4.1-2.3-5-1c-0.6,0.9-3.5,6.9-5.1,10.4
		c-1.2-0.1-2.4-0.2-3.6-0.3c-1.3-3.7-3.4-9.7-3.7-10.4c-0.3-1-4.5-1.5-5.1-0.1c-0.4,0.9-1.8,6.3-2.8,10.1c-1.7,0-3.4,0-5.1,0.1
		c-1.7-3.5-4.2-8.8-4.5-9.5c-0.4-0.9-4.6-1-5.1,0.4c-0.3,0.9-1.1,6.2-1.7,10c-1.5,0.2-3.1,0.4-4.6,0.7c-1.8-3.5-4.9-9.2-5.4-9.8
		c-0.7-0.8-4.9,0.3-5,1.8c0,0.9,0.6,6.2,1,10c-2.4,0.6-4.7,1.3-7,2.1c-1.8-3.4-4.1-7.8-4.5-8.3c-0.7-0.8-4.9,0.3-5,1.8
		c-0.1,0.9,0.5,5.9,0.9,9.8c-2.3,1-4.5,2-6.7,3.1c-2.4-2.9-5.4-6.3-5.9-6.7c-0.8-0.6-4.7,1.3-4.5,2.8c0.1,0.8,1.4,4.7,2.6,8.2
		c-1.8,1.1-3.5,2.2-5.2,3.3c-2.9-2.5-6.4-5.6-7-5.9c-0.9-0.5-4.5,2-4.1,3.4c0.2,0.8,2.2,4.6,3.8,7.8c-1.9,1.6-3.8,3.2-5.6,4.8
		c-3.4-1.8-7.5-4.1-8.1-4.3c-1-0.3-3.9,3-3.2,4.3c0.4,0.7,2.8,3.6,5.1,6.3c-1.3,1.4-2.5,2.9-3.7,4.3c-3.8-1.2-9.5-2.9-10.2-2.9
		c-1-0.1-3.3,3.7-2.3,4.8c0.6,0.6,4,3.4,7,5.7c-1,1.5-1.9,3.1-2.8,4.6c-3.9-0.5-9.9-1.3-10.6-1.3c-1,0.1-2.6,4.2-1.5,5.1
		c0.7,0.5,4.6,2.7,7.8,4.6c-0.5,1.2-1,2.5-1.5,3.7c-4,0.1-9.8,0.4-10.5,0.5c-1,0.3-1.9,4.6-0.6,5.3c0.7,0.4,4.8,1.9,8.3,3.1
		c-0.4,1.5-0.7,3-1,4.5c-3.7,1.1-10.5,3-11.2,3.4c-0.9,0.5-0.7,4.9,0.7,5.3c0.8,0.2,5.6,0.7,9.3,1c-0.1,1.3-0.1,2.7-0.1,4
		c-3.6,1-10.8,3.1-11.4,3.5c-0.9,0.5-0.7,4.9,0.7,5.3c1,0.3,7.7,0.9,11.5,1.2c0.2,1.2,0.4,2.4,0.6,3.5c-3.2,1.6-10.3,5.3-10.9,5.9
		c-0.8,0.7,0.3,4.9,1.8,5c1.1,0.1,8-0.7,11.8-1.1c0.3,0.9,0.6,1.8,1,2.6c-3.2,3.1-8,7.7-8.5,8.2c-0.7,0.8,0.8,4.9,2.3,4.8
		c1-0.1,7.5-1.5,11.3-2.4c0.4,0.8,0.9,1.5,1.4,2.3c-2.8,3.5-6.9,8.4-7.3,8.9c-0.6,0.9,1.4,4.7,2.9,4.5c1.1-0.2,7.8-2.6,11.3-3.9
		c0.3,0.3,0.6,0.7,0.9,1c-1.8,4.1-4.6,10.5-4.9,11.1c-0.4,1,2.6,4.2,4,3.5c0.9-0.4,6-4,9.2-6.3c1.2,1,2.3,2,3.5,3
		c-1.8,4.1-4.6,10.4-4.8,11c-0.4,1,2.6,4.2,4,3.5c1.1-0.5,8.4-5.7,10.9-7.5c0.7,0.4,1.5,0.9,2.2,1.3c-0.9,4.4-2.2,10.6-2.2,11.3
		c-0.1,1,3.5,3.5,4.6,2.6c0.8-0.7,5.5-5.7,8-8.6c1.2,0.5,2.4,1,3.6,1.5c-0.1,4.4-0.2,12-0.1,12.8c0.1,1,4.1,2.8,5,1.7
		c0.8-0.9,4.9-7.5,6.7-10.6c1.6,0.5,3.3,0.9,5,1.3c0.2,3.5,0.4,9.2,0.5,9.9c0.1,1,4.2,2.6,5.1,1.4c0.7-0.9,3.7-6.6,5.1-9.4
		c1.6,0.2,3.2,0.4,4.9,0.5c1.4,4.1,3.3,9.2,3.5,9.8c0.4,1,4.8,1.2,5.3-0.1c0.3-0.8,1.3-5.5,2-9.2c2.5,0,4.9-0.1,7.4-0.2
		c1.7,3.8,3.8,8.2,4.1,8.7c0.5,0.9,4.9,0.8,5.3-0.6c0.2-0.8,0.8-5.6,1.2-9.4c1.9-0.3,3.8-0.7,5.7-1.2c2.5,3.6,5.6,8.2,6,8.7
		c0.7,0.8,4.9,0,5.1-1.5c0.1-0.9-0.2-6.4-0.5-10.3c1.9-0.7,3.7-1.4,5.6-2.1c2.8,3.3,6.3,7.4,6.7,7.9c0.7,0.7,4.7-0.6,4.7-2.1
		c0-1-1-6.4-1.7-10.3c1.6-0.8,3.2-1.7,4.8-2.6c3.6,2.5,9.6,6.8,10.2,7.2c0.9,0.5,4.4-1.7,4-3.2c-0.3-1-2.9-6.7-4.6-10.2
		c1.2-0.8,2.3-1.7,3.4-2.5c4,2,10.2,5,10.9,5.3c1,0.4,4.1-2.4,3.4-3.8c-0.4-0.9-3.6-5.5-5.8-8.8c0.8-0.8,1.7-1.6,2.5-2.4
		c4.1,1,12.3,2.9,13.1,3c1,0.2,3.4-3.3,2.5-4.4c-0.6-0.8-4.7-4.6-7.6-7.3c0.7-0.8,1.4-1.7,2-2.5c3.3,0.2,13.8,1,14.7,1
		c1,0,2.9-3.8,1.8-4.8c-0.8-0.7-6.2-4.4-9.5-6.5c0.8-1.3,1.5-2.6,2.2-3.9c2.7,0.4,11,1.5,11.9,1.5c1,0,2.9-3.8,1.8-4.8
		c-0.7-0.7-6-4.2-9.3-6.4c0.5-1.3,0.9-2.6,1.4-3.8c3.3-0.1,10.4-0.3,11.2-0.5c1-0.2,2.2-4.2,1-5c-0.8-0.5-6.1-2.9-9.7-4.5
		c0.2-1.2,0.4-2.3,0.5-3.5C344.4,208.4,350.7,207.1,351.4,206.9z"/>
	<path id="XMLID_117_" class="st1" d="M475,311.9c-1.6-4.5-3.3-9-3.7-10.3l-4.9-0.2c-0.3,1.2-1.8,5.8-3.2,10.5h-5.5
		c-1.7-4.6-3.3-9.2-3.8-10.4l-4.9-0.2c-0.3,1.2-1.8,6-3.3,10.6h-6.4c-1.7-4.6-3.3-9.2-3.8-10.4l-4.9-0.2c-0.3,1.2-1.8,6-3.3,10.6
		h-6.2c-1.7-4.7-3.4-9.4-3.9-10.7l-4.9-0.2c-0.3,1.2-1.9,6.2-3.4,10.9h-6.2c-1.7-4.7-3.4-9.4-3.9-10.7l-4.9-0.2
		c-0.3,1.2-1.9,6.2-3.4,10.9h-6.9c-1.7-4.7-3.4-9.4-3.9-10.7l-4.9-0.2c-0.3,1.2-1.9,6.2-3.4,10.9h-5.9c-1.7-4.7-3.4-9.4-3.9-10.7
		l-4.9-0.2c-0.3,1.2-1.9,6.2-3.4,10.9h-7.1c-1.6-4.5-3.3-9-3.7-10.3l-4.9-0.2c-0.3,1.2-1.8,5.9-3.3,10.5h-5.7
		c-1.6-4.5-3.3-9-3.7-10.3l-4.9-0.2c-0.3,1.2-1.8,5.9-3.3,10.5h-6.5c-1.6-4.5-3.3-9-3.7-10.3l-4.9-0.2c-0.3,1.2-1.8,5.9-3.3,10.5
		h-6.3c-1.7-4.6-3.4-9.3-3.9-10.6l-4.9-0.2c-0.3,1.2-1.8,6.1-3.3,10.8h-6.3c-1.7-4.6-3.4-9.3-3.9-10.6l-4.9-0.2
		c-0.3,1.2-1.8,6.1-3.3,10.8h-7c-1.7-4.6-3.4-9.3-3.9-10.6l-4.9-0.2c-0.3,1.2-1.8,6.1-3.3,10.8h-6c-1.7-4.6-3.4-9.3-3.9-10.6
		l-4.9-0.2c-0.3,1.2-1.8,6.1-3.3,10.8H219c-1.7-4.6-3.4-9.3-3.9-10.6l-4.9-0.2c-0.3,1.2-1.8,6.1-3.3,10.8h-7.4
		c-1.7-4.6-3.4-9.3-3.9-10.6l-4.9-0.2c-0.3,1.2-1.8,6.1-3.3,10.8h-6.6c-1.7-4.6-3.4-9.3-3.9-10.6l-4.9-0.2
		c-0.3,1.2-1.8,6.1-3.3,10.8h-7.6c-1.7-4.6-3.4-9.3-3.9-10.6l-4.9-0.2c-0.3,1.2-1.8,6.1-3.3,10.8h-8.3c-1.7-4.6-3.4-9.3-3.9-10.6
		l-4.9-0.2c-0.3,1.2-1.8,6.1-3.3,10.8h-4.8c-1.6-4.5-3.3-9-3.7-10.3l-4.9-0.2c-0.3,1.2-1.8,5.9-3.3,10.5h-5.7
		c-1.6-4.5-3.3-9-3.7-10.3l-4.9-0.2c-0.3,1.2-1.8,5.9-3.3,10.5h-7.6c-1.6-4.5-3.3-9-3.7-10.3l-4.9-0.2c-0.3,1.2-1.8,5.9-3.3,10.5H68
		c-1.6-4.5-3.3-9-3.7-10.3l-4.9-0.2c-0.3,1.2-1.8,5.9-3.3,10.5h-7.8c-1.6-4.5-3.3-9-3.7-10.3l-4.9-0.2c-0.3,1.2-1.8,5.9-3.3,10.5
		h-5.8c-1.6-4.5-3.3-9-3.7-10.3l-4.9-0.2c-0.3,1.2-1.8,5.9-3.3,10.5h-3.4V366l7,22.3L479.1,366l7-31.7l-7-22.3H475z"/>
	<path id="XMLID_116_" class="st2" d="M145.9,228.5l-12.3,2.7l-9.2-30.5c0,0,13.1-3.7,13.6-4.2L145.9,228.5z"/>
	<path id="XMLID_115_" class="st3" d="M163.2,176.2l-5.1,1c0,0-6.6-29-6.4-29.5c0.8-1.8,3.3-3.2,3.3-3.2L163.2,176.2z"/>
	<path id="XMLID_114_" class="st2" d="M171.9,178.4l-8.6-2.1l-8.2-31.7c0,0,7.5,4.5,8.3,4.6L171.9,178.4z"/>
	<path id="XMLID_113_" class="st3" d="M173.7,161l-3.5,4.3c0,0-5.3-28.4-5.3-29.3c0-2.6,4.1-3.4,4.1-3.4L173.7,161z"/>
	<polygon id="XMLID_112_" class="st2" points="181.1,166.5 173.7,161 168.9,132.6 175.9,138.7 	"/>
	<path id="XMLID_111_" class="st3" d="M187.2,151.7l-4.2,2.3c0,0-4.4-26-4.4-26.5c0-2.5,4.1-3,4-3L187.2,151.7z"/>
	<polygon id="XMLID_110_" class="st2" points="193.5,158 187.2,151.7 182.6,124.5 188.8,130.9 	"/>
	<path id="XMLID_109_" class="st3" d="M203.3,142.7l-4.9,2.1c0,0-4-24.1-3.6-26.3c0.5-2.6,4.8-2.2,4.8-2.2L203.3,142.7z"/>
	<path id="XMLID_108_" class="st2" d="M208.9,151.1l-5.7-8.4l-3.6-26.4c0.3,0.6,3.4,6.2,4.5,8.3L208.9,151.1z"/>
	<path id="XMLID_107_" class="st3" d="M218.5,136.8l-4.9,2.1c0,0-3.7-26-3.4-26.5c0.8-1.8,4-2.1,5-1.8L218.5,136.8z"/>
	<path id="XMLID_106_" class="st2" d="M224.4,145.4l-6.1-9.4l-3.2-25.4c0.3,0,4.9,8.9,5.4,9.8L224.4,145.4z"/>
	<path id="XMLID_105_" class="st2" d="M240.1,142.7l-11.2,1.7l-3.8-24.7l1.6-9.2l4.8-1.3c-0.6-0.6,4.1,8,4.8,9.5L240.1,142.7z"/>
	<path id="XMLID_104_" class="st3" d="M138.4,215l-1.6,3.5l-9-28.7c-0.6-0.5-0.4-2-0.2-2.5c0.7-1.9,1.1-2.7,1.1-2.7L138.4,215z"/>
	<polygon id="XMLID_103_" class="st2" points="149.1,215.2 138.4,215 128.7,184.6 140.6,183.5 	"/>
	<path id="XMLID_102_" class="st3" d="M141.7,200.8l-1.7,4.9l-6.9-30.3c-0.6-0.6-0.3-2-0.1-2.5c0.7-1.8,1.2-2.2,1.2-2.2L141.7,200.8
		z"/>
	<path id="XMLID_101_" class="st2" d="M152.1,202.6l-10.3-1.7l-7.5-30.2c0,0,9.5,1,12.3,1L152.1,202.6z"/>
	<path id="XMLID_100_" class="st3" d="M149.4,186.6l-2.2,4.4l-6.4-29.4c-0.6-0.6-0.2-2,0-2.5c0.8-1.8,1.4-1.8,1.9-2.3L149.4,186.6z"
		/>
	<path id="XMLID_99_" class="st2" d="M159.8,188.8l-10.6-2.1l-6.4-29.9c0,0,10,2.8,10.5,2.9L159.8,188.8z"/>
	<path id="XMLID_98_" class="st3" d="M235,133.5l-5.2,2.2c0,0-3.3-25.2-3-25.7c1-1.5,2.1-1.9,4.8-0.8L235,133.5z"/>
	<path id="XMLID_97_" class="st2" d="M257.1,141.8l-11.9,0.4l-3.1-23.3l2.2-10.4c0,0,4-0.5,4.6-0.2c0.5,0.3,3.2,9.4,3.9,10.9
		L257.1,141.8z"/>
	<path id="XMLID_96_" class="st3" d="M252.4,131.7l-5.1,0.2c0,0-3.5-23.1-3-23.4c1.5-0.8,2.5-1,4.6-0.2L252.4,131.7z"/>
	<path id="XMLID_95_" class="st2" d="M272.2,142.9l-11.9-0.9l-3.3-22.5l4.9-10.4l4.4,0.8c-0.6-0.6,1.7,11.2,1.7,11.2L272.2,142.9z"
		/>
	<path id="XMLID_94_" class="st3" d="M270.1,131.9l-5-0.7c0,0-3.4-21.7-3-22.1c0.8-0.8,3.8-0.5,4.7,0.8L270.1,131.9z"/>
	<path id="XMLID_93_" class="st2" d="M287.1,145.6l-11.5-2.2l-3.8-21.5l6.2-9.5l3.6,1c-0.6-0.6,0.7,9.1,1.5,10.6L287.1,145.6z"/>
	<path id="XMLID_92_" class="st3" d="M286.1,134.8l-5.2-0.9c0,0-3.5-21.4-2.9-21.5c1.8-0.3,2.5-0.3,4.7,1.3L286.1,134.8z"/>
	<path id="XMLID_91_" class="st2" d="M346.8,178.4l-10.3,5.7l-6.7-23.4l10.9-2.2c0,0,3,10.1,3.7,11.6L346.8,178.4z"/>
	<path id="XMLID_90_" class="st3" d="M349.1,179.5l-3.1-4c0,0-5.8-16.8-5.2-17c1.3-0.4,2.5,1.6,3.1,2.9L349.1,179.5z"/>
	<path id="XMLID_89_" class="st2" d="M301.3,150l-10.7-3.5l-3.8-20l7.3-8.3c0,0,3.9,9.6,4.7,11.1L301.3,150z"/>
	<path id="XMLID_88_" class="st3" d="M302.2,140.5l-4.2-2.4c0,0-4.5-19.7-4-19.8c1.5-0.4,4,0.7,4.4,2.3L302.2,140.5z"/>
	<path id="XMLID_87_" class="st2" d="M314.6,156.5l-10-5.1l-4.1-20.2l8.4-5.8l2.6,1c-0.6-0.6,0.3,9.6,1,11.1L314.6,156.5z"/>
	<path id="XMLID_86_" class="st3" d="M317,147.3l-3.8-3.1c0,0-4.8-18.7-4.3-18.9c1.3-0.4,3.4,1.5,3.9,2.9L317,147.3z"/>
	<path id="XMLID_85_" class="st2" d="M325.2,164.5l-6.3-5.1l-3.8-20.8l6.6-3.8c0,0,4.4,9.2,5.1,10.7L325.2,164.5z"/>
	<path id="XMLID_84_" class="st2" d="M339.9,166.4l-11.7,1.1l-2.5-19.2l6.9-2.1c0,0,2.9,10.5,3.6,12L339.9,166.4z"/>
	<path id="XMLID_83_" class="st3" d="M341,167.3l-3.1-4c0,0-5.8-16.8-5.2-17c1.3-0.4,2.5,1.6,3.1,2.9L341,167.3z"/>
	<path id="XMLID_82_" class="st3" d="M329.8,156.7l-3.8-3.1c0,0-4.8-18.7-4.3-18.9c1.3-0.4,3.4,1.5,3.9,2.9L329.8,156.7z"/>
	<polygon id="XMLID_81_" class="st4" points="344.9,182.7 349.1,179 355.1,189.5 343.2,189.7 341.6,186.2 	"/>
	<path id="XMLID_80_" class="st2" d="M356.6,192.2l-4.1-2.5c0,0-4.2-10.8-3.7-11c1.3-0.4,2.5,1.6,3.4,3.7L356.6,192.2z"/>
	<polygon id="XMLID_79_" class="st4" points="348.5,196.8 352.7,193.1 358.7,203.6 346.8,203.8 345.2,200.3 	"/>
	<path id="XMLID_78_" class="st2" d="M360.2,206.3l-4.1-2.5c0,0-4.2-10.8-3.7-11c1.3-0.4,2.5,1.6,3.4,3.7L360.2,206.3z"/>
	<polygon id="XMLID_77_" class="st4" points="347.8,211.3 352.8,208.8 355.9,220.4 344.4,217.5 343.6,213.8 	"/>
	<path id="XMLID_76_" class="st2" d="M356.6,223.5l-3.3-3.5c0,0-1.3-11.6-0.7-11.6c1.3-0.1,2,2.2,2.3,4.5L356.6,223.5z"/>
	<polygon id="XMLID_75_" class="st2" points="34,324.5 28.8,324.9 22,301.7 26.9,301.9 	"/>
	<polygon id="XMLID_74_" class="st2" points="51.7,324.5 46.5,324.9 39.7,301.7 44.6,301.9 	"/>
	<polygon id="XMLID_73_" class="st2" points="71.3,324.5 66.1,324.9 59.3,301.7 64.2,301.9 	"/>
	<polygon id="XMLID_72_" class="st2" points="90.1,324.5 84.9,324.9 78.1,301.7 83,301.9 	"/>
	<polygon id="XMLID_71_" class="st2" points="109.6,324.5 104.4,324.9 97.6,301.7 102.5,301.9 	"/>
	<polygon id="XMLID_70_" class="st2" points="127.4,324.5 122.2,324.9 115.4,301.7 120.3,301.9 	"/>
	<polygon id="XMLID_69_" class="st2" points="144.1,324.1 138.9,324.5 132.1,301.4 137,301.6 	"/>
	<polygon id="XMLID_68_" class="st2" points="164.3,324.1 159.1,324.5 152.3,301.4 157.2,301.6 	"/>
	<polygon id="XMLID_67_" class="st2" points="184,324.1 178.8,324.5 172,301.4 176.9,301.6 	"/>
	<polygon id="XMLID_66_" class="st2" points="202.7,323.7 197.5,324.1 190.7,300.9 195.6,301.1 	"/>
	<polygon id="XMLID_65_" class="st2" points="222.3,323.7 217.1,324.1 210.3,300.9 215.2,301.1 	"/>
	<polygon id="XMLID_64_" class="st2" points="240.1,323.7 234.9,324.1 228.1,300.9 233,301.1 	"/>
	<polygon id="XMLID_63_" class="st2" points="258.1,323.7 252.9,324.1 246.1,300.9 251,301.1 	"/>
	<polygon id="XMLID_62_" class="st2" points="277.3,323.7 272.1,324.1 265.3,300.9 270.2,301.1 	"/>
	<polygon id="XMLID_61_" class="st2" points="295.6,323.7 290.4,324.1 283.6,300.9 288.5,301.1 	"/>
	<polygon id="XMLID_60_" class="st2" points="313.6,324.5 308.4,324.9 301.6,301.7 306.5,301.9 	"/>
	<polygon id="XMLID_59_" class="st2" points="332.1,324.5 326.9,324.9 320.1,301.7 325,301.9 	"/>
	<polygon id="XMLID_58_" class="st2" points="349.8,324.5 344.7,324.9 337.9,301.7 342.7,301.9 	"/>
	<polygon id="XMLID_57_" class="st2" points="368.7,324 363.5,324.4 356.8,301.2 361.6,301.4 	"/>
	<polygon id="XMLID_56_" class="st2" points="387,324 381.8,324.4 375,301.2 379.9,301.4 	"/>
	<polygon id="XMLID_37_" class="st2" points="406,324 400.8,324.4 394.1,301.2 398.9,301.4 	"/>
	<polygon id="XMLID_36_" class="st2" points="424.2,323.5 419.3,323.3 412.3,300.9 417.2,301.1 	"/>
	<polygon id="XMLID_35_" class="st2" points="442.5,323.8 437.6,323.6 430.6,301.2 435.5,301.4 	"/>
	<polygon id="XMLID_34_" class="st2" points="461.2,324.4 456,324.8 449.2,301.6 454.1,301.8 	"/>
	<polygon id="XMLID_33_" class="st2" points="478.6,324.4 473.4,324.8 466.6,301.6 471.5,301.8 	"/>
	<g id="XMLID_135_">
		<linearGradient id="XMLID_129_" gradientUnits="userSpaceOnUse" x1="254.2193" y1="325.7047" x2="254.2193" y2="401.0869">
			<stop  offset="0.1091" style="stop-color:#B0B2B3"/>
			<stop  offset="0.303" style="stop-color:#C5C6C8"/>
			<stop  offset="0.4545" style="stop-color:#B0B2B3"/>
			<stop  offset="0.9515" style="stop-color:#3D3D3F"/>
		</linearGradient>
		<path id="XMLID_32_" class="st5" d="M482.1,334.2c-1.6-4.5-3.3-9-3.7-10.3l-4.9-0.2c-0.3,1.2-1.8,5.8-3.2,10.5h-5.5
			c-1.7-4.6-3.3-9.2-3.8-10.4l-4.9-0.2c-0.3,1.2-1.8,6-3.3,10.6h-6.4c-1.7-4.6-3.3-9.2-3.8-10.4l-4.9-0.2c-0.3,1.2-1.8,6-3.3,10.6
			h-6.2c-1.7-4.7-3.4-9.4-3.9-10.7l-4.9-0.2c-0.3,1.2-1.9,6.2-3.4,10.9h-6.2c-1.7-4.7-3.4-9.4-3.9-10.7l-4.9-0.2
			c-0.3,1.2-1.9,6.2-3.4,10.9h-6.9c-1.7-4.7-3.4-9.4-3.9-10.7l-4.9-0.2c-0.3,1.2-1.9,6.2-3.4,10.9h-5.9c-1.7-4.7-3.4-9.4-3.9-10.7
			l-4.9-0.2c-0.3,1.2-1.9,6.2-3.4,10.9h-7.1c-1.6-4.5-3.3-9-3.7-10.3l-4.9-0.2c-0.3,1.2-1.8,5.9-3.3,10.5h-5.7
			c-1.6-4.5-3.3-9-3.7-10.3l-4.9-0.2c-0.3,1.2-1.8,5.9-3.3,10.5h-6.5c-1.6-4.5-3.3-9-3.7-10.3l-4.9-0.2c-0.3,1.2-1.8,5.9-3.3,10.5
			h-6.3c-1.7-4.6-3.4-9.3-3.9-10.6l-4.9-0.2c-0.3,1.2-1.8,6.1-3.3,10.8h-6.3c-1.7-4.6-3.4-9.3-3.9-10.6l-4.9-0.2
			c-0.3,1.2-1.8,6.1-3.3,10.8h-7c-1.7-4.6-3.4-9.3-3.9-10.6l-4.9-0.2c-0.3,1.2-1.8,6.1-3.3,10.8h-6c-1.7-4.6-3.4-9.3-3.9-10.6
			l-4.9-0.2c-0.3,1.2-1.8,6.1-3.3,10.8H226c-1.7-4.6-3.4-9.3-3.9-10.6l-4.9-0.2c-0.3,1.2-1.8,6.1-3.3,10.8h-7.4
			c-1.7-4.6-3.4-9.3-3.9-10.6l-4.9-0.2c-0.3,1.2-1.8,6.1-3.3,10.8h-6.6c-1.7-4.6-3.4-9.3-3.9-10.6l-4.9-0.2
			c-0.3,1.2-1.8,6.1-3.3,10.8h-7.6c-1.7-4.6-3.4-9.3-3.9-10.6l-4.9-0.2c-0.3,1.2-1.8,6.1-3.3,10.8h-8.3c-1.7-4.6-3.4-9.3-3.9-10.6
			l-4.9-0.2c-0.3,1.2-1.8,6.1-3.3,10.8h-4.8c-1.6-4.5-3.3-9-3.7-10.3l-4.9-0.2c-0.3,1.2-1.8,5.9-3.3,10.5h-5.7
			c-1.6-4.5-3.3-9-3.7-10.3l-4.9-0.2c-0.3,1.2-1.8,5.9-3.3,10.5h-7.6c-1.6-4.5-3.3-9-3.7-10.3l-4.9-0.2c-0.3,1.2-1.8,5.9-3.3,10.5
			H75c-1.6-4.5-3.3-9-3.7-10.3l-4.9-0.2c-0.3,1.2-1.8,5.9-3.3,10.5h-7.8c-1.6-4.5-3.3-9-3.7-10.3l-4.9-0.2
			c-0.3,1.2-1.8,5.9-3.3,10.5h-5.8c-1.6-4.5-3.3-9-3.7-10.3l-4.9-0.2c-0.3,1.2-1.8,5.9-3.3,10.5h-3.4v54.1h463.7v-54.1H482.1z"/>
		<ellipse id="XMLID_31_" class="st1" cx="120.1" cy="366" rx="18.3" ry="15.2"/>
		<ellipse id="XMLID_30_" class="st1" cx="451.3" cy="359.9" rx="18.3" ry="15.2"/>
		<ellipse id="XMLID_29_" class="st6" cx="450.4" cy="356.6" rx="15.2" ry="11.7"/>
		<ellipse id="XMLID_28_" class="st6" cx="120.1" cy="363.9" rx="16.9" ry="13.2"/>
	</g>
	<path id="XMLID_27_" class="st3" d="M133.8,231.8l0.1,5.1c0,0-7.2-22.4-9.4-31.5c-0.5-2.2-0.3-4.4-0.1-4.6
		C125.3,199.9,133.8,231.8,133.8,231.8z"/>
	<linearGradient id="XMLID_130_" gradientUnits="userSpaceOnUse" x1="236.4749" y1="112.2118" x2="258.5096" y2="351.1168">
		<stop  offset="0.1091" style="stop-color:#3D3D3F"/>
		<stop  offset="0.4545" style="stop-color:#B0B2B3"/>
		<stop  offset="0.6545" style="stop-color:#C5C6C8"/>
		<stop  offset="0.9515" style="stop-color:#3D3D3F"/>
	</linearGradient>
	<path id="XMLID_26_" class="st7" d="M360.8,222.8c1-0.4,1.2-4.6-0.2-5.1c-0.9-0.3-6.4-1.4-10.2-2.1c-0.1-0.6-0.1-1.3-0.2-1.9
		c2.1-1.1,10-5.4,10.8-5.9c0.8-0.6,0.1-4.7-1.4-4.9c-1-0.1-7.5,0.1-11.4,0.3c-0.4-1.3-0.7-2.6-1.2-3.9c3.1-1.7,8.5-4.6,9.1-5.1
		c0.8-0.6,0.1-4.7-1.4-4.9c-1-0.1-7.7,0.1-11.5,0.3c-0.5-1.2-1.1-2.3-1.7-3.4c2.7-2.2,7.6-6.1,8.1-6.6c0.7-0.8-0.8-4.7-2.3-4.6
		c-1,0.1-7.3,1.5-11.1,2.4c-0.5-0.7-1-1.5-1.6-2.2c2.3-2.8,5.9-7.3,6.3-7.9c0.5-0.9-1.7-4.4-3.1-4c-0.9,0.3-6.1,2.6-9.6,4.2
		c-1-1-2-2-3.1-3c1.8-3.3,4.3-7.6,4.5-8.2c0.4-1-2.4-4.1-3.7-3.5c-0.9,0.4-5.3,3.3-8.6,5.5c-0.9-0.6-1.9-1.2-2.8-1.8
		c1-3.7,2.3-8.6,2.4-9.2c0.3-1-2.9-3.7-4.1-3c-0.8,0.5-5.4,4.4-8.3,7c-1.1-0.5-2.1-0.9-3.3-1.3c0.4-3.8,0.9-8.8,0.9-9.5
		c0.1-1-3.4-3.2-4.6-2.3c-0.7,0.6-4.5,5.2-7,8.2c-1.2-0.3-2.4-0.6-3.5-0.9c-0.4-3.9-1-10-1-10.7c-0.1-1-4-2.5-4.9-1.3
		c-0.6,0.8-3.7,6.4-5.5,9.9c-1.1-0.2-2.2-0.3-3.4-0.5c-0.9-3.8-2.3-10.2-2.5-11c-0.2-1-4.3-2-5-0.7c-0.5,0.9-3,7.1-4.4,10.7
		c-1.2,0-2.4-0.1-3.6-0.1c-1.6-3.6-4.1-9.5-4.4-10.1c-0.4-1-4.6-1.2-5.1,0.2c-0.3,0.9-1.4,6.4-2.1,10.2c-1.7,0.1-3.4,0.3-5.1,0.5
		c-1.9-3.4-4.8-8.5-5.1-9.1c-0.5-0.9-4.7-0.7-5,0.8c-0.2,0.9-0.7,6.2-1,10.1c-1.5,0.3-3,0.7-4.5,1c-2.1-3.3-5.5-8.9-6.1-9.4
		c-0.8-0.7-4.9,0.6-4.9,2.1c0,0.9,1,6.1,1.7,9.9c-2.3,0.8-4.6,1.6-6.9,2.6c-2-3.3-4.6-7.5-5-7.9c-0.7-0.7-4.9,0.6-4.9,2.1
		c0,0.9,0.9,5.9,1.5,9.7c-2.2,1.1-4.3,2.3-6.4,3.5c-2.6-2.7-5.8-6-6.3-6.3c-0.9-0.6-4.6,1.7-4.3,3.1c0.2,0.8,1.8,4.6,3.2,8
		c-1.7,1.2-3.3,2.4-4.9,3.7c-3-2.3-6.8-5.2-7.3-5.4c-1-0.4-4.4,2.3-3.8,3.7c0.5,1.2,2.6,4.7,4.3,7.6c-1.8,1.7-3.6,3.4-5.2,5.2
		c-3.5-1.6-7.8-3.6-8.4-3.7c-1-0.2-3.7,3.2-2.9,4.5c0.4,0.6,3.1,3.4,5.5,6c-1.2,1.5-2.3,3-3.4,4.6c-3.9-0.9-9.7-2.2-10.4-2.2
		c-1,0-3,3.9-1.9,5c0.6,0.6,4.3,3.1,7.3,5.2c-0.9,1.6-1.7,3.2-2.5,4.8c-3.9-0.3-9.9-0.7-10.6-0.6c-1,0.2-2.3,4.3-1.1,5.2
		c0.7,0.5,4.7,2.4,8.1,4c-0.4,1.3-0.9,2.5-1.2,3.8c-3.9,0.4-9.7,1-10.4,1.3c-1,0.4-1.6,4.7-0.2,5.3c0.8,0.4,4.9,1.5,8.5,2.5
		c-0.3,1.5-0.5,3.1-0.7,4.6c-3.6,1.3-10.3,3.7-10.9,4.2c-0.9,0.6-0.4,4.9,1.1,5.2c0.9,0.2,5.6,0.3,9.4,0.4c0,1.3,0.1,2.7,0.2,4
		c-3.5,1.3-10.5,3.8-11.2,4.3c-0.9,0.6-0.4,4.9,1.1,5.2c1,0.2,7.7,0.4,11.6,0.4c0.3,1.2,0.5,2.3,0.9,3.5c-3.1,1.9-9.9,6-10.5,6.6
		c-0.7,0.7,0.6,4.9,2.1,4.9c1.1,0,8-1.2,11.7-1.9c0.4,0.9,0.8,1.7,1.2,2.6c-3,3.3-7.5,8.2-7.9,8.8c-0.6,0.8,1.2,4.8,2.6,4.6
		c1-0.1,7.4-2,11.1-3.2c0.5,0.7,1,1.5,1.5,2.2c-2.6,3.6-6.3,8.8-6.6,9.4c-0.5,0.9,1.7,4.6,3.2,4.3c1.1-0.3,7.6-3.1,11-4.7
		c0.3,0.3,0.6,0.7,1,1c-1.5,4.2-3.9,10.7-4.1,11.4c-0.3,1,2.9,4,4.2,3.3c0.9-0.5,5.8-4.4,8.8-6.9c1.2,0.9,2.5,1.9,3.7,2.7
		c-1.5,4.2-3.9,10.7-4.1,11.3c-0.3,1,2.9,4,4.2,3.3c1.1-0.6,8-6.3,10.4-8.2c0.8,0.4,1.5,0.8,2.3,1.2c-0.6,4.4-1.4,10.7-1.5,11.4
		c-0.1,1,3.7,3.3,4.8,2.3c0.8-0.7,5.1-6.1,7.4-9.1c1.2,0.4,2.4,0.8,3.7,1.2c0.2,4.4,0.6,12,0.7,12.8c0.1,1,4.2,2.5,5.1,1.4
		c0.7-0.9,4.3-7.8,6-11c1.7,0.3,3.4,0.6,5.1,0.9c0.4,3.5,1,9.2,1.2,9.9c0.2,1,4.4,2.3,5.2,1c0.6-0.9,3.2-6.9,4.5-9.7
		c1.6,0.1,3.2,0.2,4.9,0.2c1.7,4,3.9,9,4.2,9.5c0.5,0.9,4.8,0.9,5.3-0.5c0.3-0.8,0.9-5.5,1.4-9.3c2.5-0.2,4.9-0.4,7.4-0.7
		c2,3.7,4.3,8,4.6,8.4c0.6,0.9,4.9,0.5,5.2-1c0.2-0.9,0.4-5.6,0.6-9.4c1.9-0.5,3.8-1,5.7-1.6c2.7,3.4,6.1,7.8,6.6,8.3
		c0.7,0.8,4.9-0.4,5-1.9c0-0.9-0.6-6.3-1.1-10.2c1.8-0.8,3.6-1.6,5.4-2.5c3,3.1,6.8,7,7.2,7.4c0.8,0.7,4.6-0.9,4.5-2.4
		c-0.1-0.9-1.4-6.3-2.4-10.1c1.6-0.9,3.1-1.9,4.6-2.9c3.7,2.3,10,6.1,10.7,6.5c0.9,0.5,4.3-2,3.8-3.4c-0.3-1-3.4-6.5-5.3-9.9
		c1.1-0.9,2.2-1.8,3.2-2.8c4.1,1.7,10.6,4.3,11.2,4.5c1,0.3,3.9-2.7,3.2-4c-0.5-0.8-3.9-5.3-6.4-8.4c0.8-0.8,1.6-1.7,2.3-2.6
		c4.1,0.7,12.5,2,13.2,2.1c1,0.1,3.2-3.5,2.2-4.6c-0.6-0.7-5-4.3-8.1-6.7c0.6-0.9,1.2-1.7,1.8-2.6c3.4,0,13.8,0.1,14.7,0
		c1-0.1,2.6-3.9,1.4-4.9c-0.8-0.7-6.5-3.9-9.9-5.8c0.7-1.3,1.3-2.7,1.9-4c2.7,0.2,11.1,0.7,12,0.7c1-0.1,2.6-3.9,1.4-4.9
		c-0.8-0.6-6.3-3.8-9.7-5.7c0.4-1.3,0.8-2.6,1.1-3.9c3.2-0.3,10.4-1,11.2-1.2c1-0.2,1.9-4.3,0.6-5.1c-0.8-0.5-6.3-2.5-10-3.9
		c0.1-1.2,0.2-2.3,0.3-3.5C354,224.8,360.1,223.1,360.8,222.8z"/>
	<linearGradient id="XMLID_131_" gradientUnits="userSpaceOnUse" x1="242.759" y1="203.2071" x2="258.9951" y2="266.4128">
		<stop  offset="6.060610e-002" style="stop-color:#3D3D3F"/>
		<stop  offset="0.4" style="stop-color:#868789"/>
		<stop  offset="0.9515" style="stop-color:#1A171B"/>
	</linearGradient>
	<ellipse id="XMLID_25_" class="st8" cx="250.5" cy="233.3" rx="37" ry="35.1"/>
	
		<rect id="XMLID_24_" x="239.2" y="205.9" transform="matrix(0.7947 -0.6069 0.6069 0.7947 -91.79 199.3094)" class="st9" width="19.2" height="59"/>
	
		<rect id="XMLID_23_" x="243.2" y="202.6" transform="matrix(0.7948 -0.6069 0.6069 0.7948 -88.9684 201.0562)" class="st9" width="19.2" height="59"/>
	
		<rect id="XMLID_20_" x="243.7" y="204.2" transform="matrix(0.7947 -0.607 0.607 0.7947 -90.3447 200.1368)" class="st10" width="14" height="59"/>
</g>
</svg>
