<?xml version="1.0" encoding="utf-8"?>
<!-- Generator: Adobe Illustrator 19.0.0, SVG Export Plug-In . SVG Version: 6.00 Build 0)  -->
<svg version="1.1" id="Camada_1" xmlns="http://www.w3.org/2000/svg" xmlns:xlink="http://www.w3.org/1999/xlink" x="0px" y="0px"
	 viewBox="0 0 500 500" style="enable-background:new 0 0 500 500;" xml:space="preserve">
<style type="text/css">
	.st0{fill:#7B6A58;stroke:#000000;stroke-width:4.4243;stroke-linejoin:round;stroke-miterlimit:10;}
	.st1{fill:#C6C6C6;stroke:#000000;stroke-width:4.4243;stroke-linejoin:round;stroke-miterlimit:10;}
	.st2{fill:#CA9E67;stroke:#000000;stroke-width:4.4243;stroke-linejoin:round;stroke-miterlimit:10;}
	.st3{fill:#E30613;stroke:#000000;stroke-width:4.4243;stroke-linejoin:round;stroke-miterlimit:10;}
	.st4{fill:#1D71B8;stroke:#000000;stroke-width:4.4243;stroke-linejoin:round;stroke-miterlimit:10;}
	.st5{fill:#B33F4C;stroke:#000000;stroke-width:4.4243;stroke-linejoin:round;stroke-miterlimit:10;}
	.st6{fill:#006633;stroke:#000000;stroke-width:4.4243;stroke-linejoin:round;stroke-miterlimit:10;}
	.st7{stroke:#000000;stroke-width:4.4243;stroke-linejoin:round;stroke-miterlimit:10;}
</style>
<g>
	<path id="XMLID_22_" class="st0" d="M272.6,60.3c-59.1,0-107.1,47.9-107.1,107.1c0,59.1,47.9,107.1,107.1,107.1
		c59.1,0,107.1-47.9,107.1-107.1C379.6,108.3,331.7,60.3,272.6,60.3z M272.6,262c-52.3,0-94.6-42.4-94.6-94.6
		c0-52.3,42.4-94.6,94.6-94.6c52.3,0,94.6,42.4,94.6,94.6C367.2,219.7,324.8,262,272.6,262z"/>
	<path id="XMLID_19_" class="st1" d="M171.2,167.4c-45.7,0-82.8,37.1-82.8,82.8s37.1,82.8,82.8,82.8c45.7,0,82.8-37.1,82.8-82.8
		S216.9,167.4,171.2,167.4z M171.2,323.4c-40.4,0-73.2-32.8-73.2-73.2c0-40.4,32.8-73.2,73.2-73.2c40.4,0,73.2,32.8,73.2,73.2
		C244.4,290.7,211.6,323.4,171.2,323.4z"/>
	<path id="XMLID_16_" class="st2" d="M95.3,178.7c-45.7,0-82.8,37.1-82.8,82.8s37.1,82.8,82.8,82.8s82.8-37.1,82.8-82.8
		S141.1,178.7,95.3,178.7z M95.3,334.7c-40.4,0-73.2-32.8-73.2-73.2c0-40.4,32.8-73.2,73.2-73.2s73.2,32.8,73.2,73.2
		C168.5,302,135.7,334.7,95.3,334.7z"/>
	<path id="XMLID_13_" class="st3" d="M395.6,178.7c-50.4,0-91.3,40.9-91.3,91.3c0,50.4,40.9,91.3,91.3,91.3
		c50.4,0,91.3-40.9,91.3-91.3C487,219.6,446.1,178.7,395.6,178.7z M395.6,350.7c-44.6,0-80.7-36.1-80.7-80.7
		c0-44.6,36.1-80.7,80.7-80.7c44.6,0,80.7,36.1,80.7,80.7C476.3,314.6,440.2,350.7,395.6,350.7z"/>
	<path id="XMLID_10_" class="st4" d="M381.1,270.1c-39.9,0-72.3,32.4-72.3,72.3c0,39.9,32.4,72.3,72.3,72.3
		c39.9,0,72.3-32.4,72.3-72.3C453.4,302.4,421.1,270.1,381.1,270.1z M381.1,406.2c-35.3,0-63.9-28.6-63.9-63.9
		c0-35.3,28.6-63.9,63.9-63.9c35.3,0,63.9,28.6,63.9,63.9C445,377.6,416.4,406.2,381.1,406.2z"/>
	<path id="XMLID_7_" class="st5" d="M229.2,332.2c-24.1,0-43.7,15.6-43.7,34.8c0,19.2,19.6,34.8,43.7,34.8s43.7-15.6,43.7-34.8
		C272.9,347.7,253.3,332.2,229.2,332.2z M229.2,394.3c-19,0-34.4-12.3-34.4-27.4s15.4-27.4,34.4-27.4s34.4,12.3,34.4,27.4
		S248.2,394.3,229.2,394.3z"/>
	<path id="XMLID_4_" class="st6" d="M268.8,372.5c-24.1,0-43.7,15.6-43.7,34.8c0,19.2,19.6,34.8,43.7,34.8
		c24.1,0,43.7-15.6,43.7-34.8C312.5,388.1,292.9,372.5,268.8,372.5z M268.8,434.6c-19,0-34.4-12.3-34.4-27.4
		c0-15.1,15.4-27.4,34.4-27.4c19,0,34.4,12.3,34.4,27.4C303.2,422.4,287.8,434.6,268.8,434.6z"/>
	<path id="XMLID_1_" class="st7" d="M170.4,362.4c-22.6,0-41,15.6-41,34.8c0,19.2,18.4,34.8,41,34.8c22.6,0,41-15.6,41-34.8
		C211.4,378,193,362.4,170.4,362.4z M170.4,424.6c-17.8,0-32.3-12.3-32.3-27.4c0-15.1,14.5-27.4,32.3-27.4
		c17.8,0,32.3,12.3,32.3,27.4C202.7,412.3,188.2,424.6,170.4,424.6z"/>
</g>
</svg>
