<?xml version="1.0" encoding="utf-8"?>
<!-- Generator: Adobe Illustrator 19.0.0, SVG Export Plug-In . SVG Version: 6.00 Build 0)  -->
<svg version="1.1" id="Camada_1" xmlns="http://www.w3.org/2000/svg" xmlns:xlink="http://www.w3.org/1999/xlink" x="0px" y="0px"
	 viewBox="0 0 500 500" style="enable-background:new 0 0 500 500;" xml:space="preserve">
<style type="text/css">
	.st0{fill:#2D2D2B;stroke:#1D1D1B;stroke-width:2.4059;stroke-linejoin:round;stroke-miterlimit:10;}
	.st1{fill:none;stroke:#1D1D1B;stroke-width:2.4059;stroke-linejoin:round;stroke-miterlimit:10;}
</style>
<g id="XMLID_96_">
	<path id="XMLID_92_" class="st0" d="M447.2,257c0-93.6-85.8-169.6-191.7-169.6C149.7,87.5,63.9,163.4,63.9,257
		c0,93.6,85.8,169.6,191.7,169.6c78.6,0,146.2-41.9,175.7-101.8c0,0,11.2-19.3,15.8-59c-0.1,0.8,0,0,0,0
		C447.1,263.7,447.2,259.1,447.2,257z M413.8,262.8c-1.2,23.2-11.9,48-11.9,48c-23.8,50.7-80.4,86.4-146.3,86.4
		c-87.5,0-158.4-62.7-158.4-140.1c0-77.4,70.9-140.1,158.4-140.1C343,116.9,414,179.7,414,257C414,258.2,414,261.3,413.8,262.8z"/>
	<polyline id="XMLID_91_" class="st1" points="250.9,397.2 238.1,410.6 247.2,426.6 	"/>
	<polyline id="XMLID_90_" class="st1" points="231.4,395.6 218.2,407.4 225.7,424.2 	"/>
	<polyline id="XMLID_89_" class="st1" points="212.6,391.4 197.6,402.9 203.8,419.9 	"/>
	<polyline id="XMLID_88_" class="st1" points="191.7,386 178.2,395.6 183,414.6 	"/>
	<polyline id="XMLID_87_" class="st1" points="176.7,378.6 160.9,387.5 162,405.6 	"/>
	<polyline id="XMLID_86_" class="st1" points="161.7,369.9 143.5,376.7 142.6,394 	"/>
	<polyline id="XMLID_85_" class="st1" points="147.7,359.7 130.7,363.9 126,382 	"/>
	<polyline id="XMLID_84_" class="st1" points="136.4,349.4 118.1,353 111.3,368.6 	"/>
	<polyline id="XMLID_83_" class="st1" points="125.4,337.8 105.5,337.4 97.2,353.7 	"/>
	<polyline id="XMLID_82_" class="st1" points="115.2,322.4 96.5,320.7 86.4,336.4 	"/>
	<polyline id="XMLID_81_" class="st1" points="106.5,304.8 86.9,301.7 75.8,316.6 	"/>
	<polyline id="XMLID_80_" class="st1" points="100.8,287.1 83.9,283.7 70.1,298.9 	"/>
	<polyline id="XMLID_79_" class="st1" points="98.3,271.6 80.6,266.3 65.3,278.4 	"/>
	<polyline id="XMLID_78_" class="st1" points="97.1,256.6 79.8,248.3 63.9,258.5 	"/>
	<polyline id="XMLID_77_" class="st1" points="98.4,239.7 84.1,230.6 65.1,238.7 	"/>
	<polyline id="XMLID_76_" class="st1" points="101.8,223.3 87.2,212.9 69.1,218 	"/>
	<polyline id="XMLID_75_" class="st1" points="107,207.3 93.2,194.6 74.3,201.1 	"/>
	<polyline id="XMLID_74_" class="st1" points="115.3,191 103.3,178.2 83.7,183.1 	"/>
	<polyline id="XMLID_73_" class="st1" points="125.6,176.9 113.4,161.8 93.6,166.3 	"/>
	<polyline id="XMLID_72_" class="st1" points="140.8,160.4 131.5,145.1 109.6,147.3 	"/>
	<polyline id="XMLID_71_" class="st1" points="157.9,146.1 149.5,131.3 129,130.3 	"/>
	<polyline id="XMLID_70_" class="st1" points="172.9,137.5 166.4,119.5 147,116.9 	"/>
	<polyline id="XMLID_69_" class="st1" points="190.8,128.4 187.8,113 169,105.8 	"/>
	<polyline id="XMLID_68_" class="st1" points="207.1,123.6 205,107.1 188.1,98.3 	"/>
	<polyline id="XMLID_67_" class="st1" points="222,120.1 221.6,104.3 208.4,92.5 	"/>
	<polyline id="XMLID_66_" class="st1" points="230.8,119.3 236.1,103.2 227.5,89.3 	"/>
	<polyline id="XMLID_65_" class="st1" points="244.3,117.1 255.4,101 247.2,87.5 	"/>
	<polyline id="XMLID_64_" class="st1" points="266.1,116.7 277.3,104.7 271.1,87.3 	"/>
	<polyline id="XMLID_63_" class="st1" points="284.9,119.3 297.6,107.1 294.3,91 	"/>
	<polyline id="XMLID_62_" class="st1" points="301.5,122.9 317,113.3 312.3,95.1 	"/>
	<polyline id="XMLID_61_" class="st1" points="319.9,129 335.2,120.9 333.3,102 	"/>
	<polyline id="XMLID_60_" class="st1" points="338.2,137.5 353.9,129.9 352.9,110.9 	"/>
	<polyline id="XMLID_59_" class="st1" points="354.7,147.5 370.5,141.3 371.4,121.9 	"/>
	<polyline id="XMLID_58_" class="st1" points="367.1,158.1 384.9,153 389.1,135.3 	"/>
	<polyline id="XMLID_57_" class="st1" points="379.1,169.8 398.6,167.4 404.5,150.8 	"/>
	<polyline id="XMLID_56_" class="st1" points="389.6,182.9 407.3,182.6 417.1,166.2 	"/>
	<polyline id="XMLID_37_" class="st1" points="397.6,195.4 416.4,196 427.5,182.4 	"/>
	<polyline id="XMLID_36_" class="st1" points="405,209.1 424.1,213.9 436.9,200 	"/>
	<polyline id="XMLID_35_" class="st1" points="410.4,226.3 428,232.1 442.3,219.2 	"/>
	<polyline id="XMLID_34_" class="st1" points="413.8,245.2 431.8,252.7 446.8,240.7 	"/>
	<polyline id="XMLID_33_" class="st1" points="397.1,321.5 408.3,334.8 426.3,334 	"/>
	<polyline id="XMLID_32_" class="st1" points="383.7,339.5 394.9,354.8 414,352.9 	"/>
	<polyline id="XMLID_31_" class="st1" points="371.8,352.3 380.4,368.4 400.8,368.1 	"/>
	<polyline id="XMLID_30_" class="st1" points="358,364 365.9,382 385,382.1 	"/>
	<polyline id="XMLID_29_" class="st1" points="413.6,268 429.8,274.4 447,265.8 	"/>
	<polyline id="XMLID_28_" class="st1" points="410.7,285.9 427.9,294 443.7,286.9 	"/>
	<polyline id="XMLID_27_" class="st1" points="404.9,302.9 421.7,312.9 438.2,307.9 	"/>
	<polyline id="XMLID_26_" class="st1" points="339.1,377.1 343.7,394 363.9,396.9 	"/>
	<polyline id="XMLID_25_" class="st1" points="318.4,385.7 322.3,403.4 341.8,408.9 	"/>
	<polyline id="XMLID_24_" class="st1" points="301.4,392.1 302.6,410.9 318.4,417.3 	"/>
	<polyline id="XMLID_23_" class="st1" points="282.4,395.5 280.8,411 297,422.3 	"/>
	<polyline id="XMLID_20_" class="st1" points="265.5,396.9 261.6,414.3 276.1,425.6 	"/>
</g>
</svg>
