<?xml version="1.0" encoding="utf-8"?>
<!-- Generator: Adobe Illustrator 19.0.0, SVG Export Plug-In . SVG Version: 6.00 Build 0)  -->
<svg version="1.1" id="Camada_1" xmlns="http://www.w3.org/2000/svg" xmlns:xlink="http://www.w3.org/1999/xlink" x="0px" y="0px"
	 viewBox="0 0 500 500" style="enable-background:new 0 0 500 500;" xml:space="preserve">
<style type="text/css">
	.st0{clip-path:url(#XMLID_57_);fill:#9B9C9E;stroke:#1A171B;stroke-width:1.971;stroke-linejoin:round;stroke-miterlimit:10;}
	.st1{clip-path:url(#XMLID_57_);fill:#B0B2B3;stroke:#1A171B;stroke-width:1.971;stroke-linejoin:round;stroke-miterlimit:10;}
	
		.st2{clip-path:url(#XMLID_57_);fill:url(#XMLID_58_);stroke:#1A171B;stroke-width:1.971;stroke-linejoin:round;stroke-miterlimit:10;}
	
		.st3{clip-path:url(#XMLID_57_);fill:url(#XMLID_59_);stroke:#1A171B;stroke-width:1.971;stroke-linejoin:round;stroke-miterlimit:10;}
	.st4{clip-path:url(#XMLID_57_);fill:#3D3D3F;stroke:#1A171B;stroke-width:1.971;stroke-linejoin:round;stroke-miterlimit:10;}
	.st5{clip-path:url(#XMLID_57_);fill:#6F7072;stroke:#1A171B;stroke-width:0.9855;stroke-linejoin:round;stroke-miterlimit:10;}
	.st6{clip-path:url(#XMLID_57_);fill:#1A171B;stroke:#1A171B;stroke-width:1.971;stroke-linejoin:round;stroke-miterlimit:10;}
	
		.st7{clip-path:url(#XMLID_57_);fill:url(#XMLID_60_);stroke:#1A171B;stroke-width:1.971;stroke-linejoin:round;stroke-miterlimit:10;}
	.st8{clip-path:url(#XMLID_57_);fill:url(#XMLID_61_);stroke:#1A171B;stroke-width:1.971;stroke-miterlimit:10;}
	.st9{clip-path:url(#XMLID_57_);fill:url(#XMLID_62_);stroke:#1A171B;stroke-width:1.971;stroke-miterlimit:10;}
	.st10{clip-path:url(#XMLID_57_);fill:#1A171B;stroke:#1A171B;stroke-width:1.971;stroke-miterlimit:10;}
	
		.st11{clip-path:url(#XMLID_57_);fill:url(#XMLID_63_);stroke:#1A171B;stroke-width:1.971;stroke-linejoin:round;stroke-miterlimit:10;}
</style>
<g id="XMLID_56_">
	<defs>
		<rect id="XMLID_20_" x="11.5" y="88.6" width="475" height="331.6"/>
	</defs>
	<use xlink:href="#XMLID_20_"  style="overflow:visible;fill:#3D3D3F;"/>
	<clipPath id="XMLID_57_">
		<use xlink:href="#XMLID_20_"  style="overflow:visible;"/>
	</clipPath>
	<path id="XMLID_36_" class="st0" d="M513.3,131.9c-44.5-52.9-104.8-75.4-134.6-50.4l-25.3,7l-35.3,44L43.2,186.3l51.2,262.1
		L456.1,425c18.1,4,32.5,3.8,40.1-2.6c0,0,33.5-106.9,44.8-128.3C552.4,272.8,557.8,184.8,513.3,131.9z"/>
	<path id="XMLID_35_" class="st1" d="M309.6,88.6c-3.1,1.5-6,3.3-8.6,5.5l-60.6,51l-274.9,53.7l51.2,262.1l361.7-23.4
		c18.1,4,32.5,3.8,40.1-2.6c0,0,33.5-106.9,44.8-128.3c11.3-21.3,16.8-109.3-27.7-162.2c-23.6-28-51.5-47.5-77.1-55.9"/>
	<path id="XMLID_34_" class="st0" d="M364.9,197.9c15.8,43.4,14.1,89.8,8.9,93.1c-6.2,3.9-14.4,11.7-21.2,14.2
		c-32.7,11.9-69.4-12.3-89.3-67c-20-54.7-11.9-103.1,20.8-115c5.8-2.1,14.8-7.8,20.8-5.7C324.3,124.5,348.5,152.9,364.9,197.9z"/>
	<linearGradient id="XMLID_58_" gradientUnits="userSpaceOnUse" x1="274.1712" y1="120.1037" x2="352.7476" y2="363.6905">
		<stop  offset="0" style="stop-color:#6F7072"/>
		<stop  offset="0.1576" style="stop-color:#3D3D3F"/>
		<stop  offset="0.3273" style="stop-color:#B0B2B3"/>
		<stop  offset="0.497" style="stop-color:#58585A"/>
		<stop  offset="0.9636" style="stop-color:#4A4A4C"/>
	</linearGradient>
	<path id="XMLID_33_" class="st2" d="M339.8,207.2c-17.3-46-41.6-79.3-54.4-74.4c-0.4,0.1-39.1,18.1-39.1,18.1l59.9,167.9l43.9-20.6
		C360.2,289.5,356,250.5,339.8,207.2z"/>
	<linearGradient id="XMLID_59_" gradientUnits="userSpaceOnUse" x1="265.678" y1="127.2849" x2="342.3456" y2="364.9545">
		<stop  offset="0" style="stop-color:#6F7072"/>
		<stop  offset="9.072130e-002" style="stop-color:#3D3D3F"/>
		<stop  offset="0.2667" style="stop-color:#B0B2B3"/>
		<stop  offset="0.4364" style="stop-color:#868789"/>
		<stop  offset="0.7228" style="stop-color:#B0B2B3"/>
		<stop  offset="0.9636" style="stop-color:#4A4A4C"/>
	</linearGradient>
	<path id="XMLID_32_" class="st3" d="M321.4,216.6c-16.7-46-40.3-79.3-52.6-74.4c-0.4,0.1-22.5,8.7-22.5,8.7l57.9,167.9l27.1-11.2
		C341.5,302.1,337,259.9,321.4,216.6z"/>
	<ellipse id="XMLID_31_" class="st4" cx="342.4" cy="400.3" rx="13" ry="10.9"/>
	<ellipse id="XMLID_30_" class="st5" cx="342.4" cy="400.3" rx="10.4" ry="8.7"/>
	<path id="XMLID_29_" class="st6" d="M303.3,225.5c23.9,64.7,20.7,86.9,3.2,93.3c-17.5,6.4-45.4-25.9-62.2-72.1
		c-16.9-46.2-16.3-88.9,1.2-95.2C263,145,278,156.9,303.3,225.5z"/>
	<linearGradient id="XMLID_60_" gradientUnits="userSpaceOnUse" x1="251.1583" y1="133.392" x2="327.901" y2="371.2945">
		<stop  offset="0" style="stop-color:#6F7072"/>
		<stop  offset="9.072130e-002" style="stop-color:#3D3D3F"/>
		<stop  offset="0.2667" style="stop-color:#B0B2B3"/>
		<stop  offset="0.4364" style="stop-color:#868789"/>
		<stop  offset="0.7228" style="stop-color:#B0B2B3"/>
		<stop  offset="0.9636" style="stop-color:#4A4A4C"/>
	</linearGradient>
	<path id="XMLID_28_" class="st7" d="M301.1,225.3c-17.4-46-41.9-79.3-54.8-74.4c-0.4,0.1-8.9,3.7-8.9,3.7l67.8,165.4l6.2-3.8
		C321.6,307.6,317.4,268.6,301.1,225.3z"/>
	<linearGradient id="XMLID_61_" gradientUnits="userSpaceOnUse" x1="166.1484" y1="83.8136" x2="309.6787" y2="451.0406">
		<stop  offset="0" style="stop-color:#6F7072"/>
		<stop  offset="9.072130e-002" style="stop-color:#3D3D3F"/>
		<stop  offset="0.2615" style="stop-color:#868789"/>
		<stop  offset="0.4109" style="stop-color:#3D3D3F"/>
		<stop  offset="0.7228" style="stop-color:#77787A"/>
		<stop  offset="0.8558" style="stop-color:#4A4A4C"/>
	</linearGradient>
	<path id="XMLID_27_" class="st8" d="M282.6,228.3c25.6,60.8,31.1,128,20.4,151.8c-3.6,8.1-19.3,12.2-26.2,15.1
		c-31.9,13.4-63.1-41.1-95.4-118.8c-28.1-67.7-35.5-150.5-15.6-164.1c3.9-2.7,22.8-8.5,27.9-8C225.2,107.5,254.4,161.4,282.6,228.3z
		"/>
	<linearGradient id="XMLID_62_" gradientUnits="userSpaceOnUse" x1="154.0466" y1="256.7235" x2="273.624" y2="256.7235">
		<stop  offset="0" style="stop-color:#6F7072"/>
		<stop  offset="9.072130e-002" style="stop-color:#3D3D3F"/>
		<stop  offset="0.4182" style="stop-color:#868789"/>
		<stop  offset="0.7228" style="stop-color:#77787A"/>
		<stop  offset="0.8558" style="stop-color:#4A4A4C"/>
	</linearGradient>
	<path id="XMLID_26_" class="st9" d="M248.1,242.9c25.6,60.8,31.1,128,20.4,151.8c-3.6,8.1-37.1,2.5-81.7-105.5
		c-30.1-72.8-40-143.3-27.3-168.5C171.4,96.7,219.9,176,248.1,242.9z"/>
	
		<ellipse id="XMLID_25_" transform="matrix(0.9396 -0.3423 0.3423 0.9396 -72.8258 85.1873)" class="st10" cx="205" cy="248.9" rx="23.2" ry="52.6"/>
	<path id="XMLID_24_" class="st4" d="M218.5,281.9c1.1,3.4-31.2,24.8-31.2,24.8L158,228.1c0,0,30.7,3,36.6,2.5
		C203.7,235.9,219.5,270.7,218.5,281.9z"/>
	<linearGradient id="XMLID_63_" gradientUnits="userSpaceOnUse" x1="60.8429" y1="243.4288" x2="106.8319" y2="360.3724">
		<stop  offset="0" style="stop-color:#6F7072"/>
		<stop  offset="0.1879" style="stop-color:#868789"/>
		<stop  offset="0.3697" style="stop-color:#C5C6C8"/>
		<stop  offset="0.6485" style="stop-color:#77787A"/>
		<stop  offset="0.8558" style="stop-color:#B0B2B3"/>
	</linearGradient>
	<polygon id="XMLID_23_" class="st11" points="158,228.1 -20,290.7 7.9,371.3 187.3,306.7 	"/>
	<use xlink:href="#XMLID_20_"  style="overflow:visible;fill:none;stroke:#1A171B;stroke-width:1.971;stroke-miterlimit:10;"/>
</g>
</svg>
