<?xml version="1.0" encoding="utf-8"?>
<!-- Generator: Adobe Illustrator 19.0.0, SVG Export Plug-In . SVG Version: 6.00 Build 0)  -->
<svg version="1.1" id="Camada_1" xmlns="http://www.w3.org/2000/svg" xmlns:xlink="http://www.w3.org/1999/xlink" x="0px" y="0px"
	 viewBox="0 0 500 500" style="enable-background:new 0 0 500 500;" xml:space="preserve">
<style type="text/css">
	.st0{fill:#1D1D1B;stroke:#1D1D1B;stroke-width:6.5024;stroke-linejoin:round;stroke-miterlimit:10;}
	.st1{fill:#3C3C3B;stroke:#1D1D1B;stroke-width:2.1675;stroke-linejoin:round;stroke-miterlimit:10;}
	.st2{fill:#1D1D1B;stroke:#1D1D1B;stroke-width:2.1675;stroke-linejoin:round;stroke-miterlimit:10;}
	.st3{fill:#868686;stroke:#1D1D1B;stroke-width:2.1675;stroke-linejoin:round;stroke-miterlimit:10;}
	.st4{fill:#9C9B9B;stroke:#1D1D1B;stroke-width:2.1675;stroke-linejoin:round;stroke-miterlimit:10;}
	.st5{fill:#C6C6C5;stroke:#1D1D1B;stroke-width:2.1675;stroke-linejoin:round;stroke-miterlimit:10;}
	.st6{fill:#B3B3B3;stroke:#1D1D1B;stroke-width:2.1675;stroke-linejoin:round;stroke-miterlimit:10;}
	.st7{fill:#333333;stroke:#1D1D1B;stroke-width:2.1675;stroke-linejoin:round;stroke-miterlimit:10;}
	.st8{fill:#D9D9D9;stroke:#1D1D1B;stroke-width:2.1675;stroke-linejoin:round;stroke-miterlimit:10;}
	.st9{fill:none;stroke:#1D1D1B;stroke-width:2.1675;stroke-linejoin:round;stroke-miterlimit:10;}
</style>
<path id="XMLID_69_" class="st0" d="M390.4,150c0,0,3.8,2.6,9.7,7.3l-1.4,0.5c-6.7-7.6-16.8-14.7-31.7-20.5v-18.7v-16
	c0-27.5-52.1-49.9-116.3-49.9c-64.2,0-116.3,22.3-116.3,49.9v16v18.7c-14.9,5.8-25,12.9-31.7,20.5l-1.4-0.5c5.9-4.7,9.7-7.3,9.7-7.3
	s-86.8,49.9-86.8,117.1v51.4h8.9v-18.9h58.4v48.9v0.7c0.8,12.5,6.5,20.8,6.5,20.8h0.3c0.8,2.6,3.3,4.5,6.3,4.5h21.4
	c3.6,0,6.6-2.7,6.6-6.1v-2v-6v0c0.6,0.3,1.2,0.7,1.8,1v38.1c0,27.5,52.1,49.9,116.3,49.9c64.2,0,116.3-22.3,116.3-49.9v-38.1
	c0.6-0.3,1.2-0.7,1.8-1v0.7v5.2v2c0,3.4,3,6.1,6.6,6.1h21.4c3,0,5.6-1.9,6.3-4.5h0.3c0,0,5.7-8.3,6.5-20.8v-0.7v-48.9h58.4v18.9h8.9
	v-51.4C477.2,199.9,390.4,150,390.4,150z"/>
<g id="XMLID_71_">
	<polygon id="XMLID_68_" class="st1" points="122.4,366.8 131.7,362.3 131.7,226.7 126.1,231.3 123.4,235.9 122.4,241.1 	"/>
	<g id="XMLID_101_">
		<rect id="XMLID_67_" x="368.8" y="339.1" class="st2" width="29.6" height="27.4"/>
		<rect id="XMLID_66_" x="103" y="339.1" class="st2" width="29.6" height="27.4"/>
	</g>
	<g id="XMLID_94_">
		<path id="XMLID_65_" class="st3" d="M134.3,102.5v297.1c0,27.5,52.1,49.9,116.3,49.9c64.2,0,116.3-22.3,116.3-49.9V102.5H134.3z"
			/>
		<path id="XMLID_64_" class="st4" d="M101.3,200v121.3c0,35.3,66.9,64,149.3,64c82.5,0,149.3-28.7,149.3-64V200H101.3z"/>
		<ellipse id="XMLID_63_" class="st5" cx="250.7" cy="200" rx="149.3" ry="64"/>
		<path id="XMLID_62_" class="st4" d="M134.3,102.5v81.9c0,27.5,52.1,49.9,116.3,49.9c64.2,0,116.3-22.3,116.3-49.9v-81.9H134.3z"/>
		<path id="XMLID_61_" class="st4" d="M352.7,102.5c-19.8-15.4-58-25.9-102-25.9c-44,0-82.2,10.5-102,25.9h-14.3v16
			c0,27.5,52.1,46.9,116.3,46.9c64.2,0,116.3-19.4,116.3-46.9v-16H352.7z"/>
		<ellipse id="XMLID_60_" class="st4" cx="250.7" cy="102.5" rx="116.3" ry="49.9"/>
	</g>
	<g id="XMLID_86_">
		<path id="XMLID_59_" class="st6" d="M377.2,208.6L377.2,208.6C377.1,208.6,377.1,208.6,377.2,208.6L377.2,208.6z"/>
		<polygon id="XMLID_58_" class="st5" points="389.1,292.8 473.5,292.8 473.5,276.8 473.5,257.4 467.7,239.1 461.8,222.1 
			449.6,204.1 421.5,173.2 400.9,157 389.1,160.9 		"/>
		<path id="XMLID_57_" class="st7" d="M388,183.9l-10.9,24.6h19.6c3.6,0,6.6,2.7,6.6,6.1v153.8c0,0.6-0.1,1.1-0.3,1.6h0.3
			c0,0,5.7-8.3,6.5-20.8v-0.7V188.5L388,183.9z"/>
		<path id="XMLID_56_" class="st8" d="M367,137.3c0,12.4,0,16.7,0,23.6c28.4,16.2,3.2,50.1,3.2,50.1l33.7,5.9
			C403.9,216.8,434.4,163.5,367,137.3z"/>
		<polygon id="XMLID_37_" class="st1" points="468.2,267.1 468.2,286 409.9,286 409.9,299.7 468.2,299.7 468.2,318.5 477.2,318.5 
			477.2,267.1 		"/>
		<path id="XMLID_36_" class="st5" d="M390.4,150c0,0,77.9,53,77.9,117.1c2.8,0,5.4,0,8.9,0C477.2,199.9,390.4,150,390.4,150z"/>
		<path id="XMLID_35_" class="st3" d="M396.8,208.6h-19.6v0c0,0,0,0,0,0h-1.7c-3.6,0-6.6,2.7-6.6,6.1v8.3h13.8
			c3.6,0,6.6,2.7,6.6,6.1v125c0,3.4-3,6.1-6.6,6.1h-8.2l-5.5,1v7.2c0,3.4,3,6.1,6.6,6.1h21.4c3,0,5.6-1.9,6.3-4.5
			c0.2-0.5,0.3-1.1,0.3-1.6V214.7C403.4,211.3,400.4,208.6,396.8,208.6z"/>
	</g>
	<path id="XMLID_34_" class="st2" d="M357.6,229.5l21.4,3l-1.5-9.1c0,0-1.7-5.2-4.3-6.6c-1.9-1-8.4-1.3-8.4-1.3l-7.1,7.7V229.5z"/>
	<g id="XMLID_77_">
		<polygon id="XMLID_33_" class="st5" points="112.2,292.8 27.9,292.8 27.9,276.8 27.9,257.4 33.7,239.1 39.5,222.1 51.7,204.1 
			79.8,173.2 100.4,157 112.2,160.9 		"/>
		<path id="XMLID_32_" class="st7" d="M113.3,183.9l10.9,24.6h-19.6c-3.6,0-6.6,2.7-6.6,6.1v153.8c0,0.6,0.1,1.1,0.3,1.6h-0.3
			c0,0-5.7-8.3-6.5-20.8v-0.7V188.5L113.3,183.9z"/>
		<path id="XMLID_31_" class="st8" d="M134.3,137.3c0,12.4,0,16.7,0,23.6c-28.4,16.2-3.2,50.1-3.2,50.1l-33.7,5.9
			C97.5,216.8,66.9,163.5,134.3,137.3z"/>
		<polygon id="XMLID_30_" class="st1" points="33.1,267.1 33.1,286 91.5,286 91.5,299.7 33.1,299.7 33.1,318.5 24.2,318.5 
			24.2,267.1 		"/>
		<path id="XMLID_29_" class="st5" d="M111,150c0,0-77.9,53-77.9,117.1c-2.8,0-5.4,0-8.9,0C24.2,199.9,111,150,111,150z"/>
		<path id="XMLID_28_" class="st6" d="M124.2,208.6L124.2,208.6C124.2,208.6,124.2,208.6,124.2,208.6L124.2,208.6z"/>
		<path id="XMLID_27_" class="st3" d="M104.5,208.6h19.6v0c0,0,0,0,0,0h1.7c3.6,0,6.6,2.7,6.6,6.1v8.3h-13.8c-3.6,0-6.6,2.7-6.6,6.1
			v125c0,3.4,3,6.1,6.6,6.1h8.2l5.5,0.3v8c0,3.4-3,6.1-6.6,6.1h-21.4c-3,0-5.6-1.9-6.3-4.5c-0.2-0.5-0.3-1.1-0.3-1.6V214.7
			C97.9,211.3,100.9,208.6,104.5,208.6z"/>
	</g>
	<polygon id="XMLID_26_" class="st2" points="280.4,261.5 286.8,248.3 304.5,240.8 322.1,255 321.6,252.4 319.7,245.8 315.5,237.8 
		298,237.4 286.4,242.3 281.7,250.1 280.4,256 	"/>
	<polygon id="XMLID_25_" class="st2" points="218.2,243.1 195.7,261.5 197.1,255.3 200.4,246.7 	"/>
	<polygon id="XMLID_24_" class="st2" points="124.2,234.5 146.1,227.8 136,224.9 129.1,226 125.1,230.8 	"/>
	<path id="XMLID_23_" class="st1" d="M376,219.8c0,0-8.7-12-18.7-4.4c-8.4,6.4-8.6,23.1-8.6,23.1v6l2.9,2.2l-2,121.6
		c0,0-0.4,1.7-10.8,4.9c-11.5,3.5-16.4,4.4-16.4,4.4V256c0,0-2.7-28-24.3-26c-18.8,1.8-17.6,21.7-17.6,21.7l0,132.3
		c0,0-2.7,0.7-19.4,1.1c-18.2,0.5-20.6,0-20.6,0v-131c0,0,1.3-18.4-19.2-19.9c-23.4-1.7-25.7,29.5-25.7,29.5v117.1
		c0,0-2.6-0.3-15.7-3.1c-15.8-3.4-14.6-4.7-14.6-4.7V252.7l4.5-4.1c0,0-0.7-15.2-16.1-23.6c-15.3-8.4-25.4-0.4-29.3,7.5
		c0,0-1.8,4-1.8,7c0,1,0,5.3,0,5.3v111.9V241.2c0,0,1.1-19.1,18.8-12c16.9,6.7,16.8,26.5,16.8,26.5v125.7c0,0-2.3,15.2,15.4,17.9
		c19.9,3,22.2-9.8,22.2-9.8V263.8c0,0,1.9-18,21.1-16.8c22.8,1.4,23.9,19.9,23.9,19.9v125.8c0,0-0.1,12.6,20.2,12.6
		c19.7,0,19.7-15,19.7-15l0-125.8c0,0,1.2-17.9,21.8-21.7c17.5-3.2,20.1,13.3,20.1,13.3v125.5c0,0,5.4,13.2,24.4,5.2
		c12-5.1,11.9-20.1,11.9-20.1V242.7c0,0-1-18.4,8.4-24.8c11.1-7.6,12,14.9,12,14.9"/>
	<path id="XMLID_20_" class="st9" d="M112.4,287.4c0,58,276.4,51.7,276.4,0"/>
</g>
</svg>
