<?xml version="1.0" encoding="utf-8"?>
<!-- Generator: Adobe Illustrator 19.0.0, SVG Export Plug-In . SVG Version: 6.00 Build 0)  -->
<svg version="1.1" id="Camada_1" xmlns="http://www.w3.org/2000/svg" xmlns:xlink="http://www.w3.org/1999/xlink" x="0px" y="0px"
	 viewBox="0 0 500 500" style="enable-background:new 0 0 500 500;" xml:space="preserve">
<style type="text/css">
	.st0{fill:#1A171B;stroke:#1A171B;stroke-width:6.3186;stroke-miterlimit:10;}
	.st1{fill:url(#XMLID_59_);stroke:#1A171B;stroke-width:1.5797;stroke-miterlimit:10;}
	.st2{fill:#3D3D3F;stroke:#1A171B;stroke-width:1.5797;stroke-miterlimit:10;}
	.st3{fill:#1A171B;stroke:#1A171B;stroke-width:1.5797;stroke-miterlimit:10;}
	.st4{fill:none;stroke:#1A171B;stroke-width:1.5797;stroke-miterlimit:10;}
</style>
<path id="XMLID_57_" class="st0" d="M480.9,228.9c0.1-35.3-34.1-59.7-66.5-59.7s-388.7,0-388.7,0c-5.8,0-10.6,9.3-10.6,20.7
	c0,11.4,4.7,20.7,10.6,20.7c0,0,327.1-0.1,361.9,0c34.7,0.1,45,27.2,45,40.6s0,88.2,0,88.5c0,3.9,2.3,6.9,9.3,8
	c3.8,0.6,8.9,4.6,14.9,4.6c6.4,0,11.6-3.4,15.9-5.6c4.7-2.3,8.3-3.5,8.3-7.1C480.9,339.5,480.8,248.7,480.9,228.9z"/>
<path id="XMLID_56_" class="st0" d="M480.9,335.6c0,3.3,1.1,4.7-1.3,7.3c-1.3,1.5-4.8,2.9-7,4c-4.7,2.4-10,5.6-15.9,5.6
	c-5.7,0-10.5-2.6-14.9-4.6c-2.6-1.2-5.7-1-7.3-3c-1.9-2.4-2-6.3-2-9.3c0-4.7,4-5.3,8.3-8.3c4.4-3,5.5-8.5,15.8-8.5
	c9.1,0,12,6.3,16.4,9.7C477.1,331.4,480.9,331.2,480.9,335.6z"/>
<path id="XMLID_37_" class="st0" d="M478.1,336.7c0,2.6,1,3.6-1.2,5.6c-1.2,1.1-4.3,2.2-6.2,3c-4.2,1.8-8.9,4.3-14.1,4.3
	c-5.1,0-9.3-2-13.2-3.5c-2.3-0.9-5.1-0.8-6.4-2.3c-1.7-1.8-1.8-4.9-1.8-7.1c0-3.6,3.5-4,7.4-6.4c3.9-2.3,4.9-6.5,14-6.5
	c8.1,0,10.7,4.8,14.6,7.4C474.7,333.5,478.1,333.4,478.1,336.7z"/>
<path id="XMLID_36_" class="st0" d="M33.2,169.2c0,0,1.7,15.1,0,17.1"/>
<path id="XMLID_35_" class="st0" d="M33.2,193.3c2.8,5.5,0,17.1,0,17.1"/>
<path id="XMLID_34_" class="st0" d="M43.9,193.3c2,4.7,0,17.1,0,17.1"/>
<path id="XMLID_33_" class="st0" d="M55,194.2c2.8,3.1,0,17.1,0,17.1"/>
<path id="XMLID_32_" class="st0" d="M43.9,169.2c0,0,1.7,13.6,0,17.1"/>
<path id="XMLID_31_" class="st0" d="M55,169.2c0,0,2.8,14.5,0,17.1"/>
<linearGradient id="XMLID_59_" gradientUnits="userSpaceOnUse" x1="250.2065" y1="60.671" x2="245.4676" y2="493.4925">
	<stop  offset="0.2061" style="stop-color:#3D3D3F"/>
	<stop  offset="0.6545" style="stop-color:#58585A"/>
	<stop  offset="0.9273" style="stop-color:#868789"/>
</linearGradient>
<path id="XMLID_30_" class="st1" d="M480.9,228.9c0.1-35.3-34.1-59.7-66.5-59.7s-388.7,0-388.7,0c-5.8,0-10.6,9.3-10.6,20.7
	c0,11.4,4.7,20.7,10.6,20.7c0,0,327.1-0.1,361.9,0c34.7,0.1,45,27.2,45,40.6s0,88.2,0,88.5c0,3.9,2.3,6.9,9.3,8
	c3.8,0.6,8.9,4.6,14.9,4.6c6.4,0,11.6-3.4,15.9-5.6c4.7-2.3,8.3-3.5,8.3-7.1C480.9,339.5,480.8,248.7,480.9,228.9z"/>
<path id="XMLID_29_" class="st2" d="M480.9,335.6c0,3.3,1.1,4.7-1.3,7.3c-1.3,1.5-4.8,2.9-7,4c-4.7,2.4-10,5.6-15.9,5.6
	c-5.7,0-10.5-2.6-14.9-4.6c-2.6-1.2-5.7-1-7.3-3c-1.9-2.4-2-6.3-2-9.3c0-4.7,4-5.3,8.3-8.3c4.4-3,5.5-8.5,15.8-8.5
	c9.1,0,12,6.3,16.4,9.7C477.1,331.4,480.9,331.2,480.9,335.6z"/>
<path id="XMLID_28_" class="st3" d="M478.1,336.7c0,2.6,1,3.6-1.2,5.6c-1.2,1.1-4.3,2.2-6.2,3c-4.2,1.8-8.9,4.3-14.1,4.3
	c-5.1,0-9.3-2-13.2-3.5c-2.3-0.9-5.1-0.8-6.4-2.3c-1.7-1.8-1.8-4.9-1.8-7.1c0-3.6,3.5-4,7.4-6.4c3.9-2.3,4.9-6.5,14-6.5
	c8.1,0,10.7,4.8,14.6,7.4C474.7,333.5,478.1,333.4,478.1,336.7z"/>
<path id="XMLID_27_" class="st4" d="M33.2,169.2c0,0,1.7,15.1,0,17.1"/>
<path id="XMLID_26_" class="st4" d="M33.2,193.3c2.8,5.5,0,17.1,0,17.1"/>
<path id="XMLID_25_" class="st4" d="M43.9,193.3c2,4.7,0,17.1,0,17.1"/>
<path id="XMLID_24_" class="st4" d="M55,194.2c2.8,3.1,0,17.1,0,17.1"/>
<path id="XMLID_23_" class="st4" d="M43.9,169.2c0,0,1.7,13.6,0,17.1"/>
<path id="XMLID_20_" class="st4" d="M55,169.2c0,0,2.8,14.5,0,17.1"/>
</svg>
