<?xml version="1.0" encoding="utf-8"?>
<!-- Generator: Adobe Illustrator 19.0.0, SVG Export Plug-In . SVG Version: 6.00 Build 0)  -->
<svg version="1.1" id="Camada_1" xmlns="http://www.w3.org/2000/svg" xmlns:xlink="http://www.w3.org/1999/xlink" x="0px" y="0px"
	 viewBox="0 0 500 500" style="enable-background:new 0 0 500 500;" xml:space="preserve">
<style type="text/css">
	.st0{fill:#1A171B;stroke:#1A171B;stroke-width:6.8419;stroke-linejoin:round;stroke-miterlimit:10;}
	.st1{fill:#1A171B;stroke:#1A171B;stroke-width:6.8419;stroke-miterlimit:10;}
	.st2{fill:#6F7072;stroke:#1A171B;stroke-width:1.7105;stroke-linejoin:round;stroke-miterlimit:10;}
	.st3{fill:#3D3D3F;stroke:#1A171B;stroke-width:1.7105;stroke-miterlimit:10;}
	.st4{fill:#9B9C9E;stroke:#1A171B;stroke-width:1.7105;stroke-miterlimit:10;}
	.st5{fill:#868789;stroke:#1A171B;stroke-width:1.7105;stroke-miterlimit:10;}
	.st6{fill:#B0B2B3;stroke:#1A171B;stroke-width:1.7105;stroke-miterlimit:10;}
	.st7{fill:#C5C6C8;stroke:#1A171B;stroke-width:1.7105;stroke-miterlimit:10;}
	.st8{fill:none;stroke:#1A171B;stroke-width:1.7105;stroke-miterlimit:10;}
</style>
<path id="XMLID_87_" class="st0" d="M342.8,79.9c-6.7,0-12.2,17.8-12.2,39.8c0,22,5.4,39.8,12.2,39.8l77.4,3.5V64.4L342.8,79.9z"/>
<path id="XMLID_86_" class="st1" d="M415.5,64.7c0,0-210.4,68.5-226.6,74.8c-30.9,10.1-122.3,135-40.3,261.3
	c5.6,11.4,39.8,42.2,60.3,39.5c3.7,0.1,36.9,8.7,81.8-50.3c0,0,47.5-76.2,61-97.5c45.1-71.3,82.3-133.3,82.3-133.3l-18.6,4
	l-41.3-2.1l-59.9,93.3c0,0-93.7,181.1-103.6,186.4c-139-6-155.2-95.3-156.9-168c-0.4-16.7,6.9-45,15.4-62.9
	c24.3-51.1,75.8-79.5,102.6-86c27.2-6.6,169.4-44.7,169.4-44.7L415.5,64.7z"/>
<path id="XMLID_85_" class="st1" d="M316.6,287.2c0,84.8-45,153.5-100.4,153.5c-55.5,0-102.7-68.7-102.7-153.5
	c0-81.2,47.2-153.5,102.7-153.5C271.6,133.7,316.6,202.4,316.6,287.2z"/>
<ellipse id="XMLID_84_" class="st1" cx="218.4" cy="290.4" rx="84.1" ry="136.2"/>
<ellipse id="XMLID_83_" class="st1" cx="222" cy="291" rx="80.5" ry="127.9"/>
<ellipse id="XMLID_82_" class="st1" cx="222.8" cy="285.9" rx="58.6" ry="87.6"/>
<ellipse id="XMLID_81_" class="st1" cx="230.8" cy="285.9" rx="50.6" ry="87.6"/>
<ellipse id="XMLID_80_" class="st1" cx="229.1" cy="290.4" rx="10.7" ry="21.1"/>
<path id="XMLID_79_" class="st1" d="M452.2,113.2c0,27.6-13.3,49.9-29.8,49.9c-16.4,0-29.8-22.3-29.8-49.9
	c0-27.6,13.3-49.9,29.8-49.9C438.9,63.3,452.2,85.6,452.2,113.2z"/>
<ellipse id="XMLID_78_" class="st1" cx="422.8" cy="112.1" rx="7.3" ry="11.8"/>
<line id="XMLID_77_" class="st1" x1="334.7" y1="100.4" x2="383.9" y2="100.4"/>
<line id="XMLID_76_" class="st1" x1="334.7" y1="129.4" x2="383.9" y2="129.4"/>
<line id="XMLID_75_" class="st1" x1="345.4" y1="150.4" x2="389.9" y2="150.4"/>
<line id="XMLID_74_" class="st1" x1="351.8" y1="85.4" x2="389.9" y2="85.4"/>
<line id="XMLID_73_" class="st1" x1="370.8" y1="167.9" x2="420.2" y2="167.9"/>
<line id="XMLID_72_" class="st1" x1="362.1" y1="183.3" x2="413" y2="183.3"/>
<line id="XMLID_71_" class="st1" x1="351.8" y1="198.3" x2="402.7" y2="198.3"/>
<line id="XMLID_70_" class="st1" x1="342.8" y1="214.5" x2="389.9" y2="214.5"/>
<line id="XMLID_69_" class="st1" x1="330.6" y1="230.8" x2="383.9" y2="230.8"/>
<line id="XMLID_68_" class="st1" x1="319.7" y1="250.5" x2="372.8" y2="250.5"/>
<line id="XMLID_67_" class="st1" x1="316.6" y1="269.2" x2="359.3" y2="269.2"/>
<line id="XMLID_66_" class="st1" x1="316.6" y1="287.2" x2="348.8" y2="287.2"/>
<line id="XMLID_65_" class="st1" x1="314.8" y1="316.2" x2="334.7" y2="316.2"/>
<line id="XMLID_64_" class="st1" x1="311.7" y1="334.7" x2="321.9" y2="334.7"/>
<path id="XMLID_63_" class="st2" d="M342.8,79.9c-6.7,0-12.2,17.8-12.2,39.8c0,22,5.4,39.8,12.2,39.8l77.4,3.5V64.4L342.8,79.9z"/>
<path id="XMLID_62_" class="st3" d="M415.5,64.7c0,0-210.4,68.5-226.6,74.8c-30.9,10.1-122.3,135-40.3,261.3
	c5.6,11.4,39.8,42.2,60.3,39.5c3.7,0.1,36.9,8.7,81.8-50.3c0,0,47.5-76.2,61-97.5c45.1-71.3,82.3-133.3,82.3-133.3l-18.6,4
	l-41.3-2.1l-59.9,93.3c0,0-93.7,181.1-103.6,186.4c-139-6-155.2-95.3-156.9-168c-0.4-16.7,6.9-45,15.4-62.9
	c24.3-51.1,75.8-79.5,102.6-86c27.2-6.6,169.4-44.7,169.4-44.7L415.5,64.7z"/>
<path id="XMLID_61_" class="st4" d="M316.6,287.2c0,84.8-45,153.5-100.4,153.5c-55.5,0-102.7-68.7-102.7-153.5
	c0-81.2,47.2-153.5,102.7-153.5C271.6,133.7,316.6,202.4,316.6,287.2z"/>
<ellipse id="XMLID_60_" class="st3" cx="218.4" cy="290.4" rx="84.1" ry="136.2"/>
<ellipse id="XMLID_59_" class="st5" cx="222" cy="291" rx="80.5" ry="127.9"/>
<ellipse id="XMLID_58_" class="st6" cx="222.8" cy="285.9" rx="58.6" ry="87.6"/>
<ellipse id="XMLID_57_" class="st7" cx="230.8" cy="285.9" rx="50.6" ry="87.6"/>
<ellipse id="XMLID_56_" class="st3" cx="229.1" cy="290.4" rx="10.7" ry="21.1"/>
<path id="XMLID_37_" class="st7" d="M452.2,113.2c0,27.6-13.3,49.9-29.8,49.9c-16.4,0-29.8-22.3-29.8-49.9
	c0-27.6,13.3-49.9,29.8-49.9C438.9,63.3,452.2,85.6,452.2,113.2z"/>
<ellipse id="XMLID_36_" class="st3" cx="422.8" cy="112.1" rx="7.3" ry="11.8"/>
<line id="XMLID_35_" class="st8" x1="334.7" y1="100.4" x2="383.9" y2="100.4"/>
<line id="XMLID_34_" class="st8" x1="334.7" y1="129.4" x2="383.9" y2="129.4"/>
<line id="XMLID_33_" class="st8" x1="345.4" y1="150.4" x2="389.9" y2="150.4"/>
<line id="XMLID_32_" class="st8" x1="351.8" y1="85.4" x2="389.9" y2="85.4"/>
<line id="XMLID_31_" class="st8" x1="370.8" y1="167.9" x2="420.2" y2="167.9"/>
<line id="XMLID_30_" class="st8" x1="362.1" y1="183.3" x2="413" y2="183.3"/>
<line id="XMLID_29_" class="st8" x1="351.8" y1="198.3" x2="402.7" y2="198.3"/>
<line id="XMLID_28_" class="st8" x1="342.8" y1="214.5" x2="389.9" y2="214.5"/>
<line id="XMLID_27_" class="st8" x1="330.6" y1="230.8" x2="383.9" y2="230.8"/>
<line id="XMLID_26_" class="st8" x1="319.7" y1="250.5" x2="372.8" y2="250.5"/>
<line id="XMLID_25_" class="st8" x1="316.6" y1="269.2" x2="359.3" y2="269.2"/>
<line id="XMLID_24_" class="st8" x1="316.6" y1="287.2" x2="348.8" y2="287.2"/>
<line id="XMLID_23_" class="st8" x1="314.8" y1="316.2" x2="334.7" y2="316.2"/>
<line id="XMLID_20_" class="st8" x1="311.7" y1="334.7" x2="321.9" y2="334.7"/>
</svg>
