<?xml version="1.0" encoding="utf-8"?>
<!-- Generator: Adobe Illustrator 19.0.0, SVG Export Plug-In . SVG Version: 6.00 Build 0)  -->
<svg version="1.1" id="Camada_1" xmlns="http://www.w3.org/2000/svg" xmlns:xlink="http://www.w3.org/1999/xlink" x="0px" y="0px"
	 viewBox="0 0 500 500" style="enable-background:new 0 0 500 500;" xml:space="preserve">
<style type="text/css">
	.st0{fill:#1D1D1B;stroke:#1D1D1B;stroke-width:5.8487;stroke-linejoin:round;stroke-miterlimit:10;}
	.st1{fill:#D9D9D9;stroke:#1D1D1B;stroke-width:1.9496;stroke-linejoin:round;stroke-miterlimit:10;}
	.st2{fill:#F5F5F5;}
	.st3{fill:none;stroke:#1D1D1B;stroke-width:1.9496;stroke-linejoin:round;stroke-miterlimit:10;}
	.st4{fill:#E84E1B;stroke:#1D1D1B;stroke-width:1.9496;stroke-linejoin:round;stroke-miterlimit:10;}
	.st5{fill:#A53B0E;}
	.st6{fill:#6F6F6E;stroke:#1D1D1B;stroke-width:1.9496;stroke-linejoin:round;stroke-miterlimit:10;}
	.st7{fill:#9C9B9B;}
	.st8{fill:#B1B1B1;stroke:#1D1D1B;stroke-width:1.9496;stroke-linejoin:round;stroke-miterlimit:10;}
	.st9{fill:#1D1D1B;stroke:#1D1D1B;stroke-width:1.9496;stroke-linejoin:round;stroke-miterlimit:10;}
</style>
<g id="XMLID_78_">
	<rect id="XMLID_76_" x="212.2" y="139.2" class="st0" width="55.9" height="200.5"/>
	<path id="XMLID_72_" class="st0" d="M434.6,139.2h-57.2c-8.6-13.3-18.9-21.2-30.1-21.2h-37.9h-11.3h-58.3l-8.6,7.5
		c-0.5-0.6-1.1-1.2-1.7-1.8c0,0,0-0.1,0-0.1c-6.7-6.7-15.2-10.4-29.8-10.4h-41.3h-13h-1.6c-12.6,0-24.3,9.7-33.6,25.9H66.9
		c-24.3,0-44,44.9-44,100.3c0,55.4,19.7,100.3,44,100.3h43.3c9.3,16.2,21,25.9,33.6,25.9h1.6h9.4h52.5c10,0,18.2-4.7,25-12.2l6,7.4
		h59.7h21.5h27.7c11.1,0,21.5-7.8,30-21.1h57.3c24.3,0,44-44.9,44-100.3C478.6,184.1,458.9,139.2,434.6,139.2z M260.8,152.8
		c-2.6,5.7-4.9,11.9-6.9,18.7c-1.6-5.6-3.8-12.1-6.5-18.7H260.8z M240.6,341.6c0.6-0.9,1.2-2.1,1.9-3.5c3.7-7.3,6.7-15.5,9.1-24.1
		c0-0.1,0-0.2,0.1-0.2c0,0,0,0,0,0c0.7-2.5,1.4-5,2-7.5c3.1,10.7,7,20.3,11.4,28.3h-13.3l-11.3,7.5
		C240.4,341.9,240.5,341.7,240.6,341.6L240.6,341.6z"/>
	<g id="XMLID_112_">
		<path id="XMLID_71_" class="st1" d="M66.9,139.2h83.3v200.5H66.9c-24.3,0-44-44.9-44-100.3C22.8,184.1,42.5,139.2,66.9,139.2z"/>
		<path id="XMLID_70_" class="st1" d="M106.1,239.5c0,55.4,19.7,100.3,44,100.3c24.3,0,44-44.9,44-100.3c0-55.4-19.7-100.3-44-100.3
			C125.9,139.2,106.1,184.1,106.1,239.5z"/>
		<polygon id="XMLID_69_" class="st2" points="104.1,218.5 102.4,239.4 25.5,239.4 27.8,218.5 		"/>
		<polygon id="XMLID_68_" class="st2" points="102.2,244.5 102.8,249.6 26,249.6 24.9,244.5 		"/>
	</g>
	<g id="XMLID_95_">
		<path id="XMLID_67_" class="st3" d="M143.8,113.3h56l7.6,252.3h-63.6c-30.6,0-55.4-56.5-55.4-126.1
			C88.4,169.8,113.2,113.3,143.8,113.3z"/>
		<path id="XMLID_66_" class="st4" d="M158.5,113.3c-15,0-37,29.9-37,47.1c17.9,0.7,41.8,2.7,41.8,2.7l13.2,40.7l-3.4,7.8L153,215
			l-44-1.5c0,0-5.8,6.9-5.8,45.4c0,37.7,11.2,51.6,11.2,51.6h47.2l14.9-21.9l6.4,11.5l-8,41.6l-40.9,1.9c0,0,13.7,21.9,20.7,21.9
			c16.3,0,38.9,0,52.5,0c53,0,55.4-130,55.4-130l-21.9-11.3l-33.5-1.9l-3.6-13.8l37.6,2.9l16.8-22.3c0,0-7.6-44.4-28.8-65.6
			c-5.3,15.7-10.9,36.3-10.9,36.3l-12.5-5.1l-6.2-41.6C199.8,113.3,174.1,113.3,158.5,113.3z"/>
		<path id="XMLID_65_" class="st5" d="M232.9,247.5c0,54.8-33.1,94.3-57.9,94.3c-6.4-18.1-24.7-39.5-24.7-94.3
			c0-54.8,20.1-99.3,45-99.3C220.1,148.2,232.9,192.7,232.9,247.5z"/>
		<path id="XMLID_64_" class="st6" d="M214.4,246.1c0,35.3-10.9,63.8-24.4,63.8c-13.5,0-24.4-28.6-24.4-63.8
			c0-35.3,10.9-63.8,24.4-63.8C203.5,182.2,214.4,210.8,214.4,246.1z"/>
		<path id="XMLID_63_" class="st1" d="M175.7,290.2l-2.2,2.8l-11.9,17.5h-16.2h-31.1c0,0-11.2-13.9-11.2-51.6
			c0-38.5,5.8-45.4,5.8-45.4l36.4,1.2l7.6,0.2l16.3-2.8l3.8-0.6l3.4-8.6l-2.2-5.8l-11.1-34c0,0-7.8-0.7-17.8-1.3
			c-7.5-0.5-16.3-1.1-24-1.3c0-12.6,11.8-32,24-41.5c4.5-3.5,9-5.7,13-5.7h-13h-1.6c-30.6,0-55.4,56.5-55.4,126.1
			c0,69.7,24.8,126.1,55.4,126.1h1.6h9.4c-2.6,0-6-2.9-9.4-6.6c-5.8-6.4-11.3-15.3-11.3-15.3l11.3-0.5l29.5-1.4l6.8-35.6l1.2-6
			L175.7,290.2z"/>
		<g id="XMLID_103_">
			<path id="XMLID_62_" class="st1" d="M218.6,159.9c0,0,5.6-20.6,10.9-36.3c-6.7-6.7-15.2-10.4-29.8-10.4l6.2,41.6l-13.4,31
				l7.6,4.6L218.6,159.9z"/>
			<path id="XMLID_61_" class="st1" d="M227.6,283.4l-10.4-1.9l0,0l-0.4-0.1l-8.1-1.4l-3.5,9.2l16.6,7.2l18.9,45.1
				c3.4-5.5,9.1-21.5,11-27.8C238.7,298.8,227.6,283.4,227.6,283.4z"/>
			<path id="XMLID_60_" class="st1" d="M258.4,189.2l-27.6,20.3l-24.2-0.4l2.4,13.7l20.8,0.8l33,11.9
				C262.3,221.6,260.7,201.6,258.4,189.2z"/>
		</g>
		<polygon id="XMLID_59_" class="st7" points="162.6,163.8 153.2,213.8 172.5,210.8 175.7,203.1 		"/>
		<polygon id="XMLID_58_" class="st7" points="207.7,210 209.8,222.1 229.9,222.8 230.7,210.7 		"/>
		<polygon id="XMLID_57_" class="st7" points="206.1,288.8 209,281.1 227,284.3 222.4,295.7 		"/>
		<polygon id="XMLID_56_" class="st7" points="207,154.6 217.7,159.3 199.8,189.2 193.7,185.8 		"/>
		<g id="XMLID_96_">
			<path id="XMLID_37_" class="st1" d="M108.7,188.1c-0.9,4,1.8,7.2,5.9,7.2c4.1,0,8.1-3.2,9-7.2c0.9-4-1.8-7.2-5.9-7.2
				C113.6,181,109.5,184.2,108.7,188.1z"/>
			<path id="XMLID_36_" class="st1" d="M112.9,188.1c-0.4,1.7,0.8,3.1,2.5,3.1c1.8,0,3.5-1.4,3.8-3.1c0.4-1.7-0.8-3.1-2.5-3.1
				C115,185.1,113.3,186.5,112.9,188.1z"/>
		</g>
	</g>
	<g id="XMLID_79_">
		<polygon id="XMLID_35_" class="st1" points="286.9,334.6 251.6,334.6 229.2,349.4 244.8,357.3 287.3,357.3 		"/>
		<polygon id="XMLID_34_" class="st1" points="269.2,152.8 237.6,152.8 229.2,127.3 254.6,121.7 287.3,121.7 		"/>
		<path id="XMLID_33_" class="st1" d="M212.2,277.4v-69.5h34.4c4.3-36.5,15.9-66.2,31-80.6h-48.5l10.6-9.3h58.3h11.3h37.9v242.7
			h-27.7h-21.5h-59.7l-9.2-11.4h46.3c-13.1-14-23.3-39.8-28-71.5C238.5,277.9,212.2,277.4,212.2,277.4z"/>
		<path id="XMLID_32_" class="st8" d="M294,239.5c0,67,23.9,121.4,53.3,121.4c29.4,0,53.3-54.3,53.3-121.4
			c0-67-23.9-121.4-53.3-121.4C317.8,118.1,294,172.4,294,239.5z"/>
		<path id="XMLID_31_" class="st1" d="M351.3,139.2h83.3v200.5h-83.3c-24.3,0-44-44.9-44-100.3C307.2,184.1,326.9,139.2,351.3,139.2
			z"/>
		<path id="XMLID_30_" class="st1" d="M390.5,239.5c0,55.4,19.7,100.3,44,100.3c24.3,0,44-44.9,44-100.3c0-55.4-19.7-100.3-44-100.3
			C410.3,139.2,390.5,184.1,390.5,239.5z"/>
		<path id="XMLID_29_" class="st9" d="M413.7,241.2c0,33.6,9.8,60.9,21.8,60.9c12,0,21.8-27.2,21.8-60.9c0-33.6-9.8-60.9-21.8-60.9
			C423.4,180.4,413.7,207.6,413.7,241.2z"/>
		<polygon id="XMLID_28_" class="st2" points="388.5,218.5 386.8,239.5 309.9,239.5 312.2,218.5 		"/>
		<polygon id="XMLID_27_" class="st2" points="280,220.4 277.9,245.8 236.5,245.8 239.3,220.4 		"/>
		<polygon id="XMLID_26_" class="st2" points="386.6,244.6 387.2,249.6 310.4,249.6 309.3,244.6 		"/>
		<polygon id="XMLID_25_" class="st2" points="277.5,252 278.7,258.1 237.3,258.1 236.5,252 		"/>
		<path id="XMLID_24_" class="st7" d="M455.2,229.7c0,0,1.1,64.6-22.1,72C452.5,279.4,455.2,229.7,455.2,229.7z"/>
		<g id="XMLID_80_">
			<path id="XMLID_23_" class="st1" d="M276.7,166.3c-0.9,4,1.8,7.2,5.9,7.2c4.1,0,8.1-3.2,9-7.2c0.9-4-1.8-7.2-5.9-7.2
				C281.5,159.1,277.5,162.3,276.7,166.3z"/>
			<path id="XMLID_20_" class="st1" d="M280.9,166.3c-0.4,1.7,0.8,3.1,2.5,3.1c1.8,0,3.5-1.4,3.8-3.1c0.4-1.7-0.8-3.1-2.5-3.1
				C283,163.2,281.3,164.6,280.9,166.3z"/>
		</g>
	</g>
</g>
</svg>
