<?xml version="1.0" encoding="utf-8"?>
<!-- Generator: Adobe Illustrator 19.0.0, SVG Export Plug-In . SVG Version: 6.00 Build 0)  -->
<svg version="1.1" id="Camada_1" xmlns="http://www.w3.org/2000/svg" xmlns:xlink="http://www.w3.org/1999/xlink" x="0px" y="0px"
	 viewBox="0 0 500 500" style="enable-background:new 0 0 500 500;" xml:space="preserve">
<style type="text/css">
	.st0{fill:#1A171B;stroke:#1A171B;stroke-width:6.0823;stroke-miterlimit:10;}
	.st1{fill:#1A171B;stroke:#1A171B;stroke-width:6.0823;stroke-linejoin:round;stroke-miterlimit:10;}
	.st2{opacity:0.29;fill:#1A171B;stroke:#1A171B;stroke-width:6.0823;stroke-miterlimit:10;}
	.st3{opacity:0.39;fill:#1A171B;stroke:#1A171B;stroke-width:6.0823;stroke-miterlimit:10;}
	.st4{fill:#1A171B;stroke:#1A171B;stroke-width:2.0274;stroke-miterlimit:10;}
	.st5{fill:url(#XMLID_84_);stroke:#1A171B;stroke-width:2.0274;stroke-linejoin:round;stroke-miterlimit:10;}
	.st6{fill:#3D3D3F;stroke:#1A171B;stroke-width:2.0274;stroke-miterlimit:10;}
	.st7{fill:none;stroke:#1A171B;stroke-width:2.0274;stroke-miterlimit:10;}
	.st8{opacity:0.29;fill:#C5C6C8;}
	.st9{opacity:0.39;fill:none;stroke:#9B9C9E;stroke-width:2.0274;stroke-miterlimit:10;}
</style>
<g id="XMLID_83_">
	<path id="XMLID_79_" class="st0" d="M244.7,159.7c-90,0-162.9,39.7-162.9,88.6c0,48.9,72.9,88.6,162.9,88.6
		c90,0,162.9-39.7,162.9-88.6C407.6,199.4,334.6,159.7,244.7,159.7z M240.5,316.9c-76.1,0-137.7-29.3-137.7-65.3
		c0-36.1,61.7-65.4,137.7-65.4c76.1,0,137.7,29.3,137.7,65.4C378.2,287.6,316.5,316.9,240.5,316.9z"/>
	<path id="XMLID_78_" class="st1" d="M244.7,186.2c86.8,0,139.3,39.4,132.6,72.7l0,0c23.7-44.2-42.7-93.5-132.6-93.5
		c-90,0-144.1,24-144.1,73.9c0,1.8,0.8,5.9,2.4,16C97.9,218,157.8,186.2,244.7,186.2z"/>
	<path id="XMLID_75_" class="st0" d="M403.1,227.1c-1-2.8-2.3-5.6-3.8-8.4c8.4-16.8,26.7-55,22.1-58.8c-4.8-4-48.5,13.9-64.1,20.5
		c-6.4-3.5-13.3-6.6-20.6-9.5c-0.9-17.2-3.1-46-8.3-47.6c-6-1.9-34.8,24.2-45.4,34c-6.6-0.9-13.5-1.6-20.4-2.1
		c-7.6-13.4-26.4-45.2-32.5-44.3c-5.6,0.9-17.5,30.5-23.3,46c-4.8,0.6-9.5,1.3-14.1,2.2c-11-12-35-37.4-40.5-35.3
		c-5.5,2.1-10.7,35.9-12.8,51.5c-2.7,1.2-5.2,2.5-7.7,3.8c-13.8-8.2-49.4-28.5-53.6-24.8c-4.4,4,8.6,46.1,12.6,58.8
		c-1.4,2.1-2.7,4.3-3.8,6.5c-17,5.4-51.5,16.9-51.3,22.1c0.2,5.5,36.6,21.7,51.4,28.1c1.1,2,2.2,4,3.5,6
		c-10.7,17.8-30.9,52.8-26.8,56.7c5.1,4.9,63.9-16.9,72.4-20.1c1.1,0.5,2.2,1.1,3.4,1.6c2.1,17.9,6.8,51.4,12.3,52.5
		c5.4,1.1,26.5-22.7,38.3-36.7c5,0.9,10,1.8,15.2,2.4c5.3,14.8,19.8,53.5,26.1,53.3c6.5-0.2,26.1-38.7,32.5-51.6
		c1.5-0.1,3-0.2,4.4-0.3c7.8,14.3,29.4,53,35.6,51.7c7.3-1.4,22.4-58.6,23.7-63.7c1.6-0.5,3.2-1.1,4.8-1.7
		c12.4,8.9,48,33.9,53.2,30.3c5.1-3.5-0.6-43.7-2.9-59c2.9-2.7,5.6-5.4,8-8.2c13.8-2.7,70.7-14.2,70.9-20.8
		C461.8,256.5,420.4,235.5,403.1,227.1z M240.9,323.1c-82.2,0-148.8-33.3-148.8-74.5c0-41.1,66.6-74.5,148.8-74.5
		c82.2,0,148.8,33.3,148.8,74.5C389.7,289.8,323,323.1,240.9,323.1z"/>
	<path id="XMLID_72_" class="st0" d="M408.3,223.7c-1-2.8-2.3-5.6-3.8-8.3c8.4-16.6,26.7-54.5,22.1-58.3c-4.8-4-48.5,13.8-64,20.4
		c-6.4-3.4-13.3-6.6-20.6-9.4c-0.9-17.1-3.1-45.6-8.3-47.2c-6-1.8-34.8,24-45.4,33.7c-6.6-0.9-13.4-1.6-20.4-2
		c-7.6-13.3-26.4-44.8-32.4-43.9c-5.6,0.8-17.5,30.2-23.3,45.6c-4.8,0.6-9.5,1.3-14.1,2.1c-11-11.9-35-37.1-40.5-35
		c-5.5,2.1-10.7,35.6-12.8,51.1c-2.7,1.2-5.2,2.5-7.7,3.8c-13.8-8.1-49.4-28.3-53.6-24.5c-4.4,4,8.6,45.7,12.6,58.3
		c-1.4,2.1-2.7,4.2-3.8,6.4c-17,5.3-51.5,16.8-51.3,21.9c0.2,5.4,36.6,21.5,51.4,27.9c1.1,2,2.2,4,3.5,5.9
		c-10.7,17.6-30.9,52.3-26.8,56.2c5.1,4.8,63.9-16.8,72.4-20c1.1,0.5,2.2,1.1,3.4,1.6c2.1,17.8,6.8,50.9,12.3,52
		c5.4,1.1,26.4-22.5,38.3-36.4c5,0.9,10,1.8,15.2,2.4c5.3,14.7,19.8,53,26,52.8c6.4-0.2,26.1-38.4,32.4-51.1c1.5-0.1,3-0.2,4.4-0.3
		c7.8,14.2,29.4,52.5,35.5,51.3c7.3-1.4,22.4-58.1,23.7-63.1c1.6-0.5,3.2-1.1,4.8-1.7c12.4,8.9,48,33.6,53.1,30
		c5.1-3.5-0.6-43.3-2.9-58.5c2.9-2.6,5.6-5.4,8-8.2c13.8-2.7,70.6-14,70.8-20.6C467,252.9,425.6,232.1,408.3,223.7z M246.2,318.9
		c-82.1,0-148.7-33.1-148.7-73.8s66.6-73.8,148.7-73.8c82.1,0,143.4,36.6,143.4,77.4S328.3,318.9,246.2,318.9z"/>
	<line id="XMLID_71_" class="st0" x1="35.5" y1="241.9" x2="41.1" y2="238.4"/>
	<line id="XMLID_70_" class="st0" x1="63.7" y1="332.7" x2="69.2" y2="328.4"/>
	<line id="XMLID_69_" class="st0" x1="157.3" y1="362" x2="151.8" y2="366.6"/>
	<line id="XMLID_68_" class="st0" x1="236.8" y1="380.9" x2="231.5" y2="385.6"/>
	<line id="XMLID_67_" class="st0" x1="309.2" y1="380.8" x2="303.9" y2="385.5"/>
	<line id="XMLID_66_" class="st0" x1="390.8" y1="346" x2="385.6" y2="350.4"/>
	<line id="XMLID_65_" class="st0" x1="35.5" y1="241.9" x2="41.1" y2="238.4"/>
	<line id="XMLID_64_" class="st0" x1="78.1" y1="154.5" x2="83.6" y2="151.7"/>
	<line id="XMLID_63_" class="st0" x1="152.3" y1="123.9" x2="157.7" y2="121.4"/>
	<path id="XMLID_62_" class="st2" d="M90,301.1c0,0-17.7,28.1,0,18.9c17.7-9.1,29-15,29-15s-5.4-2.9-18.1,1.6
		c-6.3,11-10.9-8.7-10.9-8.7"/>
	<line id="XMLID_61_" class="st3" x1="279.8" y1="346" x2="295.5" y2="372.8"/>
	<path id="XMLID_58_" class="st4" d="M244.7,159.7c-90,0-162.9,39.7-162.9,88.6c0,48.9,72.9,88.6,162.9,88.6
		c90,0,162.9-39.7,162.9-88.6C407.6,199.4,334.6,159.7,244.7,159.7z M240.5,316.9c-76.1,0-137.7-29.3-137.7-65.3
		c0-36.1,61.7-65.4,137.7-65.4c76.1,0,137.7,29.3,137.7,65.4C378.2,287.6,316.5,316.9,240.5,316.9z"/>
	<linearGradient id="XMLID_84_" gradientUnits="userSpaceOnUse" x1="100.5877" y1="212.1096" x2="382.1416" y2="212.1096">
		<stop  offset="0" style="stop-color:#ECECED"/>
		<stop  offset="0.303" style="stop-color:#6F7072"/>
		<stop  offset="0.697" style="stop-color:#C5C6C8"/>
		<stop  offset="1" style="stop-color:#000000"/>
	</linearGradient>
	<path id="XMLID_57_" class="st5" d="M244.7,186.2c86.8,0,139.3,39.4,132.6,72.7l0,0c23.7-44.2-42.7-93.5-132.6-93.5
		c-90,0-144.1,24-144.1,73.9c0,1.8,0.8,5.9,2.4,16C97.9,218,157.8,186.2,244.7,186.2z"/>
	<path id="XMLID_36_" class="st6" d="M403.1,227.1c-1-2.8-2.3-5.6-3.8-8.4c8.4-16.8,26.7-55,22.1-58.8c-4.8-4-48.5,13.9-64.1,20.5
		c-6.4-3.5-13.3-6.6-20.6-9.5c-0.9-17.2-3.1-46-8.3-47.6c-6-1.9-34.8,24.2-45.4,34c-6.6-0.9-13.5-1.6-20.4-2.1
		c-7.6-13.4-26.4-45.2-32.5-44.3c-5.6,0.9-17.5,30.5-23.3,46c-4.8,0.6-9.5,1.3-14.1,2.2c-11-12-35-37.4-40.5-35.3
		c-5.5,2.1-10.7,35.9-12.8,51.5c-2.7,1.2-5.2,2.5-7.7,3.8c-13.8-8.2-49.4-28.5-53.6-24.8c-4.4,4,8.6,46.1,12.6,58.8
		c-1.4,2.1-2.7,4.3-3.8,6.5c-17,5.4-51.5,16.9-51.3,22.1c0.2,5.5,36.6,21.7,51.4,28.1c1.1,2,2.2,4,3.5,6
		c-10.7,17.8-30.9,52.8-26.8,56.7c5.1,4.9,63.9-16.9,72.4-20.1c1.1,0.5,2.2,1.1,3.4,1.6c2.1,17.9,6.8,51.4,12.3,52.5
		c5.4,1.1,26.5-22.7,38.3-36.7c5,0.9,10,1.8,15.2,2.4c5.3,14.8,19.8,53.5,26.1,53.3c6.5-0.2,26.1-38.7,32.5-51.6
		c1.5-0.1,3-0.2,4.4-0.3c7.8,14.3,29.4,53,35.6,51.7c7.3-1.4,22.4-58.6,23.7-63.7c1.6-0.5,3.2-1.1,4.8-1.7
		c12.4,8.9,48,33.9,53.2,30.3c5.1-3.5-0.6-43.7-2.9-59c2.9-2.7,5.6-5.4,8-8.2c13.8-2.7,70.7-14.2,70.9-20.8
		C461.8,256.5,420.4,235.5,403.1,227.1z M240.9,323.1c-82.2,0-148.8-33.3-148.8-74.5c0-41.1,66.6-74.5,148.8-74.5
		c82.2,0,148.8,33.3,148.8,74.5C389.7,289.8,323,323.1,240.9,323.1z"/>
	<path id="XMLID_33_" class="st6" d="M408.3,223.7c-1-2.8-2.3-5.6-3.8-8.3c8.4-16.6,26.7-54.5,22.1-58.3c-4.8-4-48.5,13.8-64,20.4
		c-6.4-3.4-13.3-6.6-20.6-9.4c-0.9-17.1-3.1-45.6-8.3-47.2c-6-1.8-34.8,24-45.4,33.7c-6.6-0.9-13.4-1.6-20.4-2
		c-7.6-13.3-26.4-44.8-32.4-43.9c-5.6,0.8-17.5,30.2-23.3,45.6c-4.8,0.6-9.5,1.3-14.1,2.1c-11-11.9-35-37.1-40.5-35
		c-5.5,2.1-10.7,35.6-12.8,51.1c-2.7,1.2-5.2,2.5-7.7,3.8c-13.8-8.1-49.4-28.3-53.6-24.5c-4.4,4,8.6,45.7,12.6,58.3
		c-1.4,2.1-2.7,4.2-3.8,6.4c-17,5.3-51.5,16.8-51.3,21.9c0.2,5.4,36.6,21.5,51.4,27.9c1.1,2,2.2,4,3.5,5.9
		c-10.7,17.6-30.9,52.3-26.8,56.2c5.1,4.8,63.9-16.8,72.4-20c1.1,0.5,2.2,1.1,3.4,1.6c2.1,17.8,6.8,50.9,12.3,52
		c5.4,1.1,26.4-22.5,38.3-36.4c5,0.9,10,1.8,15.2,2.4c5.3,14.7,19.8,53,26,52.8c6.4-0.2,26.1-38.4,32.4-51.1c1.5-0.1,3-0.2,4.4-0.3
		c7.8,14.2,29.4,52.5,35.5,51.3c7.3-1.4,22.4-58.1,23.7-63.1c1.6-0.5,3.2-1.1,4.8-1.7c12.4,8.9,48,33.6,53.1,30
		c5.1-3.5-0.6-43.3-2.9-58.5c2.9-2.6,5.6-5.4,8-8.2c13.8-2.7,70.6-14,70.8-20.6C467,252.9,425.6,232.1,408.3,223.7z M246.2,318.9
		c-82.1,0-148.7-33.1-148.7-73.8s66.6-73.8,148.7-73.8c82.1,0,143.4,36.6,143.4,77.4S328.3,318.9,246.2,318.9z"/>
	<line id="XMLID_32_" class="st7" x1="35.5" y1="241.9" x2="41.1" y2="238.4"/>
	<line id="XMLID_31_" class="st7" x1="63.7" y1="332.7" x2="69.2" y2="328.4"/>
	<line id="XMLID_30_" class="st7" x1="157.3" y1="362" x2="151.8" y2="366.6"/>
	<line id="XMLID_29_" class="st7" x1="236.8" y1="380.9" x2="231.5" y2="385.6"/>
	<line id="XMLID_28_" class="st7" x1="309.2" y1="380.8" x2="303.9" y2="385.5"/>
	<line id="XMLID_27_" class="st7" x1="390.8" y1="346" x2="385.6" y2="350.4"/>
	<line id="XMLID_26_" class="st7" x1="35.5" y1="241.9" x2="41.1" y2="238.4"/>
	<line id="XMLID_25_" class="st7" x1="78.1" y1="154.5" x2="83.6" y2="151.7"/>
	<line id="XMLID_24_" class="st7" x1="152.3" y1="123.9" x2="157.7" y2="121.4"/>
	<path id="XMLID_23_" class="st8" d="M90,301.1c0,0-17.7,28.1,0,18.9c17.7-9.1,29-15,29-15s-5.4-2.9-18.1,1.6
		c-6.3,11-10.9-8.7-10.9-8.7"/>
	<line id="XMLID_20_" class="st9" x1="279.8" y1="346" x2="295.5" y2="372.8"/>
</g>
</svg>
