<?xml version="1.0" encoding="utf-8"?>
<!-- Generator: Adobe Illustrator 19.0.0, SVG Export Plug-In . SVG Version: 6.00 Build 0)  -->
<svg version="1.1" id="Camada_1" xmlns="http://www.w3.org/2000/svg" xmlns:xlink="http://www.w3.org/1999/xlink" x="0px" y="0px"
	 viewBox="0 0 500 500" style="enable-background:new 0 0 500 500;" xml:space="preserve">
<style type="text/css">
	.st0{fill:#1D1D1B;stroke:#1D1D1B;stroke-width:5.8764;stroke-linejoin:round;stroke-miterlimit:10;}
	.st1{fill:#1D1D1B;stroke:#1D1D1B;stroke-width:1.9588;stroke-linejoin:round;stroke-miterlimit:10;}
	.st2{fill:#6F6F6E;stroke:#1D1D1B;stroke-width:1.9588;stroke-linejoin:round;stroke-miterlimit:10;}
	.st3{fill:#B1B1B1;}
</style>
<g id="XMLID_67_">
	<path id="XMLID_65_" class="st0" d="M411.6,171.1h-42.4V144c0-9.2-7.5-16.7-16.7-16.7h-21.7V124c0-6.9-5.6-12.4-12.5-12.4v-6.1
		c0-8.2-5.9-15-13.7-16.4v-0.3h-2.9c0,0,0,0,0,0h-28.1c0,0,0,0,0,0H257h-13h-16.6c0,0,0,0,0,0h-28.1c0,0,0,0,0,0h-2.9v0.3
		c-7.8,1.4-13.7,8.2-13.7,16.4v6.1c-6.7,0.2-12,5.7-12,12.4v3.4h-22.1c-9.2,0-16.7,7.5-16.7,16.7v27.1H89.4
		c-9.2,0-16.7,7.5-16.7,16.7v126.2c0,9.2,7.5,16.7,16.7,16.7h42.4v28.2c0,9.2,7.5,16.7,16.7,16.7h22.1v10.7
		c0,6.7,5.4,12.2,12.1,12.4c0.6,7.6,6.3,13.8,13.6,15.1v0.3h19.3H244h13h20h27.7v-0.3c7.4-1.3,13-7.5,13.6-15.1c0,0,0,0,0.1,0
		c6.9,0,12.5-5.6,12.5-12.5v-10.7h21.7c9.2,0,16.7-7.5,16.7-16.7v-28.2h42.4c9.2,0,16.7-7.5,16.7-16.7V187.7
		C428.3,178.5,420.8,171.1,411.6,171.1z"/>
	<rect id="XMLID_64_" x="215.6" y="88.8" class="st1" width="61.4" height="325.2"/>
	<path id="XMLID_63_" class="st2" d="M149.2,313.9c0,9.2-7.5,16.7-16.7,16.7H89.4c-9.2,0-16.7-7.5-16.7-16.7V187.7
		c0-9.2,7.5-16.7,16.7-16.7h43.1c9.2,0,16.7,7.5,16.7,16.7V313.9z"/>
	<path id="XMLID_62_" class="st2" d="M213.3,358.8c0,9.2-7.5,16.7-16.7,16.7h-48.1c-9.2,0-16.7-7.5-16.7-16.7V144
		c0-9.2,7.5-16.7,16.7-16.7h48.1c9.2,0,16.7,7.5,16.7,16.7V358.8z"/>
	<path id="XMLID_61_" class="st1" d="M170.6,145.4c0,6.9,5.6,12.5,12.4,12.5l0,0c6.9,0,12.5-5.6,12.5-12.5V124
		c0-6.9-5.6-12.4-12.5-12.4l0,0c-6.9,0-12.4,5.6-12.4,12.4V145.4z"/>
	<path id="XMLID_60_" class="st1" d="M170.6,264.9c0,6.9,5.6,12.5,12.4,12.5l0,0c6.9,0,12.5-5.6,12.5-12.5v-21.5
		c0-6.9-5.6-12.4-12.5-12.4l0,0c-6.9,0-12.4,5.6-12.4,12.4V264.9z"/>
	<path id="XMLID_59_" class="st1" d="M170.6,386.2c0,6.9,5.6,12.5,12.4,12.5l0,0c6.9,0,12.5-5.6,12.5-12.5v-21.5
		c0-6.9-5.6-12.4-12.5-12.4l0,0c-6.9,0-12.4,5.6-12.4,12.4V386.2z"/>
	<path id="XMLID_58_" class="st2" d="M227.4,88.8C227.4,88.8,227.4,88.8,227.4,88.8l-28.1,0c0,0,0,0,0,0h-2.9v0.3
		c-7.8,1.4-13.7,8.2-13.7,16.4v291.8c0,8.2,5.9,15,13.7,16.4v0.3H244v-16.7V105.5V88.8H227.4z"/>
	<path id="XMLID_57_" class="st2" d="M351.9,313.9c0,9.2,7.5,16.7,16.7,16.7h43.1c9.2,0,16.7-7.5,16.7-16.7V187.7
		c0-9.2-7.5-16.7-16.7-16.7h-43.1c-9.2,0-16.7,7.5-16.7,16.7V313.9z"/>
	<path id="XMLID_56_" class="st2" d="M287.7,358.8c0,9.2,7.5,16.7,16.7,16.7h48.1c9.2,0,16.7-7.5,16.7-16.7V144
		c0-9.2-7.5-16.7-16.7-16.7h-48.1c-9.2,0-16.7,7.5-16.7,16.7V358.8z"/>
	<path id="XMLID_37_" class="st1" d="M306,145.4c0,6.9,5.6,12.5,12.4,12.5l0,0c6.9,0,12.5-5.6,12.5-12.5V124
		c0-6.9-5.6-12.4-12.5-12.4l0,0c-6.9,0-12.4,5.6-12.4,12.4V145.4z"/>
	<path id="XMLID_36_" class="st1" d="M306,264.9c0,6.9,5.6,12.5,12.4,12.5l0,0c6.9,0,12.5-5.6,12.5-12.5v-21.5
		c0-6.9-5.6-12.4-12.5-12.4l0,0c-6.9,0-12.4,5.6-12.4,12.4V264.9z"/>
	<path id="XMLID_35_" class="st1" d="M306,386.2c0,6.9,5.6,12.5,12.4,12.5l0,0c6.9,0,12.5-5.6,12.5-12.5v-21.5
		c0-6.9-5.6-12.4-12.5-12.4l0,0c-6.9,0-12.4,5.6-12.4,12.4V386.2z"/>
	<path id="XMLID_34_" class="st2" d="M273.6,88.8C273.7,88.8,273.7,88.8,273.6,88.8l28.1,0c0,0,0,0,0,0h2.9v0.3
		c7.8,1.4,13.7,8.2,13.7,16.4v291.8c0,8.2-5.9,15-13.7,16.4v0.3H257v-16.7V105.5V88.8H273.6z"/>
	<rect id="XMLID_33_" x="188.8" y="200.6" class="st3" width="50.3" height="19.7"/>
	<rect id="XMLID_32_" x="188.8" y="226.8" class="st3" width="50.3" height="6.9"/>
	<rect id="XMLID_31_" x="262.6" y="200.6" class="st3" width="50.3" height="19.7"/>
	<rect id="XMLID_30_" x="262.6" y="226.8" class="st3" width="50.3" height="6.9"/>
	<rect id="XMLID_29_" x="377.4" y="202.1" class="st3" width="41.8" height="9.4"/>
	<rect id="XMLID_28_" x="377.4" y="214.8" class="st3" width="41.8" height="4.7"/>
	<rect id="XMLID_27_" x="82.1" y="202.1" class="st3" width="41.8" height="9.4"/>
	<rect id="XMLID_26_" x="82.1" y="214.8" class="st3" width="41.8" height="4.7"/>
	<rect id="XMLID_25_" x="321.6" y="193.4" class="st3" width="41.8" height="9.4"/>
	<rect id="XMLID_24_" x="321.6" y="206.1" class="st3" width="41.8" height="4.7"/>
	<rect id="XMLID_23_" x="136" y="193.4" class="st3" width="41.8" height="9.4"/>
	<rect id="XMLID_20_" x="136" y="206.1" class="st3" width="41.8" height="4.7"/>
</g>
</svg>
