<?xml version="1.0" encoding="utf-8"?>
<!-- Generator: Adobe Illustrator 19.0.0, SVG Export Plug-In . SVG Version: 6.00 Build 0)  -->
<svg version="1.1" id="Camada_1" xmlns="http://www.w3.org/2000/svg" xmlns:xlink="http://www.w3.org/1999/xlink" x="0px" y="0px"
	 viewBox="0 0 500 500" style="enable-background:new 0 0 500 500;" xml:space="preserve">
<style type="text/css">
	.st0{fill:#1A171B;stroke:#1A171B;stroke-width:9.1976;stroke-linejoin:round;stroke-miterlimit:10;}
	.st1{fill:#1A171B;stroke:#1A171B;stroke-width:9.1976;stroke-miterlimit:10;}
	.st2{opacity:0.31;fill:#1A171B;stroke:#1A171B;stroke-width:9.1976;stroke-miterlimit:10;}
	.st3{opacity:0.54;fill:#1A171B;stroke:#1A171B;stroke-width:9.1976;stroke-miterlimit:10;}
	.st4{fill:url(#XMLID_59_);stroke:#1A171B;stroke-width:3.0659;stroke-linejoin:round;stroke-miterlimit:10;}
	.st5{fill:#FFFFFF;stroke:#1A171B;stroke-width:3.0659;stroke-miterlimit:10;}
	.st6{fill:url(#XMLID_60_);stroke:#1A171B;stroke-width:3.0659;stroke-linejoin:round;stroke-miterlimit:10;}
	.st7{fill:none;stroke:#1A171B;stroke-width:3.0659;stroke-linejoin:round;stroke-miterlimit:10;}
	.st8{fill:#6F7072;stroke:#1A171B;stroke-width:3.0659;stroke-linejoin:round;stroke-miterlimit:10;}
	.st9{fill:#6F7072;}
	.st10{opacity:0.31;fill:#D8D9DA;}
	.st11{opacity:0.54;fill:#D8D9DA;}
	.st12{fill:#D8D9DA;}
</style>
<path id="XMLID_57_" class="st0" d="M168.2,336.1l-40,12.4l-10.8,3.3c0,0,119.1,114.7,261.9,51.7c50.1-22.4,97.8-97.4,68.3-184
	c-3.5-21.9-39.4-74.8-151.5-96.5c-112.1-21.7-185.6-4.2-197.8,3.7c-19.2,14-30.1,31.7-38.6,49.9c-21.9,46.8-14.2,97.1-14.2,97.1
	s7.5,85,47.4,97.4c4.5-1.8,32.5-12.3,32.5-12.3l-7.9-6.9l20.2-6.3l20.2-6.3c0,0-25.9-9.8-29.7-21.3c-6.6-19.8-14.4-44.6-15-53.8
	c-1.1-15.1,13.1-71,65.7-89.3c41.2-14,100.7-15.8,138.4,1.8c37.7,17.5,70.1,42,80.6,103.8c3.5,23.2-14.9,90.6-99.9,95.9
	C241.8,379.9,168.2,336.1,168.2,336.1z"/>
<path id="XMLID_56_" class="st1" d="M394,301.4c-14.9,29.8-55.1,57.4-140.3,57.4c-85.3,0-150.2-51.5-150.2-106.4
	c0-54.9,54-91.5,139.3-91.5c61,0,104,25.3,132.8,55.2C403,244.5,401,287.4,394,301.4z"/>
<path id="XMLID_37_" class="st0" d="M168.2,300.1l-50.3,15.6c0,0,118.6,114.9,261.4,51.8c20.1-7,90.2-59.6,68.3-148
	c-3.5-21.9-39.4-110.8-151.5-132.5C184,65.3,120,110.9,107.8,118.8C43.8,167.8,53.5,237,53.5,237s12.3,87.6,39.4,98.1
	c4.5-1.8,33.2-12.3,33.2-12.3l-8.2-7.2l19.7-6.1c0,0-23.3-65.1-24.6-81.3c-1.1-15.1,13.1-71,65.7-89.3c41.2-14,100.7-15.8,138.4,1.8
	c37.7,17.5,70.1,42,80.6,103.8c3.5,23.2-14.9,90.6-99.9,95.9C241.8,343.9,168.2,300.1,168.2,300.1z"/>
<line id="XMLID_36_" class="st0" x1="92.9" y1="335.1" x2="92.9" y2="371.1"/>
<polygon id="XMLID_35_" class="st0" points="117.9,315.7 117.4,351.8 150.7,341 130.6,326.5 "/>
<polygon id="XMLID_34_" class="st1" points="119,343 119,349.9 120.6,352.6 122.8,354.4 152.8,344.2 143.3,337.7 "/>
<path id="XMLID_33_" class="st2" d="M178.8,141.6c-7.4,3.7-15.5,7.1-16,9.8s72.3,0.2,94.5-15.6C240.1,122.2,186.2,138,178.8,141.6z"
	/>
<path id="XMLID_32_" class="st3" d="M242.8,384.2c-12.4-0.9-6.9,7.8-6.9,7.8s33.8,10.1,67.7,5.9c33.8-4.1,94.8-26.8,94.8-26.8
	S292.2,405.3,242.8,384.2z"/>
<path id="XMLID_31_" class="st1" d="M171.9,134.5c-6.4-4.6-7.8-5,8.2-15.1c16-10.1,137.5-17.7,148.5-0.3c11,17.4,12.1,26.7,1.1,24.4
	C294.5,120.3,221.7,115.8,171.9,134.5z"/>
<linearGradient id="XMLID_59_" gradientUnits="userSpaceOnUse" x1="202.7241" y1="426.4786" x2="301.8043" y2="79.2643">
	<stop  offset="9.696970e-002" style="stop-color:#58585A"/>
	<stop  offset="0.2606" style="stop-color:#868789"/>
	<stop  offset="0.3697" style="stop-color:#B0B2B3"/>
	<stop  offset="0.5394" style="stop-color:#58585A"/>
	<stop  offset="0.6788" style="stop-color:#868789"/>
	<stop  offset="0.8424" style="stop-color:#000000"/>
</linearGradient>
<path id="XMLID_30_" class="st4" d="M168.2,336.1l-40,12.4l-10.8,3.3c0,0,119.1,114.7,261.9,51.7c50.1-22.4,97.8-97.4,68.3-184
	c-3.5-21.9-39.4-74.8-151.5-96.5c-112.1-21.7-185.6-4.2-197.8,3.7c-19.2,14-30.1,31.7-38.6,49.9c-21.9,46.8-14.2,97.1-14.2,97.1
	s7.5,85,47.4,97.4c4.5-1.8,32.5-12.3,32.5-12.3l-7.9-6.9l20.2-6.3l20.2-6.3c0,0-25.9-9.8-29.7-21.3c-6.6-19.8-14.4-44.6-15-53.8
	c-1.1-15.1,13.1-71,65.7-89.3c41.2-14,100.7-15.8,138.4,1.8c37.7,17.5,70.1,42,80.6,103.8c3.5,23.2-14.9,90.6-99.9,95.9
	C241.8,379.9,168.2,336.1,168.2,336.1z"/>
<path id="XMLID_29_" class="st5" d="M394,301.4c-14.9,29.8-55.1,57.4-140.3,57.4c-85.3,0-150.2-51.5-150.2-106.4
	c0-54.9,54-91.5,139.3-91.5c61,0,104,25.3,132.8,55.2C403,244.5,401,287.4,394,301.4z"/>
<linearGradient id="XMLID_60_" gradientUnits="userSpaceOnUse" x1="252.3914" y1="83.7386" x2="252.3914" y2="381.5442">
	<stop  offset="9.696970e-002" style="stop-color:#D8D9DA"/>
	<stop  offset="0.297" style="stop-color:#B0B2B3"/>
	<stop  offset="0.6424" style="stop-color:#868789"/>
	<stop  offset="0.9212" style="stop-color:#D8D9DA"/>
</linearGradient>
<path id="XMLID_28_" class="st6" d="M168.2,300.1l-50.3,15.6c0,0,118.6,114.9,261.4,51.8c20.1-7,90.2-59.6,68.3-148
	c-3.5-21.9-39.4-110.8-151.5-132.5C184,65.3,120,110.9,107.8,118.8C43.8,167.8,53.5,237,53.5,237s12.3,87.6,39.4,98.1
	c4.5-1.8,33.2-12.3,33.2-12.3l-8.2-7.2l19.7-6.1c0,0-23.3-65.1-24.6-81.3c-1.1-15.1,13.1-71,65.7-89.3c41.2-14,100.7-15.8,138.4,1.8
	c37.7,17.5,70.1,42,80.6,103.8c3.5,23.2-14.9,90.6-99.9,95.9C241.8,343.9,168.2,300.1,168.2,300.1z"/>
<line id="XMLID_27_" class="st7" x1="92.9" y1="335.1" x2="92.9" y2="371.1"/>
<polygon id="XMLID_26_" class="st8" points="117.9,315.7 117.4,351.8 150.7,341 130.6,326.5 "/>
<polygon id="XMLID_25_" class="st9" points="119,343 119,349.9 120.6,352.6 122.8,354.4 152.8,344.2 143.3,337.7 "/>
<path id="XMLID_24_" class="st10" d="M178.8,141.6c-7.4,3.7-15.5,7.1-16,9.8s72.3,0.2,94.5-15.6C240.1,122.2,186.2,138,178.8,141.6z
	"/>
<path id="XMLID_23_" class="st11" d="M242.8,384.2c-12.4-0.9-6.9,7.8-6.9,7.8s33.8,10.1,67.7,5.9c33.8-4.1,94.8-26.8,94.8-26.8
	S292.2,405.3,242.8,384.2z"/>
<path id="XMLID_20_" class="st12" d="M171.9,134.5c-6.4-4.6-7.8-5,8.2-15.1c16-10.1,137.5-17.7,148.5-0.3
	c11,17.4,12.1,26.7,1.1,24.4C294.5,120.3,221.7,115.8,171.9,134.5z"/>
</svg>
