<?xml version="1.0" encoding="utf-8"?>
<!-- Generator: Adobe Illustrator 19.0.0, SVG Export Plug-In . SVG Version: 6.00 Build 0)  -->
<svg version="1.1" id="Camada_1" xmlns="http://www.w3.org/2000/svg" xmlns:xlink="http://www.w3.org/1999/xlink" x="0px" y="0px"
	 viewBox="0 0 500 500" style="enable-background:new 0 0 500 500;" xml:space="preserve">
<style type="text/css">
	.st0{fill:#1A171B;stroke:#1A171B;stroke-width:10.0003;stroke-linejoin:round;stroke-miterlimit:10;}
	.st1{fill:#1A171B;stroke:#1A171B;stroke-width:10.0003;stroke-miterlimit:10;}
	.st2{fill:#58585A;stroke:#1A171B;stroke-width:3.3334;stroke-linejoin:round;stroke-miterlimit:10;}
	.st3{fill:url(#XMLID_101_);stroke:#1A171B;stroke-width:1.6667;stroke-miterlimit:10;}
	.st4{fill:url(#XMLID_102_);stroke:#1A171B;stroke-width:1.6667;stroke-miterlimit:10;}
	.st5{fill:url(#XMLID_103_);stroke:#1A171B;stroke-width:1.6667;stroke-miterlimit:10;}
	.st6{fill:url(#XMLID_104_);stroke:#1A171B;stroke-width:1.6667;stroke-miterlimit:10;}
	.st7{fill:url(#XMLID_105_);stroke:#1A171B;stroke-width:1.6667;stroke-miterlimit:10;}
	.st8{fill:url(#XMLID_106_);stroke:#1A171B;stroke-width:1.6667;stroke-miterlimit:10;}
	.st9{fill:url(#XMLID_107_);stroke:#1A171B;stroke-width:1.6667;stroke-miterlimit:10;}
	.st10{fill:url(#XMLID_108_);stroke:#1A171B;stroke-width:1.6667;stroke-miterlimit:10;}
	.st11{fill:url(#XMLID_109_);stroke:#1A171B;stroke-width:1.6667;stroke-miterlimit:10;}
	.st12{fill:url(#XMLID_110_);stroke:#1A171B;stroke-width:1.6667;stroke-miterlimit:10;}
	.st13{fill:url(#XMLID_111_);stroke:#1A171B;stroke-width:1.6667;stroke-miterlimit:10;}
	.st14{fill:url(#XMLID_112_);stroke:#1A171B;stroke-width:1.6667;stroke-miterlimit:10;}
	.st15{fill:url(#XMLID_113_);stroke:#1A171B;stroke-width:3.3334;stroke-linejoin:round;stroke-miterlimit:10;}
	.st16{fill:url(#XMLID_114_);stroke:#1A171B;stroke-width:3.3334;stroke-linejoin:round;stroke-miterlimit:10;}
	.st17{fill:url(#XMLID_115_);stroke:#1A171B;stroke-width:3.3334;stroke-linejoin:round;stroke-miterlimit:10;}
	.st18{fill:url(#XMLID_116_);stroke:#1A171B;stroke-width:1.6667;stroke-miterlimit:10;}
	.st19{fill:url(#XMLID_117_);stroke:#1A171B;stroke-width:1.6667;stroke-miterlimit:10;}
	.st20{fill:url(#XMLID_118_);stroke:#1A171B;stroke-width:1.6667;stroke-miterlimit:10;}
	.st21{fill:url(#XMLID_119_);stroke:#1A171B;stroke-width:1.6667;stroke-miterlimit:10;}
	.st22{fill:url(#XMLID_120_);stroke:#1A171B;stroke-width:1.6667;stroke-miterlimit:10;}
	.st23{fill:url(#XMLID_121_);stroke:#1A171B;stroke-width:1.6667;stroke-miterlimit:10;}
	.st24{fill:url(#XMLID_122_);stroke:#1A171B;stroke-width:1.6667;stroke-miterlimit:10;}
	.st25{fill:url(#XMLID_123_);stroke:#1A171B;stroke-width:1.6667;stroke-miterlimit:10;}
	.st26{fill:none;stroke:#1A171B;stroke-width:3.3334;stroke-linejoin:round;stroke-miterlimit:10;}
	.st27{fill:#58585A;stroke:#1A171B;stroke-width:3.3334;stroke-miterlimit:10;}
	.st28{fill:url(#XMLID_124_);stroke:#1A171B;stroke-width:3.3334;stroke-miterlimit:10;}
	.st29{fill:url(#XMLID_125_);stroke:#1A171B;stroke-width:3.3334;stroke-miterlimit:10;}
</style>
<path id="XMLID_99_" class="st0" d="M424.1,463.6c-8.5-8.5-91.9-92.6-91.9-92.6l33-32.8c0,0,86.4,81.7,91.9,92.6
	C469.2,442.6,432.6,472.1,424.1,463.6z"/>
<path id="XMLID_98_" class="st1" d="M424.4,394.2c0.3,5.4-4.4,14.1-12.4,21.9c-7.9,7.8-16.7,12.3-22.1,12c0.1,1.5,0.5,2.8,1.4,3.7
	c4.1,4.2,15.7-0.5,25.8-10.5c10.2-10,15.1-21.5,10.9-25.6C427.2,394.7,425.9,394.3,424.4,394.2z"/>
<path id="XMLID_97_" class="st1" d="M417.1,386.8c0.2,5.5-4.6,14.3-12.6,22.2c-8,7.9-16.9,12.6-22.4,12.2c0.1,1.5,0.5,2.8,1.4,3.7
	c4.1,4.2,15.8-0.6,26.1-10.8c10.3-10.1,15.3-21.7,11.2-25.9C419.9,387.4,418.6,386.9,417.1,386.8z"/>
<path id="XMLID_96_" class="st1" d="M409.3,378.8c0.2,5.5-4.6,14.2-12.6,22.1c-8,7.9-16.9,12.5-22.4,12.2c0.1,1.5,0.5,2.8,1.4,3.7
	c4.1,4.2,15.8-0.6,26.1-10.7c10.3-10.1,15.3-21.7,11.2-25.9C412.1,379.4,410.8,378.9,409.3,378.8z"/>
<path id="XMLID_95_" class="st1" d="M446.6,416.9c0.4,5.4-4.2,13.9-11.9,21.4c-7.7,7.6-16.3,11.9-21.6,11.5c0.1,1.5,0.5,2.8,1.5,3.7
	c4.1,4.2,15.4-0.3,25.3-10c9.9-9.7,14.5-20.9,10.4-25.1C449.4,417.5,448.1,417,446.6,416.9z"/>
<path id="XMLID_94_" class="st1" d="M454.4,427.3c0.3,5.4-4.2,13.9-11.9,21.5c-7.7,7.6-16.3,12-21.7,11.6c0.1,1.5,0.5,2.8,1.5,3.7
	c4.1,4.2,15.5-0.3,25.4-10c9.9-9.7,14.6-21,10.5-25.2C457.1,428,455.9,427.5,454.4,427.3z"/>
<path id="XMLID_93_" class="st1" d="M439.6,409.2c0.3,5.4-4.4,14.1-12.3,21.8c-7.9,7.8-16.6,12.3-22,11.9c0.1,1.5,0.5,2.8,1.4,3.7
	c4.1,4.2,15.6-0.5,25.8-10.4c10.1-9.9,15-21.4,10.8-25.6C442.4,409.8,441.2,409.3,439.6,409.2z"/>
<path id="XMLID_92_" class="st1" d="M432.4,400.7c0.2,5.5-4.7,14.4-12.9,22.5c-8.2,8-17.2,12.8-22.7,12.5c0.1,1.5,0.5,2.8,1.4,3.8
	c4.1,4.2,16-0.8,26.4-11.1c10.5-10.3,15.6-22,11.5-26.2C435.2,401.2,433.9,400.8,432.4,400.7z"/>
<path id="XMLID_91_" class="st1" d="M402,371.5c0.2,5.4-4.5,14.2-12.5,22.1c-8,7.9-16.8,12.5-22.3,12.1c0.1,1.5,0.5,2.8,1.4,3.7
	c4.1,4.2,15.8-0.6,26-10.7c10.3-10.1,15.2-21.6,11.1-25.8C404.8,372,403.6,371.6,402,371.5z"/>
<path id="XMLID_90_" class="st1" d="M394.1,363.4c0.2,5.5-4.7,14.4-12.9,22.5c-8.2,8-17.2,12.8-22.7,12.5c0.1,1.5,0.5,2.8,1.4,3.8
	c4.1,4.2,16-0.8,26.4-11.1c10.5-10.3,15.6-22,11.5-26.2C396.9,364,395.6,363.5,394.1,363.4z"/>
<path id="XMLID_89_" class="st1" d="M386.8,356.1c0.2,5.5-4.8,14.5-13,22.5c-8.2,8.1-17.2,12.9-22.8,12.6c0,1.5,0.5,2.8,1.4,3.8
	c4.1,4.2,16-0.8,26.5-11.1c10.5-10.3,15.7-22.1,11.6-26.3C389.7,356.6,388.4,356.1,386.8,356.1z"/>
<path id="XMLID_88_" class="st1" d="M379,348.1c0.1,5.6-4.9,14.6-13.2,22.7c-8.3,8.2-17.4,13-23,12.8c0.1,1.5,0.5,2.9,1.4,3.8
	c4.1,4.2,16.1-0.9,26.7-11.3c10.6-10.4,15.9-22.3,11.8-26.5C381.8,348.6,380.6,348.2,379,348.1z"/>
<path id="XMLID_87_" class="st1" d="M371.6,340.7c0.1,5.6-4.9,14.6-13.3,22.8c-8.3,8.2-17.5,13.1-23,12.9c0,1.6,0.5,2.9,1.4,3.8
	c4.1,4.2,16.1-0.9,26.8-11.4c10.7-10.5,16-22.4,11.9-26.6C374.5,341.2,373.2,340.8,371.6,340.7z"/>
<polygon id="XMLID_86_" class="st0" points="293.8,325.6 71.4,126 108.6,85.3 325.4,289.3 "/>
<polygon id="XMLID_85_" class="st0" points="369.7,348.1 332.2,375.8 307,377.7 295.8,359.1 303.9,339.4 340.3,310.9 364.4,306 
	378.9,321.1 "/>
<polygon id="XMLID_84_" class="st0" points="354.8,329.1 320.5,355.6 296.8,359.3 303.9,339.4 341.8,310.2 365.5,306.4 "/>
<path id="XMLID_83_" class="st0" d="M319,346.5c0,0-60.3-45.2-59.2-52.4c9.5-3.8,32.5-17.2,32.6-35.9c0-1.7,52.7,49.4,56.9,58.5
	C348.2,329.1,319,346.5,319,346.5z"/>
<path id="XMLID_82_" class="st1" d="M344.4,310.9c0.4,5.3-3.9,13.6-11.4,21c-7.5,7.4-15.9,11.5-21.2,11c0.1,1.5,0.6,2.7,1.5,3.7
	c4.1,4.2,15.2,0,24.8-9.5c9.6-9.4,14-20.5,9.9-24.6C347.2,311.5,345.9,311,344.4,310.9z"/>
<path id="XMLID_81_" class="st1" d="M338.6,302.1c0.3,5.5-4.5,14.2-12.4,22c-8,7.8-16.8,12.4-22.2,12c0.1,1.5,0.5,2.8,1.4,3.7
	c4.1,4.2,15.7-0.5,25.9-10.6c10.2-10,15.1-21.5,11-25.7C341.4,302.7,340.1,302.3,338.6,302.1z"/>
<path id="XMLID_80_" class="st1" d="M330.8,294.2c0.3,5.4-4.3,14-12.1,21.7c-7.8,7.7-16.5,12.2-21.9,11.8c0.1,1.5,0.5,2.8,1.4,3.7
	c4.1,4.2,15.6-0.4,25.6-10.2c10-9.8,14.8-21.2,10.7-25.4C333.5,294.8,332.3,294.3,330.8,294.2z"/>
<path id="XMLID_79_" class="st1" d="M323.5,286.8c0.2,5.4-4.5,14.2-12.5,22.1c-8,7.9-16.8,12.5-22.3,12.1c0.1,1.5,0.5,2.8,1.4,3.7
	c4.1,4.2,15.8-0.6,26-10.7c10.3-10.1,15.2-21.6,11.1-25.8C326.3,287.4,325,286.9,323.5,286.8z"/>
<path id="XMLID_78_" class="st1" d="M315.5,278.8c0.2,5.5-4.7,14.4-12.9,22.5c-8.2,8-17.2,12.8-22.7,12.5c0.1,1.5,0.5,2.8,1.4,3.8
	c4.1,4.2,16-0.8,26.4-11.1c10.5-10.3,15.6-22,11.5-26.2C318.4,279.3,317.1,278.9,315.5,278.8z"/>
<path id="XMLID_77_" class="st1" d="M308.2,271.5c0.1,5.6-5.1,14.7-13.5,23.1c-8.5,8.3-17.7,13.3-23.3,13.1c0,1.6,0.4,2.9,1.3,3.8
	c4.1,4.2,16.2-1,27.1-11.7c10.8-10.6,16.3-22.7,12.2-26.9C311.1,272,309.8,271.5,308.2,271.5z"/>
<path id="XMLID_76_" class="st1" d="M300.4,263.5c0.1,5.6-5,14.7-13.5,23c-8.4,8.3-17.6,13.3-23.2,13.1c0,1.6,0.4,2.9,1.4,3.8
	c4.1,4.2,16.2-1,27-11.6c10.8-10.6,16.2-22.6,12.1-26.8C303.3,264,302,263.5,300.4,263.5z"/>
<path id="XMLID_75_" class="st1" d="M293.1,256.1c0.1,5.6-4.9,14.6-13.3,22.8c-8.3,8.2-17.5,13.1-23,12.9c0,1.6,0.5,2.9,1.4,3.8
	c4.1,4.2,16.1-0.9,26.8-11.4c10.7-10.5,16-22.4,11.9-26.6C295.9,256.6,294.6,256.1,293.1,256.1z"/>
<line id="XMLID_74_" class="st0" x1="320.7" y1="356.6" x2="333.8" y2="376.7"/>
<line id="XMLID_73_" class="st0" x1="354.8" y1="329.1" x2="369.7" y2="348.1"/>
<path id="XMLID_72_" class="st1" d="M145.8,52.4c0,0-2.1-4.7-3.8-5.5c-19.6-10-53.4,9.5-77.4,35.9c-26.1,28.7-43.8,62.8-32.3,81.3
	c1,1.6,4.9,4.6,7.6,4.5C50.1,170.1,153.5,72.1,145.8,52.4z"/>
<path id="XMLID_71_" class="st1" d="M136.1,110.9l-22.7,14.8L99.9,145l-2.6,4.2c0,0-42.6-6.2-35-14.4c1.5-1.4,7.6-6.7,12.1-11.8
	c4.7-5.3,9-12.5,15.5-18.7c6.9-6.5,12.5-14.1,18.6-19.1c7.4-6,12.4-13.8,13.1-13.7C122.2,70.8,135.5,70.7,136.1,110.9z"/>
<path id="XMLID_70_" class="st1" d="M142,46.9c-17.5-16.1-56.9,3.6-82.3,31.6c-27.6,30.3-44.9,69.5-27.4,85.6
	C36.6,171.9,148.4,51.7,142,46.9z"/>
<path id="XMLID_69_" class="st2" d="M424.1,463.6c-8.5-8.5-91.9-92.6-91.9-92.6l33-32.8c0,0,86.4,81.7,91.9,92.6
	C469.2,442.6,432.6,472.1,424.1,463.6z"/>
<linearGradient id="XMLID_101_" gradientUnits="userSpaceOnUse" x1="1629.567" y1="-168.1688" x2="1680.1034" y2="-168.1688" gradientTransform="matrix(0.7274 -0.7148 0.7613 0.7747 -663.5854 1729.3524)">
	<stop  offset="0.1212" style="stop-color:#3D3D3F"/>
	<stop  offset="0.3152" style="stop-color:#C5C6C8"/>
	<stop  offset="0.4061" style="stop-color:#B4B5B6"/>
	<stop  offset="0.9576" style="stop-color:#3D3D3F"/>
</linearGradient>
<path id="XMLID_68_" class="st3" d="M424.4,394.2c0.3,5.4-4.4,14.1-12.4,21.9c-7.9,7.8-16.7,12.3-22.1,12c0.1,1.5,0.5,2.8,1.4,3.7
	c4.1,4.2,15.7-0.5,25.8-10.5c10.2-10,15.1-21.5,10.9-25.6C427.2,394.7,425.9,394.3,424.4,394.2z"/>
<linearGradient id="XMLID_102_" gradientUnits="userSpaceOnUse" x1="1597.958" y1="-177.087" x2="1648.5016" y2="-177.087" gradientTransform="matrix(0.7387 -0.726 0.7613 0.7747 -659.6797 1724.7609)">
	<stop  offset="0.1212" style="stop-color:#3D3D3F"/>
	<stop  offset="0.3152" style="stop-color:#C5C6C8"/>
	<stop  offset="0.4061" style="stop-color:#B4B5B6"/>
	<stop  offset="0.9576" style="stop-color:#3D3D3F"/>
</linearGradient>
<path id="XMLID_67_" class="st4" d="M417.1,386.8c0.2,5.5-4.6,14.3-12.6,22.2c-8,7.9-16.9,12.6-22.4,12.2c0.1,1.5,0.5,2.8,1.4,3.7
	c4.1,4.2,15.8-0.6,26.1-10.8c10.3-10.1,15.3-21.7,11.2-25.9C419.9,387.4,418.6,386.9,417.1,386.8z"/>
<linearGradient id="XMLID_103_" gradientUnits="userSpaceOnUse" x1="1603.5071" y1="-187.5817" x2="1654.0519" y2="-187.5817" gradientTransform="matrix(0.7367 -0.724 0.7613 0.7747 -660.3029 1725.6469)">
	<stop  offset="0.1212" style="stop-color:#3D3D3F"/>
	<stop  offset="0.3152" style="stop-color:#C5C6C8"/>
	<stop  offset="0.4061" style="stop-color:#B4B5B6"/>
	<stop  offset="0.9576" style="stop-color:#3D3D3F"/>
</linearGradient>
<path id="XMLID_66_" class="st5" d="M409.3,378.8c0.2,5.5-4.6,14.2-12.6,22.1c-8,7.9-16.9,12.5-22.4,12.2c0.1,1.5,0.5,2.8,1.4,3.7
	c4.1,4.2,15.8-0.6,26.1-10.7c10.3-10.1,15.3-21.7,11.2-25.9C412.1,379.4,410.8,378.9,409.3,378.8z"/>
<linearGradient id="XMLID_104_" gradientUnits="userSpaceOnUse" x1="1690.8944" y1="-138.6531" x2="1741.4303" y2="-138.6531" gradientTransform="matrix(0.7065 -0.6943 0.7613 0.7747 -672.0581 1737.3666)">
	<stop  offset="0.1212" style="stop-color:#3D3D3F"/>
	<stop  offset="0.3152" style="stop-color:#C5C6C8"/>
	<stop  offset="0.4061" style="stop-color:#B4B5B6"/>
	<stop  offset="0.9576" style="stop-color:#3D3D3F"/>
</linearGradient>
<path id="XMLID_65_" class="st6" d="M446.6,416.9c0.4,5.4-4.2,13.9-11.9,21.4c-7.7,7.6-16.3,11.9-21.6,11.5c0.1,1.5,0.5,2.8,1.5,3.7
	c4.1,4.2,15.4-0.3,25.3-10c9.9-9.7,14.5-20.9,10.4-25.1C449.4,417.5,448.1,417,446.6,416.9z"/>
<linearGradient id="XMLID_105_" gradientUnits="userSpaceOnUse" x1="1680.5007" y1="-126.446" x2="1731.0342" y2="-126.446" gradientTransform="matrix(0.7093 -0.6971 0.7613 0.7747 -671.0733 1736.0146)">
	<stop  offset="0.1212" style="stop-color:#3D3D3F"/>
	<stop  offset="0.3152" style="stop-color:#C5C6C8"/>
	<stop  offset="0.4061" style="stop-color:#B4B5B6"/>
	<stop  offset="0.9576" style="stop-color:#3D3D3F"/>
</linearGradient>
<path id="XMLID_64_" class="st7" d="M454.4,427.3c0.3,5.4-4.2,13.9-11.9,21.5c-7.7,7.6-16.3,12-21.7,11.6c0.1,1.5,0.5,2.8,1.5,3.7
	c4.1,4.2,15.5-0.3,25.4-10c9.9-9.7,14.6-21,10.5-25.2C457.1,428,455.9,427.5,454.4,427.3z"/>
<linearGradient id="XMLID_106_" gradientUnits="userSpaceOnUse" x1="1640.3418" y1="-148.1587" x2="1690.8895" y2="-148.1587" gradientTransform="matrix(0.724 -0.7115 0.7613 0.7747 -665.6336 1731.0382)">
	<stop  offset="0.1212" style="stop-color:#3D3D3F"/>
	<stop  offset="0.3152" style="stop-color:#C5C6C8"/>
	<stop  offset="0.4061" style="stop-color:#B4B5B6"/>
	<stop  offset="0.9576" style="stop-color:#3D3D3F"/>
</linearGradient>
<path id="XMLID_63_" class="st8" d="M439.6,409.2c0.3,5.4-4.4,14.1-12.3,21.8c-7.9,7.8-16.6,12.3-22,11.9c0.1,1.5,0.5,2.8,1.4,3.7
	c4.1,4.2,15.6-0.5,25.8-10.4c10.1-9.9,15-21.4,10.8-25.6C442.4,409.8,441.2,409.3,439.6,409.2z"/>
<linearGradient id="XMLID_107_" gradientUnits="userSpaceOnUse" x1="1566.5991" y1="-158.6662" x2="1617.1434" y2="-158.6662" gradientTransform="matrix(0.7508 -0.7378 0.7613 0.7747 -654.7869 1720.6761)">
	<stop  offset="0.1212" style="stop-color:#3D3D3F"/>
	<stop  offset="0.3152" style="stop-color:#C5C6C8"/>
	<stop  offset="0.4061" style="stop-color:#B4B5B6"/>
	<stop  offset="0.9576" style="stop-color:#3D3D3F"/>
</linearGradient>
<path id="XMLID_62_" class="st9" d="M432.4,400.7c0.2,5.5-4.7,14.4-12.9,22.5c-8.2,8-17.2,12.8-22.7,12.5c0.1,1.5,0.5,2.8,1.4,3.8
	c4.1,4.2,16-0.8,26.4-11.1c10.5-10.3,15.6-22,11.5-26.2C435.2,401.2,433.9,400.8,432.4,400.7z"/>
<linearGradient id="XMLID_108_" gradientUnits="userSpaceOnUse" x1="1610.4005" y1="-197.3564" x2="1660.9509" y2="-197.3564" gradientTransform="matrix(0.7343 -0.7216 0.7613 0.7747 -661.1987 1726.8566)">
	<stop  offset="0.1212" style="stop-color:#3D3D3F"/>
	<stop  offset="0.3152" style="stop-color:#C5C6C8"/>
	<stop  offset="0.4061" style="stop-color:#B4B5B6"/>
	<stop  offset="0.9576" style="stop-color:#3D3D3F"/>
</linearGradient>
<path id="XMLID_61_" class="st10" d="M402,371.5c0.2,5.4-4.5,14.2-12.5,22.1c-8,7.9-16.8,12.5-22.3,12.1c0.1,1.5,0.5,2.8,1.4,3.7
	c4.1,4.2,15.8-0.6,26-10.7c10.3-10.1,15.2-21.6,11.1-25.8C404.8,372,403.6,371.6,402,371.5z"/>
<linearGradient id="XMLID_109_" gradientUnits="userSpaceOnUse" x1="1565.5656" y1="-207.8729" x2="1616.1057" y2="-207.8729" gradientTransform="matrix(0.7507 -0.7377 0.7613 0.7747 -654.6973 1720.6022)">
	<stop  offset="0.1212" style="stop-color:#3D3D3F"/>
	<stop  offset="0.3152" style="stop-color:#C5C6C8"/>
	<stop  offset="0.4061" style="stop-color:#B4B5B6"/>
	<stop  offset="0.9576" style="stop-color:#3D3D3F"/>
</linearGradient>
<path id="XMLID_60_" class="st11" d="M394.1,363.4c0.2,5.5-4.7,14.4-12.9,22.5c-8.2,8-17.2,12.8-22.7,12.5c0.1,1.5,0.5,2.8,1.4,3.8
	c4.1,4.2,16-0.8,26.4-11.1c10.5-10.3,15.6-22,11.5-26.2C396.9,364,395.6,363.5,394.1,363.4z"/>
<linearGradient id="XMLID_110_" gradientUnits="userSpaceOnUse" x1="1556.1565" y1="-217.0056" x2="1606.6995" y2="-217.0056" gradientTransform="matrix(0.7542 -0.7412 0.7613 0.7747 -653.5473 1718.9913)">
	<stop  offset="0.1212" style="stop-color:#3D3D3F"/>
	<stop  offset="0.3152" style="stop-color:#C5C6C8"/>
	<stop  offset="0.4061" style="stop-color:#B4B5B6"/>
	<stop  offset="0.9576" style="stop-color:#3D3D3F"/>
</linearGradient>
<path id="XMLID_59_" class="st12" d="M386.8,356.1c0.2,5.5-4.8,14.5-13,22.5c-8.2,8.1-17.2,12.9-22.8,12.6c0,1.5,0.5,2.8,1.4,3.8
	c4.1,4.2,16-0.8,26.5-11.1c10.5-10.3,15.7-22.1,11.6-26.3C389.7,356.6,388.4,356.1,386.8,356.1z"/>
<linearGradient id="XMLID_111_" gradientUnits="userSpaceOnUse" x1="1535.5173" y1="-227.0536" x2="1586.0598" y2="-227.0536" gradientTransform="matrix(0.7622 -0.7491 0.7613 0.7747 -650.8504 1716.0396)">
	<stop  offset="0.1212" style="stop-color:#3D3D3F"/>
	<stop  offset="0.3152" style="stop-color:#C5C6C8"/>
	<stop  offset="0.4061" style="stop-color:#B4B5B6"/>
	<stop  offset="0.9576" style="stop-color:#3D3D3F"/>
</linearGradient>
<path id="XMLID_58_" class="st13" d="M379,348.1c0.1,5.6-4.9,14.6-13.2,22.7c-8.3,8.2-17.4,13-23,12.8c0.1,1.5,0.5,2.9,1.4,3.8
	c4.1,4.2,16.1-0.9,26.7-11.3c10.6-10.4,15.9-22.3,11.8-26.5C381.8,348.6,380.6,348.2,379,348.1z"/>
<linearGradient id="XMLID_112_" gradientUnits="userSpaceOnUse" x1="1527.2751" y1="-236.9615" x2="1577.8287" y2="-236.9615" gradientTransform="matrix(0.7653 -0.7521 0.7613 0.7747 -649.2884 1714.8738)">
	<stop  offset="0.1212" style="stop-color:#3D3D3F"/>
	<stop  offset="0.3152" style="stop-color:#C5C6C8"/>
	<stop  offset="0.4061" style="stop-color:#B4B5B6"/>
	<stop  offset="0.9576" style="stop-color:#3D3D3F"/>
</linearGradient>
<path id="XMLID_57_" class="st14" d="M371.6,340.7c0.1,5.6-4.9,14.6-13.3,22.8c-8.3,8.2-17.5,13.1-23,12.9c0,1.6,0.5,2.9,1.4,3.8
	c4.1,4.2,16.1-0.9,26.8-11.4c10.7-10.5,16-22.4,11.9-26.6C374.5,341.2,373.2,340.8,371.6,340.7z"/>
<linearGradient id="XMLID_113_" gradientUnits="userSpaceOnUse" x1="453.6122" y1="389.1274" x2="393.2761" y2="457.2847" gradientTransform="matrix(1.0904 8.240000e-002 8.240000e-002 1.0751 -303.3737 -276.0958)">
	<stop  offset="0" style="stop-color:#58585A"/>
	<stop  offset="0.2121" style="stop-color:#C5C6C8"/>
	<stop  offset="0.503" style="stop-color:#6F7072"/>
	<stop  offset="0.8727" style="stop-color:#ECECED"/>
</linearGradient>
<polygon id="XMLID_56_" class="st15" points="293.8,325.6 71.4,126 108.6,85.3 325.4,289.3 "/>
<linearGradient id="XMLID_114_" gradientUnits="userSpaceOnUse" x1="-5925.3066" y1="-5183.1011" x2="-6153.2021" y2="-4925.6646" gradientTransform="matrix(0.3095 4.820000e-002 -0.23 0.3302 1028.2559 2311.7324)">
	<stop  offset="0" style="stop-color:#58585A"/>
	<stop  offset="0.2121" style="stop-color:#C5C6C8"/>
	<stop  offset="0.503" style="stop-color:#6F7072"/>
	<stop  offset="0.8727" style="stop-color:#ECECED"/>
</linearGradient>
<polygon id="XMLID_37_" class="st16" points="369.7,348.1 332.2,375.8 307,377.7 295.8,359.1 303.9,339.4 340.3,310.9 364.4,306 
	378.9,321.1 "/>
<linearGradient id="XMLID_115_" gradientUnits="userSpaceOnUse" x1="-15161.7461" y1="-10918.6152" x2="-15381.8984" y2="-10669.9258" gradientTransform="matrix(0.2264 -3.560000e-002 -0.2466 0.2585 1112.7402 2588.6514)">
	<stop  offset="0" style="stop-color:#58585A"/>
	<stop  offset="0.2121" style="stop-color:#C5C6C8"/>
	<stop  offset="0.503" style="stop-color:#6F7072"/>
	<stop  offset="0.8727" style="stop-color:#ECECED"/>
</linearGradient>
<polygon id="XMLID_36_" class="st17" points="354.8,329.1 320.5,355.6 296.8,359.3 303.9,339.4 341.8,310.2 365.5,306.4 "/>
<path id="XMLID_35_" class="st2" d="M319,346.5c0,0-60.3-45.2-59.2-52.4c9.5-3.8,32.5-17.2,32.6-35.9c0-1.7,52.7,49.4,56.9,58.5
	C348.2,329.1,319,346.5,319,346.5z"/>
<linearGradient id="XMLID_116_" gradientUnits="userSpaceOnUse" x1="1753.3973" y1="-274.4471" x2="1803.9318" y2="-274.4471" gradientTransform="matrix(0.6868 -0.6749 0.7613 0.7747 -679.4943 1744.9923)">
	<stop  offset="0.1212" style="stop-color:#3D3D3F"/>
	<stop  offset="0.3152" style="stop-color:#C5C6C8"/>
	<stop  offset="0.4061" style="stop-color:#B4B5B6"/>
	<stop  offset="0.9576" style="stop-color:#3D3D3F"/>
</linearGradient>
<path id="XMLID_34_" class="st18" d="M344.4,310.9c0.4,5.3-3.9,13.6-11.4,21c-7.5,7.4-15.9,11.5-21.2,11c0.1,1.5,0.6,2.7,1.5,3.7
	c4.1,4.2,15.2,0,24.8-9.5c9.6-9.4,14-20.5,9.9-24.6C347.2,311.5,345.9,311,344.4,310.9z"/>
<linearGradient id="XMLID_117_" gradientUnits="userSpaceOnUse" x1="1623.3218" y1="-283.5949" x2="1673.8593" y2="-283.5949" gradientTransform="matrix(0.7307 -0.7181 0.7613 0.7747 -662.4865 1727.821)">
	<stop  offset="0.1212" style="stop-color:#3D3D3F"/>
	<stop  offset="0.3152" style="stop-color:#C5C6C8"/>
	<stop  offset="0.4061" style="stop-color:#B4B5B6"/>
	<stop  offset="0.9576" style="stop-color:#3D3D3F"/>
</linearGradient>
<path id="XMLID_33_" class="st19" d="M338.6,302.1c0.3,5.5-4.5,14.2-12.4,22c-8,7.8-16.8,12.4-22.2,12c0.1,1.5,0.5,2.8,1.4,3.7
	c4.1,4.2,15.7-0.5,25.9-10.6c10.2-10,15.1-21.5,11-25.7C341.4,302.7,340.1,302.3,338.6,302.1z"/>
<linearGradient id="XMLID_118_" gradientUnits="userSpaceOnUse" x1="1659.7659" y1="-293.9926" x2="1710.3075" y2="-293.9926" gradientTransform="matrix(0.718 -0.7056 0.7613 0.7747 -667.3035 1732.7065)">
	<stop  offset="0.1212" style="stop-color:#3D3D3F"/>
	<stop  offset="0.3152" style="stop-color:#C5C6C8"/>
	<stop  offset="0.4061" style="stop-color:#B4B5B6"/>
	<stop  offset="0.9576" style="stop-color:#3D3D3F"/>
</linearGradient>
<path id="XMLID_32_" class="st20" d="M330.8,294.2c0.3,5.4-4.3,14-12.1,21.7c-7.8,7.7-16.5,12.2-21.9,11.8c0.1,1.5,0.5,2.8,1.4,3.7
	c4.1,4.2,15.6-0.4,25.6-10.2c10-9.8,14.8-21.2,10.7-25.4C333.5,294.8,332.3,294.3,330.8,294.2z"/>
<linearGradient id="XMLID_119_" gradientUnits="userSpaceOnUse" x1="1613.6024" y1="-303.6274" x2="1664.1516" y2="-303.6274" gradientTransform="matrix(0.7343 -0.7216 0.7613 0.7747 -661.1987 1726.8566)">
	<stop  offset="0.1212" style="stop-color:#3D3D3F"/>
	<stop  offset="0.3152" style="stop-color:#C5C6C8"/>
	<stop  offset="0.4061" style="stop-color:#B4B5B6"/>
	<stop  offset="0.9576" style="stop-color:#3D3D3F"/>
</linearGradient>
<path id="XMLID_31_" class="st21" d="M323.5,286.8c0.2,5.4-4.5,14.2-12.5,22.1c-8,7.9-16.8,12.5-22.3,12.1c0.1,1.5,0.5,2.8,1.4,3.7
	c4.1,4.2,15.8-0.6,26-10.7c10.3-10.1,15.2-21.6,11.1-25.8C326.3,287.4,325,286.9,323.5,286.8z"/>
<linearGradient id="XMLID_120_" gradientUnits="userSpaceOnUse" x1="1568.6965" y1="-314.1441" x2="1619.2367" y2="-314.1441" gradientTransform="matrix(0.7507 -0.7377 0.7613 0.7747 -654.6973 1720.6022)">
	<stop  offset="0.1212" style="stop-color:#3D3D3F"/>
	<stop  offset="0.3152" style="stop-color:#C5C6C8"/>
	<stop  offset="0.4061" style="stop-color:#B4B5B6"/>
	<stop  offset="0.9576" style="stop-color:#3D3D3F"/>
</linearGradient>
<path id="XMLID_30_" class="st22" d="M315.5,278.8c0.2,5.5-4.7,14.4-12.9,22.5c-8.2,8-17.2,12.8-22.7,12.5c0.1,1.5,0.5,2.8,1.4,3.8
	c4.1,4.2,16-0.8,26.4-11.1c10.5-10.3,15.6-22,11.5-26.2C318.4,279.3,317.1,278.9,315.5,278.8z"/>
<linearGradient id="XMLID_121_" gradientUnits="userSpaceOnUse" x1="1502.4542" y1="-323.384" x2="1553.0023" y2="-323.384" gradientTransform="matrix(0.7764 -0.763 0.7613 0.7747 -645.094 1710.8188)">
	<stop  offset="0.1212" style="stop-color:#3D3D3F"/>
	<stop  offset="0.3152" style="stop-color:#C5C6C8"/>
	<stop  offset="0.4061" style="stop-color:#B4B5B6"/>
	<stop  offset="0.9576" style="stop-color:#3D3D3F"/>
</linearGradient>
<path id="XMLID_29_" class="st23" d="M308.2,271.5c0.1,5.6-5.1,14.7-13.5,23.1c-8.5,8.3-17.7,13.3-23.3,13.1c0,1.6,0.4,2.9,1.3,3.8
	c4.1,4.2,16.2-1,27.1-11.7c10.8-10.6,16.3-22.7,12.2-26.9C311.1,272,309.8,271.5,308.2,271.5z"/>
<linearGradient id="XMLID_122_" gradientUnits="userSpaceOnUse" x1="1509.6215" y1="-333.9577" x2="1560.1648" y2="-333.9577" gradientTransform="matrix(0.7737 -0.7603 0.7613 0.7747 -646.2208 1712.2968)">
	<stop  offset="0.1212" style="stop-color:#3D3D3F"/>
	<stop  offset="0.3152" style="stop-color:#C5C6C8"/>
	<stop  offset="0.4061" style="stop-color:#B4B5B6"/>
	<stop  offset="0.9576" style="stop-color:#3D3D3F"/>
</linearGradient>
<path id="XMLID_28_" class="st24" d="M300.4,263.5c0.1,5.6-5,14.7-13.5,23c-8.4,8.3-17.6,13.3-23.2,13.1c0,1.6,0.4,2.9,1.4,3.8
	c4.1,4.2,16.2-1,27-11.6c10.8-10.6,16.2-22.6,12.1-26.8C303.3,264,302,263.5,300.4,263.5z"/>
<linearGradient id="XMLID_123_" gradientUnits="userSpaceOnUse" x1="1530.3494" y1="-343.2314" x2="1580.8999" y2="-343.2314" gradientTransform="matrix(0.7653 -0.7521 0.7613 0.7747 -649.2884 1714.8738)">
	<stop  offset="0.1212" style="stop-color:#3D3D3F"/>
	<stop  offset="0.3152" style="stop-color:#C5C6C8"/>
	<stop  offset="0.4061" style="stop-color:#B4B5B6"/>
	<stop  offset="0.9576" style="stop-color:#3D3D3F"/>
</linearGradient>
<path id="XMLID_27_" class="st25" d="M293.1,256.1c0.1,5.6-4.9,14.6-13.3,22.8c-8.3,8.2-17.5,13.1-23,12.9c0,1.6,0.5,2.9,1.4,3.8
	c4.1,4.2,16.1-0.9,26.8-11.4c10.7-10.5,16-22.4,11.9-26.6C295.9,256.6,294.6,256.1,293.1,256.1z"/>
<line id="XMLID_26_" class="st26" x1="320.7" y1="356.6" x2="333.8" y2="376.7"/>
<line id="XMLID_25_" class="st26" x1="354.8" y1="329.1" x2="369.7" y2="348.1"/>
<path id="XMLID_24_" class="st27" d="M145.8,52.4c0,0-2.1-4.7-3.8-5.5c-19.6-10-53.4,9.5-77.4,35.9c-26.1,28.7-43.8,62.8-32.3,81.3
	c1,1.6,4.9,4.6,7.6,4.5C50.1,170.1,153.5,72.1,145.8,52.4z"/>
<linearGradient id="XMLID_124_" gradientUnits="userSpaceOnUse" x1="70.1372" y1="147.7402" x2="140.0229" y2="81.3489">
	<stop  offset="0.1212" style="stop-color:#868789"/>
	<stop  offset="0.4242" style="stop-color:#D8D9DA"/>
	<stop  offset="0.6606" style="stop-color:#B4B5B6"/>
	<stop  offset="0.9576" style="stop-color:#3D3D3F"/>
</linearGradient>
<path id="XMLID_23_" class="st28" d="M136.1,110.9l-22.7,14.8L99.9,145l-2.6,4.2c0,0-42.6-6.2-35-14.4c1.5-1.4,7.6-6.7,12.1-11.8
	c4.7-5.3,9-12.5,15.5-18.7c6.9-6.5,12.5-14.1,18.6-19.1c7.4-6,12.4-13.8,13.1-13.7C122.2,70.8,135.5,70.7,136.1,110.9z"/>
<linearGradient id="XMLID_125_" gradientUnits="userSpaceOnUse" x1="95.5204" y1="113.2081" x2="38.0648" y2="60.6216">
	<stop  offset="0" style="stop-color:#8B8B8B"/>
	<stop  offset="0.2848" style="stop-color:#898A8C"/>
	<stop  offset="0.3212" style="stop-color:#868789"/>
	<stop  offset="0.7091" style="stop-color:#FFFFFF"/>
	<stop  offset="0.8727" style="stop-color:#C5C5C5"/>
</linearGradient>
<path id="XMLID_20_" class="st29" d="M142,46.9c-17.5-16.1-56.9,3.6-82.3,31.6c-27.6,30.3-44.9,69.5-27.4,85.6
	C36.6,171.9,148.4,51.7,142,46.9z"/>
</svg>
