<?xml version="1.0" encoding="utf-8"?>
<!-- Generator: Adobe Illustrator 19.0.0, SVG Export Plug-In . SVG Version: 6.00 Build 0)  -->
<svg version="1.1" id="Camada_1" xmlns="http://www.w3.org/2000/svg" xmlns:xlink="http://www.w3.org/1999/xlink" x="0px" y="0px"
	 viewBox="0 0 500 500" style="enable-background:new 0 0 500 500;" xml:space="preserve">
<style type="text/css">
	.st0{fill:#1A171B;stroke:#1A171B;stroke-width:7.3262;stroke-miterlimit:10;}
	.st1{fill:#1A171B;stroke:#1A171B;stroke-width:7.3262;stroke-linejoin:round;stroke-miterlimit:10;}
	.st2{opacity:0.41;fill:#1A171B;stroke:#1A171B;stroke-width:7.3262;stroke-miterlimit:10;}
	.st3{opacity:0.32;fill:#1A171B;stroke:#1A171B;stroke-width:7.3262;stroke-miterlimit:10;}
	.st4{opacity:0.37;fill:#1A171B;stroke:#1A171B;stroke-width:7.3262;stroke-miterlimit:10;}
	.st5{opacity:0.65;fill:#1A171B;stroke:#1A171B;stroke-width:7.3262;stroke-miterlimit:10;}
	.st6{fill:url(#XMLID_111_);stroke:#1A171B;stroke-width:1.8316;stroke-miterlimit:10;}
	.st7{fill:url(#XMLID_112_);stroke:#1A171B;stroke-width:1.8316;stroke-miterlimit:10;}
	.st8{fill:url(#XMLID_113_);stroke:#1A171B;stroke-width:1.8316;stroke-linejoin:round;stroke-miterlimit:10;}
	.st9{fill:#58585A;stroke:#1A171B;stroke-width:1.8316;stroke-linejoin:round;stroke-miterlimit:10;}
	.st10{fill:none;stroke:#1A171B;stroke-width:1.8316;stroke-linejoin:round;stroke-miterlimit:10;}
	.st11{fill:#C5C6C8;stroke:#1A171B;stroke-width:1.8316;stroke-miterlimit:10;}
	.st12{fill:#868789;stroke:#1A171B;stroke-width:1.8316;stroke-miterlimit:10;}
	.st13{fill:#6F7072;stroke:#1A171B;stroke-width:1.8316;stroke-miterlimit:10;}
	.st14{fill:#58585A;stroke:#1A171B;stroke-width:1.8316;stroke-miterlimit:10;}
	.st15{fill:#3D3D3F;stroke:#1A171B;stroke-width:1.8316;stroke-linejoin:round;stroke-miterlimit:10;}
	.st16{opacity:0.41;fill:#D8D9DA;}
	.st17{opacity:0.32;fill:#D8D9DA;}
	.st18{opacity:0.37;fill:#9B9C9E;}
	.st19{opacity:0.65;fill:#FFFFFF;}
	.st20{opacity:0.41;fill:#FFFFFF;}
</style>
<path id="XMLID_109_" class="st0" d="M104.6,98.2c-14.6-8.1-41.4-6.5-54.6,18.3c-14.3,26.9-3.7,47.2,10.6,55.6l139.6,95.6l57-109.8
	L104.6,98.2z"/>
<path id="XMLID_108_" class="st0" d="M179.5,127.5c-14.6-8.1-39.4,0-52.6,24.7c-14.3,26.9-7.9,61.2,6.4,69.6l71.3,48.7l62.6-109.9
	L179.5,127.5z"/>
<path id="XMLID_107_" class="st1" d="M330.2,143c-38.9-8-89.8,2.7-122.4,62.3c-32.3,59-26.1,120-12.2,130.8
	c13.9,10.8,100.4,58.6,100.4,58.6l133.5-212.1C429.5,182.5,369.1,151,330.2,143z"/>
<path id="XMLID_106_" class="st1" d="M333.5,143.6c-25.9-5.7-70.7,19.7-99.5,75.1c-28.5,54.9-33.5,123,1.9,142.7l72.9,41.5
	l122.7-210.3C431.5,192.5,404.3,159.2,333.5,143.6z"/>
<line id="XMLID_105_" class="st1" x1="382.1" y1="165.8" x2="315.5" y2="143.8"/>
<line id="XMLID_104_" class="st1" x1="301.6" y1="148.6" x2="358.1" y2="168.1"/>
<line id="XMLID_103_" class="st1" x1="291.7" y1="153.7" x2="344.8" y2="172.1"/>
<line id="XMLID_102_" class="st1" x1="280.2" y1="161.6" x2="329.8" y2="179.2"/>
<line id="XMLID_101_" class="st1" x1="275.3" y1="373.1" x2="223.5" y2="350.6"/>
<line id="XMLID_100_" class="st1" x1="265" y1="353.7" x2="214.8" y2="332.9"/>
<line id="XMLID_99_" class="st1" x1="258.3" y1="328.1" x2="211.5" y2="316.9"/>
<line id="XMLID_98_" class="st1" x1="316.9" y1="187.2" x2="270.1" y2="170.2"/>
<line id="XMLID_97_" class="st1" x1="305.8" y1="196.3" x2="261.6" y2="178.7"/>
<line id="XMLID_96_" class="st1" x1="297.7" y1="204.3" x2="254.1" y2="187.5"/>
<line id="XMLID_95_" class="st1" x1="288.3" y1="215.4" x2="245.4" y2="198.7"/>
<line id="XMLID_94_" class="st1" x1="281.5" y1="225.2" x2="239.9" y2="208.4"/>
<line id="XMLID_93_" class="st1" x1="275.3" y1="235.9" x2="233.4" y2="219.8"/>
<line id="XMLID_92_" class="st1" x1="270.1" y1="246.7" x2="228.1" y2="231"/>
<line id="XMLID_91_" class="st1" x1="265" y1="260" x2="222.8" y2="244"/>
<line id="XMLID_90_" class="st1" x1="261.6" y1="271.5" x2="218.3" y2="257.6"/>
<line id="XMLID_89_" class="st1" x1="259" y1="284.6" x2="214.8" y2="270.5"/>
<line id="XMLID_88_" class="st1" x1="257.2" y1="298.8" x2="211.7" y2="286.2"/>
<line id="XMLID_87_" class="st1" x1="257.9" y1="313.3" x2="210.9" y2="300.3"/>
<path id="XMLID_86_" class="st0" d="M460.2,327.1c-25.2,65.5-88.7,102.1-141.9,81.6c-53.2-20.5-76-90.1-50.8-155.6
	c25.2-65.5,88.7-102.1,141.9-81.6C462.6,191.9,485.3,261.6,460.2,327.1z"/>
<path id="XMLID_85_" class="st0" d="M459.2,329.7c-23.5,61.2-81.5,95.9-129.5,77.5c-48-18.4-67.8-83-44.3-144.2
	c23.5-61.2,81.5-95.9,129.5-77.5C462.9,203.9,482.7,268.5,459.2,329.7z"/>
<path id="XMLID_84_" class="st0" d="M437.8,320.9c-16.4,42.8-60,65.8-97.3,51.5c-37.3-14.3-54.2-60.6-37.8-103.4
	c16.4-42.8,60-65.8,97.3-51.5C437.3,231.8,454.2,278.1,437.8,320.9z"/>
<polygon id="XMLID_83_" class="st0" points="404.3,361.9 337.7,369.7 299.9,313.1 341.4,233.7 410.4,223.4 442.4,279.5 "/>
<polygon id="XMLID_82_" class="st0" points="363.4,320.4 314.9,336.1 299.9,313.1 341.4,233.7 364.6,233.1 389.7,261.8 "/>
<polygon id="XMLID_81_" class="st1" points="408.1,353.7 363.4,320.4 389.7,261.8 439.2,286.4 "/>
<polygon id="XMLID_80_" class="st1" points="390.8,262.4 325.6,264.6 316.9,281.3 363.4,320.4 "/>
<rect id="XMLID_79_" x="90.9" y="106.7" transform="matrix(0.9123 0.4094 -0.4094 0.9123 54.6424 -38.3169)" class="st2" width="51.8" height="3.5"/>
<rect id="XMLID_78_" x="75.2" y="110.6" transform="matrix(0.906 0.4233 -0.4233 0.906 57.6136 -35.9372)" class="st3" width="69.1" height="2.2"/>
<rect id="XMLID_77_" x="120.8" y="228.6" transform="matrix(0.8186 0.5743 -0.5743 0.8186 161.1493 -48.3253)" class="st4" width="72.5" height="4.8"/>
<path id="XMLID_76_" class="st5" d="M276,254.1c-3,7.4,3.3,14,10.1,0c8.4-17.4,0.3-37.9,65.8-70.1c22-2.4,29.6-17.8,4.3-11.1
	C298,188.3,281.8,239.6,276,254.1z"/>
<path id="XMLID_75_" class="st2" d="M339.3,368.6c0,0,4.1-12.3,10-12.9c3.9-7.5,23.2-12.6,26.4-2.7c1.4,10.4,32.1,7.3,25.6,8.2
	C390.7,362.6,339.3,368.6,339.3,368.6z"/>
<linearGradient id="XMLID_111_" gradientUnits="userSpaceOnUse" x1="124.1199" y1="207.5484" x2="169.2987" y2="98.8771">
	<stop  offset="0.2" style="stop-color:#3D3D3F"/>
	<stop  offset="0.4848" style="stop-color:#B0B2B3"/>
	<stop  offset="0.9273" style="stop-color:#ECECED"/>
</linearGradient>
<path id="XMLID_74_" class="st6" d="M104.6,98.2c-14.6-8.1-41.4-6.5-54.6,18.3c-14.3,26.9-3.7,47.2,10.6,55.6l139.6,95.6l57-109.8
	L104.6,98.2z"/>
<linearGradient id="XMLID_112_" gradientUnits="userSpaceOnUse" x1="157.9084" y1="249.131" x2="211.3841" y2="121.7321">
	<stop  offset="0" style="stop-color:#ECECED"/>
	<stop  offset="9.794342e-003" style="stop-color:#E3E3E4"/>
	<stop  offset="6.506812e-002" style="stop-color:#B7B7B9"/>
	<stop  offset="0.1229" style="stop-color:#929293"/>
	<stop  offset="0.1827" style="stop-color:#737375"/>
	<stop  offset="0.245" style="stop-color:#5B5B5D"/>
	<stop  offset="0.3109" style="stop-color:#4A4A4C"/>
	<stop  offset="0.383" style="stop-color:#404042"/>
	<stop  offset="0.4727" style="stop-color:#3D3D3F"/>
	<stop  offset="0.8485" style="stop-color:#6F7072"/>
</linearGradient>
<path id="XMLID_73_" class="st7" d="M179.5,127.5c-14.6-8.1-39.4,0-52.6,24.7c-14.3,26.9-7.9,61.2,6.4,69.6l71.3,48.7l62.6-109.9
	L179.5,127.5z"/>
<linearGradient id="XMLID_113_" gradientUnits="userSpaceOnUse" x1="220.8395" y1="344.9192" x2="352.712" y2="150.7733">
	<stop  offset="0" style="stop-color:#ECECED"/>
	<stop  offset="1.268242e-002" style="stop-color:#E3E3E4"/>
	<stop  offset="8.425488e-002" style="stop-color:#B7B7B9"/>
	<stop  offset="0.1591" style="stop-color:#929293"/>
	<stop  offset="0.2365" style="stop-color:#737375"/>
	<stop  offset="0.3172" style="stop-color:#5B5B5D"/>
	<stop  offset="0.4026" style="stop-color:#4A4A4C"/>
	<stop  offset="0.4959" style="stop-color:#404042"/>
	<stop  offset="0.6121" style="stop-color:#3D3D3F"/>
	<stop  offset="0.8485" style="stop-color:#6F7072"/>
</linearGradient>
<path id="XMLID_72_" class="st8" d="M330.2,143c-38.9-8-89.8,2.7-122.4,62.3c-32.3,59-26.1,120-12.2,130.8
	c13.9,10.8,100.4,58.6,100.4,58.6l133.5-212.1C429.5,182.5,369.1,151,330.2,143z"/>
<path id="XMLID_71_" class="st9" d="M333.5,143.6c-25.9-5.7-70.7,19.7-99.5,75.1c-28.5,54.9-33.5,123,1.9,142.7l72.9,41.5
	l122.7-210.3C431.5,192.5,404.3,159.2,333.5,143.6z"/>
<line id="XMLID_70_" class="st10" x1="382.1" y1="165.8" x2="315.5" y2="143.8"/>
<line id="XMLID_69_" class="st10" x1="301.6" y1="148.6" x2="358.1" y2="168.1"/>
<line id="XMLID_68_" class="st10" x1="291.7" y1="153.7" x2="344.8" y2="172.1"/>
<line id="XMLID_67_" class="st10" x1="280.2" y1="161.6" x2="329.8" y2="179.2"/>
<line id="XMLID_66_" class="st10" x1="275.3" y1="373.1" x2="223.5" y2="350.6"/>
<line id="XMLID_65_" class="st10" x1="265" y1="353.7" x2="214.8" y2="332.9"/>
<line id="XMLID_64_" class="st10" x1="258.3" y1="328.1" x2="211.5" y2="316.9"/>
<line id="XMLID_63_" class="st10" x1="316.9" y1="187.2" x2="270.1" y2="170.2"/>
<line id="XMLID_62_" class="st10" x1="305.8" y1="196.3" x2="261.6" y2="178.7"/>
<line id="XMLID_61_" class="st10" x1="297.7" y1="204.3" x2="254.1" y2="187.5"/>
<line id="XMLID_60_" class="st10" x1="288.3" y1="215.4" x2="245.4" y2="198.7"/>
<line id="XMLID_59_" class="st10" x1="281.5" y1="225.2" x2="239.9" y2="208.4"/>
<line id="XMLID_58_" class="st10" x1="275.3" y1="235.9" x2="233.4" y2="219.8"/>
<line id="XMLID_57_" class="st10" x1="270.1" y1="246.7" x2="228.1" y2="231"/>
<line id="XMLID_56_" class="st10" x1="265" y1="260" x2="222.8" y2="244"/>
<line id="XMLID_37_" class="st10" x1="261.6" y1="271.5" x2="218.3" y2="257.6"/>
<line id="XMLID_36_" class="st10" x1="259" y1="284.6" x2="214.8" y2="270.5"/>
<line id="XMLID_35_" class="st10" x1="257.2" y1="298.8" x2="211.7" y2="286.2"/>
<line id="XMLID_34_" class="st10" x1="257.9" y1="313.3" x2="210.9" y2="300.3"/>
<path id="XMLID_33_" class="st11" d="M460.2,327.1c-25.2,65.5-88.7,102.1-141.9,81.6c-53.2-20.5-76-90.1-50.8-155.6
	c25.2-65.5,88.7-102.1,141.9-81.6C462.6,191.9,485.3,261.6,460.2,327.1z"/>
<path id="XMLID_32_" class="st12" d="M459.2,329.7c-23.5,61.2-81.5,95.9-129.5,77.5c-48-18.4-67.8-83-44.3-144.2
	c23.5-61.2,81.5-95.9,129.5-77.5C462.9,203.9,482.7,268.5,459.2,329.7z"/>
<path id="XMLID_31_" class="st11" d="M437.8,320.9c-16.4,42.8-60,65.8-97.3,51.5c-37.3-14.3-54.2-60.6-37.8-103.4
	c16.4-42.8,60-65.8,97.3-51.5C437.3,231.8,454.2,278.1,437.8,320.9z"/>
<polygon id="XMLID_30_" class="st13" points="404.3,361.9 337.7,369.7 299.9,313.1 341.4,233.7 410.4,223.4 442.4,279.5 "/>
<polygon id="XMLID_29_" class="st14" points="363.4,320.4 314.9,336.1 299.9,313.1 341.4,233.7 364.6,233.1 389.7,261.8 "/>
<polygon id="XMLID_28_" class="st15" points="408.1,353.7 363.4,320.4 389.7,261.8 439.2,286.4 "/>
<polygon id="XMLID_27_" class="st15" points="390.8,262.4 325.6,264.6 316.9,281.3 363.4,320.4 "/>
<rect id="XMLID_26_" x="90.9" y="106.7" transform="matrix(0.9123 0.4094 -0.4094 0.9123 54.6424 -38.3169)" class="st16" width="51.8" height="3.5"/>
<rect id="XMLID_25_" x="75.2" y="110.6" transform="matrix(0.906 0.4233 -0.4233 0.906 57.6136 -35.9372)" class="st17" width="69.1" height="2.2"/>
<rect id="XMLID_24_" x="120.8" y="228.6" transform="matrix(0.8186 0.5743 -0.5743 0.8186 161.1493 -48.3253)" class="st18" width="72.5" height="4.8"/>
<path id="XMLID_23_" class="st19" d="M276,254.1c-3,7.4,3.3,14,10.1,0c8.4-17.4,0.3-37.9,65.8-70.1c22-2.4,29.6-17.8,4.3-11.1
	C298,188.3,281.8,239.6,276,254.1z"/>
<path id="XMLID_20_" class="st20" d="M339.3,368.6c0,0,4.1-12.3,10-12.9c3.9-7.5,23.2-12.6,26.4-2.7c1.4,10.4,32.1,7.3,25.6,8.2
	C390.7,362.6,339.3,368.6,339.3,368.6z"/>
</svg>
