<?xml version="1.0" encoding="utf-8"?>
<!-- Generator: Adobe Illustrator 19.0.0, SVG Export Plug-In . SVG Version: 6.00 Build 0)  -->
<svg version="1.1" id="Camada_1" xmlns="http://www.w3.org/2000/svg" xmlns:xlink="http://www.w3.org/1999/xlink" x="0px" y="0px"
	 viewBox="0 0 500 500" style="enable-background:new 0 0 500 500;" xml:space="preserve">
<style type="text/css">
	.st0{fill:#1A171B;stroke:#1A171B;stroke-width:10.5071;stroke-miterlimit:10;}
	.st1{fill:#1A171B;stroke:#1A171B;stroke-width:10.5071;stroke-linejoin:round;stroke-miterlimit:10;}
	.st2{opacity:0.58;fill:#1A171B;stroke:#1A171B;stroke-width:10.5071;stroke-linejoin:round;stroke-miterlimit:10;}
	.st3{fill:url(#XMLID_213_);stroke:#1A171B;stroke-width:2.6268;stroke-miterlimit:10;}
	.st4{fill:#6F7072;stroke:#1A171B;stroke-width:2.6268;stroke-miterlimit:10;}
	.st5{fill:url(#XMLID_214_);stroke:#1A171B;stroke-width:2.6268;stroke-miterlimit:10;}
	.st6{fill:none;stroke:#1A171B;stroke-width:1.3134;stroke-miterlimit:10;}
	.st7{fill:#2D2C2F;stroke:#1A171B;stroke-width:2.6268;stroke-miterlimit:10;}
	.st8{fill:url(#XMLID_215_);stroke:#1A171B;stroke-width:2.6268;stroke-miterlimit:10;}
	.st9{fill:#B0B2B3;stroke:#1A171B;stroke-width:1.3134;stroke-miterlimit:10;}
	.st10{fill:url(#XMLID_216_);stroke:#1A171B;stroke-width:1.3134;stroke-miterlimit:10;}
	.st11{fill:url(#XMLID_217_);stroke:#1A171B;stroke-width:1.3134;stroke-miterlimit:10;}
	.st12{fill:url(#XMLID_218_);stroke:#1A171B;stroke-width:1.3134;stroke-miterlimit:10;}
	.st13{fill:url(#XMLID_219_);stroke:#1A171B;stroke-width:1.3134;stroke-miterlimit:10;}
	.st14{fill:url(#XMLID_220_);stroke:#1A171B;stroke-width:1.3134;stroke-miterlimit:10;}
	.st15{fill:url(#XMLID_221_);stroke:#1A171B;stroke-width:1.3134;stroke-miterlimit:10;}
	.st16{fill:#2D2C2F;stroke:#1A171B;stroke-width:1.3134;stroke-miterlimit:10;}
	.st17{fill:#868789;stroke:#1A171B;stroke-width:1.3134;stroke-linejoin:round;stroke-miterlimit:10;}
	.st18{opacity:0.58;fill:#58585A;stroke:#1A171B;stroke-width:1.3134;stroke-linejoin:round;stroke-miterlimit:10;}
	.st19{fill:#C5C6C8;stroke:#1A171B;stroke-width:2.6268;stroke-miterlimit:10;}
	.st20{fill:#868789;stroke:#1A171B;stroke-width:1.3134;stroke-miterlimit:10;}
	.st21{fill:url(#XMLID_222_);stroke:#1A171B;stroke-width:1.3134;stroke-miterlimit:10;}
	.st22{fill:url(#XMLID_223_);stroke:#1A171B;stroke-width:1.3134;stroke-linejoin:round;stroke-miterlimit:10;}
	.st23{fill:url(#XMLID_224_);stroke:#1A171B;stroke-width:1.3134;stroke-linejoin:round;stroke-miterlimit:10;}
	.st24{fill:url(#XMLID_225_);stroke:#1A171B;stroke-width:1.3134;stroke-miterlimit:10;}
	.st25{opacity:0.58;fill:#868789;stroke:#1A171B;stroke-width:1.3134;stroke-linejoin:round;stroke-miterlimit:10;}
	.st26{fill:#58585A;stroke:#1A171B;stroke-width:2.6268;stroke-miterlimit:10;}
	.st27{fill:#B0B2B3;stroke:#1A171B;stroke-width:2.6268;stroke-miterlimit:10;}
	.st28{fill:url(#XMLID_226_);stroke:#1A171B;stroke-width:2.6268;stroke-miterlimit:10;}
	.st29{fill:#FFFFFF;stroke:#1A171B;stroke-width:2.6268;stroke-miterlimit:10;}
</style>
<path id="XMLID_211_" class="st0" d="M444.8,246.3c0,105.4-84.2,196.1-193.2,196.1c-108.9,0-201.3-90.7-201.3-196.1
	c0-105.4,88.3-190.9,197.2-190.9S444.8,140.9,444.8,246.3z"/>
<path id="XMLID_210_" class="st0" d="M107,222C144.6,115.3,258.4,58.2,361.2,94.3c1.8,0.6,3.6,1.4,5.4,2
	c-20.8-13.2-44.5-22.3-70.1-26.1C192.6,54.9,95.2,131.5,78.8,241.5c-10.7,72,16,140.3,64.8,183.4C97.9,371.8,81.4,294.8,107,222z"/>
<path id="XMLID_209_" class="st0" d="M115.9,225.4C152.1,120.4,262.1,64.2,361.4,99.8c1.8,0.6,3.5,1.3,5.2,2
	c-20.1-13-42.9-21.9-67.7-25.7C198.6,61,104.5,136.4,88.7,244.5c-10.3,70.8,15.4,138,62.6,180.3C107.1,372.6,91.2,296.9,115.9,225.4
	z"/>
<path id="XMLID_208_" class="st0" d="M200.5,297.4c0,10.2-4.3,18.5-9.7,18.6c-5.4,0-9.8-8.3-9.8-18.5c0-10.2,4.3-18.5,9.7-18.6
	C196.1,278.9,200.5,287.2,200.5,297.4z"/>
<path id="XMLID_207_" class="st0" d="M396.8,359.3c-59.6,81.6-162.3,109.3-231.7,60c-69.4-49.3-78.2-156.1-19.7-238.5
	C203.9,98.3,322,84.4,377,120.8C450.2,169.1,457.1,276.6,396.8,359.3z"/>
<path id="XMLID_206_" class="st0" d="M209.9,126.3c0,0,53.9-23.6,68.4-21.8c-172.6,154-87.2,302.1-87.2,302.1h-35.2
	c0,0-65.8-45.3-43-151.1C133.3,161.1,209.9,126.3,209.9,126.3z"/>
<path id="XMLID_205_" class="st0" d="M321.2,122.6c-4.1,8.3-11.3,13.2-16.1,10.8c-4.8-2.4-5.5-11-1.4-19.3
	c4-8.3,11.3-13.2,16.1-10.8C324.6,105.6,325.2,114.3,321.2,122.6z"/>
<path id="XMLID_204_" class="st0" d="M348.4,122.6c-4.1,8.3-11.3,13.2-16.1,10.8c-4.8-2.4-5.5-11-1.4-19.3
	c4-8.3,11.3-13.2,16.1-10.8C351.8,105.6,352.4,114.3,348.4,122.6z"/>
<path id="XMLID_203_" class="st0" d="M374.5,135.5c-3.6,7.3-10.9,11.1-16.4,8.4c-5.5-2.7-7-10.8-3.5-18.1
	c3.6-7.3,10.9-11.1,16.4-8.4C376.5,120.1,378,128.2,374.5,135.5z"/>
<path id="XMLID_202_" class="st0" d="M391.2,159.8c-3.6,7.3-10.9,11.1-16.4,8.4c-5.5-2.7-7-10.8-3.5-18.1
	c3.6-7.3,10.9-11.1,16.4-8.4C393.2,144.4,394.7,152.5,391.2,159.8z"/>
<path id="XMLID_201_" class="st0" d="M403,195.5c-3.6,7.3-11.5,10.8-17.8,7.8c-6.2-3-8.4-11.5-4.8-18.8c3.6-7.3,11.5-10.8,17.8-7.8
	C404.4,179.7,406.6,188.2,403,195.5z"/>
<path id="XMLID_200_" class="st0" d="M403,236.7c-3.6,7.3-11.5,10.8-17.8,7.8c-6.2-3-8.4-11.5-4.8-18.8c3.6-7.3,11.5-10.8,17.8-7.8
	C404.4,220.9,406.6,229.3,403,236.7z"/>
<path id="XMLID_199_" class="st0" d="M396.1,280.4c-3.6,7.3-11.5,10.8-17.8,7.8c-6.2-3-8.4-11.5-4.8-18.8
	c3.6-7.3,11.5-10.8,17.8-7.8C397.5,264.6,399.6,273.1,396.1,280.4z"/>
<path id="XMLID_198_" class="st0" d="M380.4,322.1c-4.3,8.8-12.8,13.5-19.1,10.4c-6.2-3-7.8-12.6-3.5-21.5
	c4.3-8.8,12.8-13.5,19.1-10.4C383.1,303.7,384.6,313.3,380.4,322.1z"/>
<path id="XMLID_197_" class="st0" d="M356.7,359.7c-4.3,8.8-12.8,13.5-19.1,10.4c-6.2-3-7.8-12.6-3.5-21.5
	c4.3-8.8,12.8-13.5,19.1-10.4C359.4,341.3,361,350.9,356.7,359.7z"/>
<path id="XMLID_196_" class="st0" d="M335.1,391c-4.3,8.8-12.8,13.5-19.1,10.4c-6.2-3-7.8-12.6-3.5-21.5
	c4.3-8.8,12.8-13.5,19.1-10.4C337.8,372.6,339.4,382.2,335.1,391z"/>
<path id="XMLID_195_" class="st0" d="M307.1,414.2c-4.3,8.8-12.8,13.5-19.1,10.4c-6.2-3-7.8-12.6-3.5-21.5
	c4.3-8.8,12.8-13.5,19.1-10.4C309.8,395.8,311.4,405.4,307.1,414.2z"/>
<polygon id="XMLID_194_" class="st0" points="272,145.2 237.7,114.3 272,102.7 290,119 "/>
<path id="XMLID_193_" class="st0" d="M291.4,138.3c-4.1,8.3-11.3,13.2-16.1,10.8c-4.8-2.4-5.5-11-1.4-19.3
	c4-8.3,11.3-13.2,16.1-10.8C294.9,121.3,295.5,130,291.4,138.3z"/>
<path id="XMLID_192_" class="st0" d="M242.7,175.9c0,0-49.9-27.3-51.1-33.1c-1.2-5.9,13.6-14.7,18.3-16.4c4.7-1.7,49,19.4,49,19.4
	L242.7,175.9z"/>
<path id="XMLID_191_" class="st0" d="M207.4,231.2c0,0-46-14.2-53.8-13c-7.8,1.2-13,17.2-11.1,22.9c1.9,5.7,55,25.3,55,25.3
	L207.4,231.2z"/>
<path id="XMLID_190_" class="st0" d="M213,251c-1.6,10.1-7.1,17.6-12.4,16.8c-5.3-0.8-8.4-9.7-6.8-19.8c1.6-10.1,7.1-17.6,12.4-16.8
	C211.6,232.1,214.6,240.9,213,251z"/>
<path id="XMLID_189_" class="st0" d="M193.4,278.9c0,0-52.3-16.4-56.5-9.9c-4.3,6.4-4.4,19.9-1.4,24c3,4.1,55.3,23,55.3,23
	L193.4,278.9z"/>
<path id="XMLID_188_" class="st0" d="M190.7,322.5c0,0-56.7-8.3-59.9-2.5c-3.2,5.8-1.8,16.4,0.8,21c2.7,4.6,59.2,18.5,59.2,18.5
	L190.7,322.5z"/>
<path id="XMLID_187_" class="st0" d="M200.5,341c0,10.2-4.3,18.5-9.7,18.6c-5.4,0-9.8-8.3-9.8-18.5c0-10.2,4.3-18.5,9.7-18.6
	C196.1,322.5,200.5,330.8,200.5,341z"/>
<polygon id="XMLID_186_" class="st0" points="264.6,435.6 217.7,434.6 243.9,405.6 266,407.1 "/>
<polygon id="XMLID_185_" class="st0" points="145.1,215.8 125.6,213.6 145.8,180.1 159.6,185.9 "/>
<polygon id="XMLID_184_" class="st0" points="137.3,234.4 132.3,269 111.3,263.3 118.5,222.2 "/>
<path id="XMLID_183_" class="st1" d="M137.3,234.4l-4.9,34.7c0,0-13.9-6.1-13.9-19.5C118.4,236.1,137.3,234.4,137.3,234.4z"/>
<path id="XMLID_182_" class="st1" d="M145.1,215.8l14.5-29.8c0,0-10.5-4.3-17.7,4.7C134.7,199.6,145.1,215.8,145.1,215.8z"/>
<polygon id="XMLID_181_" class="st0" points="105.4,272.1 125.6,291.8 125.6,320 105.1,308.5 "/>
<path id="XMLID_180_" class="st1" d="M125.6,291.8V320c0,0-12.8-8.2-13.1-20.4C112.3,288.2,125.6,291.8,125.6,291.8z"/>
<polygon id="XMLID_179_" class="st0" points="106.1,322.5 127.9,333.5 135.1,363.5 116.1,368.6 "/>
<path id="XMLID_178_" class="st1" d="M127.9,333.5l7.2,30c0,0-15.3-2.9-18.5-15S127.9,333.5,127.9,333.5z"/>
<path id="XMLID_177_" class="st2" d="M419.8,169.1c0,0-16.3,7.6-10.8,20.8c5.1,12.3,22.8,7.9,22.8,7.9L419.8,169.1z"/>
<path id="XMLID_176_" class="st2" d="M434.1,206.9l2.6,30.9c0,0-25.6,11.9-26.5-8.9S434.1,206.9,434.1,206.9z"/>
<path id="XMLID_175_" class="st2" d="M324,422.3l28.4-18.6c0,0-10.2-13-20.8-4.3C321.1,408,324,422.3,324,422.3z"/>
<path id="XMLID_174_" class="st2" d="M363.8,394.6l31.4-28.8c0,0-24.3-12.8-33.6-2.4C352.3,373.9,363.8,394.6,363.8,394.6z"/>
<path id="XMLID_173_" class="st2" d="M397.3,358.5l20.3-35.9c0,0-20-14.5-32.4,0C370.8,339.3,397.3,358.5,397.3,358.5z"/>
<path id="XMLID_172_" class="st2" d="M425.9,299.8c0,0,2.4-3.1,6-16.4c3.5-13.4,4.5-23.3,4.5-23.3s-25.7-3.6-31.6,12.1
	C398.8,287.8,425.9,299.8,425.9,299.8z"/>
<path id="XMLID_169_" class="st0" d="M398.1,113.3c-54.2-45.4-196.2-35.8-261.5,53c-65.3,88.8-62.5,209,12.3,264
	c74.7,54.9,193.1,23.7,258.4-65C472.5,276.4,464.9,169.2,398.1,113.3z M397.3,358.5c-59.3,80.6-166.3,109.3-233.5,59.9
	c-67.3-49.4-73.7-152-20.8-232.5c58.1-88.3,191.6-105.6,247-55.4C448.2,183,456.6,277.9,397.3,358.5z"/>
<path id="XMLID_168_" class="st0" d="M287.5,136.7c-0.6,3.7-2.8,6.4-4.9,6c-2.1-0.3-3.3-3.6-2.7-7.3c0.6-3.7,2.8-6.4,4.9-6
	C286.9,129.8,288.1,133,287.5,136.7z"/>
<path id="XMLID_167_" class="st0" d="M317.9,119c-0.6,3.7-2.8,6.4-4.9,6c-2.1-0.3-3.3-3.6-2.7-7.3c0.6-3.7,2.8-6.4,4.9-6
	C317.3,112,318.5,115.3,317.9,119z"/>
<path id="XMLID_166_" class="st0" d="M343.4,120.6c-0.6,3.7-2.8,6.4-4.9,6c-2.1-0.3-3.3-3.6-2.7-7.3c0.6-3.7,2.8-6.4,4.9-6
	C342.8,113.6,344,116.9,343.4,120.6z"/>
<path id="XMLID_165_" class="st0" d="M368.3,131.3c-0.6,3.7-2.8,6.4-4.9,6c-2.1-0.3-3.3-3.6-2.7-7.3c0.6-3.7,2.8-6.4,4.9-6
	C367.7,124.4,368.9,127.7,368.3,131.3z"/>
<path id="XMLID_164_" class="st0" d="M385,155.6c-0.6,3.7-2.8,6.4-4.9,6c-2.1-0.3-3.3-3.6-2.7-7.3c0.6-3.7,2.8-6.4,4.9-6
	C384.4,148.7,385.6,151.9,385,155.6z"/>
<path id="XMLID_163_" class="st0" d="M396.9,190.6c-0.6,3.7-2.8,6.4-4.9,6c-2.1-0.3-3.3-3.6-2.7-7.3c0.6-3.7,2.8-6.4,4.9-6
	C396.3,183.7,397.5,186.9,396.9,190.6z"/>
<path id="XMLID_162_" class="st0" d="M396.9,231.8c-0.6,3.7-2.8,6.4-4.9,6c-2.1-0.3-3.3-3.6-2.7-7.3c0.6-3.7,2.8-6.4,4.9-6
	C396.3,224.9,397.5,228.1,396.9,231.8z"/>
<path id="XMLID_161_" class="st0" d="M388.9,277.3c-0.6,3.7-2.8,6.4-4.9,6c-2.1-0.3-3.3-3.6-2.7-7.3c0.6-3.7,2.8-6.4,4.9-6
	C388.3,270.3,389.5,273.6,388.9,277.3z"/>
<path id="XMLID_160_" class="st0" d="M375.5,320.7c-0.6,3.7-2.8,6.4-4.9,6c-2.1-0.3-3.3-3.6-2.7-7.3c0.6-3.7,2.8-6.4,4.9-6
	C374.9,313.7,376.1,317,375.5,320.7z"/>
<path id="XMLID_159_" class="st0" d="M349.2,359.1c-0.6,3.7-2.8,6.4-4.9,6c-2.1-0.3-3.3-3.6-2.7-7.3c0.6-3.7,2.8-6.4,4.9-6
	C348.6,352.2,349.8,355.4,349.2,359.1z"/>
<path id="XMLID_158_" class="st0" d="M327.4,386.3c-0.6,3.7-2.8,6.4-4.9,6c-2.1-0.3-3.3-3.6-2.7-7.3c0.6-3.7,2.8-6.4,4.9-6
	C326.9,379.3,328.1,382.6,327.4,386.3z"/>
<path id="XMLID_157_" class="st0" d="M299.6,409.9c-0.6,3.7-2.8,6.4-4.9,6c-2.1-0.3-3.3-3.6-2.7-7.3c0.6-3.7,2.8-6.4,4.9-6
	C299,403,300.2,406.3,299.6,409.9z"/>
<path id="XMLID_156_" class="st0" d="M260.4,165.1c-4.1,8.3-11.3,13.2-16.1,10.8c-4.8-2.4-5.5-11-1.4-19.3
	c4-8.3,11.3-13.2,16.1-10.8C263.8,148.1,264.4,156.8,260.4,165.1z"/>
<path id="XMLID_155_" class="st0" d="M255.4,161.5c-0.6,3.7-2.8,6.4-4.9,6c-2.1-0.3-3.3-3.6-2.7-7.3c0.6-3.7,2.8-6.4,4.9-6
	C254.8,154.5,256,157.8,255.4,161.5z"/>
<path id="XMLID_154_" class="st0" d="M230.3,205c-0.6,3.7-2.8,6.4-4.9,6c-2.1-0.3-3.3-3.6-2.7-7.3c0.6-3.7,2.8-6.4,4.9-6
	C229.7,198.1,230.9,201.3,230.3,205z"/>
<path id="XMLID_153_" class="st0" d="M210.8,252.3c-0.6,3.7-2.8,6.4-4.9,6c-2.1-0.3-3.3-3.6-2.7-7.3c0.6-3.7,2.8-6.4,4.9-6
	C210.2,245.4,211.4,248.6,210.8,252.3z"/>
<path id="XMLID_152_" class="st0" d="M203.7,298.9c-1.6,10.1-7.1,17.6-12.4,16.8c-5.3-0.8-8.4-9.7-6.8-19.8
	c1.6-10.1,7.1-17.6,12.4-16.8C202.2,280,205.2,288.8,203.7,298.9z"/>
<path id="XMLID_151_" class="st0" d="M201.4,298.1c-0.6,3.7-2.8,6.4-4.9,6c-2.1-0.3-3.3-3.6-2.7-7.3c0.6-3.7,2.8-6.4,4.9-6
	C200.8,291.1,202,294.4,201.4,298.1z"/>
<path id="XMLID_150_" class="st0" d="M197.2,340.8c0.3,3.7-1.2,6.9-3.3,7c-2.1,0.2-4.1-2.7-4.3-6.4c-0.3-3.7,1.2-6.9,3.3-7
	C195,334.2,196.9,337,197.2,340.8z"/>
<path id="XMLID_149_" class="st0" d="M240.2,432.9c0,0,0,0-26.7,1.4c-7.7-1.5-34.6,0.9-32.4-16.4c-0.3-9.6,6.6-11.3,6.6-11.3
	l50.9-1.6L240.2,432.9z"/>
<path id="XMLID_148_" class="st1" d="M217.7,417.8c0,0-28.9,2.4-45.8-0.2c-22.4-3.5-12.6-28.1-12.6-28.1l56.6,0.1L217.7,417.8z"/>
<ellipse id="XMLID_147_" class="st0" cx="216.8" cy="403.7" rx="9.7" ry="14.2"/>
<path id="XMLID_146_" class="st1" d="M190.7,363.1c0,0-42.4-5.3-53.5-1.3c-10,3.6-3.9,26.2,8.2,26.6c6.9,0.3,52.6,4.7,52.6,4.7
	L190.7,363.1z"/>
<path id="XMLID_145_" class="st0" d="M205.3,376.5c0.9,8.7-2.7,16.2-8,16.7c-5.3,0.6-10.4-6-11.3-14.7c-0.9-8.7,2.7-16.2,8-16.7
	C199.3,361.3,204.3,367.9,205.3,376.5z"/>
<path id="XMLID_144_" class="st0" d="M201.6,377.5c0.1,3.7-1.5,6.8-3.6,6.9c-2.1,0.1-4-2.9-4.1-6.6c-0.1-3.7,1.5-6.8,3.6-6.9
	C199.6,370.8,201.5,373.8,201.6,377.5z"/>
<path id="XMLID_143_" class="st0" d="M223.5,402c0.3,3.7-1.2,6.9-3.3,7c-2.1,0.2-4.1-2.7-4.3-6.4c-0.3-3.7,1.2-6.9,3.3-7
	C221.3,395.4,223.3,398.3,223.5,402z"/>
<ellipse id="XMLID_142_" class="st0" cx="240.2" cy="418.9" rx="11.4" ry="14"/>
<path id="XMLID_141_" class="st0" d="M245.5,417.1c0.2,3.2-1.3,5.9-3.4,6c-2.1,0.2-4-2.3-4.3-5.5c-0.2-3.2,1.3-5.9,3.4-6
	C243.4,411.5,245.3,413.9,245.5,417.1z"/>
<path id="XMLID_140_" class="st0" d="M279.3,426.4c-2.9,8.3-10.6,13.3-17.1,11c-6.6-2.3-9.5-10.9-6.6-19.2
	c2.9-8.3,10.6-13.3,17.1-11C279.2,409.4,282.1,418.1,279.3,426.4z"/>
<path id="XMLID_139_" class="st0" d="M273.7,419.9c0.2,3.2-1.3,5.9-3.4,6c-2.1,0.2-4-2.3-4.3-5.5c-0.2-3.2,1.3-5.9,3.4-6
	C271.5,414.3,273.4,416.7,273.7,419.9z"/>
<path id="XMLID_138_" class="st0" d="M215.8,215.8c0,0-57-22.1-61.3-29.6c-4.3-7.6,2.1-20.1,12.8-20.7c10.7-0.6,62.7,20.9,62.7,20.9
	L215.8,215.8z"/>
<path id="XMLID_137_" class="st0" d="M233.4,205.4c-3.2,8.7-9.8,14.3-14.9,12.4c-5-1.8-6.6-10.4-3.4-19.1
	c3.2-8.7,9.8-14.3,14.9-12.4C235,188.1,236.6,196.7,233.4,205.4z"/>
<ellipse id="XMLID_136_" class="st2" cx="419" cy="185" rx="3.8" ry="5"/>
<ellipse id="XMLID_135_" class="st2" cx="427.2" cy="225" rx="3.8" ry="5"/>
<ellipse id="XMLID_134_" class="st2" cx="423.5" cy="276.6" rx="3.8" ry="5"/>
<ellipse id="XMLID_133_" class="st2" cx="397" cy="333.5" rx="3.8" ry="5"/>
<ellipse id="XMLID_132_" class="st2" cx="371.7" cy="372.2" rx="3.8" ry="5"/>
<ellipse id="XMLID_131_" class="st2" cx="335.7" cy="406.6" rx="3.8" ry="5"/>
<path id="XMLID_130_" class="st0" d="M228,202.7c-0.6,3.7-2.8,6.4-4.9,6c-2.1-0.3-3.3-3.6-2.7-7.3c0.6-3.7,2.8-6.4,4.9-6
	C227.4,195.7,228.6,199,228,202.7z"/>
<ellipse id="XMLID_129_" transform="matrix(0.9268 0.3757 -0.3757 0.9268 122.4944 -90.2165)" class="st0" cx="292.6" cy="269" rx="84.5" ry="143.3"/>
<ellipse id="XMLID_128_" transform="matrix(0.9268 0.3757 -0.3757 0.9268 123.2208 -91.3303)" class="st0" cx="295.8" cy="270.3" rx="81" ry="143.3"/>
<path id="XMLID_127_" class="st0" d="M353.7,296.8c-25.7,63.4-73.9,103.7-107.6,90c-33.7-13.7-40.2-76.1-14.5-139.5
	c25.7-63.4,73.8-103.7,107.6-90C372.8,171,379.3,233.4,353.7,296.8z"/>
<path id="XMLID_126_" class="st0" d="M232.4,245.1c-10.9,26.1-15.9,53.2-16.1,75.7c1.4,2.4,2.3,2.9,4.5,3.9
	c14.5,6.2,42.3-24.6,62.1-68.8c18.9-42.3,23.6-81.6,11.2-90.4C269.1,181.7,247.6,208.7,232.4,245.1z"/>
<linearGradient id="XMLID_213_" gradientUnits="userSpaceOnUse" x1="354.5345" y1="38.8775" x2="128.5506" y2="479.9895">
	<stop  offset="0" style="stop-color:#D8D9DA"/>
	<stop  offset="0.2364" style="stop-color:#6F7072"/>
	<stop  offset="0.5091" style="stop-color:#B0B2B3"/>
	<stop  offset="0.6727" style="stop-color:#D8D9DA"/>
	<stop  offset="1" style="stop-color:#3D3D3F"/>
</linearGradient>
<path id="XMLID_125_" class="st3" d="M444.8,246.3c0,105.4-84.2,196.1-193.2,196.1c-108.9,0-201.3-90.7-201.3-196.1
	c0-105.4,88.3-190.9,197.2-190.9S444.8,140.9,444.8,246.3z"/>
<path id="XMLID_124_" class="st4" d="M107,222C144.6,115.3,258.4,58.2,361.2,94.3c1.8,0.6,3.6,1.4,5.4,2
	c-20.8-13.2-44.5-22.3-70.1-26.1C192.6,54.9,95.2,131.5,78.8,241.5c-10.7,72,16,140.3,64.8,183.4C97.9,371.8,81.4,294.8,107,222z"/>
<linearGradient id="XMLID_214_" gradientUnits="userSpaceOnUse" x1="278.726" y1="64.6343" x2="75.6119" y2="442.4092">
	<stop  offset="0" style="stop-color:#D8D9DA"/>
	<stop  offset="0.1697" style="stop-color:#868789"/>
	<stop  offset="0.3152" style="stop-color:#FFFFFF"/>
	<stop  offset="0.5091" style="stop-color:#B0B2B3"/>
	<stop  offset="0.6667" style="stop-color:#D8D9DA"/>
	<stop  offset="1" style="stop-color:#3D3D3F"/>
</linearGradient>
<path id="XMLID_123_" class="st5" d="M115.9,225.4C152.1,120.4,262.1,64.2,361.4,99.8c1.8,0.6,3.5,1.3,5.2,2
	c-20.1-13-42.9-21.9-67.7-25.7C198.6,61,104.5,136.4,88.7,244.5c-10.3,70.8,15.4,138,62.6,180.3C107.1,372.6,91.2,296.9,115.9,225.4
	z"/>
<path id="XMLID_122_" class="st6" d="M200.5,297.4c0,10.2-4.3,18.5-9.7,18.6c-5.4,0-9.8-8.3-9.8-18.5c0-10.2,4.3-18.5,9.7-18.6
	C196.1,278.9,200.5,287.2,200.5,297.4z"/>
<path id="XMLID_121_" class="st7" d="M396.8,359.3c-59.6,81.6-162.3,109.3-231.7,60c-69.4-49.3-78.2-156.1-19.7-238.5
	C203.9,98.3,322,84.4,377,120.8C450.2,169.1,457.1,276.6,396.8,359.3z"/>
<linearGradient id="XMLID_215_" gradientUnits="userSpaceOnUse" x1="329.7021" y1="258.1037" x2="-134.2123" y2="247.4642">
	<stop  offset="4.848480e-002" style="stop-color:#F5F5F6"/>
	<stop  offset="0.4242" style="stop-color:#C89D64"/>
	<stop  offset="0.5576" style="stop-color:#FFFFFF"/>
	<stop  offset="0.7091" style="stop-color:#FCE90A"/>
</linearGradient>
<path id="XMLID_120_" class="st8" d="M209.9,126.3c0,0,53.9-23.6,68.4-21.8c-172.6,154-87.2,302.1-87.2,302.1h-35.2
	c0,0-65.8-45.3-43-151.1C133.3,161.1,209.9,126.3,209.9,126.3z"/>
<path id="XMLID_119_" class="st9" d="M321.2,122.6c-4.1,8.3-11.3,13.2-16.1,10.8c-4.8-2.4-5.5-11-1.4-19.3
	c4-8.3,11.3-13.2,16.1-10.8C324.6,105.6,325.2,114.3,321.2,122.6z"/>
<path id="XMLID_118_" class="st9" d="M348.4,122.6c-4.1,8.3-11.3,13.2-16.1,10.8c-4.8-2.4-5.5-11-1.4-19.3
	c4-8.3,11.3-13.2,16.1-10.8C351.8,105.6,352.4,114.3,348.4,122.6z"/>
<path id="XMLID_117_" class="st9" d="M374.5,135.5c-3.6,7.3-10.9,11.1-16.4,8.4c-5.5-2.7-7-10.8-3.5-18.1
	c3.6-7.3,10.9-11.1,16.4-8.4C376.5,120.1,378,128.2,374.5,135.5z"/>
<path id="XMLID_116_" class="st9" d="M391.2,159.8c-3.6,7.3-10.9,11.1-16.4,8.4c-5.5-2.7-7-10.8-3.5-18.1
	c3.6-7.3,10.9-11.1,16.4-8.4C393.2,144.4,394.7,152.5,391.2,159.8z"/>
<path id="XMLID_115_" class="st9" d="M403,195.5c-3.6,7.3-11.5,10.8-17.8,7.8c-6.2-3-8.4-11.5-4.8-18.8c3.6-7.3,11.5-10.8,17.8-7.8
	C404.4,179.7,406.6,188.2,403,195.5z"/>
<path id="XMLID_114_" class="st9" d="M403,236.7c-3.6,7.3-11.5,10.8-17.8,7.8c-6.2-3-8.4-11.5-4.8-18.8c3.6-7.3,11.5-10.8,17.8-7.8
	C404.4,220.9,406.6,229.3,403,236.7z"/>
<path id="XMLID_113_" class="st9" d="M396.1,280.4c-3.6,7.3-11.5,10.8-17.8,7.8c-6.2-3-8.4-11.5-4.8-18.8
	c3.6-7.3,11.5-10.8,17.8-7.8C397.5,264.6,399.6,273.1,396.1,280.4z"/>
<path id="XMLID_112_" class="st9" d="M380.4,322.1c-4.3,8.8-12.8,13.5-19.1,10.4c-6.2-3-7.8-12.6-3.5-21.5
	c4.3-8.8,12.8-13.5,19.1-10.4C383.1,303.7,384.6,313.3,380.4,322.1z"/>
<path id="XMLID_111_" class="st9" d="M356.7,359.7c-4.3,8.8-12.8,13.5-19.1,10.4c-6.2-3-7.8-12.6-3.5-21.5
	c4.3-8.8,12.8-13.5,19.1-10.4C359.4,341.3,361,350.9,356.7,359.7z"/>
<path id="XMLID_110_" class="st9" d="M335.1,391c-4.3,8.8-12.8,13.5-19.1,10.4c-6.2-3-7.8-12.6-3.5-21.5
	c4.3-8.8,12.8-13.5,19.1-10.4C337.8,372.6,339.4,382.2,335.1,391z"/>
<path id="XMLID_109_" class="st9" d="M307.1,414.2c-4.3,8.8-12.8,13.5-19.1,10.4c-6.2-3-7.8-12.6-3.5-21.5
	c4.3-8.8,12.8-13.5,19.1-10.4C309.8,395.8,311.4,405.4,307.1,414.2z"/>
<linearGradient id="XMLID_216_" gradientUnits="userSpaceOnUse" x1="284.2453" y1="98.1676" x2="221.1428" y2="165.9015">
	<stop  offset="0" style="stop-color:#D8D9DA"/>
	<stop  offset="0.1697" style="stop-color:#868789"/>
	<stop  offset="0.3152" style="stop-color:#FFFFFF"/>
	<stop  offset="0.5091" style="stop-color:#B0B2B3"/>
	<stop  offset="0.6667" style="stop-color:#D8D9DA"/>
	<stop  offset="1" style="stop-color:#3D3D3F"/>
</linearGradient>
<polygon id="XMLID_108_" class="st10" points="272,145.2 237.7,114.3 272,102.7 290,119 "/>
<path id="XMLID_107_" class="st9" d="M291.4,138.3c-4.1,8.3-11.3,13.2-16.1,10.8c-4.8-2.4-5.5-11-1.4-19.3
	c4-8.3,11.3-13.2,16.1-10.8C294.9,121.3,295.5,130,291.4,138.3z"/>
<linearGradient id="XMLID_217_" gradientUnits="userSpaceOnUse" x1="245.3628" y1="116.7635" x2="175.494" y2="219.1563">
	<stop  offset="0" style="stop-color:#D8D9DA"/>
	<stop  offset="0.1697" style="stop-color:#868789"/>
	<stop  offset="0.3152" style="stop-color:#FFFFFF"/>
	<stop  offset="0.5091" style="stop-color:#B0B2B3"/>
	<stop  offset="0.6667" style="stop-color:#D8D9DA"/>
	<stop  offset="1" style="stop-color:#3D3D3F"/>
</linearGradient>
<path id="XMLID_106_" class="st11" d="M242.7,175.9c0,0-49.9-27.3-51.1-33.1c-1.2-5.9,13.6-14.7,18.3-16.4c4.7-1.7,49,19.4,49,19.4
	L242.7,175.9z"/>
<linearGradient id="XMLID_218_" gradientUnits="userSpaceOnUse" x1="180.9519" y1="212.7019" x2="162.4977" y2="275.8961">
	<stop  offset="0" style="stop-color:#D8D9DA"/>
	<stop  offset="0.1697" style="stop-color:#868789"/>
	<stop  offset="0.3152" style="stop-color:#FFFFFF"/>
	<stop  offset="0.5091" style="stop-color:#B0B2B3"/>
	<stop  offset="0.6667" style="stop-color:#D8D9DA"/>
	<stop  offset="1" style="stop-color:#3D3D3F"/>
</linearGradient>
<path id="XMLID_105_" class="st12" d="M207.4,231.2c0,0-46-14.2-53.8-13c-7.8,1.2-13,17.2-11.1,22.9c1.9,5.7,55,25.3,55,25.3
	L207.4,231.2z"/>
<path id="XMLID_104_" class="st9" d="M213,251c-1.6,10.1-7.1,17.6-12.4,16.8c-5.3-0.8-8.4-9.7-6.8-19.8c1.6-10.1,7.1-17.6,12.4-16.8
	C211.6,232.1,214.6,240.9,213,251z"/>
<linearGradient id="XMLID_219_" gradientUnits="userSpaceOnUse" x1="170.2746" y1="268.4363" x2="152.5751" y2="330.6732">
	<stop  offset="0" style="stop-color:#D8D9DA"/>
	<stop  offset="0.1697" style="stop-color:#868789"/>
	<stop  offset="0.3152" style="stop-color:#FFFFFF"/>
	<stop  offset="0.5091" style="stop-color:#B0B2B3"/>
	<stop  offset="0.6667" style="stop-color:#D8D9DA"/>
	<stop  offset="1" style="stop-color:#3D3D3F"/>
</linearGradient>
<path id="XMLID_103_" class="st13" d="M193.4,278.9c0,0-52.3-16.4-56.5-9.9c-4.3,6.4-4.4,19.9-1.4,24c3,4.1,55.3,23,55.3,23
	L193.4,278.9z"/>
<linearGradient id="XMLID_220_" gradientUnits="userSpaceOnUse" x1="165.4627" y1="312.9971" x2="156.4289" y2="362.1168">
	<stop  offset="0" style="stop-color:#D8D9DA"/>
	<stop  offset="0.1697" style="stop-color:#868789"/>
	<stop  offset="0.3152" style="stop-color:#FFFFFF"/>
	<stop  offset="0.5091" style="stop-color:#B0B2B3"/>
	<stop  offset="0.6667" style="stop-color:#D8D9DA"/>
	<stop  offset="1" style="stop-color:#3D3D3F"/>
</linearGradient>
<path id="XMLID_102_" class="st14" d="M190.7,322.5c0,0-56.7-8.3-59.9-2.5c-3.2,5.8-1.8,16.4,0.8,21c2.7,4.6,59.2,18.5,59.2,18.5
	L190.7,322.5z"/>
<path id="XMLID_101_" class="st9" d="M200.5,341c0,10.2-4.3,18.5-9.7,18.6c-5.4,0-9.8-8.3-9.8-18.5c0-10.2,4.3-18.5,9.7-18.6
	C196.1,322.5,200.5,330.8,200.5,341z"/>
<linearGradient id="XMLID_221_" gradientUnits="userSpaceOnUse" x1="241.8153" y1="403.636" x2="241.8153" y2="448.549">
	<stop  offset="0" style="stop-color:#D8D9DA"/>
	<stop  offset="0.1697" style="stop-color:#868789"/>
	<stop  offset="0.3152" style="stop-color:#FFFFFF"/>
	<stop  offset="0.5091" style="stop-color:#B0B2B3"/>
	<stop  offset="0.6667" style="stop-color:#D8D9DA"/>
	<stop  offset="1" style="stop-color:#3D3D3F"/>
</linearGradient>
<polygon id="XMLID_100_" class="st15" points="264.6,435.6 217.7,434.6 243.9,405.6 266,407.1 "/>
<polygon id="XMLID_99_" class="st16" points="145.1,215.8 125.6,213.6 145.8,180.1 159.6,185.9 "/>
<polygon id="XMLID_98_" class="st16" points="137.3,234.4 132.3,269 111.3,263.3 118.5,222.2 "/>
<path id="XMLID_97_" class="st17" d="M137.3,234.4l-4.9,34.7c0,0-13.9-6.1-13.9-19.5C118.4,236.1,137.3,234.4,137.3,234.4z"/>
<path id="XMLID_96_" class="st17" d="M145.1,215.8l14.5-29.8c0,0-10.5-4.3-17.7,4.7C134.7,199.6,145.1,215.8,145.1,215.8z"/>
<polygon id="XMLID_95_" class="st16" points="105.4,272.1 125.6,291.8 125.6,320 105.1,308.5 "/>
<path id="XMLID_94_" class="st17" d="M125.6,291.8V320c0,0-12.8-8.2-13.1-20.4C112.3,288.2,125.6,291.8,125.6,291.8z"/>
<polygon id="XMLID_93_" class="st16" points="106.1,322.5 127.9,333.5 135.1,363.5 116.1,368.6 "/>
<path id="XMLID_92_" class="st17" d="M127.9,333.5l7.2,30c0,0-15.3-2.9-18.5-15S127.9,333.5,127.9,333.5z"/>
<path id="XMLID_91_" class="st18" d="M419.8,169.1c0,0-16.3,7.6-10.8,20.8c5.1,12.3,22.8,7.9,22.8,7.9L419.8,169.1z"/>
<path id="XMLID_90_" class="st18" d="M434.1,206.9l2.6,30.9c0,0-25.6,11.9-26.5-8.9S434.1,206.9,434.1,206.9z"/>
<path id="XMLID_89_" class="st18" d="M324,422.3l28.4-18.6c0,0-10.2-13-20.8-4.3C321.1,408,324,422.3,324,422.3z"/>
<path id="XMLID_88_" class="st18" d="M363.8,394.6l31.4-28.8c0,0-24.3-12.8-33.6-2.4C352.3,373.9,363.8,394.6,363.8,394.6z"/>
<path id="XMLID_87_" class="st18" d="M397.3,358.5l20.3-35.9c0,0-20-14.5-32.4,0C370.8,339.3,397.3,358.5,397.3,358.5z"/>
<path id="XMLID_86_" class="st18" d="M425.9,299.8c0,0,2.4-3.1,6-16.4c3.5-13.4,4.5-23.3,4.5-23.3s-25.7-3.6-31.6,12.1
	C398.8,287.8,425.9,299.8,425.9,299.8z"/>
<path id="XMLID_83_" class="st19" d="M398.1,113.3c-54.2-45.4-196.2-35.8-261.5,53c-65.3,88.8-62.5,209,12.3,264
	c74.7,54.9,193.1,23.7,258.4-65C472.5,276.4,464.9,169.2,398.1,113.3z M397.3,358.5c-59.3,80.6-166.3,109.3-233.5,59.9
	c-67.3-49.4-73.7-152-20.8-232.5c58.1-88.3,191.6-105.6,247-55.4C448.2,183,456.6,277.9,397.3,358.5z"/>
<path id="XMLID_82_" class="st20" d="M287.5,136.7c-0.6,3.7-2.8,6.4-4.9,6c-2.1-0.3-3.3-3.6-2.7-7.3c0.6-3.7,2.8-6.4,4.9-6
	C286.9,129.8,288.1,133,287.5,136.7z"/>
<path id="XMLID_81_" class="st20" d="M317.9,119c-0.6,3.7-2.8,6.4-4.9,6c-2.1-0.3-3.3-3.6-2.7-7.3c0.6-3.7,2.8-6.4,4.9-6
	C317.3,112,318.5,115.3,317.9,119z"/>
<path id="XMLID_80_" class="st20" d="M343.4,120.6c-0.6,3.7-2.8,6.4-4.9,6c-2.1-0.3-3.3-3.6-2.7-7.3c0.6-3.7,2.8-6.4,4.9-6
	C342.8,113.6,344,116.9,343.4,120.6z"/>
<path id="XMLID_79_" class="st20" d="M368.3,131.3c-0.6,3.7-2.8,6.4-4.9,6c-2.1-0.3-3.3-3.6-2.7-7.3c0.6-3.7,2.8-6.4,4.9-6
	C367.7,124.4,368.9,127.7,368.3,131.3z"/>
<path id="XMLID_78_" class="st20" d="M385,155.6c-0.6,3.7-2.8,6.4-4.9,6c-2.1-0.3-3.3-3.6-2.7-7.3c0.6-3.7,2.8-6.4,4.9-6
	C384.4,148.7,385.6,151.9,385,155.6z"/>
<path id="XMLID_77_" class="st20" d="M396.9,190.6c-0.6,3.7-2.8,6.4-4.9,6c-2.1-0.3-3.3-3.6-2.7-7.3c0.6-3.7,2.8-6.4,4.9-6
	C396.3,183.7,397.5,186.9,396.9,190.6z"/>
<path id="XMLID_76_" class="st20" d="M396.9,231.8c-0.6,3.7-2.8,6.4-4.9,6c-2.1-0.3-3.3-3.6-2.7-7.3c0.6-3.7,2.8-6.4,4.9-6
	C396.3,224.9,397.5,228.1,396.9,231.8z"/>
<path id="XMLID_75_" class="st20" d="M388.9,277.3c-0.6,3.7-2.8,6.4-4.9,6c-2.1-0.3-3.3-3.6-2.7-7.3c0.6-3.7,2.8-6.4,4.9-6
	C388.3,270.3,389.5,273.6,388.9,277.3z"/>
<path id="XMLID_74_" class="st20" d="M375.5,320.7c-0.6,3.7-2.8,6.4-4.9,6c-2.1-0.3-3.3-3.6-2.7-7.3c0.6-3.7,2.8-6.4,4.9-6
	C374.9,313.7,376.1,317,375.5,320.7z"/>
<path id="XMLID_73_" class="st20" d="M349.2,359.1c-0.6,3.7-2.8,6.4-4.9,6c-2.1-0.3-3.3-3.6-2.7-7.3c0.6-3.7,2.8-6.4,4.9-6
	C348.6,352.2,349.8,355.4,349.2,359.1z"/>
<path id="XMLID_72_" class="st20" d="M327.4,386.3c-0.6,3.7-2.8,6.4-4.9,6c-2.1-0.3-3.3-3.6-2.7-7.3c0.6-3.7,2.8-6.4,4.9-6
	C326.9,379.3,328.1,382.6,327.4,386.3z"/>
<path id="XMLID_71_" class="st20" d="M299.6,409.9c-0.6,3.7-2.8,6.4-4.9,6c-2.1-0.3-3.3-3.6-2.7-7.3c0.6-3.7,2.8-6.4,4.9-6
	C299,403,300.2,406.3,299.6,409.9z"/>
<path id="XMLID_70_" class="st9" d="M260.4,165.1c-4.1,8.3-11.3,13.2-16.1,10.8c-4.8-2.4-5.5-11-1.4-19.3c4-8.3,11.3-13.2,16.1-10.8
	C263.8,148.1,264.4,156.8,260.4,165.1z"/>
<path id="XMLID_69_" class="st20" d="M255.4,161.5c-0.6,3.7-2.8,6.4-4.9,6c-2.1-0.3-3.3-3.6-2.7-7.3c0.6-3.7,2.8-6.4,4.9-6
	C254.8,154.5,256,157.8,255.4,161.5z"/>
<path id="XMLID_68_" class="st20" d="M230.3,205c-0.6,3.7-2.8,6.4-4.9,6c-2.1-0.3-3.3-3.6-2.7-7.3c0.6-3.7,2.8-6.4,4.9-6
	C229.7,198.1,230.9,201.3,230.3,205z"/>
<path id="XMLID_67_" class="st20" d="M210.8,252.3c-0.6,3.7-2.8,6.4-4.9,6c-2.1-0.3-3.3-3.6-2.7-7.3c0.6-3.7,2.8-6.4,4.9-6
	C210.2,245.4,211.4,248.6,210.8,252.3z"/>
<path id="XMLID_66_" class="st9" d="M203.7,298.9c-1.6,10.1-7.1,17.6-12.4,16.8c-5.3-0.8-8.4-9.7-6.8-19.8
	c1.6-10.1,7.1-17.6,12.4-16.8C202.2,280,205.2,288.8,203.7,298.9z"/>
<path id="XMLID_65_" class="st20" d="M201.4,298.1c-0.6,3.7-2.8,6.4-4.9,6c-2.1-0.3-3.3-3.6-2.7-7.3c0.6-3.7,2.8-6.4,4.9-6
	C200.8,291.1,202,294.4,201.4,298.1z"/>
<path id="XMLID_64_" class="st20" d="M197.2,340.8c0.3,3.7-1.2,6.9-3.3,7c-2.1,0.2-4.1-2.7-4.3-6.4c-0.3-3.7,1.2-6.9,3.3-7
	C195,334.2,196.9,337,197.2,340.8z"/>
<linearGradient id="XMLID_222_" gradientUnits="userSpaceOnUse" x1="210.4789" y1="403.5615" x2="210.69" y2="458.1747">
	<stop  offset="0" style="stop-color:#D8D9DA"/>
	<stop  offset="0.1697" style="stop-color:#868789"/>
	<stop  offset="0.3152" style="stop-color:#FFFFFF"/>
	<stop  offset="0.5091" style="stop-color:#B0B2B3"/>
	<stop  offset="0.6667" style="stop-color:#D8D9DA"/>
	<stop  offset="1" style="stop-color:#3D3D3F"/>
</linearGradient>
<path id="XMLID_63_" class="st21" d="M240.2,432.9c0,0,0,0-26.7,1.4c-7.7-1.5-34.6,0.9-32.4-16.4c-0.3-9.6,6.6-11.3,6.6-11.3
	l50.9-1.6L240.2,432.9z"/>
<linearGradient id="XMLID_223_" gradientUnits="userSpaceOnUse" x1="185.9679" y1="384.4277" x2="188.2704" y2="425.4065">
	<stop  offset="0" style="stop-color:#D8D9DA"/>
	<stop  offset="0.1697" style="stop-color:#868789"/>
	<stop  offset="0.3152" style="stop-color:#FFFFFF"/>
	<stop  offset="0.5091" style="stop-color:#B0B2B3"/>
	<stop  offset="0.6667" style="stop-color:#D8D9DA"/>
	<stop  offset="1" style="stop-color:#3D3D3F"/>
</linearGradient>
<path id="XMLID_62_" class="st22" d="M217.7,417.8c0,0-28.9,2.4-45.8-0.2c-22.4-3.5-12.6-28.1-12.6-28.1l56.6,0.1L217.7,417.8z"/>
<ellipse id="XMLID_61_" class="st9" cx="216.8" cy="403.7" rx="9.7" ry="14.2"/>
<linearGradient id="XMLID_224_" gradientUnits="userSpaceOnUse" x1="118.3973" y1="359.8096" x2="120.1378" y2="410.2882" gradientTransform="matrix(0.9992 3.960000e-002 -3.960000e-002 0.9992 61.2344 -3.4427)">
	<stop  offset="0" style="stop-color:#D8D9DA"/>
	<stop  offset="0.1697" style="stop-color:#868789"/>
	<stop  offset="0.3152" style="stop-color:#FFFFFF"/>
	<stop  offset="0.5091" style="stop-color:#B0B2B3"/>
	<stop  offset="0.6667" style="stop-color:#D8D9DA"/>
	<stop  offset="1" style="stop-color:#3D3D3F"/>
</linearGradient>
<path id="XMLID_60_" class="st23" d="M190.7,363.1c0,0-42.4-5.3-53.5-1.3c-10,3.6-3.9,26.2,8.2,26.6c6.9,0.3,52.6,4.7,52.6,4.7
	L190.7,363.1z"/>
<path id="XMLID_59_" class="st9" d="M205.3,376.5c0.9,8.7-2.7,16.2-8,16.7c-5.3,0.6-10.4-6-11.3-14.7c-0.9-8.7,2.7-16.2,8-16.7
	C199.3,361.3,204.3,367.9,205.3,376.5z"/>
<path id="XMLID_58_" class="st20" d="M201.6,377.5c0.1,3.7-1.5,6.8-3.6,6.9c-2.1,0.1-4-2.9-4.1-6.6c-0.1-3.7,1.5-6.8,3.6-6.9
	C199.6,370.8,201.5,373.8,201.6,377.5z"/>
<path id="XMLID_57_" class="st20" d="M223.5,402c0.3,3.7-1.2,6.9-3.3,7c-2.1,0.2-4.1-2.7-4.3-6.4c-0.3-3.7,1.2-6.9,3.3-7
	C221.3,395.4,223.3,398.3,223.5,402z"/>
<ellipse id="XMLID_56_" class="st9" cx="240.2" cy="418.9" rx="11.4" ry="14"/>
<path id="XMLID_37_" class="st20" d="M245.5,417.1c0.2,3.2-1.3,5.9-3.4,6c-2.1,0.2-4-2.3-4.3-5.5c-0.2-3.2,1.3-5.9,3.4-6
	C243.4,411.5,245.3,413.9,245.5,417.1z"/>
<path id="XMLID_36_" class="st9" d="M279.3,426.4c-2.9,8.3-10.6,13.3-17.1,11c-6.6-2.3-9.5-10.9-6.6-19.2c2.9-8.3,10.6-13.3,17.1-11
	C279.2,409.4,282.1,418.1,279.3,426.4z"/>
<path id="XMLID_35_" class="st20" d="M273.7,419.9c0.2,3.2-1.3,5.9-3.4,6c-2.1,0.2-4-2.3-4.3-5.5c-0.2-3.2,1.3-5.9,3.4-6
	C271.5,414.3,273.4,416.7,273.7,419.9z"/>
<linearGradient id="XMLID_225_" gradientUnits="userSpaceOnUse" x1="199.7068" y1="163.8828" x2="167.8382" y2="234.8173">
	<stop  offset="0" style="stop-color:#D8D9DA"/>
	<stop  offset="0.1697" style="stop-color:#868789"/>
	<stop  offset="0.3152" style="stop-color:#FFFFFF"/>
	<stop  offset="0.5091" style="stop-color:#B0B2B3"/>
	<stop  offset="0.6667" style="stop-color:#D8D9DA"/>
	<stop  offset="1" style="stop-color:#3D3D3F"/>
</linearGradient>
<path id="XMLID_34_" class="st24" d="M215.8,215.8c0,0-57-22.1-61.3-29.6c-4.3-7.6,2.1-20.1,12.8-20.7c10.7-0.6,62.7,20.9,62.7,20.9
	L215.8,215.8z"/>
<path id="XMLID_33_" class="st9" d="M233.4,205.4c-3.2,8.7-9.8,14.3-14.9,12.4c-5-1.8-6.6-10.4-3.4-19.1c3.2-8.7,9.8-14.3,14.9-12.4
	C235,188.1,236.6,196.7,233.4,205.4z"/>
<ellipse id="XMLID_32_" class="st25" cx="419" cy="185" rx="3.8" ry="5"/>
<ellipse id="XMLID_31_" class="st25" cx="427.2" cy="225" rx="3.8" ry="5"/>
<ellipse id="XMLID_30_" class="st25" cx="423.5" cy="276.6" rx="3.8" ry="5"/>
<ellipse id="XMLID_29_" class="st25" cx="397" cy="333.5" rx="3.8" ry="5"/>
<ellipse id="XMLID_28_" class="st25" cx="371.7" cy="372.2" rx="3.8" ry="5"/>
<ellipse id="XMLID_27_" class="st25" cx="335.7" cy="406.6" rx="3.8" ry="5"/>
<path id="XMLID_26_" class="st20" d="M228,202.7c-0.6,3.7-2.8,6.4-4.9,6c-2.1-0.3-3.3-3.6-2.7-7.3c0.6-3.7,2.8-6.4,4.9-6
	C227.4,195.7,228.6,199,228,202.7z"/>
<ellipse id="XMLID_25_" transform="matrix(0.9268 0.3757 -0.3757 0.9268 122.4944 -90.2165)" class="st26" cx="292.6" cy="269" rx="84.5" ry="143.3"/>
<ellipse id="XMLID_24_" transform="matrix(0.9268 0.3757 -0.3757 0.9268 123.2208 -91.3303)" class="st27" cx="295.8" cy="270.3" rx="81" ry="143.3"/>
<linearGradient id="XMLID_226_" gradientUnits="userSpaceOnUse" x1="339.1368" y1="131.5447" x2="232.2059" y2="454.454">
	<stop  offset="0" style="stop-color:#D8D9DA"/>
	<stop  offset="0.1697" style="stop-color:#868789"/>
	<stop  offset="0.3152" style="stop-color:#FFFFFF"/>
	<stop  offset="0.5091" style="stop-color:#B0B2B3"/>
	<stop  offset="0.6667" style="stop-color:#D8D9DA"/>
	<stop  offset="1" style="stop-color:#3D3D3F"/>
</linearGradient>
<path id="XMLID_23_" class="st28" d="M353.7,296.8c-25.7,63.4-73.9,103.7-107.6,90c-33.7-13.7-40.2-76.1-14.5-139.5
	c25.7-63.4,73.8-103.7,107.6-90C372.8,171,379.3,233.4,353.7,296.8z"/>
<path id="XMLID_20_" class="st29" d="M232.4,245.1c-10.9,26.1-15.9,53.2-16.1,75.7c1.4,2.4,2.3,2.9,4.5,3.9
	c14.5,6.2,42.3-24.6,62.1-68.8c18.9-42.3,23.6-81.6,11.2-90.4C269.1,181.7,247.6,208.7,232.4,245.1z"/>
</svg>
