<?xml version="1.0" encoding="utf-8"?>
<!-- Generator: Adobe Illustrator 19.0.0, SVG Export Plug-In . SVG Version: 6.00 Build 0)  -->
<svg version="1.1" id="Camada_1" xmlns="http://www.w3.org/2000/svg" xmlns:xlink="http://www.w3.org/1999/xlink" x="0px" y="0px"
	 viewBox="0 0 500 500" style="enable-background:new 0 0 500 500;" xml:space="preserve">
<style type="text/css">
	.st0{fill:#1A171B;stroke:#1A171B;stroke-width:4;stroke-miterlimit:10;}
	.st1{fill:url(#XMLID_63_);stroke:#1A171B;stroke-miterlimit:10;}
	.st2{fill:url(#XMLID_64_);stroke:#1A171B;stroke-miterlimit:10;}
	.st3{fill:url(#XMLID_65_);stroke:#1A171B;stroke-miterlimit:10;}
	.st4{fill:url(#XMLID_66_);stroke:#1A171B;stroke-miterlimit:10;}
	.st5{fill:url(#XMLID_67_);stroke:#1A171B;stroke-miterlimit:10;}
	.st6{fill:url(#XMLID_68_);stroke:#1A171B;stroke-miterlimit:10;}
	.st7{fill:url(#XMLID_69_);stroke:#1A171B;stroke-miterlimit:10;}
	.st8{fill:url(#XMLID_70_);stroke:#1A171B;stroke-miterlimit:10;}
	.st9{fill:#1A171B;stroke:#1A171B;stroke-miterlimit:10;}
	.st10{fill:url(#XMLID_71_);stroke:#1A171B;stroke-miterlimit:10;}
	.st11{fill:url(#XMLID_72_);stroke:#1A171B;stroke-miterlimit:10;}
</style>
<path id="XMLID_62_" class="st0" d="M227.7,155.2c0,0,44.2,3.6,86.9,8.7c34.7,4.2,66.1,9.7,75.7,10.7c29.8,2.8,84.2,54.5,15.2,85.5
	c-80,26.5-137.4-65.7-137.4-65.7L227.7,155.2z"/>
<path id="XMLID_61_" class="st0" d="M227.7,144c0,0,44.2,3.6,86.9,8.7c34.7,4.2,66.1,9.8,75.7,10.7c31.7,3,84.2,54.5,15.2,85.5
	c-80,26.5-137.4-65.7-137.4-65.7L227.7,144z"/>
<path id="XMLID_60_" class="st0" d="M286.5,197.4c0,0-81.1-75.5-86.4-79.9c-15.8-13.4-59.6,6.8-79.3,29.9
	c-19.6,23-36.9,54.3-20.7,67.3c1.3,1,96.3,86.8,96.3,86.8L286.5,197.4z"/>
<ellipse id="XMLID_59_" transform="matrix(0.7656 0.6433 -0.6433 0.7656 217.0707 -96.908)" class="st0" cx="241.5" cy="249.4" rx="44.2" ry="69"/>
<ellipse id="XMLID_58_" transform="matrix(0.7656 0.6433 -0.6433 0.7656 218.2713 -95.6784)" class="st0" cx="240.4" cy="251.7" rx="32.4" ry="51.8"/>
<path id="XMLID_57_" class="st0" d="M255.1,263.5c-17.1,20.4-39.8,29.5-50.6,20.4c-10.8-9.1-5.7-33,11.4-53.4
	c17.1-20.4,39.4-28,50.6-20.4C278.2,218,272.2,243.1,255.1,263.5z"/>
<path id="XMLID_56_" class="st0" d="M245.4,254.7c-15.1,18-33.9,27.1-42,20.3c-8.1-6.8-2.3-26.9,12.8-44.9
	c15.1-18,35.7-26.4,42-20.3C265.8,217.2,260.5,236.7,245.4,254.7z"/>
<path id="XMLID_37_" class="st0" d="M232.6,242.1c-11.7,14-24.3,21.8-29,18.8c-5.3-3.5,1.8-17.8,13.5-31.8
	c11.7-14,26.5-20.4,29-18.8C252.1,214,244.4,228.1,232.6,242.1z"/>
<ellipse id="XMLID_36_" transform="matrix(0.7656 0.6433 -0.6433 0.7656 201.1749 -86.3643)" class="st0" cx="219.1" cy="232.9" rx="4" ry="19.8"/>
<path id="XMLID_35_" class="st0" d="M107.5,212.2c41.5,7.8,95.9,65.3,103.2,98.9c0.3,7.2,8.4,61.4-65.2,61.4
	c-54.5,0-70-24-69.5-39.5c-2.9-50,15.2-104.1,24.5-118.6C102.2,211.8,106.6,212.1,107.5,212.2z"/>
<path id="XMLID_34_" class="st0" d="M107.5,202.8c41.5,7.8,98,65.5,103.2,98.9c0.3,7.2,8.4,61.4-65.2,61.4
	c-54.5,0-70.3-24.2-69.8-39.7c-2.9-50,15.5-103.9,24.8-118.5C102.2,202.3,106.6,202.6,107.5,202.8z"/>
<linearGradient id="XMLID_63_" gradientUnits="userSpaceOnUse" x1="334.1772" y1="171.9423" x2="328.5136" y2="286.8765">
	<stop  offset="0.1515" style="stop-color:#3D3D3F"/>
	<stop  offset="0.2364" style="stop-color:#4A4A4C"/>
	<stop  offset="0.3091" style="stop-color:#515153"/>
	<stop  offset="0.3758" style="stop-color:#646567"/>
	<stop  offset="0.5576" style="stop-color:#8C8E90"/>
	<stop  offset="0.7515" style="stop-color:#FFFFFF"/>
	<stop  offset="0.9091" style="stop-color:#C5C6C8"/>
</linearGradient>
<path id="XMLID_33_" class="st1" d="M227.7,155.2c0,0,44.2,3.6,86.9,8.7c34.7,4.2,66.1,9.7,75.7,10.7c29.8,2.8,84.2,54.5,15.2,85.5
	c-80,26.5-137.4-65.7-137.4-65.7L227.7,155.2z"/>
<linearGradient id="XMLID_64_" gradientUnits="userSpaceOnUse" x1="334.3997" y1="160.7227" x2="328.7361" y2="275.6569">
	<stop  offset="0.1515" style="stop-color:#3D3D3F"/>
	<stop  offset="0.2364" style="stop-color:#4A4A4C"/>
	<stop  offset="0.3091" style="stop-color:#515153"/>
	<stop  offset="0.3758" style="stop-color:#646567"/>
	<stop  offset="0.5576" style="stop-color:#8C8E90"/>
	<stop  offset="0.7515" style="stop-color:#FFFFFF"/>
	<stop  offset="0.9091" style="stop-color:#C5C6C8"/>
</linearGradient>
<path id="XMLID_32_" class="st2" d="M227.7,144c0,0,44.2,3.6,86.9,8.7c34.7,4.2,66.1,9.8,75.7,10.7c31.7,3,84.2,54.5,15.2,85.5
	c-80,26.5-137.4-65.7-137.4-65.7L227.7,144z"/>
<linearGradient id="XMLID_65_" gradientUnits="userSpaceOnUse" x1="232.2545" y1="146.9237" x2="123.9215" y2="260.9237">
	<stop  offset="7.878790e-002" style="stop-color:#3D3D3F"/>
	<stop  offset="0.5636" style="stop-color:#8C8E90"/>
	<stop  offset="0.7515" style="stop-color:#FFFFFF"/>
	<stop  offset="0.9091" style="stop-color:#C5C6C8"/>
</linearGradient>
<path id="XMLID_31_" class="st3" d="M286.5,197.4c0,0-81.1-75.5-86.4-79.9c-15.8-13.4-59.6,6.8-79.3,29.9
	c-19.6,23-36.9,54.3-20.7,67.3c1.3,1,96.3,86.8,96.3,86.8L286.5,197.4z"/>
<linearGradient id="XMLID_66_" gradientUnits="userSpaceOnUse" x1="185.0656" y1="136.983" x2="306.3989" y2="378.6507">
	<stop  offset="0" style="stop-color:#3D3D3F"/>
	<stop  offset="0.1394" style="stop-color:#8C8E90"/>
	<stop  offset="0.2727" style="stop-color:#FFFFFF"/>
	<stop  offset="0.4667" style="stop-color:#3D3D3F"/>
	<stop  offset="0.703" style="stop-color:#C5C6C8"/>
</linearGradient>
<path id="XMLID_30_" class="st4" d="M275.3,277.8c-24.5,29.2-59.5,40.1-78.2,24.4c-18.7-15.7-13.9-52,10.6-81.2
	c24.5-29.2,59.5-40.1,78.2-24.4C304.6,212.3,299.8,248.7,275.3,277.8z"/>
<linearGradient id="XMLID_67_" gradientUnits="userSpaceOnUse" x1="269.506" y1="220.4983" x2="202.8918" y2="291.9329">
	<stop  offset="0" style="stop-color:#3D3D3F"/>
	<stop  offset="0.2364" style="stop-color:#000000"/>
	<stop  offset="0.5576" style="stop-color:#868789"/>
	<stop  offset="0.7636" style="stop-color:#3D3D3F"/>
	<stop  offset="0.9758" style="stop-color:#B0B2B3"/>
</linearGradient>
<path id="XMLID_29_" class="st5" d="M265.2,272.5c-18.4,21.9-44.4,30.4-58.1,18.8c-13.7-11.5-9.9-38.6,8.5-60.5
	c18.4-21.9,44.5-30.4,58.1-18.9C287.5,223.5,283.6,250.6,265.2,272.5z"/>
<linearGradient id="XMLID_68_" gradientUnits="userSpaceOnUse" x1="296.3851" y1="235.7217" x2="249.6089" y2="329.2752" gradientTransform="matrix(1.0377 3.170000e-002 3.170000e-002 1.0266 -58.0529 -48.8983)">
	<stop  offset="0" style="stop-color:#3D3D3F"/>
	<stop  offset="0.1394" style="stop-color:#000000"/>
	<stop  offset="0.3818" style="stop-color:#B0B2B3"/>
	<stop  offset="0.5576" style="stop-color:#868789"/>
	<stop  offset="0.8545" style="stop-color:#3D3D3F"/>
	<stop  offset="0.9152" style="stop-color:#D8D9DA"/>
	<stop  offset="0.9758" style="stop-color:#B0B2B3"/>
</linearGradient>
<path id="XMLID_28_" class="st6" d="M255.1,263.5c-17.1,20.4-39.8,29.5-50.6,20.4c-10.8-9.1-5.7-33,11.4-53.4
	c17.1-20.4,39.4-28,50.6-20.4C278.2,218,272.2,243.1,255.1,263.5z"/>
<linearGradient id="XMLID_69_" gradientUnits="userSpaceOnUse" x1="388.7055" y1="531.7068" x2="353.6324" y2="597.0319" gradientTransform="matrix(1.4396 0.174 0.174 1.3788 -403.7159 -596.1278)">
	<stop  offset="0" style="stop-color:#3D3D3F"/>
	<stop  offset="0.3394" style="stop-color:#000000"/>
	<stop  offset="0.6" style="stop-color:#B0B2B3"/>
	<stop  offset="0.8545" style="stop-color:#3D3D3F"/>
	<stop  offset="0.9758" style="stop-color:#B0B2B3"/>
</linearGradient>
<path id="XMLID_27_" class="st7" d="M245.4,254.7c-15.1,18-33.9,27.1-42,20.3c-8.1-6.8-2.3-26.9,12.8-44.9
	c15.1-18,35.7-26.4,42-20.3C265.8,217.2,260.5,236.7,245.4,254.7z"/>
<linearGradient id="XMLID_70_" gradientUnits="userSpaceOnUse" x1="286.6932" y1="329.9182" x2="244.1514" y2="382.5477" gradientTransform="matrix(1.1217 2.880000e-002 2.880000e-002 1.1116 -82.3537 -168.9701)">
	<stop  offset="0" style="stop-color:#3D3D3F"/>
	<stop  offset="0.3091" style="stop-color:#000000"/>
	<stop  offset="0.6182" style="stop-color:#868789"/>
	<stop  offset="0.8545" style="stop-color:#3D3D3F"/>
	<stop  offset="0.9758" style="stop-color:#B0B2B3"/>
</linearGradient>
<path id="XMLID_26_" class="st8" d="M232.6,242.1c-11.7,14-24.3,21.8-29,18.8c-5.3-3.5,1.8-17.8,13.5-31.8
	c11.7-14,26.5-20.4,29-18.8C252.1,214,244.4,228.1,232.6,242.1z"/>
<ellipse id="XMLID_25_" transform="matrix(0.7656 0.6433 -0.6433 0.7656 201.1749 -86.3643)" class="st9" cx="219.1" cy="232.9" rx="4" ry="19.8"/>
<linearGradient id="XMLID_71_" gradientUnits="userSpaceOnUse" x1="122.5754" y1="218.3331" x2="158.2892" y2="399.2427">
	<stop  offset="0.1515" style="stop-color:#3D3D3F"/>
	<stop  offset="0.2364" style="stop-color:#4A4A4C"/>
	<stop  offset="0.3091" style="stop-color:#515153"/>
	<stop  offset="0.3758" style="stop-color:#646567"/>
	<stop  offset="0.5576" style="stop-color:#8C8E90"/>
	<stop  offset="0.7515" style="stop-color:#FFFFFF"/>
	<stop  offset="0.9091" style="stop-color:#C5C6C8"/>
</linearGradient>
<path id="XMLID_24_" class="st10" d="M107.5,212.2c41.5,7.8,95.9,65.3,103.2,98.9c0.3,7.2,8.4,61.4-65.2,61.4
	c-54.5,0-70-24-69.5-39.5c-2.9-50,15.2-104.1,24.5-118.6C102.2,211.8,106.6,212.1,107.5,212.2z"/>
<linearGradient id="XMLID_72_" gradientUnits="userSpaceOnUse" x1="122.4579" y1="208.8661" x2="158.1717" y2="389.7757">
	<stop  offset="0.1515" style="stop-color:#3D3D3F"/>
	<stop  offset="0.2364" style="stop-color:#4A4A4C"/>
	<stop  offset="0.3091" style="stop-color:#515153"/>
	<stop  offset="0.3758" style="stop-color:#646567"/>
	<stop  offset="0.5576" style="stop-color:#8C8E90"/>
	<stop  offset="0.7515" style="stop-color:#FFFFFF"/>
	<stop  offset="0.9091" style="stop-color:#C5C6C8"/>
</linearGradient>
<path id="XMLID_23_" class="st11" d="M107.5,202.8c41.5,7.8,98,65.5,103.2,98.9c0.3,7.2,8.4,61.4-65.2,61.4
	c-54.5,0-70.3-24.2-69.8-39.7c-2.9-50,15.5-103.9,24.8-118.5C102.2,202.3,106.6,202.6,107.5,202.8z"/>
</svg>
