<?xml version="1.0" encoding="utf-8"?>
<!-- Generator: Adobe Illustrator 19.0.0, SVG Export Plug-In . SVG Version: 6.00 Build 0)  -->
<svg version="1.1" id="Camada_1" xmlns="http://www.w3.org/2000/svg" xmlns:xlink="http://www.w3.org/1999/xlink" x="0px" y="0px"
	 viewBox="0 0 500 500" style="enable-background:new 0 0 500 500;" xml:space="preserve">
<style type="text/css">
	.st0{fill:#3C3C3B;stroke:#000000;stroke-width:6.7304;stroke-linejoin:round;stroke-miterlimit:10;}
	.st1{fill:#D6C3DA;}
	.st2{fill:#9D9D9C;stroke:#000000;stroke-width:2.2435;stroke-linejoin:round;stroke-miterlimit:10;}
	.st3{fill:#3C3C3B;stroke:#000000;stroke-width:2.2435;stroke-linejoin:round;stroke-miterlimit:10;}
	.st4{fill:#DADADA;stroke:#000000;stroke-width:2.2435;stroke-linejoin:round;stroke-miterlimit:10;}
	.st5{fill:#36A9E1;stroke:#000000;stroke-width:2.2435;stroke-linejoin:round;stroke-miterlimit:10;}
	.st6{fill:#E1DFB9;stroke:#000000;stroke-width:2.2435;stroke-linejoin:round;stroke-miterlimit:10;}
	.st7{fill:#527B8B;stroke:#000000;stroke-width:2.2435;stroke-linejoin:round;stroke-miterlimit:10;}
	.st8{fill:none;stroke:#F39200;stroke-width:11.2173;stroke-linejoin:round;}
	.st9{fill:#F39200;}
</style>
<g id="XMLID_2_">
	<g id="XMLID_35_">
		<polygon id="XMLID_66_" class="st0" points="300.5,126.3 315.5,119.4 311.6,110.7 314,115.9 422.1,66.6 405.4,29.9 297.2,79.3 
			295.6,75.8 282.5,81.8 282.2,81.2 303.4,61 303.4,39.5 308.9,39.5 308.9,21.3 233.3,21.3 199.8,59.1 199.8,67.6 172.7,67.6 
			172.7,89.7 79.4,89.7 79.4,141 172.7,141 172.7,163.1 199.8,163.1 199.8,169.5 233.3,207.3 308.9,207.3 308.9,193.9 308.9,189.1 
			308.9,157.6 305.5,141 299.8,126.4 300.3,125.7 298.3,121.4 298.3,121.4 		"/>
		<polygon id="XMLID_63_" class="st1" points="308.9,193.9 308.9,157.6 305.5,141 280.6,82.7 303.4,61 303.4,34.1 241.9,34.1 
			208.2,72.9 208.2,163.1 241.9,193.9 		"/>
		<rect id="XMLID_62_" x="79.4" y="89.7" class="st2" width="93.4" height="51.3"/>
		<rect id="XMLID_61_" x="172.7" y="67.6" class="st2" width="27.1" height="95.5"/>
		
			<rect id="XMLID_60_" x="300.2" y="52.8" transform="matrix(0.9097 -0.4153 0.4153 0.9097 2.2007 155.9608)" class="st3" width="118.9" height="40.3"/>
		<polygon id="XMLID_59_" class="st4" points="217.3,94.3 253.3,173.2 293.1,165.6 305.5,141 271.1,52.6 232.6,36.2 208.2,67.6 		
			"/>
		<polygon id="XMLID_58_" class="st4" points="236.5,108.4 249.4,139.8 280.6,139.8 303.4,115.9 288.9,86.5 255.7,87.4 		"/>
		<polygon id="XMLID_57_" class="st5" points="239.2,112.4 259.9,95 286.9,96.6 280.6,82.7 253,79.9 230.7,99.5 		"/>
		<polygon id="XMLID_56_" class="st5" points="248.6,137.8 277.4,133.3 293.9,111.9 300.3,125.7 284.3,148.4 254.9,152.4 		"/>
		<path id="XMLID_52_" class="st6" d="M287.1,106.1c4.6,10.1,0.2,22.1-10,26.7c-10.1,4.6-22.1,0.2-26.7-10
			c-4.6-10.1-0.2-22.1,10-26.7C270.5,91.5,282.5,95.9,287.1,106.1z"/>
		<circle id="XMLID_48_" class="st6" cx="252.8" cy="61" r="20.2"/>
		<circle id="XMLID_44_" class="st6" cx="273" cy="168.8" r="20.2"/>
		<polygon id="XMLID_43_" class="st7" points="217.3,74 217.3,71.5 245,39.5 308.9,39.5 308.9,21.3 233.3,21.3 199.8,59.1 199.8,74 
			199.8,154.6 199.8,169.5 233.3,207.3 308.9,207.3 308.9,189.1 245,189.1 217.3,157.1 217.3,154.6 		"/>
		
			<rect id="XMLID_42_" x="289.8" y="77.1" transform="matrix(0.9097 -0.4153 0.4153 0.9097 -15.0434 132.9048)" class="st3" width="16.5" height="47.9"/>
		<g id="XMLID_36_">
			<g id="XMLID_50_">
				<path id="XMLID_54_" class="st8" d="M391.7,198.2c0,0,23-25.7,11.5-65.8"/>
				<g id="XMLID_51_">
					<polygon id="XMLID_53_" class="st9" points="422.7,130.4 391.6,106.7 386.7,145.6 					"/>
				</g>
			</g>
		</g>
	</g>
	<g id="XMLID_3_">
		<polygon id="XMLID_34_" class="st0" points="300.5,374.6 315.5,381.4 311.6,390.1 314,384.9 422.1,434.3 405.4,470.9 297.2,421.6 
			295.6,425 282.5,419 282.2,419.7 303.4,439.8 303.4,461.4 308.9,461.4 308.9,479.5 233.3,479.5 199.8,441.8 199.8,433.2 
			172.7,433.2 172.7,411.1 79.4,411.1 79.4,359.8 172.7,359.8 172.7,337.7 199.8,337.7 199.8,331.3 233.3,293.5 308.9,293.5 
			308.9,306.9 308.9,311.7 308.9,343.2 305.5,359.8 299.8,374.4 300.3,375.1 298.3,379.5 298.3,379.5 		"/>
		<polygon id="XMLID_31_" class="st1" points="308.9,306.9 308.9,343.2 305.5,359.8 280.6,418.1 303.4,439.8 303.4,466.7 
			241.9,466.7 208.2,427.9 208.2,337.7 241.9,306.9 		"/>
		<rect id="XMLID_30_" x="79.4" y="359.8" class="st2" width="93.4" height="51.3"/>
		<rect id="XMLID_29_" x="172.7" y="337.7" class="st2" width="27.1" height="95.5"/>
		
			<rect id="XMLID_28_" x="300.2" y="407.7" transform="matrix(0.9097 0.4153 -0.4153 0.9097 210.211 -110.7264)" class="st3" width="118.9" height="40.3"/>
		<polygon id="XMLID_27_" class="st4" points="217.3,406.6 253.3,327.6 293.1,335.2 305.5,359.8 271.1,448.2 232.6,464.6 
			208.2,433.2 		"/>
		<polygon id="XMLID_26_" class="st4" points="236.5,392.4 249.4,361.1 280.6,361.1 303.4,384.9 288.9,414.3 255.7,413.4 		"/>
		<polygon id="XMLID_25_" class="st5" points="239.2,388.4 259.9,405.8 286.9,404.3 280.6,418.1 253,420.9 230.7,401.3 		"/>
		<polygon id="XMLID_24_" class="st5" points="248.6,363 277.4,367.5 293.9,389 300.3,375.1 284.3,352.4 254.9,348.4 		"/>
		<path id="XMLID_20_" class="st6" d="M287.1,394.8c4.6-10.1,0.2-22.1-10-26.7c-10.1-4.6-22.1-0.2-26.7,10
			c-4.6,10.1-0.2,22.1,10,26.7C270.5,409.4,282.5,404.9,287.1,394.8z"/>
		<circle id="XMLID_16_" class="st6" cx="252.8" cy="439.8" r="20.2"/>
		<circle id="XMLID_12_" class="st6" cx="273" cy="332" r="20.2"/>
		<polygon id="XMLID_11_" class="st7" points="217.3,426.8 217.3,429.3 245,461.4 308.9,461.4 308.9,479.5 233.3,479.5 199.8,441.8 
			199.8,426.8 199.8,346.3 199.8,331.3 233.3,293.5 308.9,293.5 308.9,311.7 245,311.7 217.3,343.8 217.3,346.3 		"/>
		
			<rect id="XMLID_10_" x="289.8" y="375.8" transform="matrix(0.9097 0.4153 -0.4153 0.9097 192.9411 -87.68)" class="st3" width="16.5" height="47.9"/>
		<g id="XMLID_4_">
			<g id="XMLID_18_">
				<path id="XMLID_22_" class="st8" d="M391.7,302.6c0,0,23,25.7,11.5,65.8"/>
				<g id="XMLID_19_">
					<polygon id="XMLID_21_" class="st9" points="386.9,355.4 391.8,394.2 422.9,370.5 					"/>
				</g>
			</g>
		</g>
	</g>
</g>
</svg>
