<?xml version="1.0" encoding="utf-8"?>
<!-- Generator: Adobe Illustrator 19.0.0, SVG Export Plug-In . SVG Version: 6.00 Build 0)  -->
<svg version="1.1" id="Camada_1" xmlns="http://www.w3.org/2000/svg" xmlns:xlink="http://www.w3.org/1999/xlink" x="0px" y="0px"
	 viewBox="0 0 500 500" style="enable-background:new 0 0 500 500;" xml:space="preserve">
<style type="text/css">
	.st0{fill:#1D1D1B;stroke:#1D1D1B;stroke-width:6.4207;stroke-linejoin:round;stroke-miterlimit:10;}
	.st1{fill:#D77E33;stroke:#1D1D1B;stroke-width:2.1402;stroke-linejoin:round;stroke-miterlimit:10;}
	.st2{fill:#E9DCC0;stroke:#1D1D1B;stroke-width:2.1402;stroke-linejoin:round;stroke-miterlimit:10;}
	.st3{fill:#3C3C3B;stroke:#1D1D1B;stroke-width:2.1402;stroke-linejoin:round;stroke-miterlimit:10;}
	.st4{fill:#B1B1B1;}
	.st5{fill:#D9D9D9;}
</style>
<g id="XMLID_61_">
	<path id="XMLID_59_" class="st0" d="M406,171.2h-50.6v-16h-15.7v-33.9c0-7.9-6.4-14.2-14.2-14.2c-7.9,0-14.2,6.4-14.2,14.2v-11
		c0-30.4-24.6-55-55-55h-9.6c-30.4,0-55,24.6-55,55v11c0-7.9-6.4-14.2-14.2-14.2c-7.9,0-14.2,6.4-14.2,14.2v33.9h-16.8v16H95.8
		c-15.2,0-27.5,12.3-27.5,27.5v103.1c0,15.2,12.3,27.5,27.5,27.5h50.6v17.9h16.8v33.9c0,7.9,6.4,14.2,14.2,14.2
		c7.9,0,14.2-6.4,14.2-14.2v5.8c0,30.4,24.6,55,55,55h9.6c30.4,0,55-24.6,55-55v-5.8c0,7.9,6.4,14.2,14.2,14.2
		c7.9,0,14.2-6.4,14.2-14.2v-33.9h15.7v-17.9H406c15.2,0,27.5-12.3,27.5-27.5V198.7C433.5,183.5,421.2,171.2,406,171.2z"/>
	<path id="XMLID_58_" class="st1" d="M208.5,301.8c0,15.2-12.3,27.5-27.5,27.5H95.8c-15.2,0-27.5-12.3-27.5-27.5V198.7
		c0-15.2,12.3-27.5,27.5-27.5H181c15.2,0,27.5,12.3,27.5,27.5V301.8z"/>
	<path id="XMLID_57_" class="st1" d="M433.5,301.8c0,15.2-12.3,27.5-27.5,27.5h-85.2c-15.2,0-27.5-12.3-27.5-27.5V198.7
		c0-15.2,12.3-27.5,27.5-27.5H406c15.2,0,27.5,12.3,27.5,27.5V301.8z"/>
	<g id="XMLID_71_">
		<rect id="XMLID_56_" x="146.4" y="255.1" class="st2" width="20.9" height="42.7"/>
		<rect id="XMLID_37_" x="146.4" y="304.5" class="st2" width="20.9" height="42.7"/>
		<rect id="XMLID_36_" x="146.4" y="205.1" class="st2" width="20.9" height="42.7"/>
		<rect id="XMLID_35_" x="146.4" y="155.2" class="st2" width="20.9" height="42.7"/>
		<rect id="XMLID_34_" x="334.6" y="255.1" class="st2" width="20.9" height="42.7"/>
		<rect id="XMLID_33_" x="334.6" y="304.5" class="st2" width="20.9" height="42.7"/>
		<rect id="XMLID_32_" x="334.6" y="205.1" class="st2" width="20.9" height="42.7"/>
		<rect id="XMLID_31_" x="334.6" y="155.2" class="st2" width="20.9" height="42.7"/>
	</g>
	<path id="XMLID_30_" class="st3" d="M311.3,387c0,30.4-24.6,55-55,55h-9.6c-30.4,0-55-24.6-55-55V110.3c0-30.4,24.6-55,55-55h9.6
		c30.4,0,55,24.6,55,55V387z"/>
	<path id="XMLID_29_" class="st1" d="M191.7,381.2c0,7.9-6.4,14.2-14.2,14.2l0,0c-7.9,0-14.2-6.4-14.2-14.2V121.2
		c0-7.9,6.4-14.2,14.2-14.2l0,0c7.9,0,14.2,6.4,14.2,14.2V381.2z"/>
	<path id="XMLID_28_" class="st1" d="M339.7,381.2c0,7.9-6.4,14.2-14.2,14.2l0,0c-7.9,0-14.2-6.4-14.2-14.2V121.2
		c0-7.9,6.4-14.2,14.2-14.2l0,0c7.9,0,14.2,6.4,14.2,14.2V381.2z"/>
	<rect id="XMLID_27_" x="230.6" y="93.1" class="st4" width="16.3" height="302.3"/>
	<rect id="XMLID_26_" x="254.9" y="93.1" class="st4" width="8.2" height="302.3"/>
	<rect id="XMLID_25_" x="86.7" y="179.4" class="st5" width="51.7" height="3.9"/>
	<rect id="XMLID_24_" x="86.7" y="185.2" class="st5" width="51.7" height="1.9"/>
	<rect id="XMLID_23_" x="363.4" y="179.4" class="st5" width="51.7" height="3.9"/>
	<rect id="XMLID_20_" x="363.4" y="185.2" class="st5" width="51.7" height="1.9"/>
</g>
</svg>
