<?xml version="1.0" encoding="utf-8"?>
<!-- Generator: Adobe Illustrator 19.0.0, SVG Export Plug-In . SVG Version: 6.00 Build 0)  -->
<svg version="1.1" id="Camada_1" xmlns="http://www.w3.org/2000/svg" xmlns:xlink="http://www.w3.org/1999/xlink" x="0px" y="0px"
	 viewBox="-55 147 500 500" style="enable-background:new -55 147 500 500;" xml:space="preserve">
<style type="text/css">
	.st0{fill:url(#XMLID_3_);stroke:#6F6F6E;stroke-width:2.8837;stroke-linecap:round;stroke-linejoin:round;stroke-miterlimit:10;}
	.st1{fill:url(#XMLID_4_);stroke:#6F6F6E;stroke-width:2.8837;stroke-linecap:round;stroke-linejoin:round;stroke-miterlimit:10;}
	.st2{fill:url(#XMLID_5_);stroke:#6F6F6E;stroke-width:2.8837;stroke-linecap:round;stroke-linejoin:round;stroke-miterlimit:10;}
	
		.st3{fill:none;stroke:#35A8E0;stroke-width:1.8017;stroke-linecap:round;stroke-linejoin:round;stroke-miterlimit:10;stroke-dasharray:9.0087,3.6035;}
	.st4{fill:#6F6F6E;stroke:#1D1D1B;stroke-width:2.3762;stroke-linecap:round;stroke-linejoin:round;stroke-miterlimit:10;}
	.st5{fill:#3C3C3B;stroke:#1D1D1B;stroke-width:2.3762;stroke-linecap:round;stroke-linejoin:round;stroke-miterlimit:10;}
	.st6{fill:#3C3C3B;stroke:#35A8E0;stroke-width:2.7362;stroke-miterlimit:10;stroke-dasharray:9.1207,3.6483;}
	.st7{fill:#6F6F6E;stroke:#1D1D1B;stroke-width:2.2199;stroke-miterlimit:10;}
	.st8{fill:#C6C6C5;stroke:#1D1D1B;stroke-width:1.1099;stroke-miterlimit:10;}
	.st9{fill:none;stroke:#35A8E0;stroke-width:2.7362;stroke-linejoin:round;stroke-miterlimit:10;stroke-dasharray:9.1207,3.6483;}
	.st10{fill:none;stroke:#35A8E0;stroke-width:4.2616;stroke-linecap:round;stroke-linejoin:round;}
	.st11{fill:#35A8E0;}
</style>
<g id="XMLID_224_">
	
		<linearGradient id="XMLID_3_" gradientUnits="userSpaceOnUse" x1="226.3337" y1="256.3251" x2="480.0804" y2="432.1421" gradientTransform="matrix(0.9758 -0.2188 0.2188 0.9758 -58.6868 50.6542)">
		<stop  offset="0" style="stop-color:#6F6F6E"/>
		<stop  offset="0.2704" style="stop-color:#9C9B9B"/>
		<stop  offset="0.3878" style="stop-color:#8D8C8C"/>
		<stop  offset="0.7971" style="stop-color:#5C5B5B"/>
		<stop  offset="1" style="stop-color:#494848"/>
	</linearGradient>
	<path id="XMLID_229_" class="st0" d="M245.4,184.9C82.8,211.4,28.4,222,12.2,274.8c-15.1,49.2,135.2,32.1,228.5,51.3
		c93.3,19.2,146.5-53.4,156.8-82.2C406.6,218.2,408,158.5,245.4,184.9z M381.3,244.1c-9.2,25.6-56.6,87.8-139.8,71.1
		c-83.2-16.7-235.9-2.9-215.6-44.9c20.7-42.9,69.5-50.7,218.1-75.7C389.1,170.2,389.5,221.2,381.3,244.1z"/>
	
		<linearGradient id="XMLID_4_" gradientUnits="userSpaceOnUse" x1="133.6015" y1="163.0179" x2="182.6991" y2="288.2393" gradientTransform="matrix(0.9932 -0.1162 0.1162 0.9932 1.8326 7.4927)">
		<stop  offset="0" style="stop-color:#1D1D1B"/>
		<stop  offset="1" style="stop-color:#868686"/>
	</linearGradient>
	<path id="XMLID_228_" class="st1" d="M36,280.3c20.7-42.9,69.5-50.7,218.1-75.7c72.6-12.2,109-5.6,126.2,7
		c-11.4-18-45.8-31.6-135.3-16.6C96.3,220,47.6,227.8,26.9,270.7c-4.2,8.8-0.9,15.1,7.7,19.8C33.7,287.5,34.1,284.1,36,280.3z"/>
	
		<linearGradient id="XMLID_5_" gradientUnits="userSpaceOnUse" x1="177.6266" y1="268.2225" x2="204.6529" y2="382.6335" gradientTransform="matrix(0.9932 -0.1162 0.1162 0.9932 1.8326 7.4927)">
		<stop  offset="0" style="stop-color:#3C3C3B"/>
		<stop  offset="0.6071" style="stop-color:#6F6F6E"/>
		<stop  offset="1" style="stop-color:#40403F"/>
	</linearGradient>
	<path id="XMLID_227_" class="st2" d="M398.2,244.2C388,273,334.8,345.6,241.5,326.4c-81-16.6-204.8-6-226.3-35l0,0l7.9,13.2l0,0
		c19.8,30,145.2,19,226.8,35.8c93.3,19.2,146.5-53.4,156.8-82.2c3.4-9.6,5.7-23.9-1.2-36.8l-8.3-13.7
		C404,220.5,401.6,234.7,398.2,244.2z"/>
	<polyline id="XMLID_226_" class="st3" points="125.6,329.5 114.3,314.8 123.8,305.6 	"/>
	<polyline id="XMLID_225_" class="st3" points="187.8,332.1 176.5,317.4 185.9,308.2 	"/>
</g>
<g id="XMLID_204_">
	<path id="XMLID_223_" class="st4" d="M103.7,425.2l-75.6,22.2c78.7,36.7,166.1,56.5,166.1,56.5l93.2-24.8
		C287.5,479.1,189.5,460.8,103.7,425.2z"/>
	<path id="XMLID_222_" class="st5" d="M194.3,503.9c0,0-85.9-18.2-166.3-56.4l0,0c2.3,34,7.5,55.2,16.1,79.2
		c50,24.7,169.5,57.9,169.5,57.9L194.3,503.9z"/>
	<g id="XMLID_212_">
		<path id="XMLID_221_" class="st6" d="M263.9,571.5l-46.6,12.7c-2.9,0.8-5.4-0.1-5.8-2l-17.2-74.3c-0.6-2.5,2.2-5.6,5.9-6.6
			l82.7-22.5c3.7-1,6.4,0.6,5.8,3.4l-18.9,84.1C269.3,568.5,266.8,570.7,263.9,571.5z"/>
		<path id="XMLID_220_" class="st7" d="M259.5,565.1L222,575.3c-2.3,0.6-4.3-0.1-4.7-1.7l-13.8-61.7c-0.5-2,1.8-4.6,4.8-5.4
			l66.5-18.1c2.9-0.8,5.2,0.6,4.7,2.9l-15.2,69.6C263.8,562.7,261.8,564.5,259.5,565.1z"/>
		<g id="XMLID_213_">
			<path id="XMLID_219_" class="st8" d="M218.3,515.4c0,1.8-1.7,3.8-3.8,4.3c-2.1,0.6-3.8-0.4-3.8-2.3c0-1.8,1.7-3.8,3.8-4.3
				C216.7,512.6,218.4,513.6,218.3,515.4z"/>
			<path id="XMLID_218_" class="st8" d="M229.2,512.5c0,1.8-1.7,3.8-3.8,4.3c-2.1,0.6-3.8-0.4-3.8-2.3c0-1.8,1.7-3.8,3.8-4.3
				S229.2,510.7,229.2,512.5z"/>
			<path id="XMLID_217_" class="st8" d="M240,509.5c0,1.8-1.7,3.8-3.8,4.3c-2.1,0.6-3.8-0.4-3.8-2.3c0-1.8,1.7-3.8,3.8-4.3
				C238.3,506.7,240,507.7,240,509.5z"/>
			<path id="XMLID_216_" class="st8" d="M250.8,506.6c0,1.8-1.7,3.8-3.8,4.3s-3.8-0.4-3.8-2.3c0-1.8,1.7-3.8,3.8-4.3
				S250.8,504.8,250.8,506.6z"/>
			<path id="XMLID_215_" class="st8" d="M261.6,503.7c0,1.8-1.7,3.8-3.8,4.3c-2.1,0.6-3.8-0.4-3.8-2.3c0-1.8,1.7-3.8,3.8-4.3
				C260,500.8,261.6,501.8,261.6,503.7z"/>
			<path id="XMLID_214_" class="st8" d="M272.4,500.7c0,1.8-1.7,3.8-3.8,4.3c-2.1,0.6-3.8-0.4-3.8-2.3s1.7-3.8,3.8-4.3
				C270.8,497.9,272.5,498.9,272.4,500.7z"/>
		</g>
	</g>
	<path id="XMLID_211_" class="st9" d="M44,526.7c0,0-17-35.2-16.1-79.2c17.4-5.1,75.8-22.3,75.8-22.3"/>
	<path id="XMLID_210_" class="st9" d="M287.5,479.1c0,0,56,13.5,120.7,37.3"/>
	<path id="XMLID_209_" class="st9" d="M213.5,584.6c0,0,47.4,10.9,108.4,31.2"/>
	<line id="XMLID_208_" class="st9" x1="28.1" y1="447.5" x2="-27.7" y2="425.1"/>
	<line id="XMLID_207_" class="st9" x1="103.7" y1="425.2" x2="23.3" y2="396.6"/>
	<line id="XMLID_206_" class="st9" x1="44" y1="526.7" x2="-19.2" y2="503.9"/>
	<path id="XMLID_205_" class="st9" d="M269.8,566.3c0,0,12.1,1.5,91.8,25.4"/>
</g>
<g id="XMLID_249_">
	<g>
		<line class="st10" x1="152.2" y1="336.8" x2="156.2" y2="412.2"/>
		<g>
			<polygon class="st11" points="144.7,404.4 156,408.5 166.8,403.3 157.2,430 			"/>
		</g>
	</g>
</g>
</svg>
