<?xml version="1.0" encoding="utf-8"?>
<!-- Generator: Adobe Illustrator 19.0.0, SVG Export Plug-In . SVG Version: 6.00 Build 0)  -->
<svg version="1.1" id="Camada_1" xmlns="http://www.w3.org/2000/svg" xmlns:xlink="http://www.w3.org/1999/xlink" x="0px" y="0px"
	 viewBox="0 0 500 500" style="enable-background:new 0 0 500 500;" xml:space="preserve">
<style type="text/css">
	.st0{fill:#1D1D1B;stroke:#1D1D1B;stroke-width:6.3802;stroke-linejoin:round;stroke-miterlimit:10;}
	.st1{fill:#C6404A;stroke:#1D1D1B;stroke-width:2.1267;stroke-linejoin:round;stroke-miterlimit:10;}
	.st2{fill:#1D1D1B;stroke:#1D1D1B;stroke-width:2.1267;stroke-linejoin:round;stroke-miterlimit:10;}
	.st3{fill:#C6C6C5;stroke:#1D1D1B;stroke-width:2.1267;stroke-linejoin:round;stroke-miterlimit:10;}
	.st4{fill:#3C3C3B;stroke:#1D1D1B;stroke-width:2.1267;stroke-linejoin:round;stroke-miterlimit:10;}
	.st5{fill:#ECECEC;stroke:#1D1D1B;stroke-width:2.1267;stroke-linejoin:round;stroke-miterlimit:10;}
	.st6{fill:#A5343F;stroke:#1D1D1B;stroke-width:2.1267;stroke-linejoin:round;stroke-miterlimit:10;}
	.st7{fill:#D9D9D9;}
</style>
<g id="XMLID_79_">
	<path id="XMLID_77_" class="st0" d="M424.3,158.8h-40.9c-11.1-45.3-30.4-76.3-52.7-79.7v-0.3h-70.9c-1.5,0-3,0.1-4.4,0.4
		c-0.1,0-0.2,0-0.3,0v-0.3h-70.9c-17.8,0-33.9,17.5-45.9,46.1h-2.9c-2.6,0-4.8,5.4-4.8,12c0,2.5,0.3,4.9,0.8,6.8
		c-1.5,4.8-2.9,9.9-4.2,15.1H76.6c-19.7,0-35.7,40.4-35.7,90.2c0,49.8,16,90.2,35.7,90.2h51.6c1,3.9,2.1,7.7,3.2,11.3
		c-0.4,1.8-0.6,3.8-0.6,5.9c0,6.6,2.1,12,4.8,12h2.2c12,29.5,28.4,47.6,46.5,47.6c1.4,0,2.7-0.1,4.1-0.3h58.6
		c1.4,0.2,2.7,0.3,4.1,0.3c1.4,0,2.7-0.1,4.1-0.3h0v0c0.1,0,0.2,0,0.3,0c1.5,0.2,2.9,0.4,4.4,0.4c1.4,0,2.7-0.1,4.1-0.3h58.6
		c1.4,0.2,2.7,0.3,4.1,0.3c1.4,0,2.7-0.1,4.1-0.3h0v0c21.8-3.3,40.7-33,51.9-76.6h41.6c19.7,0,35.7-40.4,35.7-90.2
		C460,199.1,444,158.8,424.3,158.8z"/>
	<path id="XMLID_76_" class="st1" d="M424.3,158.8H76.6v180.3h347.6c19.7,0,35.7-40.4,35.7-90.2C460,199.1,444,158.8,424.3,158.8z"
		/>
	<path id="XMLID_75_" class="st1" d="M393.3,247.3c0-89.6-27.7-162.9-62.7-168.3v-0.3h-70.9v336.9h62.7c1.4,0.2,2.7,0.3,4.1,0.3
		c1.4,0,2.7-0.1,4.1-0.3h0v0C365.6,410.3,393.3,337,393.3,247.3z"/>
	<ellipse id="XMLID_74_" class="st2" cx="259.8" cy="247.3" rx="66.8" ry="168.6"/>
	<path id="XMLID_73_" class="st1" d="M317.8,247.3c0-89.6-27.7-162.9-62.7-168.3v-0.3h-70.9v336.9h62.7c1.4,0.2,2.7,0.3,4.1,0.3
		c1.4,0,2.7-0.1,4.1-0.3h0v0C290.1,410.3,317.8,337,317.8,247.3z"/>
	<ellipse id="XMLID_72_" class="st1" cx="184.2" cy="247.3" rx="66.8" ry="168.6"/>
	<path id="XMLID_71_" class="st1" d="M160.8,158.8H76.6v180.3h84.1c19.7,0,35.7-40.4,35.7-90.2C196.5,199.1,180.5,158.8,160.8,158.8
		z"/>
	<ellipse id="XMLID_70_" class="st1" cx="76.6" cy="248.9" rx="35.7" ry="90.2"/>
	<g id="XMLID_114_">
		<ellipse id="XMLID_69_" class="st2" cx="178.6" cy="125.9" rx="14.5" ry="28.5"/>
		<ellipse id="XMLID_68_" class="st3" cx="172.4" cy="125.9" rx="12.6" ry="25.9"/>
		<ellipse id="XMLID_67_" class="st4" cx="167.9" cy="125.9" rx="9.6" ry="19.9"/>
		<ellipse id="XMLID_66_" class="st5" cx="162.4" cy="125.9" rx="5.3" ry="10.9"/>
	</g>
	<g id="XMLID_109_">
		<ellipse id="XMLID_65_" class="st2" cx="182" cy="372.8" rx="14.5" ry="28.5"/>
		<path id="XMLID_64_" class="st3" d="M188.5,372.8c0,14.3-5.6,25.9-12.6,25.9c-6.9,0-12.6-11.6-12.6-25.9s5.6-25.9,12.6-25.9
			C182.9,346.9,188.5,358.5,188.5,372.8z"/>
		<path id="XMLID_63_" class="st4" d="M181,372.8c0,11-4.3,19.9-9.6,19.9c-5.3,0-9.6-8.9-9.6-19.9c0-11,4.3-19.9,9.6-19.9
			C176.7,353,181,361.9,181,372.8z"/>
		<path id="XMLID_62_" class="st5" d="M171.2,372.8c0,6-2.4,10.9-5.3,10.9c-2.9,0-5.3-4.9-5.3-10.9c0-6,2.4-10.9,5.3-10.9
			C168.8,361.9,171.2,366.8,171.2,372.8z"/>
	</g>
	<g id="XMLID_104_">
		<ellipse id="XMLID_61_" class="st2" cx="216.5" cy="296.8" rx="14.5" ry="28.5"/>
		<path id="XMLID_60_" class="st3" d="M223,296.8c0,14.3-5.6,25.9-12.6,25.9c-6.9,0-12.6-11.6-12.6-25.9c0-14.3,5.6-26,12.6-26
			C217.4,270.8,223,282.4,223,296.8z"/>
		<path id="XMLID_59_" class="st4" d="M215.5,296.8c0,11-4.3,19.9-9.6,19.9c-5.3,0-9.6-8.9-9.6-19.9c0-11,4.3-19.9,9.6-19.9
			C211.2,276.9,215.5,285.8,215.5,296.8z"/>
		<ellipse id="XMLID_58_" class="st5" cx="200.3" cy="296.8" rx="5.3" ry="10.9"/>
	</g>
	<g id="XMLID_99_">
		<ellipse id="XMLID_57_" class="st2" cx="213.9" cy="198.8" rx="14.5" ry="28.5"/>
		<path id="XMLID_56_" class="st3" d="M220.4,198.8c0,14.3-5.6,26-12.6,26c-6.9,0-12.6-11.6-12.6-26c0-14.3,5.6-25.9,12.6-25.9
			C214.7,172.9,220.4,184.5,220.4,198.8z"/>
		<ellipse id="XMLID_37_" class="st4" cx="203.3" cy="198.8" rx="9.6" ry="19.9"/>
		<ellipse id="XMLID_36_" class="st5" cx="197.7" cy="198.8" rx="5.3" ry="10.9"/>
	</g>
	<g id="XMLID_96_">
		<path id="XMLID_35_" class="st6" d="M208.9,329h-11.2v24h11.2c2.6,0,4.8-5.4,4.8-12C213.6,334.3,211.5,329,208.9,329z"/>
		<ellipse id="XMLID_34_" class="st6" cx="197.7" cy="341" rx="4.8" ry="12"/>
	</g>
	<g id="XMLID_93_">
		<path id="XMLID_33_" class="st6" d="M208.9,235.3h-11.2v24h11.2c2.6,0,4.8-5.4,4.8-12C213.6,240.7,211.5,235.3,208.9,235.3z"/>
		<ellipse id="XMLID_32_" class="st6" cx="197.7" cy="247.3" rx="4.8" ry="12"/>
	</g>
	<g id="XMLID_90_">
		<path id="XMLID_31_" class="st6" d="M208.9,139.9h-11.2v24h11.2c2.6,0,4.8-5.4,4.8-12C213.6,145.2,211.5,139.9,208.9,139.9z"/>
		<ellipse id="XMLID_30_" class="st6" cx="197.7" cy="151.9" rx="4.8" ry="12"/>
	</g>
	<g id="XMLID_87_">
		<path id="XMLID_29_" class="st6" d="M146.7,124.8h-11.2v24h11.2c2.6,0,4.8-5.4,4.8-12C151.4,130.2,149.3,124.8,146.7,124.8z"/>
		<ellipse id="XMLID_28_" class="st6" cx="135.5" cy="136.8" rx="4.8" ry="12"/>
	</g>
	<g id="XMLID_84_">
		<path id="XMLID_27_" class="st6" d="M146.7,344.3h-11.2v24h11.2c2.6,0,4.8-5.4,4.8-12S149.3,344.3,146.7,344.3z"/>
		<ellipse id="XMLID_26_" class="st6" cx="135.5" cy="356.3" rx="4.8" ry="12"/>
	</g>
	<polygon id="XMLID_25_" class="st7" points="102.4,170.3 160.6,170.3 167.6,175.6 107.5,175.6 	"/>
	<polygon id="XMLID_24_" class="st7" points="112.3,183.2 114.3,187.9 172.4,187.9 171.4,183.2 	"/>
	<polygon id="XMLID_23_" class="st7" points="388.3,164.1 425.4,164.1 432.4,169.4 393.4,169.4 	"/>
	<polygon id="XMLID_20_" class="st7" points="398.3,177.1 400.2,181.7 437.3,181.7 436.3,177.1 	"/>
</g>
</svg>
