<?xml version="1.0" encoding="utf-8"?>
<!-- Generator: Adobe Illustrator 19.0.0, SVG Export Plug-In . SVG Version: 6.00 Build 0)  -->
<svg version="1.1" id="Camada_1" xmlns="http://www.w3.org/2000/svg" xmlns:xlink="http://www.w3.org/1999/xlink" x="0px" y="0px"
	 viewBox="0 0 500 500" style="enable-background:new 0 0 500 500;" xml:space="preserve">
<style type="text/css">
	.st0{fill:#1A171B;stroke:#1A171B;stroke-width:8.4164;stroke-miterlimit:10;}
	.st1{fill:#1A171B;stroke:#1A171B;stroke-width:8.4164;stroke-linejoin:round;stroke-miterlimit:10;}
	.st2{fill:#1A171B;stroke:#1A171B;stroke-width:8.4164;stroke-linecap:round;stroke-miterlimit:10;}
	.st3{fill:url(#XMLID_76_);stroke:#1A171B;stroke-width:2.1041;stroke-miterlimit:10;}
	.st4{fill:url(#XMLID_77_);stroke:#1A171B;stroke-width:2.1041;stroke-miterlimit:10;}
	.st5{fill:#294D74;stroke:#1A171B;stroke-width:2.1041;stroke-miterlimit:10;}
	.st6{fill:#335280;stroke:#1A171B;stroke-width:2.1041;stroke-linejoin:round;stroke-miterlimit:10;}
	.st7{fill:#2D496D;stroke:#1A171B;stroke-width:2.1041;stroke-linejoin:round;stroke-miterlimit:10;}
	.st8{fill:url(#XMLID_78_);stroke:#1A171B;stroke-width:2.1041;stroke-miterlimit:10;}
	.st9{fill:url(#XMLID_79_);stroke:#1A171B;stroke-width:2.1041;stroke-miterlimit:10;}
	.st10{fill:#FFFFFF;stroke:#1A171B;stroke-width:2.1041;stroke-miterlimit:10;}
	.st11{fill:#6F7072;stroke:#1A171B;stroke-width:1.5781;stroke-linecap:round;stroke-miterlimit:10;}
	.st12{fill:url(#XMLID_80_);stroke:#1A171B;stroke-width:1.0521;stroke-linejoin:round;stroke-miterlimit:10;}
	.st13{fill:url(#XMLID_81_);stroke:#1A171B;stroke-width:1.0521;stroke-linejoin:round;stroke-miterlimit:10;}
</style>
<path id="XMLID_74_" class="st0" d="M255.5,201c-16.3-25.1-40-40.6-61-39.2c-3.8,15.9-3,36.8,5.6,55.9c15,33.1,47.8,53.3,71.9,46.7
	C276.8,246.3,269.3,222.1,255.5,201z"/>
<path id="XMLID_73_" class="st0" d="M252.8,197c29.9,42.6,28.9,94.7-2.1,116.5c-31,21.7-80.3,4.9-110.2-37.7
	c-29.9-42.6-28.9-94.7,2.1-116.5c16.1-11.3,38.1-14.3,58.9-6.6C220.5,159.9,238.4,176.6,252.8,197z"/>
<path id="XMLID_72_" class="st1" d="M139.5,274.4c0,0,16.6,31.4,59.2,46.2c13,4.5,31.5,3.4,42.4-1.4c12.5-5.4,19.8-13.9,19.8-13.9
	l21.7,62.9l6,43.9c0,0-39.8-16.1-83.9-26.4c-44-10.2-78.9-10.5-78.9-10.5l-7.4-47.9L139.5,274.4z"/>
<path id="XMLID_71_" class="st1" d="M282.6,368.2l6,43.9c0,0,54.4,27.4,115.5,17.5c49.7-8.1,63.6-43,63.6-43l-7.8-50L282.6,368.2z"
	/>
<polygon id="XMLID_70_" class="st1" points="305.2,361.6 307.1,373 315.7,376 316.5,375.4 400.6,312.1 395.3,310.4 393.1,302.4 "/>
<path id="XMLID_69_" class="st1" d="M429.9,373.3c-53.3,23.4-114.2,2.7-114.2,2.7l84.9-63.9c0,0,46.3,11.4,51.7,15.9
	C452.3,328,482.2,343.9,429.9,373.3z"/>
<path id="XMLID_68_" class="st1" d="M118.5,327.3c0,0-73.3-8.7-84.9-26.6c-1-1.7-1.8-3.4-2.5-5c-8.4-21.5,15.5-32.3,48-40.9
	c11.9-3.2,33.2-9.1,33.2-9.1L118.5,327.3z"/>
<path id="XMLID_67_" class="st1" d="M43.5,349.7c18.9,15.2,82.4,25.5,82.4,25.5l-7.4-47.9c0,0-70.5-5.3-86.7-30
	C33.1,304.4,38.5,343.6,43.5,349.7z"/>
<ellipse id="XMLID_66_" transform="matrix(0.8187 -0.5742 0.5742 0.8187 -95.3742 159.9574)" class="st0" cx="205.6" cy="231" rx="58.1" ry="89.2"/>
<path id="XMLID_65_" class="st0" d="M251.6,195.6c25.3,31.1,29.9,69.3,10.2,85.3c-19.7,16-56.1,3.8-81.4-27.3s-29.9-69.3-10.2-85.3
	C189.8,152.2,226.3,164.5,251.6,195.6z"/>
<path id="XMLID_64_" class="st0" d="M262.7,194.2c-18.1-23.6-47.2-33.4-68.2-32.5c-1.9,16,6,34.4,16.1,52.6
	c17.6,31.7,51.3,46.6,63.9,49.3C277,245.5,277.9,214.1,262.7,194.2z"/>
<path id="XMLID_63_" class="st1" d="M126,142.7c8.9-6.4,78.7-56.6,78.7-56.6s35.6-25,106.5,25.9c40.1,28.8,53.2,85.6,53.2,85.6
	l28.7,104.9l-88,59.2c0,0-12.8-102.6-14.1-112.2C269.3,130.7,163.3,109.3,126,142.7z"/>
<path id="XMLID_62_" class="st2" d="M418.8,343.6c1.6,5.8-6.2,13-17.4,16c-11.2,3.1-21.6,0.9-23.2-4.9c-1.6-5.8,6.2-13,17.4-16
	C406.8,335.6,417.2,337.8,418.8,343.6z"/>
<ellipse id="XMLID_61_" transform="matrix(0.9647 -0.2635 0.2635 0.9647 -70.3046 34.576)" class="st2" cx="93.8" cy="279.4" rx="21" ry="10.9"/>
<path id="XMLID_60_" class="st0" d="M139.5,274.4l-21,52.9l-24.3-3.1c0,0,8.1-30.9,5.5-64.2c-5.8-74.7,8.1-103.7,26.3-117.3
	c57.9-41.7,116.1,12.1,129.7,28.3c36,42.1,37.9,95.6,43.6,144c4.1,34.6,7.7,58.1,7.7,58.1l-24.4-4.8l-21.7-62.9
	c0,0,34.7-53.8-20.8-122.7c-13.7-17.5-54.1-49.7-93.6-24.9C97.3,188.7,139.5,274.4,139.5,274.4z"/>
<path id="XMLID_59_" class="st2" d="M309.4,136.6c2.3,8.5-2.7,17.3-11.3,19.6c-8.6,2.3-17.4-2.6-19.7-11.1
	c-2.3-8.5,2.7-17.3,11.3-19.6C298.3,123.2,307.1,128.1,309.4,136.6z"/>
<linearGradient id="XMLID_76_" gradientUnits="userSpaceOnUse" x1="361.0683" y1="302.6571" x2="425.9354" y2="302.6571" gradientTransform="matrix(0.9646 -0.2635 0.2635 0.9646 -227.7746 25.2544)">
	<stop  offset="0.1879" style="stop-color:#6F7072"/>
	<stop  offset="0.5818" style="stop-color:#C5C6C8"/>
	<stop  offset="0.8424" style="stop-color:#58585A"/>
</linearGradient>
<path id="XMLID_58_" class="st3" d="M255.5,201c-16.3-25.1-40-40.6-61-39.2c-3.8,15.9-3,36.8,5.6,55.9c15,33.1,47.8,53.3,71.9,46.7
	C276.8,246.3,269.3,222.1,255.5,201z"/>
<linearGradient id="XMLID_77_" gradientUnits="userSpaceOnUse" x1="340.7199" y1="236.0191" x2="372.2838" y2="428.0324" gradientTransform="matrix(0.9646 -0.2635 0.2635 0.9646 -227.7746 25.2544)">
	<stop  offset="0.103" style="stop-color:#3D3D3F"/>
	<stop  offset="0.3515" style="stop-color:#C5C6C8"/>
	<stop  offset="0.5818" style="stop-color:#6F7072"/>
	<stop  offset="0.8424" style="stop-color:#3D3D3F"/>
</linearGradient>
<path id="XMLID_57_" class="st4" d="M252.8,197c29.9,42.6,28.9,94.7-2.1,116.5c-31,21.7-80.3,4.9-110.2-37.7
	c-29.9-42.6-28.9-94.7,2.1-116.5c16.1-11.3,38.1-14.3,58.9-6.6C220.5,159.9,238.4,176.6,252.8,197z"/>
<path id="XMLID_56_" class="st5" d="M139.5,274.4c0,0,16.6,31.4,59.2,46.2c13,4.5,31.5,3.4,42.4-1.4c12.5-5.4,19.8-13.9,19.8-13.9
	l21.7,62.9l6,43.9c0,0-39.8-16.1-83.9-26.4c-44-10.2-78.9-10.5-78.9-10.5l-7.4-47.9L139.5,274.4z"/>
<path id="XMLID_37_" class="st6" d="M282.6,368.2l6,43.9c0,0,54.4,27.4,115.5,17.5c49.7-8.1,63.6-43,63.6-43l-7.8-50L282.6,368.2z"
	/>
<polygon id="XMLID_36_" class="st7" points="305.2,361.6 307.1,373 315.7,376 316.5,375.4 400.6,312.1 395.3,310.4 393.1,302.4 "/>
<path id="XMLID_35_" class="st6" d="M429.9,373.3c-53.3,23.4-114.2,2.7-114.2,2.7l84.9-63.9c0,0,46.3,11.4,51.7,15.9
	C452.3,328,482.2,343.9,429.9,373.3z"/>
<path id="XMLID_34_" class="st5" d="M118.5,327.3c0,0-73.3-8.7-84.9-26.6c-1-1.7-1.8-3.4-2.5-5c-8.4-21.5,15.5-32.3,48-40.9
	c11.9-3.2,33.2-9.1,33.2-9.1L118.5,327.3z"/>
<path id="XMLID_33_" class="st6" d="M43.5,349.7c18.9,15.2,82.4,25.5,82.4,25.5l-7.4-47.9c0,0-70.5-5.3-86.7-30
	C33.1,304.4,38.5,343.6,43.5,349.7z"/>
<linearGradient id="XMLID_78_" gradientUnits="userSpaceOnUse" x1="351.3075" y1="274.7246" x2="377.0949" y2="352.6702" gradientTransform="matrix(0.9646 -0.2635 0.2635 0.9646 -227.7746 25.2544)">
	<stop  offset="0.103" style="stop-color:#6F7072"/>
	<stop  offset="0.3515" style="stop-color:#F5F5F6"/>
	<stop  offset="0.5818" style="stop-color:#C5C6C8"/>
	<stop  offset="0.8424" style="stop-color:#3D3D3F"/>
</linearGradient>
<path id="XMLID_32_" class="st8" d="M253.2,197.6c28.3,40.3,29.9,88,3.6,106.4c-26.3,18.4-70.5,0.7-98.8-39.7
	c-28.3-40.3-29.9-88-3.6-106.4C180.7,139.5,224.9,157.3,253.2,197.6z"/>
<linearGradient id="XMLID_79_" gradientUnits="userSpaceOnUse" x1="340.898" y1="257.2049" x2="368.0431" y2="378.0358" gradientTransform="matrix(0.9556 -0.3168 0.366 0.9852 -240.4056 21.6738)">
	<stop  offset="0.1879" style="stop-color:#6F7072"/>
	<stop  offset="0.5818" style="stop-color:#C5C6C8"/>
	<stop  offset="0.8424" style="stop-color:#58585A"/>
</linearGradient>
<path id="XMLID_31_" class="st9" d="M251.6,195.6c25.3,31.1,29.9,69.3,10.2,85.3c-19.7,16-56.1,3.8-81.4-27.3s-30.5-71-8.5-83.6
	C191.8,158.5,226.3,164.5,251.6,195.6z"/>
<path id="XMLID_30_" class="st10" d="M262.7,194.2c-18.1-23.6-47.2-33.4-68.2-32.5c-1.9,16,6,34.4,16.1,52.6
	c17.6,31.7,51.3,46.6,63.9,49.3C277,245.5,277.9,214.1,262.7,194.2z"/>
<path id="XMLID_29_" class="st11" d="M418.8,343.6c1.6,5.8-6.2,13-17.4,16c-11.2,3.1-21.6,0.9-23.2-4.9c-1.6-5.8,6.2-13,17.4-16
	C406.8,335.6,417.2,337.8,418.8,343.6z"/>
<ellipse id="XMLID_28_" transform="matrix(0.9647 -0.2635 0.2635 0.9647 -70.3046 34.576)" class="st11" cx="93.8" cy="279.4" rx="21" ry="10.9"/>
<linearGradient id="XMLID_80_" gradientUnits="userSpaceOnUse" x1="-496.2544" y1="135.9958" x2="-556.4723" y2="292.8795" gradientTransform="matrix(-0.9995 -3.940000e-002 -6.040000e-002 1.015 -314.7245 4.7513)">
	<stop  offset="0" style="stop-color:#868789"/>
	<stop  offset="0.2364" style="stop-color:#3D3D3F"/>
	<stop  offset="0.7273" style="stop-color:#3D3D3F"/>
	<stop  offset="0.9273" style="stop-color:#666769"/>
</linearGradient>
<path id="XMLID_27_" class="st12" d="M164.6,170c-24.2,8.8-29.6,45.8-12,82.6c17.6,36.8,51.4,59.5,75.7,50.8
	c24.2-8.8,29.6-45.8,12-82.6C222.7,184,188.8,161.2,164.6,170z"/>
<path id="XMLID_26_" class="st10" d="M254.7,216.7c-13.4-25.9-40-40.4-60.5-43.2c-4.6,15.2-0.2,34.2,6.4,53.6
	c11.6,33.7,41.6,53.9,53.4,58.7C259.7,268.6,266,238.5,254.7,216.7z"/>
<linearGradient id="XMLID_81_" gradientUnits="userSpaceOnUse" x1="244.7757" y1="167.3035" x2="158.1113" y2="341.0594">
	<stop  offset="0.103" style="stop-color:#6F7072"/>
	<stop  offset="0.4061" style="stop-color:#D8D9DA"/>
	<stop  offset="0.8424" style="stop-color:#58585A"/>
</linearGradient>
<path id="XMLID_25_" class="st13" d="M194.9,160.1c-12,1.1-25.8,7.4-34.8,12c24.8-7.8,59.6,14.5,77.9,50.2
	c18.5,35.9,14.1,73.1-10.7,81.4c0,0,0,0,0,0s37.3-12.5,42.5-21.7C300.7,224,238.7,159.8,194.9,160.1z"/>
<path id="XMLID_24_" class="st6" d="M126,142.7c8.9-6.4,78.7-56.6,78.7-56.6s35.6-25,106.5,25.9c40.1,28.8,53.2,85.6,53.2,85.6
	l28.7,104.9l-88,59.2c0,0-12.8-102.6-14.1-112.2C269.3,130.7,163.3,109.3,126,142.7z"/>
<path id="XMLID_23_" class="st5" d="M139.5,274.4l-21,52.9l-24.3-3.1c0,0,8.1-30.9,5.5-64.2c-5.8-74.7,8.1-103.7,26.3-117.3
	c57.9-41.7,116.1,12.1,129.7,28.3c36,42.1,37.9,95.6,43.6,144c4.1,34.6,7.7,58.1,7.7,58.1l-24.4-4.8l-21.7-62.9
	c0,0,34.7-53.8-20.8-122.7c-13.7-17.5-54.1-49.7-93.6-24.9C97.3,188.7,139.5,274.4,139.5,274.4z"/>
<path id="XMLID_20_" class="st11" d="M309.4,136.6c2.3,8.5-2.7,17.3-11.3,19.6c-8.6,2.3-17.4-2.6-19.7-11.1
	c-2.3-8.5,2.7-17.3,11.3-19.6C298.3,123.2,307.1,128.1,309.4,136.6z"/>
</svg>
