<?xml version="1.0" encoding="utf-8"?>
<!-- Generator: Adobe Illustrator 19.0.0, SVG Export Plug-In . SVG Version: 6.00 Build 0)  -->
<svg version="1.1" id="Camada_1" xmlns="http://www.w3.org/2000/svg" xmlns:xlink="http://www.w3.org/1999/xlink" x="0px" y="0px"
	 viewBox="0 0 500 500" style="enable-background:new 0 0 500 500;" xml:space="preserve">
<style type="text/css">
	.st0{stroke:#000000;stroke-width:6.636;stroke-linejoin:round;stroke-miterlimit:10;}
	.st1{fill:#DADADA;stroke:#000000;stroke-width:2.212;stroke-linejoin:round;stroke-miterlimit:10;}
</style>
<g>
	<path id="XMLID_4_" class="st0" d="M250.3,76.4c-127,0-230,78.3-230,174.8c0,96.5,103,174.8,230,174.8c127,0,230-78.3,230-174.8
		C480.3,154.6,377.3,76.4,250.3,76.4z M78.9,293.6l27.4-9.6c4.8-1.6,7.2-5.8,6.6-10.5l-1.7-13.6l-0.6-4.5l-1.7-13.6
		c-0.6-4.7-4-8.4-9-9.1l-27.5-4.3c2.8-12.7,7.9-24.9,15-36.1l25.2,8.7c4.7,1.7,9.9,0.2,13.4-3.5l10.1-10.6l3.3-3.5l10.1-10.6
		c3.5-3.7,4.1-8.3,1.2-11.8l-13.5-16.5c13.5-8.3,28.6-15.1,44.9-20.1l10.6,18.8c2.1,4,7.2,5.8,12.7,5l15.9-2.1l5.2-0.7l15.9-2.1
		c5.5-0.7,9.6-3.8,10.2-8.1l3.2-20.8c12.1,0.3,24,1.5,35.4,3.5l-3.8,19.2c-0.9,4.3,2,8.2,7,10.3l14.5,6l4.8,2l14.5,6
		c5,2.1,10.5,1.6,13.9-1.7l18.2-16.8c9.5,5.6,18.2,11.9,26.1,18.8l-20.3,16.1c-3.8,2.9-4.3,7.5-1.9,11.8l7.2,12.2l2.4,4l7.2,12.2
		c2.5,4.2,7.2,6.7,12.2,5.8l32.1-4.8c3,9.4,4.7,19.1,5,29.1l-30.9,2.6c-5.1,0.4-8.9,3.7-9.9,8.4l-3.1,13.4l-1,4.4l-3.1,13.4
		c-1.1,4.7,0.9,9,5.5,10.9l24.1,10.6c-6.4,9.9-14.3,19.1-23.5,27.4L365,325.6c-4.2-2.5-9.6-1.9-14,1.1l-12.5,8.6l-4.1,2.8l-12.5,8.6
		c-4.3,3-6.1,7.4-4,11.4l8.5,17.2c-15.6,5.5-32.3,9.4-49.9,11.4l-6.1-20.8c-1.2-4.2-5.7-6.9-11.3-7.1l-16.1-0.6l-5.3-0.2l-16.1-0.6
		c-5.6-0.2-10.3,2.1-12,6.2l-8,19.5c-15-3.2-29.1-7.8-42.2-13.6l10.9-22.1c2.1-4,0.3-8.4-4-11.4l-12.5-8.6l-4.1-2.8l-12.5-8.6
		c-4.3-3-9.8-3.6-14-1.1l-22.6,13C91.5,317.4,84.1,305.9,78.9,293.6z"/>
	<path id="XMLID_1_" class="st1" d="M250.3,76.4c-127,0-230,78.3-230,174.8c0,96.5,103,174.8,230,174.8c127,0,230-78.3,230-174.8
		C480.3,154.6,377.3,76.4,250.3,76.4z M78.9,293.6l27.4-9.6c4.8-1.6,7.2-5.8,6.6-10.5l-1.7-13.6l-0.6-4.5l-1.7-13.6
		c-0.6-4.7-4-8.4-9-9.1l-27.5-4.3c2.8-12.7,7.9-24.9,15-36.1l25.2,8.7c4.7,1.7,9.9,0.2,13.4-3.5l10.1-10.6l3.3-3.5l10.1-10.6
		c3.5-3.7,4.1-8.3,1.2-11.8l-13.5-16.5c13.5-8.3,28.6-15.1,44.9-20.1l10.6,18.8c2.1,4,7.2,5.8,12.7,5l15.9-2.1l5.2-0.7l15.9-2.1
		c5.5-0.7,9.6-3.8,10.2-8.1l3.2-20.8c12.1,0.3,24,1.5,35.4,3.5l-3.8,19.2c-0.9,4.3,2,8.2,7,10.3l14.5,6l4.8,2l14.5,6
		c5,2.1,10.5,1.6,13.9-1.7l18.2-16.8c9.5,5.6,18.2,11.9,26.1,18.8l-20.3,16.1c-3.8,2.9-4.3,7.5-1.9,11.8l7.2,12.2l2.4,4l7.2,12.2
		c2.5,4.2,7.2,6.7,12.2,5.8l32.1-4.8c3,9.4,4.7,19.1,5,29.1l-30.9,2.6c-5.1,0.4-8.9,3.7-9.9,8.4l-3.1,13.4l-1,4.4l-3.1,13.4
		c-1.1,4.7,0.9,9,5.5,10.9l24.1,10.6c-6.4,9.9-14.3,19.1-23.5,27.4L365,325.6c-4.2-2.5-9.6-1.9-14,1.1l-12.5,8.6l-4.1,2.8l-12.5,8.6
		c-4.3,3-6.1,7.4-4,11.4l8.5,17.2c-15.6,5.5-32.3,9.4-49.9,11.4l-6.1-20.8c-1.2-4.2-5.7-6.9-11.3-7.1l-16.1-0.6l-5.3-0.2l-16.1-0.6
		c-5.6-0.2-10.3,2.1-12,6.2l-8,19.5c-15-3.2-29.1-7.8-42.2-13.6l10.9-22.1c2.1-4,0.3-8.4-4-11.4l-12.5-8.6l-4.1-2.8l-12.5-8.6
		c-4.3-3-9.8-3.6-14-1.1l-22.6,13C91.5,317.4,84.1,305.9,78.9,293.6z"/>
</g>
</svg>
