<?xml version="1.0" encoding="utf-8"?>
<!-- Generator: Adobe Illustrator 19.0.0, SVG Export Plug-In . SVG Version: 6.00 Build 0)  -->
<svg version="1.1" id="Camada_1" xmlns="http://www.w3.org/2000/svg" xmlns:xlink="http://www.w3.org/1999/xlink" x="0px" y="0px"
	 viewBox="0 0 544 654" style="enable-background:new 0 0 544 654;" xml:space="preserve">
<style type="text/css">
	.st0{fill:url(#XMLID_49_);}
	.st1{clip-path:url(#XMLID_50_);fill:url(#XMLID_51_);}
	.st2{fill:#5C5C60;}
	.st3{fill:#C4C5CB;}
	.st4{fill:#D8D9DD;}
	.st5{fill:#707172;}
	.st6{fill:#AFAFB5;}
	.st7{fill:#9B9AA0;}
	.st8{fill:#F5F5F5;}
	.st9{fill:#423F40;}
	.st10{fill:#3C3C3B;}
	.st11{fill:#B2B2B2;}
	.st12{fill:#C6C6C6;}
	.st13{fill:#9D9D9C;}
	.st14{fill:url(#XMLID_52_);}
	.st15{fill:#1A1A1A;}
	.st16{fill:url(#XMLID_53_);}
	.st17{fill:url(#XMLID_54_);}
	.st18{fill:#010202;}
	.st19{fill:#FFFFFF;}
	.st20{fill:#1B181C;}
	.st21{fill:url(#XMLID_55_);}
	.st22{fill:url(#XMLID_56_);}
	.st23{fill:#3E3D3F;}
	.st24{fill:#5A595B;}
	.st25{fill:#868789;}
	.st26{fill:url(#XMLID_57_);}
	.st27{fill:#EEE172;}
	.st28{fill:url(#XMLID_58_);}
	.st29{fill:url(#XMLID_59_);}
	.st30{fill:url(#XMLID_60_);}
	.st31{fill:url(#XMLID_61_);}
	.st32{fill:url(#XMLID_62_);}
	.st33{fill:url(#XMLID_63_);}
	.st34{fill:url(#XMLID_65_);}
	.st35{fill:url(#XMLID_68_);}
	.st36{fill:url(#XMLID_72_);}
	.st37{fill:url(#XMLID_73_);}
	.st38{fill:url(#XMLID_74_);}
	.st39{fill:url(#XMLID_75_);}
	.st40{fill:url(#XMLID_76_);}
	.st41{fill:url(#XMLID_77_);}
	.st42{fill:#5C5D61;}
	.st43{fill:#C4C5CA;}
	.st44{fill:#D8D8DC;}
	.st45{fill:#AFADB3;}
	.st46{fill:#9A9A9F;}
	.st47{fill:#F4F4F4;}
	.st48{fill:#434040;}
	.st49{fill:#FFDE00;stroke:#1D71B8;stroke-width:29.956;stroke-linejoin:round;stroke-miterlimit:10;}
	.st50{font-family:'Impact';}
	.st51{font-size:93.3048px;}
	.st52{letter-spacing:-1;}
	.st53{font-size:60.1244px;}
	.st54{fill:#FFDE00;}
	.st55{fill:#F9D792;stroke:#000000;stroke-width:3.7243;stroke-miterlimit:10;}
	.st56{fill:#F9D792;stroke:#000000;stroke-width:3.1194;stroke-miterlimit:10;}
	.st57{fill:#DDA445;}
	.st58{fill:#A37126;}
	.st59{opacity:0.8;fill:url(#XMLID_78_);}
	.st60{opacity:0.8;fill:#AB4A33;}
	.st61{fill:#009FE3;stroke:#1D71B8;stroke-width:2.9487;stroke-miterlimit:10;}
	.st62{fill:#009FE3;stroke:#1D71B8;stroke-width:2.8862;stroke-miterlimit:10;}
	.st63{fill:#FFDE00;stroke:#000000;stroke-width:3.08;stroke-miterlimit:10;}
	.st64{fill:#F9B233;}
	.st65{fill:url(#XMLID_79_);}
	.st66{fill:url(#XMLID_80_);stroke:#000000;stroke-width:3.2364;stroke-miterlimit:10;}
	.st67{opacity:0.7;fill:#DDA445;}
	.st68{clip-path:url(#XMLID_81_);}
	.st69{fill:#95C11F;}
	.st70{clip-path:url(#XMLID_82_);}
</style>
<radialGradient id="XMLID_49_" cx="273.5809" cy="372.1482" r="246.555" gradientUnits="userSpaceOnUse">
	<stop  offset="0" style="stop-color:#EA5B0C"/>
	<stop  offset="0.1637" style="stop-color:#EB610E"/>
	<stop  offset="0.399" style="stop-color:#EE7315"/>
	<stop  offset="0.6778" style="stop-color:#F28D21"/>
	<stop  offset="0.9876" style="stop-color:#F9B133"/>
	<stop  offset="1" style="stop-color:#F9B233"/>
</radialGradient>
<path id="XMLID_2638_" class="st0" d="M489.8,640H57.4c-3.9,0-7-3.2-7-7V111.3c0-3.9,3.2-7,7-7h432.4c3.9,0,7,3.2,7,7V633
	C496.8,636.8,493.7,640,489.8,640z"/>
<g id="XMLID_2633_">
	<defs>
		<path id="XMLID_2634_" d="M489.8,640H57.4c-3.9,0-7-3.2-7-7V111.3c0-3.9,3.2-7,7-7h432.4c3.9,0,7,3.2,7,7V633
			C496.8,636.8,493.7,640,489.8,640z"/>
	</defs>
	<clipPath id="XMLID_50_">
		<use xlink:href="#XMLID_2634_"  style="overflow:visible;"/>
	</clipPath>
	<radialGradient id="XMLID_51_" cx="273.5809" cy="386.4059" r="391.5941" gradientUnits="userSpaceOnUse">
		<stop  offset="0" style="stop-color:#E6332A"/>
		<stop  offset="0.1827" style="stop-color:#E7382A"/>
		<stop  offset="0.3873" style="stop-color:#E84728"/>
		<stop  offset="0.6027" style="stop-color:#EB5D23"/>
		<stop  offset="0.8238" style="stop-color:#EF7916"/>
		<stop  offset="1" style="stop-color:#F39200"/>
	</radialGradient>
	<path id="XMLID_2635_" class="st1" d="M665,444.7l-1-124.3l-312.5,42.1l272.9-159l-73.9-100l-228,217.7L450,32.1L331.4-5.3
		l-56.5,310.2L208-3.9L90.1,35.5l136.6,284.1L-8.8,109.2l-72.3,101.1l277.5,149.6l-314.3-31.8l1,124.3l312.5-42.1l-272.9,159
		l73.9,100l228-217.7L97.2,740.7l118.5,37.5L272.2,468l66.9,308.7L457,737.3L320.4,453.2L556,663.6l72.3-101.1L350.7,412.9
		L665,444.7z M286.8,404.2l-13,4.3l-13.1-4.1l-8.1-11l-0.1-13.7l8-11.2l13-4.3l13.1,4.1l8.1,11l0.1,13.7L286.8,404.2z"/>
</g>
<g id="XMLID_2596_">
	<polygon id="XMLID_2632_" class="st2" points="219,49.2 219.2,116.9 229.8,124.6 229.4,53.4 	"/>
	<polygon id="XMLID_2631_" class="st2" points="230.8,27.9 231,95.6 241.6,103.3 241.3,32.1 	"/>
	<polygon id="XMLID_2630_" class="st2" points="297.5,19.7 297.7,87.3 308.3,95.1 308,23.8 	"/>
	<polygon id="XMLID_2629_" class="st2" points="316.3,38.9 315.8,64.5 326.4,72.2 326.8,43.1 	"/>
	<polygon id="XMLID_2628_" class="st3" points="325.6,66 325.4,134.5 315,134.9 315.3,66.4 	"/>
	<polygon id="XMLID_2627_" class="st4" points="312.2,138.2 312.5,69.8 315.3,66.4 315,134.9 	"/>
	<polygon id="XMLID_2626_" class="st4" points="304.7,83.6 304.5,152.1 316.8,144.6 317.1,76.2 	"/>
	<polygon id="XMLID_2625_" class="st5" points="295.7,79.8 295.5,148.2 304.5,152.1 304.7,83.6 	"/>
	<polygon id="XMLID_2624_" class="st4" points="290.5,81.3 290.3,149.8 295.5,148.2 295.7,79.8 	"/>
	<polygon id="XMLID_2623_" class="st6" points="288.8,88.2 288.6,156.6 290.3,149.8 290.5,81.3 	"/>
	<polygon id="XMLID_2622_" class="st4" points="272.1,89.2 271.8,157.6 288.6,156.6 288.8,88.2 	"/>
	<polygon id="XMLID_2621_" class="st5" points="267.9,82.6 267.7,151.1 271.8,157.6 272.1,89.2 	"/>
	<polygon id="XMLID_2620_" class="st4" points="262.3,81.7 262,150.2 267.7,151.1 267.9,82.6 	"/>
	<polygon id="XMLID_2619_" class="st6" points="254.8,86.4 254.6,154.9 262,150.2 262.3,81.7 	"/>
	<polygon id="XMLID_2618_" class="st5" points="238.5,70.8 238.3,139.2 242.2,142.2 242.4,73.7 	"/>
	<polygon id="XMLID_2617_" class="st6" points="228.2,71.5 228,140 238.3,139.2 238.5,70.8 	"/>
	<polygon id="XMLID_2616_" class="st4" points="221.1,61 220.9,129.5 228,140 228.2,71.5 	"/>
	<polygon id="XMLID_2615_" class="st4" points="328.7,123.4 328.9,55 325.6,66 325.4,134.5 	"/>
	<g id="XMLID_2600_">
		<path id="XMLID_2613_" class="st7" d="M235.4,34.4c-1.1,1.1-2,2.2-2.8,3.3l-10.4,0.4l-0.7,1.6c-0.6,1.3-1.1,2.6-1.5,3.9
			c-0.4,1.3-0.6,2.6-0.8,4l-0.2,1.7l9.2,3.5c0.1,1.3,0.4,2.6,0.7,3.9l-7.8,4.4l0.8,1.6c1.3,2.6,3,5.1,5.1,7.4l1.3,1.5l10.3-0.8
			c1.2,1,2.5,2,3.9,3l-2.3,6.8l2,1c3.1,1.6,6.3,2.9,9.6,4l3.1,1l7.4-4.7c1,0.2,1.9,0.4,2.8,0.5c0.9,0.1,1.9,0.3,2.8,0.4l4.1,6.6
			l2.5,0c3.9,0.1,7.9-0.2,11.8-0.7l2.4-0.3l1.7-6.9c1.8-0.4,3.5-0.9,5.2-1.5l8.9,3.8l2-1c3.2-1.5,6.2-3.3,8.8-5.2l1.6-1.2l-4.6-6.4
			c1.1-1.1,2-2.2,2.8-3.3l10.4-0.4l0.8-1.6c0.6-1.3,1.1-2.6,1.5-3.9c0.4-1.2,0.6-2.5,0.8-4l0.2-1.7l-9.2-3.5
			c-0.1-1.3-0.4-2.6-0.7-3.9l7.8-4.4l-0.8-1.6c-1.3-2.5-2.9-5-5-7.4l-1.3-1.5l-10.3,0.8c-1.2-1-2.5-2-3.9-2.9l2.3-6.8l-2-1
			c-3.1-1.6-6.3-2.9-9.6-3.9l-3.1-1l-7.5,4.7c-1-0.2-1.9-0.4-2.8-0.5c-0.9-0.1-1.9-0.3-2.9-0.4l-4.1-6.6l-2.5-0.1
			c-3.9-0.1-7.9,0.2-11.8,0.7l-2.4,0.3l-1.8,6.9c-1.8,0.4-3.5,0.9-5.2,1.5l-8.9-3.8l-2,1c-3.2,1.5-6.2,3.3-8.7,5.2l-1.7,1.2
			L235.4,34.4z"/>
		<g id="XMLID_2609_">
			<path id="XMLID_2610_" class="st5" d="M285.4,32.6c12.3,4,19.3,13.3,16.7,22.1c-1.5,5.1-5.9,9.4-12.3,12.2
				c-6.4,2.7-14.2,3.6-21.8,2.4c-2.1-0.3-4.2-0.8-6.1-1.5c-12.3-3.9-19.3-13.2-16.7-22.1c1.5-5.1,5.8-9.4,12.3-12.2
				c6.4-2.8,14.2-3.6,21.8-2.4C281.4,31.4,283.4,31.9,285.4,32.6L285.4,32.6z M264.2,64.4c1.6,0.5,3.3,0.9,5,1.2
				c6.1,1,12.4,0.3,17.6-1.9c5.2-2.2,8.7-5.7,9.9-9.8c2.1-7.1-3.6-14.6-13.5-17.8c-1.6-0.5-3.2-0.9-4.9-1.2
				c-6.1-1-12.4-0.3-17.5,1.9c-5.2,2.2-8.7,5.7-9.9,9.8C248.6,53.7,254.3,61.2,264.2,64.4L264.2,64.4z"/>
		</g>
		<g id="XMLID_2605_">
			<path id="XMLID_2606_" class="st8" d="M286.2,35.8c12.3,4,19.3,13.3,16.7,22.1c-1.5,5.1-5.8,9.4-12.3,12.2
				c-6.5,2.7-14.2,3.6-21.8,2.4c-2.1-0.3-4.2-0.8-6.1-1.5c-12.3-4-19.3-13.3-16.7-22.1c1.5-5.1,5.8-9.4,12.3-12.2
				c6.4-2.7,14.2-3.6,21.8-2.4C282.2,34.7,284.3,35.2,286.2,35.8L286.2,35.8z M265.1,67.6c1.6,0.5,3.3,0.9,5,1.2
				c6.1,1,12.3,0.3,17.6-1.9c5.2-2.2,8.7-5.7,9.9-9.8c2.1-7.1-3.6-14.6-13.5-17.8c-1.6-0.5-3.3-0.9-4.9-1.2
				c-6.1-1-12.4-0.3-17.6,1.9c-5.1,2.2-8.7,5.7-9.9,9.8C249.5,56.9,255.2,64.4,265.1,67.6L265.1,67.6z"/>
		</g>
		<g id="XMLID_2601_">
			<path id="XMLID_2602_" class="st7" d="M285.7,34.5c12.3,3.9,19.3,13.2,16.7,22.1c-1.5,5.1-5.9,9.4-12.3,12.2
				c-6.4,2.7-14.2,3.6-21.8,2.4c-2.1-0.3-4.2-0.8-6.1-1.5c-12.3-4-19.3-13.2-16.7-22.1c1.5-5.1,5.8-9.4,12.3-12.2
				c6.4-2.8,14.2-3.6,21.8-2.4C281.6,33.4,283.7,33.9,285.7,34.5L285.7,34.5z M264.5,66.3c1.6,0.5,3.2,0.9,4.9,1.2
				c6.1,1,12.4,0.3,17.6-1.9c5.2-2.2,8.7-5.7,9.9-9.8c2.1-7.1-3.6-14.6-13.5-17.8c-1.6-0.5-3.2-0.9-5-1.2c-6.1-1-12.3-0.3-17.5,1.9
				c-5.2,2.2-8.7,5.7-9.9,9.8C248.9,55.6,254.6,63.1,264.5,66.3L264.5,66.3z"/>
		</g>
	</g>
	<polygon id="XMLID_2599_" class="st4" points="240.1,80.5 239.9,149 254.6,154.9 254.8,86.4 	"/>
	<path id="XMLID_2598_" class="st2" d="M283.6,43.8c-6.4-3.6-15.8-2.8-21.1,1.8s-4.2,11.3,2.2,14.9c6.4,3.6,15.8,2.8,21.1-1.8
		C291,54.1,290,47.5,283.6,43.8z"/>
	<path id="XMLID_2597_" class="st9" d="M285.7,58.7c0.2-0.2,0.4-0.4,0.6-0.6c-0.9-1.4-2.2-2.6-4-3.6c-6.4-3.6-15.8-2.8-21.1,1.8
		c-0.2,0.2-0.4,0.4-0.6,0.6c0.9,1.4,2.2,2.6,4,3.6C271,64.1,280.5,63.3,285.7,58.7z"/>
</g>
<g id="XMLID_2557_">
	<polygon id="XMLID_2593_" class="st2" points="67.4,600.5 117,567 117.7,555.3 65.6,590.6 	"/>
	<polygon id="XMLID_2592_" class="st2" points="46.2,602.1 95.8,568.7 96.5,556.9 44.4,592.2 	"/>
	<polygon id="XMLID_2591_" class="st2" points="8.8,556.3 58.4,522.8 59.1,511.1 7,546.4 	"/>
	<polygon id="XMLID_2590_" class="st2" points="14.1,532.7 33.1,520.6 33.8,508.9 12.3,522.8 	"/>
	<polygon id="XMLID_2589_" class="st3" points="29.6,512.4 80,478.9 85.2,486.5 34.8,520 	"/>
	<polygon id="XMLID_2588_" class="st4" points="88.9,487 38.6,520.5 34.8,520 85.2,486.5 	"/>
	<polygon id="XMLID_2587_" class="st4" points="52.4,519.5 102.7,486 91.4,480.4 41.1,513.9 	"/>
	<polygon id="XMLID_2586_" class="st5" points="53.8,528 104.1,494.5 102.7,486 52.4,519.5 	"/>
	<polygon id="XMLID_2585_" class="st4" points="57.3,531.2 107.7,497.7 104.1,494.5 53.8,528 	"/>
	<polygon id="XMLID_2584_" class="st6" points="63.2,529.1 113.5,495.6 107.7,497.7 57.3,531.2 	"/>
	<polygon id="XMLID_2583_" class="st4" points="71.8,541.1 122.1,507.6 113.5,495.6 63.2,529.1 	"/>
	<polygon id="XMLID_2582_" class="st5" points="68.9,547.4 119.2,513.9 122.1,507.6 71.8,541.1 	"/>
	<polygon id="XMLID_2581_" class="st4" points="70.9,552.1 121.2,518.6 119.2,513.9 68.9,547.4 	"/>
	<polygon id="XMLID_2580_" class="st6" points="77.9,555.4 128.2,521.8 121.2,518.6 70.9,552.1 	"/>
	<polygon id="XMLID_2579_" class="st5" points="74,575.3 124.4,541.8 124.7,537.4 74.4,570.9 	"/>
	<polygon id="XMLID_2578_" class="st6" points="79.4,582.6 129.8,549.1 124.4,541.8 74,575.3 	"/>
	<polygon id="XMLID_2577_" class="st4" points="75.1,593.1 125.4,559.6 129.8,549.1 79.4,582.6 	"/>
	<polygon id="XMLID_2576_" class="st4" points="70.3,481.9 20,515.5 29.6,512.4 80,478.9 	"/>
	<g id="XMLID_2561_">
		<path id="XMLID_2574_" class="st7" d="M48.8,595.4c1.3,0.3,2.6,0.4,3.8,0.5l5.2,7.6l1.5-0.2c1.3-0.2,2.4-0.4,3.5-0.8
			c1.1-0.3,2.2-0.8,3.3-1.3l1.3-0.7l-1.8-8.6c0.9-0.7,1.7-1.6,2.5-2.4l6.9,3.6l0.8-1.4c1.3-2.2,2.3-4.7,3.1-7.4l0.5-1.7l-5.4-7.3
			c0.2-1.4,0.3-2.9,0.3-4.4l6.1-1.6l-0.2-2c-0.3-3.1-0.9-6.2-1.6-9.1l-0.7-2.8l-7-3.2c-0.3-0.8-0.6-1.6-0.9-2.4
			c-0.3-0.8-0.7-1.5-1-2.3l2.9-6.3l-1.1-1.9c-1.8-2.9-3.8-5.8-6.1-8.5l-1.4-1.6l-5.8,2.1c-1.2-1.1-2.3-2.2-3.6-3.2l-1.4-8.6l-1.6-1
			c-2.6-1.7-5.3-3-8-4l-1.7-0.6l-2.5,6.6c-1.3-0.3-2.6-0.4-3.8-0.5l-5.2-7.5l-1.5,0.2c-1.2,0.2-2.4,0.5-3.5,0.8
			c-1.1,0.3-2.2,0.8-3.3,1.3l-1.3,0.7l1.8,8.6c-0.9,0.7-1.7,1.5-2.5,2.4l-6.9-3.7l-0.8,1.4c-1.3,2.2-2.3,4.7-3.1,7.4L8,533.3
			l5.4,7.3c-0.2,1.4-0.3,2.9-0.3,4.3L7,546.6l0.2,2c0.3,3.1,0.9,6.2,1.6,9.1l0.7,2.8l7,3.3c0.3,0.8,0.6,1.6,0.9,2.4
			c0.3,0.8,0.7,1.5,1.1,2.3l-2.9,6.3l1.1,1.9c1.8,2.9,3.8,5.8,6.1,8.5l1.4,1.6l5.9-2.1c1.1,1.1,2.3,2.2,3.6,3.1l1.4,8.6l1.6,1
			c2.6,1.7,5.3,3,8,4l1.7,0.6L48.8,595.4z"/>
		<g id="XMLID_2570_">
			<path id="XMLID_2571_" class="st5" d="M24,559c-2.8-11.1,0.7-20.9,8.4-23.4c4.4-1.4,9.7-0.2,14.7,3.2c5,3.5,9.3,8.8,12,15.1
				c0.7,1.8,1.4,3.5,1.8,5.3c2.9,11.2-0.6,21-8.3,23.4c-4.4,1.4-9.7,0.3-14.7-3.2c-5-3.4-9.3-8.8-12-15.1
				C25.1,562.5,24.4,560.8,24,559L24,559z M57.3,559.2c-0.4-1.5-0.9-2.9-1.5-4.3c-2.2-5.1-5.6-9.4-9.7-12.2c-4-2.8-8.3-3.7-11.8-2.6
				c-6.2,2-9,9.9-6.7,18.8c0.4,1.4,0.9,2.9,1.5,4.3c2.2,5.1,5.6,9.4,9.7,12.2c4.1,2.8,8.3,3.7,11.8,2.6
				C56.7,576.1,59.6,568.2,57.3,559.2L57.3,559.2z"/>
		</g>
		<g id="XMLID_2566_">
			<path id="XMLID_2567_" class="st8" d="M26,556.8c-2.9-11.1,0.6-21,8.4-23.4c4.4-1.4,9.6-0.3,14.7,3.2c5.1,3.5,9.3,8.8,12,15.1
				c0.8,1.8,1.4,3.5,1.8,5.3c2.9,11.1-0.7,21-8.4,23.3c-4.4,1.4-9.6,0.3-14.7-3.2c-5-3.5-9.3-8.8-12-15.1
				C27,560.3,26.4,558.5,26,556.8L26,556.8z M59.3,557c-0.4-1.4-0.9-2.9-1.5-4.3c-2.2-5-5.6-9.4-9.7-12.2c-4.1-2.8-8.3-3.7-11.8-2.6
				c-6.2,1.9-9,9.9-6.7,18.8c0.4,1.4,0.9,2.9,1.4,4.3c2.2,5,5.6,9.4,9.7,12.2c4,2.8,8.3,3.7,11.8,2.6
				C58.7,573.9,61.6,565.9,59.3,557L59.3,557z"/>
		</g>
		<g id="XMLID_2562_">
			<path id="XMLID_2563_" class="st7" d="M25.3,557.8c-2.9-11.1,0.6-21,8.3-23.4c4.4-1.4,9.7-0.2,14.7,3.2c5,3.5,9.3,8.8,12,15.1
				c0.7,1.7,1.4,3.5,1.8,5.3c2.9,11.1-0.6,20.9-8.3,23.4c-4.4,1.4-9.6,0.3-14.7-3.2c-5.1-3.5-9.3-8.8-12-15.1
				C26.3,561.4,25.7,559.6,25.3,557.8L25.3,557.8z M58.6,558.1c-0.4-1.4-0.9-2.9-1.5-4.3c-2.2-5-5.6-9.4-9.7-12.2
				c-4-2.8-8.3-3.7-11.8-2.6c-6.2,2-9,9.9-6.7,18.9c0.4,1.4,0.9,2.9,1.5,4.3c2.2,5,5.6,9.4,9.7,12.1c4.1,2.8,8.3,3.7,11.8,2.6
				C58,575,60.9,567,58.6,558.1L58.6,558.1z"/>
		</g>
	</g>
	<polygon id="XMLID_2560_" class="st4" points="80.4,569.3 130.8,535.8 128.2,521.8 77.9,555.4 	"/>
	<path id="XMLID_2559_" class="st2" d="M33.1,554.8c0.3,6.6,5.4,13.2,11.2,14.9c5.8,1.6,10.3-2.4,9.9-9c-0.3-6.6-5.4-13.2-11.2-14.9
		C37.2,544.2,32.7,548.2,33.1,554.8z"/>
	<path id="XMLID_2558_" class="st9" d="M43,545.9c-0.3-0.1-0.5-0.1-0.7-0.1c-0.6,1.4-0.9,2.9-0.8,4.7c0.3,6.6,5.4,13.2,11.2,14.9
		c0.3,0.1,0.5,0.1,0.7,0.1c0.6-1.4,0.9-2.9,0.8-4.7C53.9,554.2,48.8,547.6,43,545.9z"/>
</g>
<g id="XMLID_1834_">
	<polygon id="XMLID_2519_" class="st2" points="464.1,345.2 417.7,347.4 412.7,354.9 461.6,352.5 	"/>
	<polygon id="XMLID_2518_" class="st2" points="479.1,352.6 432.7,354.9 427.7,362.4 476.6,360 	"/>
	<polygon id="XMLID_2517_" class="st2" points="486.8,398.1 440.4,400.4 435.5,407.9 484.3,405.5 	"/>
	<polygon id="XMLID_2433_" class="st2" points="474.2,411.6 456.7,412.1 451.7,419.6 471.7,419 	"/>
	<polygon id="XMLID_2432_" class="st3" points="455.9,418.9 408.9,420.8 408.3,413.7 455.3,411.8 	"/>
	<polygon id="XMLID_2431_" class="st4" points="406,411.9 452.9,409.9 455.3,411.8 408.3,413.7 	"/>
	<polygon id="XMLID_2430_" class="st4" points="443.2,405 396.2,407 401.7,415.3 448.7,413.3 	"/>
	<polygon id="XMLID_2429_" class="st5" points="445.5,398.8 398.6,400.8 396.2,407 443.2,405 	"/>
	<polygon id="XMLID_2428_" class="st4" points="444.3,395.3 397.4,397.2 398.6,400.8 445.5,398.8 	"/>
	<polygon id="XMLID_2427_" class="st6" points="439.6,394.3 392.6,396.3 397.4,397.2 444.3,395.3 	"/>
	<polygon id="XMLID_2426_" class="st4" points="438.4,382.8 391.4,384.8 392.6,396.3 439.6,394.3 	"/>
	<polygon id="XMLID_2425_" class="st5" points="442.7,379.8 395.8,381.8 391.4,384.8 438.4,382.8 	"/>
	<polygon id="XMLID_2424_" class="st4" points="443.2,375.9 396.2,377.9 395.8,381.8 442.7,379.8 	"/>
	<polygon id="XMLID_2423_" class="st6" points="439.7,370.9 392.7,372.9 396.2,377.9 443.2,375.9 	"/>
	<polygon id="XMLID_1856_" class="st5" points="450,359.2 403,361.2 401.1,364 448.1,362 	"/>
	<polygon id="XMLID_1855_" class="st6" points="449.1,352.2 402.1,354.2 403,361.2 450,359.2 	"/>
	<polygon id="XMLID_1854_" class="st4" points="456.1,347 409.1,349 402.1,354.2 449.1,352.2 	"/>
	<polygon id="XMLID_1853_" class="st4" points="416.6,422.7 463.6,420.8 455.9,418.9 408.9,420.8 	"/>
	<g id="XMLID_1838_">
		<path id="XMLID_1851_" class="st7" d="M474.8,356c-0.8-0.7-1.6-1.3-2.4-1.8l-0.6-7.1l-1.1-0.5c-0.9-0.4-1.8-0.7-2.7-0.9
			c-0.9-0.2-1.8-0.4-2.7-0.4l-1.2-0.1l-2.1,6.4c-0.9,0.1-1.8,0.3-2.6,0.6l-3.3-5.2l-1.1,0.6c-1.7,1-3.4,2.2-4.9,3.7l-1,0.9l0.8,7
			c-0.7,0.9-1.3,1.8-1.9,2.8l-4.7-1.4l-0.6,1.4c-1,2.2-1.8,4.4-2.4,6.7l-0.6,2.1l3.5,5c-0.1,0.7-0.2,1.3-0.3,1.9
			c-0.1,0.6-0.1,1.3-0.2,2l-4.4,3l0.1,1.7c0.1,2.7,0.4,5.4,0.8,8.1l0.3,1.6l4.8,1c0.4,1.2,0.8,2.4,1.2,3.5l-2.3,6.3l0.7,1.4
			c1.2,2.2,2.5,4.1,3.9,5.9l0.9,1.1l4.2-3.4c0.8,0.7,1.6,1.3,2.4,1.8l0.6,7.1l1.1,0.5c0.9,0.4,1.8,0.7,2.7,0.9
			c0.9,0.2,1.8,0.4,2.7,0.4l1.2,0.1l2.1-6.4c0.9-0.1,1.8-0.3,2.6-0.6l3.3,5.2l1.1-0.6c1.7-0.9,3.4-2.2,4.9-3.7l1-0.9l-0.8-7
			c0.7-0.9,1.3-1.8,1.9-2.8l4.7,1.4l0.6-1.4c1-2.2,1.8-4.4,2.4-6.7l0.6-2.1l-3.5-5c0.1-0.7,0.2-1.3,0.3-1.9c0.1-0.6,0.1-1.3,0.2-2
			l4.4-3l0-1.7c-0.1-2.7-0.4-5.4-0.8-8.1l-0.3-1.6l-4.8-1c-0.3-1.2-0.7-2.4-1.2-3.5l2.3-6.3l-0.7-1.3c-1.2-2.2-2.5-4.1-3.9-5.8
			l-0.9-1.1L474.8,356z"/>
		<g id="XMLID_1847_">
			<path id="XMLID_1848_" class="st5" d="M477.6,390.2c-2.3,8.5-8.5,13.7-14.6,12.2c-3.5-0.9-6.6-3.7-8.7-8.1
				c-2.1-4.3-2.9-9.6-2.3-14.9c0.2-1.5,0.4-2.9,0.8-4.2c2.3-8.6,8.5-13.7,14.6-12.2c3.5,0.9,6.6,3.7,8.7,8c2.1,4.3,2.9,9.6,2.3,14.9
				C478.3,387.4,478,388.9,477.6,390.2L477.6,390.2z M455.1,376.7c-0.3,1.1-0.5,2.3-0.7,3.4c-0.5,4.2,0.2,8.5,1.9,12
				c1.7,3.5,4.2,5.8,7,6.5c5,1.2,9.9-2.9,11.8-9.8c0.3-1.1,0.5-2.3,0.7-3.4c0.5-4.2-0.2-8.5-1.9-12c-1.7-3.5-4.2-5.8-7-6.5
				C462,365.7,457,369.8,455.1,376.7L455.1,376.7z"/>
		</g>
		<g id="XMLID_1843_">
			<path id="XMLID_1844_" class="st8" d="M475.4,390.9c-2.3,8.6-8.5,13.7-14.6,12.2c-3.5-0.9-6.6-3.7-8.7-8
				c-2.1-4.3-2.9-9.6-2.3-14.9c0.2-1.5,0.4-2.9,0.8-4.3c2.3-8.6,8.5-13.7,14.6-12.1c3.5,0.9,6.6,3.7,8.7,8c2.1,4.3,2.9,9.6,2.3,14.9
				C476.1,388.1,475.8,389.5,475.4,390.9L475.4,390.9z M452.9,377.4c-0.3,1.1-0.5,2.3-0.7,3.4c-0.5,4.2,0.2,8.5,1.9,12
				c1.7,3.5,4.2,5.8,7,6.5c5,1.2,9.9-2.9,11.8-9.8c0.3-1.1,0.5-2.3,0.7-3.4c0.5-4.2-0.2-8.5-1.9-12c-1.7-3.5-4.2-5.8-7-6.5
				C459.8,366.3,454.8,370.5,452.9,377.4L452.9,377.4z"/>
		</g>
		<g id="XMLID_1839_">
			<path id="XMLID_1840_" class="st7" d="M476.3,390.5c-2.3,8.5-8.5,13.7-14.6,12.2c-3.5-0.9-6.6-3.7-8.7-8.1
				c-2.1-4.3-2.9-9.6-2.3-14.9c0.2-1.5,0.4-2.9,0.8-4.2c2.3-8.6,8.5-13.7,14.6-12.2c3.5,0.9,6.6,3.7,8.7,8c2.1,4.3,2.9,9.6,2.3,14.9
				C476.9,387.7,476.7,389.1,476.3,390.5L476.3,390.5z M453.8,376.9c-0.3,1.1-0.5,2.3-0.7,3.4c-0.5,4.2,0.2,8.5,1.9,12
				c1.7,3.5,4.2,5.8,7,6.5c4.9,1.2,9.9-2.9,11.8-9.8c0.3-1.1,0.5-2.3,0.7-3.4c0.5-4.2-0.2-8.5-1.9-12c-1.7-3.5-4.2-5.8-7-6.5
				C460.7,365.9,455.7,370,453.8,376.9L453.8,376.9z"/>
		</g>
	</g>
	<polygon id="XMLID_1837_" class="st4" points="443.3,360.7 396.4,362.6 392.7,372.9 439.7,370.9 	"/>
	<path id="XMLID_1836_" class="st2" d="M469.8,389.4c2.3-4.5,1.5-11-1.9-14.4c-3.3-3.4-7.9-2.6-10.2,1.9s-1.5,11,1.9,14.4
		S467.5,393.9,469.8,389.4z"/>
	<path id="XMLID_1835_" class="st9" d="M459.7,391.2c0.1,0.1,0.3,0.2,0.5,0.4c0.9-0.7,1.7-1.6,2.3-2.8c2.3-4.5,1.5-11-1.9-14.4
		c-0.1-0.1-0.3-0.2-0.5-0.4c-0.9,0.7-1.7,1.6-2.3,2.8C455.5,381.4,456.4,387.8,459.7,391.2z"/>
</g>
<g id="XMLID_1670_">
	<path id="XMLID_1683_" class="st10" d="M527.7,572.6l1.8-3c0-0.9,0-1-0.2-1.1c0,0-10.1-0.8-11.9-1.1c-1.4-0.2-5.4-1.4-6.8-5.6
		c-2.6-8.3,0.9-11.2,1.5-11.5c0.6-0.3,1.7-2,5.4-1.4s11.6,2.9,11.6,2.9s0.4-0.2,0.8-0.6c0.3-0.3,1.9-2.7,1.5-3.2
		c-0.7-0.9-7.2-4.3-11.3-6.4c-5.7-3-8.1-4.1-11.3-4.2c-3.2-0.1-10.2,2.2-12.5,2.2c-6.3-0.2-13.9-4-13.9-4l-63.2-28.9
		c-6.3-3.1-7.6-3.8-12.9-8.4c-4-3.4-6.9-8.4-8.7-11.7c-1.2-1.5-3.6-3.7-4.6-4.5c-3.8-2.7-8.7-3-15.3-1.7c-4.3,0.8-6.3-0.1-7.6,0.6
		c-0.5,0.3-0.7,1.7-0.6,1.8c0,0.7,0.8,1.5,1.1,1.6c0.5,0.2,12.1,3.9,13.9,4.2c2.4,0.4,3.9,3.6,3.5,9.3c-0.3,4.8-4.7,6.2-8.4,5.7
		c-3.7-0.6-12.6-5.1-13.6-4.9c0,0-0.4,3.2,0,3.7c0.7,0.9,6.1,7.7,9.9,10.3c6.6,4.6,12.9,2.3,13.2,2.2c4.2-0.5,10.1-0.1,12.4-0.1
		l75.7,35.2c6.3,3.1,7,4.5,12.5,9c3.5,2.9,8.1,8.5,10.9,12l1.1,1.2c0.7,0.9,1.5,1.8,2.5,2.5c3.8,2.7,6.8,3.4,13.5,2.1
		C523.6,575.6,526.9,573.1,527.7,572.6z"/>
	<path id="XMLID_1682_" class="st11" d="M528.5,570.6c0,0,1.1-0.7,1.2-1.7c0-0.9-0.1-1-0.4-1.1c0,0-9.1-2.5-10.8-2.7
		c-1.4-0.2-5.4-1.4-6.8-5.6c-2.6-8.3,0.9-11.2,1.5-11.5s1.7-2,5.4-1.4c3.7,0.6,11.6,2.9,11.6,2.9s1.7-0.9,1-1.9
		c-0.7-0.9-5.9-6.2-10-8.4c-5.7-3-8.1-4.1-11.3-4.2s-10.2,2.2-12.5,2.2c-6.3-0.2-13.9-4-13.9-4l-63.2-28.9
		c-6.3-3.1-7.6-3.8-12.9-8.4c-4-3.4-6.9-8.4-8.7-11.7c-1.2-1.5-3.6-3.7-4.6-4.5c-3.8-2.7-8.7-3-15.3-1.7c-5.9,1.1-8.7,2.8-9,3.2
		c-0.3,0.6,0.5,1.7,0.8,1.8c0.5,0.2,13.2,2.9,15,3.2c2.4,0.4,3.9,3.6,3.5,9.3c-0.3,4.8-4.7,6.2-8.4,5.7c-3.7-0.6-13.4-3.4-14-3.3
		s-1,1.4-0.6,1.8c0.8,0.8,7.1,8,10.9,10.6c6.6,4.6,12.9,2.3,13.2,2.2c4.2-0.5,10.1-0.1,12.4-0.1l75.7,35.2c6.3,3.1,7,4.5,12.5,9
		c3.5,2.9,8.1,8.5,10.9,12l1.1,1.2c0.7,0.9,1.5,1.8,2.5,2.5c3.8,2.7,6.8,3.4,13.5,2.1C524.7,573.3,528.5,570.6,528.5,570.6z"/>
	<g id="XMLID_1679_">
		<path id="XMLID_648_" d="M400.1,487.2c0,0,0.2,0.4,0.7,1.1c0.2,0.3,0.5,0.7,0.7,1.3c0.2,0.5,0.4,1.2,0.4,1.9c0,0.7,0,1.5-0.1,2.2
			c-0.1,0.8-0.1,1.6-0.3,2.5c-0.2,1.7-0.5,3.6-0.9,5.4c-0.4,1.8-1,3.6-1.7,5.2c-0.7,1.6-1.6,3-2.7,3.9c-1,1-2.2,1.4-3,1.5
			c-0.4,0.1-0.7,0.1-0.9,0.1c-0.2,0-0.3,0-0.3,0s0.1,0,0.3,0c0.2,0,0.5,0,0.9-0.1c0.8-0.1,1.9-0.6,2.9-1.6c1-0.9,1.9-2.3,2.6-3.9
			c0.7-1.6,1.2-3.4,1.6-5.2c0.4-1.8,0.7-3.6,0.9-5.4c0.1-0.9,0.2-1.7,0.3-2.5c0.1-0.8,0.1-1.5,0.1-2.2c0-0.7-0.2-1.3-0.4-1.8
			c-0.2-0.5-0.5-0.9-0.7-1.3C400.4,487.6,400.1,487.2,400.1,487.2z"/>
	</g>
	<g id="XMLID_1672_">
		<path id="XMLID_650_" d="M503.6,536.3c0,0-0.6,0-1.4,0.2c-0.9,0.3-2.1,1-2.9,2.4c-0.4,0.7-0.7,1.5-0.9,2.4
			c-0.2,0.9-0.4,1.8-0.6,2.8c-0.4,2-0.7,4.1-0.9,6.2c-0.1,1.1-0.2,2.1-0.3,3.2c-0.1,1.1,0,2.1,0.1,3.1c0.1,2,0.4,3.9,0.9,5.4
			c0.2,0.8,0.5,1.5,0.8,2c0.3,0.6,0.6,1.1,0.9,1.4c0.3,0.4,0.5,0.6,0.7,0.8c0.2,0.2,0.3,0.3,0.3,0.3s-0.1-0.1-0.3-0.3
			c-0.2-0.2-0.4-0.4-0.8-0.8c-0.3-0.4-0.6-0.8-0.9-1.4c-0.3-0.6-0.6-1.3-0.9-2c-0.5-1.5-0.8-3.4-0.9-5.4c-0.1-1-0.2-2.1-0.1-3.1
			c0-1.1,0.1-2.1,0.3-3.2c0.3-2.1,0.6-4.3,1-6.2c0.2-1,0.4-1.9,0.6-2.8c0.2-0.9,0.5-1.8,0.9-2.4c0.8-1.4,2.1-2.1,3-2.4
			C503.1,536.2,503.6,536.3,503.6,536.3z"/>
	</g>
	<path id="XMLID_1671_" class="st12" d="M475.1,542.1l-61.3-28c-1.9-0.9-2.8-3.2-1.9-5.2l0.2-0.4c0.9-1.9,3.2-2.8,5.2-1.9l61.3,28
		c1.9,0.9,2.8,3.2,1.9,5.2l-0.2,0.4C479.4,542.2,477.1,543,475.1,542.1z"/>
</g>
<g id="XMLID_2321_">
	<g id="XMLID_2357_">
		<path id="XMLID_2451_" class="st13" d="M120.8,216.2c-0.4,0-2.6,0.3-4.3,0.6c0.6-0.3,1.1-0.5,1.2-0.6c0.3-0.2,0.2-1.6-0.2-2.1
			c0.9-1,1.9-2.1,2-2.3c0.3-0.4-0.7-2.1-1.3-1.9c-0.5,0.1-3.3,1.2-4.9,1.9c-0.1-0.1-0.2-0.2-0.3-0.4c1.3-0.9,2.7-1.9,2.9-2
			c0.4-0.3-0.2-2.2-0.9-2.2c0,0-0.1,0-0.1,0c0.2-0.3,0.4-0.5,0.4-0.5c0.3-0.4-1-4-1.7-3.8c0.3-0.4-0.7-2.1-1.3-1.9
			c0,0-2.1-3.7-3-4.1c-0.3-0.6-0.8-1.1-1.2-1.1c-0.1,0-0.4,0.1-0.7,0.2l0,0c-0.4,0.1-3.1-4.2-3.1-4.2l0,0c-0.3-0.6-1.1-1.3-1.6-1.1
			c-0.2,0.1-0.8,0.5-1.6,0.9l0,0c0-0.5-2.5-3.7-2.5-3.7c0,0,0,0,0,0c-0.4-0.5-1.4-1.2-1.8-0.9c-0.3,0.2-1.4,1.2-2.4,2.2l0,0
			c0.1-0.9-1.8-4-2.2-4.1c0-0.5-1.6-1.4-2.1-1c-0.3,0.3-1.5,1.8-2.5,3.1c-0.4-1.1-2.1-3.6-2.2-3.9l0,0c0-0.2,0-0.3,0-0.3
			c0-0.5-1.8-1.2-2.2-0.7c-0.3,0.4-1.7,2.7-2.6,4.3c-0.6,0-2-4.1-2.6-4l0,0c0-0.1-0.1-0.3-0.1-0.3c-0.1-0.5-2-0.9-2.3-0.3
			c-0.2,0.4-1.2,2.9-1.8,4.6c-0.3,0-0.5,0-0.8,0.1c-1.1-1.7-2.1-3.1-2.2-2.8v0c-0.4-0.8-0.7-1.5-0.7-1.6c-0.2-0.4-2.1-0.5-2.3,0.2
			c-0.2,0.4-0.6,3.4-0.9,5.1c-0.5,0.1-1,0.2-1.5,0.3c-0.9-1.5-2.5-4.1-2.7-4.4c-0.2-0.4-2.2-0.2-2.3,0.4c-0.1,0.3-0.1,1.3-0.2,2.4
			c-0.3,1-0.3,2-0.3,2.9c-0.5,0.1-0.9,0.3-1.4,0.5c-1.2-1.3-3.2-3.5-3.4-3.7c-0.3-0.4-2.2,0.2-2.2,0.9c0,0.1,0,0.4,0.1,0.8
			c0,0,0,0,0,0c0,1,0.1,2,0.4,2.9c0.1,0.3,0.1,0.7,0.1,1c-0.7,0.3-1.4,0.6-2.1,1c-1.4-1.2-3.4-3-3.6-3.2c-0.4-0.3-2.1,0.4-2.1,1.1
			c0,0.3,0.3,1.5,0.7,2.8c-0.1,0.2,0,0.9,0.3,1.8c-0.6,0.3-1.2,0.7-1.7,1.1c-1.4-1.1-3.7-3-4.1-3.2c-0.4-0.2-2,1-1.8,1.7
			c0.1,0.2,0.5,1,1,1.9c0,0.7,0.3,1.7,0.6,2.7c-0.7,0.5-1.3,1.1-2,1.6c-1.4-1.1-3.1-2.6-3.4-2.7c-0.4-0.2-2,1-1.8,1.6
			c0,0.1,0.2,0.4,0.4,0.7c0,0,0,0,0,0c-0.3,0.3,0.3,1.9,1.2,3.9c-0.6,0.6-1.1,1.2-1.7,1.8c-1.5-0.8-3.4-1.7-3.7-1.8
			c-0.5-0.1-1.8,1.4-1.4,2c0,0.1,0.1,0.2,0.3,0.3c0,0.8,0.6,2.2,1.4,3.9c-0.2,0.4-0.5,0.7-0.7,1.1c-1.7-0.6-3.7-1.2-4-1.3
			c-0.5,0-1.5,1.7-1.1,2.2c0.1,0.2,0.7,0.7,1.5,1.3l0,0c-0.3,0,0.6,1.9,0.6,3.2c-0.2,0.4-0.4,0.7-0.5,1.1c-1.8-0.2-3.9-0.4-4.2-0.3
			c-0.5,0.1-1.1,2-0.6,2.4c0.1,0.1,0.3,0.2,0.6,0.4c0,0,0,0,0,0c-0.5,1,2.2,2.9,1.7,3.9c0,0,0,0,0,0c-1.8,0.2-4.4,0.5-4.7,0.6
			c-0.5,0.2-0.7,2.2-0.1,2.4c-0.5,0.2,3.2,3.6,3,3.8l0,0c-1.7,0.5-3.8,1-4,1.2c-0.4,0.2-0.4,2.2,0.3,2.4c0.4,0.8,1.8,2.4,1.9,3.1
			c0,0.1,0,0.2,0,0.3c-1.1,0.5-2,1-2.1,1.1c-0.4,0.3,0,2.3,0.7,2.3c0,0.4,1.3,2.2,1.7,4.1c-0.7,0.6-1.3,1.1-1.4,1.2
			c-0.3,0.4,0.5,2,1.2,2.1c0.2,1,1.3,3,1.8,3c-0.6,0.5-1,0.9-1.1,1c-0.3,0.4,0.6,2.2,1.3,2.1c0.1,0,0.4-0.1,0.7-0.2
			c-0.3,0.4,1.6,3.5,2.2,3.4c0.1,0,0.1,0,0.2,0.1c-0.4,0.5-0.7,0.9-0.7,1c-0.2,0.4,1,2,1.6,1.8c-0.3,0.4,1.5,2.9,1.8,2.9
			c0.5,0.1,2.8,2.8,2.9,3.1c0.2,0.5,1.3,2.7,2,2.8c0,0,0.1,0,0.1,0l0,0.1l0.9,0.7c0.9,0.9,1.9,2.1,2.1,2.4c0,0,2.1,2.9,3.8,2.4
			c0.1,0,0.5,0.3,1,0.8l0.8,0.8c1.2,1.2,2.5,2.6,2.8,2.4c0.4-0.3,0.6-0.7,1.2-1.4c0.2,0.1,0.3,0.1,0.5,0.2c1.1,1.7,3.3,4.5,3.6,4.7
			c0.6,0.4,2.9-1.8,3-2l0.6,0c1,1.4,2.7,3.8,2.7,3.8c0.4,0.3,2.6-0.2,2.6-0.2c0.4-0.4,0.8-1.5,1.5-2.7c0,0,0.4-0.1,0.8,0
			c0.5,0.9,2.4,3.6,2.8,4.1c0,0,1.9-0.2,2.4-0.6c0,0,1.1-2.1,1.8-3.6c0,0,0.2-0.2,0.8-0.2c0.9,1.8,2.7,4.3,2.9,4.6c0,0,0,0,0.1,0
			c0.2,0,0.5-0.1,0.8-0.2c0.6-0.2,1.4-0.4,1.5-0.8c0.2-0.5,1.2-3,1.7-4.7c0,0,1-0.3,1.2-0.3c0.3,0.5,0.7,1.1,1,1.7
			c0.6,0.9,1,1.6,1,1.7c0,0,0,0,0.1,0c0.1,0.1,0.1,0.2,0.2,0.3c0.1,0.2,0.6,0.2,1.2,0c0.4,0,0.7-0.1,0.9-0.2
			c0.7-0.2,1.3-0.5,1.4-0.8c0.1-0.5,0.2-3.3,0.3-4.7c0.4-0.1,1.2-0.4,1.8-0.5c0.4,0.5,0.8,1,1.1,1.4c0.5,0.9,0.9,1.6,1,1.7
			c0,0,0.1,0,0.1,0c0,0,0.1,0.1,0.1,0.1c0.4,0.3,2.2-0.3,2.2-1c0-0.4-0.4-2.5-0.8-4.2c1-0.4,2.1-0.9,3.1-1.4c1.4,1.3,3.1,2.8,3.3,3
			c0.4,0.3,2.2-0.5,2.1-1.2c0-0.4-0.7-2.5-1.2-4.2c0.8-0.5,1.5-1,2.2-1.5c1.5,1,3.5,2.2,4,2.5c0,0,0,0,0,0c0,0,0,0,0.1,0
			c0,0,0,0,0,0c0.1,0.1,0.3,0,0.6-0.1c0.6-0.2,1-0.6,1.1-0.9c0.2-0.2,0.3-0.4,0.2-0.6c-0.1-0.4-1.2-2.7-2-4.3c0.7-0.6,1.3-1.2,2-1.9
			c1.4,0.7,3.2,1.6,3.9,2c0,0.1,0.1,0.1,0.1,0.1c0.1,0,0.2,0,0.2,0c0,0,0,0,0,0c0.1,0,0.3,0,0.4-0.1c0.8-0.3,1.3-1.2,1.3-1.2
			l-0.1-0.1c0-0.1,0-0.2,0-0.3c-0.2-0.4-1.6-2.5-2.6-4c0.5-0.6,1-0.5,1.5-1.2c2,0.4,4.4,0.9,4.7,1c0.1,0,0.3,0,0.5-0.1
			c0.3-0.1,0.6-0.3,0.8-0.5c0.3-0.2,0.5-0.4,0.5-0.6c0,0,0-0.1,0-0.1l0,0c0-0.1,0-0.2-0.1-0.2c-0.3-0.4-1.5-2.9-2.8-4.9
			c0.2-0.3,0.6-0.6,0.6-0.6c2.1,0.2,4.8,0.6,5.1,0.6c0.5,0,1.1-1.8,0.9-2.4c-0.1-0.4-0.7-1-2.2-4.1l0-0.2c1.5-0.3,3.4-0.6,4.3-0.8
			c0,0,0,0,0,0c0.1,0,0.2,0,0.3-0.1c0.1,0,0.1,0,0.2,0c0.5-0.1,0.7-1.3,0-3.1c-0.1-0.3-1.9-2.8-1.8-3.3c1.5-0.5,2.9-0.6,3.3-0.8
			c0.4-0.2,0.3-3,0-3.6c-0.3-0.6-0.8-1.9-1.3-2.6c0.2-0.3,2-0.8,2.4-1c0.4-0.2,0.4-2.9,0.1-3.6c-0.2-0.4-0.6-4.6-0.5-5.1
			c0.1-0.5-1-3.1-1.7-3.2c-0.4-0.1-1.6,0.6-3.2,0.7c0-0.6-0.1-1.3-0.4-1.4c-0.1,0-0.3-0.1-0.5-0.1c1.3-0.9,3.7-2.6,4-2.8
			C122,218,121.5,216.2,120.8,216.2z M102.5,214.7c-0.3,2.6-3,5.4-5,4.9c-2.6-0.7-7.7-6-9.1-7.3c-1.9-1.8-4.4-3.4-6-4.4
			c0-0.5,0.1-0.8,0.1-0.8s3.9-4.3,8-3.4c2.6,0.6,6.4,3.6,9.4,6.4C101.4,212.1,102.6,214,102.5,214.7z M43.3,234.1
			c-2.8,3.6-5.7,4.8-7.8,4.2c0,0,0-0.1,0-0.1c0-3.7,4.4-13.9,5.9-14c0,0.3,0,0.7,0,1c0,0.4,0,0.9,0.1,1.5c0,0.3,0.1,0.6,0.1,0.9
			c0,0.1,0,0.2,0.1,0.3C41.9,229.9,42.4,231.9,43.3,234.1z M65.7,258.8c2.2-0.6,5.1,0.2,8.6-0.6c3.5-0.7,4.4-1.2,6.8-2.3
			c2.5-1.1,3.6-2.3,6.2-3.6c1.1-0.5,2.3-0.3,3.1,0.3c-0.1,0.3-0.1,0.6-0.3,1c-7.7,7.9-23.9,12-29.5,11.8
			C59.9,261.8,63.7,259.4,65.7,258.8z M51.7,197.1c0.2-0.1,0.5-0.3,0.8-0.4C52.2,196.9,52,197,51.7,197.1z M50.2,197.9
			c0.1,0,0.1-0.1,0.2-0.1C50.4,197.9,50.3,197.9,50.2,197.9z M45.2,201.5c0.3-0.2,0.5-0.4,0.8-0.6C45.7,201,45.4,201.2,45.2,201.5z
			 M93.6,196.1c-0.6-0.4-1.2-0.7-1.8-1l0,0C92.5,195.3,93,195.7,93.6,196.1L93.6,196.1z M87.8,193.2c-0.3-0.1-0.7-0.2-1-0.3
			C87.1,193,87.5,193.1,87.8,193.2L87.8,193.2z M75.9,191.2C75.9,191.2,75.9,191.2,75.9,191.2L75.9,191.2
			C75.9,191.2,75.9,191.2,75.9,191.2z M72.1,191.3L72.1,191.3c-2.1,0.2-4.3,0.5-6.5,0.9l0,0C67.8,191.8,70,191.5,72.1,191.3z
			 M60.9,193.4c-0.4,0.1-0.8,0.3-1.3,0.4l0,0C60.1,193.7,60.5,193.6,60.9,193.4z M55.7,195.3L55.7,195.3c-0.8,0.3-1.6,0.7-2.4,1.1
			C54,196,54.8,195.6,55.7,195.3z M48.3,199.1L48.3,199.1c-0.7,0.5-1.4,0.9-2,1.4C47,200.1,47.6,199.6,48.3,199.1z M44.8,201.7
			c-0.3,0.2-0.5,0.5-0.8,0.7l0,0C44.3,202.2,44.6,202,44.8,201.7z M42.5,203.9c-1.4,1.3-2.5,2.7-3.7,4.1l0,0
			C39.9,206.6,41.1,205.2,42.5,203.9z M37.3,209.8C37.3,209.8,37.3,209.8,37.3,209.8L37.3,209.8L37.3,209.8z M34.8,212.9
			c-0.4,0.6-0.8,1.2-1.2,1.8l0,0C34,214,34.4,213.5,34.8,212.9z M32.8,216.1c-0.5,0.8-0.9,1.6-1.3,2.5l0,0
			C31.9,217.7,32.3,216.9,32.8,216.1z"/>
		<g id="XMLID_2358_">
			<g id="XMLID_2375_">
				<path id="XMLID_2446_" class="st10" d="M120.8,216.2c-0.4,0-3,0.4-4.7,0.6c-0.1-0.3-0.2-0.5-0.4-0.8c0.7-0.8,3.5-3.9,3.8-4.2
					c0.3-0.4-0.7-2.1-1.3-1.9c-0.5,0.1-3.3,1.2-4.9,1.9c-0.4-0.5-0.7-1-1.1-1.5c1.1-1.2,3-3.3,3.2-3.6c0.3-0.4-1-4-1.7-3.8
					c-0.5,0.1-3,3.1-4.6,3.8c-0.4-0.4-0.8-0.8-1.2-1.2c0.9-1.4,4.4-4.2,4.5-4.5c0,0-2.5-4.4-3.1-4.2c-0.4,0.2-3.5,4.6-5,5.6
					c-0.3-0.2-0.7-0.5-1-0.7c0.6-1.5,4.6-5.8,4.3-5.7c-0.4,0.1-3.1-4.2-3.1-4.2c-0.4,0.2-3.9,6.3-5.2,7.5c-0.6-0.3-1.2-0.6-1.8-0.9
					c0.3-1.7,3.8-6.6,3.8-6.9c0-0.5-2.5-3.7-2.5-3.7c-0.3,0.3-3.6,6-5.1,8.3c-0.2,0.3-0.4,0.6-0.5,0.8c-0.5-0.1-1-0.3-1.5-0.4
					c0-0.4,0.1-0.9,0.3-1.4c0.7-2.3,2.6-5.7,2.6-5.9c0.1-0.9-1.8-4-2.2-4.1c-0.3-0.1-2.9,4.9-4.5,8.1c-0.6,1.2-1.1,2.1-1.3,2.5
					c-0.2,0,0-1.3,0.3-2.9c0.5-2.4,1.2-5.6,0.9-5.6c-0.4-1.1-2.1-3.6-2.2-3.9c-0.1-0.5-3.6,7.1-4,7.7c-0.2,0.4-0.9-4.4-0.9-4.4
					c-0.6,0-2-4.1-2.6-4c-0.7-1.5-1.8,7.1-2.1,8.5c0,0.1-0.1,0.2-0.1,0.2c0,0,0-0.1-0.1-0.2c-0.7-1.2-4.8-7.9-5-7.3
					c-0.1,0.3,0.7,4,1.2,7.4c0.4,2.4,0.7,4.6,0.6,5.3c-0.5,0.1-1,0.2-1.5,0.3c-0.9-1.5-2.5-4.1-2.7-4.4c-0.2-0.4-2.2-0.2-2.3,0.4
					c0,0.1-0.2-0.2-0.5-0.7c-1.2-2.2-4.4-8.5-5-7.4c-1.4,3.2-0.8,6.2,0.2,8.6c1.4,3.2,3.7,5.3,3.4,5.4c-1.2-1.3-3.2-3.5-3.4-3.7
					c-0.1-0.1-0.5-0.6-1.2-1.2c-2.2-2.2-6.7-6.6-6.7-6.1c-0.1,2.7,1.2,5.3,2.7,7.6c1.7,2.5,3.5,4.5,3.6,5.4c-0.7,0.3-1.4,0.6-2.1,1
					c-1.4-1.2-3.4-3-3.6-3.2c-0.4-0.3-2.1,0.4-2.1,1.1c0,0.1-0.5-0.6-1.3-1.6c-1.6-2.2-4.2-5.8-3.9-4.6c-0.3,0.6,0.8,3.1,2,5.7
					c1.3,2.9,2.7,5.9,2.4,6.1c-1.4-1.1-3.7-3-4.1-3.2c-0.4-0.2-2,1-1.8,1.7c0,0.1-0.3-0.4-0.9-1.3c-1.6-2.4-4.6-7.3-4-6.2
					c0,1.7,1.2,4.8,2.4,7.6c1.3,3,2.5,5.7,2.1,6c-1.4-1.1-3.1-2.6-3.4-2.7c-0.4-0.2-2,1-1.8,1.6c0,0.1-0.2-0.3-0.5-0.9
					c-1.4-2.4-4.8-8.7-4.9-7.4c-0.5,0.5,1.7,5.2,3.4,9.2c1.2,2.8,2.2,5.2,1.9,5.6c-1.5-0.8-3.4-1.7-3.7-1.8c-0.5-0.1-1.7,1.4-1.4,2
					c0-0.1-0.2-0.4-0.4-0.9c-1.3-2.6-4.9-9.5-4.9-8.3c-0.9,0.7,1.9,5.7,4.1,9.7c1.4,2.5,2.5,4.5,2.3,4.8c-0.6-0.2-2-1.2-3.6-2.3
					c-2.6-2-5.7-4.4-5.9-4.4c-0.5,0,1.5,3.9,0.1,4.3c-0.4,0.1-3.6,1.6-4.2,2.4c-0.5,1,2.2,2.9,1.7,3.9c-0.7,0.1-4.5,2.9-4.8,3
					c-0.5,0.2,3.2,3.6,3,3.8c-0.4,0.2-4.1,3-3.8,3.6c0.4,0.8,1.8,2.4,1.9,3.1c0.3,1.4-1.4,3.4-1.4,3.7c0,0.6,2.9,4.5,1.5,7
					c-0.2,0.4,1.2,3.4,1.8,3.5c0.4,0,1,2.6,0.8,2.9c-0.3,0.4,1.6,3.5,2.2,3.4c0.4-0.1,1.3,2.6,1.1,2.9c-0.3,0.4,1.5,2.9,1.8,2.9
					c0.5,0.1,2.8,2.8,2.9,3.1c0.2,0.5,1.3,2.7,2,2.8c0.8,0.2,2.9,2.8,3.1,3.2c0,0,2.1,2.9,3.8,2.4c0.5-0.1,4.1,4.4,4.7,4
					c0.4-0.3,0.6-0.7,1.2-1.4c0.2,0.1,0.3,0.1,0.5,0.2c1.1,1.7,3.3,4.5,3.6,4.7c0.6,0.4,2.9-1.8,3-2l0.6,0c1,1.4,2.7,3.8,2.7,3.8
					c0.4,0.3,2.6-0.2,2.6-0.2c0.4-0.4,0.8-1.5,1.5-2.7c0,0,0.4-0.1,0.8,0c0.5,0.9,2.4,3.6,2.8,4.1c0,0,1.9-0.2,2.4-0.6
					c0,0,1.1-2.1,1.8-3.6c0,0,0.2-0.2,0.8-0.2c0.9,1.8,2.7,4.3,2.9,4.6c0,0,2.2-0.3,2.4-1c0.2-0.5,1.2-3,1.7-4.7c0,0,1-0.3,1.2-0.3
					c0.9,1.5,2.1,3.5,2.3,3.8c0.2,0.4,3.2-0.3,3.4-1c0.1-0.5,0.2-3.3,0.3-4.7c0.4-0.1,1.2-0.4,1.8-0.5c1.3,1.5,2.1,3.1,2.3,3.3
					c0.4,0.3,2.2-0.3,2.2-1c0-0.4-0.4-2.5-0.8-4.2c1-0.4,2.1-0.9,3.1-1.4c1.4,1.3,3.1,2.8,3.3,3c0.4,0.3,2.2-0.5,2.1-1.2
					c0-0.4-0.7-2.5-1.2-4.2c0.8-0.5,1.5-1,2.2-1.5c1.7,1.1,3.8,2.5,4.1,2.6c0.4,0.2,2.1-0.9,1.9-1.6c-0.1-0.4-1.2-2.7-2-4.3
					c0.7-0.6,1.3-1.2,2-1.9c1.8,0.9,4,2,4.2,2.1c0.4,0.2,1.9-1.1,1.6-1.7c-0.2-0.4-1.6-2.5-2.6-4c0.5-0.6,1-0.5,1.5-1.2
					c2,0.4,4.4,0.9,4.7,1c0.5,0.1,2.2-1,1.8-1.5c-0.3-0.4-1.5-2.9-2.8-4.9c0.2-0.3,0.6-0.6,0.6-0.6c2.1,0.2,4.8,0.6,5.1,0.6
					c0.5,0,1.1-1.8,0.9-2.4c-0.1-0.4-0.7-1-2.2-4.1l0-0.2c1.9-0.3,4.4-0.8,4.7-0.9c0.5-0.1,0.7-1.3,0-3.1c-0.1-0.3-1.9-2.8-1.8-3.3
					c1.5-0.5,2.9-0.6,3.3-0.8c0.4-0.2,0.3-3,0-3.6c-0.3-0.6-0.8-1.9-1.3-2.6c0.2-0.3,2-0.8,2.4-1c0.4-0.2,0.4-2.9,0.1-3.6
					c-0.2-0.4-0.6-4.6-0.5-5.1c0.1-0.5-1-3.1-1.7-3.2c-0.4-0.1-1.9,0.7-3.7,0.7c-0.1-0.5-0.3-1-0.4-1.6c1.3-0.9,3.7-2.6,4-2.8
					C122,218,121.5,216.2,120.8,216.2z M87.9,200.3c2.2,0.5,5.2,2.7,7.9,5.1c0.9,0.8,2.6,2.8,4.1,4.8c1.5,1.9,2.7,3.9,2.6,4.6
					c-0.3,2.6-3,5.4-5,4.9c-2.6-0.7-7.7-6-9.1-7.3c-1.9-1.8-4.4-3.4-6-4.4c-0.1,0-0.2-0.1-0.2-0.1c-3.1-1.8-2.3-4-2.3-4
					S83.8,199.4,87.9,200.3z M63.4,255.9c2.3-0.6,5.5,0.5,9.1-0.2c3.7-0.7,4.6-1.2,7.2-2.4c2.6-1.2,3.7-2.6,6.4-4
					c2.1-1.1,4.7,0.8,4.3,3.3c-0.1,0.3-0.1,0.6-0.3,1c-7.7,7.9-23.9,12-29.5,11.8c-1.1,0-1.7-0.2-1.9-0.6
					C56.7,259.7,61.1,256.6,63.4,255.9z M45.5,212.1c-1.2,1.9-4.8,7.9-3.9,15.8c0.2,2,0.7,4,1.6,6.2c-2.8,3.6-5.7,4.8-7.8,4.2
					c-2-0.5-3.2-2.7-2.6-6C33.5,226.9,38.4,212.9,45.5,212.1z"/>
				<path id="XMLID_2443_" class="st12" d="M115.9,209.3c0.4-0.3-0.2-2.2-0.9-2.2c-0.4,0-3,0.4-4.7,0.6c-0.1-0.3-0.2-0.5-0.4-0.8
					c0.7-0.8,3.5-3.9,3.8-4.2c0.3-0.4-0.7-2.1-1.3-1.9c-0.5,0.1-3.3,1.2-4.9,1.9c-0.4-0.5-0.7-1-1.1-1.5c1.1-1.2,3-3.3,3.2-3.6
					c0.3-0.4-0.7-2.1-1.3-1.9c-0.5,0.1-3.3,1.2-5,1.9c-0.4-0.4-0.8-0.8-1.2-1.2c0.9-1.4,2.4-3.8,2.5-4.1c0.2-0.4-1-1.9-1.7-1.6
					c-0.4,0.2-3,1.8-4.5,2.7c-0.3-0.2-0.7-0.5-1-0.7c0.6-1.5,1.5-4.1,1.6-4.4c0.1-0.5-1.4-1.7-2-1.3c-0.4,0.3-2.2,2-3.5,3.3
					c-0.6-0.3-1.2-0.6-1.8-0.9c0.3-1.7,0.7-4,0.7-4.3c0-0.5-1.6-1.4-2.1-1c-0.3,0.3-1.8,2.2-2.9,3.7c-0.5-0.1-1-0.3-1.5-0.4
					c-0.1-1.8-0.3-4.1-0.3-4.4c0-0.5-1.8-1.2-2.2-0.7c-0.3,0.4-1.7,2.7-2.6,4.3c-0.5,0-1.1-0.1-1.6-0.1c-0.4-1.7-1-4-1-4.2
					c-0.1-0.5-2-0.9-2.3-0.3c-0.2,0.4-1.2,2.9-1.8,4.6c-0.6,0-1.1,0.1-1.7,0.1c-0.8-1.6-1.9-4.2-2.1-4.5c-0.2-0.4-2.1-0.5-2.3,0.2
					c-0.2,0.4-0.6,3.4-0.9,5.1c-0.5,0.1-1,0.2-1.5,0.3c-0.9-1.5-2.5-4.1-2.7-4.4c-0.2-0.4-2.2-0.2-2.3,0.4c-0.1,0.5-0.2,3.6-0.3,5.3
					c-0.5,0.2-1.1,0.3-1.6,0.5c-1.2-1.3-3.2-3.5-3.4-3.7c-0.3-0.4-2.2,0.2-2.2,0.9c0,0.4,0.4,3,0.6,4.8c-0.7,0.3-1.4,0.6-2.1,1
					c-1.4-1.2-3.4-3-3.6-3.2c-0.4-0.3-2.1,0.4-2.1,1.1c0,0.4,0.6,2.8,1.1,4.5c-0.6,0.4-1.2,0.7-1.8,1.1c-1.4-1.1-3.7-3-4.1-3.2
					c-0.4-0.2-2,1-1.8,1.7c0.1,0.4,1.3,2.5,2.2,4.1c-0.9,0.7-1.8,1.4-2.6,2.1c-1.4-1.1-3.1-2.6-3.4-2.7c-0.4-0.2-2,1-1.8,1.6
					c0.1,0.4,1.3,2.4,2.1,4c-0.8,0.8-1.5,1.6-2.3,2.5c-1.5-0.8-3.4-1.7-3.7-1.8c-0.5-0.1-1.8,1.4-1.4,2c0.2,0.3,1.5,1.7,2.6,3
					c-0.6,0.8-1.1,1.5-1.6,2.3c-1.7-0.6-3.7-1.2-4-1.3c-0.5,0-1.5,1.7-1.1,2.2c0.2,0.3,1.7,1.6,3,2.6c-0.5,1-1,2-1.5,3
					c-1.8-0.2-3.9-0.4-4.2-0.3c-0.5,0.1-1.1,2-0.6,2.4c0.3,0.2,1.9,1,3.3,1.8c-0.3,0.8-0.6,1.7-0.8,2.5c-1.8,0.2-4.5,0.5-4.8,0.6
					c-0.5,0.2-0.7,2.2-0.1,2.4c0.4,0.2,2.3,0.7,4,1.2c-0.1,0.8-0.3,1.6-0.4,2.5c-1.8,0.5-4.4,1.2-4.7,1.4c-0.4,0.2-0.4,2.2,0.3,2.4
					c0.4,0.1,2.4,0.3,4.1,0.5c0,0.6,0,1.2,0,1.8c-1.6,0.8-4.1,1.9-4.3,2.1c-0.4,0.3,0,2.3,0.7,2.3c0.4,0,2.4-0.1,4.1-0.2
					c0.1,0.7,0.2,1.4,0.4,2.1c-1.4,1.1-3.9,3.2-4.1,3.4c-0.3,0.4,0.6,2.2,1.3,2.1c0.4-0.1,2.5-0.7,4.1-1.2c0.2,0.6,0.4,1.1,0.7,1.7
					c-1.3,1.1-4,3.2-4.2,3.5c-0.3,0.4,0.6,2.2,1.3,2.1c0.5-0.1,3.4-1,5.1-1.6c0.3,0.5,0.6,0.9,0.9,1.4c-1.1,1.3-3.4,4.1-3.6,4.4
					c-0.2,0.4,1,2,1.6,1.8c0.5-0.2,3.3-1.7,4.8-2.6c0.3,0.3,0.6,0.6,0.9,0.9c-0.8,1.9-2,4.7-2.1,5c-0.2,0.5,1.2,1.9,1.8,1.6
					c0.4-0.2,2.9-2,4.3-3c0.3,0.2,0.7,0.5,1,0.7c-0.6,2-1.4,4.8-1.5,5.1c-0.1,0.5,1.4,1.7,2,1.4c0.4-0.3,2.8-2.5,4.1-3.7
					c0.2,0.1,0.4,0.2,0.6,0.3c0,2.1-0.1,5.3-0.1,5.6c0,0.5,1.9,1.3,2.3,0.8c0.3-0.3,1.8-2.8,2.8-4.3c0.7,0.2,1.3,0.4,2,0.6
					c0,2.1-0.1,5.2-0.1,5.5c0,0.5,1.9,1.3,2.3,0.8c0.4-0.4,2.5-3.9,3.3-5.1c0.4,0.1,0.8,0.1,1.2,0.2c0.4,2,1,4.9,1.1,5.2
					c0.1,0.5,2.1,0.9,2.4,0.3c0.2-0.4,1.3-3.4,1.9-5.1c0.6,0,1.2,0,1.8,0c0.8,1.9,2.1,5.1,2.2,5.4c0.2,0.4,2.2,0.5,2.4-0.2
					c0.2-0.5,0.7-4.1,0.9-5.7c0.8-0.1,1.6-0.2,2.3-0.4c0.7,1.4,1.8,3.8,2,4.1c0.2,0.4,2.2,0.3,2.4-0.3c0.1-0.5,0.4-3.5,0.5-4.9
					c0.7-0.2,1.4-0.4,2.2-0.6c1.3,1.5,3,3.3,3.2,3.5c0.4,0.3,2.2-0.3,2.2-1c0-0.4-0.4-2.5-0.8-4.2c1-0.4,2.1-0.9,3.1-1.4
					c1.4,1.3,3.1,2.8,3.3,3c0.4,0.3,2.2-0.5,2.1-1.2c0-0.4-0.7-2.5-1.2-4.2c0.8-0.5,1.5-1,2.2-1.5c1.7,1.1,3.8,2.5,4.1,2.6
					c0.4,0.2,2.1-0.9,1.9-1.6c-0.1-0.4-1.2-2.7-2-4.3c0.7-0.6,1.3-1.2,2-1.9c1.8,0.9,4,2,4.2,2.1c0.4,0.2,1.9-1.1,1.6-1.7
					c-0.2-0.4-1.6-2.5-2.6-4c0.5-0.6,1-1.3,1.6-2c2,0.4,5.3,1.2,5.6,1.2c0.5,0.1,1.5-1.5,1.1-2.1c-0.3-0.4-2.4-2.3-3.8-3.5
					c0.3-0.6,0.7-1.1,1-1.7c2,0.1,5.2,0.3,5.6,0.3c0.5,0,1.3-1.7,0.8-2.2c-0.3-0.3-2.5-1.7-4-2.7c0.2-0.5,0.4-1,0.6-1.5
					c1.9-0.3,5.7-1,6.1-1.1c0.5-0.1,0.9-2,0.3-2.3c-0.4-0.2-2.8-1.1-4.5-1.7c0.1-0.5,0.3-0.9,0.4-1.4c1.5-0.5,6-2.1,6.4-2.2
					c0.4-0.2,0.5-2.1-0.1-2.3c-0.5-0.2-3.4-0.7-5.2-1.1c0.1-0.7,0.2-1.3,0.2-2c1.2-0.3,4.9-1.3,5.3-1.5c0.4-0.2,0.5-2.1-0.1-2.3
					c-0.4-0.2-3.3-0.7-5.1-1c0-0.6-0.1-1.3-0.1-1.9c1.4-0.6,4.4-2,4.7-2.2c0.4-0.3,0.2-2.2-0.5-2.3c-0.4-0.1-3.1-0.1-4.9-0.2
					c-0.1-0.5-0.3-1-0.4-1.6C113.2,211.2,115.6,209.5,115.9,209.3z M107.2,215.4c2.6,9.3-0.4,18.2-4.6,26.6
					c-5,9.9-12.2,16-23.9,21.1c-4.2,1.8-8.7,3-13.1,3.6c-1.7,0.3-3,0.4-3.8,0.3c-15.2,0.5-29.4-7.5-34.2-26.1
					c-1.3-5.3,0.1-19.5,8.5-29.6c4.8-5.8,9.3-12.4,22.3-16.9C80.7,186.6,101,193.2,107.2,215.4z"/>
				
					<linearGradient id="XMLID_52_" gradientUnits="userSpaceOnUse" x1="374.4049" y1="-16.8905" x2="458.1088" y2="-16.8905" gradientTransform="matrix(0.9451 -0.3269 0.3269 0.9451 -330.9457 349.8487)">
					<stop  offset="3.030300e-002" style="stop-color:#000000"/>
					<stop  offset="0.2727" style="stop-color:#3C3C3B"/>
					<stop  offset="0.4364" style="stop-color:#575756"/>
					<stop  offset="0.5515" style="stop-color:#3C3C3B"/>
					<stop  offset="0.7636" style="stop-color:#575756"/>
					<stop  offset="1" style="stop-color:#000000"/>
				</linearGradient>
				<path id="XMLID_2442_" class="st14" d="M76,191.2c-0.1,0-0.1,0-0.2,0c0,0.1,0.1,0.1,0.1,0.2C76,191.4,76,191.3,76,191.2z"/>
				<path id="XMLID_2441_" class="st15" d="M34.1,215.5C34.1,215.5,34.1,215.6,34.1,215.5C34.1,215.6,34.1,215.6,34.1,215.5z"/>
				
					<linearGradient id="XMLID_53_" gradientUnits="userSpaceOnUse" x1="374.4049" y1="-7.5937" x2="397.1816" y2="-7.5937" gradientTransform="matrix(0.9451 -0.3269 0.3269 0.9451 -330.9457 349.8487)">
					<stop  offset="3.030300e-002" style="stop-color:#000000"/>
					<stop  offset="0.2727" style="stop-color:#3C3C3B"/>
					<stop  offset="0.4364" style="stop-color:#575756"/>
					<stop  offset="0.5515" style="stop-color:#3C3C3B"/>
					<stop  offset="0.7636" style="stop-color:#575756"/>
					<stop  offset="1" style="stop-color:#000000"/>
				</linearGradient>
				<path id="XMLID_2440_" class="st16" d="M34.1,215.5C34.1,215.5,34.1,215.6,34.1,215.5C34.1,215.6,34.1,215.6,34.1,215.5z"/>
				<path id="XMLID_2434_" class="st15" d="M93.6,196.1c-0.6-0.4-1.2-0.7-1.8-1c-1.3-0.7-2.7-1.3-4.1-1.8c-0.3-0.1-0.7-0.2-1-0.3
					c-3.4-1.1-7-1.7-10.8-1.7c0,0.1-0.1,0.2-0.1,0.2c0,0,0-0.1-0.1-0.2c-1.2,0-2.5,0-3.8,0.1c-2.1,0.2-4.3,0.5-6.5,0.9
					c-1.6,0.3-3.1,0.7-4.7,1.2c-0.4,0.1-0.8,0.3-1.3,0.4c-0.4,0.1-0.7,0.2-1.1,0.4c-1,0.3-2,0.7-2.9,1.1c-2,0.8-3.9,1.7-5.5,2.7
					c-0.7,0.4-1.3,0.8-1.9,1.2c-1.6,1.1-3,2.2-4.3,3.3c-0.5,0.5-1.1,1-1.5,1.5c-1.4,1.3-2.5,2.7-3.7,4.1c-0.5,0.6-1,1.2-1.5,1.8
					c-0.4,0.5-0.7,0.9-1.1,1.4c-0.9,1.1-1.8,2.3-2.5,3.5c-0.3,0.5-0.6,0.9-0.9,1.4c-0.5,0.8-0.9,1.6-1.3,2.5
					c-4.2,8.8-4.9,18.2-3.8,22.2c4.7,18.7,19,26.6,34.2,26.1c1.3,0,2.6-0.1,3.8-0.3c4.4-0.5,8.8-1.7,13.1-3.6
					c11.6-5,18.9-11.2,23.9-21.1c4.3-8.4,7.2-17.3,4.6-26.6C104.7,206.4,99.9,200,93.6,196.1z M43.3,234.1c-2.8,3.6-5.7,4.8-7.8,4.2
					c-2-0.5-3.2-2.7-2.6-6c0.6-5.5,5.5-19.5,12.7-20.3c-1.2,1.9-4.8,7.9-3.9,15.8C41.9,229.9,42.4,231.9,43.3,234.1z M90.3,252.7
					c-0.1,0.3-0.1,0.6-0.3,1c-7.7,7.9-23.9,12-29.5,11.8c-1.1,0-1.7-0.2-1.9-0.6c-2-5.2,2.4-8.4,4.7-9c2.3-0.6,5.5,0.5,9.1-0.2
					c3.7-0.7,4.6-1.2,7.2-2.4c2.6-1.2,3.7-2.6,6.4-4C88.2,248.3,90.8,250.1,90.3,252.7z M102.5,214.7c-0.3,2.6-3,5.4-5,4.9
					c-2.6-0.7-7.7-6-9.1-7.3c-1.9-1.8-4.4-3.4-6-4.4c-0.1,0-0.2-0.1-0.2-0.1c-3.1-1.8-2.3-4-2.3-4s3.9-4.3,8-3.4
					c2.2,0.5,5.2,2.7,7.9,5.1c0.9,0.8,2.6,2.8,4.1,4.8C101.4,212.1,102.6,214,102.5,214.7z"/>
				
					<linearGradient id="XMLID_54_" gradientUnits="userSpaceOnUse" x1="392.277" y1="12.9887" x2="439.2293" y2="12.8477" gradientTransform="matrix(0.9451 -0.3269 0.3269 0.9451 -330.9457 349.8487)">
					<stop  offset="3.030300e-002" style="stop-color:#000000"/>
					<stop  offset="0.503" style="stop-color:#575756"/>
					<stop  offset="0.7152" style="stop-color:#706F6F"/>
					<stop  offset="1" style="stop-color:#000000"/>
				</linearGradient>
				<path id="XMLID_2384_" class="st17" d="M86,213.2c7.4,11.4,4.5,26.5-6.5,33.8c-11.1,7.2-26.1,3.8-33.5-7.6
					c-7.4-11.4-5.9-25.7,6.5-33.8C63.6,198.4,78.6,201.7,86,213.2z"/>
				<path id="XMLID_2383_" class="st18" d="M87.9,200.3c-4.1-0.9-8,3.4-8,3.4s-0.8,2.2,2.3,4c0.1,0,0.1,0.1,0.2,0.1
					c0-0.5,0.1-0.8,0.1-0.8s3.9-4.3,8-3.4c2.6,0.6,6.4,3.6,9.4,6.4c-1.5-2-3.2-4-4.1-4.8C93.1,203,90.1,200.8,87.9,200.3z"/>
				<path id="XMLID_2382_" class="st18" d="M65.7,258.8c2.2-0.6,5.1,0.2,8.6-0.6c3.5-0.7,4.4-1.2,6.8-2.3c2.5-1.1,3.6-2.3,6.2-3.6
					c1.1-0.5,2.3-0.3,3.1,0.3c0.4-2.5-2.2-4.4-4.3-3.3c-2.7,1.4-3.8,2.8-6.4,4c-2.6,1.2-3.5,1.7-7.2,2.4c-3.7,0.7-6.9-0.4-9.1,0.2
					c-2.3,0.6-6.7,3.8-4.7,9c0.1,0.4,0.8,0.6,1.9,0.6C59.9,261.8,63.7,259.4,65.7,258.8z"/>
				<path id="XMLID_2381_" class="st18" d="M32.9,232.4c-0.6,3.2,0.6,5.4,2.6,6c0,0,0-0.1,0-0.1c0-3.8,4.7-14.4,6-14
					c-0.2,0.7-0.1,2,0.2,3.7c-0.9-7.9,2.7-13.9,3.9-15.8C38.4,212.9,33.5,226.9,32.9,232.4z"/>
				<path id="XMLID_2378_" class="st12" d="M81.8,209.6c-5.9-9.1-19-10.9-29.4-4c-10.4,6.8-14.1,19.7-8.2,28.7
					c5.9,9.1,19,10.9,29.4,4C84,231.5,87.6,218.6,81.8,209.6z M65.5,229.3c-4.8,1.7-9.9-0.3-11.3-4.4c-1.4-4.1,1.3-8.8,6.2-10.5
					c4.8-1.7,9.9,0.3,11.3,4.4C73.1,222.9,70.3,227.6,65.5,229.3z"/>
				<path id="XMLID_2377_" class="st19" d="M65.7,266.6c-1.3,0.2-2.6,0.3-3.8,0.3C62.7,267,64,266.9,65.7,266.6z"/>
				
					<ellipse id="XMLID_2376_" transform="matrix(0.9451 -0.3269 0.3269 0.9451 -68.9987 32.7558)" class="st10" cx="63" cy="221.7" rx="9.3" ry="8"/>
			</g>
			<g id="XMLID_2359_">
				<path id="XMLID_2374_" class="st13" d="M118.8,253.6c0,0-0.6,2-1.3,1.9c-0.4-0.4-5.4-9.9-5.4-9.9l0.7-2.1L118.8,253.6z"/>
				<path id="XMLID_2373_" class="st13" d="M114.9,260.9c0,0-0.9,1.5-2.1,1.2c-0.3-0.5-4.4-9.6-4.4-9.6l0.9-1.2L114.9,260.9z"/>
				<path id="XMLID_2372_" class="st13" d="M121.8,247c0,0-0.2,1.4-0.8,1.3c-0.4-0.4-5.1-10.4-5.1-10.4l0.1-1.9L121.8,247z"/>
				<path id="XMLID_2371_" class="st13" d="M109.5,266.8c0,0-0.7,1.5-1.9,1.3c-0.3-0.5-4.8-9.3-4.8-9.3l0.8-1.3L109.5,266.8z"/>
				<path id="XMLID_2370_" class="st13" d="M103.5,272.6c0,0-0.6,1.2-1.9,1.1c-0.3-0.5-5.3-9.1-5.3-9.1l1.4-1.3L103.5,272.6z"/>
				<path id="XMLID_2369_" class="st13" d="M96.2,277.3c0,0-1.2,1.1-2.1,0.3c-0.3-0.5-5.3-8.7-5.3-8.7l1.8-1L96.2,277.3z"/>
				<path id="XMLID_2368_" class="st13" d="M88.5,281.2c0,0-1.2,0.8-2.1,0.4c-0.3-0.5-5.3-8.8-5.3-8.8l1.8-0.8L88.5,281.2z"/>
				<path id="XMLID_2367_" class="st13" d="M80.9,284.4c0,0-1.4,0.7-2.4-0.1c-0.3-0.5-5.6-9.3-5.6-9.3l1.6-0.3L80.9,284.4z"/>
				<path id="XMLID_2366_" class="st13" d="M73.3,286.1c0,0-1.7,0.8-2.1,0.7c-0.3-0.5-6-9.6-6-9.6l1.8-0.3L73.3,286.1z"/>
				<path id="XMLID_2365_" class="st13" d="M65.1,285.1c0,0-1.8,0.5-2.2,0.4c-0.3-0.5-6.8-10-6.8-10l2.4,0.5L65.1,285.1z"/>
				<path id="XMLID_2364_" class="st13" d="M57.7,285.3c0,0-1.7,0.2-2.1,0.1c-0.3-0.5-6.8-9.7-6.8-9.7l2,0.5L57.7,285.3z"/>
				<path id="XMLID_2363_" class="st13" d="M50.4,283.2c0,0-0.8,0.6-1.2,0.4c-0.3-0.6-7.6-10.5-7.6-10.5l1.9,0.6L50.4,283.2z"/>
				<polygon id="XMLID_2362_" class="st13" points="42.1,278.4 41.9,278.6 40.1,276.8 35.1,269.7 36.7,270.5 				"/>
				<polygon id="XMLID_2361_" class="st13" points="33.5,271.4 32.5,270.7 29.3,265.2 30.8,265.7 				"/>
				<polygon id="XMLID_2360_" class="st13" points="123.2,239.3 122.9,241 117.9,230.6 118.2,229.9 				"/>
			</g>
		</g>
	</g>
</g>
<g id="XMLID_1782_">
	
		<rect id="XMLID_1781_" x="77.2" y="346.5" transform="matrix(-0.4886 0.8725 -0.8725 -0.4886 463.7843 503.1268)" class="st20" width="14.5" height="82.1"/>
	<polygon id="XMLID_1780_" class="st20" points="134.6,415.9 116.7,413.9 123.8,401.2 	"/>
	<path id="XMLID_1779_" class="st20" d="M56.3,382c1.5-1,7-17,6.3-19c-0.3-0.7-2.8,0.5-3.2,1.9c-0.2,0.7-0.6,3-2.1,7.5
		c-1.9,5.8-3,6.7-3.2,7.1C53.3,382.4,55.5,382.5,56.3,382z"/>
	<path id="XMLID_1778_" class="st20" d="M62.6,386c1.5-1.1,7.2-17.6,6.6-19.6c-0.2-0.8-2.8,0.5-3.3,2c-0.2,0.7-0.6,3.2-2.2,7.7
		c-2,6-3.1,7-3.3,7.4C59.6,386.5,61.8,386.6,62.6,386z"/>
	<path id="XMLID_1777_" class="st20" d="M68.4,389.1c1.5-1.1,7.2-17.6,6.6-19.6c-0.2-0.8-2.8,0.5-3.3,2c-0.2,0.7-0.6,3.2-2.2,7.7
		c-2,6-3.1,7-3.3,7.4C65.4,389.6,67.6,389.7,68.4,389.1z"/>
	<path id="XMLID_1776_" class="st20" d="M74.4,392.7c1.5-1.1,7.2-17.6,6.6-19.6c-0.2-0.8-2.8,0.5-3.3,2c-0.2,0.7-0.6,3.2-2.2,7.7
		c-2,6-3.1,7-3.3,7.4C71.4,393.2,73.7,393.2,74.4,392.7z"/>
	<path id="XMLID_1775_" class="st20" d="M80.9,396.7c1.5-1.1,7.2-17.6,6.6-19.6c-0.2-0.8-2.8,0.5-3.3,2c-0.2,0.7-0.6,3.2-2.2,7.7
		c-2,6-3.1,7-3.3,7.4C77.9,397.2,80.1,397.3,80.9,396.7z"/>
	<path id="XMLID_1774_" class="st20" d="M86.7,400.6c1.5-1.2,7.6-18.7,7-20.9c-0.2-0.8-2.8,0.6-3.3,2.1c-0.3,0.7-0.7,3.4-2.3,8.2
		c-2.1,6.4-3.3,7.5-3.4,7.8C83.6,401.2,85.9,401.2,86.7,400.6z"/>
	<path id="XMLID_1773_" class="st20" d="M93.1,404.2c1.5-1.2,7.5-18.4,6.9-20.6c-0.2-0.8-2.8,0.6-3.3,2.1c-0.2,0.7-0.7,3.3-2.3,8.1
		c-2.1,6.3-3.3,7.3-3.4,7.7C90.1,404.7,92.3,404.7,93.1,404.2z"/>
	<path id="XMLID_1772_" class="st20" d="M98.8,407.3c1.5-1.2,7.5-18.4,6.9-20.6c-0.2-0.8-2.8,0.6-3.3,2.1c-0.2,0.7-0.7,3.3-2.3,8.1
		c-2.1,6.3-3.3,7.3-3.4,7.7C95.8,407.9,98.1,407.9,98.8,407.3z"/>
	<path id="XMLID_1771_" class="st20" d="M104.6,410.6c1.5-1.2,7.5-18.4,6.9-20.6c-0.2-0.8-2.8,0.6-3.3,2.1c-0.2,0.7-0.7,3.3-2.3,8.1
		c-2.1,6.3-3.3,7.3-3.4,7.7C101.6,411.2,103.8,411.2,104.6,410.6z"/>
	<path id="XMLID_1770_" class="st20" d="M111.3,413.7c1.5-1.2,7.5-18.4,6.9-20.6c-0.2-0.8-2.8,0.6-3.3,2.1c-0.2,0.7-0.7,3.3-2.3,8.1
		c-2.1,6.3-3.3,7.3-3.4,7.7C108.3,414.3,110.5,414.3,111.3,413.7z"/>
	<path id="XMLID_1769_" class="st20" d="M117.4,415.6c1.3-1.1,5.5-16.5,4.9-18.3c-0.3-0.7-2.3,0.7-2.7,2c-0.2,0.6-0.4,2.9-1.6,7.1
		c-1.5,5.6-2.4,6.6-2.5,6.9C114.9,416.2,116.8,416.1,117.4,415.6z"/>
	<path id="XMLID_1768_" class="st20" d="M123.9,411.7c0.6-0.7,1.3-10.5,0.3-10.7c-1.2-0.2-1,1.4-1.1,2.1c0,0.4,0.1,1.5,0,3.8
		c-0.2,3-0.6,3.6-0.6,3.8C122.5,412.3,123.6,412.1,123.9,411.7z"/>
	<path id="XMLID_1767_" class="st20" d="M59.1,341.4c4.5,2.5,2.2,15-5.1,28.1c-7.3,13-16.8,21.5-21.2,19c-4.5-2.5-2.2-15,5.1-28.1
		S54.6,338.9,59.1,341.4z"/>
	<path id="XMLID_1766_" class="st20" d="M57.4,341.3c3.7,2.1,1,14-6.1,26.6c-7.1,12.6-15.8,21.2-19.5,19.1c-3.7-2.1-1-14,6.1-26.6
		S53.7,339.2,57.4,341.3z"/>
	
		<ellipse id="XMLID_1765_" transform="matrix(-0.8725 -0.4886 0.4886 -0.8725 -98.8586 701.529)" class="st20" cx="42.1" cy="363.7" rx="5.3" ry="19.1"/>
	<path id="XMLID_1764_" class="st20" d="M48.3,349.6c3.8,0.2,1.4,8.4-2.7,15.7c-4.1,7.3-10.2,14.4-12,10.6
		c-1.7-3.4-2.3-9.1,1.7-16.3C39.4,352.4,44.7,349.4,48.3,349.6z"/>
	
		<rect id="XMLID_1762_" x="36" y="358.6" transform="matrix(-0.4886 0.8725 -0.8725 -0.4886 369.5623 504.0206)" class="st20" width="2.2" height="3.5"/>
	
		<rect id="XMLID_1761_" x="34.2" y="359" transform="matrix(-0.4886 0.8725 -0.8725 -0.4886 368.7632 503.7259)" class="st20" width="5" height="1.9"/>
	
		<linearGradient id="XMLID_55_" gradientUnits="userSpaceOnUse" x1="1652.0616" y1="787.8359" x2="1661.8485" y2="787.8359" gradientTransform="matrix(0.4886 -0.8725 -0.8725 -0.4886 -37.2376 2217.3438)">
		<stop  offset="0" style="stop-color:#1B181C"/>
		<stop  offset="0.4667" style="stop-color:#707072"/>
		<stop  offset="0.9818" style="stop-color:#3E3D3F"/>
	</linearGradient>
	<polygon id="XMLID_1760_" class="st21" points="45.1,373.8 52.2,361.1 123.8,401.2 116.7,413.9 	"/>
	
		<linearGradient id="XMLID_56_" gradientUnits="userSpaceOnUse" x1="1648.7911" y1="738.4855" x2="1663.2865" y2="738.4855" gradientTransform="matrix(0.4886 -0.8725 -0.8725 -0.4886 -37.2376 2217.3438)">
		<stop  offset="0" style="stop-color:#1B181C"/>
		<stop  offset="0.4667" style="stop-color:#707072"/>
		<stop  offset="0.9818" style="stop-color:#3E3D3F"/>
	</linearGradient>
	<polygon id="XMLID_1759_" class="st22" points="134.6,415.9 116.7,413.9 123.8,401.2 	"/>
	<path id="XMLID_1758_" class="st23" d="M56.3,382c1.5-1,7-17,6.3-19c-0.3-0.7-2.8,0.5-3.2,1.9c-0.2,0.7-0.6,3-2.1,7.5
		c-1.9,5.8-3,6.7-3.2,7.1C53.3,382.4,55.5,382.5,56.3,382z"/>
	<path id="XMLID_1757_" class="st23" d="M62.6,386c1.5-1.1,7.2-17.6,6.6-19.6c-0.2-0.8-2.8,0.5-3.3,2c-0.2,0.7-0.6,3.2-2.2,7.7
		c-2,6-3.1,7-3.3,7.4C59.6,386.5,61.8,386.6,62.6,386z"/>
	<path id="XMLID_1751_" class="st23" d="M68.4,389.1c1.5-1.1,7.2-17.6,6.6-19.6c-0.2-0.8-2.8,0.5-3.3,2c-0.2,0.7-0.6,3.2-2.2,7.7
		c-2,6-3.1,7-3.3,7.4C65.4,389.6,67.6,389.7,68.4,389.1z"/>
	<path id="XMLID_1750_" class="st23" d="M74.4,392.7c1.5-1.1,7.2-17.6,6.6-19.6c-0.2-0.8-2.8,0.5-3.3,2c-0.2,0.7-0.6,3.2-2.2,7.7
		c-2,6-3.1,7-3.3,7.4C71.4,393.2,73.7,393.2,74.4,392.7z"/>
	<path id="XMLID_1749_" class="st23" d="M80.9,396.7c1.5-1.1,7.2-17.6,6.6-19.6c-0.2-0.8-2.8,0.5-3.3,2c-0.2,0.7-0.6,3.2-2.2,7.7
		c-2,6-3.1,7-3.3,7.4C77.9,397.2,80.1,397.3,80.9,396.7z"/>
	<path id="XMLID_1748_" class="st23" d="M86.7,400.6c1.5-1.2,7.6-18.7,7-20.9c-0.2-0.8-2.8,0.6-3.3,2.1c-0.3,0.7-0.7,3.4-2.3,8.2
		c-2.1,6.4-3.3,7.5-3.4,7.8C83.6,401.2,85.9,401.2,86.7,400.6z"/>
	<path id="XMLID_1747_" class="st23" d="M93.1,404.2c1.5-1.2,7.5-18.4,6.9-20.6c-0.2-0.8-2.8,0.6-3.3,2.1c-0.2,0.7-0.7,3.3-2.3,8.1
		c-2.1,6.3-3.3,7.3-3.4,7.7C90.1,404.7,92.3,404.7,93.1,404.2z"/>
	<path id="XMLID_1746_" class="st23" d="M98.8,407.3c1.5-1.2,7.5-18.4,6.9-20.6c-0.2-0.8-2.8,0.6-3.3,2.1c-0.2,0.7-0.7,3.3-2.3,8.1
		c-2.1,6.3-3.3,7.3-3.4,7.7C95.8,407.9,98.1,407.9,98.8,407.3z"/>
	<path id="XMLID_1745_" class="st23" d="M104.6,410.6c1.5-1.2,7.5-18.4,6.9-20.6c-0.2-0.8-2.8,0.6-3.3,2.1c-0.2,0.7-0.7,3.3-2.3,8.1
		c-2.1,6.3-3.3,7.3-3.4,7.7C101.6,411.2,103.8,411.2,104.6,410.6z"/>
	<path id="XMLID_1744_" class="st23" d="M111.3,413.7c1.5-1.2,7.5-18.4,6.9-20.6c-0.2-0.8-2.8,0.6-3.3,2.1c-0.2,0.7-0.7,3.3-2.3,8.1
		c-2.1,6.3-3.3,7.3-3.4,7.7C108.3,414.3,110.5,414.3,111.3,413.7z"/>
	<path id="XMLID_1743_" class="st23" d="M117.4,415.6c1.3-1.1,5.5-16.5,4.9-18.3c-0.3-0.7-2.3,0.7-2.7,2c-0.2,0.6-0.4,2.9-1.6,7.1
		c-1.5,5.6-2.4,6.6-2.5,6.9C114.9,416.2,116.8,416.1,117.4,415.6z"/>
	<path id="XMLID_1742_" class="st23" d="M123.9,411.7c0.6-0.7,1.3-10.5,0.3-10.7c-1.2-0.2-1,1.4-1.1,2.1c0,0.4,0.1,1.5,0,3.8
		c-0.2,3-0.6,3.6-0.6,3.8C122.5,412.3,123.6,412.1,123.9,411.7z"/>
	<path id="XMLID_1685_" class="st23" d="M59.1,341.4c4.5,2.5,2.2,15-5.1,28.1c-7.3,13-16.8,21.5-21.2,19c-4.5-2.5-2.2-15,5.1-28.1
		S54.6,338.9,59.1,341.4z"/>
	<path id="XMLID_1681_" class="st24" d="M57.4,341.3c3.7,2.1,1,14-6.1,26.6c-7.1,12.6-15.8,21.2-19.5,19.1c-3.7-2.1-1-14,6.1-26.6
		S53.7,339.2,57.4,341.3z"/>
	
		<ellipse id="XMLID_1680_" transform="matrix(-0.8725 -0.4886 0.4886 -0.8725 -98.8586 701.529)" class="st25" cx="42.1" cy="363.7" rx="5.3" ry="19.1"/>
	<path id="XMLID_1677_" class="st24" d="M48.3,349.6c3.8,0.2,1.4,8.4-2.7,15.7c-4.1,7.3-10.2,14.4-12,10.6
		c-1.7-3.4-2.3-9.1,1.7-16.3C39.4,352.4,44.7,349.4,48.3,349.6z"/>
	
		<rect id="XMLID_1676_" x="36" y="358.6" transform="matrix(-0.4886 0.8725 -0.8725 -0.4886 369.5623 504.0206)" class="st20" width="2.2" height="3.5"/>
	
		<rect id="XMLID_757_" x="34.2" y="359" transform="matrix(-0.4886 0.8725 -0.8725 -0.4886 368.7632 503.7259)" class="st20" width="5" height="1.9"/>
</g>
<g id="XMLID_655_">
	<path id="XMLID_654_" class="st20" d="M498,216.4c-1.9-1.9-8.3-9-9.2-9.9c2.9-5-2.9-25.1,2.3-22.2c5.3,5.7,27.7,29.6,28.6,30.8
		C522.2,220.8,503.7,213.5,498,216.4z"/>
	<path id="XMLID_589_" class="st20" d="M520,216.3c-1.5,1.4-10.7-6.1-18.4-14.3c-7.6-8.2-13.1-16.5-11.6-17.9
		c1.5-1.4,9.4,4.6,17,12.9S521.5,214.9,520,216.3z"/>
	<polygon id="XMLID_588_" class="st20" points="422.9,281.4 415.8,284 414.6,282.6 418.3,275.9 425.2,265.8 488.8,206.5 498,216.4 
		433.8,275.1 	"/>
	<path id="XMLID_587_" class="st20" d="M475.2,214.6c-0.1,0.9,17.4,11.4,18.1,11.1c0.8-0.3,0.9-1.8,0.9-1.8l-1.1-2.7
		c0,0-0.9,1.2-1.6,1.4c-0.7,0.2-12.4-6.8-12.4-7.4c0-0.6,1.1-0.9,1.1-0.9s-3.1-0.9-3.8-0.8C475.7,213.6,475.3,214,475.2,214.6z"/>
	<path id="XMLID_580_" class="st20" d="M468.7,220.9c-0.2,0.9,16.8,11.1,17.5,10.8c0.7-0.3,0.9-1.8,0.9-1.8l-1.1-2.6
		c0,0-0.9,1.2-1.5,1.4c-0.7,0.3-12-6.6-12-7.2s1.1-0.9,1.1-0.9s-3-0.9-3.7-0.8C469.2,219.9,468.8,220.3,468.7,220.9z"/>
	<path id="XMLID_579_" class="st20" d="M461.9,227.2c-0.2,0.9,16.9,11.1,17.6,10.8c0.8-0.3,0.9-1.8,0.9-1.8l-1.1-2.6
		c0,0-0.9,1.2-1.5,1.4c-0.7,0.3-12-6.6-12.1-7.2c0-0.6,1.1-0.9,1.1-0.9s-3-0.9-3.7-0.8C462.3,226.2,462,226.6,461.9,227.2z"/>
	<path id="XMLID_578_" class="st20" d="M454.6,233.8c-0.2,0.9,17,11.2,17.8,10.9c0.8-0.3,0.9-1.8,0.9-1.8l-1.1-2.6
		c0,0-0.9,1.2-1.5,1.4c-0.7,0.3-12.2-6.7-12.1-7.3s1.1-0.9,1.1-0.9s-3-0.9-3.8-0.8C455.1,232.9,454.7,233.3,454.6,233.8z"/>
	<path id="XMLID_577_" class="st20" d="M447.8,240.2c-0.2,0.9,16.9,11.1,17.7,10.9c0.8-0.3,0.9-1.8,0.9-1.8l-1.1-2.6
		c0,0-0.9,1.2-1.5,1.4c-0.7,0.3-12.1-6.6-12.1-7.2c0-0.6,1.1-0.9,1.1-0.9s-3-0.9-3.7-0.8C448.2,239.3,447.9,239.6,447.8,240.2z"/>
	<path id="XMLID_570_" class="st20" d="M441.4,246.1c-0.2,0.9,16.6,11,17.4,10.7c0.7-0.3,0.9-1.8,0.9-1.8l-1-2.6
		c0,0-0.9,1.2-1.5,1.4c-0.7,0.3-11.9-6.5-11.9-7.1s1.1-0.9,1.1-0.9s-2.9-0.9-3.7-0.7C441.9,245.1,441.6,245.5,441.4,246.1z"/>
	<path id="XMLID_569_" class="st20" d="M434.5,252.6c-0.2,0.9,16.6,11,17.4,10.7c0.7-0.3,0.9-1.8,0.9-1.8l-1-2.6
		c0,0-0.9,1.2-1.5,1.4c-0.7,0.3-11.9-6.5-11.9-7.1c0-0.6,1.1-0.9,1.1-0.9s-2.9-0.9-3.7-0.7C434.9,251.6,434.6,252,434.5,252.6z"/>
	<path id="XMLID_568_" class="st20" d="M427.4,259.2c-0.2,0.9,16.6,11,17.4,10.7c0.7-0.3,0.9-1.8,0.9-1.8l-1-2.6
		c0,0-0.9,1.2-1.5,1.4c-0.7,0.3-11.9-6.5-11.9-7.1s1.1-0.9,1.1-0.9s-2.9-0.9-3.7-0.7C427.9,258.1,427.5,258.5,427.4,259.2z"/>
	<path id="XMLID_567_" class="st20" d="M420.7,265.4c-0.2,0.9,16.6,11,17.4,10.7c0.7-0.3,0.9-1.8,0.9-1.8l-1-2.6
		c0,0-0.9,1.2-1.5,1.4c-0.7,0.3-11.9-6.5-11.9-7.1c0-0.6,1.1-0.9,1.1-0.9s-2.9-0.9-3.7-0.7C421.2,264.4,420.8,264.8,420.7,265.4z"/>
	<path id="XMLID_566_" class="st20" d="M417,272.1c-0.1,0.6,13,8.5,13.5,8.3c0.5-0.2,0.6-1.2,0.6-1.2l-0.9-1.9c0,0-0.6,0.8-1.1,0.9
		c-0.5,0.2-9.2-5.1-9.2-5.6c0-0.4,0.8-0.6,0.8-0.6s-2.2-0.8-2.8-0.7C417.3,271.5,417.1,271.7,417,272.1z"/>
	<path id="XMLID_565_" class="st20" d="M520,216.3c-1.2,1.1-8.9-5.8-16.9-14.3c-7.9-8.5-14.1-16.9-12.9-18s9.6,5.3,17.5,13.8
		C515.7,206.3,521.2,215.2,520,216.3z"/>
	<polygon id="XMLID_544_" class="st20" points="501.9,194.7 504.2,194.7 505.3,196.4 505.7,198 507.8,200.1 509.9,200.7 
		511.4,202.4 510.4,204.2 509.6,205.4 507.8,203.5 504.3,200.5 502.2,197.4 500.6,195.8 	"/>
	<polygon id="XMLID_543_" class="st20" points="496.1,218.2 485.1,210.2 488.9,206.6 498,216.4 	"/>
	<path id="XMLID_542_" class="st20" d="M481.8,208.3c-0.1,0.7,16,11.8,16.7,11.8c0.6-0.1,0.7-1.2,0.7-1.2l-1.2-2.2
		c0,0-0.7,0.7-1.3,0.8c-0.6,0.1-11.3-7.4-11.4-7.9c-0.1-0.5,0.9-0.5,0.9-0.5s-2.7-1.3-3.4-1.3C482.1,207.7,481.8,207.9,481.8,208.3z
		"/>
	
		<linearGradient id="XMLID_57_" gradientUnits="userSpaceOnUse" x1="-237.8234" y1="-1588.9175" x2="-200.0329" y2="-1589.446" gradientTransform="matrix(0.6812 0.7321 0.7321 -0.6812 1816.7201 -711.648)">
		<stop  offset="0" style="stop-color:#604D40"/>
		<stop  offset="0.4545" style="stop-color:#DAD173"/>
		<stop  offset="0.6424" style="stop-color:#AB9D61"/>
	</linearGradient>
	<path id="XMLID_541_" class="st26" d="M498,216.4c-1.9-1.9-8.3-9-9.2-9.9c2.9-5-2.9-25.1,2.3-22.2c5.3,5.7,27.7,29.6,28.6,30.8
		C522.2,220.8,503.7,213.5,498,216.4z"/>
	<path id="XMLID_540_" class="st27" d="M520,216.3c-1.5,1.4-10.7-6.1-18.4-14.3c-7.6-8.2-13.1-16.5-11.6-17.9
		c1.5-1.4,9.4,4.6,17,12.9S521.5,214.9,520,216.3z"/>
	
		<linearGradient id="XMLID_58_" gradientUnits="userSpaceOnUse" x1="-211.395" y1="-1650.6946" x2="-239.9363" y2="-1650.6946" gradientTransform="matrix(0.6812 0.7321 0.7321 -0.6812 1816.7201 -711.648)">
		<stop  offset="0.1515" style="stop-color:#604D40"/>
		<stop  offset="0.4545" style="stop-color:#DAD173"/>
		<stop  offset="0.6424" style="stop-color:#B08048"/>
	</linearGradient>
	<polygon id="XMLID_539_" class="st28" points="422.9,281.4 415.8,284 414.6,282.6 418.3,275.9 425.2,265.8 488.8,206.5 498,216.4 
		433.8,275.1 	"/>
	
		<linearGradient id="XMLID_59_" gradientUnits="userSpaceOnUse" x1="-241.2504" y1="-1610.9686" x2="-217.2015" y2="-1607.2688" gradientTransform="matrix(0.6812 0.7321 0.7321 -0.6812 1816.7201 -711.648)">
		<stop  offset="0" style="stop-color:#604D40"/>
		<stop  offset="0.2667" style="stop-color:#DAD173"/>
		<stop  offset="0.4182" style="stop-color:#D9DADB"/>
		<stop  offset="0.6424" style="stop-color:#AB9D61"/>
		<stop  offset="0.8364" style="stop-color:#CBC8B8"/>
	</linearGradient>
	<path id="XMLID_538_" class="st29" d="M475.2,214.6c-0.1,0.9,17.4,11.4,18.1,11.1c0.8-0.3,0.9-1.8,0.9-1.8l-1.1-2.7
		c0,0-0.9,1.2-1.6,1.4c-0.7,0.2-12.4-6.8-12.4-7.4c0-0.6,1.1-0.9,1.1-0.9s-3.1-0.9-3.8-0.8C475.7,213.6,475.3,214,475.2,214.6z"/>
	
		<linearGradient id="XMLID_60_" gradientUnits="userSpaceOnUse" x1="-239.8721" y1="-1619.9261" x2="-215.8231" y2="-1616.2263" gradientTransform="matrix(0.6812 0.7321 0.7321 -0.6812 1816.7201 -711.648)">
		<stop  offset="0" style="stop-color:#604D40"/>
		<stop  offset="0.2667" style="stop-color:#DAD173"/>
		<stop  offset="0.4182" style="stop-color:#D9DADB"/>
		<stop  offset="0.6424" style="stop-color:#AB9D61"/>
		<stop  offset="0.8364" style="stop-color:#CBC8B8"/>
	</linearGradient>
	<path id="XMLID_537_" class="st30" d="M468.7,220.9c-0.2,0.9,16.8,11.1,17.5,10.8c0.7-0.3,0.9-1.8,0.9-1.8l-1.1-2.6
		c0,0-0.9,1.2-1.5,1.4c-0.7,0.3-12-6.6-12-7.2s1.1-0.9,1.1-0.9s-3-0.9-3.7-0.8C469.2,219.9,468.8,220.3,468.7,220.9z"/>
	
		<linearGradient id="XMLID_61_" gradientUnits="userSpaceOnUse" x1="-238.4808" y1="-1628.9708" x2="-214.4319" y2="-1625.271" gradientTransform="matrix(0.6812 0.7321 0.7321 -0.6812 1816.7201 -711.648)">
		<stop  offset="0" style="stop-color:#604D40"/>
		<stop  offset="0.2667" style="stop-color:#DAD173"/>
		<stop  offset="0.4182" style="stop-color:#D9DADB"/>
		<stop  offset="0.6424" style="stop-color:#AB9D61"/>
		<stop  offset="0.8364" style="stop-color:#CBC8B8"/>
	</linearGradient>
	<path id="XMLID_536_" class="st31" d="M461.9,227.2c-0.2,0.9,16.9,11.1,17.6,10.8c0.8-0.3,0.9-1.8,0.9-1.8l-1.1-2.6
		c0,0-0.9,1.2-1.5,1.4c-0.7,0.3-12-6.6-12.1-7.2c0-0.6,1.1-0.9,1.1-0.9s-3-0.9-3.7-0.8C462.3,226.2,462,226.6,461.9,227.2z"/>
	
		<linearGradient id="XMLID_62_" gradientUnits="userSpaceOnUse" x1="-237.0053" y1="-1638.5632" x2="-212.9561" y2="-1634.8633" gradientTransform="matrix(0.6812 0.7321 0.7321 -0.6812 1816.7201 -711.648)">
		<stop  offset="0" style="stop-color:#604D40"/>
		<stop  offset="0.2667" style="stop-color:#DAD173"/>
		<stop  offset="0.4182" style="stop-color:#D9DADB"/>
		<stop  offset="0.6424" style="stop-color:#AB9D61"/>
		<stop  offset="0.8364" style="stop-color:#CBC8B8"/>
	</linearGradient>
	<path id="XMLID_535_" class="st32" d="M454.6,233.8c-0.2,0.9,17,11.2,17.8,10.9c0.8-0.3,0.9-1.8,0.9-1.8l-1.1-2.6
		c0,0-0.9,1.2-1.5,1.4c-0.7,0.3-12.2-6.7-12.1-7.3s1.1-0.9,1.1-0.9s-3-0.9-3.8-0.8C455.1,232.9,454.7,233.3,454.6,233.8z"/>
	
		<linearGradient id="XMLID_63_" gradientUnits="userSpaceOnUse" x1="-235.5942" y1="-1647.7336" x2="-211.5458" y2="-1644.0339" gradientTransform="matrix(0.6812 0.7321 0.7321 -0.6812 1816.7201 -711.648)">
		<stop  offset="0" style="stop-color:#604D40"/>
		<stop  offset="0.2667" style="stop-color:#DAD173"/>
		<stop  offset="0.4182" style="stop-color:#D9DADB"/>
		<stop  offset="0.6424" style="stop-color:#AB9D61"/>
		<stop  offset="0.8364" style="stop-color:#CBC8B8"/>
	</linearGradient>
	<path id="XMLID_534_" class="st33" d="M447.8,240.2c-0.2,0.9,16.9,11.1,17.7,10.9c0.8-0.3,0.9-1.8,0.9-1.8l-1.1-2.6
		c0,0-0.9,1.2-1.5,1.4c-0.7,0.3-12.1-6.6-12.1-7.2c0-0.6,1.1-0.9,1.1-0.9s-3-0.9-3.7-0.8C448.2,239.3,447.9,239.6,447.8,240.2z"/>
	
		<linearGradient id="XMLID_65_" gradientUnits="userSpaceOnUse" x1="-234.2965" y1="-1656.1699" x2="-210.2476" y2="-1652.4701" gradientTransform="matrix(0.6812 0.7321 0.7321 -0.6812 1816.7201 -711.648)">
		<stop  offset="0" style="stop-color:#604D40"/>
		<stop  offset="0.2667" style="stop-color:#DAD173"/>
		<stop  offset="0.4182" style="stop-color:#D9DADB"/>
		<stop  offset="0.6424" style="stop-color:#AB9D61"/>
		<stop  offset="0.8364" style="stop-color:#CBC8B8"/>
	</linearGradient>
	<path id="XMLID_533_" class="st34" d="M441.4,246.1c-0.2,0.9,16.6,11,17.4,10.7c0.7-0.3,0.9-1.8,0.9-1.8l-1-2.6
		c0,0-0.9,1.2-1.5,1.4c-0.7,0.3-11.9-6.5-11.9-7.1s1.1-0.9,1.1-0.9s-2.9-0.9-3.7-0.7C441.9,245.1,441.6,245.5,441.4,246.1z"/>
	
		<linearGradient id="XMLID_68_" gradientUnits="userSpaceOnUse" x1="-232.8622" y1="-1665.4917" x2="-208.8133" y2="-1661.7919" gradientTransform="matrix(0.6812 0.7321 0.7321 -0.6812 1816.7201 -711.648)">
		<stop  offset="0" style="stop-color:#604D40"/>
		<stop  offset="0.2667" style="stop-color:#DAD173"/>
		<stop  offset="0.4182" style="stop-color:#D9DADB"/>
		<stop  offset="0.6424" style="stop-color:#AB9D61"/>
		<stop  offset="0.8364" style="stop-color:#CBC8B8"/>
	</linearGradient>
	<path id="XMLID_532_" class="st35" d="M434.5,252.6c-0.2,0.9,16.6,11,17.4,10.7c0.7-0.3,0.9-1.8,0.9-1.8l-1-2.6
		c0,0-0.9,1.2-1.5,1.4c-0.7,0.3-11.9-6.5-11.9-7.1c0-0.6,1.1-0.9,1.1-0.9s-2.9-0.9-3.7-0.7C434.9,251.6,434.6,252,434.5,252.6z"/>
	
		<linearGradient id="XMLID_72_" gradientUnits="userSpaceOnUse" x1="-231.415" y1="-1674.8978" x2="-207.3661" y2="-1671.198" gradientTransform="matrix(0.6812 0.7321 0.7321 -0.6812 1816.7201 -711.648)">
		<stop  offset="0" style="stop-color:#604D40"/>
		<stop  offset="0.2667" style="stop-color:#DAD173"/>
		<stop  offset="0.4182" style="stop-color:#D9DADB"/>
		<stop  offset="0.6424" style="stop-color:#AB9D61"/>
		<stop  offset="0.8364" style="stop-color:#CBC8B8"/>
	</linearGradient>
	<path id="XMLID_279_" class="st36" d="M427.4,259.2c-0.2,0.9,16.6,11,17.4,10.7c0.7-0.3,0.9-1.8,0.9-1.8l-1-2.6
		c0,0-0.9,1.2-1.5,1.4c-0.7,0.3-11.9-6.5-11.9-7.1s1.1-0.9,1.1-0.9s-2.9-0.9-3.7-0.7C427.9,258.1,427.5,258.5,427.4,259.2z"/>
	
		<linearGradient id="XMLID_73_" gradientUnits="userSpaceOnUse" x1="-230.0393" y1="-1683.84" x2="-205.9904" y2="-1680.1401" gradientTransform="matrix(0.6812 0.7321 0.7321 -0.6812 1816.7201 -711.648)">
		<stop  offset="0" style="stop-color:#604D40"/>
		<stop  offset="0.2667" style="stop-color:#DAD173"/>
		<stop  offset="0.4182" style="stop-color:#D9DADB"/>
		<stop  offset="0.6424" style="stop-color:#AB9D61"/>
		<stop  offset="0.8364" style="stop-color:#CBC8B8"/>
	</linearGradient>
	<path id="XMLID_278_" class="st37" d="M420.7,265.4c-0.2,0.9,16.6,11,17.4,10.7c0.7-0.3,0.9-1.8,0.9-1.8l-1-2.6
		c0,0-0.9,1.2-1.5,1.4c-0.7,0.3-11.9-6.5-11.9-7.1c0-0.6,1.1-0.9,1.1-0.9s-2.9-0.9-3.7-0.7C421.2,264.4,420.8,264.8,420.7,265.4z"/>
	
		<linearGradient id="XMLID_74_" gradientUnits="userSpaceOnUse" x1="-228.764" y1="-1692.129" x2="-204.715" y2="-1688.4291" gradientTransform="matrix(0.6812 0.7321 0.7321 -0.6812 1816.7201 -711.648)">
		<stop  offset="0" style="stop-color:#604D40"/>
		<stop  offset="0.2667" style="stop-color:#DAD173"/>
		<stop  offset="0.4182" style="stop-color:#D9DADB"/>
		<stop  offset="0.6424" style="stop-color:#AB9D61"/>
		<stop  offset="0.8364" style="stop-color:#CBC8B8"/>
	</linearGradient>
	<path id="XMLID_196_" class="st38" d="M417,272.1c-0.1,0.6,13,8.5,13.5,8.3c0.5-0.2,0.6-1.2,0.6-1.2l-0.9-1.9c0,0-0.6,0.8-1.1,0.9
		c-0.5,0.2-9.2-5.1-9.2-5.6c0-0.4,0.8-0.6,0.8-0.6s-2.2-0.8-2.8-0.7C417.3,271.5,417.1,271.7,417,272.1z"/>
	
		<linearGradient id="XMLID_75_" gradientUnits="userSpaceOnUse" x1="-226.0505" y1="-1575.3037" x2="-226.0505" y2="-1603.8945" gradientTransform="matrix(0.6812 0.7321 0.7321 -0.6812 1816.7201 -711.648)">
		<stop  offset="0" style="stop-color:#604D40"/>
		<stop  offset="0.2667" style="stop-color:#DAD173"/>
		<stop  offset="0.4182" style="stop-color:#D9DADB"/>
		<stop  offset="0.6424" style="stop-color:#AB9D61"/>
		<stop  offset="0.8364" style="stop-color:#CBC8B8"/>
	</linearGradient>
	<path id="XMLID_41_" class="st39" d="M520,216.3c-1.2,1.1-8.9-5.8-16.9-14.3c-7.9-8.5-14.1-16.9-12.9-18s9.6,5.3,17.5,13.8
		C515.7,206.3,521.2,215.2,520,216.3z"/>
	<polygon id="XMLID_40_" class="st20" points="501.9,194.7 504.2,194.7 505.3,196.4 505.7,198 507.8,200.1 509.9,200.7 511.4,202.4 
		510.4,204.2 509.6,205.4 507.8,203.5 504.3,200.5 502.2,197.4 500.6,195.8 	"/>
	
		<linearGradient id="XMLID_76_" gradientUnits="userSpaceOnUse" x1="-232.3314" y1="-1600.219" x2="-218.9701" y2="-1600.219" gradientTransform="matrix(0.6812 0.7321 0.7321 -0.6812 1816.7201 -711.648)">
		<stop  offset="0" style="stop-color:#604D40"/>
		<stop  offset="0.4545" style="stop-color:#DAD173"/>
		<stop  offset="0.6424" style="stop-color:#AB9D61"/>
	</linearGradient>
	<polygon id="XMLID_32_" class="st40" points="496.1,218.2 485.1,210.2 488.9,206.6 498,216.4 	"/>
	
		<linearGradient id="XMLID_77_" gradientUnits="userSpaceOnUse" x1="-242.4312" y1="-1603.2953" x2="-218.3819" y2="-1599.5953" gradientTransform="matrix(0.6812 0.7321 0.7321 -0.6812 1816.7201 -711.648)">
		<stop  offset="0" style="stop-color:#604D40"/>
		<stop  offset="0.2667" style="stop-color:#DAD173"/>
		<stop  offset="0.4182" style="stop-color:#D9DADB"/>
		<stop  offset="0.6424" style="stop-color:#AB9D61"/>
		<stop  offset="0.8364" style="stop-color:#CBC8B8"/>
	</linearGradient>
	<path id="XMLID_597_" class="st41" d="M481.8,208.3c-0.1,0.7,16,11.8,16.7,11.8c0.6-0.1,0.7-1.2,0.7-1.2l-1.2-2.2
		c0,0-0.7,0.7-1.3,0.8c-0.6,0.1-11.3-7.4-11.4-7.9c-0.1-0.5,0.9-0.5,0.9-0.5s-2.7-1.3-3.4-1.3C482.1,207.7,481.8,207.9,481.8,208.3z
		"/>
</g>
<g id="XMLID_657_">
	<polygon id="XMLID_1813_" class="st42" points="384.1,46.9 348,62.6 346.3,70 384.3,53.5 	"/>
	<polygon id="XMLID_1812_" class="st42" points="398.2,48.3 362.1,64 360.4,71.4 398.4,54.9 	"/>
	<polygon id="XMLID_1811_" class="st42" points="418,82.1 381.8,97.8 380.2,105.2 418.2,88.7 	"/>
	<polygon id="XMLID_1810_" class="st42" points="412,96.6 398.2,102.2 396.5,109.6 412.2,103.2 	"/>
	<polygon id="XMLID_1809_" class="st43" points="399.7,107.8 363,123.4 360.4,118 397.1,102.4 	"/>
	<polygon id="XMLID_1808_" class="st44" points="358,117.2 394.6,101.6 397.1,102.4 360.4,118 	"/>
	<polygon id="XMLID_1807_" class="st44" points="385.5,100.6 348.8,116.3 355.6,121.2 392.3,105.6 	"/>
	<polygon id="XMLID_1806_" class="st5" points="385.4,95 348.8,110.6 348.8,116.3 385.5,100.6 	"/>
	<polygon id="XMLID_1805_" class="st44" points="383.4,92.5 346.8,108.2 348.8,110.6 385.4,95 	"/>
	<polygon id="XMLID_1804_" class="st45" points="379.4,93.2 342.7,108.8 346.8,108.2 383.4,92.5 	"/>
	<polygon id="XMLID_1803_" class="st44" points="375,84.5 338.3,100.1 342.7,108.8 379.4,93.2 	"/>
	<polygon id="XMLID_1802_" class="st5" points="377.5,80.8 340.9,96.4 338.3,100.1 375,84.5 	"/>
	<polygon id="XMLID_1801_" class="st44" points="376.7,77.5 340.1,93.1 340.9,96.4 377.5,80.8 	"/>
	<polygon id="XMLID_1800_" class="st45" points="372.5,74.6 335.8,90.3 340.1,93.1 376.7,77.5 	"/>
	<polygon id="XMLID_1799_" class="st5" points="377.1,62.3 340.4,77.9 339.8,80.7 376.4,65.1 	"/>
	<polygon id="XMLID_1798_" class="st45" points="374.3,57 337.7,72.6 340.4,77.9 377.1,62.3 	"/>
	<polygon id="XMLID_1797_" class="st44" points="378.3,50.8 341.6,66.4 337.7,72.6 374.3,57 	"/>
	<polygon id="XMLID_1796_" class="st44" points="369.7,122.6 406.3,107 399.7,107.8 363,123.4 	"/>
	<g id="XMLID_1740_">
		<path id="XMLID_1794_" class="st46" d="M395.8,52.3c-0.8-0.3-1.6-0.6-2.4-0.7l-2.6-5.5l-1,0c-0.9,0-1.6,0-2.4,0.1
			c-0.8,0.1-1.5,0.2-2.3,0.5l-1,0.3l0.3,5.7c-0.7,0.4-1.3,0.8-1.9,1.3l-4.2-3.1l-0.7,0.8c-1.1,1.3-2,2.8-2.8,4.4l-0.5,1l2.8,5.3
			c-0.3,0.9-0.5,1.8-0.7,2.8l-4.2,0.3l-0.1,1.3c-0.1,2-0.1,4.1,0.1,6.1l0.2,1.9l4.2,2.9c0.1,0.6,0.2,1.1,0.4,1.6
			c0.1,0.5,0.3,1.1,0.4,1.6l-2.6,3.7l0.6,1.3c0.8,2.1,1.9,4.2,3.1,6.2l0.7,1.2l4.1-0.7c0.6,0.9,1.3,1.7,2,2.4l0,5.7l1,0.9
			c1.6,1.4,3.2,2.5,4.8,3.5l1,0.6l2.4-3.9c0.8,0.3,1.6,0.6,2.4,0.7l2.6,5.4l1,0c0.8,0,1.7,0,2.4-0.1c0.8-0.1,1.5-0.2,2.3-0.5
			l0.9-0.3l-0.3-5.7c0.7-0.4,1.3-0.8,1.9-1.3l4.2,3.2l0.7-0.8c1.1-1.3,2-2.7,2.8-4.4l0.5-1l-2.8-5.3c0.3-0.9,0.5-1.8,0.7-2.8
			l4.2-0.3l0.1-1.3c0.1-2,0.1-4.1-0.1-6l-0.2-1.9l-4.2-2.9c-0.1-0.6-0.2-1.1-0.4-1.6c-0.1-0.5-0.3-1.1-0.5-1.6l2.6-3.7l-0.5-1.4
			c-0.9-2.1-1.9-4.2-3.1-6.2l-0.7-1.2l-4.1,0.6c-0.6-0.8-1.3-1.7-2-2.4l0-5.7l-1-0.9c-1.6-1.4-3.2-2.5-4.8-3.5l-1-0.6L395.8,52.3z"
			/>
		<g id="XMLID_1790_">
			<path id="XMLID_1791_" class="st5" d="M408.3,78.6c0.7,7.5-2.6,13.4-8,14c-3.1,0.4-6.4-1-9.3-3.8c-2.9-2.8-5.2-6.7-6.3-11.1
				c-0.3-1.2-0.5-2.4-0.6-3.6c-0.7-7.5,2.6-13.4,8-14c3.1-0.4,6.4,1,9.3,3.8c3,2.8,5.2,6.7,6.3,11.1C408,76.2,408.2,77.4,408.3,78.6
				L408.3,78.6z M386.4,74.6c0.1,1,0.3,2,0.5,2.9c0.9,3.5,2.7,6.7,5.1,8.9c2.4,2.3,5,3.3,7.5,3.1c4.3-0.5,7-5.3,6.4-11.3
				c-0.1-1-0.3-1.9-0.5-2.9c-0.9-3.5-2.7-6.7-5.1-8.9c-2.4-2.3-5.1-3.3-7.5-3.1C388.6,63.8,385.9,68.5,386.4,74.6L386.4,74.6z"/>
		</g>
		<g id="XMLID_1786_">
			<path id="XMLID_1787_" class="st47" d="M406.8,79.8c0.7,7.5-2.6,13.4-8,14c-3.1,0.4-6.4-1-9.3-3.8c-3-2.8-5.2-6.8-6.3-11.1
				c-0.3-1.2-0.5-2.4-0.6-3.6c-0.7-7.5,2.6-13.4,8-14c3.1-0.4,6.4,1,9.3,3.8c2.9,2.8,5.2,6.8,6.3,11.1
				C406.4,77.4,406.6,78.6,406.8,79.8L406.8,79.8z M384.9,75.8c0.1,1,0.3,1.9,0.5,2.9c0.9,3.5,2.7,6.7,5.1,8.9c2.4,2.3,5,3.3,7.5,3
				c4.3-0.5,7-5.3,6.4-11.3c-0.1-1-0.3-1.9-0.5-2.9c-0.9-3.5-2.7-6.7-5.1-8.9c-2.4-2.2-5.1-3.3-7.5-3C387,65,384.3,69.7,384.9,75.8
				L384.9,75.8z"/>
		</g>
		<g id="XMLID_1741_">
			<path id="XMLID_1783_" class="st46" d="M407.3,79.2c0.7,7.5-2.6,13.4-8,14c-3.1,0.4-6.4-1-9.3-3.8c-2.9-2.8-5.2-6.7-6.3-11.1
				c-0.3-1.2-0.5-2.4-0.6-3.6c-0.7-7.5,2.6-13.4,8-14c3.1-0.4,6.4,1,9.3,3.8c3,2.8,5.2,6.8,6.3,11.1C407,76.8,407.2,78,407.3,79.2
				L407.3,79.2z M385.5,75.2c0.1,1,0.3,1.9,0.5,2.9c0.9,3.5,2.7,6.7,5.1,8.9c2.4,2.2,5,3.3,7.5,3c4.3-0.5,7-5.3,6.4-11.3
				c-0.1-1-0.3-1.9-0.5-2.9c-0.9-3.5-2.7-6.7-5.1-8.9c-2.4-2.3-5.1-3.3-7.5-3C387.6,64.4,384.9,69.1,385.5,75.2L385.5,75.2z"/>
		</g>
	</g>
	<polygon id="XMLID_1739_" class="st44" points="372.3,65.4 335.6,81 335.8,90.3 372.5,74.6 	"/>
	<path id="XMLID_659_" class="st42" d="M401.9,80.2c0.5-4.3-2.1-9.1-5.8-10.9c-3.7-1.7-7,0.3-7.5,4.6c-0.5,4.3,2.1,9.1,5.8,10.9
		C398.1,86.6,401.4,84.5,401.9,80.2z"/>
	<path id="XMLID_658_" class="st48" d="M394.4,84.8c0.2,0.1,0.3,0.1,0.5,0.2c0.5-0.8,0.9-1.8,1-3c0.5-4.3-2.1-9.1-5.8-10.9
		c-0.2-0.1-0.3-0.1-0.5-0.2c-0.5,0.8-0.9,1.8-1,3C388.1,78.2,390.7,83,394.4,84.8z"/>
</g>
<g id="XMLID_1_">
	<polygon id="XMLID_656_" class="st42" points="163,46.9 199.1,62.6 200.8,70 162.8,53.5 	"/>
	<polygon id="XMLID_653_" class="st42" points="148.8,48.3 185,64 186.7,71.4 148.7,54.9 	"/>
	<polygon id="XMLID_652_" class="st42" points="129.1,82.1 165.2,97.8 166.9,105.2 128.9,88.7 	"/>
	<polygon id="XMLID_651_" class="st42" points="135.1,96.6 148.9,102.2 150.5,109.6 134.9,103.2 	"/>
	<polygon id="XMLID_646_" class="st43" points="147.4,107.8 184.1,123.4 186.7,118 150,102.4 	"/>
	<polygon id="XMLID_645_" class="st44" points="189.1,117.2 152.4,101.6 150,102.4 186.7,118 	"/>
	<polygon id="XMLID_643_" class="st44" points="161.6,100.6 198.3,116.3 191.5,121.2 154.8,105.6 	"/>
	<polygon id="XMLID_642_" class="st5" points="161.6,95 198.3,110.6 198.3,116.3 161.6,100.6 	"/>
	<polygon id="XMLID_641_" class="st44" points="163.7,92.5 200.3,108.2 198.3,110.6 161.6,95 	"/>
	<polygon id="XMLID_629_" class="st45" points="167.7,93.2 204.4,108.8 200.3,108.2 163.7,92.5 	"/>
	<polygon id="XMLID_622_" class="st44" points="172.1,84.5 208.8,100.1 204.4,108.8 167.7,93.2 	"/>
	<polygon id="XMLID_621_" class="st5" points="169.5,80.8 206.2,96.4 208.8,100.1 172.1,84.5 	"/>
	<polygon id="XMLID_620_" class="st44" points="170.4,77.5 207,93.1 206.2,96.4 169.5,80.8 	"/>
	<polygon id="XMLID_619_" class="st45" points="174.6,74.6 211.3,90.3 207,93.1 170.4,77.5 	"/>
	<polygon id="XMLID_618_" class="st5" points="170,62.3 206.6,77.9 207.3,80.7 170.7,65.1 	"/>
	<polygon id="XMLID_617_" class="st45" points="172.8,57 209.4,72.6 206.6,77.9 170,62.3 	"/>
	<polygon id="XMLID_616_" class="st44" points="168.8,50.8 205.4,66.4 209.4,72.6 172.8,57 	"/>
	<polygon id="XMLID_615_" class="st44" points="177.4,122.6 140.7,107 147.4,107.8 184.1,123.4 	"/>
	<g id="XMLID_600_">
		<path id="XMLID_613_" class="st46" d="M148.9,48.3l-1,0.6c-1.6,0.9-3.3,2.1-4.8,3.5l-1,0.9l0,5.7c-0.7,0.8-1.4,1.6-2,2.4l-4.1-0.6
			l-0.7,1.2c-1.2,2-2.2,4.1-3.1,6.2l-0.5,1.4l2.6,3.7c-0.2,0.6-0.3,1.1-0.5,1.6c-0.1,0.5-0.3,1.1-0.4,1.6l-4.2,2.9l-0.2,1.9
			c-0.2,2-0.2,4-0.1,6l0.1,1.3l4.2,0.3c0.2,0.9,0.4,1.9,0.7,2.8l-2.8,5.3l0.5,1c0.8,1.7,1.7,3.1,2.8,4.4l0.7,0.8l4.2-3.2
			c0.6,0.5,1.3,0.9,1.9,1.3l-0.3,5.7l0.9,0.3c0.8,0.2,1.6,0.4,2.3,0.5c0.8,0.1,1.6,0.1,2.4,0.1l1,0l2.6-5.4c0.8-0.2,1.6-0.4,2.4-0.7
			l2.4,3.9l1-0.6c1.6-0.9,3.3-2.1,4.8-3.5l1-0.9l0-5.7c0.7-0.8,1.4-1.6,2-2.4l4.1,0.7l0.7-1.2c1.2-2,2.2-4.1,3.1-6.2l0.6-1.3
			l-2.6-3.7c0.2-0.6,0.3-1.1,0.4-1.6c0.1-0.5,0.3-1.1,0.4-1.6l4.2-2.9l0.2-1.9c0.2-2,0.2-4,0.1-6.1l-0.1-1.3l-4.2-0.3
			c-0.2-1-0.4-1.9-0.7-2.8l2.8-5.3l-0.5-1c-0.8-1.7-1.7-3.1-2.8-4.4l-0.7-0.8l-4.2,3.1c-0.6-0.5-1.3-0.9-1.9-1.3l0.3-5.7l-1-0.3
			c-0.8-0.2-1.5-0.4-2.3-0.5c-0.8-0.1-1.5-0.1-2.4-0.1l-1,0l-2.6,5.5c-0.8,0.2-1.6,0.4-2.4,0.7L148.9,48.3z"/>
		<g id="XMLID_609_">
			<path id="XMLID_610_" class="st5" d="M138.8,78.6c0.1-1.2,0.3-2.4,0.6-3.6c1.1-4.3,3.3-8.3,6.3-11.1c3-2.8,6.3-4.1,9.3-3.8
				c5.3,0.6,8.7,6.5,8,14c-0.1,1.2-0.3,2.4-0.6,3.6c-1.1,4.3-3.3,8.3-6.3,11.1c-3,2.8-6.3,4.1-9.3,3.8
				C141.4,92,138.1,86.1,138.8,78.6L138.8,78.6z M160.7,74.6c0.6-6-2.1-10.8-6.4-11.3c-2.5-0.3-5.1,0.8-7.5,3.1
				c-2.4,2.3-4.2,5.4-5.1,8.9c-0.2,1-0.4,1.9-0.5,2.9c-0.6,6,2.1,10.8,6.4,11.3c2.5,0.3,5.1-0.8,7.5-3.1c2.4-2.2,4.2-5.4,5.1-8.9
				C160.4,76.5,160.6,75.5,160.7,74.6L160.7,74.6z"/>
		</g>
		<g id="XMLID_605_">
			<path id="XMLID_606_" class="st47" d="M140.3,79.8c0.1-1.2,0.3-2.4,0.6-3.6c1.1-4.3,3.3-8.3,6.3-11.1c3-2.8,6.3-4.1,9.3-3.8
				c5.3,0.6,8.7,6.5,8,14c-0.1,1.2-0.3,2.4-0.6,3.6c-1.1,4.3-3.3,8.3-6.3,11.1c-3,2.8-6.3,4.1-9.3,3.8
				C143,93.2,139.6,87.3,140.3,79.8L140.3,79.8z M162.2,75.8c0.6-6-2.1-10.8-6.4-11.3c-2.5-0.3-5.1,0.8-7.5,3
				c-2.4,2.3-4.2,5.5-5.1,8.9c-0.2,1-0.4,2-0.5,2.9c-0.6,6,2.1,10.8,6.4,11.3c2.5,0.3,5.1-0.8,7.5-3c2.4-2.3,4.2-5.5,5.1-8.9
				C161.9,77.7,162.1,76.7,162.2,75.8L162.2,75.8z"/>
		</g>
		<g id="XMLID_601_">
			<path id="XMLID_602_" class="st46" d="M139.8,79.2c0.1-1.2,0.3-2.4,0.6-3.6c1.1-4.3,3.3-8.3,6.3-11.1c2.9-2.8,6.3-4.1,9.3-3.8
				c5.3,0.7,8.7,6.5,8,14c-0.1,1.2-0.3,2.4-0.6,3.6c-1.1,4.3-3.4,8.3-6.3,11.1c-3,2.8-6.3,4.1-9.3,3.8
				C142.4,92.6,139,86.6,139.8,79.2L139.8,79.2z M161.6,75.2c0.6-6-2.1-10.8-6.4-11.3c-2.5-0.3-5.1,0.8-7.5,3
				c-2.4,2.3-4.2,5.4-5.1,8.9c-0.2,1-0.4,2-0.5,2.9c-0.6,6,2.1,10.8,6.4,11.3c2.5,0.3,5.2-0.8,7.5-3c2.4-2.3,4.2-5.4,5.1-8.9
				C161.4,77.1,161.5,76.1,161.6,75.2L161.6,75.2z"/>
		</g>
	</g>
	<polygon id="XMLID_599_" class="st44" points="174.8,65.4 211.5,81 211.3,90.3 174.6,74.6 	"/>
	<path id="XMLID_598_" class="st42" d="M145.2,80.2c-0.5-4.3,2.1-9.1,5.8-10.9s7,0.3,7.5,4.6c0.5,4.3-2.1,9.1-5.8,10.9
		C149,86.6,145.7,84.5,145.2,80.2z"/>
	<path id="XMLID_25_" class="st48" d="M152.7,84.8c-0.2,0.1-0.3,0.1-0.5,0.2c-0.5-0.8-0.9-1.8-1-3c-0.5-4.3,2.1-9.1,5.8-10.9
		c0.2-0.1,0.3-0.1,0.5-0.2c0.5,0.8,0.9,1.8,1,3C158.9,78.2,156.3,83,152.7,84.8z"/>
</g>
<g id="XMLID_623_">
	<text id="XMLID_1055_" transform="matrix(1 0 0 1 165.7234 177.4438)" class="st49 st50 st51 st52">MEMO</text>
	<text id="XMLID_1054_" transform="matrix(1 0 0 1 154.9821 243.5112)" class="st49 st50 st53 st52">MECNICA</text>
	<text id="XMLID_1053_" transform="matrix(1 0 0 1 165.7233 171.7261)" class="st54 st50 st51 st52">MEMO</text>
	<text id="XMLID_1051_" transform="matrix(1 0 0 1 154.9811 235.7739)" class="st54 st50 st53 st52">MECNICA</text>
</g>
<g id="XMLID_46_">
	<g id="XMLID_123_">
		<g id="XMLID_129_">
			<g id="XMLID_152_">
				<rect id="XMLID_672_" x="225.6" y="504.5" class="st55" width="96.4" height="123.2"/>
				<path id="XMLID_671_" class="st56" d="M273.8,350.2h-60.3v153.9c0,7.2,3,13.9,8.2,18.3l18.8,15.9c5.6,4.7,12.3,7.2,19.3,7.2
					h13.9h13.9c7,0,13.8-2.5,19.3-7.2l18.8-15.9c5.1-4.4,8.2-11.1,8.2-18.3V350.2H273.8z"/>
				<polygon id="XMLID_670_" class="st57" points="257.3,467.7 269.1,466.5 277.5,466.5 289.9,467.8 292.6,470.5 273.9,475.9 
					255,470.4 				"/>
				<path id="XMLID_669_" class="st56" d="M213.4,401.4c-4.9-7.1-14.8-4.9-14.8,6c0,10.9,3,30.1,7.4,35.6c4.4,5.5,7.4,3.8,7.4,3.8
					V401.4z"/>
				<path id="XMLID_668_" d="M204.1,403.8c3.5,1.6,5.7,3.6,6.7,8.5c1,4.9,0.7,22.2,0.7,22.2s-3.3-2.2-5.4-7.3
					c-2.1-5.1,2.5-3.7,2.5-7C208.5,417,199,401.5,204.1,403.8z"/>
				<polygon id="XMLID_667_" class="st58" points="264.4,404.4 265.9,406 262.4,410.4 260.6,454.7 255.4,459.1 255.4,469.8 
					272.4,474 263.3,467.8 258.3,467.8 258,461 264.4,455 265,410.9 270.2,404.6 				"/>
				<path id="XMLID_666_" class="st58" d="M260.2,403.1l-4.9-2.6l-17-3l-11.8,2.4c-1.1,0.2-1.5,1.7-0.6,2.4l2.2,1.7h32.8
					C260.8,403.6,260.6,403.3,260.2,403.1z"/>
				<path id="XMLID_665_" class="st57" d="M228.1,404l8.9,6.9h13.7c2.3,0,4.6-0.8,6.3-2.3l3.5-3.1c0.4-0.4,0.6-1,0.4-1.5H228.1z"/>
				<path id="XMLID_586_" d="M222.2,392.2l12.2-4.5c0.9-0.3,1.8-0.3,2.7-0.1l23.6,7.7l9.5,9.3l-5.4,0.1l-5.6-2.2l-20.5-7.9
					l-14.5,0.8L222.2,392.2z"/>
				<path id="XMLID_585_" class="st56" d="M334,401.4c4.9-7.1,14.8-4.9,14.8,6c0,10.9-3,30.1-7.4,35.6c-4.4,5.5-7.4,3.8-7.4,3.8
					V401.4z"/>
				<path id="XMLID_584_" d="M343.3,403.8c-3.5,1.6-5.7,3.6-6.7,8.5c-1,4.9-0.7,22.2-0.7,22.2s3.3-2.2,5.4-7.3s-2.5-3.7-2.5-7
					C338.9,417,348.4,401.5,343.3,403.8z"/>
				<polygon id="XMLID_583_" class="st58" points="282.1,404.6 281.2,405.8 285,410.4 286.8,454.7 292,459.1 292,469.8 275,474 
					284.2,467.8 289.1,467.8 289.4,461 283,455 282.4,410.9 277.2,404.6 				"/>
				<linearGradient id="XMLID_78_" gradientUnits="userSpaceOnUse" x1="273.7014" y1="504.5316" x2="273.7014" y2="491.8474">
					<stop  offset="0" style="stop-color:#F0835E"/>
					<stop  offset="1" style="stop-color:#BF5E43"/>
				</linearGradient>
				<path id="XMLID_582_" class="st59" d="M275.1,491.7h-29.8c-0.9,0-1.2,1.5-0.4,2l15.9,9.4c1.6,0.9,3.4,1.4,5.1,1.4h15.6
					c1.8,0,3.5-0.5,5.1-1.4l15.9-9.4c0.8-0.5,0.5-2-0.4-2H275.1z"/>
				<path id="XMLID_581_" class="st58" d="M321.5,402.3c0.9-0.7,0.6-2.1-0.6-2.4l-11.8-2.4l-17,3l-4.9,2.6c-0.4,0.2-0.6,0.5-0.7,0.8
					h32.8L321.5,402.3z"/>
				<path id="XMLID_260_" class="st57" d="M286.5,404c-0.2,0.5,0,1.1,0.4,1.5l3.5,3.1c1.7,1.5,4,2.3,6.3,2.3h13.7l8.9-6.9H286.5z"/>
				<path id="XMLID_162_" d="M324.7,392.1l-11.7-4.3c-0.9-0.3-1.8-0.3-2.6-0.1l-23.6,7.7l-9.5,9.3h4.9l6.1-2.1l20.5-7.9l14.5,0.8
					L324.7,392.1z"/>
				<path id="XMLID_161_" class="st60" d="M278.6,485.1l-5.1,3.3l-4.7-3.3l-25.4,5.9c-0.3,0.1-0.3,0.8,0,0.8h25.7h4.6h4.4h25.8
					c0.3,0,0.4-0.7,0-0.8L278.6,485.1z"/>
				<polygon id="XMLID_160_" class="st57" points="269.1,475 269.1,481.5 273,485.1 273,477.6 				"/>
				<polygon id="XMLID_159_" class="st57" points="294.8,465.5 294.8,470.6 309.4,487.5 308.6,481.3 				"/>
				<polygon id="XMLID_158_" class="st57" points="251.9,465.5 251.9,470.6 237.2,487.5 238,481.3 				"/>
				<polygon id="XMLID_157_" class="st57" points="262,409 258.1,410.3 247.7,429 262,413.2 				"/>
				<polygon id="XMLID_156_" class="st57" points="285.6,409 289.5,410.3 299.9,429 285.6,413.2 				"/>
				<path id="XMLID_155_" class="st57" d="M293.2,549.3l-9.5,10.3c-0.7,0.7-1.5,1.3-2.3,1.7l-7.5,3.4l-7.5-3.4
					c-0.9-0.4-1.7-1-2.3-1.7l-9.5-10.3l9.3,18.9c0.8,1.6,2.1,2.9,3.6,3.6l5.3,2.4c0.7,0.3,1.5,0.3,2.3,0l5.3-2.4
					c1.5-0.7,2.8-2,3.6-3.6L293.2,549.3z"/>
				<polygon id="XMLID_154_" class="st57" points="264.5,454.9 268.6,452.6 264.5,437.8 				"/>
				<polygon id="XMLID_153_" class="st57" points="282.9,454.9 278.7,452.6 282.9,437.8 				"/>
			</g>
			<g id="XMLID_147_">
				<path id="XMLID_151_" class="st61" d="M274.1,619.3L260,590.2l-44.4-2.2l-67.2,27.3c-2.3,0.9-4.4,2.3-6.3,4.1l-13.3,12.5
					c-2.2,2-4,4.6-5.4,7.5h150.7V619.3z"/>
				<path id="XMLID_150_" class="st61" d="M419,631.9l-13.3-12.5c-1.9-1.8-4-3.2-6.3-4.1L332.2,588l-44.4,2.2l-14.1,29.2v20h150.7
					C423,636.5,421.2,633.9,419,631.9z"/>
				<polygon id="XMLID_149_" class="st62" points="264.1,595.6 217.1,590.2 217.1,571.5 260.7,577 				"/>
				<polygon id="XMLID_148_" class="st62" points="331.4,590.2 284.3,595.6 287.7,577 331.4,571.5 				"/>
			</g>
			<g id="XMLID_135_">
				<path id="XMLID_146_" class="st63" d="M274.4,247.3c-87.6,0-82.6,89.8-82.6,112.8c46.2,25.1,119.4,23.7,164.3,0
					C356.1,337.1,357,247.3,274.4,247.3z"/>
				<g id="XMLID_142_">
					<path id="XMLID_145_" class="st64" d="M277.7,316.5h-2.3c-2.2,0-4-1.8-4-4v-60.1c0-2.2,1.8-4,4-4h2.3c2.2,0,4,1.8,4,4v60.1
						C281.7,314.7,279.9,316.5,277.7,316.5z"/>
					<path id="XMLID_144_" class="st64" d="M256.5,309.1H255c-2.2,0-4-1.8-4-4v-48.6c0-2.2,1.8-4,4-4h1.5c2.2,0,4,1.8,4,4V305
						C260.5,307.3,258.7,309.1,256.5,309.1z"/>
					<path id="XMLID_143_" class="st64" d="M296.6,309.1h-1.8c-2.2,0-4-1.8-4-4v-48.6c0-2.2,1.8-4,4-4h1.8c2.2,0,4,1.8,4,4V305
						C300.6,307.3,298.8,309.1,296.6,309.1z"/>
				</g>
				<g id="XMLID_138_">
					<path id="XMLID_141_" class="st63" d="M274.7,312.9h-0.3c-2.1,0-3.8-1.7-3.8-3.8V242c0-2.1,1.7-3.8,3.8-3.8h0.3
						c2.1,0,3.8,1.7,3.8,3.8v67.1C278.4,311.2,276.8,312.9,274.7,312.9z"/>
					<path id="XMLID_140_" class="st63" d="M254.5,303.4h-0.3c-2.1,0-3.8-1.7-3.8-3.8V248c0-2.1,1.7-3.8,3.8-3.8h0.3
						c2.1,0,3.8,1.7,3.8,3.8v51.7C258.2,301.7,256.5,303.4,254.5,303.4z"/>
					<path id="XMLID_139_" class="st63" d="M293.7,303.4h-0.3c-2.1,0-3.8-1.7-3.8-3.8V248c0-2.1,1.7-3.8,3.8-3.8h0.3
						c2.1,0,3.8,1.7,3.8,3.8v51.7C297.5,301.7,295.8,303.4,293.7,303.4z"/>
				</g>
				<linearGradient id="XMLID_79_" gradientUnits="userSpaceOnUse" x1="273.9221" y1="283.4124" x2="273.9221" y2="356.6894">
					<stop  offset="0" style="stop-color:#FFDE00"/>
					<stop  offset="0.4" style="stop-color:#FFCF11"/>
					<stop  offset="1" style="stop-color:#F9B233"/>
				</linearGradient>
				<path id="XMLID_137_" class="st65" d="M339.1,287.3c-6.7,24.7-33.2,43.2-64.8,43.2c-32.8,0-60-19.8-65.5-45.9
					c-14.4,26.2-12.9,59.7-12.9,72.3c43.9,23.9,113.4,22.5,156.1,0C352,344.7,352.2,313,339.1,287.3z"/>
				<linearGradient id="XMLID_80_" gradientUnits="userSpaceOnUse" x1="273.9221" y1="347.665" x2="273.9221" y2="374.9984">
					<stop  offset="0" style="stop-color:#FFDE00"/>
					<stop  offset="0.4" style="stop-color:#FFCF11"/>
					<stop  offset="1" style="stop-color:#F9B233"/>
				</linearGradient>
				<path id="XMLID_136_" class="st66" d="M187.6,353.7v4.3c0,1.3,0.6,2.4,1.6,2.9c48,25.2,122.5,23.8,169.4,0
					c1-0.5,1.7-1.7,1.7-2.9c0-1.3,0-2.7,0-4.3c0-1.4-1.2-2.5-2.4-2.3c-48.3,10-116.7,10.9-167.8,0
					C188.8,351.1,187.6,352.2,187.6,353.7z"/>
			</g>
		</g>
		<path id="XMLID_128_" class="st67" d="M216.3,440.1v12.6l10.8,15.8c0.9,1.3,2.6,0.2,2.1-1.3l-7.1-21.9L216.3,440.1z"/>
		<path id="XMLID_127_" class="st67" d="M330.6,440.1v12.6l-10.8,15.8c-0.9,1.3-2.6,0.2-2.1-1.3l7.1-21.9L330.6,440.1z"/>
		<polygon id="XMLID_126_" class="st57" points="263,510.5 265.3,513.7 282.2,513.7 284.5,510.5 		"/>
		<polygon id="XMLID_125_" class="st57" points="260.3,389.5 263.2,391.1 284.3,391.1 287.2,389.5 		"/>
		<polygon id="XMLID_124_" class="st57" points="254.1,385 258.3,386.6 289.2,386.6 293.4,385 		"/>
	</g>
	<path id="XMLID_122_" class="st19" d="M255,406.7l-17.6,0.9c-2.4,0.1-4.6-1.7-4.5-4l0,0c0.1-2.3,2.4-3.9,4.8-3.6l17.4,2.5
		c0.7,0.1,1.1,1,1.1,2.1v0C256.2,405.7,255.7,406.6,255,406.7z"/>
	<path id="XMLID_121_" class="st19" d="M293.2,406.7l17.6,0.9c2.4,0.1,4.6-1.7,4.5-4l0,0c-0.1-2.3-2.4-3.9-4.8-3.6l-17.4,2.5
		c-0.7,0.1-1.1,1-1.1,2.1v0C292,405.7,292.6,406.6,293.2,406.7z"/>
	<g id="XMLID_70_">
		<defs>
			<path id="XMLID_71_" d="M255,406.7l-17.6,0.9c-2.4,0.1-4.6-1.7-4.5-4l0,0c0.1-2.3,2.4-3.9,4.8-3.6l17.4,2.5
				c0.7,0.1,1.1,1,1.1,2.1v0C256.2,405.7,255.7,406.6,255,406.7z"/>
		</defs>
		<clipPath id="XMLID_81_">
			<use xlink:href="#XMLID_71_"  style="overflow:visible;"/>
		</clipPath>
		<g id="XMLID_88_" class="st68">
			<circle id="XMLID_120_" class="st69" cx="244.5" cy="404" r="5.7"/>
			<circle id="XMLID_116_" cx="244.5" cy="404" r="3.1"/>
			
				<ellipse id="XMLID_115_" transform="matrix(0.8331 0.5532 -0.5532 0.8331 262.4841 -66.831)" class="st19" cx="242" cy="401.5" rx="1.8" ry="1.1"/>
		</g>
	</g>
	<g id="XMLID_47_">
		<defs>
			<path id="XMLID_48_" d="M293.2,406.7l17.6,0.9c2.4,0.1,4.6-1.7,4.5-4l0,0c-0.1-2.3-2.4-3.9-4.8-3.6l-17.4,2.5
				c-0.7,0.1-1.1,1-1.1,2.1v0C292,405.7,292.6,406.6,293.2,406.7z"/>
		</defs>
		<clipPath id="XMLID_82_">
			<use xlink:href="#XMLID_48_"  style="overflow:visible;"/>
		</clipPath>
		<g id="XMLID_64_" class="st70">
			<circle id="XMLID_69_" class="st69" cx="303.7" cy="404" r="5.7"/>
			<circle id="XMLID_67_" cx="303.7" cy="404" r="3.1"/>
			
				<ellipse id="XMLID_66_" transform="matrix(0.8331 0.5532 -0.5532 0.8331 272.3677 -99.5823)" class="st19" cx="301.2" cy="401.5" rx="1.8" ry="1.1"/>
		</g>
	</g>
</g>
</svg>
