<?xml version="1.0" encoding="utf-8"?>
<!-- Generator: Adobe Illustrator 19.0.0, SVG Export Plug-In . SVG Version: 6.00 Build 0)  -->
<svg version="1.1" id="Camada_1" xmlns="http://www.w3.org/2000/svg" xmlns:xlink="http://www.w3.org/1999/xlink" x="0px" y="0px"
	 viewBox="0 0 435.1 342" style="enable-background:new 0 0 435.1 342;" xml:space="preserve">
<style type="text/css">
	.st0{fill:#5C5C60;}
	.st1{fill:#C3C4C9;}
	.st2{fill:#D6D7DB;}
	.st3{fill:#6F7172;}
	.st4{fill:#AEACB2;}
	.st5{fill:#99999E;}
	.st6{fill:#F3F3F3;}
	.st7{fill:#423F40;}
	.st8{fill:#FFDB05;stroke:#1D70B6;stroke-width:35.0903;stroke-linejoin:round;stroke-miterlimit:10;}
	.st9{font-family:'Impact';}
	.st10{font-size:109.2968px;}
	.st11{letter-spacing:-2;}
	.st12{font-size:70.4295px;}
	.st13{letter-spacing:-1;}
	.st14{fill:#FFDB05;}
	.st15{fill:#3C3C3B;}
	.st16{fill:#B0B0B0;}
	.st17{fill:#1D1E1C;}
	.st18{fill:#C6C5C4;}
	.st19{fill:#9B9A9A;}
	.st20{fill:url(#XMLID_118_);}
	.st21{fill:#1A1A1A;}
	.st22{fill:url(#XMLID_119_);}
	.st23{fill:url(#XMLID_120_);}
	.st24{fill:#FFFFFF;}
	.st25{fill:#1A171B;}
	.st26{fill:url(#XMLID_121_);}
	.st27{fill:#ECDF70;}
	.st28{fill:url(#XMLID_122_);}
	.st29{fill:url(#XMLID_123_);}
	.st30{fill:url(#XMLID_124_);}
	.st31{fill:url(#XMLID_125_);}
	.st32{fill:url(#XMLID_126_);}
	.st33{fill:url(#XMLID_127_);}
	.st34{fill:url(#XMLID_128_);}
	.st35{fill:url(#XMLID_129_);}
	.st36{fill:url(#XMLID_130_);}
	.st37{fill:url(#XMLID_131_);}
	.st38{fill:url(#XMLID_132_);}
	.st39{fill:url(#XMLID_151_);}
	.st40{fill:url(#XMLID_152_);}
	.st41{fill:url(#XMLID_153_);}
</style>
<g id="XMLID_1589_">
	<polygon id="XMLID_1625_" class="st0" points="165.6,51.2 165.8,130.5 178.2,139.5 177.9,56.1 	"/>
	<polygon id="XMLID_1624_" class="st0" points="179.5,26.2 179.7,105.5 192.1,114.6 191.7,31.1 	"/>
	<polygon id="XMLID_1623_" class="st0" points="257.6,16.6 257.8,95.9 270.2,104.9 269.9,21.5 	"/>
	<polygon id="XMLID_1622_" class="st0" points="279.6,39.1 279,69.1 291.4,78.1 291.9,44.1 	"/>
	<polygon id="XMLID_1621_" class="st1" points="290.5,70.9 290.3,151.1 278.1,151.6 278.4,71.4 	"/>
	<polygon id="XMLID_1620_" class="st2" points="274.8,155.5 275.1,75.3 278.4,71.4 278.1,151.6 	"/>
	<polygon id="XMLID_1619_" class="st2" points="266,91.5 265.7,171.7 280.2,163 280.5,82.8 	"/>
	<polygon id="XMLID_1618_" class="st3" points="255.5,87 255.3,167.2 265.7,171.7 266,91.5 	"/>
	<polygon id="XMLID_1617_" class="st2" points="249.4,88.8 249.2,169 255.3,167.2 255.5,87 	"/>
	<polygon id="XMLID_1616_" class="st4" points="247.4,96.8 247.1,177 249.2,169 249.4,88.8 	"/>
	<polygon id="XMLID_1615_" class="st2" points="227.8,98 227.5,178.2 247.1,177 247.4,96.8 	"/>
	<polygon id="XMLID_1614_" class="st3" points="223,90.3 222.7,170.5 227.5,178.2 227.8,98 	"/>
	<polygon id="XMLID_1613_" class="st2" points="216.3,89.2 216,169.4 222.7,170.5 223,90.3 	"/>
	<polygon id="XMLID_1612_" class="st4" points="207.6,94.8 207.3,175 216,169.4 216.3,89.2 	"/>
	<polygon id="XMLID_1611_" class="st3" points="188.5,76.4 188.2,156.6 192.8,160.1 193.1,79.9 	"/>
	<polygon id="XMLID_1610_" class="st4" points="176.4,77.3 176.2,157.5 188.2,156.6 188.5,76.4 	"/>
	<polygon id="XMLID_1609_" class="st2" points="168.1,65 167.8,145.2 176.2,157.5 176.4,77.3 	"/>
	<polygon id="XMLID_1608_" class="st2" points="294.1,138.1 294.3,57.9 290.5,70.9 290.3,151.1 	"/>
	<g id="XMLID_1593_">
		<path id="XMLID_1606_" class="st5" d="M184.8,33.9c-1.2,1.3-2.4,2.6-3.3,3.9l-12.1,0.5l-0.9,1.9c-0.7,1.6-1.3,3-1.7,4.5
			c-0.4,1.5-0.7,3-1,4.6l-0.3,2l10.8,4.1c0.2,1.5,0.4,3,0.8,4.5l-9.1,5.2l0.9,1.9c1.5,3,3.5,5.9,5.9,8.7l1.5,1.7l12.1-0.9
			c1.4,1.2,3,2.4,4.6,3.5l-2.7,8l2.4,1.2c3.7,1.8,7.4,3.4,11.3,4.6l3.6,1.1l8.7-5.6c1.1,0.2,2.2,0.4,3.3,0.6
			c1.1,0.2,2.2,0.3,3.3,0.5l4.8,7.7l2.9,0c4.5,0.1,9.2-0.2,13.9-0.8l2.8-0.4l2-8c2.1-0.5,4.1-1.1,6.1-1.8l10.5,4.5l2.4-1.1
			c3.8-1.8,7.2-3.9,10.3-6.1l1.9-1.4l-5.4-7.5c1.2-1.3,2.4-2.6,3.3-3.9l12.1-0.5l0.9-1.9c0.7-1.5,1.3-3.1,1.7-4.5
			c0.4-1.5,0.8-3,1-4.6l0.3-2l-10.8-4.1c-0.1-1.5-0.4-3-0.8-4.5l9.2-5.2l-1-1.9c-1.5-3-3.4-5.9-5.9-8.7l-1.5-1.7l-12.1,0.9
			c-1.4-1.2-3-2.4-4.5-3.5l2.7-8l-2.4-1.2c-3.6-1.8-7.4-3.4-11.3-4.6l-3.6-1.1l-8.7,5.5c-1.1-0.2-2.2-0.4-3.3-0.6
			c-1.1-0.2-2.2-0.3-3.3-0.4l-4.8-7.7l-2.9-0.1c-4.5-0.1-9.2,0.2-13.9,0.8l-2.8,0.4l-2.1,8.1c-2.1,0.5-4.1,1.1-6.1,1.8l-10.5-4.5
			l-2.4,1.1c-3.8,1.8-7.2,3.9-10.2,6.1l-1.9,1.4L184.8,33.9z"/>
		<g id="XMLID_1602_">
			<path id="XMLID_1603_" class="st3" d="M243.4,31.7c14.4,4.6,22.6,15.5,19.6,25.9c-1.8,6-6.9,11-14.4,14.2
				c-7.6,3.2-16.6,4.2-25.5,2.8c-2.5-0.4-4.9-1-7.2-1.7c-14.4-4.6-22.6-15.5-19.6-25.9c1.7-6,6.9-11,14.4-14.3
				c7.5-3.2,16.6-4.2,25.5-2.8C238.7,30.4,241.1,31,243.4,31.7L243.4,31.7z M218.6,68.9c1.9,0.6,3.8,1.1,5.8,1.4
				c7.2,1.1,14.5,0.3,20.6-2.3c6.1-2.6,10.2-6.7,11.6-11.5c2.4-8.4-4.2-17.1-15.8-20.9c-1.9-0.6-3.8-1.1-5.8-1.4
				c-7.2-1.1-14.5-0.3-20.5,2.3c-6.1,2.6-10.2,6.7-11.6,11.5C200.3,56.4,207,65.2,218.6,68.9L218.6,68.9z"/>
		</g>
		<g id="XMLID_1598_">
			<path id="XMLID_1599_" class="st6" d="M244.4,35.5C258.8,40.1,267,51,264,61.4c-1.7,6-6.8,11-14.4,14.3
				c-7.6,3.2-16.6,4.2-25.5,2.8c-2.5-0.4-4.9-1-7.2-1.7c-14.4-4.6-22.6-15.5-19.6-25.9c1.7-6,6.8-11,14.4-14.3
				c7.5-3.2,16.6-4.2,25.5-2.8C239.7,34.2,242.1,34.8,244.4,35.5L244.4,35.5z M219.6,72.7c1.9,0.6,3.8,1,5.8,1.4
				c7.2,1.1,14.5,0.3,20.6-2.3c6.1-2.6,10.2-6.7,11.6-11.5c2.4-8.3-4.2-17.1-15.8-20.9c-1.8-0.6-3.8-1.1-5.8-1.4
				c-7.2-1.1-14.5-0.3-20.6,2.3c-6,2.6-10.2,6.7-11.6,11.5C201.3,60.2,208,69,219.6,72.7L219.6,72.7z"/>
		</g>
		<g id="XMLID_1594_">
			<path id="XMLID_1595_" class="st5" d="M243.7,34c14.4,4.6,22.6,15.5,19.6,25.9c-1.8,6-6.9,11-14.4,14.2
				c-7.5,3.2-16.6,4.2-25.5,2.8c-2.5-0.4-4.9-1-7.2-1.7c-14.4-4.6-22.6-15.5-19.6-25.9c1.7-6,6.8-11,14.4-14.2
				c7.5-3.2,16.6-4.2,25.5-2.8C239,32.6,241.4,33.2,243.7,34L243.7,34z M218.9,71.2c1.8,0.6,3.8,1.1,5.8,1.4
				c7.2,1.1,14.5,0.3,20.6-2.3c6-2.6,10.2-6.7,11.6-11.5c2.4-8.3-4.2-17.1-15.8-20.9c-1.8-0.6-3.8-1.1-5.8-1.4
				c-7.1-1.1-14.5-0.3-20.5,2.3c-6.1,2.6-10.2,6.7-11.6,11.5C200.6,58.7,207.3,67.5,218.9,71.2L218.9,71.2z"/>
		</g>
	</g>
	<polygon id="XMLID_1592_" class="st2" points="190.4,87.9 190.1,168.1 207.3,175 207.6,94.8 	"/>
	<path id="XMLID_1591_" class="st0" d="M241.3,44.9c-7.5-4.3-18.6-3.3-24.7,2.1s-5,13.2,2.5,17.5s18.6,3.3,24.7-2.1
		C250,57,248.9,49.1,241.3,44.9z"/>
	<path id="XMLID_1590_" class="st7" d="M243.7,62.3c0.3-0.2,0.4-0.5,0.7-0.7c-1.1-1.6-2.6-3-4.7-4.2c-7.5-4.3-18.6-3.3-24.7,2.1
		c-0.3,0.2-0.4,0.5-0.7,0.7c1.1,1.6,2.6,3,4.7,4.2C226.6,68.6,237.6,67.7,243.7,62.3z"/>
</g>
<g id="XMLID_1552_">
	<polygon id="XMLID_1588_" class="st0" points="365.4,66.9 315.4,88.6 313.1,98.9 365.6,76 	"/>
	<polygon id="XMLID_1587_" class="st0" points="384.9,68.9 335,90.6 332.6,100.9 385.2,78 	"/>
	<polygon id="XMLID_1586_" class="st0" points="412.2,115.6 362.3,137.3 359.9,147.5 412.4,124.7 	"/>
	<polygon id="XMLID_1585_" class="st0" points="403.9,135.6 384.9,143.3 382.6,153.6 404.2,144.7 	"/>
	<polygon id="XMLID_1584_" class="st1" points="386.9,151.1 336.2,172.7 332.6,165.2 383.3,143.6 	"/>
	<polygon id="XMLID_1583_" class="st2" points="329.3,164.1 379.9,142.6 383.3,143.6 332.6,165.2 	"/>
	<polygon id="XMLID_1582_" class="st2" points="367.2,141.2 316.6,162.8 326,169.6 376.7,148 	"/>
	<polygon id="XMLID_1581_" class="st3" points="367.2,133.4 316.6,155 316.6,162.8 367.2,141.2 	"/>
	<polygon id="XMLID_1580_" class="st2" points="364.4,130 313.8,151.6 316.6,155 367.2,133.4 	"/>
	<polygon id="XMLID_1579_" class="st4" points="358.8,130.9 308.2,152.5 313.8,151.6 364.4,130 	"/>
	<polygon id="XMLID_1578_" class="st2" points="352.8,118.9 302.1,140.5 308.2,152.5 358.8,130.9 	"/>
	<polygon id="XMLID_1577_" class="st3" points="356.3,113.7 305.7,135.3 302.1,140.5 352.8,118.9 	"/>
	<polygon id="XMLID_1576_" class="st2" points="355.2,109.3 304.5,130.9 305.7,135.3 356.3,113.7 	"/>
	<polygon id="XMLID_1575_" class="st4" points="349.3,105.3 298.6,126.9 304.5,130.9 355.2,109.3 	"/>
	<polygon id="XMLID_1574_" class="st3" points="355.7,88.2 305,109.8 304.1,113.6 354.8,92.1 	"/>
	<polygon id="XMLID_1573_" class="st4" points="351.9,80.9 301.2,102.5 305,109.8 355.7,88.2 	"/>
	<polygon id="XMLID_1572_" class="st2" points="357.3,72.3 306.7,93.9 301.2,102.5 351.9,80.9 	"/>
	<polygon id="XMLID_1571_" class="st2" points="345.4,171.6 396.1,150 386.9,151.1 336.2,172.7 	"/>
	<g id="XMLID_1556_">
		<path id="XMLID_1569_" class="st5" d="M381.5,74.4c-1.1-0.4-2.3-0.8-3.4-1l-3.6-7.5l-1.4,0c-1.2,0-2.3,0-3.3,0.1
			c-1.1,0.1-2.1,0.3-3.2,0.6l-1.3,0.4l0.4,7.9c-0.9,0.5-1.8,1.1-2.6,1.8l-5.8-4.4l-0.9,1.1c-1.5,1.8-2.8,3.8-3.9,6.1l-0.7,1.4
			l3.8,7.4c-0.4,1.2-0.7,2.5-0.9,3.8l-5.8,0.5l-0.1,1.8c-0.2,2.8-0.1,5.6,0.1,8.4l0.3,2.6l5.9,4c0.2,0.8,0.3,1.5,0.5,2.2
			c0.2,0.7,0.4,1.5,0.6,2.2l-3.5,5.1l0.8,1.8c1.2,2.9,2.6,5.8,4.3,8.5l1,1.7l5.6-0.9c0.9,1.2,1.8,2.3,2.8,3.4l0,7.8l1.3,1.2
			c2.2,1.9,4.4,3.5,6.7,4.8l1.4,0.8l3.3-5.4c1.1,0.4,2.3,0.8,3.4,1l3.6,7.5l1.4,0.1c1.2,0,2.3,0,3.3-0.1c1-0.1,2.1-0.3,3.2-0.6
			l1.3-0.4l-0.4-7.9c0.9-0.5,1.8-1.1,2.6-1.7l5.8,4.4l0.9-1.1c1.5-1.7,2.8-3.8,3.9-6.1l0.7-1.4l-3.8-7.4c0.4-1.2,0.7-2.5,0.9-3.8
			l5.7-0.5l0.1-1.8c0.2-2.8,0.1-5.6-0.1-8.4l-0.3-2.6l-5.9-4c-0.2-0.8-0.3-1.5-0.5-2.2c-0.2-0.7-0.4-1.5-0.6-2.2l3.5-5.1l-0.8-1.9
			c-1.2-2.9-2.6-5.7-4.3-8.5l-1-1.7l-5.6,0.9c-0.9-1.2-1.8-2.3-2.8-3.4l0-7.8l-1.3-1.2c-2.2-1.9-4.4-3.5-6.7-4.8l-1.4-0.8
			L381.5,74.4z"/>
		<g id="XMLID_1565_">
			<path id="XMLID_1566_" class="st3" d="M398.8,110.7c1,10.3-3.7,18.5-11,19.4c-4.2,0.5-8.8-1.3-12.9-5.2
				c-4.1-3.9-7.2-9.3-8.7-15.3c-0.4-1.7-0.7-3.4-0.9-5c-1-10.4,3.6-18.5,11-19.4c4.2-0.5,8.8,1.3,12.9,5.2c4.1,3.9,7.2,9.3,8.7,15.3
				C398.4,107.4,398.7,109.1,398.8,110.7L398.8,110.7z M368.6,105.2c0.1,1.3,0.4,2.7,0.7,4c1.2,4.8,3.7,9.2,7,12.4
				c3.3,3.1,7,4.6,10.4,4.2c5.9-0.7,9.7-7.3,8.9-15.6c-0.1-1.3-0.4-2.7-0.7-4c-1.2-4.8-3.7-9.2-7-12.3c-3.3-3.1-7-4.6-10.4-4.2
				C371.5,90.3,367.8,96.9,368.6,105.2L368.6,105.2z"/>
		</g>
		<g id="XMLID_1561_">
			<path id="XMLID_1562_" class="st6" d="M396.7,112.4c1,10.3-3.6,18.5-11,19.4c-4.2,0.5-8.8-1.3-12.9-5.2
				c-4.1-3.9-7.2-9.3-8.7-15.3c-0.4-1.7-0.7-3.4-0.9-5c-1-10.3,3.7-18.5,11-19.4c4.2-0.5,8.8,1.3,12.9,5.2c4.1,3.9,7.2,9.3,8.7,15.3
				C396.2,109.1,396.5,110.8,396.7,112.4L396.7,112.4z M366.5,106.9c0.1,1.3,0.4,2.7,0.7,4c1.2,4.8,3.7,9.2,7,12.4
				c3.3,3.1,7,4.6,10.4,4.2c5.9-0.7,9.7-7.3,8.9-15.6c-0.1-1.3-0.4-2.7-0.7-4c-1.2-4.8-3.7-9.2-7-12.4c-3.3-3.1-7-4.6-10.4-4.2
				C369.4,92,365.7,98.5,366.5,106.9L366.5,106.9z"/>
		</g>
		<g id="XMLID_1557_">
			<path id="XMLID_1558_" class="st5" d="M397.5,111.5c1,10.3-3.6,18.5-11,19.4c-4.2,0.5-8.8-1.3-12.9-5.2
				c-4.1-3.9-7.2-9.3-8.7-15.3c-0.4-1.7-0.7-3.4-0.9-5c-1-10.3,3.6-18.5,11-19.4c4.2-0.5,8.8,1.3,12.9,5.2c4.1,3.9,7.2,9.3,8.7,15.3
				C397,108.2,397.3,109.9,397.5,111.5L397.5,111.5z M367.3,106c0.1,1.3,0.4,2.7,0.7,4c1.2,4.8,3.7,9.2,7,12.4
				c3.3,3.1,7,4.6,10.4,4.2c5.9-0.7,9.7-7.3,8.9-15.6c-0.1-1.3-0.4-2.7-0.7-4c-1.2-4.8-3.7-9.2-7-12.3c-3.3-3.1-7-4.6-10.4-4.2
				C370.2,91.1,366.5,97.7,367.3,106L367.3,106z"/>
		</g>
	</g>
	<polygon id="XMLID_1555_" class="st2" points="349,92.5 298.3,114.1 298.6,126.9 349.3,105.3 	"/>
	<path id="XMLID_1554_" class="st0" d="M389.9,113c0.6-5.9-2.9-12.6-8-15c-5.1-2.4-9.7,0.4-10.3,6.3c-0.6,5.9,2.9,12.6,8,15
		C384.7,121.8,389.3,118.9,389.9,113z"/>
	<path id="XMLID_1553_" class="st7" d="M379.6,119.3c0.2,0.1,0.4,0.1,0.7,0.2c0.7-1.1,1.2-2.5,1.4-4.1c0.6-5.9-2.9-12.6-8-15
		c-0.2-0.1-0.4-0.1-0.7-0.2c-0.7,1.1-1.2,2.5-1.4,4.1C371,110.2,374.5,116.9,379.6,119.3z"/>
</g>
<g id="XMLID_1515_">
	<polygon id="XMLID_1551_" class="st0" points="87.4,66.9 137.4,88.6 139.7,98.9 87.2,76 	"/>
	<polygon id="XMLID_1550_" class="st0" points="67.9,68.9 117.9,90.6 120.2,100.9 67.7,78 	"/>
	<polygon id="XMLID_1549_" class="st0" points="40.6,115.6 90.6,137.3 92.9,147.5 40.4,124.7 	"/>
	<polygon id="XMLID_1548_" class="st0" points="48.9,135.6 67.9,143.3 70.3,153.6 48.6,144.7 	"/>
	<polygon id="XMLID_1547_" class="st1" points="66,151.1 116.6,172.7 120.2,165.2 69.5,143.6 	"/>
	<polygon id="XMLID_1546_" class="st2" points="123.6,164.1 72.9,142.6 69.5,143.6 120.2,165.2 	"/>
	<polygon id="XMLID_1545_" class="st2" points="85.6,141.2 136.2,162.8 126.8,169.6 76.1,148 	"/>
	<polygon id="XMLID_1544_" class="st3" points="85.6,133.4 136.3,155 136.2,162.8 85.6,141.2 	"/>
	<polygon id="XMLID_1543_" class="st2" points="88.4,130 139,151.6 136.3,155 85.6,133.4 	"/>
	<polygon id="XMLID_1542_" class="st4" points="94,130.9 144.7,152.5 139,151.6 88.4,130 	"/>
	<polygon id="XMLID_1541_" class="st2" points="100,118.9 150.7,140.5 144.7,152.5 94,130.9 	"/>
	<polygon id="XMLID_1540_" class="st3" points="96.5,113.7 147.2,135.3 150.7,140.5 100,118.9 	"/>
	<polygon id="XMLID_1539_" class="st2" points="97.6,109.3 148.3,130.9 147.2,135.3 96.5,113.7 	"/>
	<polygon id="XMLID_1538_" class="st4" points="103.5,105.3 154.2,126.9 148.3,130.9 97.6,109.3 	"/>
	<polygon id="XMLID_1537_" class="st3" points="97.1,88.2 147.8,109.8 148.7,113.6 98.1,92.1 	"/>
	<polygon id="XMLID_1536_" class="st4" points="101,80.9 151.6,102.5 147.8,109.8 97.1,88.2 	"/>
	<polygon id="XMLID_1535_" class="st2" points="95.5,72.3 146.1,93.9 151.6,102.5 101,80.9 	"/>
	<polygon id="XMLID_1534_" class="st2" points="107.4,171.6 56.7,150 66,151.1 116.6,172.7 	"/>
	<g id="XMLID_1519_">
		<path id="XMLID_1532_" class="st5" d="M68,68.9l-1.4,0.8c-2.2,1.3-4.5,2.9-6.7,4.8l-1.3,1.2l0,7.8c-1,1.1-1.9,2.2-2.8,3.4L50.1,86
			l-1,1.7c-1.6,2.8-3.1,5.6-4.3,8.5l-0.8,1.9l3.5,5.1c-0.2,0.8-0.4,1.5-0.6,2.2c-0.2,0.7-0.4,1.5-0.5,2.2l-5.9,4l-0.3,2.6
			c-0.3,2.8-0.3,5.6-0.1,8.4l0.1,1.8l5.7,0.5c0.2,1.3,0.6,2.6,0.9,3.8l-3.8,7.4l0.7,1.4c1.1,2.3,2.4,4.3,3.9,6.1l0.9,1.1l5.8-4.4
			c0.9,0.7,1.7,1.3,2.6,1.7l-0.4,7.9l1.3,0.4c1.1,0.3,2.1,0.5,3.2,0.6c1,0.1,2.2,0.2,3.3,0.1l1.4-0.1l3.6-7.5c1.1-0.2,2.2-0.6,3.4-1
			l3.3,5.4l1.4-0.8c2.3-1.3,4.5-2.9,6.7-4.8l1.3-1.2l0-7.8c1-1.1,1.9-2.2,2.8-3.4l5.6,0.9l1-1.7c1.7-2.8,3.1-5.6,4.3-8.5l0.8-1.8
			l-3.5-5.1c0.2-0.8,0.4-1.5,0.6-2.2c0.2-0.7,0.4-1.5,0.5-2.2l5.9-4l0.3-2.6c0.3-2.8,0.3-5.6,0.1-8.4l-0.1-1.8l-5.8-0.5
			c-0.2-1.3-0.6-2.6-0.9-3.8l3.8-7.4l-0.7-1.4c-1.1-2.3-2.4-4.3-3.9-6.1l-0.9-1.1l-5.8,4.4c-0.9-0.7-1.7-1.3-2.6-1.8l0.4-7.9
			l-1.3-0.4c-1.1-0.3-2.1-0.5-3.2-0.6c-1.1-0.1-2.1-0.2-3.3-0.1l-1.4,0l-3.6,7.5c-1.1,0.2-2.2,0.6-3.4,1L68,68.9z"/>
		<g id="XMLID_1528_">
			<path id="XMLID_1529_" class="st3" d="M54,110.7c0.2-1.6,0.5-3.3,0.9-5c1.5-6,4.6-11.4,8.7-15.3c4.1-3.9,8.6-5.7,12.9-5.2
				c7.3,0.9,12,9,11,19.4c-0.1,1.6-0.4,3.3-0.9,5c-1.5,6-4.6,11.4-8.7,15.3c-4.1,3.9-8.7,5.7-12.9,5.2C57.7,129.2,53,121.1,54,110.7
				L54,110.7z M84.2,105.2c0.8-8.3-2.9-14.9-8.9-15.6c-3.4-0.4-7.1,1.1-10.4,4.2c-3.3,3.1-5.8,7.5-7,12.3c-0.3,1.3-0.6,2.7-0.7,4
				c-0.8,8.3,2.9,14.9,8.9,15.6c3.4,0.4,7.1-1.1,10.4-4.2c3.3-3.1,5.8-7.5,7-12.4C83.9,107.9,84.1,106.5,84.2,105.2L84.2,105.2z"/>
		</g>
		<g id="XMLID_1524_">
			<path id="XMLID_1525_" class="st6" d="M56.1,112.4c0.2-1.6,0.4-3.3,0.9-5c1.5-6,4.6-11.4,8.7-15.3c4.1-3.9,8.6-5.7,12.9-5.2
				c7.4,0.9,12,9,11,19.4c-0.2,1.6-0.4,3.3-0.9,5c-1.5,6-4.6,11.4-8.7,15.3c-4.1,3.9-8.6,5.7-12.9,5.2
				C59.8,130.9,55.2,122.7,56.1,112.4L56.1,112.4z M86.4,106.9c0.8-8.3-2.9-14.9-8.9-15.6c-3.4-0.4-7.1,1.1-10.4,4.2
				c-3.3,3.1-5.8,7.5-7,12.4c-0.3,1.3-0.6,2.7-0.7,4c-0.8,8.3,2.9,14.9,8.9,15.6c3.4,0.4,7.1-1.1,10.4-4.2c3.3-3.1,5.8-7.5,7-12.4
				C86,109.5,86.2,108.2,86.4,106.9L86.4,106.9z"/>
		</g>
		<g id="XMLID_1520_">
			<path id="XMLID_1521_" class="st5" d="M55.4,111.5c0.1-1.7,0.4-3.3,0.9-5c1.5-6,4.6-11.4,8.7-15.3c4.1-3.9,8.6-5.7,12.9-5.2
				c7.4,0.9,12,9,11,19.4c-0.1,1.6-0.4,3.3-0.9,5c-1.5,6-4.6,11.4-8.7,15.3c-4.1,3.9-8.6,5.7-12.9,5.2C59,130,54.4,121.9,55.4,111.5
				L55.4,111.5z M85.6,106c0.8-8.3-2.9-14.9-8.9-15.6c-3.4-0.4-7.1,1.1-10.4,4.2c-3.3,3.1-5.8,7.5-7,12.3c-0.3,1.4-0.6,2.7-0.7,4
				c-0.8,8.3,3,14.9,8.9,15.6c3.4,0.4,7.1-1.1,10.4-4.2c3.3-3.1,5.8-7.5,7-12.4C85.2,108.7,85.5,107.3,85.6,106L85.6,106z"/>
		</g>
	</g>
	<polygon id="XMLID_1518_" class="st2" points="103.8,92.5 154.5,114.1 154.2,126.9 103.5,105.3 	"/>
	<path id="XMLID_1517_" class="st0" d="M62.9,113c-0.6-5.9,2.9-12.6,8-15s9.7,0.4,10.3,6.3c0.6,5.9-2.9,12.6-8,15
		S63.5,118.9,62.9,113z"/>
	<path id="XMLID_1516_" class="st7" d="M73.2,119.3c-0.2,0.1-0.4,0.1-0.7,0.2c-0.7-1.1-1.2-2.5-1.4-4.1c-0.6-5.9,2.9-12.6,8-15
		c0.2-0.1,0.4-0.1,0.7-0.2c0.7,1.1,1.2,2.5,1.4,4.1C81.9,110.2,78.3,116.9,73.2,119.3z"/>
</g>
<g id="XMLID_1510_">
	<text id="XMLID_1514_" transform="matrix(1 0 0 1 103.2217 201.4062)" class="st8 st9 st10 st11">MEMO</text>
	<text id="XMLID_1513_" transform="matrix(1 0 0 1 90.6367 278.7978)" class="st8 st9 st12 st13">MECÂNICA</text>
	<text id="XMLID_1512_" transform="matrix(1 0 0 1 103.2217 194.7099)" class="st14 st9 st10 st11">MEMO</text>
	<text id="XMLID_1511_" transform="matrix(1 0 0 1 90.6367 269.7333)" class="st14 st9 st12 st13">MECÂNICA</text>
</g>
<g id="XMLID_1500_">
	<path id="XMLID_1509_" class="st15" d="M336.9,316.5l0.6-4.1c-0.4-0.9-0.5-1.1-0.8-1.1c0,0-11.2,3.8-13.2,4.4
		c-1.6,0.4-6.4,1-9.9-2.9c-6.7-7.7-4.3-12.4-3.7-13.1c0.5-0.6,0.9-2.9,5.2-4.1c4.3-1.1,13.8-2.3,13.8-2.3s0.4-0.5,0.6-1
		c0.2-0.5,0.7-3.8,0.1-4.1c-1.2-0.6-9.7-1.2-15.1-1.6c-7.5-0.6-10.6-0.6-14.1,0.8c-3.5,1.4-9.9,7.2-12.4,8.2
		c-6.9,2.8-16.8,2.2-16.8,2.2l-81.4-1.4c-8.2-0.3-9.9-0.5-17.8-3c-5.9-1.8-11.3-5.7-14.8-8.5c-2-1.1-5.6-2.3-7.1-2.6
		c-5.4-1.1-10.7,0.9-17.3,5.3c-4.2,2.8-6.8,2.8-7.8,4.2c-0.4,0.5,0.1,2.1,0.1,2.2c0.4,0.8,1.6,1.2,1.9,1.2c0.7,0,14.9-1.5,16.9-2
		c2.7-0.7,5.9,2,8.1,8.4c1.9,5.3-2.1,8.9-6.4,10c-4.3,1.1-15.9,0.5-16.9,1.1c0,0,1.1,3.6,1.7,3.9c1.2,0.6,10.1,5.4,15.4,6.5
		c9.2,1.8,14.9-3.6,15.2-3.8c4.3-2.5,10.8-4.9,13.3-5.9l97.8,2.3c8.2,0.3,9.6,1.5,17.6,3.8c5.1,1.5,12.6,5.4,17.3,7.7l1.7,0.7
		c1.1,0.7,2.4,1.2,3.9,1.5c5.4,1.1,8.9,0.4,15.5-4C333.9,321.7,336.3,317.5,336.9,316.5z"/>
	<path id="XMLID_1508_" class="st16" d="M336.8,313.9c0,0,0.9-1.2,0.5-2.3c-0.4-0.9-0.6-1.1-0.9-1c0,0-10.9,1.6-12.9,2.1
		c-1.6,0.4-6.4,1-9.9-2.9c-6.7-7.7-4.3-12.4-3.7-13.1c0.5-0.6,0.9-2.9,5.2-4.1c4.3-1.1,13.8-2.3,13.8-2.3s1.4-1.8,0.2-2.5
		c-1.2-0.6-9.3-3.9-14.7-4.3c-7.5-0.6-10.6-0.6-14.1,0.8c-3.5,1.4-9.9,7.2-12.4,8.2c-6.9,2.8-16.8,2.2-16.8,2.2l-81.4-1.4
		c-8.2-0.3-9.9-0.5-17.8-3c-5.9-1.8-11.3-5.7-14.8-8.5c-2-1.1-5.6-2.3-7.1-2.6c-5.4-1.1-10.7,0.9-17.3,5.3c-5.8,3.9-8.1,7.1-8.1,7.7
		c-0.1,0.8,1.3,1.5,1.6,1.5c0.7,0,15.5-3.1,17.6-3.6c2.7-0.7,5.9,2,8.1,8.4c1.9,5.3-2.1,8.9-6.4,10c-4.3,1.1-16,2.7-16.6,3
		c-0.6,0.4-0.4,2,0.2,2.2c1.3,0.5,11.4,5.2,16.7,6.3c9.2,1.8,14.9-3.6,15.2-3.8c4.3-2.5,10.8-4.9,13.3-5.9l97.8,2.3
		c8.2,0.3,9.6,1.5,17.6,3.8c5.1,1.5,12.6,5.4,17.3,7.7l1.7,0.7c1.1,0.7,2.4,1.2,3.9,1.5c5.4,1.1,8.9,0.4,15.5-4
		C333.9,318.6,336.8,313.9,336.8,313.9z"/>
	<g id="XMLID_1505_">
		<path id="XMLID_86_" class="st17" d="M159.9,284.5c0,0,0.5,0.3,1.3,0.8c0.4,0.3,0.9,0.6,1.4,1c0.5,0.4,0.9,1.1,1.3,1.8
			c0.4,0.7,0.7,1.6,1,2.4c0.3,0.9,0.6,1.8,0.9,2.8c0.6,2,1.1,4.1,1.6,6.2c0.4,2.1,0.7,4.3,0.6,6.4c0,2-0.3,4-1,5.5
			c-0.7,1.5-1.7,2.5-2.5,3c-0.4,0.3-0.7,0.4-1,0.5c-0.2,0.1-0.4,0.2-0.4,0.2s0.1-0.1,0.4-0.2c0.2-0.1,0.6-0.3,1-0.6
			c0.8-0.5,1.8-1.5,2.4-3c0.7-1.5,1-3.4,1-5.4c0-2-0.3-4.2-0.7-6.3c-0.4-2.1-0.9-4.2-1.5-6.2c-0.3-1-0.6-1.9-0.9-2.8
			c-0.3-0.9-0.6-1.7-1-2.4c-0.4-0.7-0.8-1.4-1.3-1.8c-0.5-0.5-1-0.8-1.4-1C160.4,284.8,159.9,284.5,159.9,284.5z"/>
	</g>
	<g id="XMLID_1502_">
		<path id="XMLID_88_" class="st17" d="M294,288.8c0,0-0.6,0.2-1.4,0.9c-0.8,0.7-1.8,2.1-2,4c-0.1,0.9,0,1.9,0.2,3
			c0.2,1.1,0.4,2.2,0.7,3.3c0.5,2.3,1.2,4.7,1.9,7.1c0.4,1.2,0.8,2.4,1.2,3.6c0.4,1.2,1,2.2,1.5,3.3c1.1,2.1,2.2,4,3.5,5.4
			c0.6,0.7,1.2,1.3,1.8,1.8c0.6,0.5,1.2,0.8,1.6,1.1c0.5,0.2,0.9,0.4,1.2,0.5c0.3,0.1,0.4,0.2,0.4,0.2s-0.1-0.1-0.4-0.1
			c-0.3-0.1-0.7-0.3-1.2-0.5c-0.5-0.3-1.1-0.6-1.7-1.1c-0.6-0.5-1.2-1.1-1.9-1.8c-1.2-1.4-2.4-3.3-3.5-5.4c-0.6-1-1.1-2.1-1.6-3.3
			c-0.5-1.2-0.8-2.4-1.2-3.6c-0.7-2.4-1.4-4.9-1.9-7.2c-0.3-1.2-0.5-2.3-0.7-3.3c-0.2-1.1-0.3-2.1-0.1-3.1c0.2-1.9,1.3-3.3,2.1-4
			C293.4,289,294,288.8,294,288.8z"/>
	</g>
	<path id="XMLID_1501_" class="st18" d="M266.2,308.4l-78.9-1.4c-2.5-0.1-4.5-2.2-4.5-4.7l0-0.5c0.1-2.5,2.2-4.5,4.7-4.5l78.9,1.4
		c2.5,0.1,4.5,2.2,4.5,4.7l0,0.5C270.8,306.5,268.7,308.5,266.2,308.4z"/>
</g>
<g id="XMLID_1370_">
	<g id="XMLID_1371_">
		<path id="XMLID_1480_" class="st19" d="M91.4,204.2c-0.4,0.2-2.1,1.3-3.5,2.3c0.4-0.5,0.7-0.9,0.8-1c0.2-0.3-0.5-1.5-1.1-1.7
			c0.4-1.3,0.8-2.6,0.8-2.8c0.1-0.5-1.4-1.5-2-1.1c-0.4,0.3-2.3,2.4-3.5,3.7c-0.1-0.1-0.3-0.1-0.4-0.2c0.7-1.3,1.6-2.8,1.7-3
			c0.2-0.4-1.1-1.8-1.7-1.5c0,0-0.1,0-0.1,0c0.1-0.3,0.2-0.6,0.2-0.6c0.1-0.5-2.6-3.1-3.1-2.7c0.1-0.5-1.4-1.5-2-1.1
			c0,0-3.4-2.4-4.3-2.4c-0.5-0.4-1.2-0.7-1.5-0.4c-0.1,0.1-0.3,0.3-0.5,0.5l0,0c-0.3,0.3-4.4-2.4-4.4-2.4l0,0
			c-0.5-0.4-1.5-0.7-1.8-0.3c-0.1,0.2-0.5,0.8-1,1.5l0,0c-0.2-0.4-3.7-2.2-3.7-2.2c0,0,0,0,0,0c-0.6-0.3-1.7-0.4-1.9,0
			c-0.2,0.3-0.7,1.6-1.2,3l0,0c-0.2-0.8-3.2-2.7-3.6-2.6c-0.2-0.4-2-0.6-2.3,0.1c-0.1,0.3-0.5,2.2-0.9,3.8c-0.8-0.8-3.4-2.2-3.5-2.5
			l0,0c-0.1-0.1-0.1-0.2-0.2-0.3c-0.2-0.4-2.1-0.3-2.2,0.4c-0.1,0.4-0.3,3.1-0.4,4.8c-0.5,0.3-3.5-2.7-3.9-2.5l0,0
			c-0.1-0.1-0.2-0.2-0.2-0.2c-0.3-0.4-2.1,0.1-2.2,0.7c0,0.4,0.2,3.1,0.3,4.8c-0.2,0.1-0.4,0.2-0.6,0.4c-1.7-1-3.2-1.8-3.1-1.5l0,0
			c-0.7-0.6-1.2-1-1.3-1.1c-0.4-0.3-2.1,0.5-2,1.1c0.1,0.5,0.8,3.2,1.3,4.9c-0.4,0.3-0.8,0.6-1.2,0.9c-1.5-0.9-3.9-2.5-4.2-2.7
			c-0.4-0.3-2,0.7-1.8,1.4c0.1,0.2,0.4,1.2,0.9,2.2c0.2,1,0.5,1.9,1,2.7c-0.4,0.3-0.7,0.7-1.1,1c-1.6-0.6-4.3-1.7-4.6-1.8
			c-0.4-0.2-1.8,1.1-1.5,1.7c0.1,0.1,0.2,0.4,0.4,0.7c0,0,0,0,0,0c0.4,0.9,0.9,1.7,1.6,2.4c0.2,0.3,0.4,0.6,0.5,0.8
			c-0.5,0.6-1,1.1-1.5,1.7c-1.7-0.5-4.2-1.2-4.5-1.3c-0.4-0.1-1.7,1.2-1.4,1.8c0.1,0.2,0.9,1.2,1.8,2.2c0,0.3,0.4,0.8,1,1.4
			c-0.4,0.5-0.7,1.1-1.1,1.7c-1.7-0.4-4.5-1.1-4.9-1.1c-0.5,0-1.3,1.7-0.9,2.2c0.2,0.2,0.8,0.7,1.7,1.2c0.3,0.6,0.9,1.3,1.7,2.1
			c-0.4,0.7-0.7,1.5-1,2.2c-1.7-0.4-3.8-0.9-4.1-0.9c-0.5,0-1.4,1.7-0.9,2.2c0.1,0.1,0.3,0.3,0.6,0.5c0,0,0,0,0,0
			c-0.1,0.3,1,1.5,2.6,2.9c-0.2,0.8-0.5,1.5-0.7,2.3c-1.7,0-3.7-0.1-4,0c-0.5,0.1-1,2-0.4,2.3c0.1,0,0.2,0.1,0.4,0.2
			c0.3,0.7,1.5,1.7,2.9,2.8c-0.1,0.4-0.1,0.8-0.2,1.2c-1.7,0.2-3.8,0.5-4,0.6c-0.4,0.2-0.7,2.1-0.1,2.4c0.2,0.1,0.9,0.3,1.8,0.5l0,0
			c-0.3,0.1,1.3,1.4,1.9,2.6c0,0.4,0,0.8,0,1.2c-1.6,0.6-3.6,1.3-3.8,1.5c-0.4,0.3-0.2,2.2,0.5,2.3c0.1,0,0.4,0,0.7,0.1c0,0,0,0,0,0
			c0,1.1,3.1,1.6,3.1,2.7c0,0,0,0,0,0c-1.5,0.9-3.6,2.2-3.8,2.5c-0.3,0.3,0.3,2.2,0.9,2.2c-0.3,0.3,4.3,1.8,4.2,2.1l0,0
			c-1.3,1.1-2.9,2.5-3,2.7c-0.3,0.4,0.6,2.1,1.3,2c0.6,0.5,2.6,1.3,3,1.9c0.1,0.1,0.1,0.2,0.2,0.3c-0.7,0.9-1.3,1.7-1.4,1.8
			c-0.2,0.4,1,2,1.6,1.8c0.2,0.4,2,1.4,3.2,2.9c-0.4,0.8-0.7,1.5-0.7,1.6c-0.1,0.4,1.3,1.6,1.9,1.3c0.6,0.7,2.3,2.1,2.9,1.9
			c-0.3,0.7-0.5,1.2-0.6,1.3c-0.1,0.5,1.4,1.7,2,1.3c0.1-0.1,0.3-0.2,0.5-0.5c-0.1,0.5,2.8,2.4,3.4,2c0,0,0.1,0,0.2,0
			c-0.1,0.6-0.2,1-0.2,1.1c0,0.5,1.7,1.4,2.2,0.9c-0.1,0.5,2.5,1.9,2.8,1.8c0.5-0.1,3.6,1.3,3.9,1.5c0.3,0.3,2.3,1.8,2.9,1.6
			c0,0,0.1,0,0.1,0l0.1,0l1.1,0.2c1.1,0.4,2.5,1.1,2.8,1.2c0,0,3.1,1.7,4.3,0.5c0.1-0.1,0.6,0,1.3,0.3l1,0.4
			c1.5,0.6,3.3,1.2,3.5,0.9c0.3-0.4,0.2-0.9,0.4-1.7c0.2,0,0.3,0,0.5,0c1.6,1,4.8,2.5,5.1,2.6c0.7,0.1,1.8-2.8,1.8-3l0.5-0.3
			c1.5,0.8,3.9,2.2,3.9,2.2c0.5,0.1,2.2-1.2,2.2-1.2c0.2-0.5,0.1-1.6,0.2-3c0,0,0.3-0.3,0.7-0.4c0.8,0.5,3.6,2.1,4.1,2.5
			c0,0,1.6-1,1.9-1.6c0,0,0.1-2.4,0.1-3.9c0,0,0.1-0.3,0.6-0.5c1.6,1.2,4.2,2.6,4.4,2.8c0,0,0,0,0.1,0c0.2-0.1,0.4-0.3,0.7-0.5
			c0.5-0.4,1-0.9,1-1.3c-0.1-0.5-0.2-3.2-0.5-4.8c0,0,0.8-0.7,0.9-0.7c0.5,0.3,1.1,0.7,1.6,1.1c0.9,0.6,1.5,1,1.6,1.1c0,0,0,0,0.1,0
			c0.1,0.1,0.2,0.2,0.3,0.2c0.1,0.1,0.6-0.1,1.1-0.5c0.3-0.2,0.5-0.4,0.7-0.5c0.5-0.5,0.9-1,0.9-1.3c-0.1-0.5-1.2-3-1.7-4.3
			c0.3-0.3,0.9-0.8,1.4-1.2c0.6,0.2,1.1,0.5,1.6,0.8c0.8,0.6,1.5,1,1.6,1c0,0,0.1,0,0.1,0c0,0,0.1,0,0.1,0.1
			c0.4,0.1,1.8-1.2,1.5-1.8c-0.2-0.3-1.4-2-2.5-3.4c0.7-0.8,1.4-1.7,2.1-2.6c1.8,0.5,3.9,1.2,4.1,1.2c0.5,0.1,1.7-1.4,1.3-1.9
			c-0.2-0.3-1.6-1.9-2.8-3.2c0.5-0.7,0.9-1.5,1.3-2.3c1.8,0.2,3.9,0.5,4.5,0.6c0,0,0,0,0,0c0,0,0,0,0,0c0,0,0,0,0.1,0
			c0.1,0,0.3-0.1,0.5-0.3c0.4-0.4,0.6-1,0.6-1.2c0.1-0.3,0-0.5-0.1-0.6c-0.3-0.3-2.2-1.8-3.6-2.9c0.3-0.8,0.7-1.7,0.9-2.5
			c1.6,0,3.5,0.1,4.2,0.1c0.1,0,0.1,0.1,0.1,0.1c0.1,0,0.1-0.1,0.2-0.1c0,0,0,0,0,0c0.1,0,0.2-0.1,0.3-0.3c0.6-0.6,0.6-1.6,0.6-1.6
			l-0.1-0.1c0-0.1-0.1-0.2-0.1-0.2c-0.3-0.3-2.4-1.6-3.9-2.4c0.2-0.8,0.6-0.9,0.8-1.7c1.9-0.4,4.3-1,4.6-1.1c0.1,0,0.3-0.2,0.4-0.3
			c0.2-0.2,0.4-0.5,0.5-0.7c0.1-0.3,0.2-0.6,0.2-0.8c0-0.1,0-0.1,0-0.1l0,0c0-0.1-0.1-0.1-0.1-0.2c-0.4-0.2-2.5-1.9-4.4-3.1
			c0.1-0.3,0.3-0.8,0.3-0.8c1.9-0.7,4.5-1.5,4.8-1.6c0.4-0.2,0.2-2-0.2-2.5c-0.3-0.3-1-0.6-3.6-2.6l-0.1-0.2c1.2-0.9,2.7-2,3.4-2.5
			c0,0,0,0,0,0c0.1,0,0.2-0.1,0.2-0.2c0.1,0,0.1-0.1,0.1-0.1c0.4-0.3,0-1.5-1.3-2.7c-0.2-0.2-2.8-1.7-2.9-2.1c1.1-1,2.3-1.7,2.5-2
			c0.3-0.3-1-2.7-1.5-3.1c-0.6-0.4-1.5-1.3-2.3-1.7c0.1-0.4,1.4-1.6,1.7-1.9c0.3-0.3-0.9-2.7-1.4-3.1c-0.4-0.3-2.4-3.8-2.6-4.3
			c-0.1-0.4-2.2-2.2-2.8-2.1c-0.4,0.1-1.2,1.2-2.5,1.9c-0.2-0.5-0.6-1.1-1-1.1c-0.1,0-0.3,0-0.5,0.1c0.8-1.3,2.2-3.8,2.3-4.1
			C93.3,205.3,92,204,91.4,204.2z M74.8,210.6c0.8,2.4-0.3,6-2.3,6.4c-2.6,0.5-9.3-2.1-11-2.6c-2.5-0.8-5.2-1.2-7.1-1.3
			c-0.2-0.4-0.2-0.7-0.2-0.7s1.6-5.3,5.6-6.3c2.5-0.6,7.1,0.5,10.9,1.7C72.7,208.8,74.6,209.9,74.8,210.6z M31.2,252.3
			c-1,4.3-3,6.6-5,6.9c0,0,0-0.1-0.1-0.1c-1.5-3.2-1.9-14-0.7-14.7c0.1,0.3,0.3,0.6,0.4,0.9c0.2,0.4,0.4,0.8,0.7,1.2
			c0.2,0.3,0.3,0.5,0.5,0.7c0.1,0.1,0.1,0.2,0.2,0.3C28.2,249.2,29.5,250.8,31.2,252.3z M61.1,264.6c1.6-1.4,4.6-2,7.3-4.1
			c2.7-2.1,3.3-2.8,5-4.8c1.7-2,2.1-3.5,3.9-5.7c0.7-0.9,1.9-1.3,2.8-1c0.1,0.3,0.1,0.6,0.2,1c-3.4,10.1-15.9,20.5-20.8,22.7
			C57.3,269.6,59.6,265.9,61.1,264.6z M23.1,216.4c0.2-0.2,0.3-0.4,0.5-0.7C23.5,216,23.3,216.2,23.1,216.4z M22.1,217.8
			c0-0.1,0.1-0.1,0.1-0.2C22.2,217.7,22.2,217.8,22.1,217.8z M19.2,223c0.1-0.3,0.3-0.6,0.4-0.9C19.5,222.4,19.3,222.7,19.2,223z
			 M59.3,198c-0.7-0.1-1.3-0.1-2-0.2l0,0C58,197.9,58.6,197.9,59.3,198L59.3,198z M53,198c-0.3,0-0.7,0.1-1,0.1
			C52.3,198,52.7,198,53,198L53,198z M41.8,201.1C41.8,201.2,41.7,201.2,41.8,201.1L41.8,201.1C41.7,201.2,41.8,201.2,41.8,201.1z
			 M38.5,202.9L38.5,202.9c-1.8,1-3.5,2.2-5.3,3.5l0,0C34.9,205.1,36.7,203.9,38.5,202.9z M29.6,209.4c-0.3,0.3-0.6,0.6-0.9,0.9l0,0
			C29,210,29.3,209.7,29.6,209.4z M25.8,213.2L25.8,213.2c-0.6,0.7-1.1,1.3-1.7,1.9C24.7,214.5,25.2,213.9,25.8,213.2z M21,219.6
			L21,219.6c-0.4,0.7-0.8,1.4-1.2,2.1C20.2,221,20.6,220.3,21,219.6z M19,223.4c-0.1,0.3-0.3,0.6-0.4,0.9l0,0
			C18.7,224,18.9,223.7,19,223.4z M17.9,226.2c-0.6,1.7-1.1,3.4-1.5,5.1l0,0C16.8,229.7,17.2,228,17.9,226.2z M15.8,233.5
			C15.8,233.5,15.8,233.5,15.8,233.5L15.8,233.5L15.8,233.5z M14.9,237.3c-0.1,0.7-0.2,1.4-0.3,2l0,0
			C14.7,238.6,14.8,238,14.9,237.3z M14.5,240.9c-0.1,0.9-0.1,1.8-0.1,2.7l0,0C14.4,242.7,14.4,241.8,14.5,240.9z"/>
		<g id="XMLID_1372_">
			<g id="XMLID_1389_">
				<path id="XMLID_1447_" class="st15" d="M91.4,204.2c-0.4,0.2-2.4,1.6-3.9,2.5c-0.2-0.2-0.4-0.4-0.7-0.5c0.3-1,1.5-4.8,1.6-5.2
					c0.1-0.5-1.4-1.5-2-1.1c-0.4,0.3-2.3,2.4-3.5,3.7c-0.5-0.3-1.1-0.6-1.6-0.9c0.5-1.5,1.3-4.1,1.3-4.5c0.1-0.5-2.6-3.1-3.1-2.7
					c-0.4,0.3-1.3,4-2.4,5.2c-0.5-0.2-1.1-0.4-1.6-0.6c0.2-1.6,2.1-5.5,2.1-5.8c0,0-4-2.8-4.5-2.3c-0.3,0.3-1.1,5.5-2,7
					c-0.4-0.1-0.8-0.1-1.2-0.2c-0.1-1.6,1.6-7,1.4-6.7c-0.3,0.3-4.4-2.4-4.4-2.4c-0.2,0.4-0.8,7.1-1.4,8.7c-0.6,0-1.3,0-1.9,0
					c-0.4-1.6,0.5-7.3,0.4-7.6c-0.2-0.4-3.7-2.2-3.7-2.2c-0.1,0.3-0.6,6.7-1,9.4c0,0.4-0.1,0.7-0.1,0.9c-0.5,0.1-1,0.2-1.5,0.3
					c-0.2-0.3-0.3-0.8-0.4-1.4c-0.3-2.3-0.1-6-0.2-6.2c-0.2-0.8-3.2-2.7-3.6-2.6c-0.3,0.1-0.5,5.5-0.6,9c0,1.3-0.1,2.3-0.1,2.8
					c-0.2,0.1-0.5-1.1-0.9-2.6c-0.6-2.3-1.3-5.4-1.6-5.3c-0.8-0.8-3.4-2.2-3.5-2.5c-0.3-0.4-0.2,7.7-0.3,8.4c0,0.4-2.6-3.5-2.6-3.5
					c-0.5,0.3-3.5-2.7-3.9-2.5c-1.2-1,1.4,7,1.7,8.3c0,0.1,0,0.2,0,0.2c0,0-0.1-0.1-0.2-0.1c-1.1-0.8-7.5-4.9-7.4-4.2
					c0,0.3,2.2,3.2,4.2,5.9c1.3,1.9,2.5,3.7,2.7,4.4c-0.4,0.3-0.8,0.6-1.2,0.9c-1.5-0.9-3.9-2.5-4.2-2.7c-0.4-0.3-2,0.7-1.8,1.4
					c0,0.1-0.3-0.1-0.8-0.4c-2-1.4-7.4-5.6-7.4-4.3c0.2,3.4,1.9,5.7,3.8,7.4c2.6,2.2,5.4,3.1,5.2,3.3c-1.6-0.6-4.3-1.7-4.6-1.8
					c-0.1,0-0.7-0.3-1.6-0.6c-2.9-1-8.6-3-8.4-2.5c1,2.4,3.3,4.1,5.6,5.5c2.5,1.5,4.9,2.4,5.4,3.2c-0.5,0.6-1,1.1-1.5,1.7
					c-1.7-0.5-4.2-1.2-4.5-1.3c-0.4-0.1-1.7,1.2-1.4,1.8c0.1,0.1-0.7-0.3-1.8-0.9c-2.3-1.2-6.1-3.3-5.3-2.4c0,0.6,2,2.4,4.2,4.2
					c2.4,2,4.9,4,4.7,4.3c-1.7-0.4-4.5-1.1-4.9-1.1c-0.5,0-1.3,1.7-0.9,2.2c0.1,0.1-0.5-0.3-1.3-0.8c-2.4-1.5-7.1-4.4-6-3.7
					c0.7,1.5,3.1,3.7,5.3,5.6c2.4,2.1,4.5,3.9,4.3,4.4c-1.7-0.4-3.8-0.9-4.1-0.9c-0.5,0-1.4,1.7-0.9,2.2c0.1,0.1-0.3-0.2-0.9-0.6
					c-2.2-1.6-7.9-5.6-7.4-4.4c-0.2,0.6,3.7,3.8,6.8,6.6c2.2,1.9,4.1,3.7,4,4.1c-1.7,0-3.7-0.1-4,0c-0.5,0.1-0.9,1.9-0.4,2.3
					c-0.1-0.1-0.3-0.3-0.8-0.6c-2.2-1.7-8.3-6.3-7.8-5.2c-0.5,1,4.1,4.2,7.6,6.8c2.2,1.6,4.1,2.9,4,3.3c-0.6,0.1-2.3-0.2-4.1-0.5
					c-3.1-0.6-6.8-1.5-7-1.4c-0.4,0.2,3,2.8,1.9,3.8c-0.3,0.2-2.5,2.9-2.7,3.8c0,1.1,3.1,1.6,3.1,2.7c-0.6,0.3-2.7,4.4-2.9,4.6
					c-0.3,0.3,4.3,1.8,4.2,2.1c-0.3,0.4-2.3,4.3-1.8,4.7c0.6,0.5,2.6,1.3,3,1.9c0.9,1.1,0.2,3.5,0.3,3.9c0.3,0.5,4.4,2.7,4.2,5.5
					c0,0.5,2.4,2.5,3.1,2.3c0.3-0.1,2,1.9,2,2.2c-0.1,0.5,2.8,2.4,3.4,2c0.3-0.2,2.2,1.7,2.2,2.1c-0.1,0.5,2.5,1.9,2.8,1.8
					c0.5-0.1,3.6,1.3,3.9,1.5c0.3,0.3,2.3,1.8,2.9,1.6c0.7-0.2,3.7,1.2,4.1,1.5c0,0,3.1,1.7,4.3,0.5c0.3-0.3,5.4,2.1,5.8,1.5
					c0.3-0.4,0.2-0.9,0.4-1.7c0.2,0,0.3,0,0.5,0c1.6,1,4.8,2.5,5.1,2.6c0.7,0.1,1.8-2.8,1.8-3l0.5-0.3c1.5,0.8,3.9,2.2,3.9,2.2
					c0.5,0.1,2.2-1.2,2.2-1.2c0.2-0.5,0.1-1.6,0.2-3c0,0,0.3-0.3,0.7-0.4c0.8,0.5,3.6,2.1,4.1,2.5c0,0,1.6-1,1.9-1.6
					c0,0,0.1-2.4,0.1-3.9c0,0,0.1-0.3,0.6-0.5c1.6,1.2,4.2,2.6,4.4,2.8c0,0,1.8-1.2,1.7-1.8c-0.1-0.5-0.2-3.2-0.5-4.8
					c0,0,0.8-0.7,0.9-0.7c1.4,1,3.3,2.2,3.6,2.3c0.4,0.3,2.7-1.6,2.6-2.3c-0.1-0.5-1.2-3-1.7-4.3c0.3-0.3,0.9-0.8,1.4-1.2
					c1.8,0.7,3.1,1.8,3.4,1.9c0.4,0.1,1.8-1.2,1.5-1.8c-0.2-0.3-1.4-2-2.5-3.4c0.7-0.8,1.4-1.7,2.1-2.6c1.8,0.5,3.9,1.2,4.1,1.2
					c0.5,0.1,1.7-1.4,1.3-1.9c-0.2-0.3-1.6-1.9-2.8-3.2c0.5-0.7,0.9-1.5,1.3-2.3c1.9,0.2,4.4,0.5,4.7,0.6c0.5,0,1.4-1.7,1-2.1
					c-0.3-0.3-2.2-1.8-3.6-2.9c0.3-0.8,0.7-1.7,0.9-2.5c1.9,0,4.3,0.1,4.6,0.1c0.5,0,1.2-1.7,0.7-2.2c-0.3-0.3-2.4-1.6-3.9-2.4
					c0.2-0.8,0.6-0.9,0.8-1.7c1.9-0.4,4.3-1,4.6-1.1c0.4-0.1,1.5-1.8,1-2.1c-0.4-0.2-2.5-1.9-4.4-3.1c0.1-0.3,0.3-0.8,0.3-0.8
					c1.9-0.7,4.5-1.5,4.8-1.6c0.4-0.2,0.2-2-0.2-2.5c-0.3-0.3-1-0.6-3.6-2.6l-0.1-0.2c1.5-1.1,3.5-2.5,3.8-2.7
					c0.4-0.3,0-1.5-1.3-2.7c-0.2-0.2-2.8-1.7-2.9-2.1c1.1-1,2.3-1.7,2.5-2c0.3-0.3-1-2.7-1.5-3.1c-0.6-0.4-1.5-1.3-2.3-1.7
					c0.1-0.4,1.4-1.6,1.7-1.9c0.3-0.3-0.9-2.7-1.4-3.1c-0.4-0.3-2.4-3.8-2.6-4.3c-0.1-0.4-2.2-2.2-2.8-2.1c-0.4,0.1-1.4,1.5-2.9,2.2
					c-0.3-0.4-0.7-0.8-1-1.2c0.8-1.3,2.2-3.8,2.3-4.1C93.3,205.3,92,204,91.4,204.2z M56,204.1c2.1-0.5,5.7,0.2,9,1.1
					c1.1,0.3,3.4,1.3,5.6,2.5c2.1,1.1,4,2.3,4.2,2.9c0.8,2.4-0.3,6-2.3,6.4c-2.6,0.5-9.3-2.1-11-2.6c-2.5-0.8-5.2-1.2-7.1-1.3
					c-0.1,0-0.2,0-0.2,0c-3.4-0.3-3.7-2.6-3.7-2.6S52.1,205,56,204.1z M57.9,263c1.7-1.5,5-1.9,7.9-4c2.9-2.2,3.5-2.9,5.3-5.1
					c1.7-2.1,2.1-3.8,3.9-6.2c1.4-1.8,4.4-1.3,5.1,1.1c0.1,0.3,0.1,0.6,0.2,1c-3.4,10.1-15.9,20.5-20.8,22.7c-1,0.4-1.6,0.5-1.9,0.3
					C53.7,269.1,56.2,264.5,57.9,263z M24,232.1c-0.2,2.1-0.9,8.9,3.2,15.4c1,1.6,2.3,3.2,4,4.8c-1,4.3-3,6.6-5,6.9
					c-2,0.4-3.9-1.1-4.8-4.1C19.6,250.1,18,235.8,24,232.1z"/>
				<path id="XMLID_1444_" class="st18" d="M84.2,200.3c0.2-0.4-1.1-1.8-1.7-1.5c-0.4,0.2-2.4,1.6-3.9,2.5c-0.2-0.2-0.4-0.4-0.7-0.5
					c0.3-1,1.5-4.8,1.6-5.2c0.1-0.5-1.4-1.5-2-1.1c-0.4,0.3-2.3,2.4-3.5,3.7c-0.5-0.3-1.1-0.6-1.6-0.9c0.5-1.5,1.3-4.1,1.3-4.5
					c0.1-0.5-1.4-1.5-2-1.1c-0.4,0.3-2.4,2.4-3.6,3.7c-0.5-0.2-1.1-0.4-1.6-0.6c0.2-1.6,0.5-4.3,0.5-4.6c0-0.5-1.7-1.2-2.1-0.7
					c-0.3,0.3-1.9,2.8-2.8,4.2c-0.4-0.1-0.8-0.1-1.2-0.2c-0.1-1.6-0.4-4.2-0.5-4.5c-0.1-0.4-1.9-0.9-2.2-0.3
					c-0.2,0.4-1.1,2.7-1.7,4.4c-0.6,0-1.3,0-1.9,0c-0.4-1.6-1-3.8-1.1-4c-0.2-0.4-2-0.6-2.3,0.1c-0.2,0.4-0.6,2.7-1,4.4
					c-0.5,0.1-1,0.2-1.5,0.3c-0.9-1.5-2-3.4-2.1-3.7c-0.2-0.4-2.1-0.3-2.2,0.4c-0.1,0.4-0.3,3.1-0.4,4.8c-0.5,0.2-1,0.4-1.5,0.6
					c-1.1-1.3-2.5-3.1-2.7-3.3c-0.3-0.4-2.1,0.1-2.2,0.7c0,0.4,0.2,3.1,0.3,4.8c-0.5,0.3-0.9,0.5-1.4,0.8c-1.3-1.1-3.4-2.9-3.7-3.1
					c-0.4-0.3-2.1,0.5-2,1.1c0.1,0.5,0.8,3.2,1.3,4.9c-0.4,0.3-0.8,0.6-1.2,0.9c-1.5-0.9-3.9-2.5-4.2-2.7c-0.4-0.3-2,0.7-1.8,1.4
					c0.1,0.5,1.3,3.2,2,4.8c-0.4,0.4-0.8,0.7-1.2,1.1c-1.6-0.6-4.3-1.7-4.6-1.8c-0.4-0.2-1.8,1.1-1.5,1.7c0.2,0.4,1.6,2.5,2.5,3.9
					c-0.5,0.6-1,1.1-1.5,1.7c-1.7-0.5-4.2-1.2-4.5-1.3c-0.4-0.1-1.7,1.2-1.4,1.8c0.2,0.4,1.7,2.2,2.8,3.5c-0.4,0.6-0.8,1.2-1.1,1.7
					c-1.7-0.4-4.5-1.1-4.9-1.1c-0.5,0-1.3,1.7-0.9,2.2c0.3,0.3,2.2,1.6,3.7,2.6c-0.5,1-0.9,2-1.4,3c-1.7-0.4-3.8-0.9-4.1-0.9
					c-0.5,0-1.4,1.7-0.9,2.2c0.3,0.3,2.1,1.6,3.5,2.6c-0.3,1-0.7,2.1-0.9,3.1c-1.7,0-3.7-0.1-4,0c-0.5,0.1-1,2-0.4,2.3
					c0.3,0.2,2,0.9,3.5,1.5c-0.2,0.9-0.3,1.8-0.4,2.7c-1.7,0.2-3.8,0.5-4,0.6c-0.4,0.2-0.7,2.1-0.1,2.4c0.3,0.1,2.2,0.6,3.7,1
					c0,1.1-0.1,2.2,0,3.3c-1.6,0.6-3.6,1.3-3.8,1.5c-0.4,0.3-0.2,2.2,0.5,2.3c0.3,0.1,2,0.1,3.6,0.2c0.1,0.8,0.2,1.7,0.4,2.5
					c-1.5,0.9-3.8,2.3-4,2.5c-0.3,0.3,0.3,2.2,0.9,2.2c0.4,0,2.3-0.3,4-0.6c0.2,0.8,0.4,1.5,0.7,2.3c-1.3,1.1-3.4,2.9-3.5,3.1
					c-0.3,0.4,0.6,2.1,1.3,2c0.4-0.1,2.3-0.7,3.8-1.3c0.3,0.5,0.5,1.1,0.8,1.6c-1.1,1.4-2.8,3.4-2.9,3.6c-0.2,0.4,1,2,1.6,1.8
					c0.3-0.1,2-1.1,3.5-1.9c0.4,0.6,0.8,1.1,1.2,1.7c-0.7,1.5-2.1,4.4-2.2,4.7c-0.1,0.5,1.4,1.7,2,1.3c0.3-0.2,1.9-1.7,3.1-2.8
					c0.4,0.4,0.9,0.8,1.3,1.2c-0.7,1.5-2.1,4.5-2.2,4.9c-0.1,0.5,1.4,1.7,2,1.3c0.4-0.3,2.6-2.3,3.8-3.5c0.4,0.3,0.9,0.6,1.4,0.8
					c-0.4,1.5-1.3,5-1.3,5.4c0,0.5,1.7,1.4,2.2,0.9c0.3-0.3,2.1-2.9,3.1-4.3c0.4,0.2,0.8,0.3,1.2,0.5c0.1,2,0.2,5,0.2,5.3
					c0.1,0.5,1.9,1.2,2.3,0.6c0.3-0.4,1.7-3,2.5-4.5c0.4,0.1,0.8,0.1,1.2,0.2c0.3,2,0.8,4.8,0.8,5.1c0.1,0.5,2,0.9,2.3,0.4
					c0.3-0.4,1.4-3.4,2-4.9c0.2,0,0.4,0,0.6,0c0.8,1.8,2.1,4.6,2.3,4.9c0.2,0.4,2.2,0.4,2.4-0.3c0.1-0.4,0.4-3.2,0.6-4.9
					c0.7-0.1,1.4-0.2,2-0.3c0.8,1.8,2.1,4.6,2.3,4.9c0.2,0.4,2.2,0.4,2.4-0.3c0.2-0.5,0.6-4.5,0.7-5.9c0.4-0.1,0.7-0.2,1.1-0.3
					c1.2,1.6,2.9,3.8,3.1,4.1c0.3,0.4,2.2-0.1,2.2-0.8c0-0.5-0.3-3.5-0.5-5.2c0.5-0.2,1-0.5,1.5-0.7c1.5,1.3,4,3.6,4.2,3.8
					c0.4,0.3,2.1-0.5,2.1-1.2c-0.1-0.5-1.1-3.8-1.6-5.4c0.6-0.4,1.3-0.8,1.9-1.3c1.2,1,3.2,2.6,3.5,2.8c0.4,0.3,2.1-0.6,2-1.3
					c-0.1-0.5-1.1-3.2-1.6-4.5c0.5-0.5,1.1-1,1.6-1.5c1.8,0.7,4,1.6,4.3,1.7c0.4,0.1,1.8-1.2,1.5-1.8c-0.2-0.3-1.4-2-2.5-3.4
					c0.7-0.8,1.4-1.7,2.1-2.6c1.8,0.5,3.9,1.2,4.1,1.2c0.5,0.1,1.7-1.4,1.3-1.9c-0.2-0.3-1.6-1.9-2.8-3.2c0.5-0.7,0.9-1.5,1.3-2.3
					c1.9,0.2,4.4,0.6,4.7,0.6c0.5,0,1.4-1.7,1-2.1c-0.3-0.3-2.2-1.8-3.6-2.9c0.3-0.8,0.7-1.7,0.9-2.5c1.9,0,4.3,0.1,4.6,0.1
					c0.5,0,1.2-1.7,0.7-2.2c-0.3-0.3-2.4-1.6-3.9-2.4c0.2-0.8,0.4-1.6,0.5-2.4c1.9-0.4,5.1-1.2,5.4-1.3c0.4-0.1,0.7-2,0.1-2.3
					c-0.4-0.2-3.1-1-4.8-1.5c0.1-0.6,0.1-1.3,0.2-1.9c1.8-0.7,4.7-1.9,5-2.1c0.4-0.2,0.4-2.1-0.2-2.3c-0.4-0.1-2.9-0.4-4.6-0.7
					c0-0.5,0-1-0.1-1.5c1.5-1.1,4.6-3.3,4.9-3.5c0.4-0.3-0.1-2.1-0.7-2.1c-0.4,0-2.9,0.2-4.7,0.4c-0.1-0.5-0.2-0.9-0.2-1.4
					c1.1-1,4.4-4.3,4.7-4.6c0.3-0.3-0.4-2.1-1.1-2c-0.5,0-3.3,0.8-5,1.2c-0.2-0.6-0.4-1.2-0.6-1.9c0.9-0.8,3.8-3.2,4-3.5
					c0.3-0.3-0.4-2.1-1.1-2c-0.5,0-3.2,0.8-4.9,1.2c-0.3-0.5-0.6-1.1-0.9-1.6c0.9-1.1,3-3.6,3.2-3.9c0.2-0.4-0.7-2-1.4-1.8
					c-0.4,0.1-2.8,1.2-4.4,1.9c-0.3-0.4-0.7-0.8-1-1.2C82.7,203.1,84.1,200.6,84.2,200.3z M79.2,209.2c6.2,7,7.3,16.1,7.1,25.2
					c-0.3,10.7-4,19.1-12,28.4c-2.9,3.4-6.3,6.3-9.9,8.6c-1.3,0.9-2.5,1.6-3.2,1.9C48,280,32.3,279,20.3,264.7
					c-3.4-4.1-8.1-17-4.9-29.5c1.8-7.1,3-14.8,12.5-24.1C44,195.1,64.5,192.5,79.2,209.2z"/>
				
					<linearGradient id="XMLID_118_" gradientUnits="userSpaceOnUse" x1="583.4731" y1="-687.7348" x2="664.5478" y2="-687.7348" gradientTransform="matrix(0.7115 -0.7027 0.7027 0.7115 67.2497 1142.7135)">
					<stop  offset="3.030300e-002" style="stop-color:#1D1E1C"/>
					<stop  offset="0.2727" style="stop-color:#3C3C3B"/>
					<stop  offset="0.4364" style="stop-color:#585756"/>
					<stop  offset="0.5515" style="stop-color:#3C3C3B"/>
					<stop  offset="0.7636" style="stop-color:#585756"/>
					<stop  offset="1" style="stop-color:#1D1E1C"/>
				</linearGradient>
				<path id="XMLID_1443_" class="st20" d="M41.9,201.1c0,0-0.1,0-0.1,0.1c0.1,0.1,0.1,0.1,0.2,0.1
					C41.9,201.3,41.9,201.2,41.9,201.1z"/>
				<path id="XMLID_1442_" class="st21" d="M15.4,239.9C15.4,239.9,15.4,239.9,15.4,239.9C15.4,239.9,15.4,239.9,15.4,239.9z"/>
				
					<linearGradient id="XMLID_119_" gradientUnits="userSpaceOnUse" x1="583.4731" y1="-678.73" x2="605.5344" y2="-678.73" gradientTransform="matrix(0.7115 -0.7027 0.7027 0.7115 67.2497 1142.7135)">
					<stop  offset="3.030300e-002" style="stop-color:#1D1E1C"/>
					<stop  offset="0.2727" style="stop-color:#3C3C3B"/>
					<stop  offset="0.4364" style="stop-color:#585756"/>
					<stop  offset="0.5515" style="stop-color:#3C3C3B"/>
					<stop  offset="0.7636" style="stop-color:#585756"/>
					<stop  offset="1" style="stop-color:#1D1E1C"/>
				</linearGradient>
				<path id="XMLID_1404_" class="st22" d="M15.4,239.9C15.4,239.9,15.4,239.9,15.4,239.9C15.4,239.9,15.4,239.9,15.4,239.9z"/>
				<path id="XMLID_1399_" class="st21" d="M59.3,198c-0.7-0.1-1.3-0.1-2-0.2c-1.4-0.1-2.9,0-4.3,0.1c-0.3,0-0.7,0.1-1,0.1
					c-3.4,0.4-6.8,1.5-10.1,3c0,0.1,0,0.2,0,0.2c0,0-0.1-0.1-0.2-0.1c-1.1,0.5-2.2,1.1-3.2,1.7c-1.8,1-3.5,2.2-5.3,3.5
					c-1.2,0.9-2.4,2-3.6,3c-0.3,0.3-0.6,0.6-0.9,0.9c-0.3,0.3-0.5,0.5-0.8,0.8c-0.7,0.7-1.4,1.4-2,2.1c-1.4,1.6-2.6,3.1-3.7,4.6
					c-0.4,0.6-0.8,1.2-1.2,1.8c-1,1.6-1.7,3.2-2.4,4.7c-0.3,0.7-0.5,1.3-0.7,1.9c-0.6,1.7-1.1,3.4-1.5,5.1c-0.2,0.8-0.4,1.5-0.5,2.2
					c-0.1,0.6-0.3,1.1-0.4,1.7c-0.3,1.4-0.6,2.8-0.7,4.1c-0.1,0.5-0.1,1.1-0.2,1.6c-0.1,0.9-0.1,1.8-0.1,2.7c0,9.4,3.3,17.9,5.9,21
					c12,14.3,27.7,15.3,40.8,8.6c1.1-0.6,2.2-1.2,3.2-1.9c3.6-2.3,7-5.2,9.9-8.6c8-9.2,11.8-17.7,12-28.4c0.2-9.1-0.9-18.2-7.1-25.2
					C73.3,202.5,66.4,198.9,59.3,198z M31.2,252.3c-1,4.3-3,6.6-5,6.9c-2,0.4-3.9-1.1-4.8-4.1c-1.7-5.1-3.3-19.3,2.6-23
					c-0.2,2.1-0.9,8.9,3.2,15.4C28.2,249.2,29.5,250.8,31.2,252.3z M80.1,248.9c0.1,0.3,0.1,0.6,0.2,1
					c-3.4,10.1-15.9,20.5-20.8,22.7c-1,0.4-1.6,0.5-1.9,0.3c-3.9-3.7-1.4-8.3,0.3-9.8c1.7-1.5,5-1.9,7.9-4c2.9-2.2,3.5-2.9,5.3-5.1
					c1.7-2.1,2.1-3.8,3.9-6.2C76.3,245.9,79.4,246.5,80.1,248.9z M74.8,210.6c0.8,2.4-0.3,6-2.3,6.4c-2.6,0.5-9.3-2.1-11-2.6
					c-2.5-0.8-5.2-1.2-7.1-1.3c-0.1,0-0.2,0-0.2,0c-3.4-0.3-3.7-2.6-3.7-2.6s1.6-5.3,5.6-6.3c2.1-0.5,5.7,0.2,9,1.1
					c1.1,0.3,3.4,1.3,5.6,2.5C72.7,208.8,74.6,209.9,74.8,210.6z"/>
				
					<linearGradient id="XMLID_120_" gradientUnits="userSpaceOnUse" x1="600.7838" y1="-658.7941" x2="646.2613" y2="-658.9307" gradientTransform="matrix(0.7115 -0.7027 0.7027 0.7115 67.2497 1142.7135)">
					<stop  offset="3.030300e-002" style="stop-color:#1D1E1C"/>
					<stop  offset="0.503" style="stop-color:#585756"/>
					<stop  offset="0.7152" style="stop-color:#70706E"/>
					<stop  offset="1" style="stop-color:#1D1E1C"/>
				</linearGradient>
				<path id="XMLID_1398_" class="st23" d="M59.8,216.1c11.3,6.9,15,21.3,8.4,32.2c-6.7,10.9-21.2,14.2-32.5,7.3
					c-11.3-6.9-15.9-20-8.4-32.2C34,212.6,48.5,209.3,59.8,216.1z"/>
				<path id="XMLID_1397_" d="M56,204.1c-4,0.9-5.6,6.3-5.6,6.3s0.2,2.3,3.7,2.6c0.1,0,0.2,0,0.2,0c-0.2-0.4-0.2-0.7-0.2-0.7
					s1.6-5.3,5.6-6.3c2.5-0.6,7.1,0.5,10.9,1.7c-2.1-1.1-4.5-2.1-5.6-2.5C61.7,204.3,58.2,203.6,56,204.1z"/>
				<path id="XMLID_1396_" d="M61.1,264.6c1.6-1.4,4.6-2,7.3-4.1c2.7-2.1,3.3-2.8,5-4.8c1.7-2,2.1-3.5,3.9-5.7
					c0.7-0.9,1.9-1.3,2.8-1c-0.7-2.4-3.8-3-5.1-1.1c-1.8,2.3-2.2,4-3.9,6.2c-1.7,2.1-2.3,2.9-5.3,5.1c-2.9,2.2-6.2,2.5-7.9,4
					c-1.7,1.5-4.2,6.1-0.3,9.8c0.3,0.3,0.9,0.1,1.9-0.3C57.3,269.6,59.6,265.9,61.1,264.6z"/>
				<path id="XMLID_1395_" d="M21.4,255.1c0.8,3.1,2.8,4.5,4.8,4.1c0,0,0-0.1-0.1-0.1c-1.5-3.3-1.9-14.5-0.6-14.8
					c0.1,0.7,0.7,1.8,1.7,3.2c-4.1-6.6-3.4-13.3-3.2-15.4C18,235.8,19.6,250.1,21.4,255.1z"/>
				<path id="XMLID_1392_" class="st18" d="M54.6,214.8c-8.9-5.5-21.2-1.5-27.4,8.8c-6.2,10.3-4.1,23.1,4.8,28.5
					c8.9,5.5,21.2,1.5,27.4-8.8C65.7,233,63.5,220.3,54.6,214.8z M48.6,238.8c-3.5,3.5-8.8,3.9-11.7,0.9c-3-3-2.5-8.3,1-11.7
					c3.5-3.5,8.8-3.9,11.7-0.9C52.6,230.1,52.1,235.3,48.6,238.8z"/>
				<path id="XMLID_1391_" class="st24" d="M64.3,271.4c-1.1,0.7-2.1,1.3-3.2,1.9C61.9,272.9,63,272.3,64.3,271.4z"/>
				
					<ellipse id="XMLID_1390_" transform="matrix(0.7115 -0.7027 0.7027 0.7115 -151.4251 97.6381)" class="st15" cx="43.2" cy="233.2" rx="9" ry="7.8"/>
			</g>
			<g id="XMLID_1373_">
				<path id="XMLID_1388_" class="st19" d="M105.3,237.7c0,0,0.3,2-0.3,2.2c-0.5-0.2-8.8-6.4-8.8-6.4l-0.2-2.1L105.3,237.7z"/>
				<path id="XMLID_1387_" class="st19" d="M105,245.7c0,0-0.1,1.6-1.4,1.9c-0.5-0.3-7.9-6.5-7.9-6.5l0.3-1.5L105,245.7z"/>
				<path id="XMLID_1386_" class="st19" d="M105.2,230.8c0,0,0.4,1.2-0.2,1.5c-0.5-0.2-8.8-6.9-8.8-6.9l-0.7-1.7L105.2,230.8z"/>
				<path id="XMLID_1385_" class="st19" d="M102.7,253.2c0,0,0,1.6-1.2,1.9c-0.5-0.3-8.1-6.1-8.1-6.1l0.2-1.4L102.7,253.2z"/>
				<path id="XMLID_1384_" class="st19" d="M99.9,260.8c0,0,0,1.3-1.2,1.7c-0.5-0.3-8.4-5.7-8.4-5.7L91,255L99.9,260.8z"/>
				<path id="XMLID_1383_" class="st19" d="M95.5,268c0,0-0.6,1.5-1.7,1.2c-0.4-0.3-8.2-5.4-8.2-5.4l1.2-1.6L95.5,268z"/>
				<path id="XMLID_1382_" class="st19" d="M90.4,274.5c0,0-0.7,1.2-1.7,1.2c-0.4-0.3-8.3-5.5-8.3-5.5l1.3-1.5L90.4,274.5z"/>
				<path id="XMLID_1381_" class="st19" d="M85.1,280.5c0,0-1,1.2-2.2,0.9c-0.5-0.3-8.7-5.8-8.7-5.8l1.3-1L85.1,280.5z"/>
				<path id="XMLID_1380_" class="st19" d="M79.2,285.2c0,0-1.2,1.4-1.6,1.5c-0.5-0.3-9.2-5.9-9.2-5.9l1.4-1L79.2,285.2z"/>
				<path id="XMLID_1379_" class="st19" d="M71.6,287.8c0,0-1.4,1.2-1.8,1.3c-0.5-0.3-10.1-5.9-10.1-5.9l2.3-0.6L71.6,287.8z"/>
				<path id="XMLID_1378_" class="st19" d="M65.2,291c0,0-1.4,0.9-1.8,0.9c-0.5-0.3-10-5.6-10-5.6l2-0.4L65.2,291z"/>
				<path id="XMLID_1377_" class="st19" d="M57.9,292.2c0,0-0.4,0.8-0.9,0.9c-0.5-0.4-11.1-6-11.1-6l1.9-0.3L57.9,292.2z"/>
				<polygon id="XMLID_1376_" class="st19" points="48.7,291.5 48.6,291.7 46.2,290.9 38.9,286.8 40.7,286.9 				"/>
				<polygon id="XMLID_1375_" class="st19" points="38.2,289 37.1,288.8 31.9,285.3 33.5,285.1 				"/>
				<polygon id="XMLID_1374_" class="st19" points="103.2,223.5 103.6,225.1 94.9,218 94.9,217.3 				"/>
			</g>
		</g>
	</g>
</g>
<g id="XMLID_1181_">
	<path id="XMLID_1369_" class="st25" d="M401.7,228.6c-2.2-0.6-10-3-11-3.3c0-4.9-13-17.2-7.9-17.3c6.4,1.9,33.2,9.8,34.4,10.3
		C421.5,221.4,404.7,224,401.7,228.6z"/>
	<path id="XMLID_1368_" class="st25" d="M417.9,219c-0.5,1.7-10.5,0.2-19.7-2.6c-9.2-2.7-16.8-6.5-16.3-8.2
		c0.5-1.7,8.9-0.6,18.1,2.1C409.2,213.1,418.4,217.3,417.9,219z"/>
	<polygon id="XMLID_1325_" class="st25" points="374.5,309 370.4,314 368.9,313.5 368.7,306.9 369.4,296.5 390.7,225.3 401.7,228.6 
		379.8,299.7 	"/>
	<path id="XMLID_1324_" class="st25" d="M384.1,237.1c0.3,0.7,17.8,0.9,18.2,0.3c0.4-0.6-0.1-1.7-0.1-1.7l-2-1.5
		c0,0-0.1,1.2-0.6,1.7c-0.4,0.5-12.1,0.4-12.3-0.1c-0.3-0.4,0.4-1.1,0.4-1.1s-2.7,0.6-3.2,1.1S384,236.6,384.1,237.1z"/>
	<path id="XMLID_1323_" class="st25" d="M382.1,244.6c0.3,0.7,17.2,0.9,17.6,0.4c0.4-0.6-0.1-1.7-0.1-1.7l-1.9-1.5
		c0,0-0.1,1.2-0.5,1.7c-0.4,0.5-11.7,0.4-12-0.1c-0.2-0.5,0.4-1.1,0.4-1.1s-2.6,0.6-3.1,1C382,243.7,381.9,244.1,382.1,244.6z"/>
	<path id="XMLID_1322_" class="st25" d="M379.8,252.2c0.3,0.7,17.3,0.9,17.7,0.3c0.4-0.6-0.1-1.7-0.1-1.7l-1.9-1.5
		c0,0-0.1,1.2-0.5,1.7c-0.4,0.5-11.7,0.3-12-0.1c-0.2-0.5,0.4-1.1,0.4-1.1s-2.6,0.6-3.1,1C379.7,251.2,379.6,251.7,379.8,252.2z"/>
	<path id="XMLID_1321_" class="st25" d="M377.3,260.2c0.3,0.7,17.4,0.9,17.8,0.4c0.4-0.6-0.1-1.7-0.1-1.7l-1.9-1.5
		c0,0-0.1,1.2-0.5,1.7c-0.4,0.5-11.9,0.3-12.1-0.1c-0.2-0.5,0.4-1.1,0.4-1.1s-2.6,0.6-3.1,1C377.2,259.3,377.1,259.7,377.3,260.2z"
		/>
	<path id="XMLID_1320_" class="st25" d="M375,267.9c0.3,0.7,17.3,0.9,17.7,0.4c0.4-0.6-0.1-1.7-0.1-1.7l-1.9-1.5
		c0,0-0.1,1.2-0.5,1.7s-11.8,0.3-12.1-0.1c-0.2-0.5,0.4-1.1,0.4-1.1s-2.6,0.6-3.1,1C374.9,267,374.8,267.4,375,267.9z"/>
	<path id="XMLID_1319_" class="st25" d="M372.9,274.9c0.3,0.7,17,0.9,17.4,0.4c0.4-0.6-0.1-1.7-0.1-1.7l-1.9-1.5
		c0,0-0.1,1.2-0.5,1.7c-0.4,0.5-11.6,0.4-11.8-0.1c-0.2-0.5,0.4-1.1,0.4-1.1s-2.5,0.6-3.1,1.1C372.8,274,372.7,274.5,372.9,274.9z"
		/>
	<path id="XMLID_1318_" class="st25" d="M370.5,282.8c0.3,0.7,17,0.9,17.4,0.4c0.4-0.6-0.1-1.7-0.1-1.7l-1.9-1.5
		c0,0-0.1,1.2-0.5,1.7c-0.4,0.5-11.6,0.4-11.8-0.1c-0.2-0.5,0.4-1.1,0.4-1.1s-2.5,0.6-3.1,1.1C370.4,281.8,370.3,282.2,370.5,282.8z
		"/>
	<path id="XMLID_1317_" class="st25" d="M368.2,290.6c0.3,0.7,17,0.9,17.4,0.4c0.4-0.6-0.1-1.7-0.1-1.7l-1.9-1.5
		c0,0-0.1,1.2-0.5,1.7c-0.4,0.5-11.6,0.4-11.8-0.1c-0.2-0.5,0.4-1.1,0.4-1.1s-2.5,0.6-3.1,1.1C368.1,289.7,368,290.1,368.2,290.6z"
		/>
	<path id="XMLID_1316_" class="st25" d="M365.9,298.1c0.3,0.7,17,0.9,17.4,0.4c0.4-0.6-0.1-1.7-0.1-1.7l-1.9-1.5
		c0,0-0.1,1.2-0.5,1.7c-0.4,0.5-11.6,0.4-11.8-0.1c-0.2-0.5,0.4-1.1,0.4-1.1s-2.5,0.6-3.1,1.1C365.8,297.2,365.8,297.6,365.9,298.1z
		"/>
	<path id="XMLID_1315_" class="st25" d="M366.1,304.7c0.2,0.5,13.2,0.6,13.6,0.3c0.3-0.4-0.1-1.2-0.1-1.2l-1.5-1
		c0,0-0.1,0.8-0.4,1.2c-0.3,0.3-9,0.2-9.2-0.1c-0.2-0.3,0.3-0.8,0.3-0.8s-2,0.4-2.4,0.7C366.1,304.1,366,304.4,366.1,304.7z"/>
	<path id="XMLID_1314_" class="st25" d="M417.9,219c-0.4,1.3-9.1-0.4-18.6-3.3c-9.5-2.9-17.7-6.4-17.3-7.7c0.4-1.3,9.4-0.2,18.9,2.6
		C410.4,213.5,418.3,217.6,417.9,219z"/>
	<polygon id="XMLID_1313_" class="st25" points="395.2,210.8 396.9,209.9 398.4,210.7 399.4,211.6 401.9,212.3 403.7,211.9 
		405.6,212.4 405.6,214.2 405.5,215.5 403.4,214.8 399.5,214.1 396.6,212.8 394.7,212.2 	"/>
	<polygon id="XMLID_1312_" class="st25" points="401.1,230.7 389.5,229.6 390.8,225.3 401.7,228.6 	"/>
	<path id="XMLID_1311_" class="st25" d="M386.2,229.6c0.3,0.5,16.9,1.8,17.4,1.5c0.4-0.3,0-1.2,0-1.2l-1.8-1.1c0,0-0.2,0.8-0.6,1.1
		c-0.4,0.3-11.6-0.6-11.8-0.9c-0.3-0.3,0.5-0.8,0.5-0.8s-2.5,0.2-3.1,0.5C386.2,229,386.1,229.3,386.2,229.6z"/>
	
		<linearGradient id="XMLID_121_" gradientUnits="userSpaceOnUse" x1="-470.7859" y1="-1688.2244" x2="-438.4798" y2="-1688.6763" gradientTransform="matrix(0.9581 0.2864 0.2864 -0.9581 1322.9766 -1265.8394)">
		<stop  offset="0" style="stop-color:#604C41"/>
		<stop  offset="0.4545" style="stop-color:#D8CE71"/>
		<stop  offset="0.6424" style="stop-color:#AA9B61"/>
	</linearGradient>
	<path id="XMLID_1310_" class="st26" d="M401.7,228.6c-2.2-0.6-10-3-11-3.3c0-4.9-13-17.2-7.9-17.3c6.4,1.9,33.2,9.8,34.4,10.3
		C421.5,221.4,404.7,224,401.7,228.6z"/>
	<path id="XMLID_1309_" class="st27" d="M417.9,219c-0.5,1.7-10.5,0.2-19.7-2.6c-9.2-2.7-16.8-6.5-16.3-8.2
		c0.5-1.7,8.9-0.6,18.1,2.1C409.2,213.1,418.4,217.3,417.9,219z"/>
	
		<linearGradient id="XMLID_122_" gradientUnits="userSpaceOnUse" x1="-448.193" y1="-1741.0361" x2="-472.5923" y2="-1741.0361" gradientTransform="matrix(0.9581 0.2864 0.2864 -0.9581 1322.9766 -1265.8394)">
		<stop  offset="0.1515" style="stop-color:#604C41"/>
		<stop  offset="0.4545" style="stop-color:#D8CE71"/>
		<stop  offset="0.6424" style="stop-color:#AE7F46"/>
	</linearGradient>
	<polygon id="XMLID_1308_" class="st28" points="374.5,309 370.4,314 368.9,313.5 368.7,306.9 369.4,296.5 390.7,225.3 401.7,228.6 
		379.8,299.7 	"/>
	
		<linearGradient id="XMLID_123_" gradientUnits="userSpaceOnUse" x1="-473.7156" y1="-1707.0753" x2="-453.1568" y2="-1703.9124" gradientTransform="matrix(0.9581 0.2864 0.2864 -0.9581 1322.9766 -1265.8394)">
		<stop  offset="0" style="stop-color:#604C41"/>
		<stop  offset="0.2667" style="stop-color:#D8CE71"/>
		<stop  offset="0.4182" style="stop-color:#D7D8D9"/>
		<stop  offset="0.6424" style="stop-color:#AA9B61"/>
		<stop  offset="0.8364" style="stop-color:#C9C6B7"/>
	</linearGradient>
	<path id="XMLID_1307_" class="st29" d="M384.1,237.1c0.3,0.7,17.8,0.9,18.2,0.3c0.4-0.6-0.1-1.7-0.1-1.7l-2-1.5
		c0,0-0.1,1.2-0.6,1.7c-0.4,0.5-12.1,0.4-12.3-0.1c-0.3-0.4,0.4-1.1,0.4-1.1s-2.7,0.6-3.2,1.1S384,236.6,384.1,237.1z"/>
	
		<linearGradient id="XMLID_124_" gradientUnits="userSpaceOnUse" x1="-472.5374" y1="-1714.7329" x2="-451.9784" y2="-1711.5699" gradientTransform="matrix(0.9581 0.2864 0.2864 -0.9581 1322.9766 -1265.8394)">
		<stop  offset="0" style="stop-color:#604C41"/>
		<stop  offset="0.2667" style="stop-color:#D8CE71"/>
		<stop  offset="0.4182" style="stop-color:#D7D8D9"/>
		<stop  offset="0.6424" style="stop-color:#AA9B61"/>
		<stop  offset="0.8364" style="stop-color:#C9C6B7"/>
	</linearGradient>
	<path id="XMLID_1306_" class="st30" d="M382.1,244.6c0.3,0.7,17.2,0.9,17.6,0.4c0.4-0.6-0.1-1.7-0.1-1.7l-1.9-1.5
		c0,0-0.1,1.2-0.5,1.7c-0.4,0.5-11.7,0.4-12-0.1c-0.2-0.5,0.4-1.1,0.4-1.1s-2.6,0.6-3.1,1C382,243.7,381.9,244.1,382.1,244.6z"/>
	
		<linearGradient id="XMLID_125_" gradientUnits="userSpaceOnUse" x1="-471.348" y1="-1722.465" x2="-450.7891" y2="-1719.302" gradientTransform="matrix(0.9581 0.2864 0.2864 -0.9581 1322.9766 -1265.8394)">
		<stop  offset="0" style="stop-color:#604C41"/>
		<stop  offset="0.2667" style="stop-color:#D8CE71"/>
		<stop  offset="0.4182" style="stop-color:#D7D8D9"/>
		<stop  offset="0.6424" style="stop-color:#AA9B61"/>
		<stop  offset="0.8364" style="stop-color:#C9C6B7"/>
	</linearGradient>
	<path id="XMLID_1305_" class="st31" d="M379.8,252.2c0.3,0.7,17.3,0.9,17.7,0.3c0.4-0.6-0.1-1.7-0.1-1.7l-1.9-1.5
		c0,0-0.1,1.2-0.5,1.7c-0.4,0.5-11.7,0.3-12-0.1c-0.2-0.5,0.4-1.1,0.4-1.1s-2.6,0.6-3.1,1C379.7,251.2,379.6,251.7,379.8,252.2z"/>
	
		<linearGradient id="XMLID_126_" gradientUnits="userSpaceOnUse" x1="-470.0866" y1="-1730.6653" x2="-449.5275" y2="-1727.5023" gradientTransform="matrix(0.9581 0.2864 0.2864 -0.9581 1322.9766 -1265.8394)">
		<stop  offset="0" style="stop-color:#604C41"/>
		<stop  offset="0.2667" style="stop-color:#D8CE71"/>
		<stop  offset="0.4182" style="stop-color:#D7D8D9"/>
		<stop  offset="0.6424" style="stop-color:#AA9B61"/>
		<stop  offset="0.8364" style="stop-color:#C9C6B7"/>
	</linearGradient>
	<path id="XMLID_1304_" class="st32" d="M377.3,260.2c0.3,0.7,17.4,0.9,17.8,0.4c0.4-0.6-0.1-1.7-0.1-1.7l-1.9-1.5
		c0,0-0.1,1.2-0.5,1.7c-0.4,0.5-11.9,0.3-12.1-0.1c-0.2-0.5,0.4-1.1,0.4-1.1s-2.6,0.6-3.1,1C377.2,259.3,377.1,259.7,377.3,260.2z"
		/>
	
		<linearGradient id="XMLID_127_" gradientUnits="userSpaceOnUse" x1="-468.8802" y1="-1738.5049" x2="-448.3219" y2="-1735.342" gradientTransform="matrix(0.9581 0.2864 0.2864 -0.9581 1322.9766 -1265.8394)">
		<stop  offset="0" style="stop-color:#604C41"/>
		<stop  offset="0.2667" style="stop-color:#D8CE71"/>
		<stop  offset="0.4182" style="stop-color:#D7D8D9"/>
		<stop  offset="0.6424" style="stop-color:#AA9B61"/>
		<stop  offset="0.8364" style="stop-color:#C9C6B7"/>
	</linearGradient>
	<path id="XMLID_1303_" class="st33" d="M375,267.9c0.3,0.7,17.3,0.9,17.7,0.4c0.4-0.6-0.1-1.7-0.1-1.7l-1.9-1.5
		c0,0-0.1,1.2-0.5,1.7s-11.8,0.3-12.1-0.1c-0.2-0.5,0.4-1.1,0.4-1.1s-2.6,0.6-3.1,1C374.9,267,374.8,267.4,375,267.9z"/>
	
		<linearGradient id="XMLID_128_" gradientUnits="userSpaceOnUse" x1="-467.7709" y1="-1745.7168" x2="-447.2121" y2="-1742.554" gradientTransform="matrix(0.9581 0.2864 0.2864 -0.9581 1322.9766 -1265.8394)">
		<stop  offset="0" style="stop-color:#604C41"/>
		<stop  offset="0.2667" style="stop-color:#D8CE71"/>
		<stop  offset="0.4182" style="stop-color:#D7D8D9"/>
		<stop  offset="0.6424" style="stop-color:#AA9B61"/>
		<stop  offset="0.8364" style="stop-color:#C9C6B7"/>
	</linearGradient>
	<path id="XMLID_1298_" class="st34" d="M372.9,274.9c0.3,0.7,17,0.9,17.4,0.4c0.4-0.6-0.1-1.7-0.1-1.7l-1.9-1.5
		c0,0-0.1,1.2-0.5,1.7c-0.4,0.5-11.6,0.4-11.8-0.1c-0.2-0.5,0.4-1.1,0.4-1.1s-2.5,0.6-3.1,1.1C372.8,274,372.7,274.5,372.9,274.9z"
		/>
	
		<linearGradient id="XMLID_129_" gradientUnits="userSpaceOnUse" x1="-466.5447" y1="-1753.6858" x2="-445.986" y2="-1750.5228" gradientTransform="matrix(0.9581 0.2864 0.2864 -0.9581 1322.9766 -1265.8394)">
		<stop  offset="0" style="stop-color:#604C41"/>
		<stop  offset="0.2667" style="stop-color:#D8CE71"/>
		<stop  offset="0.4182" style="stop-color:#D7D8D9"/>
		<stop  offset="0.6424" style="stop-color:#AA9B61"/>
		<stop  offset="0.8364" style="stop-color:#C9C6B7"/>
	</linearGradient>
	<path id="XMLID_1258_" class="st35" d="M370.5,282.8c0.3,0.7,17,0.9,17.4,0.4c0.4-0.6-0.1-1.7-0.1-1.7l-1.9-1.5
		c0,0-0.1,1.2-0.5,1.7c-0.4,0.5-11.6,0.4-11.8-0.1c-0.2-0.5,0.4-1.1,0.4-1.1s-2.5,0.6-3.1,1.1C370.4,281.8,370.3,282.2,370.5,282.8z
		"/>
	
		<linearGradient id="XMLID_130_" gradientUnits="userSpaceOnUse" x1="-465.3076" y1="-1761.7268" x2="-444.7488" y2="-1758.564" gradientTransform="matrix(0.9581 0.2864 0.2864 -0.9581 1322.9766 -1265.8394)">
		<stop  offset="0" style="stop-color:#604C41"/>
		<stop  offset="0.2667" style="stop-color:#D8CE71"/>
		<stop  offset="0.4182" style="stop-color:#D7D8D9"/>
		<stop  offset="0.6424" style="stop-color:#AA9B61"/>
		<stop  offset="0.8364" style="stop-color:#C9C6B7"/>
	</linearGradient>
	<path id="XMLID_1257_" class="st36" d="M368.2,290.6c0.3,0.7,17,0.9,17.4,0.4c0.4-0.6-0.1-1.7-0.1-1.7l-1.9-1.5
		c0,0-0.1,1.2-0.5,1.7c-0.4,0.5-11.6,0.4-11.8-0.1c-0.2-0.5,0.4-1.1,0.4-1.1s-2.5,0.6-3.1,1.1C368.1,289.7,368,290.1,368.2,290.6z"
		/>
	
		<linearGradient id="XMLID_131_" gradientUnits="userSpaceOnUse" x1="-464.1315" y1="-1769.3713" x2="-443.5727" y2="-1766.2084" gradientTransform="matrix(0.9581 0.2864 0.2864 -0.9581 1322.9766 -1265.8394)">
		<stop  offset="0" style="stop-color:#604C41"/>
		<stop  offset="0.2667" style="stop-color:#D8CE71"/>
		<stop  offset="0.4182" style="stop-color:#D7D8D9"/>
		<stop  offset="0.6424" style="stop-color:#AA9B61"/>
		<stop  offset="0.8364" style="stop-color:#C9C6B7"/>
	</linearGradient>
	<path id="XMLID_1255_" class="st37" d="M365.9,298.1c0.3,0.7,17,0.9,17.4,0.4c0.4-0.6-0.1-1.7-0.1-1.7l-1.9-1.5
		c0,0-0.1,1.2-0.5,1.7c-0.4,0.5-11.6,0.4-11.8-0.1c-0.2-0.5,0.4-1.1,0.4-1.1s-2.5,0.6-3.1,1.1C365.8,297.2,365.8,297.6,365.9,298.1z
		"/>
	
		<linearGradient id="XMLID_132_" gradientUnits="userSpaceOnUse" x1="-463.0413" y1="-1776.4574" x2="-442.4824" y2="-1773.2944" gradientTransform="matrix(0.9581 0.2864 0.2864 -0.9581 1322.9766 -1265.8394)">
		<stop  offset="0" style="stop-color:#604C41"/>
		<stop  offset="0.2667" style="stop-color:#D8CE71"/>
		<stop  offset="0.4182" style="stop-color:#D7D8D9"/>
		<stop  offset="0.6424" style="stop-color:#AA9B61"/>
		<stop  offset="0.8364" style="stop-color:#C9C6B7"/>
	</linearGradient>
	<path id="XMLID_1254_" class="st38" d="M366.1,304.7c0.2,0.5,13.2,0.6,13.6,0.3c0.3-0.4-0.1-1.2-0.1-1.2l-1.5-1
		c0,0-0.1,0.8-0.4,1.2c-0.3,0.3-9,0.2-9.2-0.1c-0.2-0.3,0.3-0.8,0.3-0.8s-2,0.4-2.4,0.7C366.1,304.1,366,304.4,366.1,304.7z"/>
	
		<linearGradient id="XMLID_151_" gradientUnits="userSpaceOnUse" x1="-460.7216" y1="-1676.5862" x2="-460.7216" y2="-1701.0278" gradientTransform="matrix(0.9581 0.2864 0.2864 -0.9581 1322.9766 -1265.8394)">
		<stop  offset="0" style="stop-color:#604C41"/>
		<stop  offset="0.2667" style="stop-color:#D8CE71"/>
		<stop  offset="0.4182" style="stop-color:#D7D8D9"/>
		<stop  offset="0.6424" style="stop-color:#AA9B61"/>
		<stop  offset="0.8364" style="stop-color:#C9C6B7"/>
	</linearGradient>
	<path id="XMLID_1185_" class="st39" d="M417.9,219c-0.4,1.3-9.1-0.4-18.6-3.3c-9.5-2.9-17.7-6.4-17.3-7.7c0.4-1.3,9.4-0.2,18.9,2.6
		C410.4,213.5,418.3,217.6,417.9,219z"/>
	<polygon id="XMLID_1184_" class="st25" points="395.2,210.8 396.9,209.9 398.4,210.7 399.4,211.6 401.9,212.3 403.7,211.9 
		405.6,212.4 405.6,214.2 405.5,215.5 403.4,214.8 399.5,214.1 396.6,212.8 394.7,212.2 	"/>
	
		<linearGradient id="XMLID_152_" gradientUnits="userSpaceOnUse" x1="-466.091" y1="-1697.8857" x2="-454.6687" y2="-1697.8857" gradientTransform="matrix(0.9581 0.2864 0.2864 -0.9581 1322.9766 -1265.8394)">
		<stop  offset="0" style="stop-color:#604C41"/>
		<stop  offset="0.4545" style="stop-color:#D8CE71"/>
		<stop  offset="0.6424" style="stop-color:#AA9B61"/>
	</linearGradient>
	<polygon id="XMLID_1183_" class="st40" points="401.1,230.7 389.5,229.6 390.8,225.3 401.7,228.6 	"/>
	
		<linearGradient id="XMLID_153_" gradientUnits="userSpaceOnUse" x1="-474.7251" y1="-1700.5155" x2="-454.1659" y2="-1697.3525" gradientTransform="matrix(0.9581 0.2864 0.2864 -0.9581 1322.9766 -1265.8394)">
		<stop  offset="0" style="stop-color:#604C41"/>
		<stop  offset="0.2667" style="stop-color:#D8CE71"/>
		<stop  offset="0.4182" style="stop-color:#D7D8D9"/>
		<stop  offset="0.6424" style="stop-color:#AA9B61"/>
		<stop  offset="0.8364" style="stop-color:#C9C6B7"/>
	</linearGradient>
	<path id="XMLID_1182_" class="st41" d="M386.2,229.6c0.3,0.5,16.9,1.8,17.4,1.5c0.4-0.3,0-1.2,0-1.2l-1.8-1.1c0,0-0.2,0.8-0.6,1.1
		c-0.4,0.3-11.6-0.6-11.8-0.9c-0.3-0.3,0.5-0.8,0.5-0.8s-2.5,0.2-3.1,0.5C386.2,229,386.1,229.3,386.2,229.6z"/>
</g>
</svg>
